<?xml version="1.0" encoding="utf-8"?>
<!-- Generator: Adobe Illustrator 22.1.0, SVG Export Plug-In . SVG Version: 6.00 Build 0)  -->
<svg version="1.1" id="Capa_1" xmlns="http://www.w3.org/2000/svg" xmlns:xlink="http://www.w3.org/1999/xlink" x="0px" y="0px"
	 viewBox="0 0 32.8 23.6" style="enable-background:new 0 0 32.8 23.6;" xml:space="preserve">
<style type="text/css">
	.st0{fill:url(#SVGID_1_);}
	.st1{fill:url(#SVGID_2_);}
	.st2{fill:url(#SVGID_3_);}
	.st3{fill:url(#SVGID_4_);}
	.st4{fill:url(#SVGID_5_);}
	.st5{opacity:0.24;}
	.st6{fill:#FFFFFF;}
	.st7{fill:#2A1107;}
	.st8{clip-path:url(#SVGID_7_);fill:#2A1107;}
</style>
<g>
	<g>
		<linearGradient id="SVGID_1_" gradientUnits="userSpaceOnUse" x1="22.0991" y1="8.0778" x2="32.7767" y2="8.0778">
			<stop  offset="0" style="stop-color:#E9EAEC"/>
			<stop  offset="1" style="stop-color:#BEBFC5"/>
		</linearGradient>
		<path class="st0" d="M29.4,14.4c-0.5,0.3-1.1,0.1-1.4-0.4c-0.3-0.5-0.1-1.1,0.4-1.4c2.2-1.3,3-4.2,1.7-6.5s-4.2-3.2-6.5-1.9
			c-0.5,0.3-1.1,0.1-1.4-0.4c-0.3-0.5-0.1-1.1,0.4-1.4c3.2-1.8,7.4-0.6,9.2,2.7C33.7,8.4,32.7,12.6,29.4,14.4z"/>
		<linearGradient id="SVGID_2_" gradientUnits="userSpaceOnUse" x1="7.8466" y1="5.2584" x2="22.3709" y2="5.2584">
			<stop  offset="0" style="stop-color:#E9EAEC"/>
			<stop  offset="1" style="stop-color:#BEBFC5"/>
		</linearGradient>
		<path class="st1" d="M22.3,0.5c0.7,1-2,3.9-6,6.6S8.6,11,7.9,10s2-3.9,6-6.6S21.6-0.5,22.3,0.5z"/>
		<g>
			<linearGradient id="SVGID_3_" gradientUnits="userSpaceOnUse" x1="7.9474" y1="10.0318" x2="7.9968" y2="10.0318">
				<stop  offset="0" style="stop-color:#E9EAEC"/>
				<stop  offset="1" style="stop-color:#BEBFC5"/>
			</linearGradient>
			<path class="st2" d="M8,10.1L8,10.1C8,10,8,10,8,10.1z"/>
			<linearGradient id="SVGID_4_" gradientUnits="userSpaceOnUse" x1="22.2701" y1="0.5515" x2="22.3089" y2="0.5515">
				<stop  offset="0" style="stop-color:#E9EAEC"/>
				<stop  offset="1" style="stop-color:#BEBFC5"/>
			</linearGradient>
			<path class="st3" d="M22.3,0.6C22.3,0.6,22.3,0.5,22.3,0.6L22.3,0.6z"/>
			<linearGradient id="SVGID_5_" gradientUnits="userSpaceOnUse" x1="7.9968" y1="12.1094" x2="30.5287" y2="12.1094">
				<stop  offset="0" style="stop-color:#E9EAEC"/>
				<stop  offset="1" style="stop-color:#BEBFC5"/>
			</linearGradient>
			<path class="st4" d="M16.3,7.1c-3.9,2.6-7.5,3.9-8.3,3l10.3,13.2c0.7,1,3.9,0,7.2-2.2s5.5-4.8,4.8-5.8L22.3,0.6
				C22.8,1.6,20.2,4.5,16.3,7.1z"/>
		</g>
		<g class="st5">
			<path class="st6" d="M8,10.1L8,10.1C8,10,8,10,8,10.1z"/>
			<path class="st6" d="M22.3,0.6C22.3,0.6,22.3,0.5,22.3,0.6L22.3,0.6z"/>
		</g>
		<g>
			<path class="st6" d="M16.3,7.1c-1.9,1.3-3.8,2.3-5.3,2.8c-2.1,0.7-2.8,0.5-3,0.1l0.2-0.2c0.3,0.4,1.3,0.3,2.7-0.2
				c0.3-0.1,0.5-0.2,0.8-0.3C12.5,9,13.4,8.5,14.3,8c0.6-0.4,1.2-0.7,1.9-1.2c1.9-1.2,3.5-2.6,4.6-3.8c1-1.1,1.5-2,1.3-2.4l0.2-0.2
				c0.2,0.4,0.2,1.1-1.3,2.7C19.9,4.5,18.2,5.8,16.3,7.1z"/>
			<path class="st7" d="M11.7,9.3C12.5,9,13.4,8.5,14.3,8l0.3-0.6l-3.3,0.3l-0.5,1.5L11.7,9.3z"/>
		</g>
		<g>
			<path class="st6" d="M22.3,0.5L22,0.7c-0.3-0.4-1.3-0.3-2.7,0.2c-1.5,0.6-3.4,1.5-5.3,2.8c-1.9,1.2-3.5,2.6-4.6,3.8
				c-1,1.1-1.5,2-1.3,2.4L7.9,10C7.7,9.6,7.7,8.9,9.2,7.3c1.1-1.2,2.8-2.6,4.7-3.8c1.9-1.3,3.8-2.3,5.3-2.8
				C21.3-0.1,22,0.2,22.3,0.5z"/>
		</g>
		<g class="st5">
			<path class="st6" d="M29.7,4.3c-0.1,0-0.2,0-0.3-0.1c-2-2-5-1.2-5.1-1.2c-0.2,0.1-0.4-0.1-0.5-0.3c-0.1-0.2,0.1-0.4,0.3-0.5
				c0.1,0,3.5-0.9,5.8,1.4c0.2,0.2,0.2,0.4,0,0.5C29.9,4.3,29.8,4.3,29.7,4.3z"/>
		</g>
		<g>
			<g>
				<defs>
					<path id="SVGID_6_" d="M10.1,6c1-0.9,2.2-1.8,3.6-2.7c4-2.6,7.7-3.9,8.4-2.9c0.4,0.6-0.5,2-2.2,3.6c-1,1-2.3,2-3.8,3
						c-0.6,0.4-1.2,0.8-1.8,1.1c0,0-2.9,2-3.4,3.3c-0.5,1.3-2.4,7.4-6.4,7.4S-0.8,9.7,0.7,8.5S6.4,5,10.1,6z"/>
				</defs>
				<clipPath id="SVGID_7_">
					<use xlink:href="#SVGID_6_"  style="overflow:visible;"/>
				</clipPath>
				<path class="st8" d="M19.6,4.3c0,0-1.4,1.4-7.1,1.5S4,7.2,2.7,8.1s-1.4,2.4-0.6,3.1s1.9,0.3,2.4-0.1c0.5-0.4,1.2,0.6,0.4,1.2
					s-2.2,1.6-2.3,3.4c-0.1,1.8,2,3.2,4,1.1c1.5-1.6,2.8-5.4,5.1-7.5c0.7-0.6,1.4-1,2.3-1.2c0,0,0.1,0,0.3-0.1
					C15.4,7.8,18.7,6.8,19.6,4.3z"/>
			</g>
		</g>
	</g>
	<path class="st7" d="M4.7,5.1c0,0-3,0.9-3,1.6C1.6,7.5,3.6,6.2,4.7,5.1z"/>
	<path class="st7" d="M2.1,12.3c0,0-0.9,0.4-1.6,1.1S0,15.1,0.4,15C1,14.9,1.1,13.2,2.1,12.3z"/>
	<path class="st7" d="M8.8,15.4c0,0-0.4,0.9-0.3,2c0,1.1,0.8,1.5,1,1.2C9.8,18,8.7,16.7,8.8,15.4z"/>
</g>
</svg>
