<?xml version="1.0" encoding="utf-8"?>
<!-- Generator: Adobe Illustrator 22.1.0, SVG Export Plug-In . SVG Version: 6.00 Build 0)  -->
<svg version="1.1" id="Capa_1" xmlns="http://www.w3.org/2000/svg" xmlns:xlink="http://www.w3.org/1999/xlink" x="0px" y="0px"
	 viewBox="0 0 167.8 357.2" style="enable-background:new 0 0 167.8 357.2;" xml:space="preserve">
<style type="text/css">
	.st0{fill:#95535F;}
	.st1{fill:url(#SVGID_1_);}
	.st2{opacity:6.000000e-02;fill:#13003A;enable-background:new    ;}
	.st3{fill:url(#SVGID_2_);}
	.st4{fill:url(#SVGID_3_);}
	.st5{fill:url(#SVGID_4_);}
	.st6{fill:url(#SVGID_5_);}
	.st7{fill:url(#SVGID_6_);}
	.st8{fill:url(#SVGID_7_);}
	.st9{fill:url(#SVGID_8_);}
	.st10{opacity:0.1;fill:#13003A;enable-background:new    ;}
	.st11{fill:url(#SVGID_9_);}
	.st12{opacity:0.2;}
	.st13{fill:#0F0038;}
	.st14{opacity:0.1;fill:#0F0038;enable-background:new    ;}
	.st15{fill:url(#SVGID_10_);}
	.st16{fill:url(#SVGID_11_);}
	.st17{fill:url(#SVGID_12_);}
	.st18{fill:url(#SVGID_13_);}
	.st19{opacity:0.15;fill:#0F0038;enable-background:new    ;}
	.st20{fill:url(#SVGID_14_);}
	.st21{opacity:0.12;fill:#13003A;enable-background:new    ;}
	.st22{opacity:0.16;fill:#13003A;enable-background:new    ;}
	.st23{fill:#41704B;}
</style>
<g>
	<g>
		<path class="st0" d="M15.5,287.8l-5.7,14.9c0,0,2.8,9.7,12.6,6l7.6-16.8L15.5,287.8z"/>
		<g>
			
				<linearGradient id="SVGID_1_" gradientUnits="userSpaceOnUse" x1="-410.3133" y1="109.8035" x2="-383.3151" y2="109.8035" gradientTransform="matrix(0.96 0.2799 0.2799 -0.96 359.3568 542.0463)">
				<stop  offset="0" style="stop-color:#E9EAEC"/>
				<stop  offset="1" style="stop-color:#BEBFC5"/>
			</linearGradient>
			<path class="st1" d="M10.7,300.2c0,0-9.5,6.5-10.5,8c-0.8,1.3,1.4,28.9,3,40.5c0.3,2.2,2.6,3.4,4.6,2.5c0.7-0.3,1.5-0.8,2.3-1.4
				c2.6-1.8,5.6-4.9,8.4-10.3c6.9-13.2,3.9-30.9,3.9-30.9S22.1,299.4,10.7,300.2z"/>
			<path class="st2" d="M10.1,349.9c-0.8,0.6-1.6,1-2.3,1.4c-2,0.9-4.3-0.4-4.6-2.5c-1.5-11.6-3.8-39.2-3-40.5c0,0,11-1.2,12.5,11.8
				C14.3,333,11.6,344.3,10.1,349.9z"/>
			
				<linearGradient id="SVGID_2_" gradientUnits="userSpaceOnUse" x1="-407.746" y1="108.3358" x2="-387.2447" y2="108.3358" gradientTransform="matrix(0.96 0.2799 0.2799 -0.96 359.3568 542.0463)">
				<stop  offset="0" style="stop-color:#4C855A"/>
				<stop  offset="1" style="stop-color:#65B380"/>
			</linearGradient>
			<path class="st3" d="M4.7,304.5c-0.3,0.2-0.7,0.5-1,0.7C6.8,306,14,309,14.9,320.4c1.1,14.3-3.3,27.5-3.6,28.6
				c0.5-0.4,0.9-0.8,1.4-1.3c1.2-4.1,4.1-15.4,3.2-27.4C15.1,309.2,8.4,305.6,4.7,304.5z"/>
		</g>
	</g>
	<g>
		<path class="st0" d="M58.8,296.7l-3.1,14.7c0,0,4,8.6,12.6,3.7l4.5-16.8L58.8,296.7z"/>
		<g>
			
				<linearGradient id="SVGID_3_" gradientUnits="userSpaceOnUse" x1="-138.3866" y1="96.8625" x2="-112.9432" y2="96.8625" gradientTransform="matrix(0.9922 0.1248 0.1248 -0.9922 171.1806 444.4792)">
				<stop  offset="0" style="stop-color:#E9EAEC"/>
				<stop  offset="1" style="stop-color:#BEBFC5"/>
			</linearGradient>
			<path class="st4" d="M56.2,309c0,0-7.9,7.5-8.5,9c-0.6,1.3,5.5,25.9,8.6,36.7c0.7,2.3,3.4,3.2,5.3,1.8c0.5-0.3,1-0.8,1.5-1.2
				c2.1-2,4.4-5.4,6.3-10.9c4.5-13.3-1-29.3-1-29.3S66.7,306.5,56.2,309z"/>
			<path class="st2" d="M63.1,355.3c-0.5,0.5-1,0.9-1.5,1.2c-1.9,1.4-4.6,0.5-5.3-1.8c-3.2-10.8-9.2-35.4-8.6-36.7
				c0,0,10.1-2.8,13.4,9.1C64.4,339,63.3,349.7,63.1,355.3z"/>
			
				<linearGradient id="SVGID_4_" gradientUnits="userSpaceOnUse" x1="-135.9786" y1="95.3976" x2="-116.6626" y2="95.3976" gradientTransform="matrix(0.9922 0.1248 0.1248 -0.9922 171.1806 444.4792)">
				<stop  offset="0" style="stop-color:#4C855A"/>
				<stop  offset="1" style="stop-color:#65B380"/>
			</linearGradient>
			<path class="st5" d="M51.3,313.8c-0.3,0.3-0.5,0.6-0.8,0.8c3,0.3,10.2,2,12.7,12.5c3.1,13.2,1.1,26.1,0.9,27.2
				c0.4-0.4,0.8-0.9,1.1-1.4c0.5-4,1.5-14.9-1.1-26C61.6,316.6,54.9,314.3,51.3,313.8z"/>
		</g>
	</g>
	<g>
		
			<linearGradient id="SVGID_5_" gradientUnits="userSpaceOnUse" x1="56.3692" y1="59.3" x2="75.9383" y2="59.3" gradientTransform="matrix(1 0 0 -1 0 357.4)">
			<stop  offset="0" style="stop-color:#84B3E4"/>
			<stop  offset="1" style="stop-color:#5796DA"/>
		</linearGradient>
		<path class="st6" d="M68.3,305.5l-6.7-1.2c-3.4-0.6-5.7-3.8-5.1-7.1l0.3-1.5c0.6-3.3,3.9-5.6,7.3-5l6.7,1.2
			c3.4,0.6,5.7,3.8,5.1,7.1l-0.3,1.5C75,303.8,71.8,306.1,68.3,305.5z"/>
		<path class="st2" d="M56.5,297.2c-0.6,3.3,1.7,6.5,5.1,7.1l6.7,1.2c3.4,0.6,6.7-1.6,7.3-5l0.3-1.5c0.6-3.3-1.7-6.5-5.1-7.1
			l-4.6-0.8l-2.1-0.4c0,0,2.4,3.8,2.1,7.4C65.9,301.8,59.2,304,56.5,297.2z"/>
	</g>
	<g>
		
			<linearGradient id="SVGID_6_" gradientUnits="userSpaceOnUse" x1="-300.8288" y1="134.5359" x2="-280.9937" y2="134.5359" gradientTransform="matrix(0.9755 0.2202 0.2202 -0.9755 276.0145 487.2047)">
			<stop  offset="0" style="stop-color:#84B3E4"/>
			<stop  offset="1" style="stop-color:#5796DA"/>
		</linearGradient>
		<path class="st7" d="M22.3,299.7l-6.4-2.7c-3.3-1.4-4.8-5-3.4-8.2l0.6-1.4c1.3-3.2,5.1-4.7,8.3-3.3l6.4,2.7c3.3,1.4,4.8,5,3.4,8.2
			l-0.6,1.4C29.3,299.6,25.6,301.1,22.3,299.7z"/>
		<path class="st2" d="M12.5,288.9c-1.3,3.2,0.2,6.8,3.4,8.2l6.4,2.7c3.3,1.4,7-0.1,8.3-3.3l0.6-1.4c1.3-3.2-0.2-6.8-3.4-8.2
			l-4.4-1.8l-2-0.8c0,0,1.6,4.3,0.5,7.8S13.6,296.2,12.5,288.9z"/>
	</g>
	
		<linearGradient id="SVGID_7_" gradientUnits="userSpaceOnUse" x1="11.9796" y1="132.6909" x2="62.0412" y2="132.6909" gradientTransform="matrix(1 0 0 -1 0 357.4)">
		<stop  offset="0" style="stop-color:#84B3E4"/>
		<stop  offset="1" style="stop-color:#5796DA"/>
	</linearGradient>
	<path class="st8" d="M24.6,159.3c0,0-8.6,13.6-4.5,31.4c4.1,17.8,12.3,37.7,3.4,54.3s-19.2,38.4-2.6,45.5
		c20.9,9,33.5-39.5,33.8-46.4s6.2-31.4,6.2-31.4S72.5,147.2,24.6,159.3z"/>
	
		<linearGradient id="SVGID_8_" gradientUnits="userSpaceOnUse" x1="29.1646" y1="131.3789" x2="91.3157" y2="131.3789" gradientTransform="matrix(1 0 0 -1 0 357.4)">
		<stop  offset="0" style="stop-color:#84B3E4"/>
		<stop  offset="1" style="stop-color:#5796DA"/>
	</linearGradient>
	<path class="st9" d="M29.4,161.7c0,0-2.2,19.9,8,32.9s21.9,32,24.7,43.7c0,0-5.3,10.9-6.8,28.7s-0.9,24.1,4,28.3
		c4.9,4.2,16.6,5,21.3-3.5s11.4-32.1,10.8-57.4s-15.1-72.1-15.1-72.1S67.6,143.3,29.4,161.7z"/>
	<path class="st2" d="M59.3,295.3c4.9,4.2,16.6,5,21.3-3.5s11.4-32.1,10.8-57.4s-15.1-72.1-15.1-72.1s-6.8-14.8-34.6-5.6
		c0,0-3.4,5.8-1.7,8.3c1.7,2.5-1.4,16.4,12.2,30.5c13.1,13.7,22.1,37.2,21.9,42.4c0,0.6,0,1.2,0.1,1.7
		C74.8,247.9,77.5,293.9,59.3,295.3z"/>
	<path class="st10" d="M59.3,162.2c0,0,7.1,12.5,7.9,14.5c0,0,2.3-8.5,0.6-15.6C67.7,161.1,64,159.7,59.3,162.2z"/>
	<g>
		
			<linearGradient id="SVGID_9_" gradientUnits="userSpaceOnUse" x1="-326.66" y1="314.0994" x2="-320.0751" y2="314.0994" gradientTransform="matrix(0.9666 0.2564 0.2564 -0.9666 262.8659 512.9211)">
			<stop  offset="0" style="stop-color:#EAC29C"/>
			<stop  offset="1" style="stop-color:#DF9C74"/>
		</linearGradient>
		<path class="st11" d="M27.7,125.4l2.6,5.5l4.9-8C35.2,122.9,31.4,122.1,27.7,125.4z"/>
		<g>
			<path class="st0" d="M140,92.4c0,0,10.9-15.3,10.8-16.6c-0.1-1.3,0.3-14,0.6-16.8s4.1-13.8,7-15.1s-2.3,8.3-1.6,13.1
				c0,0,2.6-3.1,4.5-2.9c2,0.2,2.1,1.7,2.1,1.7s1.8,0.1,1.7,1.1c0,0,2.8,0.1,2.7,3s-1,16.9-6.2,19.9s-8.4,18.9-8.4,18.9L140,92.4z"
				/>
			<g class="st12">
				<path class="st13" d="M163.5,55.8c-0.5,0.7-1,1.3-1.5,1.9c-0.6,0.6-1.1,1.2-1.8,1.7c0.5-0.7,1-1.3,1.5-1.9
					C162.3,56.8,162.9,56.3,163.5,55.8z"/>
				<path class="st13" d="M165.3,56.9c-0.1,0.7-0.4,1.4-0.7,2s-0.6,1.3-1,1.9c0.2-0.7,0.4-1.3,0.7-2S164.9,57.5,165.3,56.9z"/>
				<path class="st13" d="M154.8,59.7c0.9-0.2,1.7-0.2,2.6-0.1c0.4,0.1,0.9,0.2,1.3,0.4c0.2,0.1,0.4,0.3,0.6,0.3
					c0.1,0.1,0.2,0.1,0.3,0.1s0.2,0.1,0.3,0.1c0.8,0.3,1.6,0.2,2.5,0.4c0.4,0.1,0.9,0.2,1.3,0.4c0.4,0.2,0.8,0.4,1.1,0.7
					c-0.7-0.5-1.6-0.7-2.4-0.8c-0.8-0.1-1.7,0-2.6-0.3c-0.1,0-0.2-0.1-0.3-0.1s-0.2-0.1-0.3-0.2c-0.2-0.1-0.3-0.2-0.5-0.3
					c-0.4-0.2-0.8-0.3-1.2-0.4C156.5,59.8,155.6,59.7,154.8,59.7z"/>
			</g>
		</g>
		<g>
			<path class="st0" d="M118.1,19.6c0,0,1.1,3.4,0.8,7.6c-0.2,2.5,0.4,4.9,1.7,7L123,38c0.3,0.5,0,1-0.5,1.1
				c-0.7,0.1-1.8,0.3-3.1,0.2c-1,0-1.9,0.7-2,1.7c-0.5,4.6-2.3,16.1-6.5,16.5c-5.2,0.5-9.5-4.9-12,4.6c-1.7,6.5-2.6,9.9-2.6,9.9
				l-11.5-4.2l-13.4-4.9c0,0,8.5-3.3,10.3-11.9C83.5,42.3,75.6,7.8,118.1,19.6z"/>
			<path class="st14" d="M84.9,67.7l-13.4-4.9c0,0,8.5-3.3,10.3-11.9l21-8.5c0,0,1.4,1,2.7,0.7c0,0-2.4,3.7-6.4,4.7s-3,9.1-7.5,13.6
				C86.7,66.1,84.9,67.7,84.9,67.7z"/>
			<g>
				
					<linearGradient id="SVGID_10_" gradientUnits="userSpaceOnUse" x1="-266.8297" y1="412.8353" x2="-261.631" y2="412.8353" gradientTransform="matrix(0.9666 0.2564 0.2564 -0.9666 262.8659 512.9211)">
					<stop  offset="0" style="stop-color:#230C12"/>
					<stop  offset="1" style="stop-color:#0B0006"/>
				</linearGradient>
				<path class="st15" d="M114.7,47.1c-0.8-0.2-2.1-0.7-3.7-1.8c-0.1-0.1-0.1-0.2-0.1-0.3c0.1-0.1,0.2-0.1,0.3-0.1
					c2.3,1.7,4.2,1.9,4.2,1.9c0.1,0,0.2,0.1,0.2,0.3c0,0.1-0.1,0.2-0.3,0.2C115.5,47.2,115.2,47.2,114.7,47.1z"/>
			</g>
			
				<linearGradient id="SVGID_11_" gradientUnits="userSpaceOnUse" x1="-267.28" y1="429.5308" x2="-265.42" y2="429.5308" gradientTransform="matrix(0.9666 0.2564 0.2564 -0.9666 262.8659 512.9211)">
				<stop  offset="0" style="stop-color:#230C12"/>
				<stop  offset="1" style="stop-color:#0B0006"/>
			</linearGradient>
			<path class="st16" d="M116.5,29.7c-0.3,1.3-1,2.3-1.5,2.1c-0.5-0.1-0.6-1.3-0.3-2.6c0.3-1.3,1-2.3,1.5-2.1
				C116.7,27.2,116.8,28.4,116.5,29.7z"/>
			
				<linearGradient id="SVGID_12_" gradientUnits="userSpaceOnUse" x1="-309.6487" y1="425.0307" x2="-263.2929" y2="425.0307" gradientTransform="matrix(0.9666 0.2564 0.2564 -0.9666 262.8659 512.9211)">
				<stop  offset="0" style="stop-color:#311A79"/>
				<stop  offset="1" style="stop-color:#0F0B35"/>
			</linearGradient>
			<path class="st17" d="M115.8,20.4c0,0,0.1,4.3-2.7,5.9s-3.7,6.9-2.2,8.5c0,0-1.6,1.9-3.7-0.3c-2.1-2.1-2.5-5.4-5.1-3.6
				s-2.5,9.3,0.7,11.5c0,0-1.4,3.9-3.7,4.3c0,0,0.1-1,0.1-1.6c0,0-2.1,0.8-3.4,2.4s-2.9,7-7.9,7.6c0,0,0.6-1.4,0.4-1.7
				c0,0-1,1.4-1.7,1.6c0,0-0.1-1.5-0.7-2c0,0-1,1.7-0.7,2.7c0,0-2.1-0.8-2-3.5c0,0-0.9,1.4-3.1,1.5c0,0,0.7-1,0.6-2.3
				c0,0-2.3,1.7-4.3,1.4c0,0,3.8-3.4,2.4-7.4s-6.9-12-3-24.7c0,0-1.2,0.8-1.5,1.4c0,0-1.5-2.9,2.2-5.7c0,0,0-0.6-2.4,0.1
				c0,0,1.8-1.4,2.7-0.9c0,0-0.5-3.6,2.7-6.4c0,0-0.2,2.4,0.2,2.7c0.4,0.4,2.5-5.5,9.8-7.9s8.7-4,8.7-4s-0.8,3.4-1.9,3.7
				c0,0,10.4-2.7,16.5,0.2s11.8,9.8,7.6,16.8c0,0-0.3-1.7-0.8-2.1c0,0-0.3,3.5-2.1,4.9C117.7,23.7,117.4,21.2,115.8,20.4z"/>
			<g>
				
					<linearGradient id="SVGID_13_" gradientUnits="userSpaceOnUse" x1="-268.9583" y1="433.0474" x2="-264.66" y2="433.0474" gradientTransform="matrix(0.9666 0.2564 0.2564 -0.9666 262.8659 512.9211)">
					<stop  offset="0" style="stop-color:#230C12"/>
					<stop  offset="1" style="stop-color:#0B0006"/>
				</linearGradient>
				<path class="st18" d="M114.1,26.8c-0.1,0-0.2-0.1-0.3-0.2c-0.2-0.2-0.1-0.5,0.1-0.7c2.2-1.6,4-0.9,4.1-0.8
					c0.3,0.1,0.4,0.4,0.3,0.6c-0.1,0.2-0.4,0.4-0.6,0.3c-0.1,0-1.4-0.5-3.2,0.7C114.4,26.8,114.2,26.8,114.1,26.8z"/>
			</g>
			<path class="st19" d="M105.6,38.9c0-0.2-0.2-0.4-0.3-0.6c-0.3-0.3-0.5-0.5-0.7-0.7s-0.3-0.5-0.4-0.7c0-0.1,0-0.3,0-0.3
				c0-0.1,0-0.1,0.1-0.1c0.2-0.1,0.5,0,0.8,0l0.3,0.1l0.1-0.3c0.2-0.3,0.1-0.6,0.1-0.9s-0.1-0.5-0.2-0.7c-0.2-0.5-0.5-0.9-0.9-1.3
				c-0.2-0.2-0.5-0.3-0.8-0.3s-0.5,0.1-0.8,0.2c-0.2,0.2-0.4,0.4-0.4,0.6c-0.1,0.2-0.1,0.5,0,0.7c0-0.5,0.2-0.9,0.6-1.1
				c0.2-0.1,0.4-0.1,0.6-0.1c0.2,0,0.3,0.1,0.5,0.3c0.3,0.3,0.5,0.7,0.6,1.1c0.1,0.2,0.1,0.4,0.1,0.6c0,0.1,0,0.2,0,0.2
				c-0.3,0-0.5-0.1-0.9,0c-0.2,0.1-0.5,0.3-0.6,0.6c-0.1,0.3-0.1,0.5,0,0.7c0.1,0.4,0.3,0.8,0.6,1.1c0.3,0.3,0.6,0.5,0.7,0.7
				c0.2,0.2,0.3,0.4,0.2,0.6c-0.1,0.3-0.3,0.5-0.5,0.6c-0.5,0.2-1.2-0.2-1.6-0.7c0.1,0.3,0.3,0.6,0.6,0.9c0.3,0.2,0.7,0.4,1.1,0.3
				c0.4-0.1,0.8-0.4,0.9-0.8C105.6,39.4,105.6,39.1,105.6,38.9z"/>
		</g>
		
			<linearGradient id="SVGID_14_" gradientUnits="userSpaceOnUse" x1="-345.9719" y1="333.7713" x2="-211.0871" y2="333.7713" gradientTransform="matrix(0.9666 0.2564 0.2564 -0.9666 262.8659 512.9211)">
			<stop  offset="0" style="stop-color:#4C855A"/>
			<stop  offset="1" style="stop-color:#65B380"/>
		</linearGradient>
		<path class="st20" d="M27.7,125.4c0,0-3.5-1.9-2.8-4.7c0.7-2.8-6.4-2.8-8-4.8s-1.9-5.5-0.3-7.3s0.5-5-0.7-6.5s-1.3-8.3,3.6-13.5
			S39.9,73,42.2,70.7c2.3-2.3,21.5-16.7,41.9-9.8c21,7.1,27.5,14.5,31.1,20.5s14,21.7,14,21.7s0.1-4.5,4.2-6.2c4-1.7,4.9-6.9,7.1-7
			c0.6,0,2.1,0.4,3.9,1c4.3,1.5,10.3,4.4,10.1,6.7c-0.2,3.2-1.8,4.2-2.4,5.5c-0.6,1.3,0.7,6.5-2.6,10.6c-1.2,1.5-2.3,3.4-3.3,5.3
			c-1.6,3-3.2,6.1-5.3,7.5c-2.4,1.7-6.4,3-8.5,3.7c-0.9,0.3-1.9,0.2-2.8-0.1c-3-1.2-10.1-4.7-15.4-11.3
			c-6.8-8.6-10.2-16.5-15.4-17.8c0,0-0.1,8.1-6.7,15.3c-6.6,7.2-6.9,24.3-9.1,27.9s-4.9,10.8-3.9,16.2s0.1,6.8-1.3,7.3
			c0,0-8.8-4.9-23.6-4.8c-11,0.1-13,2.9-19.7,2.8c-1.9,0-4.3-0.4-7.3-1.3c-13.6-4.1-9.5-15.5-8.6-16.3c0.9-0.7,10.6-13.9,13.9-24.3
			L27.7,125.4z"/>
		<path class="st21" d="M137.8,109.3c-1.7,0.6-3.4,0.1-4.1-2s-2.5-1.9-3.5-2.3c-0.9-0.4-1-1.9-1-1.9s0.1-4.5,4.2-6.2
			c4-1.7,4.9-6.9,7.1-7c0.6,0,2.1,0.4,3.9,1c0,0-1.9,2.3-3.8,5.9c0,0-2.1,2.9-4.8,3.8s-0.3,3-1.1,4.2
			C133.9,106.1,135.8,108.6,137.8,109.3z"/>
		<path class="st22" d="M34.5,165.6c6.7,0.1,8.7-2.6,19.7-2.8c15-0.3,23.6,4.8,23.6,4.8c1.4-0.5,2.3-1.9,1.3-7.3
			c-1-5.4,1.8-12.6,3.9-16.2s2.5-20.7,9.1-27.9c6.6-7.2,6.7-15.3,6.7-15.3c5.1,1.4,8.6,9.2,15.4,17.8c5.2,6.6,12.4,10.1,15.4,11.3
			c0.9,0.4,1.9,0.4,2.8,0.1c2.1-0.6,6.1-2,8.5-3.7c2.1-1.4,3.6-4.5,5.3-7.5c0,0-1.8,0.1-4.3,2.7s-6.6,2.4-8,1.2
			c-1.3-1.2-1.9-2.8-5-4.7c-3.1-1.9-2.2-7.7-11.1-9.9c-8.9-2.3-10.2-10.3-15.4-11.7c-5.3-1.5-5.9,1.7-8,5.4
			c-2.1,3.7-10.8,8.6-13,11.8c-2.2,3.2-7.4,16.6-8.4,18.1s-7,8.2-12.1,9.7s-7.2,9.6-8.1,10.8c-1,1.2-2.4,3.5-7,5.5
			C42.1,159.5,39.4,165.5,34.5,165.6z"/>
		<g>
			<path class="st23" d="M152.1,103.2c-1.3-0.7-2.7-1.5-4-2.2s-2.7-1.4-4.1-2.1c-1.4-0.7-2.7-1.3-4.1-1.8c-1.4-0.6-2.8-1.1-4.3-1.5
				c1.5,0.2,3,0.5,4.5,1s2.9,1.1,4.3,1.7C147,99.7,149.7,101.2,152.1,103.2z"/>
			<path class="st23" d="M150.1,101.9c0.5-1.1,1.1-2.1,1.6-3.1l0.8-1.5c0.3-0.5,0.5-1,0.8-1.5c-0.2,1.2-0.6,2.3-1.2,3.3
				c-0.3,0.5-0.6,1-0.9,1.5C150.9,101,150.5,101.5,150.1,101.9z"/>
			<path class="st23" d="M147.7,100.5c0.5-1.1,1.1-2.2,1.6-3.2c0.3-0.5,0.5-1.1,0.8-1.6l0.8-1.7c-0.1,1.2-0.5,2.4-1,3.5
				c-0.3,0.5-0.6,1.1-0.9,1.6C148.5,99.6,148.1,100.1,147.7,100.5z"/>
			<path class="st23" d="M148.3,92.7c-0.3,1.2-0.8,2.3-1.3,3.4s-1.1,2.2-1.8,3.2c0.3-1.2,0.8-2.3,1.3-3.4
				C147.1,94.7,147.6,93.7,148.3,92.7z"/>
			<path class="st23" d="M142.5,97.9c0.1-0.6,0.3-1.2,0.6-1.7c0.2-0.6,0.5-1.1,0.7-1.6c0.6-1.1,1.2-2.1,2-3
				c-0.2,0.6-0.5,1.1-0.7,1.6c-0.3,0.5-0.5,1.1-0.8,1.6C143.8,95.9,143.2,96.9,142.5,97.9z"/>
			<path class="st23" d="M143.1,90.6c-0.5,1.1-1,2.1-1.6,3.1c-0.3,0.5-0.6,1-0.9,1.5c-0.3,0.5-0.6,1-0.9,1.5
				c0.3-1.2,0.7-2.2,1.3-3.3c0.3-0.5,0.6-1,0.9-1.5C142.3,91.5,142.7,91,143.1,90.6z"/>
			<path class="st23" d="M137.5,96c0.1-0.6,0.4-1.1,0.6-1.7c0.2-0.5,0.5-1.1,0.8-1.6s0.6-1,1-1.4c0.4-0.5,0.8-0.9,1.3-1.2
				c-0.7,1-1.3,2-1.9,2.9C138.8,94.1,138.2,95.1,137.5,96z"/>
		</g>
		<path class="st22" d="M49.7,77.7c-2.7,9.6-17.3,46-17.3,46s-0.8-1.6,0-5.4c0,0-4.3-1.9-4.2-5.9c0.1-4,4.4-5.2,4.4-8.3
			c0-3-1.8-6.2,0.5-10.8C35.6,88.7,45,87.3,49.7,77.7z"/>
		<g>
			<path class="st23" d="M24.9,120.7c1.7-0.5,3.4-1,5.1-1.5c0.9-0.3,1.7-0.5,2.5-0.8c0.8-0.3,1.7-0.6,2.4-1.1
				c-0.7,0.6-1.5,1-2.3,1.4c-0.8,0.4-1.7,0.7-2.5,0.9C28.5,120.2,26.7,120.6,24.9,120.7z"/>
			<path class="st23" d="M29.2,124.9c-0.4-0.2-0.7-0.6-1-0.9s-0.5-0.7-0.7-1.1s-0.3-0.8-0.4-1.3c-0.1-0.4,0-0.9,0.1-1.3
				c0,0.4,0.1,0.9,0.2,1.3s0.3,0.8,0.5,1.2C28.3,123.4,28.7,124.1,29.2,124.9z"/>
			<path class="st23" d="M31.3,124.1c-0.7-0.5-1.3-1.2-1.6-2c-0.1-0.4-0.2-0.9-0.2-1.3s0.1-0.9,0.3-1.3c0,0.4,0,0.8,0.1,1.2
				c0.1,0.4,0.1,0.8,0.3,1.2c0.1,0.4,0.3,0.7,0.5,1.1C30.9,123.4,31.1,123.7,31.3,124.1z"/>
			<path class="st23" d="M32.9,122.6c-0.3-0.2-0.5-0.5-0.7-0.8c-0.2-0.3-0.3-0.6-0.4-0.9s-0.2-0.7-0.2-1s0-0.7,0.1-1
				c0.1,0.3,0.1,0.7,0.2,1s0.2,0.6,0.3,0.9C32.5,121.4,32.7,122,32.9,122.6z"/>
		</g>
		<path class="st23" d="M129.2,103.2c0.1,0.5,0.3,0.9,0.6,1.3c0.1,0.2,0.3,0.3,0.5,0.4s0.4,0.1,0.7,0.2c0.5,0.1,1,0.2,1.5,0.4
			c0.5,0.2,0.9,0.6,1.2,1.1c0.1,0.1,0.1,0.2,0.2,0.4l0.2,0.4c0.1,0.2,0.2,0.4,0.3,0.6c0.2,0.4,0.5,0.8,0.8,1
			c0.7,0.5,1.7,0.6,2.7,0.5c-0.4,0.2-0.9,0.4-1.5,0.4c-0.5,0-1.1-0.1-1.5-0.4c-0.5-0.3-0.8-0.7-1.1-1.1c-0.1-0.2-0.2-0.5-0.3-0.7
			l-0.1-0.3l-0.2-0.3c-0.2-0.4-0.6-0.6-0.9-0.9c-0.4-0.2-0.8-0.3-1.3-0.5c-0.2-0.1-0.5-0.1-0.7-0.3c-0.3-0.1-0.4-0.4-0.6-0.6
			C129.3,104.2,129.2,103.7,129.2,103.2z"/>
	</g>
</g>
</svg>
