<?xml version="1.0" encoding="utf-8"?>
<!-- Generator: Adobe Illustrator 22.1.0, SVG Export Plug-In . SVG Version: 6.00 Build 0)  -->
<svg version="1.1" id="Capa_1" xmlns="http://www.w3.org/2000/svg" xmlns:xlink="http://www.w3.org/1999/xlink" x="0px" y="0px"
	 viewBox="0 0 176.2 131.8" style="enable-background:new 0 0 176.2 131.8;" xml:space="preserve">
<style type="text/css">
	.st0{opacity:0.7;fill:url(#SVGID_1_);enable-background:new    ;}
	.st1{fill:#FFFFFF;}
</style>
<g>
	
		<linearGradient id="SVGID_1_" gradientUnits="userSpaceOnUse" x1="-0.1" y1="66" x2="176.2" y2="66" gradientTransform="matrix(1 0 0 -1 0 131.8)">
		<stop  offset="0" style="stop-color:#DDE6F8"/>
		<stop  offset="1" style="stop-color:#AEC5EC"/>
	</linearGradient>
	<path class="st0" d="M159.8,131.8H16.4c-9.1,0-16.5-7.4-16.5-16.5v-99c0-9.1,7.4-16.5,16.5-16.5h143.3c9.1,0,16.5,7.4,16.5,16.5v99
		C176.2,124.5,168.8,131.8,159.8,131.8z"/>
	<path class="st1" d="M99.5,63.3L75.4,49.4c-2-1.2-4.6,0.3-4.6,2.6v27.9c0,2.3,2.5,3.8,4.6,2.6l24.1-13.9
		C101.5,67.4,101.5,64.4,99.5,63.3z"/>
</g>
</svg>
