<?xml version="1.0" encoding="utf-8"?>
<!-- Generator: Adobe Illustrator 22.1.0, SVG Export Plug-In . SVG Version: 6.00 Build 0)  -->
<svg version="1.1" id="Capa_1" xmlns="http://www.w3.org/2000/svg" xmlns:xlink="http://www.w3.org/1999/xlink" x="0px" y="0px"
	 viewBox="0 0 304.6 193.4" style="enable-background:new 0 0 304.6 193.4;" xml:space="preserve">
<style type="text/css">
	.st0{fill:url(#SVGID_1_);}
	.st1{opacity:0.8;fill:#FFFFFF;enable-background:new    ;}
	.st2{fill:#E6CC37;}
	.st3{fill:url(#SVGID_2_);}
	.st4{fill:url(#SVGID_3_);}
	.st5{fill:url(#SVGID_4_);}
	.st6{fill:url(#SVGID_5_);}
	.st7{fill:url(#SVGID_6_);}
	.st8{fill:url(#SVGID_7_);}
	.st9{fill:url(#SVGID_8_);}
	.st10{fill:url(#SVGID_9_);}
	.st11{fill:url(#SVGID_10_);}
	.st12{fill:url(#SVGID_11_);}
	.st13{fill:url(#SVGID_12_);}
	.st14{fill:url(#SVGID_13_);}
	.st15{fill:url(#SVGID_14_);}
	.st16{fill:url(#SVGID_15_);}
	.st17{fill:url(#SVGID_16_);}
	.st18{fill:url(#SVGID_17_);}
	.st19{fill:url(#SVGID_18_);}
	.st20{fill:url(#SVGID_19_);}
	.st21{fill:url(#SVGID_20_);}
	.st22{fill:url(#SVGID_21_);}
	.st23{fill:url(#SVGID_22_);}
	.st24{fill:url(#SVGID_23_);}
	.st25{fill:url(#SVGID_24_);}
	.st26{fill:url(#SVGID_25_);}
	.st27{fill:url(#SVGID_26_);}
	.st28{fill:url(#SVGID_27_);}
	.st29{fill:url(#SVGID_28_);}
	.st30{fill:url(#SVGID_29_);}
	.st31{fill:url(#SVGID_30_);}
	.st32{fill:url(#SVGID_31_);}
	.st33{fill:url(#SVGID_32_);}
	.st34{fill:url(#SVGID_33_);}
	.st35{fill:#80B0EF;}
	.st36{opacity:0.48;}
	.st37{opacity:0.73;clip-path:url(#SVGID_35_);}
	.st38{fill:#465E77;}
	.st39{clip-path:url(#SVGID_37_);}
	.st40{fill:#5A7CBD;}
	.st41{fill:none;stroke:#5A7CBD;stroke-width:2.175;stroke-linecap:round;stroke-miterlimit:10;}
	.st42{fill:none;stroke:#3D537E;stroke-width:4.3501;stroke-linecap:round;stroke-miterlimit:10;}
	.st43{fill:#435B7E;}
	.st44{fill:#3D537E;}
	.st45{fill:none;stroke:#5A7CBD;stroke-width:1.8522;stroke-linecap:round;stroke-miterlimit:10;}
	.st46{fill:url(#SVGID_38_);}
	.st47{opacity:0.15;fill:#688FF8;enable-background:new    ;}
	.st48{opacity:0.27;fill:#A9E3EE;enable-background:new    ;}
	.st49{opacity:0.3;}
	.st50{fill:#425971;}
	.st51{fill:#E2E2E2;}
	.st52{opacity:0.3;fill:#E2E2E2;enable-background:new    ;}
	.st53{opacity:0.4;}
	.st54{fill:#FFFFFF;}
	.st55{fill:url(#SVGID_39_);}
	.st56{fill:#313131;}
	.st57{opacity:0.17;}
	.st58{fill:#A9E3EE;}
	.st59{opacity:0.26;}
	.st60{fill:none;stroke:#49494A;stroke-width:0.2315;stroke-linecap:round;stroke-miterlimit:10;}
	.st61{fill:none;stroke:#49494A;stroke-width:0.2315;stroke-linecap:round;stroke-miterlimit:10;stroke-dasharray:0.4623,0.9246;}
	.st62{fill:none;stroke:#49494A;stroke-width:0.2315;stroke-linecap:round;stroke-miterlimit:10;stroke-dasharray:0.4708,0.9417;}
	.st63{opacity:0.15;}
	.st64{fill:#688FF8;}
	.st65{opacity:0.27;}
	.st66{fill:none;stroke:#5A7CBD;stroke-width:0.8224;stroke-linecap:round;stroke-linejoin:round;stroke-miterlimit:10;}
	.st67{fill:#414D79;}
	.st68{opacity:8.000000e-02;fill:#FFFFFF;enable-background:new    ;}
	.st69{fill:none;stroke:#3D537E;stroke-width:2.9581;stroke-miterlimit:10;}
	.st70{fill:none;stroke:#3D537E;stroke-width:2.9581;stroke-linecap:round;stroke-miterlimit:10;}
	
		.st71{opacity:0.6;fill:none;stroke:#7AA8F2;stroke-width:0.8861;stroke-linecap:round;stroke-miterlimit:10;enable-background:new    ;}
	.st72{opacity:0.6;fill:#7AA8F2;enable-background:new    ;}
	.st73{fill:url(#SVGID_40_);}
	.st74{opacity:0.6;fill:#3D537E;enable-background:new    ;}
	.st75{fill:none;stroke:#3D537E;stroke-width:3.7044;stroke-linecap:round;stroke-miterlimit:10;}
	.st76{clip-path:url(#SVGID_42_);}
	
		.st77{opacity:0.52;fill:none;stroke:#E2E2E2;stroke-width:5.316;stroke-linecap:round;stroke-linejoin:round;stroke-miterlimit:10;enable-background:new    ;}
	.st78{fill:#D5A02D;}
	.st79{fill:#13003A;}
</style>
<g>
	
		<linearGradient id="SVGID_1_" gradientUnits="userSpaceOnUse" x1="152.3" y1="183.3156" x2="152.3" y2="5.5787" gradientTransform="matrix(1 0 0 -1 0 193.3999)">
		<stop  offset="0" style="stop-color:#DDE6F8"/>
		<stop  offset="1" style="stop-color:#AEC5EC"/>
	</linearGradient>
	<path class="st0" d="M300.8,0.1H3.8C1.7,0.1,0,1.8,0,3.9v185.7c0,2.1,1.7,3.8,3.8,3.8h297c2.1,0,3.8-1.7,3.8-3.8V3.9
		C304.6,1.8,302.9,0.1,300.8,0.1z"/>
	<rect x="47.2" y="18.6" class="st1" width="202.8" height="116"/>
	<rect x="20.3" y="175.6" class="st1" width="264" height="12"/>
	<rect x="20.3" y="158.9" class="st1" width="264" height="12"/>
	<g>
		<polygon class="st2" points="154.2,162.6 154.2,168 151.8,165.3 		"/>
		<polygon class="st2" points="156.5,165.3 154.2,168 154.2,162.6 		"/>
	</g>
	<g>
		<polygon class="st2" points="206.7,162.6 206.7,168 204.3,165.3 		"/>
		<polygon class="st2" points="209,165.3 206.7,168 206.7,162.6 		"/>
	</g>
	<polygon class="st2" points="206.7,178.9 204.3,181.6 206.7,184.3 209,181.6 	"/>
	<g>
		<polygon class="st2" points="182.2,178.9 182.1,184.3 179.8,181.6 		"/>
		<polygon class="st2" points="184.5,181.6 182.1,184.3 182.2,178.9 		"/>
	</g>
	<g>
		<polygon class="st2" points="115,178.9 115,184.3 112.7,181.6 		"/>
		<polygon class="st2" points="117.4,181.6 115,184.3 115,178.9 		"/>
	</g>
	<g>
		<polygon class="st2" points="39.3,178.9 39.3,184.3 37,181.6 		"/>
		<polygon class="st2" points="41.7,181.6 39.3,184.3 39.3,178.9 		"/>
	</g>
	<g>
		
			<linearGradient id="SVGID_2_" gradientUnits="userSpaceOnUse" x1="72.1155" y1="45.2" x2="73.2091" y2="45.2" gradientTransform="matrix(1 0 0 -1 0 193.3999)">
			<stop  offset="0" style="stop-color:#78A5FB"/>
			<stop  offset="1" style="stop-color:#6E98FB"/>
		</linearGradient>
		<rect x="72.1" y="144" class="st3" width="1.1" height="8.4"/>
		
			<linearGradient id="SVGID_3_" gradientUnits="userSpaceOnUse" x1="89.3796" y1="45.2" x2="90.4732" y2="45.2" gradientTransform="matrix(1 0 0 -1 0 193.3999)">
			<stop  offset="0" style="stop-color:#78A5FB"/>
			<stop  offset="1" style="stop-color:#6E98FB"/>
		</linearGradient>
		<rect x="89.4" y="144" class="st4" width="1.1" height="8.4"/>
		
			<linearGradient id="SVGID_4_" gradientUnits="userSpaceOnUse" x1="106.9562" y1="45.2" x2="108.0498" y2="45.2" gradientTransform="matrix(1 0 0 -1 0 193.3999)">
			<stop  offset="0" style="stop-color:#78A5FB"/>
			<stop  offset="1" style="stop-color:#6E98FB"/>
		</linearGradient>
		<rect x="107" y="144" class="st5" width="1.1" height="8.4"/>
		
			<linearGradient id="SVGID_5_" gradientUnits="userSpaceOnUse" x1="124.5328" y1="45.2" x2="125.6264" y2="45.2" gradientTransform="matrix(1 0 0 -1 0 193.3999)">
			<stop  offset="0" style="stop-color:#78A5FB"/>
			<stop  offset="1" style="stop-color:#6E98FB"/>
		</linearGradient>
		<rect x="124.5" y="144" class="st6" width="1.1" height="8.4"/>
		
			<linearGradient id="SVGID_6_" gradientUnits="userSpaceOnUse" x1="142.1093" y1="45.2" x2="143.203" y2="45.2" gradientTransform="matrix(1 0 0 -1 0 193.3999)">
			<stop  offset="0" style="stop-color:#78A5FB"/>
			<stop  offset="1" style="stop-color:#6E98FB"/>
		</linearGradient>
		<rect x="142.1" y="144" class="st7" width="1.1" height="8.4"/>
		
			<linearGradient id="SVGID_7_" gradientUnits="userSpaceOnUse" x1="159.6859" y1="45.2" x2="160.7796" y2="45.2" gradientTransform="matrix(1 0 0 -1 0 193.3999)">
			<stop  offset="0" style="stop-color:#78A5FB"/>
			<stop  offset="1" style="stop-color:#6E98FB"/>
		</linearGradient>
		<rect x="159.7" y="144" class="st8" width="1.1" height="8.4"/>
		
			<linearGradient id="SVGID_8_" gradientUnits="userSpaceOnUse" x1="177.2625" y1="45.2" x2="178.3562" y2="45.2" gradientTransform="matrix(1 0 0 -1 0 193.3999)">
			<stop  offset="0" style="stop-color:#78A5FB"/>
			<stop  offset="1" style="stop-color:#6E98FB"/>
		</linearGradient>
		<rect x="177.3" y="144" class="st9" width="1.1" height="8.4"/>
		
			<linearGradient id="SVGID_9_" gradientUnits="userSpaceOnUse" x1="194.8391" y1="45.2" x2="195.9328" y2="45.2" gradientTransform="matrix(1 0 0 -1 0 193.3999)">
			<stop  offset="0" style="stop-color:#78A5FB"/>
			<stop  offset="1" style="stop-color:#6E98FB"/>
		</linearGradient>
		<rect x="194.8" y="144" class="st10" width="1.1" height="8.4"/>
		
			<linearGradient id="SVGID_10_" gradientUnits="userSpaceOnUse" x1="212.4157" y1="45.2" x2="213.5094" y2="45.2" gradientTransform="matrix(1 0 0 -1 0 193.3999)">
			<stop  offset="0" style="stop-color:#78A5FB"/>
			<stop  offset="1" style="stop-color:#6E98FB"/>
		</linearGradient>
		<rect x="212.4" y="144" class="st11" width="1.1" height="8.4"/>
		
			<linearGradient id="SVGID_11_" gradientUnits="userSpaceOnUse" x1="229.9923" y1="45.2" x2="231.0859" y2="45.2" gradientTransform="matrix(1 0 0 -1 0 193.3999)">
			<stop  offset="0" style="stop-color:#78A5FB"/>
			<stop  offset="1" style="stop-color:#6E98FB"/>
		</linearGradient>
		<rect x="230" y="144" class="st12" width="1.1" height="8.4"/>
		
			<linearGradient id="SVGID_12_" gradientUnits="userSpaceOnUse" x1="247.5689" y1="45.2" x2="248.6625" y2="45.2" gradientTransform="matrix(1 0 0 -1 0 193.3999)">
			<stop  offset="0" style="stop-color:#78A5FB"/>
			<stop  offset="1" style="stop-color:#6E98FB"/>
		</linearGradient>
		<rect x="247.6" y="144" class="st13" width="1.1" height="8.4"/>
		
			<linearGradient id="SVGID_13_" gradientUnits="userSpaceOnUse" x1="265.1454" y1="45.2" x2="266.2391" y2="45.2" gradientTransform="matrix(1 0 0 -1 0 193.3999)">
			<stop  offset="0" style="stop-color:#78A5FB"/>
			<stop  offset="1" style="stop-color:#6E98FB"/>
		</linearGradient>
		<rect x="265.1" y="144" class="st14" width="1.1" height="8.4"/>
		
			<linearGradient id="SVGID_14_" gradientUnits="userSpaceOnUse" x1="282.722" y1="45.2" x2="283.8157" y2="45.2" gradientTransform="matrix(1 0 0 -1 0 193.3999)">
			<stop  offset="0" style="stop-color:#78A5FB"/>
			<stop  offset="1" style="stop-color:#6E98FB"/>
		</linearGradient>
		<rect x="282.7" y="144" class="st15" width="1.1" height="8.4"/>
		
			<linearGradient id="SVGID_15_" gradientUnits="userSpaceOnUse" x1="74.1726" y1="45.2" x2="88.2339" y2="45.2" gradientTransform="matrix(1 0 0 -1 0 193.3999)">
			<stop  offset="0" style="stop-color:#78A5FB"/>
			<stop  offset="1" style="stop-color:#6E98FB"/>
		</linearGradient>
		<polygon class="st16" points="88.2,147.7 88.2,148.7 74.2,148.7 74.2,147.7 		"/>
		
			<linearGradient id="SVGID_16_" gradientUnits="userSpaceOnUse" x1="91.7492" y1="45.2" x2="105.8105" y2="45.2" gradientTransform="matrix(1 0 0 -1 0 193.3999)">
			<stop  offset="0" style="stop-color:#78A5FB"/>
			<stop  offset="1" style="stop-color:#6E98FB"/>
		</linearGradient>
		<polygon class="st17" points="105.8,147.7 105.8,148.7 91.7,148.7 91.7,147.7 		"/>
		
			<linearGradient id="SVGID_17_" gradientUnits="userSpaceOnUse" x1="109.3258" y1="45.2" x2="123.387" y2="45.2" gradientTransform="matrix(1 0 0 -1 0 193.3999)">
			<stop  offset="0" style="stop-color:#78A5FB"/>
			<stop  offset="1" style="stop-color:#6E98FB"/>
		</linearGradient>
		<polygon class="st18" points="123.4,147.7 123.4,148.7 109.3,148.7 109.3,147.7 		"/>
		
			<linearGradient id="SVGID_18_" gradientUnits="userSpaceOnUse" x1="126.9" y1="45.2" x2="140.9611" y2="45.2" gradientTransform="matrix(1 0 0 -1 0 193.3999)">
			<stop  offset="0" style="stop-color:#78A5FB"/>
			<stop  offset="1" style="stop-color:#6E98FB"/>
		</linearGradient>
		<polygon class="st19" points="141,147.7 141,148.7 126.9,148.7 126.9,147.7 		"/>
		
			<linearGradient id="SVGID_19_" gradientUnits="userSpaceOnUse" x1="144.4354" y1="45.2" x2="158.4967" y2="45.2" gradientTransform="matrix(1 0 0 -1 0 193.3999)">
			<stop  offset="0" style="stop-color:#78A5FB"/>
			<stop  offset="1" style="stop-color:#6E98FB"/>
		</linearGradient>
		<polygon class="st20" points="158.5,147.7 158.5,148.7 144.4,148.7 144.4,147.7 		"/>
		
			<linearGradient id="SVGID_20_" gradientUnits="userSpaceOnUse" x1="162.0555" y1="45.2" x2="176.1168" y2="45.2" gradientTransform="matrix(1 0 0 -1 0 193.3999)">
			<stop  offset="0" style="stop-color:#78A5FB"/>
			<stop  offset="1" style="stop-color:#6E98FB"/>
		</linearGradient>
		<polygon class="st21" points="176.1,147.7 176.1,148.7 162.1,148.7 162.1,147.7 		"/>
		
			<linearGradient id="SVGID_21_" gradientUnits="userSpaceOnUse" x1="179.5667" y1="45.2" x2="193.6279" y2="45.2" gradientTransform="matrix(1 0 0 -1 0 193.3999)">
			<stop  offset="0" style="stop-color:#78A5FB"/>
			<stop  offset="1" style="stop-color:#6E98FB"/>
		</linearGradient>
		<polygon class="st22" points="193.6,147.7 193.6,148.7 179.6,148.7 179.6,147.7 		"/>
		
			<linearGradient id="SVGID_22_" gradientUnits="userSpaceOnUse" x1="197.2" y1="45.2" x2="211.2613" y2="45.2" gradientTransform="matrix(1 0 0 -1 0 193.3999)">
			<stop  offset="0" style="stop-color:#78A5FB"/>
			<stop  offset="1" style="stop-color:#6E98FB"/>
		</linearGradient>
		<polygon class="st23" points="211.3,147.7 211.3,148.7 197.2,148.7 197.2,147.7 		"/>
		
			<linearGradient id="SVGID_23_" gradientUnits="userSpaceOnUse" x1="214.7853" y1="45.2" x2="228.8465" y2="45.2" gradientTransform="matrix(1 0 0 -1 0 193.3999)">
			<stop  offset="0" style="stop-color:#78A5FB"/>
			<stop  offset="1" style="stop-color:#6E98FB"/>
		</linearGradient>
		<polygon class="st24" points="228.8,147.7 228.8,148.7 214.8,148.7 214.8,147.7 		"/>
		
			<linearGradient id="SVGID_24_" gradientUnits="userSpaceOnUse" x1="232.3553" y1="45.2" x2="246.4166" y2="45.2" gradientTransform="matrix(1 0 0 -1 0 193.3999)">
			<stop  offset="0" style="stop-color:#78A5FB"/>
			<stop  offset="1" style="stop-color:#6E98FB"/>
		</linearGradient>
		<polygon class="st25" points="246.4,147.7 246.4,148.7 232.4,148.7 232.4,147.7 		"/>
		
			<linearGradient id="SVGID_25_" gradientUnits="userSpaceOnUse" x1="249.9384" y1="45.2" x2="263.9997" y2="45.2" gradientTransform="matrix(1 0 0 -1 0 193.3999)">
			<stop  offset="0" style="stop-color:#78A5FB"/>
			<stop  offset="1" style="stop-color:#6E98FB"/>
		</linearGradient>
		<polygon class="st26" points="264,147.7 264,148.7 249.9,148.7 249.9,147.7 		"/>
		
			<linearGradient id="SVGID_26_" gradientUnits="userSpaceOnUse" x1="267.515" y1="45.2" x2="281.5762" y2="45.2" gradientTransform="matrix(1 0 0 -1 0 193.3999)">
			<stop  offset="0" style="stop-color:#78A5FB"/>
			<stop  offset="1" style="stop-color:#6E98FB"/>
		</linearGradient>
		<polygon class="st27" points="281.6,147.7 281.6,148.7 267.5,148.7 267.5,147.7 		"/>
		
			<linearGradient id="SVGID_27_" gradientUnits="userSpaceOnUse" x1="88.2339" y1="45.95" x2="89.3796" y2="45.95" gradientTransform="matrix(1 0 0 -1 0 193.3999)">
			<stop  offset="0" style="stop-color:#78A5FB"/>
			<stop  offset="1" style="stop-color:#6E98FB"/>
		</linearGradient>
		<rect x="88.2" y="146.7" class="st28" width="1.1" height="1.5"/>
		
			<linearGradient id="SVGID_28_" gradientUnits="userSpaceOnUse" x1="54.8514" y1="45.2" x2="55.9451" y2="45.2" gradientTransform="matrix(1 0 0 -1 0 193.3999)">
			<stop  offset="0" style="stop-color:#78A5FB"/>
			<stop  offset="1" style="stop-color:#6E98FB"/>
		</linearGradient>
		<rect x="54.9" y="144" class="st29" width="1.1" height="8.4"/>
		
			<linearGradient id="SVGID_29_" gradientUnits="userSpaceOnUse" x1="56.9" y1="45.2" x2="70.9613" y2="45.2" gradientTransform="matrix(1 0 0 -1 0 193.3999)">
			<stop  offset="0" style="stop-color:#78A5FB"/>
			<stop  offset="1" style="stop-color:#6E98FB"/>
		</linearGradient>
		<polygon class="st30" points="71,147.7 71,148.7 56.9,148.7 56.9,147.7 		"/>
		
			<linearGradient id="SVGID_30_" gradientUnits="userSpaceOnUse" x1="37.5873" y1="45.2" x2="38.6809" y2="45.2" gradientTransform="matrix(1 0 0 -1 0 193.3999)">
			<stop  offset="0" style="stop-color:#78A5FB"/>
			<stop  offset="1" style="stop-color:#6E98FB"/>
		</linearGradient>
		<rect x="37.6" y="144" class="st31" width="1.1" height="8.4"/>
		
			<linearGradient id="SVGID_31_" gradientUnits="userSpaceOnUse" x1="39.6444" y1="45.2" x2="53.7056" y2="45.2" gradientTransform="matrix(1 0 0 -1 0 193.3999)">
			<stop  offset="0" style="stop-color:#78A5FB"/>
			<stop  offset="1" style="stop-color:#6E98FB"/>
		</linearGradient>
		<polygon class="st32" points="53.7,147.7 53.7,148.7 39.6,148.7 39.6,147.7 		"/>
		
			<linearGradient id="SVGID_32_" gradientUnits="userSpaceOnUse" x1="20.3232" y1="45.2" x2="21.4168" y2="45.2" gradientTransform="matrix(1 0 0 -1 0 193.3999)">
			<stop  offset="0" style="stop-color:#78A5FB"/>
			<stop  offset="1" style="stop-color:#6E98FB"/>
		</linearGradient>
		<rect x="20.3" y="144" class="st33" width="1.1" height="8.4"/>
		
			<linearGradient id="SVGID_33_" gradientUnits="userSpaceOnUse" x1="22.3803" y1="45.2" x2="36.4415" y2="45.2" gradientTransform="matrix(1 0 0 -1 0 193.3999)">
			<stop  offset="0" style="stop-color:#78A5FB"/>
			<stop  offset="1" style="stop-color:#6E98FB"/>
		</linearGradient>
		<polygon class="st34" points="36.4,147.7 36.4,148.7 22.4,148.7 22.4,147.7 		"/>
	</g>
	<g>
		<rect x="62.4" y="31.4" class="st35" width="171.6" height="90.9"/>
		<g class="st36">
			<g>
				<defs>
					<rect id="SVGID_34_" x="62.4" y="31.4" width="171.6" height="90.9"/>
				</defs>
				<clipPath id="SVGID_35_">
					<use xlink:href="#SVGID_34_"  style="overflow:visible;"/>
				</clipPath>
				<g class="st37">
					<path class="st38" d="M233.6,71.9h-30.2c-0.6,0-1.1-0.5-1.1-1.1s0.5-1.1,1.1-1.1h30.2c0.6,0,1.1,0.5,1.1,1.1
						S234.2,71.9,233.6,71.9z"/>
					<path class="st38" d="M202.4,80.3h-36.9c-0.6,0-1.1-0.5-1.1-1.1s0.5-1.1,1.1-1.1h36.9c0.6,0,1.1,0.5,1.1,1.1
						S203,80.3,202.4,80.3z"/>
					<path class="st38" d="M218.5,38.1h-48.3c-0.6,0-1.1-0.5-1.1-1.1s0.5-1.1,1.1-1.1h48.3c0.6,0,1.1,0.5,1.1,1.1
						S219.1,38.1,218.5,38.1z"/>
					<path class="st38" d="M249.4,98.1h-24.5c-0.6,0-1.1-0.5-1.1-1.1s0.5-1.1,1.1-1.1h24.5c0.6,0,1.1,0.5,1.1,1.1
						C250.5,97.6,250,98.1,249.4,98.1z"/>
					<path class="st38" d="M257,44.4h-37.5c-0.6,0-1.1-0.5-1.1-1.1s0.5-1.1,1.1-1.1H257c0.6,0,1.1,0.5,1.1,1.1S257.6,44.4,257,44.4z
						"/>
				</g>
			</g>
		</g>
		<g>
			<g>
				<defs>
					<rect id="SVGID_36_" x="62.4" y="31.4" width="171.6" height="90.9"/>
				</defs>
				<clipPath id="SVGID_37_">
					<use xlink:href="#SVGID_36_"  style="overflow:visible;"/>
				</clipPath>
				<g class="st39">
					<g>
						<g>
							<path class="st40" d="M101.7,110.1L101.7,110.1c0.3-0.4,0.8-0.4,1.2-0.2l1.6,1.2c0.4,0.3,0.4,0.8,0.2,1.2l0,0
								c-0.3,0.4-0.8,0.4-1.2,0.2l-1.6-1.2C101.4,111,101.4,110.4,101.7,110.1z"/>
							<path class="st40" d="M101.2,111.7L101.2,111.7c0.2-0.3,0.6-0.5,0.9-0.3l1.6,0.8c0.3,0.2,0.5,0.6,0.3,0.9l0,0
								c-0.2,0.3-0.6,0.5-0.9,0.3l-1.6-0.8C101.2,112.4,101,112,101.2,111.7z"/>
							<path class="st40" d="M102.7,108.7L102.7,108.7c0.3-0.3,0.9-0.3,1.2,0.1l1.1,1.2c0.3,0.3,0.3,0.9-0.1,1.2l0,0
								c-0.3,0.3-0.9,0.3-1.2-0.1l-1.1-1.2C102.3,109.5,102.3,109,102.7,108.7z"/>
							<path class="st40" d="M105.9,109.4L105.9,109.4c0.6,0.2,0.9,0.9,0.7,1.5l-0.3,0.8c-0.2,0.6-0.9,0.9-1.5,0.7l0,0
								c-0.6-0.2-0.9-0.9-0.7-1.5l0.3-0.9C104.6,109.5,105.3,109.2,105.9,109.4z"/>
							<circle class="st40" cx="104.3" cy="112" r="1.8"/>
						</g>
						<path class="st41" d="M137.7,104.9c0,0-15.2,17.6-32.6,8.2"/>
						<path class="st42" d="M137.7,104.9c0,0-3.2,3.7-8.3,6.7"/>
						<g>
							<path class="st43" d="M104.6,109.7c-0.1,0.3-0.2,0.6-0.3,0.9c-0.2,0.3-0.1,0.6,0.1,0.8s0.5,0.1,0.7-0.2
								c0.2-0.2,0.5-0.5,0.7-0.7c-0.2,0.3-0.4,0.5-0.6,0.8s-0.6,0.5-1,0.2c-0.3-0.2-0.3-0.7-0.1-1
								C104.2,110.2,104.4,110,104.6,109.7z"/>
						</g>
						<g>
							<path class="st43" d="M102.5,109.7l0.8,0.6c0.3,0.2,0.5,0.6,0.4,1s-0.5,0.6-0.9,0.5s-0.6-0.3-0.9-0.5l0.1-0.2l0.6,0.5
								c0.2,0.2,0.3,0.5,0.2,0.8c-0.1,0.3-0.5,0.4-0.7,0.3l-0.7-0.3l0.7,0.2c0.2,0.1,0.5,0,0.6-0.3c0.1-0.2,0-0.4-0.2-0.6l-0.6-0.4
								c0,0-0.1-0.1,0-0.1c0,0,0.1-0.1,0.1,0l0,0c0.3,0.1,0.6,0.3,0.9,0.4c0.3,0.1,0.6-0.1,0.7-0.4c0.1-0.3,0-0.6-0.3-0.8
								L102.5,109.7z"/>
						</g>
						<g>
							<path class="st43" d="M102.6,109.7c0.3,0.2,0.6,0.4,1,0.7l0,0c0.3,0.1,0.6,0,0.8-0.2c0.2-0.2,0.1-0.6-0.1-0.8l0,0l0,0
								c-0.2-0.2-0.4-0.5-0.5-0.8c0.2,0.2,0.4,0.4,0.7,0.6l0,0c0.3,0.2,0.4,0.7,0.2,1c-0.2,0.3-0.7,0.4-1,0.3l0,0l0,0
								C103.1,110.2,102.8,110,102.6,109.7z"/>
						</g>
					</g>
					<path class="st44" d="M181.9,37.7c0.9,2.5-1.4,8.8-15.2,13.8s-25.6,7-26.6,4.5s9.5-8.6,23.2-13.6
						C177.1,37.4,180.9,35.2,181.9,37.7z"/>
					<path class="st40" d="M173.6,147.8c0.5,2.2,3.5,13.9,8.6,22.8c0.1,0.2,0,0.5-0.2,0.6l-4.6,1.5c-1.8,0.6-2.7,2.4-2.2,4.2l0,0
						c0.1,0.2,0.3,0.3,0.6,0.2c0,0,5.6-2.6,7.4-3.5c0,0,2.7-1.1,1.7-2.8c-2.8-4.4-7.1-16.6-8.8-23.7c-0.1-0.2-0.3-0.4-0.5-0.3
						l-1.6,0.5C173.6,147.4,173.5,147.6,173.6,147.8z"/>
					<path class="st45" d="M139.8,138.5c0,0-1.4,8.7,8.2,25.1"/>
					<path class="st40" d="M153.4,151.8c0.5,2.2,3.3,13.9,8.3,22.9c0.1,0.2,0,0.5-0.2,0.6l-4.6,1.4c-1.8,0.5-2.8,2.4-2.2,4.2l0,0
						c0.1,0.2,0.3,0.4,0.6,0.2c0,0,5.6-2.5,7.5-3.4c0,0,2.7-1.1,1.7-2.8c-2.7-4.5-6.9-16.7-8.5-23.8c-0.1-0.2-0.3-0.4-0.5-0.3
						l-1.6,0.5C153.5,151.4,153.4,151.6,153.4,151.8z"/>
					
						<linearGradient id="SVGID_38_" gradientUnits="userSpaceOnUse" x1="151.1271" y1="60.6162" x2="176.7108" y2="81.8008" gradientTransform="matrix(0.9402 -0.3407 -0.3407 -0.9402 31.0931 255.5165)">
						<stop  offset="0.4973" style="stop-color:#688EF8"/>
						<stop  offset="1" style="stop-color:#6083D5"/>
					</linearGradient>
					<path class="st46" d="M182.9,127.9c4.3,11.9-1.4,21.7-14.8,26.5c-13.4,4.8-26.6-0.1-30.4-10.7c-3.8-10.6-0.4-26.3,13-31.2
						C160.8,108.9,179.6,118.8,182.9,127.9z"/>
					<path class="st47" d="M150.7,112.6c-4.2,1.5-7.4,4.1-9.7,7.2c9.3,2.1,19.4,9,21.7,15.4c3,8.4,1.1,15.8-5.1,21.1
						c3.4,0,6.9-0.6,10.5-1.9c13.4-4.8,19.1-14.6,14.8-26.5C179.6,118.8,160.8,108.9,150.7,112.6z"/>
					<path class="st45" d="M172.4,130.5c0,0,6.2,6.3,7.9,25.2"/>
					<path class="st48" d="M171,153.1c-13.4,4.8-26.6-0.1-30.4-10.7c-3.5-9.8-0.8-24,10.1-29.9h-0.1c-13.4,4.8-16.8,20.6-13,31.2
						s17,15.5,30.4,10.7c1.4-0.5,2.8-1.1,4-1.7C171.7,152.8,171.4,153,171,153.1z"/>
					<g class="st49">
						<path class="st50" d="M136.5,129.2c3.1,2.1,6.6,3.2,10.1,3.4s6.8-0.6,10.1-1.9c3.3-1.3,6.3-3,8.9-5.3c1.3-1.2,2.5-2.4,3.6-3.9
							c1-1.5,2-3,2.5-4.9c0.3,1.9-0.2,3.9-0.9,5.7s-1.8,3.6-3.1,5.1c-2.6,3.1-6.1,5.3-9.7,6.7c-3.7,1.4-7.9,2.1-11.8,1.2
							C142.3,134.6,138.6,132.4,136.5,129.2z"/>
					</g>
					<path class="st51" d="M171.2,111.4c3.3,9.2-4.2,17.5-14.5,21.2s-20.5-0.1-23.5-8.2c-3-8.2-1.3-25.5,9-29.3
						C158.1,89.3,168.7,104.3,171.2,111.4z"/>
					<path class="st52" d="M142.4,95c-2.4,0.9-4.3,2.5-5.8,4.5c10.4,1.6,17.3,11.9,19.3,17.4c2.4,6.6-0.8,12.7-6.6,17
						c2.4,0,5-0.5,7.6-1.4c10.3-3.7,17.8-12,14.5-21.2C168.7,104.3,158.1,89.3,142.4,95z"/>
					<g class="st53">
						<path class="st54" d="M135.5,123.7c-3-8.2-1.1-25.6,9.4-29.4c0.2-0.1,0.5-0.2,0.7-0.2c-0.9,0.2-1.9,0.5-2.9,0.8
							c-10.5,3.8-12.4,21.2-9.4,29.4c2.9,7.9,12.8,11.7,23,8.4C146.9,134.9,138.1,131.1,135.5,123.7z"/>
					</g>
					<g class="st49">
						<path class="st50" d="M133.6,104.9c2.3-0.8,4.4-1.4,6.5-2.1c2.1-0.6,4.2-1.3,6.3-2s4.1-1.4,6.2-2.1c2.1-0.7,4.1-1.6,6.4-2.3
							c-1.4,1.9-3.1,3.6-5.1,4.9c-2,1.3-4.1,2.3-6.4,3.1c-2.2,0.7-4.6,1.2-6.9,1.3C138.3,105.8,135.9,105.7,133.6,104.9z"/>
					</g>
					
						<linearGradient id="SVGID_39_" gradientUnits="userSpaceOnUse" x1="163.5904" y1="151.6313" x2="155.698" y2="88.3428" gradientTransform="matrix(0.9402 -0.3407 -0.3407 -0.9402 31.0931 255.5165)">
						<stop  offset="0.4973" style="stop-color:#688EF8"/>
						<stop  offset="1" style="stop-color:#6083D5"/>
					</linearGradient>
					<path class="st55" d="M171,66.1c4.4,15.1-7.1,31.7-25.7,37c-18.5,5.3-37.1-2.6-41.4-17.7s7.1-31.7,25.7-37
						C148.1,43.1,166.6,51,171,66.1z"/>
					<path class="st48" d="M150.1,101.5c-1.5,0.6-3.1,1.2-4.8,1.7c-17.6,5.1-35.1-1.8-40.6-15.4c-0.3-0.7-0.6-1.5-0.8-2.3
						c-0.1-0.4-0.2-0.7-0.3-1.1c-3.4-14.6,7.6-30.2,25.2-35.7C113.1,55.3,104,70.3,107.9,84c4.4,15.1,22.9,23,41.4,17.7
						C149.6,101.6,149.9,101.5,150.1,101.5z"/>
					<path class="st47" d="M129.4,48.5c-3.5,1-6.7,2.4-9.6,4.1c16.5-2.6,32,5.2,36,19c3.5,12.2-3.2,25.4-15.5,32.7
						c1.6-0.3,3.3-0.6,4.9-1.1c18.2-5.2,29.5-21.7,25.1-36.8C166,51.2,147.7,43.2,129.4,48.5z"/>
					<g>
						<path class="st56" d="M122.8,37.5c-16.5,5.9-23.6,20.2-22.4,33.9c0.1,1.4,1.5,2.3,2.9,1.8c23.5-9.4,32.1-13.4,58.9-20.2
							c1.2-0.3,1.9-1.7,1.3-2.9C156.7,37.1,140.6,31.2,122.8,37.5z"/>
						<g class="st57">
							<path class="st58" d="M126.6,36.5c-1.2,0.3-2.5,0.7-3.7,1.1c-16.4,5.9-23.5,20.1-22.4,33.7c0.1,1.5,1.7,2.5,3.1,1.9l1.9-0.8
								C103.1,58.3,109.8,42.9,126.6,36.5z"/>
						</g>
						<g class="st59">
							<path class="st56" d="M144.3,57.7c5.1-1.5,10.9-3,17.9-4.8c1.3-0.3,1.9-1.7,1.3-2.9c-6.8-12.9-22.9-18.9-40.7-12.6
								c-2.5,0.9-4.7,1.9-6.8,3.2C129,40.4,139.7,47,144.3,57.7z"/>
						</g>
					</g>
					<g>
						<g>
							<path class="st60" d="M128.6,52.2c0,0,0-0.1,0.1-0.2"/>
							<path class="st61" d="M129.2,51.2c1.5-2.7,6.1-10.3,13.2-15.2"/>
							<path class="st60" d="M142.8,35.7c0.1,0,0.1-0.1,0.2-0.1"/>
						</g>
					</g>
					<g>
						<g>
							<path class="st60" d="M117.4,56.1c0,0,0-0.1-0.1-0.2"/>
							<path class="st62" d="M117,55.1c-0.9-2-3.2-6.1-7.5-7.4"/>
							<path class="st60" d="M109,47.5c-0.1,0-0.1,0-0.2-0.1"/>
						</g>
					</g>
					<g>
						<path class="st40" d="M181.2,161.7L181.2,161.7c-0.4,0.1-0.8-0.2-0.9-0.5l-0.9-4c-0.1-0.4,0.2-0.8,0.5-0.9l0,0
							c0.4-0.1,0.8,0.2,0.9,0.5l0.9,4C181.9,161.2,181.6,161.6,181.2,161.7z"/>
						<path class="st40" d="M183.7,160.2L183.7,160.2c-0.3,0.2-0.8,0.2-1-0.2l-2.1-2.9c-0.2-0.3-0.2-0.8,0.2-1l0,0
							c0.3-0.2,0.8-0.2,1,0.2l2.1,2.9C184.1,159.5,184,159.9,183.7,160.2z"/>
						<path class="st40" d="M178.8,161.6L178.8,161.6c-0.4,0-0.7-0.4-0.7-0.8l0.3-3.6c0-0.4,0.4-0.7,0.8-0.7l0,0
							c0.4,0,0.7,0.4,0.7,0.8l-0.3,3.6C179.5,161.4,179.2,161.7,178.8,161.6z"/>
						<path class="st40" d="M176.1,158L176.1,158c-0.2-0.3-0.1-0.8,0.3-1l2.5-1.5c0.3-0.2,0.8-0.1,1,0.3l0,0c0.2,0.3,0.1,0.8-0.3,1
							l-2.5,1.5C176.7,158.4,176.3,158.3,176.1,158z"/>
						<circle class="st40" cx="180.1" cy="156.5" r="1.6"/>
					</g>
					<g>
						<path class="st40" d="M150.9,168.9L150.9,168.9c0.4-0.1,0.5-0.6,0.4-0.9l-1.6-3.8c-0.1-0.4-0.6-0.5-0.9-0.4l0,0
							c-0.4,0.1-0.5,0.6-0.4,0.9l1.6,3.8C150.2,168.8,150.6,169,150.9,168.9z"/>
						<path class="st40" d="M148.1,169.1L148.1,169.1c0.4,0,0.7-0.3,0.7-0.7l0.1-3.6c0-0.4-0.3-0.7-0.7-0.7l0,0
							c-0.4,0-0.7,0.3-0.7,0.7l-0.1,3.6C147.4,168.8,147.7,169.1,148.1,169.1z"/>
						<path class="st40" d="M153,167.5L153,167.5c0.3-0.3,0.4-0.7,0.1-1l-2.3-2.8c-0.3-0.3-0.7-0.4-1-0.1l0,0
							c-0.3,0.3-0.4,0.7-0.1,1l2.3,2.8C152.2,167.7,152.6,167.8,153,167.5z"/>
						<path class="st40" d="M153.1,163L153.1,163c0-0.4-0.4-0.7-0.8-0.7l-2.9,0.2c-0.4,0-0.7,0.4-0.7,0.8l0,0c0,0.4,0.4,0.7,0.8,0.7
							l2.9-0.2C152.8,163.7,153.1,163.4,153.1,163z"/>
						<circle class="st40" cx="148.9" cy="164.1" r="1.6"/>
					</g>
					<g>
						<g>
							<g>
								<path class="st40" d="M114.6,54.4L114.6,54.4c-0.5,0.3-1,0.1-1.3-0.3C103.5,38,94.2,34.5,94.2,34.5l1.1-2.2
									c0.4,0.1,9.5,4.1,19.7,20.8C115.2,53.5,115.1,54.1,114.6,54.4z"/>
								<path class="st40" d="M84.7,38.7l10.5-6.5C95.2,32.2,94.3,40.9,84.7,38.7z"/>
							</g>
							<g class="st63">
								<path class="st64" d="M95.2,32.2l-0.6,0.4c2.1,1,10.5,5.9,19.7,21c0.2,0.3,0.2,0.6,0.1,0.9c0.1,0,0.1,0,0.2-0.1
									c0.5-0.3,0.6-0.9,0.3-1.3C104.8,36.3,95.7,32.4,95.2,32.2z"/>
							</g>
						</g>
						<g class="st65">
							<path class="st58" d="M87.1,37.3l-2.3,1.4c4.6,1,7.2-0.5,8.7-2.3C92,37.3,89.9,37.8,87.1,37.3z"/>
						</g>
					</g>
					<g>
						<g>
							<g>
								<path class="st40" d="M135.7,47.7L135.7,47.7c-0.5,0.3-1.1,0.1-1.3-0.4c-9.6-16.2-18.8-19.8-18.9-19.9l1.1-2.2
									c0.4,0.2,9.5,4.2,19.4,21.1C136.3,46.8,136.2,47.4,135.7,47.7z"/>
								<path class="st40" d="M106,31.7l10.6-6.4C116.6,25.3,115.6,33.9,106,31.7z"/>
							</g>
							<g class="st63">
								<path class="st64" d="M116.6,25.3l-0.6,0.4c2.1,1,10.4,6,19.4,21.3c0.2,0.3,0.2,0.6,0.1,0.9c0.1,0,0.1,0,0.2-0.1
									c0.5-0.3,0.6-0.9,0.4-1.3C126.1,29.5,117,25.5,116.6,25.3z"/>
							</g>
						</g>
						<g class="st65">
							<path class="st58" d="M108.4,30.3l-2.3,1.4c4.6,1.1,7.2-0.4,8.7-2.2C113.3,30.4,111.2,30.8,108.4,30.3z"/>
						</g>
					</g>
					<path class="st66" d="M128.4,93.2c0,0.1,0.1,0.2,0.1,0.4c0.7,2.1,3.7,2.9,6.7,1.9s4.8-3.6,4-5.7c0-0.1-0.1-0.2-0.1-0.3"/>
					<path class="st44" d="M103.9,85.4c0.2,0.8,0.5,1.6,0.8,2.3l-4.9,1.8c-0.6,0.2-1.4-0.1-1.6-0.7l-0.4-1.1
						c-0.2-0.6,0.1-1.4,0.7-1.6l5.1-1.8C103.7,84.7,103.8,85.1,103.9,85.4z"/>
					<path class="st44" d="M169.5,64.3l-8.9,3.2c-0.9,0.3-2-0.1-2.3-1.1l0,0c-0.3-0.9,0.1-2,1.1-2.3l8.9-3.2c0.9-0.3,2,0.1,2.3,1.1
						l0,0C171,62.9,170.5,63.9,169.5,64.3z"/>
					<g>
						<circle class="st54" cx="146.1" cy="71.4" r="7.8"/>
						<circle class="st67" cx="144.2" cy="71.8" r="6.2"/>
						<circle class="st54" cx="145.7" cy="66.3" r="1"/>
						<circle class="st54" cx="113" cy="83.5" r="7.8"/>
						<circle class="st67" cx="111.5" cy="83.9" r="6.2"/>
						<circle class="st54" cx="113" cy="78.4" r="1"/>
						
							<rect x="143.9" y="61.3" transform="matrix(0.455 -0.8905 0.8905 0.455 14.4486 169.8771)" class="st68" width="4.2" height="23.6"/>
						
							<rect x="110.8" y="73.1" transform="matrix(0.455 -0.8905 0.8905 0.455 -14.092 146.7654)" class="st68" width="4.2" height="23.6"/>
						<g>
							
								<ellipse transform="matrix(0.1602 -0.9871 0.9871 0.1602 9.8802 180.8127)" class="st69" cx="111.2" cy="84.6" rx="13.3" ry="13.3"/>
							<circle class="st69" cx="145.7" cy="72.8" r="13.3"/>
							<path class="st70" d="M123.9,78.7c0,0,2.4-5.8,8.9-2.6"/>
						</g>
						<path class="st71" d="M149.3,59.9c0,0,5,0.8,7.9,6.1"/>
						<circle class="st72" cx="157.9" cy="67.5" r="0.5"/>
						<path class="st71" d="M114.9,71.8c0,0,4.9,1,7.7,6.4"/>
						<circle class="st72" cx="123.3" cy="79.7" r="0.5"/>
					</g>
					<g>
						
							<linearGradient id="SVGID_40_" gradientUnits="userSpaceOnUse" x1="139.86" y1="194.1485" x2="161.1431" y2="194.1485" gradientTransform="matrix(0.9293 -0.3692 -0.3692 -0.9293 54.9993 292.4313)">
							<stop  offset="0.4973" style="stop-color:#688EF8"/>
							<stop  offset="1" style="stop-color:#6083D5"/>
						</linearGradient>
						<path class="st73" d="M134.5,55.9c-2.9-3.9-7.8-4.8-12.6-2.9c-4.6,1.8-7.7,5.5-7.4,10.2L134.5,55.9z"/>
						<path class="st74" d="M114.5,63.3l1.5,4.5l20.2-7.1c1.3-0.5,1.9-2,1.3-3.3l0,0c-0.5-1.2-1.8-1.8-3.1-1.4L114.5,63.3z"/>
						<circle class="st56" cx="134.9" cy="58.6" r="0.9"/>
						<circle class="st56" cx="130.5" cy="60.1" r="0.9"/>
						<circle class="st56" cx="126.2" cy="61.7" r="0.9"/>
						<circle class="st56" cx="121.8" cy="63.3" r="0.9"/>
						<circle class="st56" cx="117.5" cy="65" r="0.9"/>
					</g>
					<g>
						<g>
							<path class="st40" d="M199.1,94.9L199.1,94.9c-0.2,0.3-0.7,0.4-1,0.1l-1.3-1c-0.3-0.2-0.4-0.7-0.1-1l0,0
								c0.2-0.3,0.7-0.4,1-0.1l1.3,1C199.3,94.1,199.4,94.6,199.1,94.9z"/>
							<path class="st40" d="M199.5,93.6L199.5,93.6c-0.2,0.3-0.5,0.4-0.8,0.2l-1.3-0.7c-0.3-0.2-0.4-0.5-0.2-0.8l0,0
								c0.2-0.3,0.5-0.4,0.8-0.2l1.3,0.7C199.6,92.9,199.7,93.3,199.5,93.6z"/>
							<path class="st40" d="M198.2,96.1L198.2,96.1c-0.3,0.3-0.8,0.2-1-0.1l-0.9-1.1c-0.3-0.3-0.2-0.8,0.1-1l0,0
								c0.3-0.3,0.8-0.2,1,0.1l0.9,1.1C198.6,95.4,198.5,95.8,198.2,96.1z"/>
							<path class="st40" d="M195.6,95.4L195.6,95.4c-0.5-0.2-0.8-0.7-0.6-1.2l0.3-0.8c0.2-0.5,0.7-0.8,1.2-0.6l0,0
								c0.5,0.2,0.8,0.7,0.6,1.2l-0.3,0.8C196.6,95.4,196.1,95.6,195.6,95.4z"/>
							<circle class="st40" cx="197" cy="93.2" r="1.6"/>
						</g>
						<path class="st45" d="M158.1,100.2c0,0,19-15.4,38.7-7.9"/>
						<path class="st75" d="M158.1,100.2c0,0,4-3.2,10.1-6"/>
					</g>
				</g>
			</g>
		</g>
		<g>
			<g>
				<defs>
					<rect id="SVGID_41_" x="62.4" y="31.4" width="171.6" height="90.9"/>
				</defs>
				<clipPath id="SVGID_42_">
					<use xlink:href="#SVGID_41_"  style="overflow:visible;"/>
				</clipPath>
				<g class="st76">
					<line class="st77" x1="171.6" y1="112.2" x2="221.2" y2="112.2"/>
					<line class="st77" x1="201.9" y1="56.3" x2="231.9" y2="56.3"/>
				</g>
			</g>
		</g>
	</g>
	<g>
		<path class="st2" d="M180.8,164.1v2.5l0,0c-0.7,0-1.3-0.6-1.3-1.3S180.1,164.1,180.8,164.1L180.8,164.1z"/>
		<path class="st2" d="M182,165.3c0,0.7-0.6,1.2-1.2,1.3v-2.5C181.5,164.1,182,164.6,182,165.3z"/>
	</g>
	<path class="st2" d="M191.1,180.3L191.1,180.3c-0.7,0-1.3,0.6-1.3,1.3s0.6,1.3,1.3,1.3l0,0c0.7,0,1.2-0.6,1.2-1.3
		C192.4,180.9,191.8,180.3,191.1,180.3z"/>
	<path class="st2" d="M47.3,180.3L47.3,180.3c-0.7,0-1.3,0.6-1.3,1.3s0.6,1.3,1.3,1.3l0,0c0.7,0,1.2-0.6,1.2-1.3
		C48.5,180.9,47.9,180.3,47.3,180.3z"/>
	<path class="st2" d="M72.2,180.3L72.2,180.3c-0.7,0-1.3,0.6-1.3,1.3s0.6,1.3,1.3,1.3l0,0c0.7,0,1.2-0.6,1.2-1.3
		C73.5,180.9,72.9,180.3,72.2,180.3z"/>
	<g>
		<path class="st2" d="M233.9,180.3v2.5l0,0c-0.7,0-1.3-0.6-1.3-1.3S233.2,180.3,233.9,180.3L233.9,180.3z"/>
		<path class="st2" d="M235.2,181.6c0,0.7-0.6,1.2-1.2,1.3v-2.5C234.6,180.3,235.2,180.9,235.2,181.6z"/>
	</g>
	<g>
		<path class="st78" d="M242.3,179.1v4.9l0,0c-1.4,0-2.5-1.1-2.5-2.5C239.8,180.2,240.9,179.1,242.3,179.1L242.3,179.1z"/>
		<path class="st2" d="M244.8,181.6c0,1.4-1.1,2.5-2.5,2.5v-4.9C243.7,179.1,244.8,180.2,244.8,181.6z"/>
	</g>
	<g>
		<path class="st78" d="M250.8,179.1v4.9l0,0c-1.4,0-2.5-1.1-2.5-2.5C248.3,180.2,249.4,179.1,250.8,179.1L250.8,179.1z"/>
		<path class="st2" d="M253.2,181.6c0,1.4-1.1,2.5-2.5,2.5v-4.9C252.1,179.1,253.2,180.2,253.2,181.6z"/>
	</g>
	<g>
		<path class="st78" d="M259.3,179.1v4.9l0,0c-1.4,0-2.5-1.1-2.5-2.5C256.8,180.2,257.9,179.1,259.3,179.1L259.3,179.1z"/>
		<path class="st2" d="M261.7,181.6c0,1.4-1.1,2.5-2.5,2.5v-4.9C260.6,179.1,261.7,180.2,261.7,181.6z"/>
	</g>
	<g>
		<path class="st78" d="M68.4,162.5v4.9l0,0c-1.4,0-2.5-1.1-2.5-2.5C66,163.6,67.1,162.5,68.4,162.5L68.4,162.5z"/>
		<path class="st2" d="M70.9,164.9c0,1.4-1.1,2.5-2.5,2.5v-4.9C69.8,162.5,70.9,163.6,70.9,164.9z"/>
	</g>
	<g>
		<path class="st78" d="M76.9,162.5v4.9l0,0c-1.4,0-2.5-1.1-2.5-2.5C74.5,163.6,75.6,162.5,76.9,162.5L76.9,162.5z"/>
		<path class="st2" d="M79.4,164.9c0,1.4-1.1,2.5-2.5,2.5v-4.9C78.3,162.5,79.4,163.6,79.4,164.9z"/>
	</g>
	<g>
		<rect x="136.8" y="144.2" class="st79" width="0.9" height="8.6"/>
		<rect x="137.1" y="152.4" class="st79" width="0.3" height="40.9"/>
	</g>
</g>
</svg>
