<?xml version="1.0" encoding="utf-8"?>
<!-- Generator: Adobe Illustrator 22.1.0, SVG Export Plug-In . SVG Version: 6.00 Build 0)  -->
<svg version="1.1" id="Capa_1" xmlns="http://www.w3.org/2000/svg" xmlns:xlink="http://www.w3.org/1999/xlink" x="0px" y="0px"
	 viewBox="0 0 94.3 48" style="enable-background:new 0 0 94.3 48;" xml:space="preserve">
<style type="text/css">
	.st0{fill:url(#SVGID_1_);}
	.st1{fill:#3A66E0;}
	.st2{fill:url(#SVGID_2_);}
	.st3{fill:url(#SVGID_3_);}
	.st4{fill:url(#SVGID_4_);}
</style>
<g>
	
		<linearGradient id="SVGID_1_" gradientUnits="userSpaceOnUse" x1="19.8" y1="-432.275" x2="74.5" y2="-432.275" gradientTransform="matrix(1 0 0 -1 0 -425.025)">
		<stop  offset="0" style="stop-color:#84B3E4"/>
		<stop  offset="1" style="stop-color:#5796DA"/>
	</linearGradient>
	<path class="st0" d="M69.3,0H24.9c-2.8,0-5.1,2.3-5.1,5.1v9.4h54.7V5.1C74.4,2.3,72.2,0,69.3,0z"/>
	<path class="st1" d="M90.5,14.3H3.8C1.7,14.3,0,16,0,18.1v26.1C0,46.3,1.7,48,3.8,48h86.7c2.1,0,3.8-1.7,3.8-3.8V18.1
		C94.3,16,92.6,14.3,90.5,14.3z"/>
	<g>
		
			<linearGradient id="SVGID_2_" gradientUnits="userSpaceOnUse" x1="25.438" y1="-456.1125" x2="32.238" y2="-456.1125" gradientTransform="matrix(1 0 0 -1 0 -425.025)">
			<stop  offset="0" style="stop-color:#F4D85F"/>
			<stop  offset="1" style="stop-color:#ECB543"/>
		</linearGradient>
		<circle class="st2" cx="28.8" cy="31.1" r="3.4"/>
		
			<linearGradient id="SVGID_3_" gradientUnits="userSpaceOnUse" x1="43.7" y1="-456.1125" x2="50.5" y2="-456.1125" gradientTransform="matrix(1 0 0 -1 0 -425.025)">
			<stop  offset="0" style="stop-color:#F4D85F"/>
			<stop  offset="1" style="stop-color:#ECB543"/>
		</linearGradient>
		<circle class="st3" cx="47.1" cy="31.1" r="3.4"/>
		
			<linearGradient id="SVGID_4_" gradientUnits="userSpaceOnUse" x1="61.959" y1="-456.1125" x2="68.7591" y2="-456.1125" gradientTransform="matrix(1 0 0 -1 0 -425.025)">
			<stop  offset="0" style="stop-color:#F4D85F"/>
			<stop  offset="1" style="stop-color:#ECB543"/>
		</linearGradient>
		<circle class="st4" cx="65.4" cy="31.1" r="3.4"/>
	</g>
</g>
</svg>
