<?xml version="1.0" encoding="utf-8"?>
<!-- Generator: Adobe Illustrator 22.1.0, SVG Export Plug-In . SVG Version: 6.00 Build 0)  -->
<svg version="1.1" id="Capa_1" xmlns="http://www.w3.org/2000/svg" xmlns:xlink="http://www.w3.org/1999/xlink" x="0px" y="0px"
	 viewBox="0 0 435.7 439.8" style="enable-background:new 0 0 435.7 439.8;" xml:space="preserve">
<style type="text/css">
	.st0{fill:url(#SVGID_1_);}
	.st1{clip-path:url(#SVGID_3_);fill:url(#SVGID_4_);}
	.st2{fill:#D5D6DA;}
	.st3{fill:url(#SVGID_5_);}
	.st4{fill:url(#SVGID_6_);}
	.st5{fill:url(#SVGID_7_);}
	.st6{fill:url(#SVGID_8_);}
	.st7{fill:url(#SVGID_9_);}
	.st8{clip-path:url(#SVGID_11_);fill:url(#SVGID_12_);}
	.st9{clip-path:url(#SVGID_14_);}
	.st10{fill:url(#SVGID_15_);}
	.st11{fill:#95535F;}
	.st12{fill:url(#SVGID_16_);}
	.st13{fill:url(#SVGID_17_);}
	.st14{fill:url(#SVGID_18_);}
	.st15{fill:url(#SVGID_19_);}
	.st16{fill:url(#SVGID_20_);}
	.st17{opacity:0.15;fill:url(#SVGID_21_);enable-background:new    ;}
	.st18{fill:url(#SVGID_22_);}
	.st19{fill:url(#SVGID_23_);}
	.st20{fill:#8B4C5A;}
	.st21{fill:url(#SVGID_24_);}
	.st22{opacity:0.25;fill:#0F0038;enable-background:new    ;}
	.st23{opacity:0.4;fill:#0F0038;enable-background:new    ;}
	.st24{fill:url(#SVGID_25_);}
	.st25{fill:#0F0038;}
	.st26{opacity:0.53;}
	.st27{opacity:0.15;fill:#0F0038;enable-background:new    ;}
	.st28{fill:url(#SVGID_26_);}
	.st29{fill:url(#SVGID_27_);}
	.st30{fill:url(#SVGID_28_);}
	.st31{fill:url(#SVGID_29_);}
	.st32{opacity:0.1;fill:#0F0038;enable-background:new    ;}
	.st33{opacity:0.5;fill:url(#SVGID_30_);enable-background:new    ;}
	.st34{fill:url(#SVGID_31_);}
</style>
<g>
	
		<linearGradient id="SVGID_1_" gradientUnits="userSpaceOnUse" x1="384.8607" y1="127.6739" x2="75.3241" y2="331.7302" gradientTransform="matrix(1 0 0 -1 0 413)">
		<stop  offset="0" style="stop-color:#DBE8F9"/>
		<stop  offset="1" style="stop-color:#EBE2EF"/>
	</linearGradient>
	<path class="st0" d="M350.9,130.5c0.1-1.5,0.1-3.1,0.1-4.6c0-57.1-39.4-103.4-88-103.4c-40.2,0-74.1,31.6-84.6,74.9
		C167,89,152.8,84,137.5,84c-38,0-68.8,30.7-69,68.6C29.4,157.9,0,180.1,0,206.8c0,30.6,38.6,55.3,86.2,55.3c15.6,0,30.3-2.7,43-7.3
		c18.4,21.5,47.3,35.4,79.7,35.4c33.9,0,63.9-15.1,82.2-38.3c14.7,10.3,33.8,16.6,54.7,16.6c46.5,0,84.1-30.9,84.1-69
		C429.9,162.6,395,132.6,350.9,130.5z"/>
	<g>
		<g>
			<defs>
				<path id="SVGID_2_" d="M360.3,238c0,0-6.1-6.8-14.1-4.8c0,0-2.1-6.3-12.7-4.8l7.5-32.9l47.6-4.4l64.3,198.3l5.1,55.2l-35.3,10.8
					l-14.2-38l-41.3-189.6l-6.9-2.2L360.3,238z"/>
			</defs>
			<clipPath id="SVGID_3_">
				<use xlink:href="#SVGID_2_"  style="overflow:visible;"/>
			</clipPath>
			
				<linearGradient id="SVGID_4_" gradientUnits="userSpaceOnUse" x1="476.4135" y1="38.7428" x2="310.9185" y2="147.8422" gradientTransform="matrix(1 0 0 -1 0 413)">
				<stop  offset="0" style="stop-color:#E9EAEC"/>
				<stop  offset="1" style="stop-color:#BEBFC5"/>
			</linearGradient>
			<path class="st1" d="M435.4,433.5L385.3,236c-0.2-1.3-1.6-7.9-4.6-14.6c-6.2-13.6-14.4-16.7-20.3-16.9c-5-0.2-9.3,1.5-12.4,4.9
				c-5.4,5.7-6.3,14.6-6.3,19.5c3.6,1.5,4.6,4.2,4.6,4.2c1.9-0.4,3.6-0.4,5.2-0.1c0.1-0.5,0.1-1,0.1-1.5c-0.2-2.8-0.1-11.5,3.6-15.3
				c0.8-0.8,2.2-1.9,5-1.8c9.4,0.3,14.5,17.5,15.6,23.6v0.2L426,436c0.6,2.2,2.6,3.7,4.8,3.7c0.4,0,0.8,0,1.2-0.2
				C434.5,438.8,436.1,436.1,435.4,433.5z"/>
		</g>
	</g>
	<path class="st2" d="M360.3,238c-1.1-0.8-2.1-1.5-3.3-2.1c-1.1-0.6-2.3-1.1-3.5-1.5s-2.4-0.6-3.6-0.7H349c-0.3,0-0.6,0.1-0.9,0.1
		c-0.1,0-0.3,0-0.4,0l-0.4,0.1c-0.3,0.1-0.6,0.1-0.9,0.2l-0.8,0.1l-0.3-0.7l-0.1-0.1c0-0.1-0.1-0.1-0.1-0.2
		c-0.1-0.1-0.1-0.2-0.2-0.3c-0.1-0.1-0.1-0.2-0.2-0.3c-0.1-0.1-0.1-0.2-0.2-0.3l-0.3-0.3l-0.2-0.5c-0.2-0.2-0.4-0.4-0.6-0.6
		c-0.8-0.7-1.8-1.2-2.9-1.6c-1.1-0.4-2.2-0.6-3.4-0.8c-0.6-0.1-1.2-0.1-1.8-0.2c-0.6,0-1.2,0-1.8-0.1c0.6-0.2,1.2-0.3,1.8-0.4
		c0.6-0.1,1.2-0.2,1.9-0.2c1.3,0,2.5,0,3.8,0.3s2.5,0.8,3.6,1.6c0.3,0.2,0.5,0.4,0.8,0.7l0.4,0.4l0.3,0.4c0.1,0.1,0.2,0.3,0.3,0.4
		c0.1,0.1,0.2,0.3,0.3,0.4c0.1,0.1,0.2,0.3,0.3,0.5c0,0.1,0.1,0.2,0.1,0.2c0,0.1,0.1,0.2,0.1,0.3l-1.1-0.6c0.3-0.1,0.7-0.1,1-0.2
		l0.5-0.1c0.2,0,0.3,0,0.5,0h1l1,0.1c1.4,0.1,2.7,0.5,4,1s2.4,1.3,3.5,2.1C358.6,235.9,359.6,236.9,360.3,238z"/>
	<g>
		<g>
			
				<linearGradient id="SVGID_5_" gradientUnits="userSpaceOnUse" x1="381.6664" y1="104.5974" x2="331.7578" y2="137.4988" gradientTransform="matrix(1 0 0 -1 0 413)">
				<stop  offset="0" style="stop-color:#E9EAEC"/>
				<stop  offset="1" style="stop-color:#BEBFC5"/>
			</linearGradient>
			<path class="st3" d="M324.4,300.5c-2.5,0-4.6-1.9-4.9-4.4c-0.3-2.7,1.6-5.1,4.3-5.4l64.6-7.3c2.7-0.3,5.1,1.6,5.4,4.3
				c0.3,2.7-1.6,5.1-4.3,5.4l-64.5,7.4C324.8,300.5,324.6,300.5,324.4,300.5z"/>
		</g>
		<g>
			
				<linearGradient id="SVGID_6_" gradientUnits="userSpaceOnUse" x1="389.3372" y1="78.1167" x2="339.4287" y2="111.0179" gradientTransform="matrix(1 0 0 -1 0 413)">
				<stop  offset="0" style="stop-color:#E9EAEC"/>
				<stop  offset="1" style="stop-color:#BEBFC5"/>
			</linearGradient>
			<path class="st4" d="M332.1,327c-2.5,0-4.6-1.9-4.9-4.4c-0.3-2.7,1.6-5.1,4.3-5.4l64.6-7.3c2.7-0.3,5.1,1.6,5.4,4.3
				c0.3,2.7-1.6,5.1-4.3,5.4l-64.6,7.3C332.4,327,332.3,327,332.1,327z"/>
		</g>
		<g>
			
				<linearGradient id="SVGID_7_" gradientUnits="userSpaceOnUse" x1="396.2386" y1="51.6158" x2="346.3299" y2="84.5171" gradientTransform="matrix(1 0 0 -1 0 413)">
				<stop  offset="0" style="stop-color:#E9EAEC"/>
				<stop  offset="1" style="stop-color:#BEBFC5"/>
			</linearGradient>
			<path class="st5" d="M339,353.5c-2.5,0-4.6-1.9-4.9-4.4c-0.3-2.7,1.6-5.1,4.3-5.4l64.6-7.3c2.7-0.3,5.1,1.6,5.4,4.3
				c0.3,2.7-1.6,5.1-4.3,5.4l-64.6,7.3C339.4,353.5,339.2,353.5,339,353.5z"/>
		</g>
		<g>
			
				<linearGradient id="SVGID_8_" gradientUnits="userSpaceOnUse" x1="403.1395" y1="25.1152" x2="353.231" y2="58.0164" gradientTransform="matrix(1 0 0 -1 0 413)">
				<stop  offset="0" style="stop-color:#E9EAEC"/>
				<stop  offset="1" style="stop-color:#BEBFC5"/>
			</linearGradient>
			<path class="st6" d="M345.9,380c-2.5,0-4.6-1.9-4.9-4.4c-0.3-2.7,1.6-5.1,4.3-5.4l64.6-7.3c2.7-0.3,5.1,1.6,5.4,4.3
				c0.3,2.7-1.6,5.1-4.3,5.4l-64.6,7.3C346.3,379.9,346.1,380,345.9,380z"/>
		</g>
		<g>
			
				<linearGradient id="SVGID_9_" gradientUnits="userSpaceOnUse" x1="410.4716" y1="-1.3061" x2="360.5629" y2="31.5954" gradientTransform="matrix(1 0 0 -1 0 413)">
				<stop  offset="0" style="stop-color:#E9EAEC"/>
				<stop  offset="1" style="stop-color:#BEBFC5"/>
			</linearGradient>
			<path class="st7" d="M353.2,406.4c-2.5,0-4.6-1.9-4.9-4.4c-0.3-2.7,1.6-5.1,4.3-5.4l64.6-7.3c2.7-0.3,5.1,1.6,5.4,4.3
				c0.3,2.7-1.6,5.1-4.3,5.4l-64.6,7.3C353.6,406.4,353.4,406.4,353.2,406.4z"/>
		</g>
	</g>
	<g>
		<g>
			<defs>
				<path id="SVGID_10_" d="M286.4,238c0,0-4-7.1-12.5-5.3c0,0-2.6-6.3-13.6-3.8l16.1-29.5l43,2.3l7.7,48.8l55.4,196.4H334
					l-36.7-213.8l-10.8-9.2L286.4,238z"/>
			</defs>
			<clipPath id="SVGID_11_">
				<use xlink:href="#SVGID_10_"  style="overflow:visible;"/>
			</clipPath>
			
				<linearGradient id="SVGID_12_" gradientUnits="userSpaceOnUse" x1="405.4514" y1="38.8007" x2="240.0264" y2="147.854" gradientTransform="matrix(1 0 0 -1 0 413)">
				<stop  offset="0" style="stop-color:#E9EAEC"/>
				<stop  offset="1" style="stop-color:#BEBFC5"/>
			</linearGradient>
			<path class="st8" d="M364.5,433.5L314.4,236c-0.2-1.3-1.6-7.9-4.6-14.6c-6.2-13.6-14.4-16.7-20.3-16.9c-5-0.2-9.3,1.5-12.4,4.9
				c-5.6,5.9-6.4,15.4-6.3,20.1c2.5,1.3,3.2,3.1,3.2,3.1c2.6-0.5,4.8-0.3,6.5,0.4c0.1-0.5,0.2-1,0.1-1.6c-0.2-2.8-0.1-11.5,3.6-15.3
				c0.8-0.8,2.2-1.9,5-1.8c9.4,0.3,14.5,17.5,15.6,23.6v0.2L355,435.9c0.6,2.2,2.6,3.7,4.8,3.7c0.4,0,0.8,0,1.2-0.2
				C363.5,438.8,365.1,436.1,364.5,433.5z"/>
		</g>
	</g>
	<path class="st2" d="M260.3,228.9c0.6-0.2,1.2-0.4,1.8-0.6c0.6-0.2,1.3-0.3,1.9-0.4l1-0.1c0.3,0,0.7-0.1,1-0.1s0.7,0,1,0
		s0.7,0.1,1,0.1c1.3,0.2,2.7,0.6,3.9,1.3c0.3,0.2,0.6,0.4,0.9,0.6l0.4,0.3c0.1,0.1,0.3,0.2,0.4,0.4c0.1,0.1,0.2,0.3,0.4,0.4
		c0.1,0.1,0.2,0.3,0.3,0.4c0.1,0.1,0.2,0.3,0.3,0.5c0,0.1,0.1,0.2,0.1,0.2c0,0.1,0.1,0.2,0.1,0.3l-1.1-0.6l1-0.1
		c0.3,0,0.6-0.1,1-0.1c0.6,0,1.3-0.1,1.9,0.1c1.3,0.1,2.6,0.5,3.7,1.1c1.2,0.6,2.2,1.4,3.1,2.3c0.9,0.9,1.6,1.9,2.1,3.1
		c-0.8-0.9-1.7-1.7-2.7-2.4c-0.9-0.7-2-1.2-3-1.6l-0.4-0.1c-0.1,0-0.3-0.1-0.4-0.1c-0.3-0.1-0.5-0.2-0.8-0.2l-0.8-0.1
		c-0.1,0-0.3,0-0.4,0h-0.4c-0.6-0.1-1.1,0-1.7,0c-0.3,0-0.6,0.1-0.8,0.1l-0.8,0.1l-0.7,0.1l-0.4-0.7l-0.1-0.1c0-0.1-0.1-0.1-0.1-0.2
		c-0.1-0.1-0.1-0.2-0.2-0.3c-0.1-0.1-0.2-0.2-0.3-0.3s-0.2-0.2-0.3-0.3c-0.4-0.4-0.8-0.8-1.3-1.1c-0.9-0.7-2-1.1-3.2-1.4
		c-1.1-0.3-2.4-0.4-3.6-0.5h-1.9C261.6,228.8,261,228.9,260.3,228.9z"/>
	<g>
		<g>
			<defs>
				<path id="SVGID_13_" d="M156.8,218.4c-17.8-14.8-39.9-8.4-39.9-8.4l-14.1-35.6l38.2-3l13-57.1l61.3-7.8l-9.8-87.9l121.8-61
					l25.3,73.6L337.8,78l9.2,91.8l-30.7,25.5c-36.9-13.8-61.3,14.2-61.3,14.2l-61,72.3l-59.7,14.4c0,0-13.4-28-12.2-28.8
					c1.1-0.8,34.7-17.4,34.7-17.4V218.4z"/>
			</defs>
			<clipPath id="SVGID_14_">
				<use xlink:href="#SVGID_13_"  style="overflow:visible;"/>
			</clipPath>
			<g class="st9">
				<g>
					
						<linearGradient id="SVGID_15_" gradientUnits="userSpaceOnUse" x1="878.5266" y1="-2362.4653" x2="902.9149" y2="-2362.4653" gradientTransform="matrix(0.8087 0.5882 0.5882 -0.8087 828.7711 -2158.3699)">
						<stop  offset="0" style="stop-color:#DAE7F8"/>
						<stop  offset="1" style="stop-color:#A7C7EC"/>
					</linearGradient>
					<path class="st10" d="M163.8,261.3c0,0-18.3,3.6-22.9,25.4c0,0,23.9-2.8,35.4-12.8c0,0,0.2-10.1-2.3-11.4
						S163.8,261.3,163.8,261.3z"/>
					<path class="st11" d="M169.2,248.3l-5.3,13.1c0,0,2.4,6,11.1,2.1l6.2-9.4L169.2,248.3z"/>
					<g>
						
							<linearGradient id="SVGID_16_" gradientUnits="userSpaceOnUse" x1="879.7328" y1="-2362.3958" x2="901.1633" y2="-2362.3958" gradientTransform="matrix(0.8087 0.5882 0.5882 -0.8087 828.7711 -2158.3699)">
							<stop  offset="0" style="stop-color:#1F3682"/>
							<stop  offset="1" style="stop-color:#162766"/>
						</linearGradient>
						<path class="st12" d="M142.3,281.8l0.4-1c18.2-2.2,33.4-10.8,33.6-10.9l0.1,1C176.1,271.1,160.6,279.6,142.3,281.8z"/>
					</g>
				</g>
				<path class="st11" d="M152.2,185.3l-5,12.3c0,0-1.4-1-1.5,1.1s-0.3,9.3,7.3,10.5l13.2-15.4C166.2,193.8,165.7,185.1,152.2,185.3
					z"/>
				
					<linearGradient id="SVGID_17_" gradientUnits="userSpaceOnUse" x1="269.2422" y1="214.5009" x2="169.0889" y2="265.9073" gradientTransform="matrix(1 0 0 -1 0 413)">
					<stop  offset="0" style="stop-color:#3359D4"/>
					<stop  offset="1" style="stop-color:#487FED"/>
				</linearGradient>
				<path class="st13" d="M263,149.1c0,0-16.4-5.3-34.3-16.4c-17.9-11.1-53-17.2-76.7,52c0,0,3.3,10.8,14.9,10.3
					c0,0,10.1-6.3,20.4-19.4s11.1-18.2,24.2-7.9c13.1,10.4,26.7,23.2,45.4,20.5S309.9,151.8,263,149.1z"/>
				
					<linearGradient id="SVGID_18_" gradientUnits="userSpaceOnUse" x1="114.7735" y1="215.7907" x2="153.8735" y2="215.7907" gradientTransform="matrix(1 0 0 -1 0 413)">
					<stop  offset="0" style="stop-color:#DAE7F8"/>
					<stop  offset="1" style="stop-color:#A7C7EC"/>
				</linearGradient>
				<path class="st14" d="M148.5,213.1c1.8-1.3,3.7-3,5.3-4.9c0,0-8.3-1.9-6.7-10.6c0,0-13-19.2-32.4-15.9c0,0,1.2,12.1,15.9,27
					C136,208.9,142.3,210,148.5,213.1z"/>
				
					<linearGradient id="SVGID_19_" gradientUnits="userSpaceOnUse" x1="116.8904" y1="217.65" x2="137.4462" y2="217.65" gradientTransform="matrix(1 0 0 -1 0 413)">
					<stop  offset="0" style="stop-color:#1F3682"/>
					<stop  offset="1" style="stop-color:#162766"/>
				</linearGradient>
				<path class="st15" d="M135.3,209.1c0.7,0.1,1.4,0.2,2.1,0.3c-7-6.6-16.3-17-19.3-28.1c-0.4,0-0.8,0-1.3,0.1
					C119.8,192.3,128.4,202.4,135.3,209.1z"/>
				
					<linearGradient id="SVGID_20_" gradientUnits="userSpaceOnUse" x1="274.6258" y1="182.0514" x2="201.4985" y2="230.2593" gradientTransform="matrix(1 0 0 -1 0 413)">
					<stop  offset="0" style="stop-color:#3359D4"/>
					<stop  offset="1" style="stop-color:#487FED"/>
				</linearGradient>
				<path class="st16" d="M261.4,203.7c7.3-5.6,20.5-13.2,37.8-12c6.2-5.5,10.4-13.3,10.4-24.3c0,0-7.7-17.9-40.3-13.9
					c0,0-62.2,15.1-79.1,46.7c-16.8,31.6-22.7,45.9-22.7,45.9s1.5,8.8,12.5,10c8.5-0.6,26.7-21.4,34.4-36.4
					c7.7-14.9,21.6-18.7,35.4-16.5C252.6,203.5,256.7,203.8,261.4,203.7z"/>
				
					<linearGradient id="SVGID_21_" gradientUnits="userSpaceOnUse" x1="167.5" y1="206.2" x2="309.6" y2="206.2" gradientTransform="matrix(1 0 0 -1 0 413)">
					<stop  offset="0" style="stop-color:#24000A"/>
					<stop  offset="1" style="stop-color:#050000"/>
				</linearGradient>
				<path class="st17" d="M167.5,246c0,0,1.5,8.8,12.5,10c8.5-0.6,26.7-21.4,34.4-36.4c7.7-14.9,21.6-18.7,35.4-16.5
					c2.8,0.4,6.9,0.7,11.6,0.6c7.3-5.6,20.5-13.2,37.8-12c6.2-5.5,10.4-13.3,10.4-24.3c0,0-2.4-5.6-10.2-9.8c0,0-3.4,28.1-35.4,33.5
					s-46.8,6.9-62.3,31.1C186.2,246.3,174.8,250.1,167.5,246z"/>
				
					<linearGradient id="SVGID_22_" gradientUnits="userSpaceOnUse" x1="208.892" y1="240.357" x2="255.1819" y2="245.483" gradientTransform="matrix(1 0 0 -1 0 413)">
					<stop  offset="0" style="stop-color:#84B3E4"/>
					<stop  offset="1" style="stop-color:#5796DA"/>
				</linearGradient>
				<path class="st18" d="M255,165.6l-46.3,4.5l1.1,4.3l43.4-4.1c1.2-0.1,2.2-1.2,2-2.5L255,165.6z"/>
				
					<linearGradient id="SVGID_23_" gradientUnits="userSpaceOnUse" x1="237.5377" y1="240.9522" x2="193.4853" y2="260.5779" gradientTransform="matrix(1 0 0 -1 0 413)">
					<stop  offset="0" style="stop-color:#DBE8F9"/>
					<stop  offset="1" style="stop-color:#A8C8ED"/>
				</linearGradient>
				<path class="st19" d="M208.7,170.1l46.3-4.5l-35.9-5.1c-0.3,0-0.6-0.1-0.8,0l-35.7,1.3L208.7,170.1z"/>
				<path class="st11" d="M207.7,162.5c0,0-2.1,2.6-0.9,3.6c1.2,1,2.6-3.1,5-3.2s3.4,0.8,3.4,0.8S212.4,160.5,207.7,162.5z"/>
				<path class="st20" d="M211.8,166.1c0,0-3,2.5,6.5,1.3c9.6-1.3,8.5-3.4,11.6-4.8c4.7-2.1,35.1-19.7,36.8-38.8
					c1.7-19.3-9.9-24.5-14.2-23.3c0,0-1.9,9.6-3.4,19.8s-14.9,27.3-23.4,36.9c0,0-4.5,6.1-10.5,4.4c-7.1-2-10.2,0.4-10.6,1.6
					c0,0-1.3,2.1,0.7,1.8c2-0.3,2.2-2,4.9-1.2s3,1.5,5,1.5C215.3,165.3,213.6,165.1,211.8,166.1z"/>
				
					<linearGradient id="SVGID_24_" gradientUnits="userSpaceOnUse" x1="251.2" y1="294.8509" x2="321.9294" y2="294.8509" gradientTransform="matrix(1 0 0 -1 0 413)">
					<stop  offset="0" style="stop-color:#1F3683"/>
					<stop  offset="1" style="stop-color:#0F0038"/>
				</linearGradient>
				<path class="st21" d="M281.8,65.8c0,0-29.9,1.9-30.6,34.7c0,0,5.1,6.4,11,6c0,0,1.1,13.8,3.2,20.4c2.1,6.6,3.2,17.6-2.4,19.9
					c-5.7,2.3,3,5.9,4.5,7.8s37.6,22.5,42.8,15.3C315.4,162.7,345.7,53.8,281.8,65.8z"/>
				<path class="st22" d="M300.3,129.4c-7,16.1-37.3,21.9-37.3,21.9c1.7-6.7,18.5-12.6,20.4-20.6s6.8-15.3,10.6-24.2
					c3.8-8.9,3.2-21.8,3.2-21.8c3.4,11-1.8,25.2-1.8,25.2L300.3,129.4z"/>
				<path class="st23" d="M317.3,108.3l0.3-1.7c0.1-0.6,0.2-1.1,0.3-1.7c0.2-1.1,0.4-2.2,0.6-3.4c0.2-1.1,0.3-2.2,0.4-3.4
					c0.1-0.6,0.1-1.1,0.1-1.7c0.1-0.6,0-1.1,0.1-1.7c0.1,1.1,0.1,2.3,0.1,3.4c-0.1,1.1-0.2,2.3-0.4,3.4s-0.4,2.3-0.6,3.4
					C318,106.1,317.7,107.2,317.3,108.3z"/>
				
					<linearGradient id="SVGID_25_" gradientUnits="userSpaceOnUse" x1="291.3347" y1="383.541" x2="234.9998" y2="395.4808" gradientTransform="matrix(1 0 0 -1 0 413)">
					<stop  offset="0" style="stop-color:#311A79"/>
					<stop  offset="1" style="stop-color:#0F0B35"/>
				</linearGradient>
				<path class="st24" d="M247.3,24.1c0,0-4.1,3.2-6,1.1c-1.9-2.2,0.3-6.4-3.3-7.4s-5.5-6.1-3.5-9.6c2-3.6,5.8-3.6,7-1.9
					s4.4,0.9,5.8-1.1s5.5-7.7,11.4-1.9s13.5-2,18.2,0.9c4.6,2.8,3,3.9,6.6,4.4s10.5,3.1,8.6,11.9c-2,8.8-4,8.6-3.2,14.3
					c0.8,5.7,3.2,12.6-1.7,14.1C287,48.7,255.8,53.3,247.3,24.1z"/>
				<path class="st11" d="M286.1,43.5c1.2-0.7,2.6-2.2,3.3-5.1c1.4-5.8-1.8-9-4.2-7.3c-2.4,1.6-1.1,4.4-2.8,5.3s-5.6,1.6-5.7-3
					c-0.1-4.6,0.6-13.1-4.9-14.6s-5.6,6.5-12.6,6.4s-4.8-6-11.9-1.2c0,0-1,12,0.6,18.8s8.4,21.9,13,22.8c2.3,0.5,7.3-1.3,11.8-3.7
					l0,0l0,0c0.3,0.4,0.6,1,0.9,1.7c0.3,0.7,0.5,1.5,0.6,2.4c0.2,1.7,0,3.9-0.9,6.5c-2.9,8.1,12.8,8.2,19.1-7.5
					C292.3,65.2,287.1,52.2,286.1,43.5z"/>
				<g>
					<path class="st25" d="M259,56.9c-0.2,0-0.3-0.1-0.4-0.3c0-0.2,0.1-0.4,0.3-0.4c0.1,0,7.7-1.6,10.6-5.8c0.1-0.2,0.4-0.2,0.5-0.1
						s0.2,0.4,0.1,0.5C267.2,55.2,259.5,56.9,259,56.9C259.1,56.9,259.1,56.9,259,56.9z"/>
				</g>
				<g class="st26">
					<path class="st25" d="M256.5,50.8c-0.4,0-0.6,0-0.7,0h-0.1v-0.1c-1.3-3.9-1.4-16.8-1.4-17.4c0-0.1,0.1-0.2,0.2-0.2l0,0
						c0.1,0,0.2,0.1,0.2,0.2s0.1,13.2,1.4,17.1c0.5,0,2.8,0.1,4.1-1.4c0.1-0.1,0.2-0.1,0.3,0s0.1,0.2,0,0.3
						C259.2,50.6,257.5,50.8,256.5,50.8z"/>
				</g>
				
					<ellipse transform="matrix(0.9729 -0.2311 0.2311 0.9729 -1.7243 61.6481)" class="st25" cx="262.3" cy="38.2" rx="1" ry="2.4"/>
				
					<ellipse transform="matrix(0.9729 -0.2311 0.2311 0.9729 -2.3533 59.1201)" class="st25" cx="251.2" cy="39.6" rx="1" ry="2.4"/>
				<g>
					<path class="st25" d="M269.1,33.6c-0.1,0-0.2,0-0.3-0.1l0,0c0,0-4.8-2.3-9.4-0.4c-0.4,0.2-0.8,0-1-0.4s0-0.8,0.4-1
						c5.3-2.2,10.4,0.3,10.7,0.4c0.4,0.2,0.5,0.6,0.3,1C269.6,33.4,269.4,33.6,269.1,33.6z"/>
				</g>
				<g>
					<path class="st25" d="M247.5,37.1c-0.2,0-0.3,0-0.4-0.1c-0.3-0.2-0.4-0.7-0.2-1.1c0.1-0.1,2.4-3.4,6.1-3.6
						c0.4,0,0.8,0.3,0.8,0.7c0,0.4-0.3,0.8-0.7,0.8c-3,0.2-5,3-5,3C247.9,37,247.7,37.1,247.5,37.1z"/>
				</g>
				<path class="st27" d="M287,34c0,0-2.3,1.3-2.1,5.6C285,39.6,285.8,36.7,287,34z"/>
				<circle class="st25" cx="284.3" cy="42.5" r="0.9"/>
				<path class="st22" d="M251.2,100.5c0,0,5.1,6.4,11,6c0,0-1-14.6,1.2-23.4c0,0-2.1,5.7-3.9,13.1
					C257.8,103.7,251.2,100.5,251.2,100.5z"/>
				<g>
					<path class="st11" d="M295.5,110c0,0,14.5,1.4,21.8-1.6c0,0-8.1,28.5-25,38.6s-32.4,15.9-32.4,15.9s-9.3,6.4-17.2,0
						c0,0-4.4,1.1-7.4,3.5s-1.8,0-1.8,0s-2.1,1.5-2.1,0.3c0,0-2,1.2-1.6-0.6s6.2-7.1,6.2-7.1s-4.3,1.5-6.2,4.5
						c-1.1,1.8-3.9,1.5-3.2,0.6s8.2-10.3,11.5-10s11.4,2.5,17.4,1.5s29.5-22.8,30.6-23.8C287.1,130.6,288.8,121.6,295.5,110z"/>
					
						<linearGradient id="SVGID_26_" gradientUnits="userSpaceOnUse" x1="233.3776" y1="249.2" x2="239.8961" y2="249.2" gradientTransform="matrix(1 0 0 -1 0 413)">
						<stop  offset="0" style="stop-color:#24000A"/>
						<stop  offset="1" style="stop-color:#050000"/>
					</linearGradient>
					<path class="st28" d="M233.5,166.3c0.9-1.1,1.8-2,2.9-2.9c0.5-0.4,1.1-0.9,1.6-1.2c0.6-0.4,1.2-0.7,1.8-0.9
						c-0.6,0.4-1.1,0.8-1.6,1.2c-0.5,0.4-1,0.8-1.6,1.3C235.6,164.5,234.6,165.4,233.5,166.3z"/>
					
						<linearGradient id="SVGID_27_" gradientUnits="userSpaceOnUse" x1="231.2761" y1="249.6" x2="237.9079" y2="249.6" gradientTransform="matrix(1 0 0 -1 0 413)">
						<stop  offset="0" style="stop-color:#24000A"/>
						<stop  offset="1" style="stop-color:#050000"/>
					</linearGradient>
					<path class="st29" d="M231.4,166.6c0.8-1.3,1.7-2.5,2.8-3.6c0.5-0.5,1.1-1.1,1.7-1.5c0.6-0.5,1.2-0.9,1.9-1.3
						c-0.6,0.5-1.1,1-1.7,1.5c-0.5,0.5-1.1,1-1.6,1.6C233.5,164.3,232.4,165.5,231.4,166.6z"/>
					<path class="st25" d="M238.9,155.3c0.2,0.3,0.3,0.5,0.5,0.8s0.4,0.5,0.6,0.7c0.1,0.1,0.2,0.2,0.4,0.2c0,0,0.1,0,0.2,0.1
						c0.1,0,0.2,0.1,0.2,0.1c0.3,0.2,0.4,0.6,0.5,0.8c0.1,0.3,0.2,0.6,0.4,0.9c0.1,0.1,0.1,0.3,0.2,0.4c0.1,0.1,0.2,0.2,0.3,0.3
						c0.2,0.2,0.5,0.3,0.8,0.5s0.4,0.5,0.4,0.8c-0.1-0.3-0.2-0.6-0.5-0.7c-0.3-0.2-0.5-0.3-0.8-0.5c-0.1-0.1-0.3-0.2-0.4-0.3
						c-0.1-0.1-0.2-0.3-0.3-0.4c-0.1-0.3-0.3-0.6-0.4-0.9c-0.1-0.3-0.2-0.6-0.4-0.8c0,0-0.1-0.1-0.2-0.1l-0.2-0.1
						c-0.2-0.1-0.3-0.2-0.4-0.3C239.4,156.5,239.1,155.9,238.9,155.3z"/>
				</g>
				
					<linearGradient id="SVGID_28_" gradientUnits="userSpaceOnUse" x1="207.2646" y1="260.7625" x2="169.6619" y2="277.5148" gradientTransform="matrix(1 0 0 -1 0 413)">
					<stop  offset="0" style="stop-color:#84B3E4"/>
					<stop  offset="1" style="stop-color:#5796DA"/>
				</linearGradient>
				<path class="st30" d="M209.9,174.4l-24.2-7.8c-0.8-0.2-1.4-0.8-1.7-1.6l-15.1-38.7c-0.7-1.7,0.6-3.6,2.5-3.6h22.9
					c1.2,0,2.2,0.8,2.5,2L209.9,174.4z"/>
				
					<linearGradient id="SVGID_29_" gradientUnits="userSpaceOnUse" x1="215.2581" y1="247.8778" x2="218.8859" y2="247.8778" gradientTransform="matrix(1 0 0 -1 0 413)">
					<stop  offset="0" style="stop-color:#24000A"/>
					<stop  offset="1" style="stop-color:#050000"/>
				</linearGradient>
				<path class="st31" d="M215.3,165.3c0.6,0,1.2,0,1.8-0.1c0.6,0,1.2-0.1,1.8-0.3c-0.3,0.2-0.6,0.3-0.9,0.3
					c-0.3,0.1-0.6,0.1-0.9,0.1c-0.3,0-0.6,0-0.9,0C215.9,165.4,215.6,165.3,215.3,165.3z"/>
				<path class="st32" d="M274.2,66.1c-0.1-0.9-0.3-1.7-0.6-2.4c-0.3-0.7-0.6-1.2-0.9-1.7l0,0c4.3-2.3,8.2-5.2,9-7.3
					c1.6-4.4,2-10.5,2-10.5S287.9,57.1,274.2,66.1z"/>
			</g>
		</g>
	</g>
	<g>
		
			<image style="overflow:visible;opacity:0.1;enable-background:new    ;" width="100" height="100" xlink:href="7518D8274234DB2C.png"  transform="matrix(0.228 0 0 0.228 251.6448 298.7448)">
		</image>
		<g>
			<g>
				
					<linearGradient id="SVGID_30_" gradientUnits="userSpaceOnUse" x1="254.8" y1="105.7" x2="265.8351" y2="105.7" gradientTransform="matrix(1 0 0 -1 0 413)">
					<stop  offset="0" style="stop-color:#E9EAEC"/>
					<stop  offset="1" style="stop-color:#BEBFC5"/>
				</linearGradient>
				<circle class="st33" cx="260.3" cy="307.3" r="5.5"/>
				
					<linearGradient id="SVGID_31_" gradientUnits="userSpaceOnUse" x1="256.6536" y1="105.7" x2="263.9683" y2="105.7" gradientTransform="matrix(1 0 0 -1 0 413)">
					<stop  offset="0" style="stop-color:#F4D85F"/>
					<stop  offset="1" style="stop-color:#ECB543"/>
				</linearGradient>
				<circle class="st34" cx="260.3" cy="307.3" r="3.7"/>
			</g>
		</g>
	</g>
	<path class="st2" d="M255,209.5c0.9-1.1,1.9-2.1,2.9-3c1-1,2-1.9,3.1-2.8c2.2-1.8,4.4-3.4,6.8-4.8c2.4-1.5,4.9-2.7,7.5-3.8
		s5.3-1.9,8-2.6c2.7-0.7,5.5-1.1,8.3-1.3l2.1-0.1c0.7,0,1.4,0,2.1,0h1.1l1,0.1c0.7,0,1.4,0.1,2.1,0.1l2.1,0.3c0.3,0,0.7,0.1,1,0.1
		l1,0.2l2.1,0.4l2,0.5l1,0.3c0.3,0.1,0.7,0.2,1,0.3l2,0.6c1.3,0.4,2.6,1,3.9,1.5c-5.3-1.7-10.7-2.9-16.2-3.3
		c-5.5-0.3-11,0.1-16.4,1.4c-5.3,1.3-10.5,3.3-15.3,6c-2.4,1.3-4.7,2.9-6.9,4.5C259.1,205.7,257,207.5,255,209.5z"/>
	<path class="st2" d="M116.9,210c1.7-0.6,3.4-0.9,5.2-1.2c1.7-0.3,3.5-0.5,5.3-0.5c3.5-0.2,7.1,0.1,10.6,0.8
		c1.7,0.4,3.5,0.8,5.2,1.4c0.8,0.3,1.7,0.6,2.5,0.9c0.4,0.2,0.8,0.3,1.2,0.5l1.2,0.6c3.2,1.6,6.1,3.6,8.7,6c-2.9-2-5.9-3.8-9.1-5.2
		c-1.6-0.7-3.2-1.3-4.9-1.8c-1.7-0.5-3.3-0.9-5.1-1.3c-1.7-0.3-3.4-0.6-5.2-0.7c-1.7-0.2-3.5-0.2-5.2-0.3c-1.7,0-3.5,0.1-5.2,0.2
		C120.4,209.4,118.6,209.6,116.9,210z"/>
</g>
</svg>
