<?xml version="1.0" encoding="utf-8"?>
<!-- Generator: Adobe Illustrator 22.1.0, SVG Export Plug-In . SVG Version: 6.00 Build 0)  -->
<svg version="1.1" id="Capa_1" xmlns="http://www.w3.org/2000/svg" xmlns:xlink="http://www.w3.org/1999/xlink" x="0px" y="0px"
	 viewBox="0 0 88.8 88.8" style="enable-background:new 0 0 88.8 88.8;" xml:space="preserve">
<style type="text/css">
	.st0{clip-path:url(#SVGID_2_);fill:url(#SVGID_3_);}
	.st1{opacity:0.24;clip-path:url(#SVGID_5_);}
	.st2{fill:url(#SVGID_6_);}
	.st3{fill:url(#SVGID_7_);}
	.st4{fill:url(#SVGID_8_);}
</style>
<g>
	<g>
		<defs>
			<circle id="SVGID_1_" cx="44.4" cy="44.4" r="44.4"/>
		</defs>
		<clipPath id="SVGID_2_">
			<use xlink:href="#SVGID_1_"  style="overflow:visible;"/>
		</clipPath>
		
			<linearGradient id="SVGID_3_" gradientUnits="userSpaceOnUse" x1="2.0178" y1="402.5273" x2="86.7822" y2="429.0727" gradientTransform="matrix(1 0 0 -1 0 460.2)">
			<stop  offset="0" style="stop-color:#F4D85F"/>
			<stop  offset="1" style="stop-color:#ECB543"/>
		</linearGradient>
		<circle class="st0" cx="44.4" cy="44.4" r="44.4"/>
	</g>
	<g>
		<defs>
			<circle id="SVGID_4_" cx="44.4" cy="44.4" r="44.4"/>
		</defs>
		<clipPath id="SVGID_5_">
			<use xlink:href="#SVGID_4_"  style="overflow:visible;"/>
		</clipPath>
		<g class="st1">
			
				<linearGradient id="SVGID_6_" gradientUnits="userSpaceOnUse" x1="10112.7529" y1="379.9337" x2="10204.2617" y2="408.5915" gradientTransform="matrix(-1 0 0 -1 10192.5635 460.2)">
				<stop  offset="0" style="stop-color:#E8A32E"/>
				<stop  offset="1" style="stop-color:#DD4D2C"/>
			</linearGradient>
			<path class="st2" d="M82.9,70.4c0,0-14.1-24.1-46.5-14.3S-7.5,38.2-7.5,38.2l6,24.9c0,0,7.2,11.5,32,9.7s31.2,21.3,31.2,21.3
				L82.9,70.4z"/>
			
				<linearGradient id="SVGID_7_" gradientUnits="userSpaceOnUse" x1="10105.1846" y1="425.7009" x2="10191.2441" y2="452.6518" gradientTransform="matrix(-1 0 0 -1 10192.5635 460.2)">
				<stop  offset="0" style="stop-color:#E8A32E"/>
				<stop  offset="1" style="stop-color:#DD4D2C"/>
			</linearGradient>
			<path class="st3" d="M88.6,30.6c0,0-19.6,14.3-45.9,1.4s-48.6-1.4-48.6-1.4L8.9,10.9c0,0,11.7-2.6,32.5,8.2
				C62.2,29.9,78.8,6.5,78.8,6.5L88.6,30.6z"/>
			
				<linearGradient id="SVGID_8_" gradientUnits="userSpaceOnUse" x1="10103.9268" y1="405.7317" x2="10192.8193" y2="433.57" gradientTransform="matrix(-1 0 0 -1 10192.5635 460.2)">
				<stop  offset="0" style="stop-color:#E8A32E"/>
				<stop  offset="1" style="stop-color:#DD4D2C"/>
			</linearGradient>
			<path class="st4" d="M88,56.5c0,0-14-8.3-27.4-7.6c-13.4,0.7-47.1,9.3-64.5-9.5l2.4-8.8c0,0,1.2,1.9,15.6,0s23.4,12.8,42.6,13
				s36.7-6.2,36.7-6.2L88,56.5z"/>
		</g>
	</g>
</g>
</svg>
