<?xml version="1.0" encoding="UTF-8"?>
<svg width="1318px" height="707px" viewBox="0 0 1318 707" version="1.1" xmlns="http://www.w3.org/2000/svg" xmlns:xlink="http://www.w3.org/1999/xlink">
    <!-- Generator: Sketch 49.1 (51147) - http://www.bohemiancoding.com/sketch -->
    <title>Transmetro 1</title>
    <desc>Created with Sketch.</desc>
    <defs></defs>
    <g id="Page-3" stroke="none" stroke-width="1" fill="none" fill-rule="evenodd">
        <path d="M173.817504,593 C172.062722,593.215416 169.533362,592.848627 170.07437,595.071193 C170.37981,596.328755 171.970891,596.912415 173.67776,596.991012 C175.821827,597.089987 177.804191,596.370965 177.983861,594.860144 C178.227414,592.816606 175.66212,593.135363 173.817504,593 M46,669.241313 C50.4488661,672.486021 53.5411115,674.912319 56.7785825,677.038946 C58.6417223,678.260361 60.8342766,678.822502 61.7268835,675.571594 C62.4158201,673.060562 61.8597119,670.942201 59.3891035,669.937788 C55.5583322,668.379502 51.7558977,666.850149 46,669.241313 M282,614.666271 C281.782421,610.709911 279.550739,608.680176 275.572436,609.041061 C272.015318,609.365665 268.703725,611.280834 269.021111,614.885857 C269.338497,618.513793 273.386664,619.504792 276.574497,619.936326 C280.29929,620.440418 281.768448,617.883678 282,614.666271 M1.9533852,668.430787 C1.3276872,667.031675 0.700170303,665.632562 0.0744723006,664.23345 C0.805665896,660.504298 -2.13184071,655.385107 4.07239151,653.730125 C4.0742104,653.730125 3.92688035,653.873484 3.92506146,653.873484 C3.77045585,655.682713 3.62858247,657.477424 6.41512124,656.755184 C6.41512124,656.755184 6.75161581,657.092713 6.74434025,657.096343 C4.66898728,662.384298 8.11942075,662.93233 11.9536399,663.148276 C12.9667614,664.300593 13.978064,665.45291 14.9893665,666.607041 C13.6579394,671.307043 16.6754772,671.973028 20.1841151,672.1799 C20.1841151,672.1799 20.1113595,672.145422 20.1113595,672.143607 C20.7425142,672.769669 21.3736688,673.393916 22.0048235,674.018164 C22.0048235,674.018164 21.9920913,673.905654 21.9939102,673.905654 C22.0848546,675.123299 22.7451116,675.720327 23.9655864,675.707624 C23.9655864,675.707624 24.0256098,675.576967 24.0256098,675.576967 C24.2547899,682.668707 29.7023641,682.449132 34.5551613,683.064306 C35.9757141,685.290909 38.1074526,685.06226 40.2737501,684.715658 C40.2737501,684.715658 40.3665134,684.632183 40.3646945,684.632183 C40.4865601,690.346587 44.4553771,688.412146 47.5438516,688.227049 C47.5438516,688.227049 47.6475283,688.217976 47.6475283,688.217976 C48.3168796,691.707591 50.830585,692.273769 53.8153827,692.095931 C53.8153827,692.095931 54.3192151,692.132224 54.3228529,692.134039 C58.0715842,696.808635 61.3383099,701.655626 68.6702536,701.454197 C83.1449766,701.060413 97.6378884,701.374351 112.123525,701.285432 C113.980611,701.276359 116.550702,702.230877 117.245518,698.917285 C112.438193,696.514659 107.196153,695.92489 101.561233,695.53655 C103.152762,694.108403 104.404158,692.986935 105.655554,691.865468 C107.34894,691.290216 109.040507,690.71678 110.732074,690.145158 C112.159903,690.04898 114.417144,689.969135 112.489122,687.954848 C109.613457,684.95338 106.172118,683.305658 101.524855,683.031642 C85.8242009,682.107974 70.1671997,681.445618 54.5011041,683.302028 C54.5011041,683.302028 54.3919707,683.527048 54.3937896,683.528862 C52.3311688,676.146775 44.5445027,676.698435 39.5916665,673.453801 C36.1303197,671.187275 32.0978416,669.637544 29.4859162,666.291288 C24.1602076,659.466305 17.3502852,653.018774 13.8016317,645.743752 C2.72277547,623.031311 -2.53563419,598.847171 6.1095478,573.735733 C7.48099052,569.750712 11.3643197,567.248279 15.0748544,564.284919 C18.0814788,566.565962 18.2524544,569.728936 18.2342655,573.009864 C18.2069821,577.847781 19.1382536,582.888941 18.0869354,587.485506 C15.2803889,599.759951 24.1110976,607.895128 30.80643,613.738373 C34.5915391,617.042892 43.4022401,620.32382 50.6723416,621.321889 C62.291408,622.916987 73.932301,624.348763 85.542273,626.003744 C87.7340349,626.315868 89.8785057,627.161505 90.6206126,624.210848 C91.2335784,621.766484 90.036749,620.376445 87.6103504,619.528993 C83.4723767,618.086328 79.4526308,616.309764 75.1764215,614.589455 C77.3572701,610.644357 80.9659469,609.95841 83.9562013,610.842156 C101.01011,615.872428 114.966449,607.319877 129.65762,601.327828 C153.917969,591.432419 178.622126,582.571373 202.564169,571.982759 C211.187525,568.168318 221.49881,567.899746 228.530637,560.28538 C230.824256,557.802908 234.534791,557.668623 237.963398,557.940824 C240.806322,558.167658 243.869332,557.85009 245.268058,555.262367 C249.578826,547.277808 257.68016,544.508618 264.966632,540.942786 C273.964678,536.536762 281.965974,530.766103 289.969088,524.941004 C296.875411,519.914362 305.107705,517.807527 312.625176,514.141888 C315.322589,512.824436 318.361953,511.702969 320.402747,509.656018 C324.90268,505.135669 329.446266,501.597058 336.167063,500.470146 C341.672842,499.546478 344.588522,493.795781 348.88292,490.456783 C355.756503,485.114387 364.809117,483.395893 370.769618,476.563651 C372.299304,474.810677 374.700238,473.85253 374.983985,471.135965 C383.612797,472.663919 389.407779,470.66778 395.080895,462.476348 C399.393482,456.248392 408.904456,453.622561 416.069062,449.339934 C433.994218,438.627922 451.379164,426.861586 469.96094,417.441621 C488.730061,407.927293 504.232457,393.017944 523.188923,384.75574 C544.811882,375.328517 562.524229,359.887468 583.863441,350.102754 C600.488091,342.477501 615.321135,330.948886 630.892649,321.06618 C633.228103,319.583593 635.261622,317.76892 638.300986,319.144442 C640.412717,320.09896 641.562255,318.946643 642.615392,317.179152 C649.89095,304.962776 662.788696,300.769068 674.438683,294.561074 C681.141291,290.987984 687.025399,285.796206 693.020459,281.016358 C698.640828,276.534117 703.790104,271.589135 711.293023,270.088401 C718.956005,268.555002 720.789446,258.824728 728.105019,257.120751 C733.29613,255.912179 733.27976,253.048626 732.768652,249.210594 C732.768652,249.210594 732.73955,249.265034 732.741369,249.265034 C738.156203,249.317659 742.552459,247.936694 743.492825,241.677888 C743.492825,241.677888 743.529203,241.766807 743.531021,241.768622 C747.845427,241.937386 753.658598,244.144028 751.694198,235.789276 C751.694198,235.789276 752.205306,235.46082 752.208943,235.466264 C755.813983,238.059431 758.305861,235.489855 761.096038,233.704217 C774.379388,225.197033 787.779147,216.869501 801.00975,208.280656 C807.865145,203.831079 816.272052,201.657101 822.388978,196.937138 C830.486674,190.69285 837.296596,182.659295 846.096384,176.992073 C848.066241,175.725431 847.695188,173.255662 847.422354,171.128866 C847.422354,171.128866 847.295032,171.245005 847.295032,171.245005 C857.051556,171.281298 868.776118,163.345736 869.892916,155.954575 C869.892916,155.954575 869.876546,155.889246 869.874727,155.887432 C879.502109,157.55693 885.438965,149.672178 893.22745,146.612641 C903.793379,142.466114 910.19587,132.249508 919.730489,126.148579 C928.059184,120.818886 938.919774,120.468654 945.755161,112.925061 C957.075929,100.429226 972.656537,94.4916175 986.390972,85.7321934 C993.548302,81.1664775 1003.03017,79.6330792 1005.95131,69.9028053 C1009.72005,70.0897166 1013.11046,69.4436932 1015.76422,66.3460473 C1016.90103,65.0195217 1019.22557,62.8909109 1019.87673,63.239328 C1029.63507,68.4401793 1031.092,58.5139208 1036.21581,54.9426454 C1045.77953,48.2719093 1055.82708,42.2199766 1066.01468,36.521905 C1077.13901,30.3012077 1087.16473,22.4382318 1098.41274,16.3409323 C1109.61892,10.2672235 1121.93644,7.51073596 1133.69556,3.51301247 C1140.57824,1.17389964 1149.33983,5.23695133 1156.99008,0.369999726 C1159.49651,-1.22509739 1162.2594,2.70366854 1162.07024,5.17888181 C1161.26629,15.5551791 1168.07803,24.875337 1165.92992,35.3332945 C1158.46338,35.8740669 1156.86639,40.6285088 1156.77727,47.1413684 C1156.65177,56.3453872 1159.87848,67.1281711 1152.40102,73.9749304 C1146.00217,79.8345079 1144.21238,88.9405344 1136.25656,93.3792233 C1132.99529,95.1993398 1130.69985,98.8413875 1128.14795,101.812006 C1123.9263,106.729769 1124.15367,112.738149 1126.42364,117.908151 C1128.61176,122.887613 1134.33035,122.379504 1139.11767,122.433944 C1141.53679,122.461165 1144.14326,122.945682 1146.33684,122.228886 C1150.91317,120.735411 1157.13377,120.717264 1156.78091,113.324289 C1160.92252,109.669538 1169.07842,109.869152 1168.24355,101.438184 C1168.24355,101.438184 1168.80195,101.113357 1168.80377,101.116987 C1173.09816,103.833551 1176.14844,100.806678 1179.49156,98.8849396 C1189.59549,93.0798023 1197.9642,84.6814981 1208.83571,79.9216121 C1213.81764,77.7385611 1219.07242,76.9927307 1224.05072,75.212537 C1240.22428,69.4309905 1256.32509,65.8923792 1272.36224,75.2978266 C1275.19789,76.9600666 1277.9626,77.290337 1281.0147,76.9655107 C1281.51126,76.8965531 1281.95325,77.0163215 1282.34613,77.3266305 C1282.26246,81.5856668 1283.71029,85.0281005 1287.74459,86.9443947 C1291.10408,88.5413064 1293.81604,90.8949367 1296.06965,93.7802659 C1299.95298,98.7579125 1304.89854,100.539921 1311.09368,99.220654 C1313.43277,98.7234338 1315.94465,98.3387232 1318,102.078763 C1306.2136,104.632007 1297.04094,111.896141 1286.99521,117.514367 C1276.79306,123.217883 1266.92558,129.518426 1256.89986,135.53588 C1255.06278,136.637386 1255.14645,138.542792 1254.7172,140.248584 C1242.71616,141.382755 1235.35875,150.804534 1226.61899,157.145 C1222.00083,160.494885 1216.79153,160.63643 1212.37527,163.841141 C1190.3376,179.83385 1167.88341,195.253122 1145.57473,210.870193 C1144.59071,211.559769 1143.65944,212.41085 1142.56628,212.850001 C1136.01464,215.484905 1131.12001,219.224945 1126.32542,225.124446 C1120.07026,232.818657 1110.45925,238.182829 1101.51031,243.140514 C1097.39416,245.419743 1097.25775,249.602563 1094.3839,251.709398 C1081.69897,261.007779 1071.24763,273.1679 1055.87255,279.17628 C1050.33585,281.337555 1044.8901,285.582074 1039.54074,289.06806 C1023.80553,299.324589 1005.54934,304.837564 990.30886,316.480503 C985.627038,320.057222 977.802176,320.256836 974.866488,327.359464 C964.431519,327.740545 954.767758,329.954446 948.043324,338.886264 C945.269517,342.571864 940.702286,342.914837 936.986294,344.684142 C926.620443,349.618237 918.417251,358.778704 907.696716,362.03967 C894.502491,366.053726 883.08714,372.294384 872.357511,380.471298 C870.102088,382.187979 867.226424,382.075469 864.487176,381.984735 C859.73078,381.825044 855.716491,381.939369 854.548764,388.334274 C853.742996,392.743929 849.803281,393.128639 845.909038,391.107094 C843.710001,389.965665 841.116264,388.673618 840.017655,392.166863 C837.27477,400.888179 828.83876,402.664743 822.314403,406.246906 C799.872944,418.570347 776.847621,429.841278 754.495288,442.315337 C747.572594,446.180589 738.943782,448.396304 734.942225,456.526037 C734.942225,456.526037 735.00043,456.42623 735.00043,456.42623 C733.347059,456.304647 731.901042,456.576848 731.26443,458.386076 C731.26443,458.386076 731.413579,458.324377 731.415398,458.324377 C717.893773,460.835884 705.689025,467.365076 694.486484,474.311642 C679.838966,483.394078 664.300193,490.395084 649.079725,498.11833 C635.039717,505.24092 621.665422,513.597487 607.103393,519.78552 C597.732474,523.768726 588.97452,529.190967 579.972836,534.028884 C577.906578,535.137649 575.425612,537.640082 573.757691,534.752939 C571.806022,531.375833 575.007268,529.357917 577.57554,527.717453 C578.288544,527.26197 579.301666,527.251082 580.185646,527.084133 C582.355581,526.674017 585.938794,527.552318 584.96205,523.668919 C584.212668,520.691041 581.535262,522.903127 579.639979,522.792432 C562.298686,521.776216 548.224119,532.693285 532.103301,535.567726 C520.973516,537.552978 515.065763,547.974642 504.190622,550.348234 C501.871538,550.854527 497.853611,552.039509 495.256237,552.799856 C476.980035,558.144067 461.514017,569.284341 444.45829,576.976738 C427.428027,584.656432 409.644744,591.23462 393.32021,601.044739 C385.553552,605.712077 377.836004,611.936403 368.281377,613.927099 C363.945144,614.830806 359.490684,616.344243 358.701286,621.862662 C358.701286,621.862662 358.633987,621.721117 358.633987,621.721117 C344.841347,620.12965 334.450031,626.402972 325.490181,635.988072 C324.937239,636.60869 324.382478,637.229308 323.829535,637.849926 L323.813165,637.85537 C317.750806,633.922975 311.675715,636.623208 305.604262,637.822706 C302.875928,635.282165 300.096664,632.739809 296.213335,635.784829 C294.925562,636.793787 294.341698,638.563093 295.343906,639.818846 C297.446542,642.459195 299.720154,639.060313 301.979215,639.622861 C302.066522,643.794793 295.702227,644.241203 296.609853,648.883135 C296.609853,648.883135 296.669877,648.819622 296.669877,648.819622 C291.780701,649.128116 290.532943,646.271821 291.058602,642.152515 C291.953496,635.151508 288.050159,632.04116 281.947785,630.598495 C278.029897,622.310886 270.043153,623.768068 266.270776,627.769421 C262.261943,632.023013 257.496453,632.18089 253.302093,634.429269 C245.209854,638.766336 239.192967,634.832126 238.119822,625.247026 C239.634957,619.015441 230.385904,605.991536 224.421765,605.955243 C222.342774,605.94254 222.093586,607.446904 222.015374,608.956711 C221.89169,611.343005 221.895328,613.736558 221.846217,616.126482 C218.688625,615.155632 215.587419,613.8654 212.35889,613.28289 C206.143744,612.163237 199.355648,613.223006 195.786987,605.470725 C195.072163,603.917366 186.459721,597.756553 187.130892,608.675437 C187.305505,611.500882 185.635764,612.546133 183.229374,612.390071 C173.920297,611.785786 166.999422,616.547486 159.767517,621.586832 C145.305527,631.667337 134.061152,652.436264 134.712314,669.221984 C135.14521,680.384035 130.305145,690.669598 128.810017,701.530413 C128.673601,702.513966 127.094805,704.234275 126.66009,704.098175 C120.979698,702.32161 116.725315,707.154083 111.204986,706.996207 C95.2060331,706.538909 79.1797974,707.039759 63.1699316,706.81474 C56.2999858,706.718562 49.3354578,706.126979 43.667798,701.358019 C42.9493366,699.869988 41.6124528,699.52883 40.12642,699.463501 L40.1082311,699.436281 C38.2638771,689.121683 36.8342299,687.972995 30.9082878,692.050564 C25.1624158,692.527823 24.8222834,682.430985 17.8122831,685.383457 C17.8122831,685.383457 18.0050854,685.421566 18.0032665,685.419751 C17.8268342,684.1767 17.1138295,683.557897 15.8533391,683.579673 C15.8533391,683.579673 15.9461024,683.723032 15.9479213,683.721218 C16.4281082,680.752413 15.2712944,679.43859 12.2173789,680.035618 L12.6739202,679.658166 C12.6739202,679.658166 12.26467,680.086429 12.26467,680.084614 C13.4724127,674.411948 11.2060763,671.816966 5.39472421,672.361368 L5.43292089,672.394032 C5.69484099,669.8299 4.32703605,668.6921 1.9533852,668.430787" id="Transmetro-1" fill="#E30019"></path>
    </g>
</svg>