<?xml version="1.0" encoding="utf-8"?>
<!-- Generator: Adobe Illustrator 22.1.0, SVG Export Plug-In . SVG Version: 6.00 Build 0)  -->
<svg version="1.1" id="Capa_1" xmlns="http://www.w3.org/2000/svg" xmlns:xlink="http://www.w3.org/1999/xlink" x="0px" y="0px"
	 viewBox="0 0 2206 1043.3" style="enable-background:new 0 0 2206 1043.3;" xml:space="preserve">
<style type="text/css">
	.st0{fill:#0077f1;}
	.st1{fill:#F0F0F3;}
	.st2{fill:url(#SVGID_1_);}
	.st3{fill:url(#SVGID_2_);}
	.st4{fill:url(#SVGID_3_);}
	.st5{fill:url(#SVGID_4_);}
	.st6{fill:url(#SVGID_5_);}
	.st7{fill:url(#SVGID_6_);}
	.st8{fill:url(#SVGID_7_);}
	.st9{fill:url(#SVGID_8_);}
	.st10{fill:url(#SVGID_9_);}
	.st11{fill:url(#SVGID_10_);}
</style>
<path class="st0" d="M2184.6,930.9c-31-121-99.2-150.5-247.9-207.2c-148.7-56.7-94-212.9-218.7-346.3
	c-60.4-64.6-160.7-46.4-160.7-176.1c0-163.2-132.4-94.2-193.9-167.1c-18.2-21.6-45-34.1-73.3-34.1h-60.2l0,0H0
	c0,0,53.9,81,222.5,139c168.6,58.1,152.6,204,183.6,325.1c31,121,99.2,150.5,247.9,207.2c148.7,56.7,94,212.9,218.7,346.3
	c9.7,10.4,20.4,18.6,31.6,25.7H2206C2198.9,1005.6,2193.9,967.1,2184.6,930.9z"/>
<g>
	<path class="st1" d="M959.5,671.2c8.9-22.5,26.6-40.3,49.1-49.2c26.5-10.6,52.5-9.6,74.4-0.7V167.7c0-9.7-7.9-17.6-17.6-17.6H250.3
		c71.6,32.9,103,84.9,120.7,143.2h300.6v38.3H380.7c0.8,3.6,1.5,7.2,2.2,10.8h201.4v38.3H389.8c0.6,3.6,1.2,7.2,1.8,10.8h106.9v38.3
		h-100c2.2,11.6,4.7,23,7.6,34.2c31,121,99.2,150.5,247.9,207.2c50,19.1,77,49.4,95.6,86.4H965C950.6,733.5,946.9,703.1,959.5,671.2
		z M424.7,212.4h-54.1v-18.1h54.1V212.4z M498.5,212.4h-54.1v-18.1h54.1V212.4z M572.3,212.4h-54.1v-18.1h54.1V212.4z M658.9,498.1
		v-38.3h127.9v38.3H658.9z M768.1,631.2l7.1-35l30.4,22.8L768.1,631.2z M886,212.4H815v-18.1H886V212.4z"/>
	<g>
		<linearGradient id="SVGID_1_" gradientUnits="userSpaceOnUse" x1="951.8365" y1="686.0161" x2="1082.9823" y2="686.0161">
			<stop  offset="0" style="stop-color:#DEE7F9"/>
			<stop  offset="1" style="stop-color:#AFC6ED"/>
		</linearGradient>
		<path class="st2" d="M1008.6,622c-22.4,8.9-40.2,26.8-49.1,49.2c-12.6,31.9-8.9,62.3,5.5,86.5h103.1c1,0,2-0.1,3-0.3
			c4.6-1.2,9.2-5.2,11-9.7c0,0,0,0,0,0c0.1-0.2,0.1-0.4,0.2-0.5c0.3-0.9,0.4-1.8,0.5-2.7c0-0.1,0-0.3,0-0.4l0.1-122.6v-0.1
			C1061.1,612.4,1035.1,611.4,1008.6,622z"/>
		<linearGradient id="SVGID_2_" gradientUnits="userSpaceOnUse" x1="370.5965" y1="203.3293" x2="424.7155" y2="203.3293">
			<stop  offset="0" style="stop-color:#243682"/>
			<stop  offset="1" style="stop-color:#13003A"/>
		</linearGradient>
		<rect x="370.6" y="194.3" class="st3" width="54.1" height="18.1"/>
		<linearGradient id="SVGID_3_" gradientUnits="userSpaceOnUse" x1="370.5965" y1="312.4681" x2="671.5699" y2="312.4681">
			<stop  offset="0" style="stop-color:#243682"/>
			<stop  offset="1" style="stop-color:#13003A"/>
		</linearGradient>
		<path class="st4" d="M671.6,293.3H370.9c3.8,12.5,7,25.4,9.7,38.3h290.9V293.3z"/>
		<linearGradient id="SVGID_4_" gradientUnits="userSpaceOnUse" x1="370.5965" y1="361.5771" x2="584.2965" y2="361.5771">
			<stop  offset="0" style="stop-color:#243682"/>
			<stop  offset="1" style="stop-color:#13003A"/>
		</linearGradient>
		<path class="st5" d="M584.3,342.4H382.9c2.5,12.7,4.7,25.5,6.9,38.3h194.5V342.4z"/>
		<linearGradient id="SVGID_5_" gradientUnits="userSpaceOnUse" x1="370.5965" y1="410.6862" x2="498.491" y2="410.6862">
			<stop  offset="0" style="stop-color:#243682"/>
			<stop  offset="1" style="stop-color:#13003A"/>
		</linearGradient>
		<path class="st6" d="M498.5,391.5H391.6c2.2,12.9,4.4,25.7,6.8,38.3h100V391.5z"/>
		<linearGradient id="SVGID_6_" gradientUnits="userSpaceOnUse" x1="444.3719" y1="203.3293" x2="498.4909" y2="203.3293">
			<stop  offset="0" style="stop-color:#243682"/>
			<stop  offset="1" style="stop-color:#13003A"/>
		</linearGradient>
		<rect x="444.4" y="194.3" class="st7" width="54.1" height="18.1"/>
		<linearGradient id="SVGID_7_" gradientUnits="userSpaceOnUse" x1="518.1475" y1="203.3293" x2="572.2665" y2="203.3293">
			<stop  offset="0" style="stop-color:#243682"/>
			<stop  offset="1" style="stop-color:#13003A"/>
		</linearGradient>
		<rect x="518.1" y="194.3" class="st8" width="54.1" height="18.1"/>
		<linearGradient id="SVGID_8_" gradientUnits="userSpaceOnUse" x1="814.9513" y1="203.3293" x2="886.033" y2="203.3293">
			<stop  offset="0" style="stop-color:#78A5FB"/>
			<stop  offset="1" style="stop-color:#6E98FB"/>
		</linearGradient>
		<rect x="815" y="194.3" class="st9" width="71.1" height="18.1"/>
		<linearGradient id="SVGID_9_" gradientUnits="userSpaceOnUse" x1="658.9337" y1="478.9663" x2="786.8281" y2="478.9663">
			<stop  offset="0" style="stop-color:#78A5FB"/>
			<stop  offset="1" style="stop-color:#6E98FB"/>
		</linearGradient>
		<rect x="658.9" y="459.8" class="st10" width="127.9" height="38.3"/>
		<linearGradient id="SVGID_10_" gradientUnits="userSpaceOnUse" x1="768.0793" y1="613.6879" x2="805.5772" y2="613.6879">
			<stop  offset="0" style="stop-color:#DEE7F9"/>
			<stop  offset="1" style="stop-color:#AFC6ED"/>
		</linearGradient>
		<polygon class="st11" points="768.1,631.2 805.6,619 775.2,596.2 		"/>
	</g>
</g>
</svg>
