<?xml version="1.0" encoding="utf-8"?>
<!-- Generator: Adobe Illustrator 22.1.0, SVG Export Plug-In . SVG Version: 6.00 Build 0)  -->
<svg version="1.1" id="Capa_1" xmlns="http://www.w3.org/2000/svg" xmlns:xlink="http://www.w3.org/1999/xlink" x="0px" y="0px"
	 viewBox="0 0 2279.5 1043.3" style="enable-background:new 0 0 2279.5 1043.3;" xml:space="preserve">
<style type="text/css">
	.st0{fill:url(#SVGID_1_);}
	.st1{fill:#F0F0F3;}
	.st2{fill:url(#SVGID_2_);}
	.st3{fill:url(#SVGID_3_);}
	.st4{fill:url(#SVGID_4_);}
	.st5{fill:url(#SVGID_5_);}
	.st6{fill:url(#SVGID_6_);}
	.st7{fill:url(#SVGID_7_);}
	.st8{fill:url(#SVGID_8_);}
	.st9{fill:url(#SVGID_9_);}
	.st10{fill:url(#SVGID_10_);}
	.st11{fill:url(#SVGID_11_);}
	.st12{enable-background:new    ;}
	.st13{fill:#FFFFFF;}
</style>
<linearGradient id="SVGID_1_" gradientUnits="userSpaceOnUse" x1="0" y1="521.75" x2="2206" y2="521.75">
	<stop  offset="0" style="stop-color:#00A0F5"/>
	<stop  offset="1" style="stop-color:#0066E7"/>
</linearGradient>
<path class="st0" d="M2184.6,930.9c-31-121-99.2-150.5-247.9-207.2s-94-212.9-218.7-346.3c-60.4-64.6-160.7-46.4-160.7-176.1
	c0-163.2-132.4-94.2-193.9-167.1c-18.2-21.6-45-34.1-73.3-34.1h-60.2l0,0H0c0,0,53.9,81,222.5,139c168.6,58.1,152.6,204,183.6,325.1
	c31,121,99.2,150.5,247.9,207.2s94,212.9,218.7,346.3c9.7,10.4,20.4,18.6,31.6,25.7H2206C2198.9,1005.6,2193.9,967.1,2184.6,930.9z"
	/>
<g>
	<path class="st1" d="M959.5,671.2c8.9-22.5,26.6-40.3,49.1-49.2c26.5-10.6,52.5-9.6,74.4-0.7V167.7c0-9.7-7.9-17.6-17.6-17.6H250.3
		C321.9,183,353.3,235,371,293.3h300.6v38.3H380.7c0.8,3.6,1.5,7.2,2.2,10.8h201.4v38.3H389.8c0.6,3.6,1.2,7.2,1.8,10.8h106.9v38.3
		h-100c2.2,11.6,4.7,23,7.6,34.2c31,121,99.2,150.5,247.9,207.2c50,19.1,77,49.4,95.6,86.4H965C950.6,733.5,946.9,703.1,959.5,671.2
		z M424.7,212.4h-54.1v-18.1h54.1V212.4z M498.5,212.4h-54.1v-18.1h54.1V212.4z M572.3,212.4h-54.1v-18.1h54.1V212.4z M658.9,498.1
		v-38.3h127.9v38.3H658.9z M768.1,631.2l7.1-35l30.4,22.8L768.1,631.2z M886,212.4h-71v-18.1h71V212.4z"/>
	<g>
		
			<linearGradient id="SVGID_2_" gradientUnits="userSpaceOnUse" x1="951.8345" y1="359.9754" x2="1082.8999" y2="359.9754" gradientTransform="matrix(1 0 0 -1 0 1046)">
			<stop  offset="0" style="stop-color:#DEE7F9"/>
			<stop  offset="1" style="stop-color:#AFC6ED"/>
		</linearGradient>
		<path class="st2" d="M1008.6,622c-22.4,8.9-40.2,26.8-49.1,49.2c-12.6,31.9-8.9,62.3,5.5,86.5h103.1c1,0,2-0.1,3-0.3
			c4.6-1.2,9.2-5.2,11-9.7l0,0c0.1-0.2,0.1-0.4,0.2-0.5c0.3-0.9,0.4-1.8,0.5-2.7c0-0.1,0-0.3,0-0.4l0.1-122.6v-0.1
			C1061.1,612.4,1035.1,611.4,1008.6,622z"/>
		
			<linearGradient id="SVGID_3_" gradientUnits="userSpaceOnUse" x1="370.6" y1="842.65" x2="424.7" y2="842.65" gradientTransform="matrix(1 0 0 -1 0 1046)">
			<stop  offset="0" style="stop-color:#243682"/>
			<stop  offset="1" style="stop-color:#13003A"/>
		</linearGradient>
		<rect x="370.6" y="194.3" class="st3" width="54.1" height="18.1"/>
		
			<linearGradient id="SVGID_4_" gradientUnits="userSpaceOnUse" x1="370.5965" y1="733.55" x2="671.2965" y2="733.55" gradientTransform="matrix(1 0 0 -1 0 1046)">
			<stop  offset="0" style="stop-color:#243682"/>
			<stop  offset="1" style="stop-color:#13003A"/>
		</linearGradient>
		<path class="st4" d="M671.6,293.3H370.9c3.8,12.5,7,25.4,9.7,38.3h290.9L671.6,293.3L671.6,293.3z"/>
		
			<linearGradient id="SVGID_5_" gradientUnits="userSpaceOnUse" x1="370.5965" y1="684.45" x2="584.2965" y2="684.45" gradientTransform="matrix(1 0 0 -1 0 1046)">
			<stop  offset="0" style="stop-color:#243682"/>
			<stop  offset="1" style="stop-color:#13003A"/>
		</linearGradient>
		<path class="st5" d="M584.3,342.4H382.9c2.5,12.7,4.7,25.5,6.9,38.3h194.5V342.4z"/>
		
			<linearGradient id="SVGID_6_" gradientUnits="userSpaceOnUse" x1="370.5965" y1="635.35" x2="498.491" y2="635.35" gradientTransform="matrix(1 0 0 -1 0 1046)">
			<stop  offset="0" style="stop-color:#243682"/>
			<stop  offset="1" style="stop-color:#13003A"/>
		</linearGradient>
		<path class="st6" d="M498.5,391.5H391.6c2.2,12.9,4.4,25.7,6.8,38.3h100v-38.3H498.5z"/>
		
			<linearGradient id="SVGID_7_" gradientUnits="userSpaceOnUse" x1="444.4" y1="842.65" x2="498.5" y2="842.65" gradientTransform="matrix(1 0 0 -1 0 1046)">
			<stop  offset="0" style="stop-color:#243682"/>
			<stop  offset="1" style="stop-color:#13003A"/>
		</linearGradient>
		<rect x="444.4" y="194.3" class="st7" width="54.1" height="18.1"/>
		
			<linearGradient id="SVGID_8_" gradientUnits="userSpaceOnUse" x1="518.1" y1="842.65" x2="572.2" y2="842.65" gradientTransform="matrix(1 0 0 -1 0 1046)">
			<stop  offset="0" style="stop-color:#243682"/>
			<stop  offset="1" style="stop-color:#13003A"/>
		</linearGradient>
		<rect x="518.1" y="194.3" class="st8" width="54.1" height="18.1"/>
		
			<linearGradient id="SVGID_9_" gradientUnits="userSpaceOnUse" x1="815" y1="842.65" x2="886.1" y2="842.65" gradientTransform="matrix(1 0 0 -1 0 1046)">
			<stop  offset="0" style="stop-color:#78A5FB"/>
			<stop  offset="1" style="stop-color:#6E98FB"/>
		</linearGradient>
		<rect x="815" y="194.3" class="st9" width="71.1" height="18.1"/>
		
			<linearGradient id="SVGID_10_" gradientUnits="userSpaceOnUse" x1="658.9" y1="567.05" x2="786.8" y2="567.05" gradientTransform="matrix(1 0 0 -1 0 1046)">
			<stop  offset="0" style="stop-color:#78A5FB"/>
			<stop  offset="1" style="stop-color:#6E98FB"/>
		</linearGradient>
		<rect x="658.9" y="459.8" class="st10" width="127.9" height="38.3"/>
		
			<linearGradient id="SVGID_11_" gradientUnits="userSpaceOnUse" x1="768.1" y1="432.3" x2="805.6" y2="432.3" gradientTransform="matrix(1 0 0 -1 0 1046)">
			<stop  offset="0" style="stop-color:#DEE7F9"/>
			<stop  offset="1" style="stop-color:#AFC6ED"/>
		</linearGradient>
		<polygon class="st11" points="768.1,631.2 805.6,619 775.2,596.2 		"/>
	</g>
</g>
<g class="st12">
	<path class="st13" d="M1513.7,468.9V349.4h27.6v95.3h57.9v24.2H1513.7z"/>
	<path class="st13" d="M1653.2,470.6c-7.5,0-14.2-1.2-20.1-3.7s-10.9-5.8-14.9-10c-4-4.2-7.1-9.1-9.2-14.6
		c-2.1-5.6-3.1-11.4-3.1-17.4s1-11.9,3.1-17.4c2.1-5.6,5.1-10.4,9.2-14.6c4-4.2,9-7.6,14.9-10.1s12.6-3.8,20.1-3.8
		c7.5,0,14.2,1.3,20,3.8c5.8,2.5,10.8,5.9,14.8,10.1c4,4.2,7.1,9.1,9.3,14.6c2.1,5.6,3.2,11.4,3.2,17.4s-1,11.9-3.1,17.4
		c-2.1,5.6-5.1,10.4-9.2,14.6c-4,4.2-9,7.5-14.9,10S1660.7,470.6,1653.2,470.6z M1633.5,424.8c0,7,1.9,12.5,5.6,16.7
		c3.7,4.2,8.4,6.3,14.1,6.3c2.8,0,5.4-0.6,7.7-1.7c2.4-1.1,4.4-2.7,6.1-4.7c1.7-2,3.1-4.5,4.1-7.3s1.5-6,1.5-9.3
		c0-7-1.9-12.5-5.6-16.7c-3.7-4.2-8.4-6.3-14-6.3c-2.8,0-5.4,0.6-7.8,1.7c-2.4,1.1-4.5,2.7-6.2,4.7c-1.7,2-3.1,4.5-4.1,7.3
		C1634,418.4,1633.5,421.5,1633.5,424.8z"/>
</g>
<g class="st12">
	<path d="M1812,470.6c-5.6,0-10.7-1.2-15.4-3.5c-4.7-2.4-8.7-5.6-12-9.8c-3.4-4.2-6-9-7.9-14.6c-1.9-5.6-2.9-11.7-2.9-18.2
		c0-6.4,1-12.4,3.1-17.9c2.1-5.6,4.9-10.4,8.6-14.5c3.6-4.1,8-7.3,13-9.7c5-2.4,10.5-3.5,16.4-3.5c6.7,0,12.5,1.5,17.4,4.4
		c4.9,2.9,8.9,6.8,12.2,11.8v-14.5h23.4v92.6c0,2.7,0.5,4.6,1.5,5.6c1,1.1,2.8,1.7,5.4,1.8v22.9c-2.4,0.4-4.9,0.8-7.6,1
		c-2.7,0.2-5.1,0.3-7.2,0.3c-2.6,0-5-0.4-7.3-1.3c-2.3-0.8-4.3-2-6.1-3.5c-1.7-1.5-3.1-3.3-4.1-5.5c-1-2.1-1.5-4.5-1.5-7.1v-32.8
		C1834.9,465.3,1825.3,470.6,1812,470.6z M1822.3,447.9c3.9,0,7.5-1.1,10.6-3.3c3.1-2.2,5.8-5.1,8.1-8.7v-18.7
		c-0.7-2.1-1.7-4.1-3-6.1c-1.3-1.9-2.9-3.6-4.7-5c-1.8-1.4-3.7-2.5-5.7-3.3c-2-0.8-4-1.2-6.1-1.2c-2.9,0-5.6,0.6-8.1,1.9
		c-2.5,1.3-4.6,3-6.4,5.1c-1.8,2.1-3.2,4.6-4.2,7.4c-1,2.8-1.5,5.8-1.5,8.9c0,6.6,1.9,12.1,5.8,16.3
		C1810.9,445.8,1816,447.9,1822.3,447.9z"/>
	<path d="M1917.9,470.6c-9.1,0-16-2.8-20.6-8.5c-4.7-5.7-7-14-7-25v-56.5h26.9v50.7c0,5.4,1.1,9.5,3.2,12.4c2.1,2.9,5.2,4.3,9.1,4.3
		c3.6,0,7.1-1,10.4-2.9c3.4-1.9,6.3-5.2,8.9-9.9v-54.5h26.9v58.1c0,2.7,0.4,4.6,1.3,5.6c0.8,1.1,2.3,1.7,4.5,1.9v22.7
		c-2.6,0.6-4.8,0.9-6.6,1.1c-1.8,0.2-3.4,0.3-4.9,0.3c-9.7,0-15.1-3.8-16.5-11.3l-0.5-5.4c-4,5.8-9.1,10.1-15.1,12.9
		C1932,469.2,1925.3,470.6,1917.9,470.6z"/>
	<path d="M2043.6,470.6c-7.4,0-14.1-1.2-19.9-3.6s-10.9-5.7-15-9.8c-4.1-4.1-7.2-8.9-9.3-14.4c-2.1-5.4-3.2-11.1-3.2-17.1
		c0-6.4,1.1-12.4,3.2-18.1c2.1-5.7,5.2-10.6,9.3-14.9c4-4.3,9-7.6,14.9-10.1c5.9-2.5,12.6-3.7,20.1-3.7c7.5,0,14.2,1.2,20,3.7
		c5.8,2.5,10.8,5.8,14.8,10c4,4.2,7.1,9.1,9.2,14.6c2.1,5.5,3.1,11.3,3.1,17.3c0,1.6-0.1,3.1-0.2,4.6c-0.1,1.5-0.3,2.8-0.5,4h-65.3
		c0.4,5.9,2.6,10.5,6.5,13.5c3.9,3.1,8.3,4.6,13.2,4.6c3.9,0,7.7-1,11.4-2.9c3.6-1.9,6.1-4.5,7.3-7.7l22.9,6.4
		c-3.5,7-8.9,12.6-16.2,17C2062.6,468.4,2053.8,470.6,2043.6,470.6z M2062.3,416.4c-0.6-5.6-2.6-10-6.1-13.3
		c-3.5-3.3-7.8-4.9-13-4.9c-5.3,0-9.6,1.7-13,5c-3.4,3.3-5.4,7.7-6,13.2H2062.3z"/>
</g>
<g class="st12">
	<path class="st13" d="M1606.7,616.8h-26.9v-49.6c0-5.7-1.1-9.9-3.4-12.6c-2.2-2.7-5.3-4-9.3-4c-1.6,0-3.3,0.4-5.1,1.1
		c-1.9,0.7-3.6,1.8-5.4,3.2c-1.7,1.4-3.3,3.1-4.8,5c-1.5,1.9-2.6,4-3.4,6.4v50.7h-26.9V494h26.9v49.3c3.3-5.3,7.5-9.3,12.9-12.2
		c5.3-2.9,11.2-4.3,17.6-4.3c5.9,0,10.7,1,14.4,3.1c3.6,2.1,6.5,4.7,8.4,7.9c2,3.2,3.3,6.8,4,10.8c0.7,4,1,7.9,1,11.7V616.8z"/>
	<path class="st13" d="M1654.3,618.5c-4.4,0-8.4-0.7-12.2-2.1c-3.8-1.4-7-3.4-9.7-5.9c-2.7-2.5-4.8-5.5-6.4-8.9
		c-1.6-3.4-2.4-7.2-2.4-11.2c0-4.4,0.9-8.4,2.8-11.9c1.9-3.6,4.5-6.7,7.8-9.3c3.4-2.6,7.3-4.6,11.9-6.1c4.6-1.5,9.7-2.2,15.3-2.2
		c3.7,0,7.3,0.3,10.8,0.9c3.5,0.6,6.5,1.5,9.1,2.8v-4c0-10.2-5.9-15.3-17.7-15.3c-4.8,0-9.4,0.8-13.8,2.4c-4.4,1.6-9,4.1-13.8,7.3
		l-7.9-16.8c5.8-3.8,11.9-6.7,18.2-8.6c6.3-1.9,13-2.9,20-2.9c13.4,0,23.7,3.1,31,9.4c7.3,6.3,10.9,15.5,10.9,27.6v22.7
		c0,2.7,0.4,4.6,1.3,5.6c0.8,1.1,2.3,1.7,4.5,1.9v22.7c-2.4,0.6-4.5,0.9-6.4,1.1c-1.9,0.2-3.6,0.3-5.2,0.3c-5,0-8.9-1-11.4-2.9
		c-2.6-2-4.2-4.7-4.9-8.3l-0.5-4c-3.9,5-8.6,8.9-14.1,11.6C1666.1,617.2,1660.3,618.5,1654.3,618.5z M1662.2,599.2
		c2.9,0,5.7-0.5,8.5-1.5c2.7-1,5-2.4,6.8-4c2.6-2,3.9-4.1,3.9-6.4v-8.4c-2.4-0.9-4.9-1.6-7.7-2.1c-2.8-0.5-5.3-0.8-7.7-0.8
		c-4.9,0-9,1.1-12.2,3.4c-3.2,2.2-4.8,5.2-4.8,8.8c0,3.3,1.2,5.9,3.7,8C1655.2,598.1,1658.4,599.2,1662.2,599.2z"/>
	<path class="st13" d="M1727.3,572.6c0-6.1,1.1-11.9,3.2-17.4c2.1-5.6,5.2-10.4,9.3-14.6c4-4.2,9-7.5,14.9-10
		c5.9-2.5,12.6-3.7,20.1-3.7c10.2,0,18.8,2.2,25.8,6.5c7,4.3,12.2,10,15.7,16.9l-26.3,7.9c-3.5-5.6-8.6-8.4-15.3-8.4
		c-5.6,0-10.3,2.1-14.1,6.2c-3.8,4.2-5.6,9.7-5.6,16.7c0,3.5,0.5,6.6,1.5,9.5s2.4,5.3,4.2,7.3c1.8,2,3.9,3.6,6.3,4.7
		c2.4,1.1,5,1.7,7.7,1.7c3.4,0,6.5-0.8,9.3-2.4c2.8-1.6,4.9-3.7,6.2-6.3l26.3,8.1c-3.3,6.8-8.4,12.5-15.6,16.8
		c-7.1,4.4-15.8,6.6-26,6.6c-7.4,0-14.1-1.3-19.9-3.8s-10.9-5.9-15-10.1c-4.1-4.2-7.2-9.1-9.3-14.6
		C1728.4,584.4,1727.3,578.6,1727.3,572.6z"/>
</g>
<g class="st12">
	<path d="M1874.9,618.5c-7.4,0-14.1-1.2-19.9-3.6s-10.9-5.7-15-9.8c-4.1-4.1-7.2-8.9-9.3-14.4c-2.1-5.4-3.2-11.1-3.2-17.1
		c0-6.4,1.1-12.4,3.2-18.1c2.1-5.7,5.2-10.6,9.3-14.9c4-4.3,9-7.6,14.9-10.1c5.9-2.5,12.6-3.7,20.1-3.7c7.5,0,14.2,1.2,20,3.7
		c5.8,2.5,10.8,5.8,14.8,10c4,4.2,7.1,9.1,9.2,14.6c2.1,5.5,3.1,11.3,3.1,17.3c0,1.6-0.1,3.1-0.2,4.6c-0.1,1.5-0.3,2.8-0.5,4H1856
		c0.4,5.9,2.6,10.5,6.5,13.5c3.9,3.1,8.3,4.6,13.2,4.6c3.9,0,7.7-1,11.4-2.9c3.6-1.9,6.1-4.5,7.3-7.7l22.9,6.4
		c-3.5,7-8.9,12.6-16.2,17C1893.8,616.3,1885.1,618.5,1874.9,618.5z M1893.6,564.3c-0.6-5.6-2.6-10-6.1-13.3
		c-3.5-3.3-7.8-4.9-13-4.9c-5.3,0-9.6,1.7-13,5c-3.4,3.3-5.4,7.7-6,13.2H1893.6z"/>
	<path d="M2078.7,616.8h-26.9v-49.6c0-5.8-1.1-10.1-3.2-12.7c-2.1-2.6-4.9-4-8.2-4c-1.8,0-3.6,0.4-5.5,1.2c-1.9,0.8-3.6,1.9-5.1,3.3
		c-1.6,1.4-3,3.1-4.3,5c-1.3,1.9-2.3,4-3.1,6.2v50.7h-26.9v-49.6c0-5.8-1.1-10.1-3.2-12.7c-2.1-2.6-4.9-4-8.2-4
		c-3.6,0-7.1,1.4-10.5,4.3c-3.4,2.9-5.9,6.6-7.5,11.4v50.7H1939v-88.4h24.2v14.8c3.3-5.4,7.7-9.5,13.2-12.3c5.6-2.8,12-4.2,19.4-4.2
		c3.7,0,6.9,0.4,9.7,1.3c2.7,0.9,5.1,2.1,7.2,3.7c2,1.6,3.6,3.4,4.9,5.5c1.2,2.1,2.1,4.3,2.7,6.6c3.4-5.5,7.8-9.7,13.3-12.7
		c5.5-3,11.8-4.5,18.8-4.5c5.6,0,10.1,1,13.5,3.1c3.4,2.1,6.1,4.8,8,8.1c1.9,3.3,3.2,6.9,3.8,10.9c0.6,3.9,0.9,7.7,0.9,11.4V616.8z"
		/>
	<path d="M2143.1,618.5c-7.5,0-14.2-1.2-20.1-3.7s-10.9-5.8-14.9-10c-4-4.2-7.1-9.1-9.2-14.6c-2.1-5.6-3.1-11.4-3.1-17.4
		s1-11.9,3.1-17.4c2.1-5.6,5.1-10.4,9.2-14.6c4-4.2,9-7.6,14.9-10.1s12.6-3.8,20.1-3.8c7.5,0,14.2,1.3,20,3.8
		c5.8,2.5,10.8,5.9,14.8,10.1c4,4.2,7.1,9.1,9.3,14.6c2.1,5.6,3.2,11.4,3.2,17.4s-1,11.9-3.1,17.4c-2.1,5.6-5.1,10.4-9.2,14.6
		c-4,4.2-9,7.5-14.9,10S2150.7,618.5,2143.1,618.5z M2123.5,572.7c0,7,1.9,12.5,5.6,16.7c3.7,4.2,8.4,6.3,14.1,6.3
		c2.8,0,5.4-0.6,7.7-1.7c2.4-1.1,4.4-2.7,6.1-4.7c1.7-2,3.1-4.5,4.1-7.3s1.5-6,1.5-9.3c0-7-1.9-12.5-5.6-16.7
		c-3.7-4.2-8.4-6.3-14-6.3c-2.8,0-5.4,0.6-7.8,1.7c-2.4,1.1-4.5,2.7-6.2,4.7c-1.7,2-3.1,4.5-4.1,7.3
		C2124,566.3,2123.5,569.4,2123.5,572.7z"/>
	<path d="M2243.3,618.5c-7.5,0-14.9-1.2-22.2-3.6c-7.3-2.4-13.5-5.9-18.5-10.5l9.6-16.5c5.4,3.7,10.6,6.6,15.7,8.6
		c5.1,2,10,3,14.7,3c3.5,0,6.2-0.6,8.1-1.9c1.9-1.2,2.9-3,2.9-5.4c0-2.4-1.2-4.2-3.6-5.6c-2.4-1.4-6.6-2.9-12.7-4.5
		c-5.9-1.7-11-3.3-15.1-4.9c-4.1-1.6-7.4-3.3-10-5.2c-2.6-1.9-4.4-4.1-5.6-6.6c-1.1-2.5-1.7-5.4-1.7-8.8c0-4.5,0.9-8.6,2.7-12.3
		c1.8-3.7,4.3-6.8,7.4-9.4c3.1-2.6,6.9-4.6,11.2-6.1c4.3-1.5,9-2.2,14.1-2.2c6.6,0,12.8,0.9,18.6,2.7c5.8,1.8,11.4,5,16.7,9.8
		l-10.4,16.2c-5-3.5-9.5-6-13.5-7.6c-3.9-1.6-7.7-2.4-11.4-2.4c-2.9,0-5.4,0.6-7.4,1.8c-2,1.2-3,3.1-3,5.6c0,2.5,1.1,4.3,3.3,5.6
		c2.2,1.2,6.3,2.6,12.2,4c6.3,1.7,11.6,3.4,15.9,5c4.3,1.7,7.8,3.6,10.5,5.6c2.7,2.1,4.7,4.5,5.9,7.2c1.2,2.7,1.9,5.9,1.9,9.6
		c0,8.8-3.3,15.7-9.8,20.9C2263.2,615.9,2254.4,618.5,2243.3,618.5z"/>
</g>
</svg>
