<?xml version="1.0" encoding="utf-8"?>
<!-- Generator: Adobe Illustrator 22.1.0, SVG Export Plug-In . SVG Version: 6.00 Build 0)  -->
<svg version="1.1" id="Capa_1" xmlns="http://www.w3.org/2000/svg" xmlns:xlink="http://www.w3.org/1999/xlink" x="0px" y="0px"
	 viewBox="0 0 1044 1544" style="enable-background:new 0 0 1044 1544;" xml:space="preserve">
<style type="text/css">
	.st0{filter:url(#Adobe_OpacityMaskFilter);}
	.st1{fill:#FFFFFF;}
	.st2{mask:url(#mask-2_1_);fill:#FFFFFF;}
	.st3{enable-background:new    ;}
</style>
<title>Group 7</title>
<desc>Created with Sketch.</desc>
<g id="Group-3">
	<g id="Clip-2">
	</g>
	<defs>
		<filter id="Adobe_OpacityMaskFilter" filterUnits="userSpaceOnUse" x="0" y="0" width="1044" height="1544">
			<feColorMatrix  type="matrix" values="1 0 0 0 0  0 1 0 0 0  0 0 1 0 0  0 0 0 1 0"/>
		</filter>
	</defs>
	<mask maskUnits="userSpaceOnUse" x="0" y="0" width="1044" height="1544" id="mask-2_1_">
		<g class="st0">
			<polygon id="path-1_1_" class="st1" points="0,0 1044,0 1044,1544 0,1544 			"/>
		</g>
	</mask>
	<path id="Fill-1" class="st2" d="M1044,0H0v1544c0,0-1.6-214.8,217.6-344.4C436.9,1069.9,409,1040.2,423,829.7
		c14-210.5,210.1-128.7,189.3-337.4c-20.8-208.8,147.1-144.9,192.3-277.9C835.1,117.3,871.5,6.4,1044,0"/>
</g>
<g class="st3">
	<path d="M40.4,597V477.5h51c5.7,0,11,1.2,15.7,3.5c4.8,2.4,8.9,5.4,12.3,9.3c3.4,3.8,6.1,8.1,8.1,13c2,4.8,2.9,9.7,2.9,14.6
		c0,5.3-0.9,10.3-2.8,15.1c-1.9,4.8-4.4,9.1-7.7,13c-3.3,3.8-7.3,6.8-12,9.1c-4.7,2.2-9.9,3.4-15.7,3.4H68V597H40.4z M68,534.4h22.6
		c3.3,0,6.1-1.4,8.4-4.2c2.4-2.8,3.5-6.9,3.5-12.3c0-2.8-0.4-5.2-1.1-7.2c-0.7-2-1.7-3.7-2.9-5c-1.2-1.3-2.6-2.3-4.2-2.9
		c-1.6-0.6-3.1-0.9-4.7-0.9H68V534.4z"/>
	<path d="M203.9,531.7c-6.5,0.1-12.4,1.2-17.7,3.2c-5.3,2-9.1,5-11.4,9.1v53h-26.9v-88.4h24.7v17.8c3-5.9,6.9-10.6,11.7-14
		c4.8-3.4,9.8-5.1,15.2-5.2c1.2,0,2.1,0,2.7,0c0.6,0,1.1,0.1,1.7,0.2V531.7z"/>
	<path d="M257.6,598.7c-7.5,0-14.2-1.2-20.1-3.7s-10.9-5.8-14.9-10c-4-4.2-7.1-9.1-9.2-14.6c-2.1-5.6-3.1-11.4-3.1-17.4
		s1-11.9,3.1-17.4c2.1-5.6,5.1-10.4,9.2-14.6c4-4.2,9-7.6,14.9-10.1s12.6-3.8,20.1-3.8c7.5,0,14.2,1.3,20,3.8
		c5.8,2.5,10.8,5.9,14.8,10.1c4,4.2,7.1,9.1,9.3,14.6c2.1,5.6,3.2,11.4,3.2,17.4s-1,11.9-3.1,17.4c-2.1,5.6-5.1,10.4-9.2,14.6
		c-4,4.2-9,7.5-14.9,10S265.1,598.7,257.6,598.7z M237.9,552.9c0,7,1.9,12.5,5.6,16.7c3.7,4.2,8.4,6.3,14.1,6.3
		c2.8,0,5.4-0.6,7.7-1.7c2.4-1.1,4.4-2.7,6.1-4.7c1.7-2,3.1-4.5,4.1-7.3c1-2.9,1.5-6,1.5-9.3c0-7-1.9-12.5-5.6-16.7
		c-3.7-4.2-8.4-6.3-14-6.3c-2.8,0-5.4,0.6-7.8,1.7c-2.4,1.1-4.5,2.7-6.2,4.7c-1.7,2-3.1,4.5-4.1,7.3
		C238.4,546.4,237.9,549.5,237.9,552.9z"/>
	<path d="M320.5,610.3c2.2,0.8,4.3,1.3,6.3,1.7c2,0.3,3.7,0.5,5.3,0.5c3.3,0,5.8-1.1,7.6-3.4c1.8-2.2,3.4-6.3,4.9-12.1l-33.7-88.4
		h27.8l20.5,65.3l17.7-65.3h25.2l-33.7,102.7c-2.4,7.3-6.6,13.2-12.6,17.8c-6.1,4.5-13.2,6.8-21.5,6.8c-2.2,0-4.5-0.2-6.8-0.6
		c-2.3-0.4-4.6-1-7-1.9V610.3z"/>
	<path d="M456.6,598.7c-7.4,0-14.1-1.2-19.9-3.6s-10.9-5.7-15-9.8c-4.1-4.1-7.2-8.9-9.3-14.4c-2.1-5.4-3.2-11.1-3.2-17.1
		c0-6.4,1.1-12.4,3.2-18.1c2.1-5.7,5.2-10.6,9.3-14.9c4-4.3,9-7.6,14.9-10.1c5.9-2.5,12.6-3.7,20.1-3.7c7.5,0,14.2,1.2,20,3.7
		c5.8,2.5,10.8,5.8,14.8,10c4,4.2,7.1,9.1,9.2,14.6c2.1,5.5,3.1,11.3,3.1,17.3c0,1.6-0.1,3.1-0.2,4.6c-0.1,1.5-0.3,2.8-0.5,4h-65.3
		c0.4,5.9,2.6,10.5,6.5,13.5c3.9,3.1,8.3,4.6,13.2,4.6c3.9,0,7.7-1,11.4-2.9c3.6-1.9,6.1-4.5,7.3-7.7l22.9,6.4
		c-3.5,7-8.9,12.6-16.2,17C475.6,596.5,466.9,598.7,456.6,598.7z M475.3,544.5c-0.6-5.6-2.6-10-6.1-13.3c-3.5-3.3-7.8-4.9-13-4.9
		c-5.3,0-9.6,1.7-13,5c-3.4,3.3-5.4,7.7-6,13.2H475.3z"/>
	<path d="M515.6,552.7c0-6.1,1.1-11.9,3.2-17.4c2.1-5.6,5.2-10.4,9.3-14.6c4-4.2,9-7.5,14.9-10c5.9-2.5,12.6-3.7,20.1-3.7
		c10.2,0,18.8,2.2,25.8,6.5c7,4.3,12.2,10,15.7,16.9l-26.3,7.9c-3.5-5.6-8.6-8.4-15.3-8.4c-5.6,0-10.3,2.1-14.1,6.2
		c-3.8,4.2-5.6,9.7-5.6,16.7c0,3.5,0.5,6.6,1.5,9.5s2.4,5.3,4.2,7.3c1.8,2,3.9,3.6,6.3,4.7c2.4,1.1,5,1.7,7.7,1.7
		c3.4,0,6.5-0.8,9.3-2.4c2.8-1.6,4.9-3.7,6.2-6.3l26.3,8.1c-3.3,6.8-8.4,12.5-15.6,16.8c-7.1,4.4-15.8,6.6-26,6.6
		c-7.4,0-14.1-1.3-19.9-3.8s-10.9-5.9-15-10.1c-4.1-4.2-7.2-9.1-9.3-14.6C516.6,564.6,515.6,558.8,515.6,552.7z"/>
</g>
<g class="st3">
	<path class="st1" d="M679.2,592.3c-3.7,1.6-7.9,3-12.7,4.4c-4.8,1.3-9.6,2-14.4,2c-3.4,0-6.5-0.4-9.5-1.3c-3-0.8-5.6-2.2-7.8-4
		c-2.2-1.9-4-4.3-5.3-7.3c-1.3-3-1.9-6.7-1.9-10.9V529h-11.3v-20.4h11.3v-28.1h26.9v28.1h18V529h-18v36.9c0,2.9,0.7,5,2.2,6.3
		c1.5,1.3,3.3,1.9,5.6,1.9c2,0,4.1-0.3,6.2-1c2.1-0.7,4-1.4,5.6-2.2L679.2,592.3z"/>
	<path class="st1" d="M734.3,598.7c-7.5,0-14.2-1.2-20.1-3.7s-10.9-5.8-14.9-10c-4-4.2-7.1-9.1-9.2-14.6c-2.1-5.6-3.1-11.4-3.1-17.4
		s1-11.9,3.1-17.4c2.1-5.6,5.1-10.4,9.2-14.6c4-4.2,9-7.6,14.9-10.1s12.6-3.8,20.1-3.8c7.5,0,14.2,1.3,20,3.8
		c5.8,2.5,10.8,5.9,14.8,10.1c4,4.2,7.1,9.1,9.3,14.6c2.1,5.6,3.2,11.4,3.2,17.4s-1,11.9-3.1,17.4c-2.1,5.6-5.1,10.4-9.2,14.6
		c-4,4.2-9,7.5-14.9,10S741.8,598.7,734.3,598.7z M714.6,552.9c0,7,1.9,12.5,5.6,16.7c3.7,4.2,8.4,6.3,14.1,6.3
		c2.8,0,5.4-0.6,7.7-1.7c2.4-1.1,4.4-2.7,6.1-4.7c1.7-2,3.1-4.5,4.1-7.3s1.5-6,1.5-9.3c0-7-1.9-12.5-5.6-16.7
		c-3.7-4.2-8.4-6.3-14-6.3c-2.8,0-5.4,0.6-7.8,1.7c-2.4,1.1-4.5,2.7-6.2,4.7c-1.7,2-3.1,4.5-4.1,7.3
		C715.1,546.4,714.6,549.5,714.6,552.9z"/>
	<path class="st1" d="M834.4,598.7c-7.5,0-14.9-1.2-22.2-3.6c-7.3-2.4-13.5-5.9-18.5-10.5l9.6-16.5c5.4,3.7,10.6,6.6,15.7,8.6
		c5.1,2,10,3,14.7,3c3.5,0,6.2-0.6,8.1-1.9c1.9-1.2,2.9-3,2.9-5.4c0-2.4-1.2-4.2-3.6-5.6c-2.4-1.4-6.6-2.9-12.7-4.5
		c-5.9-1.7-11-3.3-15.1-4.9c-4.1-1.6-7.4-3.3-10-5.2c-2.6-1.9-4.4-4.1-5.6-6.6c-1.1-2.5-1.7-5.4-1.7-8.8c0-4.5,0.9-8.6,2.7-12.3
		c1.8-3.7,4.3-6.8,7.4-9.4c3.1-2.6,6.9-4.6,11.2-6.1c4.3-1.5,9-2.2,14.1-2.2c6.6,0,12.8,0.9,18.6,2.7c5.8,1.8,11.4,5,16.7,9.8
		l-10.4,16.2c-5-3.5-9.5-6-13.5-7.6c-3.9-1.6-7.7-2.4-11.4-2.4c-2.9,0-5.4,0.6-7.4,1.8c-2,1.2-3,3.1-3,5.6c0,2.5,1.1,4.3,3.3,5.6
		c2.2,1.2,6.3,2.6,12.2,4c6.3,1.7,11.6,3.4,15.9,5c4.3,1.7,7.8,3.6,10.5,5.6c2.7,2.1,4.7,4.5,5.9,7.2c1.2,2.7,1.9,5.9,1.9,9.6
		c0,8.8-3.3,15.7-9.8,20.9C854.3,596.1,845.5,598.7,834.4,598.7z"/>
</g>
</svg>
