<?xml version="1.0" encoding="utf-8"?>
<!-- Generator: Adobe Illustrator 22.1.0, SVG Export Plug-In . SVG Version: 6.00 Build 0)  -->
<svg version="1.1" id="Capa_1" xmlns="http://www.w3.org/2000/svg" xmlns:xlink="http://www.w3.org/1999/xlink" x="0px" y="0px"
	 viewBox="0 0 226.4 155.8" style="enable-background:new 0 0 226.4 155.8;" xml:space="preserve">
<style type="text/css">
	.st0{opacity:0.7;fill:url(#SVGID_1_);enable-background:new    ;}
	.st1{fill:#FFFFFF;}
</style>
<g>
	
		<linearGradient id="SVGID_1_" gradientUnits="userSpaceOnUse" x1="-6.103516e-05" y1="77.9" x2="226.3999" y2="77.9" gradientTransform="matrix(1 0 0 -1 0 155.8)">
		<stop  offset="0" style="stop-color:#DDE6F8"/>
		<stop  offset="1" style="stop-color:#AEC5EC"/>
	</linearGradient>
	<path class="st0" d="M209.9,155.8H16.5c-9.1,0-16.5-7.4-16.5-16.5V16.5C0,7.4,7.4,0,16.5,0h193.4c9.1,0,16.5,7.4,16.5,16.5v122.9
		C226.3,148.4,219,155.8,209.9,155.8z"/>
	<path class="st1" d="M125.6,75.5l-22.1-12.8c-1.9-1.1-4.2,0.3-4.2,2.4v25.5c0,2.1,2.3,3.5,4.2,2.4l22.1-12.8
		C127.5,79.2,127.5,76.6,125.6,75.5z"/>
</g>
</svg>
