<?xml version="1.0" encoding="utf-8"?>
<!-- Generator: Adobe Illustrator 22.1.0, SVG Export Plug-In . SVG Version: 6.00 Build 0)  -->
<svg version="1.1" id="Capa_1" xmlns="http://www.w3.org/2000/svg" xmlns:xlink="http://www.w3.org/1999/xlink" x="0px" y="0px"
	 viewBox="0 0 536.3 282.6" style="enable-background:new 0 0 536.3 282.6;" xml:space="preserve">
<style type="text/css">
	.st0{fill:url(#SVGID_1_);}
	.st1{fill:url(#SVGID_2_);}
</style>
<g>
	
		<linearGradient id="SVGID_1_" gradientUnits="userSpaceOnUse" x1="-280.5503" y1="-844.0829" x2="2.1157" y2="-844.0829" gradientTransform="matrix(0.9681 0.2506 0.2506 -0.9681 614.59 -640.9688)">
		<stop  offset="0" style="stop-color:#84B3E4"/>
		<stop  offset="1" style="stop-color:#5796DA"/>
	</linearGradient>
	<circle class="st0" cx="268.3" cy="141.3" r="141.3"/>
	
		<linearGradient id="SVGID_2_" gradientUnits="userSpaceOnUse" x1="-419.8432" y1="-852.8613" x2="141.2469" y2="-852.8613" gradientTransform="matrix(0.9681 0.2506 0.2506 -0.9681 614.59 -640.9688)">
		<stop  offset="0" style="stop-color:#DBE8F9"/>
		<stop  offset="1" style="stop-color:#A8C8ED"/>
	</linearGradient>
	<path class="st1" d="M409.7,132c17.2,5.3,34.1,11.3,50.8,18.1c16.7,6.9,33.1,14.5,48.8,24.3c3.9,2.5,7.7,5.2,11.4,8.2
		s7.3,6.3,10.4,10.6c1.6,2.1,3.1,4.5,4.1,7.5c1,2.9,1.5,6.6,0.6,10.2c-1,3.5-3.1,6.7-5.4,8.7l-1.7,1.6l-1.8,1.2l-1.8,1.2l-1.8,0.9
		c-4.8,2.5-9.6,3.9-14.3,5c-2.4,0.6-4.7,1-7,1.4s-4.7,0.7-7,1c-9.3,1.1-18.5,1.5-27.7,1.6c-18.3,0.2-36.5-0.9-54.6-2.7
		s-36-4.2-53.9-7.1c-35.7-5.8-71-13.6-106.1-22.4c-35-9.1-69.6-19.5-103.6-31.8c-17-6.2-33.9-12.8-50.5-20
		c-16.7-7.2-33.1-15-49.1-24.1c-8-4.5-15.8-9.4-23.4-14.8c-1.9-1.4-3.8-2.7-5.6-4.3c-1.9-1.4-3.7-3-5.5-4.6
		c-3.6-3.2-7.1-6.8-10.1-11.3l-1.1-1.7l-1-1.9l-1-1.9L1,82.7c-1.1-2.9-1.3-6.7-0.5-10.2c0.9-3.6,3.2-6.6,5.5-8.6
		c2.3-2.1,4.8-3.5,7.2-4.6c4.8-2.2,9.6-3.3,14.3-4.2c4.7-0.8,9.3-1.3,13.9-1.6c18.4-1,36.5,0.3,54.4,2.4s35.7,5.1,53.2,8.9
		c-17.9-1.4-35.8-2.6-53.7-3.1c-17.8-0.4-35.7-0.3-53,2C33.8,64.9,25,66.6,18.4,70c-3.4,1.7-5.3,4-5.4,5.5c-0.2,1.4,0.8,4.2,3,7
		c2.1,2.8,5.2,5.6,8.4,8.2c1.6,1.3,3.2,2.6,5,3.8c1.7,1.3,3.5,2.4,5.3,3.6c7.2,4.7,14.8,8.9,22.6,12.9
		c31.4,15.6,64.7,28.5,98.4,39.7C189.4,162,223.6,172,258,181c34.4,9.1,69.2,16.8,104.2,23.2c34.9,6.5,70.2,11.5,105.3,13
		c8.8,0.3,17.5,0.3,26-0.3c2.1-0.2,4.3-0.3,6.4-0.6c2.1-0.2,4.2-0.5,6.2-0.9c2.1-0.3,4-0.9,6-1.3c1.8-0.6,3.8-1.1,5.3-1.8
		c3.4-1.4,5.5-3.3,6.1-4.7c0.6-1.3,0-4.3-2.1-7.4c-4.1-6.3-11-12-17.8-17.2c-14-10.5-29.6-19.2-45.4-27.5
		C442.3,147.1,426,139.4,409.7,132z"/>
</g>
</svg>
