<?xml version="1.0" encoding="utf-8"?>
<!-- Generator: Adobe Illustrator 22.1.0, SVG Export Plug-In . SVG Version: 6.00 Build 0)  -->
<svg version="1.1" id="Capa_1" xmlns="http://www.w3.org/2000/svg" xmlns:xlink="http://www.w3.org/1999/xlink" x="0px" y="0px"
	 viewBox="0 0 591.8 969.1" style="enable-background:new 0 0 591.8 969.1;" xml:space="preserve">
<style type="text/css">
	.st0{opacity:0.77;}
	.st1{fill:url(#SVGID_1_);}
	.st2{fill:url(#SVGID_2_);}
	.st3{fill:url(#SVGID_3_);}
	.st4{fill:url(#SVGID_4_);}
	.st5{fill:url(#SVGID_5_);}
	.st6{fill:url(#SVGID_6_);}
	.st7{fill:url(#SVGID_7_);}
	.st8{fill:url(#SVGID_8_);}
	.st9{fill:url(#SVGID_9_);}
	.st10{fill:url(#SVGID_10_);}
	.st11{fill:url(#SVGID_11_);}
	.st12{fill:url(#SVGID_12_);}
	.st13{fill:url(#SVGID_13_);}
	.st14{fill:url(#SVGID_14_);}
	.st15{fill:url(#SVGID_15_);}
	.st16{fill:url(#SVGID_16_);}
	.st17{fill:url(#SVGID_17_);}
	.st18{fill:url(#SVGID_18_);}
	.st19{fill:url(#SVGID_19_);}
	.st20{opacity:0.21;fill:#13003A;enable-background:new    ;}
	.st21{fill:url(#SVGID_20_);}
	.st22{fill:url(#SVGID_21_);}
	.st23{fill:url(#SVGID_22_);}
	.st24{fill:url(#SVGID_23_);}
	.st25{fill:url(#SVGID_24_);}
	.st26{opacity:7.000000e-02;fill:#13003A;enable-background:new    ;}
	.st27{fill:url(#SVGID_25_);}
	.st28{fill:url(#SVGID_26_);}
	.st29{fill:#86535E;}
	.st30{fill:url(#SVGID_27_);}
	.st31{fill:url(#SVGID_28_);}
	.st32{fill:url(#SVGID_29_);}
	.st33{fill:url(#SVGID_30_);}
	.st34{fill:url(#SVGID_31_);}
	.st35{fill:url(#SVGID_32_);}
	.st36{fill:url(#SVGID_33_);}
	.st37{fill:url(#SVGID_34_);}
	.st38{fill:url(#SVGID_35_);}
	.st39{fill:url(#SVGID_36_);}
	.st40{fill:#FFFFFF;}
	.st41{opacity:0.15;fill:#0F0038;enable-background:new    ;}
</style>
<g>
	<g class="st0">
		
			<linearGradient id="SVGID_1_" gradientUnits="userSpaceOnUse" x1="-184.7106" y1="-373.3078" x2="-164.7919" y2="-257.2693" gradientTransform="matrix(0.9834 0.1812 0.1812 -0.9834 310.5569 339.4511)">
			<stop  offset="0" style="stop-color:#E9E9EB"/>
			<stop  offset="1" style="stop-color:#BDBEC3"/>
		</linearGradient>
		<path class="st1" d="M63.3,607.6c0,0-29.1,33.4-52.6,48.4s-7.6,58.5,42.8,48.9c0,0,15.4,16.8,33.2,5.7c0,0,24,6.7,29.9-20.6
			s1.5-47,1.5-47s14.2-90.7,25-122.9L119.5,505L63.3,607.6z"/>
		
			<linearGradient id="SVGID_2_" gradientUnits="userSpaceOnUse" x1="-101.4198" y1="-352.5889" x2="-144.0752" y2="-262.8401" gradientTransform="matrix(0.9834 0.1812 0.1812 -0.9834 310.5569 339.4511)">
			<stop  offset="0" style="stop-color:#E9E9EB"/>
			<stop  offset="1" style="stop-color:#BDBEC3"/>
		</linearGradient>
		<path class="st2" d="M143,520.1c0,0-19.3,72.6,10.2,93.3s19.4,75.4-32.8,56c0,0-19.9-9.4-13.9-41.6"/>
		
			<linearGradient id="SVGID_3_" gradientUnits="userSpaceOnUse" x1="-244.1728" y1="-293.1474" x2="-155.2721" y2="-259.2843" gradientTransform="matrix(0.9834 0.1812 0.1812 -0.9834 310.5569 339.4511)">
			<stop  offset="0" style="stop-color:#E9E9EB"/>
			<stop  offset="1" style="stop-color:#BDBEC3"/>
		</linearGradient>
		<path class="st3" d="M85.1,611.7c-10.3,12.1-14.2,28-53.7,22.8c-39.6-5.2-35.8-65,19.2-74.7s68.7-53.3,68.7-53.3"/>
	</g>
	
		<linearGradient id="SVGID_4_" gradientUnits="userSpaceOnUse" x1="-283.5324" y1="-705.3455" x2="-237.3132" y2="-705.3455" gradientTransform="matrix(0.9502 0.3116 0.3116 -0.9502 603.0879 -90.9944)">
		<stop  offset="0" style="stop-color:#E9E9EB"/>
		<stop  offset="1" style="stop-color:#BDBEC3"/>
	</linearGradient>
	<path class="st4" d="M134.6,521.8l-11.8-3.9c-8.9-2.9-13.7-12.5-10.8-21.3l9-27.5l43.9,14.4l-9,27.5
		C153,519.9,143.4,524.7,134.6,521.8z"/>
	
		<linearGradient id="SVGID_5_" gradientUnits="userSpaceOnUse" x1="-290.2221" y1="-686.0436" x2="-228.2334" y2="-686.0436" gradientTransform="matrix(0.9502 0.3116 0.3116 -0.9502 603.0879 -90.9944)">
		<stop  offset="0" style="stop-color:#E9E9EB"/>
		<stop  offset="1" style="stop-color:#BDBEC3"/>
	</linearGradient>
	<path class="st5" d="M151.4,507l-31-10.2c-7.7-2.5-11.9-10.8-9.4-18.5l9.7-29.6l58.9,19.3l-9.7,29.6
		C167.4,505.3,159.1,509.5,151.4,507z"/>
	
		<linearGradient id="SVGID_6_" gradientUnits="userSpaceOnUse" x1="94.0995" y1="628.7942" x2="307.086" y2="628.7942" gradientTransform="matrix(1 0 0 -1 0 969.1664)">
		<stop  offset="0" style="stop-color:#DEE7F9"/>
		<stop  offset="1" style="stop-color:#AFC6ED"/>
	</linearGradient>
	<path class="st6" d="M307.1,193.5l-68.7,4.3c-31.8,2-59.8,21.7-72.4,51L147.5,292l-6.8,15.9l-18.6,39.6c0,0-32.3,1.1-27.5,96.8
		c0,0,23.9,45.1,84.2,42.9S307.1,193.5,307.1,193.5z"/>
	
		<linearGradient id="SVGID_7_" gradientUnits="userSpaceOnUse" x1="140.686" y1="652.7804" x2="198.786" y2="652.7804" gradientTransform="matrix(1 0 0 -1 0 969.1664)">
		<stop  offset="0" style="stop-color:#A10700"/>
		<stop  offset="1" style="stop-color:#721018"/>
	</linearGradient>
	<path class="st7" d="M140.7,307.7l6.8-15.9c0,0,15.8,31.8,51.3,34.7l-8.1,14.5C190.8,341.1,159.6,340.2,140.7,307.7z"/>
	<g>
		<g>
			
				<linearGradient id="SVGID_8_" gradientUnits="userSpaceOnUse" x1="307.161" y1="482.0957" x2="351.5697" y2="482.0957" gradientTransform="matrix(1 0 0 -1 0 969.1664)">
				<stop  offset="0" style="stop-color:#DEE7F9"/>
				<stop  offset="1" style="stop-color:#AFC6ED"/>
			</linearGradient>
			<path class="st8" d="M329.5,500.1c-0.9,0-1.9-0.1-2.8-0.3c-5.5-1.1-10.7-5.7-14.8-13.4c-3.1-5.7-4.6-11-4.7-11.2
				c-0.1-0.5,0.1-1,0.6-1.1s1,0.1,1.1,0.6c0.1,0.2,5.9,20.8,18.1,23.3c6.9,1.4,14.6-3.2,22.9-13.7c0.3-0.4,0.9-0.4,1.2-0.1
				c0.4,0.3,0.4,0.9,0.1,1.2C343.6,495.2,336.3,500.1,329.5,500.1z"/>
		</g>
		<g>
			
				<linearGradient id="SVGID_9_" gradientUnits="userSpaceOnUse" x1="303.4115" y1="499.7724" x2="349.1861" y2="499.7724" gradientTransform="matrix(1 0 0 -1 0 969.1664)">
				<stop  offset="0" style="stop-color:#DEE7F9"/>
				<stop  offset="1" style="stop-color:#AFC6ED"/>
			</linearGradient>
			<path class="st9" d="M320.2,481.1c-9.3,0-16.1-5.2-16.4-5.4c-0.4-0.3-0.5-0.9-0.2-1.2c0.3-0.4,0.9-0.5,1.2-0.2
				c0.1,0.1,9.2,6.9,20.2,4.5c8.6-1.9,16.2-8.8,22.4-20.6c0.2-0.4,0.8-0.6,1.2-0.4c0.4,0.2,0.6,0.8,0.4,1.2
				c-6.5,12.3-14.5,19.5-23.7,21.5C323.6,480.9,321.9,481.1,320.2,481.1z"/>
		</g>
		
			<linearGradient id="SVGID_10_" gradientUnits="userSpaceOnUse" x1="-77.6128" y1="-850.2787" x2="-72.0757" y2="-850.2787" gradientTransform="matrix(0.9347 0.3553 0.3553 -0.9347 721.2689 -312.7028)">
			<stop  offset="0" style="stop-color:#E9E9EB"/>
			<stop  offset="1" style="stop-color:#BDBEC3"/>
		</linearGradient>
		<path class="st10" d="M347.2,460.6L347.2,460.6c-1.4-0.5-2.1-2.1-1.6-3.6l1.9-5.1c0.5-1.4,2.1-2.1,3.6-1.6l0,0
			c1.4,0.5,2.1,2.1,1.6,3.6l-1.9,5.1C350.3,460.4,348.7,461.1,347.2,460.6z"/>
		
			<linearGradient id="SVGID_11_" gradientUnits="userSpaceOnUse" x1="-12.7217" y1="-2144.1067" x2="-7.1845" y2="-2144.1067" gradientTransform="matrix(0.7736 0.6336 0.6336 -0.7736 1719.1995 -1170.3943)">
			<stop  offset="0" style="stop-color:#E9E9EB"/>
			<stop  offset="1" style="stop-color:#BDBEC3"/>
		</linearGradient>
		<path class="st11" d="M349.5,486.2L349.5,486.2c-1.2-1-1.4-2.7-0.4-3.9l3.4-4.2c1-1.2,2.7-1.4,3.9-0.4l0,0c1.2,1,1.4,2.7,0.4,3.9
			l-3.4,4.2C352.4,487,350.7,487.2,349.5,486.2z"/>
	</g>
	<g>
		<g>
			
				<linearGradient id="SVGID_12_" gradientUnits="userSpaceOnUse" x1="7579.623" y1="-1889.0283" x2="7638.7075" y2="-1889.0283" gradientTransform="matrix(-0.7883 -0.6153 0.6153 -0.7883 7221.604 4014.9888)">
				<stop  offset="0" style="stop-color:#DDE6F8"/>
				<stop  offset="1" style="stop-color:#AEC5EC"/>
			</linearGradient>
			<path class="st12" d="M93.1,802.5c0,0,3.9,44.8-44.6,69.9c0,0-9.6-57,6.3-90.4c0,0,23.6-7.1,28.5-2.3
				C88.3,784.5,93.1,802.5,93.1,802.5z"/>
			
				<linearGradient id="SVGID_13_" gradientUnits="userSpaceOnUse" x1="7578.7466" y1="-1832.709" x2="7618.3901" y2="-1832.709" gradientTransform="matrix(-0.7883 -0.6153 0.6153 -0.7883 7221.604 4014.9888)">
				<stop  offset="0" style="stop-color:#D2967B"/>
				<stop  offset="1" style="stop-color:#A46851"/>
			</linearGradient>
			<path class="st13" d="M124.8,789.8l-31.7,12.7c0,0-14.3-7.6-11.8-21.4l28.2-19.5L124.8,789.8z"/>
			<g>
				
					<linearGradient id="SVGID_14_" gradientUnits="userSpaceOnUse" x1="7582.8228" y1="-1889.0393" x2="7634.2979" y2="-1889.0393" gradientTransform="matrix(-0.7883 -0.6153 0.6153 -0.7883 7221.604 4014.9888)">
					<stop  offset="0" style="stop-color:#293681"/>
					<stop  offset="1" style="stop-color:#202A66"/>
				</linearGradient>
				<path class="st14" d="M59.3,866l2.1-1.5c-7.1-43.4,2.8-84.4,2.9-84.8l-2.4,0.5C61.8,780.5,52.1,822.1,59.3,866z"/>
			</g>
		</g>
		<g>
			
				<linearGradient id="SVGID_15_" gradientUnits="userSpaceOnUse" x1="7126.5508" y1="475.6701" x2="7186.4272" y2="475.6701" gradientTransform="matrix(-0.9987 -5.039252e-02 5.039252e-02 -0.9987 7322.1846 1756.7388)">
				<stop  offset="0" style="stop-color:#DDE6F8"/>
				<stop  offset="1" style="stop-color:#AEC5EC"/>
			</linearGradient>
			<path class="st15" d="M213.6,886.9c0,0,29.5,34.4,4.6,82.2c0,0-41.3-41.3-47.9-77.5c0,0,15.2-19.1,22-17.9
				S213.6,886.9,213.6,886.9z"/>
			
				<linearGradient id="SVGID_16_" gradientUnits="userSpaceOnUse" x1="7126.3916" y1="531.4689" x2="7166.1689" y2="531.4689" gradientTransform="matrix(-0.9987 -5.039252e-02 5.039252e-02 -0.9987 7322.1846 1756.7388)">
				<stop  offset="0" style="stop-color:#D2967B"/>
				<stop  offset="1" style="stop-color:#A46851"/>
			</linearGradient>
			<path class="st16" d="M232.1,858.7l-18.5,28.2c0,0-16.2,1.9-22.2-10.9l11.7-31.8L232.1,858.7z"/>
			<g>
				
					<linearGradient id="SVGID_17_" gradientUnits="userSpaceOnUse" x1="7129.5381" y1="475.6866" x2="7182.0884" y2="475.6866" gradientTransform="matrix(-0.9987 -5.039252e-02 5.039252e-02 -0.9987 7322.1846 1756.7388)">
					<stop  offset="0" style="stop-color:#293681"/>
					<stop  offset="1" style="stop-color:#202A66"/>
				</linearGradient>
				<path class="st17" d="M223.2,957.8l0.9-2.4c-31.3-31.6-47.3-70.7-47.5-71l-1.7,1.8C175.1,886.5,191.5,925.9,223.2,957.8z"/>
			</g>
		</g>
		
			<linearGradient id="SVGID_18_" gradientUnits="userSpaceOnUse" x1="97.8089" y1="273.0426" x2="286.0301" y2="273.0426" gradientTransform="matrix(1 0 0 -1 0 969.1664)">
			<stop  offset="0" style="stop-color:#243682"/>
			<stop  offset="1" style="stop-color:#13003A"/>
		</linearGradient>
		<path class="st18" d="M207.9,596.5c0,0,41.5,59.9,14.1,72.8c-27.3,12.9-106.5,48.9-112.1,84.8c0,0-13.2,4.6-12,13.6
			s10.6,38.3,32,24.4c0,0,44.7,16.4,86.7-24.8S353.7,658,207.9,596.5z"/>
		
			<linearGradient id="SVGID_19_" gradientUnits="userSpaceOnUse" x1="174.4627" y1="319.1679" x2="337.1426" y2="319.1679" gradientTransform="matrix(1 0 0 -1 0 969.1664)">
			<stop  offset="0" style="stop-color:#243682"/>
			<stop  offset="1" style="stop-color:#13003A"/>
		</linearGradient>
		<path class="st19" d="M183.7,448c-12,35.3-25.7,115.7,53.6,200.2c5.5,5.9,7.4,14.2,4.9,21.7c-2,6.1-5.9,14.2-12.9,24.9
			c-17.9,27.1-33.3,96.6-23.2,118.8c1.6,3.6,1.6,7.7-0.2,11.2c-3.8,7.5-8.8,19.4-4.2,23.1c6.9,5.5,27,19.7,35.8,9.2
			c6.3-7.4,10-14.6,11.6-18.1c0.7-1.5,1.2-3.4,2.8-3.9c24.6-7.6,31-32.9,56.6-99.8c30.1-78.7,37.7-83.6,17-161
			c-13.4-49.9-11-87.2-11.9-101.7c-0.4-6.4-11.6-3.6-18.2-4.1c-21-1.8-64.7-7.8-90.8-26.7C197.1,436.5,186.6,439.5,183.7,448z"/>
		<path class="st20" d="M274,493.3c-0.3,1.7-1.2,3.3-2.3,4.7c-0.5,0.7-1.2,1.3-1.8,2c-0.6,0.6-1.3,1.2-2,1.7s-1.5,1-2.3,1.4
			s-1.6,0.8-2.4,1.2c-0.8,0.3-1.7,0.6-2.5,0.9l-0.6,0.2l-0.6,0.1l-1.3,0.3c-1.7,0.4-3.5,0.5-5.2,0.7c-0.9,0.1-1.7,0-2.6,0
			s-1.7,0-2.6-0.1c-1.7-0.2-3.4-0.4-5.1-0.8c-1.7-0.4-3.3-0.8-5-1.4c1.7-0.2,3.4-0.3,5.1-0.3c1.7-0.1,3.3-0.3,5-0.3
			c1.6-0.2,3.3-0.3,4.9-0.5l2.4-0.4c0.8-0.1,1.6-0.3,2.4-0.5c1.6-0.3,3.1-0.8,4.6-1.2c0.7-0.3,1.5-0.6,2.2-0.8
			c0.7-0.3,1.4-0.7,2.2-1c0.7-0.4,1.4-0.8,2.1-1.2c0.7-0.5,1.4-0.9,2-1.4C271.8,495.8,273,494.7,274,493.3z"/>
	</g>
	<g>
		
			<linearGradient id="SVGID_20_" gradientUnits="userSpaceOnUse" x1="2548.6599" y1="2804.5449" x2="2557.5198" y2="2804.5449" gradientTransform="matrix(0.7623 -0.6472 -0.6472 -0.7623 437.9118 3819.532)">
			<stop  offset="0" style="stop-color:#DFC19A"/>
			<stop  offset="1" style="stop-color:#CF9B72"/>
		</linearGradient>
		<path class="st21" d="M568.1,30.3c0,0,7.4,2.5,9.1-0.6c1.7-3.1-4-5.3-8.7-7.5C568.6,22.2,563.6,26,568.1,30.3z"/>
		
			<linearGradient id="SVGID_21_" gradientUnits="userSpaceOnUse" x1="560.0597" y1="947.4335" x2="580.3614" y2="947.4335" gradientTransform="matrix(1 0 0 -1 0 969.1664)">
			<stop  offset="0" style="stop-color:#DFC19A"/>
			<stop  offset="1" style="stop-color:#CF9B72"/>
		</linearGradient>
		<path class="st22" d="M566.9,27.9c0,0,10.3-4,16.2-4.7s6.4-7.5-4.7-7.6C567.4,15.5,566.9,27.9,566.9,27.9z"/>
		
			<linearGradient id="SVGID_22_" gradientUnits="userSpaceOnUse" x1="559.7275" y1="953.6181" x2="584.5684" y2="953.6181" gradientTransform="matrix(1 0 0 -1 0 969.1664)">
			<stop  offset="0" style="stop-color:#DFC19A"/>
			<stop  offset="1" style="stop-color:#CF9B72"/>
		</linearGradient>
		<path class="st23" d="M576.4,9.8c0,0,14.6-6.3,15.4-0.7c0.8,5.6-17.5,9.4-23.4,14.4S576.4,9.8,576.4,9.8z"/>
		
			<linearGradient id="SVGID_23_" gradientUnits="userSpaceOnUse" x1="427.986" y1="861.1248" x2="587.6633" y2="861.1248" gradientTransform="matrix(1 0 0 -1 0 969.1664)">
			<stop  offset="0" style="stop-color:#DFC19A"/>
			<stop  offset="1" style="stop-color:#CF9B72"/>
		</linearGradient>
		<path class="st24" d="M428,162.4c0,0,83.9-47.5,116.9-99.8c0,0,7-17.7,6.1-26.9s21.4-29.6,28.5-33.8s10.6-0.7,6.3,3.9
			c-4.3,4.5-25.9,18.6-14.5,38.8c0,0,4.3-7.5,6.8-11.8s6.2-2.8,5.5,2.4c-0.7,5.2-4.9,14.3-4.5,20.2c0.3,5.9-3.2,15-9.5,19
			s-10.1,13-15.4,23c-5.3,10.1-24,57.3-99.3,118.7l-23.3-11.8L428,162.4z"/>
	</g>
	
		<linearGradient id="SVGID_24_" gradientUnits="userSpaceOnUse" x1="186.4863" y1="645.9077" x2="455.7675" y2="645.9077" gradientTransform="matrix(1 0 0 -1 0 969.1664)">
		<stop  offset="0" style="stop-color:#EED85E"/>
		<stop  offset="1" style="stop-color:#E4B542"/>
	</linearGradient>
	<path class="st25" d="M277.7,212.5c0,0-38.4,10.2-67.9,74.3c0,0,10.3,117.2,4.1,121.4c-6.2,4.1-17.4,2.1-17.7,21.6
		c0,0-13,1.4-8.9,11.2c4.1,9.7,28.1,24.5,41.3,35.4c13.3,10.9,84.5,9.2,88.9,0s4.4-14.8,17.4-22.1s6.5-45.2,31.6-90.7
		s33.4-61.1,27.5-98.6c0,0,4.1-22.7,60.8-48.7c0,0,8.9-26.9-26.9-53.7c0,0-17.2,11.8-44.3,17.4C356.6,185.5,336.1,187.8,277.7,212.5
		z"/>
	<path class="st26" d="M215.6,375.1c0.6,17.9,0.4,31.7-1.7,33.1c-6.2,4.1-17.4,2.1-17.7,21.6c0,0-13,1.4-8.9,11.2
		c4.1,9.7,28.1,24.5,41.3,35.4c-5.2-9-2.9-15.1,0.7-18.9c3.4-3.6,9.1-4.1,13.1-1.1c14.8,11,30.5,10.3,30.5,10.3
		c-21.3-7.4-50.5-54.6-18-54.3s77.5-25,77.5-25s-39.4-4.5-44.7-13.4s-23.7-21.9-1.5-47.8c22.2-26,10.6-43.4,10.6-43.4
		c-2.4,13-21.2,33.4-21.2,33.4S213.2,318.3,215.6,375.1z"/>
	
		<linearGradient id="SVGID_25_" gradientUnits="userSpaceOnUse" x1="241.7768" y1="681.6987" x2="348.3997" y2="681.6987" gradientTransform="matrix(1 0 0 -1 0 969.1664)">
		<stop  offset="0" style="stop-color:#DEE7F9"/>
		<stop  offset="1" style="stop-color:#AFC6ED"/>
	</linearGradient>
	<path class="st27" d="M277.7,212.5c0,0-18.3-5.5-30.7,3.7c-12.4,9.2-2.4,13.6,27.2,24.2c29.5,10.6,50.2,50.1,29.8,82.8
		s-62.2,37.7-62.2,37.7l50.3,3.2c0,0,54.2-20.1,56.2-70.6C350.4,243.1,323.3,226.6,277.7,212.5z"/>
	<g>
		
			<linearGradient id="SVGID_26_" gradientUnits="userSpaceOnUse" x1="177.1347" y1="623.8459" x2="407.0231" y2="623.8459" gradientTransform="matrix(1 0 0 -1 0 969.1664)">
			<stop  offset="0" style="stop-color:#DFC19A"/>
			<stop  offset="1" style="stop-color:#CF9B72"/>
		</linearGradient>
		<path class="st28" d="M209.8,286.8c0,0-67.8,95.4-8,112.2c59.8,16.8,127.6-15.5,137.3-12s21.5-8.9,24.4-17.6
			c2.9-8.8,27.3,2.7,30-2s-13.7-9.9-13.7-9.9s9.2-0.4,15.3,1.8s7-1.7,5.9-3.3c0,0,5.3,1.6,6-1.3s-8.6-11-20.5-12.1
			c0,0,8-2.1,13.6-2.5s7.1-7.6-8.2-6.6s-30,3.3-35.1,9.2c-5.1,5.9-23,20.4-35.5,20.2c-11.9-0.2-47.7-7.6-75.6-6.4
			c-1.7,0.1-2.8-1.9-1.7-3.3c6.4-8.5,22.8-29.7,31.8-37.1C275.7,316.1,232.9,324,209.8,286.8z"/>
		<g>
			<path class="st29" d="M400.9,356c-0.9-0.7-1.9-1.3-2.9-1.8c-1-0.6-2-1.1-3-1.5c-2.1-0.9-4.1-1.8-6.3-2.5
				c-1.1-0.3-2.2-0.7-3.3-0.9l-1.6-0.4c-0.6-0.1-1.1-0.2-1.7-0.4c-2.2-0.5-4.5-0.8-6.7-1.1c1.1,0,2.3,0,3.4,0.1
				c1.1,0.1,2.3,0.2,3.4,0.4c2.3,0.3,4.5,0.9,6.7,1.5c2.2,0.7,4.3,1.6,6.3,2.7C397.4,353.2,399.3,354.4,400.9,356z"/>
			<path class="st29" d="M386.4,342.6c-1.9,0.1-3.7,0.1-5.5,0s-3.6-0.3-5.5-0.6c1.8-0.3,3.7-0.4,5.5-0.3
				C382.8,341.8,384.6,342.1,386.4,342.6z"/>
			<path class="st29" d="M379.8,357.6c-1.5-0.1-2.8-0.3-4.2-0.6c-0.7-0.2-1.4-0.3-2-0.5c-0.7-0.2-1.3-0.3-2.1-0.5
				c0.7-0.3,1.4-0.3,2.2-0.2c0.7,0,1.4,0.2,2.1,0.3C377.2,356.4,378.5,356.8,379.8,357.6z"/>
		</g>
		
			<linearGradient id="SVGID_27_" gradientUnits="userSpaceOnUse" x1="320.386" y1="591.2612" x2="333.1445" y2="591.2612" gradientTransform="matrix(1 0 0 -1 0 969.1664)">
			<stop  offset="0" style="stop-color:#243682"/>
			<stop  offset="1" style="stop-color:#13003A"/>
		</linearGradient>
		<path class="st30" d="M320.4,367.5c0,0,4.2,8.8,3.1,21.8c0,0,5.2,1.3,8.9-2.1c0,0,2.5-9.7-2.2-20.9
			C330.3,366.4,326.6,370.1,320.4,367.5z"/>
		
			<linearGradient id="SVGID_28_" gradientUnits="userSpaceOnUse" x1="314.872" y1="606.3293" x2="333.157" y2="606.3293" gradientTransform="matrix(1 0 0 -1 0 969.1664)">
			<stop  offset="0" style="stop-color:#EDF0F5"/>
			<stop  offset="1" style="stop-color:#B9B9BB"/>
		</linearGradient>
		<path class="st31" d="M316.4,357.7c-1.2,0.9-1.7,2.4-1.4,3.8c0.7,3.2,2.6,9,8.1,8.8c7.5-0.3,10.1-3.2,10.1-4.9
			c0-1.8-1.9-9.1-4.7-9.6C326,355.4,320.6,354.6,316.4,357.7z"/>
		
			<linearGradient id="SVGID_29_" gradientUnits="userSpaceOnUse" x1="317.535" y1="606.3433" x2="330.4634" y2="606.3433" gradientTransform="matrix(1 0 0 -1 0 969.1664)">
			<stop  offset="0" style="stop-color:#230C12"/>
			<stop  offset="1" style="stop-color:#0B0006"/>
		</linearGradient>
		<path class="st32" d="M318.6,359.2c-0.8,0.6-1.2,1.7-1,2.7c0.5,2.3,1.9,6.4,5.7,6.2c5.3-0.2,7.1-2.2,7.1-3.5s-1.3-6.5-3.3-6.8
			C325.4,357.6,321.6,357,318.6,359.2z"/>
	</g>
	
		<linearGradient id="SVGID_30_" gradientUnits="userSpaceOnUse" x1="93.7609" y1="573.3332" x2="122.9304" y2="573.3332" gradientTransform="matrix(1 0 0 -1 0 969.1664)">
		<stop  offset="0" style="stop-color:#DEE7F9"/>
		<stop  offset="1" style="stop-color:#AFC6ED"/>
	</linearGradient>
	<path class="st33" d="M122.1,347.4c-4,16.3-8.5,32.4-13.1,48.6c-2.3,8.1-4.6,16.1-7,24.2c-2.4,8-4.8,16.1-7.3,24.1
		c3.7-16.4,8.1-32.6,12.7-48.7c2.3-8.1,4.7-16.1,7.1-24.1C116.8,363.3,119.4,355.3,122.1,347.4z"/>
	
		<linearGradient id="SVGID_31_" gradientUnits="userSpaceOnUse" x1="181.0115" y1="679.3428" x2="233.6582" y2="679.3428" gradientTransform="matrix(0.9994 -3.539833e-02 -3.539833e-02 -0.9994 -42.5048 1098.1069)">
		<stop  offset="0" style="stop-color:#A10700"/>
		<stop  offset="1" style="stop-color:#721018"/>
	</linearGradient>
	<path class="st34" d="M162.9,418.6c-7.2,23.6-22.9,39.6-35.2,35.9c-12.3-3.7-16.4-25.9-9.3-49.4c7.2-23.6,22.9-39.6,35.2-35.9
		C165.9,372.9,170.1,395.1,162.9,418.6z"/>
	
		<linearGradient id="SVGID_32_" gradientUnits="userSpaceOnUse" x1="332.9468" y1="727.5832" x2="406.2536" y2="727.5832" gradientTransform="matrix(1 0 0 -1 0 969.1664)">
		<stop  offset="0" style="stop-color:#DEE7F9"/>
		<stop  offset="1" style="stop-color:#AFC6ED"/>
	</linearGradient>
	<path class="st35" d="M351,186.8c0,0,36.7,15.1,49.9,56.6c14.8,46.4-5.7,53-5.7,53s8.5-48.1-39.6-76.2S351,186.8,351,186.8z"/>
	<g>
		
			<linearGradient id="SVGID_33_" gradientUnits="userSpaceOnUse" x1="277.586" y1="819.1832" x2="385.2738" y2="819.1832" gradientTransform="matrix(1 0 0 -1 0 969.1664)">
			<stop  offset="0" style="stop-color:#DFC19A"/>
			<stop  offset="1" style="stop-color:#CF9B72"/>
		</linearGradient>
		<path class="st36" d="M335.6,61c0,0,16.4,12.1,22.3,20c5.9,8,9.1,17.7,27.2,24.5c0,0,2.3,3.8-9.2,11.2c0,0,8.3,34.8,0.4,40.2
			s-30,20.8-27.5,48.3c0,0,11.2,17.8,8.6,33.8c0,0-40.8-31-79.8-26.5c0,0,17.4-14.5,21-34.4S244.1,91.3,335.6,61z"/>
		
			<linearGradient id="SVGID_34_" gradientUnits="userSpaceOnUse" x1="345.0703" y1="871.7332" x2="352.7564" y2="871.7332" gradientTransform="matrix(1 0 0 -1 0 969.1664)">
			<stop  offset="0" style="stop-color:#240012"/>
			<stop  offset="1" style="stop-color:#0B0000"/>
		</linearGradient>
		<path class="st37" d="M351,96.2c1.8,3.1,2.3,6.1,1.1,6.8s-3.5-1.3-5.3-4.3c-1.8-3.1-2.3-6.1-1.1-6.8S349.3,93.2,351,96.2z"/>
		<g>
			
				<linearGradient id="SVGID_35_" gradientUnits="userSpaceOnUse" x1="334.2645" y1="882.2723" x2="349.7689" y2="882.2723" gradientTransform="matrix(1 0 0 -1 0 969.1664)">
				<stop  offset="0" style="stop-color:#240012"/>
				<stop  offset="1" style="stop-color:#0B0000"/>
			</linearGradient>
			<path class="st38" d="M336.5,94.1c-0.4,0-0.8-0.1-1.2-0.4c-1-0.7-1.3-2-0.6-3.1c5-7.7,11.8-10.6,12.1-10.7
				c1.1-0.5,2.4,0.1,2.9,1.2c0.5,1.1-0.1,2.4-1.2,2.9c-0.1,0-5.8,2.6-10.1,9.1C337.9,93.7,337.2,94.1,336.5,94.1z"/>
		</g>
		
			<linearGradient id="SVGID_36_" gradientUnits="userSpaceOnUse" x1="207.386" y1="864.5332" x2="383.7487" y2="864.5332" gradientTransform="matrix(1 0 0 -1 0 969.1664)">
			<stop  offset="0" style="stop-color:#243682"/>
			<stop  offset="1" style="stop-color:#13003A"/>
		</linearGradient>
		<path class="st39" d="M301.9,95.9c3.2,16.2,27.2,24.5,28.6,30.6c1.5,6.1-3.7,9.9-14,3.8s-22.9,2.5-14.6,12.7
			c8.3,10.2,18.9,11.4,19.5,12.1c17.4,21.8-30.3,30.7-30.3,30.7c3.1-1.6,4-4,4-4c-0.6,1.6-3.4,2.1-3.4,2.1c1.5-1,1.6-15.5-10.2-17.4
			s-18.3-7.4-18.3-7.4c0.9,2.4,3.7,4.3,3.7,4.3c-18.5-2.2-20.1-15.1-20.1-15.1c-1,5.9,0.9,12,0.9,12c-18.5-6.5-20.4-26-20.4-26
			c-0.6,3-0.4,10.3-0.4,10.3c-7.2-9.7-5-19.3-5-19.3c-4.4,3.7-14.5,2.8-14.5,2.8c23.8-10.3,11.5-24.1,22.9-46.8s33.5-33.4,33.5-33.4
			c-5.9,1.8-14.3-0.6-14.3-0.6s5.2,1.6,30.4-13c25.2-14.6,40.3,3.2,40.3,3.2c0.6-9.6-7.2-14-7.2-14c16.4,2.1,19.6,17,19.6,17
			c-1.5-10.9,6.8-14.3,6.8-14.3c-3.7,13.3,3.7,8,9.5,17.6s-4.6,14.6-4.6,14.6C339.3,85.2,298.7,79.6,301.9,95.9z M328.4,133.5
			c-1.3,0.6-2,2.1-1.4,3.5c1.2,3,2.7,7.7,1.4,11c-2.1,5.2-0.3,10.9,1.5,13.3c1.8,2.4,8.1,9.3,11.2,11.5c3.1,2.2,12,4.6,17.4,3.1
			s13.9-11.5,13.9-10.3s5.6-2.2,7.4-5.9c1.8-3.7,5.2-8.9,3.5-17.6c-1.6-8.7-0.4-29.2-17.6-18.6c-13.2,8.2-26,5.8-31.1,4.2
			c-1.1-0.3-2.2,0.4-2.4,1.5C331.8,130.7,330.9,132.5,328.4,133.5z"/>
		<path class="st40" d="M358.7,132c3.2,1.2,11.3,3.8,14.1,0.7c0,0,2.8,8-2.2,9.5c-4.4,1.3-10.2-5.9-12.5-9.5
			C357.9,132.3,358.3,131.8,358.7,132z"/>
		<path class="st41" d="M319.7,141.2c-0.7-0.4-1.5-0.7-2.3-0.9c-1.5-0.5-3.2-0.5-4.3-1.2c-0.6-0.3-0.9-0.7-0.9-1.3s0.3-1.3,0.6-1.8
			l0.4-0.7l-0.7-0.2c-0.8-0.3-1.7-0.6-2.7-0.6c-0.9,0-1.8,0.2-2.6,0.7c-0.8,0.4-1.4,1.1-1.9,1.8s-0.9,1.5-1.2,2.3
			c0.9-1.4,2-2.7,3.5-3.4c0.7-0.3,1.5-0.5,2.2-0.4c0.5,0,1,0.2,1.6,0.4c-0.3,0.6-0.5,1.1-0.5,1.9c-0.1,1,0.7,2,1.5,2.4
			s1.7,0.6,2.4,0.7l2.3,0.4c0.7,0.2,1.5,0.3,2.1,0.6c0.7,0.3,1.1,0.7,1.2,1.3c-0.1,1.3-1.2,2.7-2.1,3.9c0.6-0.5,1.2-1,1.7-1.6
			s1-1.3,1.1-2.2c0-0.5-0.1-1-0.4-1.4C320.5,141.7,320.1,141.4,319.7,141.2z"/>
	</g>
</g>
</svg>
