<?xml version="1.0" encoding="utf-8"?>
<!-- Generator: Adobe Illustrator 22.1.0, SVG Export Plug-In . SVG Version: 6.00 Build 0)  -->
<svg version="1.1" id="Capa_1" xmlns="http://www.w3.org/2000/svg" xmlns:xlink="http://www.w3.org/1999/xlink" x="0px" y="0px"
	 viewBox="0 0 2287.5 1027" style="enable-background:new 0 0 2287.5 1027;" xml:space="preserve">
<style type="text/css">
	.st0{fill:#0077F1;}
	.st1{enable-background:new    ;}
	.st2{fill:#FFFFFF;}
</style>
<title>Group 8</title>
<desc>Created with Sketch.</desc>
<path id="Shape" class="st0" d="M2178.8,917.4c-31-120.2-99.1-149.5-247.7-205.8c-148.6-56.4-94-211.4-218.6-344
	c-60.4-64.2-160.6-46.1-160.6-174.9c0-162.1-132.4-93.6-193.8-166c-18.2-21.5-45-33.9-73.3-33.9h-60.2H-4.8
	c0,0,53.9,80.4,222.4,138.1s152.5,202.7,183.5,322.9s99.1,149.5,247.7,205.8c148.6,56.4,94,211.4,218.6,344
	c9.7,10.3,20.4,18.5,31.6,25.5h1301.1C2193.1,991.6,2188.1,953.4,2178.8,917.4z"/>
<g class="st1">
	<path class="st2" d="M1514.7,468.9V349.4h27.6v95.3h57.9v24.2H1514.7z"/>
	<path class="st2" d="M1654.2,470.6c-7.5,0-14.2-1.2-20.1-3.7s-10.9-5.8-14.9-10c-4-4.2-7.1-9.1-9.2-14.6
		c-2.1-5.6-3.1-11.4-3.1-17.4s1-11.9,3.1-17.4c2.1-5.6,5.1-10.4,9.2-14.6c4-4.2,9-7.6,14.9-10.1s12.6-3.8,20.1-3.8
		c7.5,0,14.2,1.3,20,3.8c5.8,2.5,10.8,5.9,14.8,10.1c4,4.2,7.1,9.1,9.3,14.6c2.1,5.6,3.2,11.4,3.2,17.4s-1,11.9-3.1,17.4
		c-2.1,5.6-5.1,10.4-9.2,14.6c-4,4.2-9,7.5-14.9,10S1661.7,470.6,1654.2,470.6z M1634.5,424.8c0,7,1.9,12.5,5.6,16.7
		c3.7,4.2,8.4,6.3,14.1,6.3c2.8,0,5.4-0.6,7.7-1.7c2.4-1.1,4.4-2.7,6.1-4.7c1.7-2,3.1-4.5,4.1-7.3s1.5-6,1.5-9.3
		c0-7-1.9-12.5-5.6-16.7c-3.7-4.2-8.4-6.3-14-6.3c-2.8,0-5.4,0.6-7.8,1.7c-2.4,1.1-4.5,2.7-6.2,4.7c-1.7,2-3.1,4.5-4.1,7.3
		C1635,418.4,1634.5,421.5,1634.5,424.8z"/>
</g>
<g class="st1">
	<path d="M1805.5,470.6c-5.6,0-10.7-1.2-15.4-3.5c-4.7-2.4-8.7-5.6-12-9.8c-3.4-4.2-6-9-7.9-14.6c-1.9-5.6-2.9-11.7-2.9-18.2
		c0-6.4,1-12.4,3.1-17.9c2.1-5.6,4.9-10.4,8.6-14.5c3.6-4.1,8-7.3,13-9.7c5-2.4,10.5-3.5,16.4-3.5c6.7,0,12.5,1.5,17.4,4.4
		c4.9,2.9,8.9,6.8,12.2,11.8v-14.5h23.4v92.6c0,2.7,0.5,4.6,1.5,5.6c1,1.1,2.8,1.7,5.4,1.8v22.9c-2.4,0.4-4.9,0.8-7.6,1
		c-2.7,0.2-5.1,0.3-7.2,0.3c-2.6,0-5-0.4-7.3-1.3c-2.3-0.8-4.3-2-6.1-3.5c-1.7-1.5-3.1-3.3-4.1-5.5c-1-2.1-1.5-4.5-1.5-7.1v-32.8
		C1828.4,465.3,1818.8,470.6,1805.5,470.6z M1815.8,447.9c3.9,0,7.5-1.1,10.6-3.3c3.1-2.2,5.8-5.1,8.1-8.7v-18.7
		c-0.7-2.1-1.7-4.1-3-6.1c-1.3-1.9-2.9-3.6-4.7-5c-1.8-1.4-3.7-2.5-5.7-3.3c-2-0.8-4-1.2-6.1-1.2c-2.9,0-5.6,0.6-8.1,1.9
		c-2.5,1.3-4.6,3-6.4,5.1c-1.8,2.1-3.2,4.6-4.2,7.4c-1,2.8-1.5,5.8-1.5,8.9c0,6.6,1.9,12.1,5.8,16.3
		C1804.4,445.8,1809.5,447.9,1815.8,447.9z"/>
	<path d="M1911.4,470.6c-9.1,0-16-2.8-20.6-8.5c-4.7-5.7-7-14-7-25v-56.5h26.9v50.7c0,5.4,1.1,9.5,3.2,12.4c2.1,2.9,5.2,4.3,9.1,4.3
		c3.6,0,7.1-1,10.4-2.9c3.4-1.9,6.3-5.2,8.9-9.9v-54.5h26.9v58.1c0,2.7,0.4,4.6,1.3,5.6c0.8,1.1,2.3,1.7,4.5,1.9v22.7
		c-2.6,0.6-4.8,0.9-6.6,1.1c-1.8,0.2-3.4,0.3-4.9,0.3c-9.7,0-15.1-3.8-16.5-11.3l-0.5-5.4c-4,5.8-9.1,10.1-15.1,12.9
		C1925.5,469.2,1918.8,470.6,1911.4,470.6z"/>
	<path d="M2037.1,470.6c-7.4,0-14.1-1.2-19.9-3.6s-10.9-5.7-15-9.8c-4.1-4.1-7.2-8.9-9.3-14.4c-2.1-5.4-3.2-11.1-3.2-17.1
		c0-6.4,1.1-12.4,3.2-18.1c2.1-5.7,5.2-10.6,9.3-14.9c4-4.3,9-7.6,14.9-10.1c5.9-2.5,12.6-3.7,20.1-3.7c7.5,0,14.2,1.2,20,3.7
		c5.8,2.5,10.8,5.8,14.8,10c4,4.2,7.1,9.1,9.2,14.6c2.1,5.5,3.1,11.3,3.1,17.3c0,1.6-0.1,3.1-0.2,4.6c-0.1,1.5-0.3,2.8-0.5,4h-65.3
		c0.4,5.9,2.6,10.5,6.5,13.5c3.9,3.1,8.3,4.6,13.2,4.6c3.9,0,7.7-1,11.4-2.9c3.6-1.9,6.1-4.5,7.3-7.7l22.9,6.4
		c-3.5,7-8.9,12.6-16.2,17C2056.1,468.4,2047.3,470.6,2037.1,470.6z M2055.8,416.4c-0.6-5.6-2.6-10-6.1-13.3
		c-3.5-3.3-7.8-4.9-13-4.9c-5.3,0-9.6,1.7-13,5c-3.4,3.3-5.4,7.7-6,13.2H2055.8z"/>
</g>
<g class="st1">
	<path class="st2" d="M1599.2,616.8h-26.9v-49.6c0-5.7-1.1-9.9-3.4-12.6c-2.2-2.7-5.3-4-9.3-4c-1.6,0-3.3,0.4-5.1,1.1
		c-1.9,0.7-3.6,1.8-5.4,3.2c-1.7,1.4-3.3,3.1-4.8,5c-1.5,1.9-2.6,4-3.4,6.4v50.7H1514V494h26.9v49.3c3.3-5.3,7.5-9.3,12.9-12.2
		c5.3-2.9,11.2-4.3,17.6-4.3c5.9,0,10.7,1,14.4,3.1c3.6,2.1,6.5,4.7,8.4,7.9c2,3.2,3.3,6.8,4,10.8c0.7,4,1,7.9,1,11.7V616.8z"/>
	<path class="st2" d="M1646.8,618.5c-4.4,0-8.4-0.7-12.2-2.1c-3.8-1.4-7-3.4-9.7-5.9c-2.7-2.5-4.8-5.5-6.4-8.9
		c-1.6-3.4-2.4-7.2-2.4-11.2c0-4.4,0.9-8.4,2.8-11.9c1.9-3.6,4.5-6.7,7.8-9.3c3.4-2.6,7.3-4.6,11.9-6.1c4.6-1.5,9.7-2.2,15.3-2.2
		c3.7,0,7.3,0.3,10.8,0.9c3.5,0.6,6.5,1.5,9.1,2.8v-4c0-10.2-5.9-15.3-17.7-15.3c-4.8,0-9.4,0.8-13.8,2.4c-4.4,1.6-9,4.1-13.8,7.3
		l-7.9-16.8c5.8-3.8,11.9-6.7,18.2-8.6c6.3-1.9,13-2.9,20-2.9c13.4,0,23.7,3.1,31,9.4c7.3,6.3,10.9,15.5,10.9,27.6v22.7
		c0,2.7,0.4,4.6,1.3,5.6c0.8,1.1,2.3,1.7,4.5,1.9v22.7c-2.4,0.6-4.5,0.9-6.4,1.1c-1.9,0.2-3.6,0.3-5.2,0.3c-5,0-8.9-1-11.4-2.9
		c-2.6-2-4.2-4.7-4.9-8.3l-0.5-4c-3.9,5-8.6,8.9-14.1,11.6C1658.6,617.2,1652.8,618.5,1646.8,618.5z M1654.7,599.2
		c2.9,0,5.7-0.5,8.5-1.5c2.7-1,5-2.4,6.8-4c2.6-2,3.9-4.1,3.9-6.4v-8.4c-2.4-0.9-4.9-1.6-7.7-2.1c-2.8-0.5-5.3-0.8-7.7-0.8
		c-4.9,0-9,1.1-12.2,3.4c-3.2,2.2-4.8,5.2-4.8,8.8c0,3.3,1.2,5.9,3.7,8C1647.7,598.1,1650.9,599.2,1654.7,599.2z"/>
	<path class="st2" d="M1719.8,572.6c0-6.1,1.1-11.9,3.2-17.4c2.1-5.6,5.2-10.4,9.3-14.6c4-4.2,9-7.5,14.9-10
		c5.9-2.5,12.6-3.7,20.1-3.7c10.2,0,18.8,2.2,25.7,6.5c7,4.3,12.2,10,15.7,16.9l-26.3,7.9c-3.5-5.6-8.6-8.4-15.3-8.4
		c-5.6,0-10.3,2.1-14.1,6.2c-3.8,4.2-5.6,9.7-5.6,16.7c0,3.5,0.5,6.6,1.5,9.5s2.4,5.3,4.2,7.3c1.8,2,3.9,3.6,6.3,4.7
		c2.4,1.1,5,1.7,7.7,1.7c3.4,0,6.5-0.8,9.3-2.4c2.8-1.6,4.9-3.7,6.2-6.3l26.3,8.1c-3.3,6.8-8.4,12.5-15.6,16.8
		c-7.1,4.4-15.8,6.6-26,6.6c-7.4,0-14.1-1.3-19.9-3.8s-10.9-5.9-15-10.1c-4.1-4.2-7.2-9.1-9.3-14.6
		C1720.9,584.4,1719.8,578.6,1719.8,572.6z"/>
</g>
<g class="st1">
	<path d="M1867.4,618.5c-7.4,0-14.1-1.2-19.9-3.6s-10.9-5.7-15-9.8c-4.1-4.1-7.2-8.9-9.3-14.4c-2.1-5.4-3.2-11.1-3.2-17.1
		c0-6.4,1.1-12.4,3.2-18.1c2.1-5.7,5.2-10.6,9.3-14.9c4-4.3,9-7.6,14.9-10.1c5.9-2.5,12.6-3.7,20.1-3.7c7.5,0,14.2,1.2,20,3.7
		c5.8,2.5,10.8,5.8,14.8,10c4,4.2,7.1,9.1,9.2,14.6c2.1,5.5,3.1,11.3,3.1,17.3c0,1.6-0.1,3.1-0.2,4.6c-0.1,1.5-0.3,2.8-0.5,4h-65.3
		c0.4,5.9,2.6,10.5,6.5,13.5c3.9,3.1,8.3,4.6,13.2,4.6c3.9,0,7.7-1,11.4-2.9c3.6-1.9,6.1-4.5,7.3-7.7l22.9,6.4
		c-3.5,7-8.9,12.6-16.2,17C1886.3,616.3,1877.6,618.5,1867.4,618.5z M1886.1,564.3c-0.6-5.6-2.6-10-6.1-13.3
		c-3.5-3.3-7.8-4.9-13-4.9c-5.3,0-9.6,1.7-13,5c-3.4,3.3-5.4,7.7-6,13.2H1886.1z"/>
	<path d="M2071.2,616.8h-26.9v-49.6c0-5.8-1.1-10.1-3.2-12.7c-2.1-2.6-4.9-4-8.2-4c-1.8,0-3.6,0.4-5.5,1.2c-1.9,0.8-3.6,1.9-5.1,3.3
		c-1.6,1.4-3,3.1-4.3,5c-1.3,1.9-2.3,4-3.1,6.2v50.7h-26.9v-49.6c0-5.8-1.1-10.1-3.2-12.7c-2.1-2.6-4.9-4-8.2-4
		c-3.6,0-7.1,1.4-10.5,4.3c-3.4,2.9-5.9,6.6-7.5,11.4v50.7h-26.9v-88.4h24.2v14.8c3.3-5.4,7.7-9.5,13.2-12.3
		c5.6-2.8,12-4.2,19.4-4.2c3.7,0,6.9,0.4,9.7,1.3c2.7,0.9,5.1,2.1,7.2,3.7c2,1.6,3.6,3.4,4.9,5.5c1.2,2.1,2.1,4.3,2.7,6.6
		c3.4-5.5,7.8-9.7,13.3-12.7c5.5-3,11.8-4.5,18.8-4.5c5.6,0,10.1,1,13.5,3.1c3.4,2.1,6.1,4.8,8,8.1c1.9,3.3,3.2,6.9,3.8,10.9
		c0.6,3.9,0.9,7.7,0.9,11.4V616.8z"/>
	<path d="M2135.6,618.5c-7.5,0-14.2-1.2-20.1-3.7s-10.9-5.8-14.9-10c-4-4.2-7.1-9.1-9.2-14.6c-2.1-5.6-3.1-11.4-3.1-17.4
		s1-11.9,3.1-17.4c2.1-5.6,5.1-10.4,9.2-14.6c4-4.2,9-7.6,14.9-10.1s12.6-3.8,20.1-3.8c7.5,0,14.2,1.3,20,3.8
		c5.8,2.5,10.8,5.9,14.8,10.1c4,4.2,7.1,9.1,9.3,14.6c2.1,5.6,3.2,11.4,3.2,17.4s-1,11.9-3.1,17.4c-2.1,5.6-5.1,10.4-9.2,14.6
		c-4,4.2-9,7.5-14.9,10S2143.2,618.5,2135.6,618.5z M2116,572.7c0,7,1.9,12.5,5.6,16.7c3.7,4.2,8.4,6.3,14.1,6.3
		c2.8,0,5.4-0.6,7.7-1.7c2.4-1.1,4.4-2.7,6.1-4.7c1.7-2,3.1-4.5,4.1-7.3s1.5-6,1.5-9.3c0-7-1.9-12.5-5.6-16.7
		c-3.7-4.2-8.4-6.3-14-6.3c-2.8,0-5.4,0.6-7.8,1.7c-2.4,1.1-4.5,2.7-6.2,4.7c-1.7,2-3.1,4.5-4.1,7.3
		C2116.5,566.3,2116,569.4,2116,572.7z"/>
	<path d="M2235.8,618.5c-7.5,0-14.9-1.2-22.2-3.6c-7.3-2.4-13.5-5.9-18.5-10.5l9.6-16.5c5.4,3.7,10.6,6.6,15.7,8.6
		c5.1,2,10,3,14.7,3c3.5,0,6.2-0.6,8.1-1.9c1.9-1.2,2.9-3,2.9-5.4c0-2.4-1.2-4.2-3.6-5.6c-2.4-1.4-6.6-2.9-12.7-4.5
		c-5.9-1.7-11-3.3-15.1-4.9c-4.1-1.6-7.4-3.3-10-5.2c-2.6-1.9-4.4-4.1-5.6-6.6c-1.1-2.5-1.7-5.4-1.7-8.8c0-4.5,0.9-8.6,2.7-12.3
		c1.8-3.7,4.3-6.8,7.4-9.4c3.1-2.6,6.9-4.6,11.2-6.1c4.3-1.5,9-2.2,14.1-2.2c6.6,0,12.8,0.9,18.6,2.7c5.8,1.8,11.4,5,16.7,9.8
		l-10.4,16.2c-5-3.5-9.5-6-13.5-7.6c-3.9-1.6-7.7-2.4-11.4-2.4c-2.9,0-5.4,0.6-7.4,1.8c-2,1.2-3,3.1-3,5.6c0,2.5,1.1,4.3,3.3,5.6
		c2.2,1.2,6.3,2.6,12.2,4c6.3,1.7,11.6,3.4,15.9,5c4.3,1.7,7.8,3.6,10.5,5.6c2.7,2.1,4.7,4.5,5.9,7.2c1.2,2.7,1.9,5.9,1.9,9.6
		c0,8.8-3.3,15.7-9.8,20.9C2255.7,615.9,2246.9,618.5,2235.8,618.5z"/>
</g>
</svg>
