<?xml version="1.0" encoding="utf-8"?>
<!-- Generator: Adobe Illustrator 22.1.0, SVG Export Plug-In . SVG Version: 6.00 Build 0)  -->
<svg version="1.1" id="Capa_1" xmlns="http://www.w3.org/2000/svg" xmlns:xlink="http://www.w3.org/1999/xlink" x="0px" y="0px"
	 viewBox="0 0 2206 1043.3" style="enable-background:new 0 0 2206 1043.3;" xml:space="preserve">
<style type="text/css">
	.st0{fill:#4376EC;}
</style>
<path class="st0" d="M2184.6,930.8c-31-121-99.2-150.5-247.9-207.2s-94-212.9-218.7-346.3c-60.4-64.6-160.7-46.4-160.7-176.1
	c0-163.2-132.4-94.2-193.9-167.1c-18.2-21.6-45-34.1-73.3-34.1h-60.2l0,0H0c0,0,53.9,81,222.5,139c168.6,58.1,152.6,204,183.6,325.1
	c31,121,99.2,150.5,247.9,207.2s94,212.9,218.7,346.3c9.7,10.4,20.4,18.6,31.6,25.7H2206C2198.9,1005.6,2193.8,967.1,2184.6,930.8z"
	/>
</svg>
