<?xml version="1.0" encoding="utf-8"?>
<!-- Generator: Adobe Illustrator 22.1.0, SVG Export Plug-In . SVG Version: 6.00 Build 0)  -->
<svg version="1.1" id="Capa_1" xmlns="http://www.w3.org/2000/svg" xmlns:xlink="http://www.w3.org/1999/xlink" x="0px" y="0px"
	 viewBox="0 0 832.8 607.6" style="enable-background:new 0 0 832.8 607.6;" xml:space="preserve">
<style type="text/css">
	.st0{fill:#F0F0F3;}
	.st1{fill:url(#SVGID_1_);}
	.st2{fill:url(#SVGID_2_);}
	.st3{fill:url(#SVGID_3_);}
	.st4{fill:url(#SVGID_4_);}
	.st5{fill:url(#SVGID_5_);}
	.st6{fill:url(#SVGID_6_);}
	.st7{fill:url(#SVGID_7_);}
	.st8{fill:url(#SVGID_8_);}
	.st9{fill:url(#SVGID_9_);}
	.st10{fill:url(#SVGID_10_);}
</style>
<g>
	<path class="st0" d="M709.3,521.1c8.9-22.5,26.6-40.3,49.1-49.2c26.5-10.6,52.5-9.6,74.4-0.7V17.6c0-9.7-7.9-17.6-17.6-17.6H0
		c71.6,32.9,103,84.9,120.7,143.2h300.7v38.3h-291c0.8,3.6,1.5,7.2,2.2,10.8H334v38.3H139.6c0.6,3.6,1.2,7.2,1.8,10.8h106.9v38.4
		h-100c2.2,11.6,4.7,23,7.6,34.2c31,121,99.2,150.5,247.9,207.2c50,19.1,77,49.4,95.6,86.4h215.5C700.4,583.4,696.7,553,709.3,521.1
		z M174.5,62.3h-54.1V44.2h54.1V62.3z M248.3,62.3h-54.1V44.2h54.1V62.3z M322,62.3h-54.1V44.2H322V62.3z M408.7,348v-38.3h127.9
		V348H408.7z M517.9,481.1l7.1-35l30.4,22.8L517.9,481.1z M635.8,62.3h-71.1V44.2h71.1V62.3z"/>
	<g>
		
			<linearGradient id="SVGID_1_" gradientUnits="userSpaceOnUse" x1="701.5345" y1="71.6754" x2="832.6" y2="71.6754" gradientTransform="matrix(1 0 0 -1 0 607.6)">
			<stop  offset="0" style="stop-color:#DEE7F9"/>
			<stop  offset="1" style="stop-color:#AFC6ED"/>
		</linearGradient>
		<path class="st1" d="M758.3,471.9c-22.4,8.9-40.2,26.8-49.1,49.2c-12.6,31.9-8.9,62.3,5.5,86.5h103.1c1,0,2-0.1,3-0.3
			c4.6-1.2,9.2-5.2,11-9.7l0,0c0.1-0.2,0.1-0.4,0.2-0.5c0.3-0.9,0.4-1.8,0.5-2.7c0-0.1,0-0.3,0-0.4l0.1-122.6v-0.1
			C810.8,462.3,784.9,461.3,758.3,471.9z"/>
		
			<linearGradient id="SVGID_2_" gradientUnits="userSpaceOnUse" x1="120.4" y1="554.35" x2="174.5" y2="554.35" gradientTransform="matrix(1 0 0 -1 0 607.6)">
			<stop  offset="0" style="stop-color:#243682"/>
			<stop  offset="1" style="stop-color:#13003A"/>
		</linearGradient>
		<rect x="120.4" y="44.2" class="st2" width="54.1" height="18.1"/>
		
			<linearGradient id="SVGID_3_" gradientUnits="userSpaceOnUse" x1="120.379" y1="445.25" x2="421.079" y2="445.25" gradientTransform="matrix(1 0 0 -1 0 607.6)">
			<stop  offset="0" style="stop-color:#243682"/>
			<stop  offset="1" style="stop-color:#13003A"/>
		</linearGradient>
		<path class="st3" d="M421.4,143.2H120.7c3.8,12.5,7,25.4,9.7,38.3h291V143.2z"/>
		
			<linearGradient id="SVGID_4_" gradientUnits="userSpaceOnUse" x1="120.379" y1="396.15" x2="334.0791" y2="396.15" gradientTransform="matrix(1 0 0 -1 0 607.6)">
			<stop  offset="0" style="stop-color:#243682"/>
			<stop  offset="1" style="stop-color:#13003A"/>
		</linearGradient>
		<path class="st4" d="M334.1,192.3H132.6c2.5,12.7,4.7,25.5,6.9,38.3H334v-38.3H334.1z"/>
		
			<linearGradient id="SVGID_5_" gradientUnits="userSpaceOnUse" x1="120.379" y1="347.05" x2="248.2736" y2="347.05" gradientTransform="matrix(1 0 0 -1 0 607.6)">
			<stop  offset="0" style="stop-color:#243682"/>
			<stop  offset="1" style="stop-color:#13003A"/>
		</linearGradient>
		<path class="st5" d="M248.3,241.4H141.4c2.2,12.9,4.4,25.7,6.8,38.3h100v-38.3H248.3z"/>
		
			<linearGradient id="SVGID_6_" gradientUnits="userSpaceOnUse" x1="194.2" y1="554.35" x2="248.3" y2="554.35" gradientTransform="matrix(1 0 0 -1 0 607.6)">
			<stop  offset="0" style="stop-color:#243682"/>
			<stop  offset="1" style="stop-color:#13003A"/>
		</linearGradient>
		<rect x="194.2" y="44.2" class="st6" width="54.1" height="18.1"/>
		
			<linearGradient id="SVGID_7_" gradientUnits="userSpaceOnUse" x1="267.9" y1="554.35" x2="322" y2="554.35" gradientTransform="matrix(1 0 0 -1 0 607.6)">
			<stop  offset="0" style="stop-color:#243682"/>
			<stop  offset="1" style="stop-color:#13003A"/>
		</linearGradient>
		<rect x="267.9" y="44.2" class="st7" width="54.1" height="18.1"/>
		
			<linearGradient id="SVGID_8_" gradientUnits="userSpaceOnUse" x1="564.7" y1="554.35" x2="635.8" y2="554.35" gradientTransform="matrix(1 0 0 -1 0 607.6)">
			<stop  offset="0" style="stop-color:#78A5FB"/>
			<stop  offset="1" style="stop-color:#6E98FB"/>
		</linearGradient>
		<rect x="564.7" y="44.2" class="st8" width="71.1" height="18.1"/>
		
			<linearGradient id="SVGID_9_" gradientUnits="userSpaceOnUse" x1="408.7" y1="278.75" x2="536.6" y2="278.75" gradientTransform="matrix(1 0 0 -1 0 607.6)">
			<stop  offset="0" style="stop-color:#78A5FB"/>
			<stop  offset="1" style="stop-color:#6E98FB"/>
		</linearGradient>
		<rect x="408.7" y="309.7" class="st9" width="127.9" height="38.3"/>
		
			<linearGradient id="SVGID_10_" gradientUnits="userSpaceOnUse" x1="517.8619" y1="144" x2="555.3619" y2="144" gradientTransform="matrix(1 0 0 -1 0 607.6)">
			<stop  offset="0" style="stop-color:#DEE7F9"/>
			<stop  offset="1" style="stop-color:#AFC6ED"/>
		</linearGradient>
		<polygon class="st10" points="517.9,481.1 555.4,468.9 525,446.1 		"/>
	</g>
</g>
</svg>
