<?xml version="1.0" encoding="utf-8"?>
<!-- Generator: Adobe Illustrator 22.1.0, SVG Export Plug-In . SVG Version: 6.00 Build 0)  -->
<svg version="1.1" id="Capa_1" xmlns="http://www.w3.org/2000/svg" xmlns:xlink="http://www.w3.org/1999/xlink" x="0px" y="0px"
	 viewBox="0 0 318.1 370.4" style="enable-background:new 0 0 318.1 370.4;" xml:space="preserve">
<style type="text/css">
	.st0{fill:url(#SVGID_1_);}
	.st1{fill:url(#SVGID_2_);}
	.st2{fill:url(#SVGID_3_);}
	.st3{fill:url(#SVGID_4_);}
	.st4{fill:#98D3FC;}
	.st5{fill:#EEE8DE;}
	.st6{fill:#0F0038;}
	.st7{fill:#DA0D26;}
	.st8{fill:#EEC830;}
	.st9{fill:#65B380;}
	.st10{fill:#4400E8;}
	.st11{fill:#DD4C6F;}
	.st12{fill:#7567F4;}
	.st13{fill:#FFFFFF;}
	.st14{fill:url(#SVGID_5_);}
	.st15{fill:#3A66E0;}
	.st16{fill:url(#SVGID_6_);}
	.st17{fill:url(#SVGID_7_);}
	.st18{opacity:0.15;fill:#0F0038;enable-background:new    ;}
	.st19{fill:url(#SVGID_8_);}
	.st20{fill:url(#SVGID_9_);}
	.st21{fill:url(#SVGID_10_);}
	.st22{opacity:0.2;fill:#0F0038;enable-background:new    ;}
	.st23{fill:none;stroke:#EEC830;stroke-width:0.9805;stroke-miterlimit:10;}
	.st24{fill:url(#SVGID_11_);}
	.st25{fill:#95535F;}
	.st26{fill:url(#SVGID_12_);}
	.st27{fill:url(#SVGID_13_);}
	.st28{fill:url(#SVGID_14_);}
	.st29{fill:url(#SVGID_15_);}
	.st30{fill:none;stroke:#69B3F0;stroke-width:0.9805;stroke-miterlimit:10;}
	.st31{fill:#2B4C8C;}
	.st32{fill:url(#SVGID_16_);}
	.st33{fill:url(#SVGID_17_);}
	.st34{fill:url(#SVGID_18_);}
	.st35{fill:url(#SVGID_19_);}
	.st36{opacity:8.000000e-02;fill:#0F0038;enable-background:new    ;}
</style>
<g>
	<g>
		<g>
			
				<linearGradient id="SVGID_1_" gradientUnits="userSpaceOnUse" x1="4.5044" y1="217.4164" x2="55.0443" y2="237.3547" gradientTransform="matrix(1 0 0 -1 0 370.305)">
				<stop  offset="0" style="stop-color:#E9EAEC"/>
				<stop  offset="1" style="stop-color:#BEBFC5"/>
			</linearGradient>
			<path class="st0" d="M50.3,197.8c-1.6,0-3.2-0.1-4.9-0.2c-9.8-0.9-19.9-7.2-27.7-17.3c-9.1-11.9-13.2-26.4-10.9-38.8
				c4.4-24.1,1.6-35.3-6.7-52C-0.2,89,0,88.4,0.6,88.1l0,0c0.5-0.3,1.1,0,1.4,0.5c8.5,17.1,11.3,28.6,6.9,53.3
				c-2.1,11.8,1.8,25.7,10.5,37.2c7.4,9.7,17,15.7,26.2,16.5c17.8,1.6,26.9-6.1,29.2-8.4c0.4-0.4,1-0.4,1.4-0.1l0,0
				c0.5,0.4,0.5,1.1,0.1,1.5C73.8,191,65.8,197.8,50.3,197.8z"/>
		</g>
		<g>
			
				<linearGradient id="SVGID_2_" gradientUnits="userSpaceOnUse" x1="1.7865" y1="210.354" x2="53.7417" y2="230.8507" gradientTransform="matrix(1 0 0 -1 0 370.305)">
				<stop  offset="0" style="stop-color:#DBE8F9"/>
				<stop  offset="1" style="stop-color:#A8C8ED"/>
			</linearGradient>
			<path class="st1" d="M45.1,201.1c-2.1,0-4.4-0.1-6.8-0.3c-11.8-1.1-21.4-7.3-27-17.5c-7.6-13.7-7.2-33,1-49.1
				c11.8-23.4,13.8-40.8,14.2-45.1c0-0.6,0.5-1,1.1-1l0,0c0.6,0,1.1,0.5,1,1.1c-0.3,4.4-2.3,22-14.4,45.8c-7.9,15.5-8.2,34-1,47.1
				c3.8,6.8,11.2,15.2,25.4,16.5c24.9,2.3,30.9-8.3,32.1-11.5c0.2-0.5,0.7-0.7,1.2-0.6l0,0c0.6,0.1,1,0.8,0.7,1.4
				C71.1,191.3,65.5,201.1,45.1,201.1z"/>
		</g>
		<g>
			
				<image style="overflow:visible;opacity:0.1;enable-background:new    ;" width="592" height="488" xlink:href="9FC0A140A75DCACD.png"  transform="matrix(0.238 0 0 0.238 46.8731 96.6455)">
			</image>
			<g>
				<g>
					
						<linearGradient id="SVGID_3_" gradientUnits="userSpaceOnUse" x1="75.4359" y1="264.4963" x2="103.2306" y2="194.8582" gradientTransform="matrix(1 0 0 -1 0 370.305)">
						<stop  offset="0" style="stop-color:#1F3683"/>
						<stop  offset="1" style="stop-color:#0F0038"/>
					</linearGradient>
					<path class="st2" d="M124.6,146.5l-57.5,43.4l-12-73.3c-0.3-1.7,0.9-3.4,2.7-3.6l56.6-7.9c1.7-0.2,3.2,0.9,3.5,2.6L124.6,146.5
						z"/>
					
						<linearGradient id="SVGID_4_" gradientUnits="userSpaceOnUse" x1="181.9495" y1="201.8882" x2="84.3826" y2="202.2699" gradientTransform="matrix(1 0 0 -1 0 370.305)">
						<stop  offset="0" style="stop-color:#1F3683"/>
						<stop  offset="1" style="stop-color:#0F0038"/>
					</linearGradient>
					<path class="st3" d="M67.2,189.9h76.3c1.2,0,2.4-0.7,2.9-1.8l18-37c1-2.1-0.5-4.6-2.9-4.6h-36.9L67.2,189.9z"/>
					<path class="st4" d="M130.4,176.3h15.8c0.2,0,0.4-0.1,0.5-0.3l10.4-19.9c0.2-0.4-0.1-0.8-0.5-0.8l-11.2,0.2
						c-0.2,0-0.3,0.1-0.4,0.2l-15,19.7C129.7,175.8,130,176.3,130.4,176.3z"/>
					<path class="st4" d="M80.6,186.1l33.6-0.4c1.1,0,2.1-0.5,2.8-1.3l27.9-33.7c0.5-0.6,0.1-1.5-0.7-1.5h-18.6
						c-0.2,0-0.4,0.1-0.6,0.2l-44.9,35.1C79.4,185,79.7,186.1,80.6,186.1z"/>
					<path class="st4" d="M121.1,147.2l-48.7,35.7c-1.1,0.8-2.7,0.2-3-1.2l-10.2-62.1c-0.2-1,0.5-2,1.6-2.2l52.9-8.4
						c1-0.2,2,0.5,2.1,1.5l6,34.8C122,146,121.7,146.8,121.1,147.2z"/>
					<path class="st5" d="M115,144.8c0.3,1.7-0.5,3.3-1.9,4.2l-32.9,21.1c-2,1.4-4.8,0.2-5.2-2.2l-7-42.6c-0.3-1.8,0.9-3.4,2.6-3.8
						l36.2-7.5c1.8-0.4,3.6,0.9,3.9,2.7L115,144.8z"/>
					<path class="st6" d="M68.1,125.3l1,6l42.2-11.7l-0.4-2.8c-0.3-1.9-2.1-3.1-3.9-2.7l-36.2,7.5C68.9,121.9,67.8,123.6,68.1,125.3
						z"/>
					<ellipse class="st7" cx="73.4" cy="125.8" rx="1.5" ry="1.9"/>
					<ellipse class="st8" cx="78.4" cy="124.5" rx="1.5" ry="1.9"/>
					<ellipse class="st9" cx="83.5" cy="123.2" rx="1.5" ry="1.9"/>
					<g>
						<path class="st10" d="M76.6,135.2c-0.3,0-0.6-0.2-0.7-0.5c-0.1-0.4,0.1-0.8,0.5-1l30.5-9.9c0.4-0.1,0.8,0.1,1,0.5
							c0.1,0.4-0.1,0.8-0.5,1l-30.5,9.9C76.8,135.2,76.7,135.2,76.6,135.2z"/>
					</g>
					<g>
						<path class="st11" d="M85,138.3c-0.3,0-0.6-0.2-0.7-0.5c-0.2-0.4,0-0.9,0.4-1l24.5-9.4c0.4-0.2,0.9,0,1,0.4
							c0.2,0.4,0,0.9-0.4,1l-24.5,9.4C85.2,138.3,85.1,138.3,85,138.3z"/>
					</g>
					<g>
						<path class="st12" d="M89.6,141.8c-0.3,0-0.6-0.2-0.7-0.5c-0.2-0.4,0-0.9,0.4-1l17.5-7.4c0.4-0.2,0.9,0,1,0.4
							c0.2,0.4,0,0.9-0.4,1l-17.5,7.4C89.8,141.8,89.7,141.8,89.6,141.8z"/>
					</g>
					<g>
						<path class="st10" d="M85.8,149.1c-0.3,0-0.6-0.2-0.7-0.4c-0.2-0.4,0-0.9,0.4-1l17.1-8c0.4-0.2,0.9,0,1,0.4
							c0.2,0.4,0,0.9-0.4,1l-17.1,8C86.1,149.1,85.9,149.1,85.8,149.1z"/>
					</g>
					<g>
						<path class="st11" d="M81.3,157c-0.3,0-0.6-0.2-0.7-0.4c-0.2-0.4,0-0.9,0.3-1l21.8-11.2c0.4-0.2,0.9,0,1,0.3s0,0.9-0.3,1
							l-21.8,11.2C81.5,157,81.4,157,81.3,157z"/>
					</g>
					<g>
						<path class="st12" d="M82.6,162.1c-0.3,0-0.5-0.1-0.7-0.4c-0.2-0.4-0.1-0.8,0.3-1.1l15.7-8.9c0.4-0.2,0.8-0.1,1.1,0.3
							c0.2,0.4,0.1,0.8-0.3,1.1L83,162C82.9,162,82.8,162.1,82.6,162.1z"/>
					</g>
				</g>
			</g>
		</g>
	</g>
	<g>
		<g>
			<g>
				<path class="st13" d="M48,257.5c0,0-22.5-22.5-43.8-16c-0.6,0.2-1,0.9-0.7,1.5c2.8,5.4,16.2,29.9,37.9,45.7
					c0.3,0.2,0.7,0.3,1,0.1c2.8-1.1,15.2-6.3,18.2-13.4L48,257.5z"/>
				
					<linearGradient id="SVGID_5_" gradientUnits="userSpaceOnUse" x1="-88.6416" y1="-36.7021" x2="-64.3744" y2="-36.7021" gradientTransform="matrix(0.9954 9.605079e-02 9.605079e-02 -0.9954 139.4285 232.8737)">
					<stop  offset="0" style="stop-color:#EFC2AC"/>
					<stop  offset="1" style="stop-color:#DCA48E"/>
				</linearGradient>
				<path class="st14" d="M60.9,248.4L48,257.5c0,0-0.3,13,11.1,18.3c0.4,0.2,0.9,0.1,1.2-0.1l11-7.6L60.9,248.4z"/>
				<g>
					<path class="st15" d="M45.6,287.4c-22-16.3-38.6-46.3-38.8-46.6l1.1-0.2c0.2,0.3,16.8,30.2,38.7,46.4L45.6,287.4z"/>
				</g>
			</g>
			<g>
				
					<linearGradient id="SVGID_6_" gradientUnits="userSpaceOnUse" x1="57.0522" y1="116.8334" x2="82.7378" y2="116.8334" gradientTransform="matrix(1 0 0 -1 0 370.305)">
					<stop  offset="0" style="stop-color:#243682"/>
					<stop  offset="1" style="stop-color:#13003A"/>
				</linearGradient>
				<path class="st16" d="M72,236.7c0,0-13.5,9.3-14.7,12c-1.1,2.5,0.7,16.4,10.3,21.2c1.1,0.6,2.5,0.6,3.6-0.1l11.5-6.6
					C82.7,263.1,75.2,261.9,72,236.7z"/>
				
					<linearGradient id="SVGID_7_" gradientUnits="userSpaceOnUse" x1="67.7651" y1="139.6915" x2="296.6378" y2="139.6915" gradientTransform="matrix(1 0 0 -1 0 370.305)">
					<stop  offset="0" style="stop-color:#243682"/>
					<stop  offset="1" style="stop-color:#13003A"/>
				</linearGradient>
				<path class="st17" d="M296.6,248c0,0-6.1,27.3-39.7,31.8c-36.9,4.9-92.5-52.8-98-52.3c-5.4,0.5-26.3,28.1-77.4,38
					c-1.9,0.4-3.9-0.1-5.4-1.4c-3.9-3.3-10.5-11-7.7-24.1c1.9-9,14.4-18.6,27.6-26.9c13.5-8.4,27.9-15.4,32.7-18.6
					c9.5-6.4,29.9-21.6,61.6-7.4c31.7,14.1,48.2,27,48.2,27L296.6,248z"/>
			</g>
			<path class="st18" d="M96.1,213.1c13.5-8.4,27.9-15.4,32.7-18.6c9.5-6.4,29.9-21.6,61.6-7.4c31.7,14.1,48.2,27,48.2,27
				s9.7,9.3,6.5,16.5s-37.5-2.6-59.1-22.2c-21.6-19.6-51.9-10.8-63-0.2C112,218.8,96.1,213.1,96.1,213.1z"/>
		</g>
		<g>
			<path class="st13" d="M85.4,340.9c0,0-26.8-12.7-43.6-0.3c-0.5,0.4-0.6,1.1-0.1,1.5c4.2,3.9,23.6,21.2,47.7,28.3
				c0.3,0.1,0.7,0,0.9-0.2c2.1-1.8,11.4-10.3,11.9-17.5L85.4,340.9z"/>
			
				<linearGradient id="SVGID_8_" gradientUnits="userSpaceOnUse" x1="85.4757" y1="29.1025" x2="109.35" y2="29.1025" gradientTransform="matrix(1 0 0 -1 0 370.305)">
				<stop  offset="0" style="stop-color:#EFC2AC"/>
				<stop  offset="1" style="stop-color:#DCA48E"/>
			</linearGradient>
			<path class="st19" d="M94,328.9L85.5,341c0,0,3.8,11.6,15.5,12.6c0.4,0,0.8-0.2,1-0.5l7.3-10.1L94,328.9z"/>
			<g>
				<path class="st15" d="M92.8,368c-24.5-7.4-48.5-28.6-48.7-28.9l0.9-0.5c0.2,0.2,24.3,21.3,48.6,28.6L92.8,368z"/>
			</g>
		</g>
		<g>
			
				<linearGradient id="SVGID_9_" gradientUnits="userSpaceOnUse" x1="88.9369" y1="39.3497" x2="118.0805" y2="39.3497" gradientTransform="matrix(1 0 0 -1 0 370.305)">
				<stop  offset="0" style="stop-color:#243682"/>
				<stop  offset="1" style="stop-color:#13003A"/>
			</linearGradient>
			<path class="st20" d="M96.8,315.1c0,0-8,14.3-7.9,17.3c0.1,2.8,8.1,14.8,19.1,14.5c1,0,1.9-0.5,2.4-1.3l7.6-11.3
				C118,334.1,110.8,336.3,96.8,315.1z"/>
			
				<linearGradient id="SVGID_10_" gradientUnits="userSpaceOnUse" x1="94.6165" y1="92.2698" x2="299.4921" y2="92.2698" gradientTransform="matrix(1 0 0 -1 0 370.305)">
				<stop  offset="0" style="stop-color:#243682"/>
				<stop  offset="1" style="stop-color:#13003A"/>
			</linearGradient>
			<path class="st21" d="M298.9,225.8c0,0,5.9,25.7-20.8,46.6c-26.7,20.9-102.7-6.8-107.4-4c-4.6,2.8-11.2,36.8-52.7,68.3
				c-1.6,1.2-3.6,1.6-5.5,1.1c-5-1.2-14.3-5.3-17.5-18.2c-4.5-18,28.4-57.5,34.1-67.4c5.7-9.9,17.3-32.5,52-33.8s55.2,3,55.2,3
				L298.9,225.8z"/>
			<path class="st22" d="M112.6,337.9c1.9,0.5,3.9,0,5.5-1.1c41.5-31.5,48.1-65.5,52.7-68.3c0,0-9-3.5-19.5,7.5s0.7,12.2-10.8,22.3
				C128.9,308.2,90.8,330.2,112.6,337.9z"/>
		</g>
		<path class="st23" d="M121.8,288.5"/>
		<g>
			
				<linearGradient id="SVGID_11_" gradientUnits="userSpaceOnUse" x1="120.8789" y1="293.777" x2="231.5392" y2="215.6587" gradientTransform="matrix(1 0 0 -1 0 370.305)">
				<stop  offset="0" style="stop-color:#EFC2AC"/>
				<stop  offset="0.8982" style="stop-color:#DEA791"/>
				<stop  offset="1" style="stop-color:#DCA48E"/>
			</linearGradient>
			<path class="st24" d="M230.6,123.5c0,0-6.3,4.2-15.1,6.2c-8.2,1.8-12.3,4.5-12.3,4.5s-15-18.5-38.2-34.3c0,0-1.2-6.5-1-12.3
				c0.2-5.9-6.3-9.8-7.4-14.5c-1.1-4.7-3.4-5.9-4.5-4.2s-0.2,5.7,1.1,8.3c1.3,2.6,0.2,5.6,0.2,5.6s-3.4-1.7-7.7-3s-15.2-12.4-18-6.5
				c0,0-3.6-1.6-4.4-0.2c-0.8,1.5,0.4,3.7,1.7,4.7c0,0-2.6,1.6-0.1,4.8c2.5,3.3,8.8,7.7,12.3,10.5c0,0-1.5,0.7-4.3-1.4
				c-2.9-2.1-6.9-6-8.9-4.4s8,8.6,9.6,9.8s10.5,3.3,17.5,11.5s17.6,40.9,41,47.7c0,0,27.3,0.2,42.7-8.7S230.6,123.5,230.6,123.5z"/>
			<g>
				<path class="st25" d="M153.4,82.6c0.1,1.4,0.1,2.8-0.2,4.2c-0.1,0.7-0.3,1.4-0.6,2.1c-0.3,0.6-0.4,1.2-0.5,1.9
					c-0.1,1.3,0,2.7,0.3,4c0.1,0.7,0.3,1.3,0.6,1.9c0.2,0.6,0.5,1.2,1,1.8c-1.1-0.9-1.7-2.3-2.1-3.6c-0.4-1.4-0.6-2.8-0.5-4.2
					c0.1-0.7,0.3-1.5,0.6-2.1s0.5-1.2,0.7-1.9C153,85.4,153.2,84,153.4,82.6z"/>
				<path class="st25" d="M148.3,86.6c-0.4,1.5-0.9,2.9-1.3,4.3c-0.4,1.4-0.8,2.9-1.2,4.3c-0.1-1.5,0.1-3.1,0.5-4.5
					C146.7,89.2,147.3,87.8,148.3,86.6z"/>
				<path class="st25" d="M127.8,73.1l3.4,3c1.1,1,2.3,2,3.4,2.9c1.1,1,2.3,1.9,3.5,2.8s2.4,1.7,3.7,2.5c-1.4-0.5-2.7-1.3-4-2.1
					c-1.3-0.8-2.5-1.7-3.6-2.7c-1.2-1-2.3-2-3.3-3.1C129.7,75.4,128.7,74.3,127.8,73.1z"/>
				<path class="st25" d="M125.1,77.6l3.4,2.9c1.1,0.9,2.3,1.9,3.4,2.8c1.2,0.9,2.3,1.8,3.5,2.7c1.2,0.8,2.5,1.6,3.8,2.3
					c-1.5-0.4-2.8-1.1-4.1-1.8c-1.3-0.8-2.5-1.7-3.7-2.6s-2.3-1.9-3.4-3C127,79.8,126,78.7,125.1,77.6z"/>
				<path class="st25" d="M143.3,82.3c-0.7,0.8-1.3,1.8-1.8,2.7c-0.5,1-1,1.9-1.4,2.9s-0.7,2.1-1,3.1c-0.3,1.1-0.5,2.1-0.7,3.2
					c0-0.6,0-1.1,0-1.7c0.1-0.6,0.1-1.1,0.2-1.7c0.2-1.1,0.5-2.2,0.9-3.3c0.4-1,0.9-2.1,1.6-3C141.6,83.8,142.4,82.9,143.3,82.3z"/>
			</g>
		</g>
		
			<linearGradient id="SVGID_12_" gradientUnits="userSpaceOnUse" x1="225.3668" y1="254.1525" x2="269.3758" y2="254.1525" gradientTransform="matrix(1 0 0 -1 0 370.305)">
			<stop  offset="0" style="stop-color:#F4D85F"/>
			<stop  offset="1" style="stop-color:#ECB543"/>
		</linearGradient>
		<path class="st26" d="M269,90.9c0,0-9,3-15.7,12.5c-6.7,9.5-24,20.8-27.9,22.1c0,0,0.3,12.4,6.2,16
			C231.5,141.5,274,102.1,269,90.9z"/>
		
			<linearGradient id="SVGID_13_" gradientUnits="userSpaceOnUse" x1="233.9633" y1="338.0805" x2="301.1966" y2="290.6187" gradientTransform="matrix(1 0 0 -1 0 370.305)">
			<stop  offset="0" style="stop-color:#EFC2AC"/>
			<stop  offset="0.8982" style="stop-color:#DEA791"/>
			<stop  offset="1" style="stop-color:#DCA48E"/>
		</linearGradient>
		<path class="st27" d="M243.2,19.5c0,0-6.1,4.3-3.9,22.4c0,0-7.7,9.1-11.9,13.4c-0.6,0.6-0.3,1.5,0.4,1.8c2.3,0.8,6.5,2,10.7,1.6
			c0,0-1.7,24.4,6.6,25.1c8.2,0.7,21.4-6.7,22.7,12.7c0,0,16.3-0.2,28.3-9.6c0,0-10.1-12.4-7.1-22.2S304.3,4.9,243.2,19.5z"/>
		<g>
			
				<linearGradient id="SVGID_14_" gradientUnits="userSpaceOnUse" x1="117.5649" y1="206.2809" x2="122.3029" y2="206.2809" gradientTransform="matrix(1 0 0 -1 0 370.305)">
				<stop  offset="0" style="stop-color:#EFC2AC"/>
				<stop  offset="1" style="stop-color:#DCA48E"/>
			</linearGradient>
			<path class="st28" d="M117.5,161.2l0.6,6.8c0,0.5,0.5,0.8,1,0.6c1.2-0.4,3.1-1.5,3.1-3.6c0.1-2-0.1-3.9-0.3-4.9
				c-0.1-0.4-0.5-0.7-0.9-0.6l-3,1C117.7,160.5,117.5,160.8,117.5,161.2z"/>
			<g>
				
					<linearGradient id="SVGID_15_" gradientUnits="userSpaceOnUse" x1="135.0118" y1="244.6701" x2="230.0499" y2="177.58" gradientTransform="matrix(1 0 0 -1 0 370.305)">
					<stop  offset="0" style="stop-color:#EFC2AC"/>
					<stop  offset="0.8982" style="stop-color:#DEA791"/>
					<stop  offset="1" style="stop-color:#DCA48E"/>
				</linearGradient>
				<path class="st29" d="M224.3,142.5c-3.9,3.3-9.8,8.5-14,12.9c-12.1,5.6-64-30.8-87.8-7.6c0,0-4.9,0.2-5.1,3.6s0,9.2,0,9.2
					s-2.4,2.9-2.2,6.4s4.8-1,5.9-2.8s7.8-8.4,10.3-8.1s10.9,1.3,13.9-3.6c0,0,45.7,38.4,69.7,32.3c10.9-2.7,36.1-21.9,36.1-21.9
					s1.1-14.7-16.6-22C231.1,139.5,227.1,140.1,224.3,142.5z"/>
				<g>
					<path class="st25" d="M117.5,160.6c0-0.2,5.3-7.6,7.3-8.8c0,0-3.1,0.9-3.6,1.7C120.6,154.3,117.5,160.6,117.5,160.6z"/>
					<path class="st25" d="M121.9,153.2c0,0-1.3-0.1-2.1-1C119.8,152.2,121.2,154.7,121.9,153.2z"/>
				</g>
			</g>
		</g>
		
			<ellipse transform="matrix(0.9788 -0.2049 0.2049 0.9788 -19.1898 25.5829)" class="st4" cx="113.9" cy="105.5" rx="0.5" ry="0.6"/>
		<g>
			<path class="st6" d="M256.1,34.1c-0.3,0-0.5-0.1-0.7-0.3c-0.1-0.1-3.8-3-9.4-2.6c-0.7,0.1-1.2-0.5-1.2-1.1s0.5-1.2,1.1-1.2
				c6.6-0.4,10.8,3,11,3.1c0.5,0.4,0.6,1.1,0.2,1.6C256.8,33.9,256.4,34.1,256.1,34.1z"/>
		</g>
		<path class="st13" d="M284.8,49.7c0-1.9-1.5-3.4-3.4-3.4s-3.4,1.5-3.4,3.4c0,1,0.4,1.9,1.1,2.5l-1.7,2.7c-0.3,0.6-0.2,1.3,0.4,1.6
			c0.2,0.1,0.4,0.2,0.6,0.2c0.4,0,0.8-0.2,1-0.6l2-3.1C283.3,53,284.8,51.5,284.8,49.7z"/>
		<path class="st30" d="M206.1,128"/>
		<path class="st31" d="M131,138.9"/>
		
			<linearGradient id="SVGID_16_" gradientUnits="userSpaceOnUse" x1="220.7503" y1="333.5788" x2="307.7144" y2="333.5788" gradientTransform="matrix(1 0 0 -1 0 370.305)">
			<stop  offset="0" style="stop-color:#1F3683"/>
			<stop  offset="1" style="stop-color:#0F0038"/>
		</linearGradient>
		<path class="st32" d="M295.4,73.5c0,0-12.1-4.7-14.1-14.8c0,0,3.2,0.5,5.4-3.9s1.8-14.8-3.2-15.3s-5.6,4.7-5.6,6.9
			c0,0-2.5-1-2.8-3.7c0,0-3.1,3.9-1.6,9.6c0,0-5.5-5.9-3.6-14.2c2-8.3-4.7-24.4-21.2-17.5s-27.9,3.6-27.9-16.8c0,0,9.6,9.8,18.6,5.4
			C248.5,4.8,272.1-7.7,287,7c0,0,0.7-3.1-0.9-5.4c0,0,8.3,4.9,9.3,15.8c0,0,13.4,1.6,12.3,20.5c0,0-1.8-3.7-3.1-5.3
			c0,0,2.2,7.1-1.5,12.5C299.4,50.4,289.1,63.6,295.4,73.5z"/>
		
			<linearGradient id="SVGID_17_" gradientUnits="userSpaceOnUse" x1="246.1204" y1="329.8525" x2="249.7448" y2="329.8525" gradientTransform="matrix(1 0 0 -1 0 370.305)">
			<stop  offset="0" style="stop-color:#230C12"/>
			<stop  offset="1" style="stop-color:#0B0006"/>
		</linearGradient>
		<ellipse class="st33" cx="247.9" cy="40.5" rx="1.8" ry="4.3"/>
		<g>
			
				<linearGradient id="SVGID_18_" gradientUnits="userSpaceOnUse" x1="246.847" y1="310.4233" x2="256.7273" y2="303.4485" gradientTransform="matrix(1 0 0 -1 0 370.305)">
				<stop  offset="0" style="stop-color:#230C12"/>
				<stop  offset="1" style="stop-color:#0B0006"/>
			</linearGradient>
			<path class="st34" d="M246,65.9c-1.2,0-1.9-0.1-2-0.1c-0.4,0-0.7-0.4-0.7-0.8s0.4-0.7,0.8-0.7c0.1,0,9.1,0.7,14.9-3.2
				c0.3-0.2,0.8-0.1,1,0.2c0.2,0.3,0.1,0.8-0.2,1C255.3,65.5,249.1,65.9,246,65.9z"/>
		</g>
		
			<linearGradient id="SVGID_19_" gradientUnits="userSpaceOnUse" x1="223.3378" y1="203.0068" x2="318.1093" y2="203.0068" gradientTransform="matrix(1 0 0 -1 0 370.305)">
			<stop  offset="0" style="stop-color:#F4D85F"/>
			<stop  offset="1" style="stop-color:#ECB543"/>
		</linearGradient>
		<path class="st35" d="M294.1,84.3c0,0-23.5,2.3-35.9,21.3c-12.4,19-34.9,37.8-34.9,37.8s2,20.7,17.6,26.9c0,0,9.3-5.9,16.3-10.2
			c0,0-0.7,16.2,1.5,19.6c0,0-7.9,12.3-13.9,16.7s-6.2,10.9-6.2,10.9s-6.4,2.2-3.3,9.6c1.1,2.6,5.1,7.9,11.3,13.6
			c11.7,10.8,30.9,22.7,51.9,19.3c0,0,1.7-3.1,0-7.4c0,0,3.5-2.6,4.3-4.1s6.6-7.5,8.9-14c2.3-6.5,3.2-30.1,4.7-36.5
			C317.8,181.5,324.8,115.3,294.1,84.3z"/>
		<path class="st36" d="M246.6,230.5c-6.2-5.7-10.2-11-11.3-13.6c-3.1-7.4,3.3-9.6,3.3-9.6s0.2-6.5,6.2-10.9s13.9-16.7,13.9-16.7
			c-2.2-3.4-1.5-19.6-1.5-19.6c1.1-0.9,5.8-5.7,18.1-8.3c0,0-5.5,7-4.6,18.2c0.9,11.3,5.8,24.5-7.4,37.5c0,0,0.5-15.9-6.4-14
			C250,195.5,240.4,216.3,246.6,230.5z"/>
		<path class="st36" d="M203.2,134.2c-1.6,1.5-2.9,3-4,4.8c-0.6,0.9-1,1.8-1.4,2.7c-0.4,1-0.6,2-0.8,3c-0.2-1.1-0.2-2.2,0.1-3.3
			c0.2-1.1,0.7-2.1,1.3-3s1.3-1.8,2.1-2.5C201.3,135.2,202.2,134.6,203.2,134.2z"/>
	</g>
</g>
</svg>
