<?xml version="1.0" encoding="utf-8"?>
<!-- Generator: Adobe Illustrator 22.1.0, SVG Export Plug-In . SVG Version: 6.00 Build 0)  -->
<svg version="1.1" id="Capa_1" xmlns="http://www.w3.org/2000/svg" xmlns:xlink="http://www.w3.org/1999/xlink" x="0px" y="0px"
	 viewBox="0 0 311.4 518.2" style="enable-background:new 0 0 311.4 518.2;" xml:space="preserve">
<style type="text/css">
	.st0{fill:url(#SVGID_1_);}
	.st1{fill:#86535E;}
	.st2{fill:url(#SVGID_2_);}
	.st3{fill:url(#SVGID_3_);}
	.st4{fill:url(#SVGID_4_);}
	.st5{fill:url(#SVGID_5_);}
	.st6{fill:url(#SVGID_6_);}
	.st7{fill:url(#SVGID_7_);}
	.st8{fill:url(#SVGID_8_);}
	.st9{fill:url(#SVGID_9_);}
	.st10{fill:url(#SVGID_10_);}
	.st11{fill:#95535F;}
	.st12{fill:url(#SVGID_11_);}
	.st13{fill:url(#SVGID_12_);}
	.st14{fill:url(#SVGID_13_);}
	.st15{opacity:0.1;fill:#0F0038;enable-background:new    ;}
	.st16{fill:url(#SVGID_14_);}
	.st17{fill:url(#SVGID_15_);}
	.st18{opacity:5.000000e-02;fill:#0F0038;enable-background:new    ;}
	.st19{fill:url(#SVGID_16_);}
	.st20{opacity:0.15;fill:#0F0038;enable-background:new    ;}
</style>
<g>
	<g>
		<g>
			
				<linearGradient id="SVGID_1_" gradientUnits="userSpaceOnUse" x1="166.4239" y1="67.7656" x2="204.8651" y2="67.7656" gradientTransform="matrix(1 0 0 -1 0 518.2001)">
				<stop  offset="0" style="stop-color:#DEE7F9"/>
				<stop  offset="1" style="stop-color:#AFC6ED"/>
			</linearGradient>
			<path class="st0" d="M175.2,429.2c0,0-1.3,10.6-3.3,15.4c-1.9,4.6-9.5,26-2.9,36.7c1.3,2.2,4.4,2.5,6.1,0.6
				c7.1-7.4,25.4-28.1,29.6-47.5c0.3-1.6-0.1-3.2-1.2-4.4c-4.4-4.6-17.8-15.8-21.1-11.2C178.3,424.4,175.2,429.2,175.2,429.2z"/>
			<path class="st1" d="M167,425.8l9.2,7.2c0,0,4.3,2.7,9.3-4.1s-0.8-11.3-0.9-11.2c-0.1,0.1-6.1-6-6.1-6L167,425.8z"/>
		</g>
		<g>
			
				<linearGradient id="SVGID_2_" gradientUnits="userSpaceOnUse" x1="168.7767" y1="63.1001" x2="202.8957" y2="63.1001" gradientTransform="matrix(1 0 0 -1 0 518.2001)">
				<stop  offset="0" style="stop-color:#243682"/>
				<stop  offset="1" style="stop-color:#13003A"/>
			</linearGradient>
			<path class="st2" d="M169.3,481.7c-0.1-0.1-0.2-0.3-0.3-0.4c-0.1-0.2-0.2-0.3-0.3-0.5c8-6.7,19-18.1,27.2-35
				c4.8-9.9,6.1-17.1,6.1-17.3l0.9,0.8C202.8,429.7,197.8,457.1,169.3,481.7z"/>
		</g>
	</g>
	<g>
		
			<linearGradient id="SVGID_3_" gradientUnits="userSpaceOnUse" x1="0" y1="17.5425" x2="74.8833" y2="17.5425" gradientTransform="matrix(1 0 0 -1 0 518.2001)">
			<stop  offset="0" style="stop-color:#DEE7F9"/>
			<stop  offset="1" style="stop-color:#AFC6ED"/>
		</linearGradient>
		<path class="st3" d="M65.2,483.9c0,0-7.7-3.1-21.5,3.3C30,493.6,8.5,488,0.8,503.6C-6.8,519,40.4,521.7,62.2,514
			c0.7-0.2,1.3-0.6,1.9-1.1c3-2.5,12.2-11.4,10.7-26.4C74.6,486.6,71.4,484.6,65.2,483.9z"/>
		<path class="st1" d="M59.9,464.4c0,0-4.8,13.9-5.4,21.3s13.5,9.9,20.5,4.4l8.9-17.6L59.9,464.4z"/>
		<g>
			
				<linearGradient id="SVGID_4_" gradientUnits="userSpaceOnUse" x1="0.5195" y1="8.85" x2="66.7195" y2="8.85" gradientTransform="matrix(1 0 0 -1 0 518.2001)">
				<stop  offset="0" style="stop-color:#243682"/>
				<stop  offset="1" style="stop-color:#13003A"/>
			</linearGradient>
			<path class="st4" d="M0.5,504.3c0,0,2.8,10.9,31.9,10.9c8.7,0,18.8-0.8,32.8-3.3l1.5-1.5C7.3,521,0.9,503.6,0.9,503.5
				C0.8,503.5,0.6,503.8,0.5,504.3z"/>
		</g>
	</g>
	<g>
		<path class="st1" d="M275.8,239.3l-1.6,21.5c-0.1,11.6-1,18.5-2.4,23c-0.4,1.4-1.3,2.6-2.4,3.5c-2.7,2.1-8.2,5.9-13.6,7
			c-6,1.2-2.5,5.1,3,5c-0.5,0.7-1,1.5-1.5,2.4c-8.7,15.1-1.5,19.1-1.5,19.1s-0.1,6.1,2.4,6.4c2.5,0.3,2.7-1.9,2.7-1.9
			s2.8,2.6,5.2-3.6s5.9-7.6,5.9-7.6s-2.8,14.5,1.2,11.8s2.4-16.1,6.7-18.6c4.3-2.6,9.2-7.7,12.3-18.4c3.4-11.9,6.9-27.5,6.9-27.5
			l4.9-18.8L275.8,239.3z"/>
		<g>
			
				<linearGradient id="SVGID_5_" gradientUnits="userSpaceOnUse" x1="2537.8643" y1="590.2942" x2="2554.3057" y2="590.2942" gradientTransform="matrix(-1.613028e-02 -0.9999 -0.9999 1.613028e-02 895.1821 2853.2034)">
				<stop  offset="0" style="stop-color:#230C12"/>
				<stop  offset="1" style="stop-color:#0B0006"/>
			</linearGradient>
			<path class="st5" d="M260.7,325.3c-0.2-1.5-0.1-3,0.2-4.6c0.2-1.5,0.6-3,1.2-4.4c0.6-1.4,1.2-2.8,2.1-4.1
				c0.8-1.3,1.8-2.4,2.9-3.5c-0.9,1.3-1.7,2.5-2.4,3.8s-1.4,2.7-1.9,4c-0.5,1.4-1,2.8-1.3,4.3C261.1,322.3,260.9,323.7,260.7,325.3z
				"/>
			
				<linearGradient id="SVGID_6_" gradientUnits="userSpaceOnUse" x1="2542.4678" y1="595.4841" x2="2558.3394" y2="595.4841" gradientTransform="matrix(-1.613028e-02 -0.9999 -0.9999 1.613028e-02 895.1821 2853.2034)">
				<stop  offset="0" style="stop-color:#230C12"/>
				<stop  offset="1" style="stop-color:#0B0006"/>
			</linearGradient>
			<path class="st6" d="M255.7,320.7c0-1.4,0.1-2.9,0.4-4.3c0.2-1.4,0.6-2.8,1.1-4.2s1-2.7,1.7-4s1.6-2.5,2.6-3.5
				c-0.7,1.2-1.4,2.5-2,3.8s-1.1,2.6-1.5,4c-0.5,1.3-0.8,2.7-1.2,4.1C256.3,317.9,256,319.3,255.7,320.7z"/>
			
				<linearGradient id="SVGID_7_" gradientUnits="userSpaceOnUse" x1="182.7354" y1="104.9172" x2="189.4066" y2="104.9172" gradientTransform="matrix(0.9966 8.269132e-02 8.269132e-02 -0.9966 68.0348 385.2224)">
				<stop  offset="0" style="stop-color:#230C12"/>
				<stop  offset="1" style="stop-color:#0B0006"/>
			</linearGradient>
			<path class="st7" d="M258.7,299.3c0.8-1.4,1.9-2.6,3-3.7c1.1-1.1,2.4-2.1,3.9-2.8c-0.6,0.5-1.2,1-1.8,1.6
				c-0.6,0.5-1.2,1.1-1.7,1.6L258.7,299.3z"/>
		</g>
	</g>
	
		<linearGradient id="SVGID_8_" gradientUnits="userSpaceOnUse" x1="49.1659" y1="55.1559" x2="186.0494" y2="277.1741" gradientTransform="matrix(1 0 0 -1 0 518.2001)">
		<stop  offset="0" style="stop-color:#243682"/>
		<stop  offset="1" style="stop-color:#13003A"/>
	</linearGradient>
	<path class="st8" d="M167,391.8c-7.9-16.5-17-24.4-17-24.4c18.7-15.7,31.7-27.6,42.2-35.9c29.8-23.7,29.8-56.7,29.8-56.7
		l-49.4-15.7l-19.7-38.5c0,0-98.6,50.8-103.7,85.2c-2.5,16.9,7.2,32.3,22.8,51.3c2,2.5,4,5,6.1,7.4c2.3,2.7,4.8,5.4,7.5,8.1
		c-17.7,35.9-26.4,74.4-29.4,87.1c-0.6,2.5,0,5.1,1.7,7c7.7,9.1,18,10.7,23.8,10.7c2.5,0,4.8-1.6,5.6-4c5.9-16.6,27-39.2,38.1-70.2
		c3,1.9,34,25.2,37,26.9c0,0,17.2-10.8,18.9-23.1C181.3,407.1,173.3,405,167,391.8z M112.9,326.3c-4.4-5.6-10.5-6.7-12.7-10.7
		c-1.3-2.5,2.4-6,4.4-7.9c7.6-7.3,11.1-7.4,35.3-18.6C122.3,308.1,124.4,308.4,112.9,326.3z"/>
	
		<linearGradient id="SVGID_9_" gradientUnits="userSpaceOnUse" x1="168.0195" y1="475.6001" x2="261.8195" y2="475.6001" gradientTransform="matrix(1 0 0 -1 0 518.2001)">
		<stop  offset="0" style="stop-color:#230C12"/>
		<stop  offset="1" style="stop-color:#0B0006"/>
	</linearGradient>
	<path class="st9" d="M261.8,49.9c0-2.6-0.8-5-2.3-7c1.3-1.3,2.1-3.1,2.1-5.1c0-3.7-2.7-6.7-6.3-7.2c0.3-0.9,0.4-1.9,0.4-2.9
		c0-5.6-4.5-10.1-10.1-10.1c-0.1,0-0.2,0-0.3,0c-0.2-5.1-4.5-9.2-9.6-9.2c-0.4,0-0.8,0-1.2,0.1c-1.8-4-6-6.7-10.7-6.3
		c-1.5,0.1-2.9,0.6-4.2,1.3C217.4,1.3,214.3,0,211,0c-2.9,0-5.5,1-7.7,2.6c-1.9-1.2-4.1-1.9-6.4-1.9c-6,0-10.9,4.3-11.9,10
		c-8,0.6-14.3,7.3-14.3,15.5c0,2.5,0.6,4.9,1.7,7c-2.6,2.4-4.4,4.8-4.4,9.7c0,8.4,7.2,13.8,15.6,13.8c1.5,0,1.2-0.2,2.5-0.6
		l34.8,24.5l4.6-3.9c1.7,4.9,6.3,8.5,11.8,8.5c6.9,0,12.5-5.6,12.5-12.5c0-0.7-0.1-1.4-0.2-2.1c3.3-0.5,5.9-3.2,6.2-6.6
		c0.1-1.2-0.1-2.3-0.5-3.3C259.1,58.7,261.8,54.6,261.8,49.9z"/>
	
		<linearGradient id="SVGID_10_" gradientUnits="userSpaceOnUse" x1="207.8196" y1="475.6001" x2="261.8738" y2="475.6001" gradientTransform="matrix(1 0 0 -1 0 518.2001)">
		<stop  offset="0" style="stop-color:#230C12"/>
		<stop  offset="1" style="stop-color:#0B0006"/>
	</linearGradient>
	<path class="st10" d="M261.8,49.9c0-2.6-0.8-5-2.3-7c1.3-1.3,2.1-3.1,2.1-5.1c0-3.7-2.7-6.7-6.3-7.2c0.3-0.9,0.4-1.9,0.4-2.9
		c0-5.6-4.5-10.1-10.1-10.1c-0.1,0-0.2,0-0.3,0c-0.2-5.1-4.5-9.2-9.6-9.2c-0.4,0-0.8,0-1.2,0.1c-1.8-4-6-6.7-10.7-6.3
		c-1.5,0.1-2.9,0.6-4.2,1.3C217.4,1.3,214.3,0,211,0c-1.1,0-2.2,0.2-3.2,0.4c3.9,0.3,7.3,2.8,8.9,6.3c0.4,0,0.8-0.1,1.2-0.1
		c5.2,0,9.4,4.1,9.6,9.2c0.1,0,0.2,0,0.3,0c5.6,0,10.1,4.5,10.1,10.1c0,1-0.2,2-0.4,2.9c3.6,0.5,6.3,3.5,6.3,7.2
		c0,2-0.8,3.8-2.1,5.1c1.4,2,2.3,4.4,2.3,7c0,4.7-2.7,8.8-6.6,10.8c0.4,1,0.6,2.1,0.5,3.3c-0.3,3.4-2.9,6.1-6.2,6.6
		c0.1,0.7,0.2,1.4,0.2,2.1c0,3.8-1.7,7.2-4.4,9.5c2.3,2.9,5.8,4.8,9.8,4.8c6.9,0,12.5-5.6,12.5-12.5c0-0.7-0.1-1.4-0.2-2.1
		c3.3-0.5,5.9-3.2,6.2-6.6c0.1-1.2-0.1-2.3-0.5-3.3C259.1,58.7,261.8,54.6,261.8,49.9z"/>
	<g>
		<path class="st11" d="M85.1,92.8c4,2.4,22,15.1,22,15.1l-2.8,17.3l-12.5,3.1c0,0-9.8-13.3-15.1-20.3c-0.8-1-1.9-1.7-3.2-1.8
			c-2-0.2-5.4-0.6-8.6-0.9c-4.9-0.5-7.2-8.2-16-12.6c-0.9-0.4-1-1.7-0.1-2.2c1.5-1,4-1.7,8,0.4c6.7,3.6,8.1,0.3,7.4-2.1
			c-0.7-2.4-5.4-10.5-9.7-11.9c-4.3-1.4-8.6,0.2-12.6-4.5s14.5-1.9,14.5-1.9s7.1-3.3,11.7,1.6c4.7,4.8,6.9,4.5,10.4,11.9
			C81.9,91.4,85.1,92.8,85.1,92.8z"/>
		
			<linearGradient id="SVGID_11_" gradientUnits="userSpaceOnUse" x1="56.3708" y1="443.8128" x2="68.2902" y2="443.8128" gradientTransform="matrix(1 0 0 -1 0 518.2001)">
			<stop  offset="0" style="stop-color:#24000A"/>
			<stop  offset="1" style="stop-color:#050000"/>
		</linearGradient>
		<path class="st12" d="M56.4,70.5c1.2-0.1,2.5,0.1,3.7,0.5s2.4,0.9,3.4,1.6c1.1,0.7,2,1.5,2.8,2.5c0.8,0.9,1.5,2.1,1.9,3.2
			c-0.8-0.9-1.6-1.8-2.5-2.6c-0.9-0.8-1.8-1.5-2.8-2.2C60.9,72.1,58.7,71.2,56.4,70.5z"/>
	</g>
	
		<linearGradient id="SVGID_12_" gradientUnits="userSpaceOnUse" x1="88.9195" y1="326.4214" x2="311.4056" y2="326.4214" gradientTransform="matrix(1 0 0 -1 0 518.2001)">
		<stop  offset="0" style="stop-color:#DBE8F9"/>
		<stop  offset="1" style="stop-color:#A8C8ED"/>
	</linearGradient>
	<path class="st13" d="M220.9,106.3c0,0-27.9,4.5-44.2,14.3c-16.3,9.7-38.2,19.2-38.2,19.2s-18-25.2-31.5-31.9
		c0,0-1.9,14.9-18.1,16.6c0,0,11.3,24,31.2,41.3c3.6,3.2,7.6,6.1,11.8,8.6c0,0,9,6.3,52.4-13.3c0,0-1.2,9.8-2.4,19.5
		s-18.5,27.1-24,30.7s-13.6,7.6-9.5,20.6s20,32.6,28.8,36.3s43.4,16.4,51.7,11.4s3.5-20.9,12.1-26.1c8.6-5.2,3.5-11.4,8.6-20.6
		c5.2-9.2,17.4-41.1,18.1-50.8c0,0,7.4,13.6,9.7,23.3c0,0-5,28.9-3.5,37.5c0,0,8.1,11.1,28.5,6.2c0,0,10.5-33.7,8.8-45.6
		s-8.8-61-25.6-80.5C268.8,103.4,243.1,98.6,220.9,106.3z"/>
	
		<linearGradient id="SVGID_13_" gradientUnits="userSpaceOnUse" x1="182.5195" y1="336.1" x2="266.4195" y2="336.1" gradientTransform="matrix(1 0 0 -1 0 518.2001)">
		<stop  offset="0" style="stop-color:#243682"/>
		<stop  offset="1" style="stop-color:#13003A"/>
	</linearGradient>
	<path class="st14" d="M184.2,161c0,0-0.8,6.6-1.7,14.3c0,0,34.2,30.4,77.4,33.5c2.6-7.1,5-14.3,6.5-19.8c0,0-52-6.1-81.1-33.6
		C185.3,155.4,184.6,158.3,184.2,161z"/>
	<path class="st1" d="M185.2,45.4c0,0-2.1,8.7-1.5,19.2c0,0-8.9,12.1-9.4,14.2s10.4,0.7,10.9,1.9c0.5,1.2,6.5,21.2,11.8,23.8
		c5.3,2.6,16.2-1.7,16.2-1.7s3.5,10.8-0.9,17s4.9,13.5,20.1,4.7s10.7-25.2,9.8-27.3c-0.9-2.1-5.5-15.2-5.4-19.7c0,0,5.4-0.2,7.4-8.1
		c2.1-7.9-3.6-14.7-9.5-10.5c-5.9,4.1-2.8,9-6.7,10.5c-4,1.6-6.7-11.2-4.7-16.1c0,0-7.1-1.4-9.1-8.6c0,0-11.1,0.9-13-6.4
		C201.2,38.3,197,47.5,185.2,45.4z"/>
	<path class="st15" d="M239.2,62.6c-1.1,1.3-1.8,2.7-2.2,4.2c-0.2,0.8-0.3,1.5-0.4,2.3c-0.1,0.4-0.1,0.8-0.1,1.2
		c0,0.4,0,0.8-0.1,1.3c-0.2-0.4-0.3-0.8-0.4-1.2c-0.1-0.4-0.2-0.8-0.2-1.3c-0.1-0.9,0-1.7,0.2-2.6c0.3-0.8,0.6-1.7,1.2-2.4
		C237.7,63.5,238.4,62.9,239.2,62.6z"/>
	
		<linearGradient id="SVGID_14_" gradientUnits="userSpaceOnUse" x1="192.5114" y1="458.6" x2="196.3427" y2="458.6" gradientTransform="matrix(1 0 0 -1 0 518.2001)">
		<stop  offset="0" style="stop-color:#230C12"/>
		<stop  offset="1" style="stop-color:#0B0006"/>
	</linearGradient>
	<ellipse class="st16" cx="194.4" cy="59.6" rx="1.9" ry="4.6"/>
	<g>
		
			<linearGradient id="SVGID_15_" gradientUnits="userSpaceOnUse" x1="-39.4873" y1="61.4919" x2="-24.0492" y2="61.4919" gradientTransform="matrix(0.9626 0.2708 0.2708 -0.9626 212.1609 119.4149)">
			<stop  offset="0" style="stop-color:#230C12"/>
			<stop  offset="1" style="stop-color:#0B0006"/>
		</linearGradient>
		<path class="st17" d="M204.3,54.9c-0.1,0-0.2-0.1-0.2-0.1c-6.7-4.2-12.4-3.6-12.4-3.6c-0.5,0.1-1-0.3-1.1-0.8s0.3-1,0.8-1.1
			c0.3,0,6.3-0.8,13.7,3.8c0.4,0.3,0.6,0.9,0.3,1.3C205.2,54.9,204.7,55.1,204.3,54.9z"/>
	</g>
	<path class="st18" d="M212.2,119.8c4.4-6.2,0.9-17,0.9-17s9.5-5.1,13.5-8.9C226.6,93.9,229.7,112.8,212.2,119.8z"/>
	
		<linearGradient id="SVGID_16_" gradientUnits="userSpaceOnUse" x1="185.6865" y1="428.4582" x2="230.4485" y2="428.4582" gradientTransform="matrix(1 0 0 -1 0 518.2001)">
		<stop  offset="0" style="stop-color:#230C12"/>
		<stop  offset="1" style="stop-color:#0B0006"/>
	</linearGradient>
	<path class="st19" d="M186.3,84.1c0,0-1.1,4.1-0.4,8.1c0,0,0.7-1.1,1-1.3c0.3-0.2-0.3,0.2-0.3,0.2s0.9,4.3,3.8,9.1
		c0,0,0.1-0.9,0.4-1.5c0,0,3.4,8.6,10.5,9.4c0,0,0-0.7,0.7-1.2s16.9-0.8,23.8-9.2c6.8-8.4,4.1-23.5,4.1-23.5s-1.6-6.9-9.6,0.9
		s-13,6.3-13,6.3s1.3-0.4,2.4-1.6c0,0-5.1,0.6-7-0.3c-2.2-1-5.1,1.1-6.8,1.8c-2.6,1.2-6.8-1.7-9.4,2.8"/>
	<g>
		<path class="st1" d="M195.5,90.8c-0.5,0-1,0-1.4,0c-0.5,0-0.9,0-1,0c-0.3,0-0.5-0.1-0.6-0.4c0-0.3,0.1-0.5,0.4-0.6
			c0.3-0.1,0.7,0,1.3,0c2.2,0.1,6.7,0.3,10.9-3.8c0.2-0.2,0.5-0.2,0.7,0s0.2,0.5,0,0.7C202,90.3,198.1,90.8,195.5,90.8z"/>
	</g>
	<path class="st18" d="M138.5,139.7c1,1.1,1.8,2.4,2.3,3.8c0.6,1.4,1,2.8,1.2,4.3s0.3,3,0,4.5c-0.2,1.5-0.7,3-1.4,4.3
		c0.1-1.5,0.2-2.9,0.2-4.3s-0.1-2.8-0.4-4.2C140.1,145.3,139.4,142.5,138.5,139.7z"/>
	<path class="st18" d="M120.1,165.7c3.6,3.2,7.6,6.1,11.8,8.6c0,0,9,6.3,52.4-13.3c0,0,2.4-18.7,12.8-30.1c0,0-13.9,6.6-21.9,17.3
		C167.1,158.9,135.3,174.6,120.1,165.7z"/>
	<path class="st18" d="M177.2,268.1c8.8,3.6,43.4,16.4,51.7,11.4s3.5-20.9,12.1-26.1c8.6-5.2,3.5-11.4,8.6-20.6
		c5.2-9.2,17.4-41.1,18.1-50.8c0,0-5.4-15.7-7.8-25.4c-2.4-9.7-2.1,11.7-6.5,16.9s-10.7,21.1-14.2,40.4
		c-3.5,19.3-11.1,28.3-19.7,34.2C210.9,254.1,202.6,267.2,177.2,268.1z"/>
	<path class="st18" d="M283.4,208.7c1.6,0.9,3.2,1.6,4.8,2.2s3.3,1.1,5,1.4s3.4,0.5,5.1,0.5c1.7,0.1,3.5-0.1,5.3-0.3
		c-1.6,0.8-3.4,1.3-5.2,1.5s-3.7,0.1-5.5-0.2c-1.8-0.3-3.6-1-5.2-1.8C286.1,211.2,284.6,210.1,283.4,208.7z"/>
	<path class="st20" d="M112.9,326.3c-4.4-5.6-10.5-6.7-12.7-10.7c-1.3-2.5,2.4-6,4.4-7.9c7.6-7.3,11.1-7.4,35.3-18.6
		c0,0,8.2-7.7,11.9-15.5c0,0-24.1,11.4-45.9,18.1c-21.8,6.7-26.2,15-25.9,20.2c0.3,5.2,11,13,8.8,22.8c-2.1,9.8-10.8,10.4-10.7,29.7
		c2.3,2.7,4.8,5.4,7.5,8.1C85.7,372.6,97.1,350.8,112.9,326.3z"/>
	<path class="st20" d="M125.4,403.2c3,1.9,34,25.2,37,26.9c0,0,17.2-10.8,18.9-23.1c0,0-8-2.1-14.3-15.3c-7.9-16.5-17-24.4-17-24.4
		s-14.8,14.3-16.1,18.2C132.6,389.5,125.4,403.2,125.4,403.2z"/>
</g>
</svg>
