<?xml version="1.0" encoding="utf-8"?>
<!-- Generator: Adobe Illustrator 22.1.0, SVG Export Plug-In . SVG Version: 6.00 Build 0)  -->
<svg version="1.1" id="Capa_1" xmlns="http://www.w3.org/2000/svg" xmlns:xlink="http://www.w3.org/1999/xlink" x="0px" y="0px"
	 viewBox="0 0 376.6 455.2" style="enable-background:new 0 0 376.6 455.2;" xml:space="preserve">
<style type="text/css">
	.st0{fill:url(#SVGID_1_);}
	.st1{fill:url(#SVGID_2_);}
	.st2{fill:url(#SVGID_3_);}
	.st3{fill:url(#SVGID_4_);}
	.st4{fill:url(#SVGID_5_);}
	.st5{opacity:7.000000e-02;fill:#0F0038;enable-background:new    ;}
	.st6{fill:url(#SVGID_6_);}
	.st7{fill:url(#SVGID_7_);}
	.st8{fill:url(#SVGID_8_);}
	.st9{fill:url(#SVGID_9_);}
	.st10{fill:url(#SVGID_10_);}
	.st11{opacity:4.000000e-02;fill:#0F0038;enable-background:new    ;}
	.st12{fill:url(#SVGID_11_);}
	.st13{fill:#13003A;}
	.st14{opacity:0.15;fill:#0F0038;enable-background:new    ;}
	.st15{fill:url(#SVGID_12_);}
	.st16{fill:url(#SVGID_13_);}
	.st17{fill:url(#SVGID_14_);}
	.st18{fill:#86535E;}
	.st19{fill:url(#SVGID_15_);}
	.st20{opacity:0.1;fill:#0F0038;enable-background:new    ;}
	.st21{opacity:0.3;fill:#0F0038;enable-background:new    ;}
	.st22{fill:url(#SVGID_16_);}
	.st23{fill:url(#SVGID_17_);}
	.st24{fill:url(#SVGID_18_);}
	.st25{fill:#560C10;}
	.st26{fill:none;}
	.st27{fill:#F0F0F3;}
	.st28{fill:#72393C;}
</style>
<g>
	<g>
		
			<linearGradient id="SVGID_1_" gradientUnits="userSpaceOnUse" x1="302.2833" y1="-71.3218" x2="358.7433" y2="-71.3218" gradientTransform="matrix(0.9709 -0.2397 -0.2397 -0.9709 -304.9962 368.8315)">
			<stop  offset="0" style="stop-color:#E6C1AA"/>
			<stop  offset="1" style="stop-color:#CEA28C"/>
		</linearGradient>
		<path class="st0" d="M50.1,332.1c0,0-14.4,7.8-38.5,15.6c0,0-8.5,12.4-2.5,32.4s12.7-14.7,17.3-16.1c4.6-1.4,34-11.4,34-11.4
			S52.8,342.7,50.1,332.1z"/>
		
			<linearGradient id="SVGID_2_" gradientUnits="userSpaceOnUse" x1="311.2848" y1="-75.4029" x2="289.1925" y2="-85.3556" gradientTransform="matrix(0.9709 -0.2397 -0.2397 -0.9709 -304.9962 368.8315)">
			<stop  offset="0" style="stop-color:#243682"/>
			<stop  offset="1" style="stop-color:#13003A"/>
		</linearGradient>
		<path class="st1" d="M14.8,346.6c-3.2,0.7-7.2,40.4,4.1,32.2c0,0-1,13.7-10.5,21.6c-10,8.4-6.1-26.2-7.6-31.1
			C-0.6,364.6-2.3,342.7,14.8,346.6z"/>
	</g>
	<g>
		
			<linearGradient id="SVGID_3_" gradientUnits="userSpaceOnUse" x1="47.017" y1="-305.9992" x2="112.128" y2="-305.9992" gradientTransform="matrix(1 0 0 -1 0 103.5164)">
			<stop  offset="0" style="stop-color:#E6C1AA"/>
			<stop  offset="1" style="stop-color:#CEA28C"/>
		</linearGradient>
		<path class="st2" d="M94.2,371.5c0,0-16.6,14.9-23.7,20.5c-7.6,6-17.9,9.4-17.9,9.4s-10,45.4-3.3,46.2
			c6.6,0.8,15.2-31.1,20.3-33.7c5-2.6,39.5-20.2,42.5-22.2C112.1,391.7,103.9,390.5,94.2,371.5z"/>
		
			<linearGradient id="SVGID_4_" gradientUnits="userSpaceOnUse" x1="37.9407" y1="-324.2901" x2="57.0398" y2="-324.2901" gradientTransform="matrix(1 0 0 -1 0 103.5164)">
			<stop  offset="0" style="stop-color:#243682"/>
			<stop  offset="1" style="stop-color:#13003A"/>
		</linearGradient>
		<path class="st3" d="M43.3,411.2c0.1-2,0.6-4,1.5-5.9c1.4-2.7,5-6.2,8.9-4.3c6.7,3.3-2.2,36.6,3.3,37.6c0,0-4.1,10.1-10,14.6
			c-7.4,5.7-10.7-2-8.4-5.5s4.3-10,4.4-21.2C43.2,416.5,43,415.8,43.3,411.2z"/>
	</g>
	
		<linearGradient id="SVGID_5_" gradientUnits="userSpaceOnUse" x1="174.0006" y1="-39.5703" x2="78.3616" y2="-239.698" gradientTransform="matrix(1 0 0 -1 0 103.5164)">
		<stop  offset="0" style="stop-color:#84B3E4"/>
		<stop  offset="1" style="stop-color:#5796DA"/>
	</linearGradient>
	<path class="st4" d="M155.6,191.4c0,0-6.3,9-15.5,16.2s-17.5,16.9-21.3,50.4s-23.5,42.8-23.5,42.8S62,315.3,40.5,334.6
		c0,0-5,14.1,7,24.5c0,0,67.6-12.7,87.9-47.9C155.8,276,155.6,191.4,155.6,191.4z"/>
	<path class="st5" d="M108.1,299.7c1.6,1.5,3,2.9,4.4,4.3c0.7,0.7,1.5,1.3,2.3,1.9c0.8,0.6,1.6,1.2,2.5,1.8c-1.1,0-2.2-0.3-3.2-0.8
		s-1.9-1.1-2.7-1.8c-0.8-0.7-1.5-1.6-2.1-2.5C108.9,301.7,108.4,300.8,108.1,299.7z"/>
	
		<linearGradient id="SVGID_6_" gradientUnits="userSpaceOnUse" x1="154.2031" y1="-85.6506" x2="202.3253" y2="-85.6506" gradientTransform="matrix(1 0 0 -1 0 103.5164)">
		<stop  offset="0" style="stop-color:#DDB4CD"/>
		<stop  offset="1" style="stop-color:#D44D98"/>
	</linearGradient>
	<path class="st6" d="M187.8,171.9c0,0-11.7-4.1-19.6,2.4c0,0-1.4,3.7,3.3,7.6c0,0,34.1,27.7,44.6,25.8
		C216.6,207.5,210.3,175,187.8,171.9z"/>
	
		<linearGradient id="SVGID_7_" gradientUnits="userSpaceOnUse" x1="160.2513" y1="-89.0412" x2="218.108" y2="-89.0412" gradientTransform="matrix(1 0 0 -1 0 103.5164)">
		<stop  offset="0" style="stop-color:#E6C1AA"/>
		<stop  offset="1" style="stop-color:#CEA28C"/>
	</linearGradient>
	<path class="st7" d="M181.5,167.8c0,0-13.1,14.9-21.2,21.4c0,0,19.8,33.4,49.1,27.5c0,0,5.1-9.6,8-13.2
		C220.3,199.8,215.2,171.8,181.5,167.8z"/>
	<g>
		
			<linearGradient id="SVGID_8_" gradientUnits="userSpaceOnUse" x1="321.3178" y1="-117.841" x2="341.3783" y2="-117.841" gradientTransform="matrix(1 0 0 -1 0 103.5164)">
			<stop  offset="0" style="stop-color:#E6C1AA"/>
			<stop  offset="1" style="stop-color:#CEA28C"/>
		</linearGradient>
		<path class="st8" d="M328.4,219.5c0,0,10.5-4.4,13.1-4.3c2.6,0.1,0.4,5.1-19.2,12.4L328.4,219.5z"/>
		
			<linearGradient id="SVGID_9_" gradientUnits="userSpaceOnUse" x1="325.9079" y1="-114.0358" x2="343.9121" y2="-114.0358" gradientTransform="matrix(1 0 0 -1 0 103.5164)">
			<stop  offset="0" style="stop-color:#E6C1AA"/>
			<stop  offset="1" style="stop-color:#CEA28C"/>
		</linearGradient>
		<path class="st9" d="M330.6,216.3c0,0,9.7-6,12.3-6.3s1.2,5-17,15.2L330.6,216.3z"/>
		
			<linearGradient id="SVGID_10_" gradientUnits="userSpaceOnUse" x1="201.4633" y1="-77.9078" x2="339.505" y2="-77.9078" gradientTransform="matrix(1 0 0 -1 0 103.5164)">
			<stop  offset="0" style="stop-color:#E6C1AA"/>
			<stop  offset="1" style="stop-color:#CEA28C"/>
		</linearGradient>
		<path class="st10" d="M303.1,239.6c3.2,2.5,6.3,4,16.2,3.6c9.9-0.3,15.7-2.7,13.8-5.1c-1.9-2.4-7.7,1.4-10-3.4
			c-2.4-4.8,11.2-17.7,13.1-20.1c1.9-2.4,4.9-6,2.2-7.7s-18.2,24-31,17.7s-40.8-36.5-40.8-36.5s-10.3-11.6-13.3-19.4
			c-3.1-8.1-9.8-27.4-9.8-27.4s1.3-22.6-20.1-21.6c-21.5,1-22.3,15-21.9,18.8c0,0,9.6-0.2,13.9,13.7c4.3,13.9,16.3,34.9,19.5,39.2
			c0,0,34.2,32.9,58.2,41.8c2.5,0.9,4.9,2.4,7,4.1C300.8,238,301.8,238.7,303.1,239.6z"/>
		<path class="st11" d="M293.1,233.2c-24-8.9-58.2-41.8-58.2-41.8c-3.1-4.3-15.1-25.3-19.5-39.2c-4.3-13.9-13.9-13.7-13.9-13.7
			c-0.4-3.7,0.5-17.8,21.9-18.8c21.5-1,20.1,21.6,20.1,21.6s6.7,19.3,9.8,27.4c0.9,2.4,2.6,5.2,4.4,7.9c0,0-11.3,7.2-6.3,21.2
			S293.1,233.2,293.1,233.2z"/>
	</g>
	
		<linearGradient id="SVGID_11_" gradientUnits="userSpaceOnUse" x1="224.5667" y1="29.6372" x2="281.8449" y2="29.6372" gradientTransform="matrix(1 0 0 -1 0 103.5164)">
		<stop  offset="0" style="stop-color:#E6C1AA"/>
		<stop  offset="1" style="stop-color:#CEA28C"/>
	</linearGradient>
	<path class="st12" d="M242,30.2c0,0,13.3-3.5,22.1,12.8c8.3,15.4,11.1,15,16.8,16.4c0.6,0.2,1,0.7,1,1.4c-0.2,1.6-0.9,4.5-4.1,7.4
		c0,0,0.8-0.1,2.8,9c2.1,9.7-2.8,13.4-5.9,14.4c-5,1.7-13.6,5.8-15.5,17.2c0,0-13.6,7.8-23.7,9c-5.7,0.7-10.3-0.8-10.7-7.1
		c0,0,11.9-9.2,10-22.5c0,0-14.3-13.1-9-23C231.1,55.4,242,30.2,242,30.2z"/>
	<ellipse transform="matrix(0.8975 -0.441 0.441 0.8975 2.565 121.7954)" class="st13" cx="263.3" cy="55.4" rx="1.4" ry="3.2"/>
	<g>
		<path class="st13" d="M256.9,57.1c-0.4,0-0.8-0.3-0.8-0.8c0-8.8,4.5-10.1,4.6-10.1c0.4-0.1,0.8,0.1,1,0.6c0.1,0.4-0.1,0.8-0.5,0.9
			c-0.1,0-3.5,1.2-3.5,8.6C257.7,56.8,257.3,57.1,256.9,57.1z"/>
	</g>
	<path class="st14" d="M234,73.9c0.3-0.4,0.7-0.7,1.2-1c0.4-0.3,1-0.4,1.5-0.5s1.1,0,1.6,0.3c0.5,0.2,0.9,0.6,1.3,1l0.3,0.3
		l-0.4,0.3c-0.3,0.2-0.7,0.5-0.8,0.8c-0.2,0.3-0.1,0.6,0.2,0.9c0.5,0.6,1.4,1.1,2.1,1.7c0.4,0.3,0.7,0.6,1,1
		c0.2,0.2,0.3,0.4,0.4,0.7c0.1,0.3,0,0.6-0.1,0.8c-0.3,0.5-0.7,0.7-1.2,0.9c-0.4,0.2-0.9,0.4-1.3,0.5c0.8-0.4,1.7-0.9,2.1-1.6
		c0.1-0.3,0-0.7-0.3-1s-0.6-0.6-1-0.9l-1.1-0.8c-0.4-0.3-0.8-0.6-1.1-1s-0.5-1.2-0.2-1.7s0.7-0.9,1.1-1.1l-0.1,0.5
		c-0.3-0.3-0.6-0.7-1-0.9s-0.8-0.4-1.3-0.3C235.8,72.9,234.8,73.3,234,73.9z"/>
	<path class="st14" d="M243.3,84.6c1.8,1.3,3.6,2.5,5.5,3.4c0.9,0.5,1.9,0.9,2.9,1.2c1,0.4,2.1,0.6,3.1,0.9
		c-1.1,0.1-2.2,0.1-3.3-0.1c-1.1-0.2-2.2-0.6-3.2-1.1s-2-1.1-2.8-1.9C244.6,86.4,243.8,85.6,243.3,84.6z"/>
	<path class="st5" d="M235.4,117.8c-5.7,0.7-10.3-0.8-10.7-7.1c0,0,11.9-9.2,10-22.5c0,0,5.2-0.5,8.6-3.6
		C243.3,84.6,232.2,106.2,235.4,117.8z"/>
	
		<linearGradient id="SVGID_12_" gradientUnits="userSpaceOnUse" x1="168.2838" y1="-52.8757" x2="259.7837" y2="-52.8757" gradientTransform="matrix(1 0 0 -1 0 103.5164)">
		<stop  offset="0" style="stop-color:#DDB4CD"/>
		<stop  offset="1" style="stop-color:#D44D98"/>
	</linearGradient>
	<path class="st15" d="M227.4,108.2c0,0,5.6,4.9,15.8,0s16.4-2.1,16.4-2.1s-15,14.3-3.6,42c0,0,4,21.2-5.6,28.4
		c-9.6,7.1-22.8,7.9-28.5,21.2s-6.1,9.3-6.1,9.3s-19-40.9-47.7-32.8C168.3,174.3,204.2,114.6,227.4,108.2z"/>
	<path class="st5" d="M198.9,183.6c-8-7.4-18.5-12.8-30.7-9.4c0,0,35.9-59.7,59.2-66.1c0,0,2.6,2.3,7.5,2.2c0,0-9.8,5.3-19.8,12.8
		c-7.4,5.6-16.7,17.4-22,28c-2.4,4.8-2.5,10.4,1.1,14.3C197.4,169.1,200.4,174.9,198.9,183.6z"/>
	
		<linearGradient id="SVGID_13_" gradientUnits="userSpaceOnUse" x1="77.6671" y1="-193.1956" x2="210.228" y2="-193.1956" gradientTransform="matrix(1 0 0 -1 0 103.5164)">
		<stop  offset="0" style="stop-color:#84B3E4"/>
		<stop  offset="1" style="stop-color:#5796DA"/>
	</linearGradient>
	<path class="st16" d="M186.5,194.6c0,0-23.1-11.6-30.9-3.3c0,0-1.9,6.9-7.1,12.4c-5.2,5.5-18.5,20.6-19.2,41.6s4.8,66,3.3,78.1
		c-1.6,12.1-22.5,17.4-35.8,36.3s-19.1,24.6-19.1,24.6s-1.6,17.8,11.6,20.9c0,0,47.7-19.9,68.9-44.2c21.2-24.4,40.4-80.5,43.5-122
		c0,0,2.2-13.2,8.5-20.2C210.2,218.8,203.7,201.7,186.5,194.6z"/>
	<path class="st14" d="M157.8,197.9c3.2,0,6.4,0.3,9.5,0.9c3.2,0.6,6.3,1.5,9.3,2.6c3,1.2,5.9,2.6,8.6,4.4c2.7,1.8,5,4.1,7,6.6
		c-2.4-2.1-4.9-4-7.6-5.6c-2.7-1.5-5.6-2.9-8.5-4s-5.9-2-9-2.9C164,199.2,160.9,198.4,157.8,197.9z"/>
	<path class="st14" d="M196.1,221.4c0.7,0.9,1,2,1.1,3.1c0,1.1-0.1,2.3-0.5,3.3c-0.7,2.2-2,4-3.5,5.7c-0.8,0.8-1.5,1.6-2.4,2.3
		c-0.9,0.6-1.7,1.4-2.6,1.9c-0.9,0.6-1.8,1.2-2.8,1.7s-1.9,1-2.9,1.4c0.8-0.7,1.7-1.4,2.5-2c0.9-0.6,1.6-1.4,2.5-2
		c1.6-1.4,3.2-2.8,4.6-4.3c1.4-1.5,2.6-3.2,3.5-5C196.4,225.6,196.9,223.5,196.1,221.4z"/>
	<g>
		
			<linearGradient id="SVGID_14_" gradientUnits="userSpaceOnUse" x1="245.2439" y1="-11.1167" x2="363.096" y2="59.2257" gradientTransform="matrix(1 0 0 -1 0 103.5164)">
			<stop  offset="0" style="stop-color:#E6C1AA"/>
			<stop  offset="1" style="stop-color:#CEA28C"/>
		</linearGradient>
		<path class="st17" d="M360.1,52.8c0,0-38.3,53.8-42.7,56.8s-33.2,21.1-47.2,25s-14.1,13.5-14.1,13.5c-3.8,0.3-17.7-1-18.1-22.5
			c-0.3-21.5,22.2-19.4,22.2-19.4s18-5.4,25.5-9.8c7.5-4.4,22-11.7,22-11.7s15.8-18.3,38.9-39.2c0,0-1.3-29.1,6.1-23.2
			c0,0,12.3-23.8,17.7-20.9c0,0,1.5-2.2,3.6-1c1.9,1,1.1,3.1,1.1,3.1s3.3,0,0,6c0,0-3.6,6.1-4.9,9.1c0,0-1.2,3.1-1.2,3.7
			s5.2-10.2,7.1-7.1c1.3,2.2-3.9,7.5-5.9,17.2C368.2,42,364.7,49.6,360.1,52.8z"/>
		<g>
			<path class="st18" d="M352.8,22.2c-0.2,1.1-0.6,2.2-0.9,3.3c-0.4,1.1-0.7,2.1-1.2,3.2c0-0.6,0.1-1.2,0.2-1.7
				c0.1-0.6,0.3-1.1,0.5-1.7C351.7,24.2,352.2,23.2,352.8,22.2z"/>
			<path class="st18" d="M375.3,3.4c-1,1.4-2,2.8-2.9,4.2c-0.9,1.4-1.9,2.9-2.7,4.3c-0.9,1.5-1.7,3-2.5,4.5s-1.5,3.1-2.2,4.6
				c0.5-1.6,1.1-3.2,1.9-4.8c0.7-1.6,1.5-3.1,2.4-4.6s1.8-2.9,2.8-4.3C373,6,374.1,4.6,375.3,3.4z"/>
			<path class="st18" d="M370.5,1.3c-2,2.9-3.9,5.9-5.8,8.9c-0.9,1.5-1.8,3-2.7,4.6c-0.9,1.5-1.6,3.1-2.4,4.7
				c1.2-3.4,2.8-6.5,4.7-9.6c0.9-1.5,1.9-3,2.9-4.4C368.3,4.1,369.4,2.7,370.5,1.3z"/>
		</g>
	</g>
	<path class="st14" d="M307.8,84.6c0.8-0.1,1.6,0.1,2.4,0.3c0.8,0.3,1.5,0.7,2.1,1.2s1.2,1.1,1.6,1.9c0.4,0.7,0.6,1.5,0.7,2.3
		c-0.5-0.7-0.9-1.3-1.4-1.8c-0.5-0.6-1-1.1-1.6-1.5C310.5,86,309.2,85.3,307.8,84.6z"/>
	<path class="st5" d="M135.5,326.7c1.6,1.5,3,2.9,4.4,4.3c0.7,0.7,1.5,1.3,2.3,1.9c0.8,0.6,1.6,1.2,2.5,1.8c-1.1,0-2.2-0.3-3.2-0.8
		s-1.9-1.1-2.7-1.8c-0.8-0.7-1.5-1.6-2.1-2.5C136.2,328.7,135.7,327.7,135.5,326.7z"/>
	<g>
		
			<linearGradient id="SVGID_15_" gradientUnits="userSpaceOnUse" x1="150.8401" y1="6.16" x2="214.1494" y2="6.16" gradientTransform="matrix(1 0 0 -1 0 103.5164)">
			<stop  offset="0" style="stop-color:#403762"/>
			<stop  offset="1" style="stop-color:#2F2A4A"/>
		</linearGradient>
		<path class="st19" d="M151.1,120.6c0,0-1.1,4.2,1,8.6c2.5,5.3,16.9,13.2,40.6-1.1c0,0-5,5.1-8.9,7.3c0,0,29.7-5.9,30.3-25.1
			c0.6-19.3-11.7-37.6-1.4-43.1c0,0,2.4-8.7-7.4-8.6c0,0-39-1.8-38.2,41.2c0,0,3-9.6,5.3-12.4c0,0-1.5,7.9,0.6,17.3
			s0.7,18.2-8.8,21.8C154.7,130,151.8,124.6,151.1,120.6z"/>
		<path class="st20" d="M152.1,129.2c2.5,5.3,16.9,13.2,40.6-1.1c0,0-5,5.1-8.9,7.3c0,0,29.7-5.9,30.3-25.1
			c0.6-19.3-11.7-37.6-1.4-43.1c0,0,2.4-8.7-7.4-8.6l0.4,4.5c0,0-14.6,0.3-13.6,24.4C193.1,111.6,179.4,137,152.1,129.2z"/>
		<path class="st21" d="M202.7,67.4c-2.1,3.1-3.4,6.5-3.9,10s0,7.1,1,10.6s2.5,6.9,3.2,10.6c0.4,1.8,0.5,3.7,0.3,5.6
			c-0.2,1.9-0.6,3.7-1.2,5.4c0.2-1.8,0.5-3.6,0.4-5.5c0-1.8-0.3-3.6-0.8-5.3c-0.9-3.5-2.5-6.8-3.5-10.4c-1.1-3.6-1.6-7.5-0.7-11.2
			C198.3,73.5,200.1,70.1,202.7,67.4z"/>
		<path class="st21" d="M207.8,67.9c-0.6,1.5-1,2.9-1.4,4.4s-0.7,2.9-0.9,4.4c-0.1,0.7-0.2,1.5-0.3,2.2l-0.1,1.1
			c0,0.4,0,0.8-0.1,1.1c-0.1,0.8-0.1,1.5-0.1,2.3s0,1.5-0.1,2.3c-0.3-0.7-0.5-1.5-0.7-2.3c-0.1-0.8-0.3-1.6-0.3-2.3
			c-0.2-1.6-0.1-3.2,0.1-4.8c0.3-1.6,0.6-3.1,1.3-4.6C205.8,70.4,206.6,69,207.8,67.9z"/>
		
			<linearGradient id="SVGID_16_" gradientUnits="userSpaceOnUse" x1="202.6876" y1="41.2864" x2="212.8841" y2="41.2864" gradientTransform="matrix(1 0 0 -1 0 103.5164)">
			<stop  offset="0" style="stop-color:#DDB4CD"/>
			<stop  offset="1" style="stop-color:#D44D98"/>
		</linearGradient>
		<path class="st22" d="M211.5,54.3c0,0-7.5-1.4-8.7,4.3s5.6,13.9,8.7,11.3S211.5,54.3,211.5,54.3z"/>
	</g>
	
		<linearGradient id="SVGID_17_" gradientUnits="userSpaceOnUse" x1="209.4863" y1="47.5856" x2="266.6288" y2="47.5856" gradientTransform="matrix(1 0 0 -1 0 103.5164)">
		<stop  offset="0" style="stop-color:#403762"/>
		<stop  offset="1" style="stop-color:#2F2A4A"/>
	</linearGradient>
	<path class="st23" d="M243.3,84.6c0,0-5.9,13-20.1,3.5c-15-10.1-13.9-29.5-13.6-32.9c0-0.3,0.1-0.7,0.2-1c1.1-3.8,9.4-30,32.4-33.4
		c24.9-3.6,24.4,16.7,24.4,16.7s-2.3-1.2-3.9-1.6c0,0-2.2,8.7-17.1,14c0,0,3.1,12.3-6.3,17.5c0,0-10.5-1.9-9.8,7.5
		C230.1,84.5,242,85.1,243.3,84.6z"/>
	<path class="st20" d="M242.2,20.9c-23,3.4-31.3,29.6-32.4,33.4c-0.1,0.3-0.2,0.6-0.2,1c-0.3,3.4-1.4,22.8,13.6,32.9
		c14.2,9.5,20.1-3.5,20.1-3.5s-11.5,3.8-17.9-5.4C219,69.9,214.2,39.4,242.2,20.9z"/>
	
		<linearGradient id="SVGID_18_" gradientUnits="userSpaceOnUse" x1="232.3454" y1="53.5081" x2="246.4335" y2="53.5081" gradientTransform="matrix(1 0 0 -1 0 103.5164)">
		<stop  offset="0" style="stop-color:#DDB4CD"/>
		<stop  offset="1" style="stop-color:#D44D98"/>
	</linearGradient>
	<path class="st24" d="M246,55.9c0,0-10.9,0.2-13.7-11.7c0,0,5.1,5,13.3,5.8C245.6,50.1,247.1,52.7,246,55.9z"/>
	<path class="st14" d="M255.6,176.7c-1.2,0.9-2.2,1.8-3.2,2.8c-0.5,0.5-1,1-1.5,1.5s-1,1-1.5,1.5c0.4-1.5,1.3-2.7,2.3-3.8
		c0.5-0.5,1.1-1,1.8-1.4C254.1,177,254.9,176.7,255.6,176.7z"/>
	<g>
		<path class="st25" d="M275.2,72.7c0,0-4,2.7-10.6,3.1c0,0,1.1,5.9,11.6,2.6C276.3,78.4,274.9,76.6,275.2,72.7z"/>
		<g>
			<path class="st26" d="M265.2,77c0.3,0.4,0.7,0.8,1.2,1.2c1.7-0.5,5-1.1,7.5,0.8c0.7-0.2,1.5-0.3,2.3-0.6c0,0-0.9-1.3-1-4
				C272,76.5,267.2,76.9,265.2,77z"/>
			<path class="st27" d="M275.2,72.7c0,0-4,2.7-10.6,3.1c0,0,0.1,0.6,0.6,1.2c2-0.1,6.8-0.5,10-2.6
				C275.2,73.9,275.2,73.3,275.2,72.7z"/>
			<path class="st28" d="M266.4,78.2c1.3,0.9,3.6,1.6,7.5,0.8C271.4,77.1,268.1,77.7,266.4,78.2z"/>
		</g>
	</g>
</g>
</svg>
