<?xml version="1.0" encoding="utf-8"?>
<!-- Generator: Adobe Illustrator 23.1.1, SVG Export Plug-In . SVG Version: 6.00 Build 0)  -->
<svg version="1.1" id="Capa_1" xmlns="http://www.w3.org/2000/svg" xmlns:xlink="http://www.w3.org/1999/xlink" x="0px" y="0px"
	 viewBox="0 0 1819 1360.27" style="enable-background:new 0 0 1819 1360.27;" xml:space="preserve">
<style type="text/css">
	.st0{fill:#FFFFFF;}
</style>
<title>Group 3</title>
<desc>Created with Sketch.</desc>
<path class="st0" d="M1819,64.53c-7.56-2.91-15.16-5.7-22.84-8.26c-9.36-3.13-18.65-6.51-27.85-10.16
	c-70.15-27.78-203.59-65.78-339.32-24.58c-241.87,68.11-338.13,119.87-609.68,24.45c-282.84-99.38-379.82-3.61-571.03,27.36
	C57.79,104.19,0,63.33,0,63.33L0,1331.4c252.87,94.12,405.38-95.72,785.33-13.97c383.67,82.55,507.73,5.24,705.63-19.21
	c197.9-24.45,328.04,33.18,328.04,33.18l0,0V64.53z"/>
<title>Group 3</title>
<desc>Created with Sketch.</desc>
</svg>
