<?xml version="1.0" encoding="utf-8"?>
<!-- Generator: Adobe Illustrator 23.1.1, SVG Export Plug-In . SVG Version: 6.00 Build 0)  -->
<svg version="1.1" id="Capa_1" xmlns="http://www.w3.org/2000/svg" xmlns:xlink="http://www.w3.org/1999/xlink" x="0px" y="0px"
	 viewBox="0 0 1819 1379" style="enable-background:new 0 0 1819 1379;" xml:space="preserve">
<style type="text/css">
	.st0{filter:url(#Adobe_OpacityMaskFilter);}
	.st1{fill-rule:evenodd;clip-rule:evenodd;fill:#FFFFFF;}
	.st2{mask:url(#mask-2_1_);fill-rule:evenodd;clip-rule:evenodd;fill:#FFFFFF;}
</style>
<title>Group 3</title>
<desc>Created with Sketch.</desc>
<g id="HOME---PROJECTS">
	<g id="PROJECTS" transform="translate(0.000000, -1362.000000)">
		<g id="Group-3" transform="translate(0.000000, 1362.000000)">
			<g id="Clip-2">
			</g>
			<defs>
				<filter id="Adobe_OpacityMaskFilter" filterUnits="userSpaceOnUse" x="0" y="0" width="1819" height="1379">
					<feColorMatrix  type="matrix" values="1 0 0 0 0  0 1 0 0 0  0 0 1 0 0  0 0 0 1 0"/>
				</filter>
			</defs>
			<mask maskUnits="userSpaceOnUse" x="0" y="0" width="1819" height="1379" id="mask-2_1_">
				<g class="st0">
					<polygon id="path-1_1_" class="st1" points="0,0 1822,0 1822,1379 0,1379 					"/>
				</g>
			</mask>
			<path id="Fill-1" class="st2" d="M0,33.47c0,0,142.48,69.8,315,26.59c172.51-43.21,348.44-78.11,509-49.86
				c160.56,28.25,289.05,115.72,548.67,70.85C1632.29,36.18,1819,33.47,1819,33.47v1327.79c0,0-43.69,24.38-250.94-37.67
				c-207.25-62.05-450.94-17.73-628.59,28.81c-105.09,27.53-274.75,28.74-395.8,25.13c-70.27-2.09-140.26-9.33-209.39-21.76
				c-76.44-13.75-208.52-27.81-334.28,5.5V33.47z"/>
		</g>
	</g>
</g>
</svg>
