<?xml version="1.0" encoding="UTF-8"?>
<svg width="218px" height="88px" viewBox="0 0 218 88" version="1.1" xmlns="http://www.w3.org/2000/svg" xmlns:xlink="http://www.w3.org/1999/xlink">
    <!-- Generator: Sketch 49.1 (51147) - http://www.bohemiancoding.com/sketch -->
    <title>Olimpica</title>
    <desc>Created with Sketch.</desc>
    <defs>
        <polygon id="path-1" points="8.08412912e-05 0.462979006 197.963177 0.462979006 197.963177 64.291741 8.08412912e-05 64.291741"></polygon>
        <polygon id="path-3" points="0.00289341691 0.254716675 66.3460044 0.254716675 66.3460044 41.9135484 0.00289341691 41.9135484"></polygon>
        <polygon id="path-5" points="0 87.2 217.148275 87.2 217.148275 0.481767956 0 0.481767956"></polygon>
    </defs>
    <g id="Page-2" stroke="none" stroke-width="1" fill="none" fill-rule="evenodd">
        <g id="8" transform="translate(-318.000000, -1514.000000)">
            <g id="Olimpica" transform="translate(318.231013, 1514.400000)">
                <path d="M63.2978744,54.0536421 C64.583776,50.87437 67.0042402,48.4929418 70.1891121,46.840127 C73.3735021,45.1819868 77.319408,44.2684362 81.5954649,44.0960865 C82.8885962,44.0408958 84.1643764,44.0621975 85.4223238,44.1512771 C88.9252973,44.4001192 92.2128293,45.2032884 94.9832052,46.5859595 C97.7574369,47.9686306 100.022224,49.9216051 101.525977,52.4932958 C101.697559,52.7920031 102.102898,52.9125511 102.442688,52.7668284 C102.771393,52.6211058 102.904417,52.2657554 102.736209,51.97431 C101.108589,49.1774995 98.6264327,47.0429768 95.6430251,45.5625118 C92.6586536,44.0713959 89.1764048,43.2251393 85.5071508,42.964194 C84.189439,42.8712413 82.8534122,42.8538127 81.5048541,42.907551 C77.0466118,43.0915198 72.8857463,44.0408958 69.4724195,45.8113539 C66.0595748,47.5832643 63.4024623,50.1902964 62.0114907,53.6343868 C61.8876239,53.9466497 62.0789668,54.2845714 62.4327344,54.403667 C62.785056,54.5159848 63.1754534,54.3571907 63.2978744,54.0536421" id="Fill-1" fill="#FEFEFE"></path>
                <path d="M67.0448732,54.4399131 C66.4107704,54.4466149 65.8909118,54.7754845 65.6561834,55.2431783 L64.6063858,56.424141 L64.613586,56.6151438 L64.4302195,56.5840281 L63.4149831,57.5112776 L63.7308344,63.9800042 L64.8281537,64.8799676 L65.0115203,64.8459796 L65.0273609,65.0379399 L66.1870824,66.190659 C66.4669324,66.656438 67.0237524,66.9709465 67.6511349,66.9656807 C68.5324464,66.9551492 69.2155109,66.3242174 69.1785496,65.564993 L68.7047726,55.799911 C68.6678113,55.0406865 67.9281048,54.4293816 67.0448732,54.4399131" id="Fill-3" fill="#FEFEFE"></path>
                <path d="M65.7036166,61.2639832 L62.7329915,57.3879181 L62.1748335,57.699396 L62.8487364,57.7026896 C62.8487364,57.7026896 62.8468232,57.6457578 62.8487364,57.543657 C62.8439535,57.2326496 62.8487364,56.5137096 62.8999128,55.8060619 C62.9228705,55.4865853 62.9539589,55.1600511 62.9998743,54.887155 C63.0453113,54.6123769 63.1084448,54.3790037 63.1562733,54.2689043 C63.2892364,53.9734237 63.1156191,53.6403023 62.76408,53.5189106 C62.4168454,53.3984599 62.0270436,53.5419656 61.8936022,53.8369757 C61.7816836,54.0962269 61.7161586,54.3790037 61.6582862,54.7027149 C61.6090229,55.021721 61.5702818,55.3689577 61.5463676,55.7124303 C61.4741467,56.7141471 61.496626,57.6866922 61.496626,57.699396 L61.496626,57.8683092 L64.579648,61.8808224 C64.7872235,62.1480723 65.2052442,62.2294706 65.514216,62.0582048 C65.8265358,61.8874095 65.9107138,61.5331151 65.7036166,61.2639832" id="Fill-5" fill="#FEFEFE"></path>
                <path d="M100.240487,61.3902833 L103.769972,56.3405283 L103.745233,56.1499982 C103.737957,56.1401188 103.64579,55.4565625 103.474555,54.6478678 C103.392575,54.2404626 103.289252,53.8034193 103.169921,53.4063639 C103.043314,53.0078971 102.915251,52.6484772 102.722672,52.3408063 C102.54125,52.0613621 102.125046,51.9489257 101.793247,52.0952341 C101.459023,52.2424833 101.337751,52.5962578 101.519174,52.8742907 C101.611825,53.0107197 101.736492,53.3183907 101.837875,53.6707539 C101.999894,54.2075314 102.135233,54.8600384 102.23128,55.3765869 C102.281244,55.6325089 102.318595,55.856911 102.341879,56.0102761 C102.363223,56.1711682 102.377291,56.2610232 102.377291,56.2610232 L103.061262,56.2055107 L102.470427,55.9067782 L99.0617283,60.7876434 C98.8657536,61.0619128 98.9816891,61.4161578 99.3037862,61.5850475 C99.6350999,61.7478214 100.053729,61.657496 100.240487,61.3902833" id="Fill-7" fill="#FEFEFE"></path>
                <polygon id="Fill-9" fill="#FEFEFE" points="64.8562327 57.3521322 65.3073108 65.038674 65.8170658 65.0238476 65.3746975 57.3303867"></polygon>
                <path d="M97.6247954,53.4763191 C98.2631544,53.4705779 98.8208124,53.7906491 99.0972253,54.2614265 L100.260865,55.4154053 L100.27198,55.6048645 L100.457544,55.573288 L101.559329,56.4847016 L101.848306,62.9497577 L100.830604,63.8702615 L100.640691,63.842034 L100.646007,64.0281442 L99.5867466,65.2046093 C99.3456102,65.6677318 98.8169465,65.9968933 98.1853529,66.002156 C97.2966759,66.0088541 96.553454,65.3907195 96.5181775,64.6252278 L96.084712,54.8671219 C96.0479858,54.1068929 96.7361184,53.4834956 97.6247954,53.4763191" id="Fill-11" fill="#FEFEFE"></path>
                <polygon id="Fill-13" fill="#FEFEFE" points="99.92664 55.9177011 100.752396 63.5933702 101.36789 63.5696478 100.53558 55.8850829"></polygon>
                <g id="Group-17">
                    <mask id="mask-2" fill="white">
                        <use xlink:href="#path-1"></use>
                    </mask>
                    <g id="Clip-16"></g>
                    <path d="M36.6373819,23.5862029 C35.963838,27.7457874 34.1963855,31.1870559 31.3287792,33.9138625 C28.4650162,36.6435598 25.1775258,38.0069631 21.4744752,38.0069631 C17.7003228,38.0069631 14.8327165,36.6517498 12.8827058,33.9495134 C10.9317342,31.2424592 10.297104,27.788183 10.9778542,23.5862029 C11.6446724,19.4492614 13.4150073,16.0147377 16.2826136,13.2792592 C19.1502199,10.5365543 22.433867,9.16736972 26.1441239,9.16736972 C29.7808771,9.16736972 32.6090893,10.543299 34.6181912,13.2917852 C36.6301757,16.0436438 37.3022784,19.4762404 36.6373819,23.5862029 Z M46.9187763,14.6609697 C46.1991123,11.8763509 44.9188022,9.39717304 43.0711202,7.23307138 C41.2224774,5.06656088 38.9477051,3.39868022 36.2525683,2.22412994 C33.554549,1.05006144 30.644666,0.462786298 27.5267627,0.462786298 C24.3896427,0.462786298 21.2928777,1.05006144 18.234546,2.22412994 C15.1786164,3.39868022 12.383553,5.06656088 9.85271867,7.23307138 C7.2392527,9.4188526 5.12638076,11.9018846 3.50737702,14.6797587 C1.88837329,17.4561874 0.826652738,20.4166515 0.315489541,23.5669322 C-0.192791157,26.6936062 -0.0866191019,29.6521432 0.633044873,32.4372438 C1.34886552,35.2281255 2.65896142,37.7145299 4.56525424,39.9022382 C6.39227834,42.0687487 8.64591232,43.7347023 11.3232737,44.912625 C14.0006351,46.0828393 16.9071551,46.6667421 20.047638,46.6667421 C23.1463247,46.6667421 26.2253143,46.0828393 29.2956564,44.912625 C32.3626356,43.7347023 35.1908477,42.0687487 37.7802929,39.9022382 C40.3548451,37.7145299 42.4427354,35.2372791 44.0516504,32.4728946 C45.6557612,29.7017653 46.7174818,26.7360018 47.2329687,23.5669322 C47.7402886,20.4166515 47.636999,17.4513697 46.9187763,14.6609697 Z M131.229957,28.6336857 C130.927295,30.5010183 130.193218,31.9704106 129.036375,33.0461985 C127.879532,34.1210228 126.451254,34.6606029 124.756344,34.6606029 C123.052787,34.6606029 121.809469,34.1210228 121.01438,33.0461985 C120.220251,31.9704106 119.975719,30.5010183 120.278862,28.6336857 C120.578642,26.7644261 121.301669,25.292625 122.444099,24.2187642 C123.58701,23.1424946 125.006641,22.6043598 126.708277,22.6043598 C128.41952,22.6043598 129.678212,23.1424946 130.480988,24.2187642 C131.27992,25.292625 131.530217,26.7644261 131.229957,28.6336857 Z M138.157564,19.2830515 C136.545766,16.9840548 134.069699,15.8350382 130.711588,15.8350382 C129.075289,15.8350382 127.523544,16.2291244 126.05443,17.0197056 C124.588679,17.8102869 123.192108,19.0127797 121.862315,20.6271841 L122.507514,16.6159841 L114.746866,16.6159841 L107.048671,64.1578095 L115.073069,64.291741 L118.855868,40.9264769 C119.01921,39.9306625 119.13451,39.0928681 119.202729,38.4150206 C119.273831,37.728983 119.306979,37.1523067 119.306979,36.67632 C120.020878,38.387078 120.956249,39.6122139 122.100602,40.3599178 C123.248797,41.0999134 124.828887,41.4713565 126.840872,41.4713565 C130.024112,41.4713565 132.792752,40.2895797 135.151117,37.9250625 C137.512364,35.5639178 139.000214,32.4656681 139.619471,28.6404305 C140.256503,24.7014957 139.76792,21.584457 138.157564,19.2830515 Z M163.663838,34.5806294 C161.933859,34.5806294 160.646342,34.0357498 159.799848,32.9469543 C158.956717,31.8499686 158.681439,30.3858758 158.981699,28.5484128 C159.288685,26.6439841 160.023722,25.1418316 161.183928,24.0337653 C162.349899,22.9261808 163.762324,22.3726294 165.428889,22.3726294 C166.261451,22.3726294 167.026754,22.535467 167.728643,22.8645145 C168.434375,23.1969344 169.134342,23.7201344 169.834309,24.4437498 L170.987789,17.3275554 C170.201347,16.8038736 169.343803,16.427131 168.404108,16.1886559 C167.47114,15.9516261 166.395487,15.8350382 165.185798,15.8350382 C161.549525,15.8350382 158.374452,17.0235598 155.666344,19.4034935 C152.964482,21.783909 151.303201,24.8436172 150.700279,28.5927355 C150.073815,32.4497697 150.708446,35.5639178 152.601287,37.9250625 C154.489804,40.2895797 157.271416,41.4713565 160.938916,41.4713565 C162.005921,41.4713565 163.0662,41.3369432 164.118793,41.0676349 C165.171866,40.8041078 166.243675,40.3854515 167.34431,39.81552 L168.529497,32.509509 C167.735849,33.215299 166.942201,33.7356084 166.141347,34.0752548 C165.33761,34.4149012 164.514176,34.5806294 163.663838,34.5806294 Z M100.36992,40.533836 L108.723884,40.533836 L111.027481,26.2975929 C111.397402,24.0231664 111.540566,22.3832283 111.460817,21.3700703 C111.380107,20.3622117 111.108191,19.4762404 110.649873,18.7208283 C110.082021,17.7587377 109.295099,17.037531 108.297274,16.5528725 C107.295605,16.0730316 106.07871,15.8350382 104.645147,15.8350382 C102.833977,15.8350382 101.203923,16.2059996 99.7439376,16.9474404 C98.2839518,17.6864725 96.9680909,18.8133277 95.7939528,20.3318603 C95.5008987,18.8306714 94.7956473,17.7095973 93.6806005,16.9575576 C92.5612299,16.2093719 91.0320641,15.8350382 89.0926225,15.8350382 C87.3237288,15.8350382 85.7239418,16.2310515 84.2990263,17.0269322 C82.8635417,17.822331 81.517895,19.0672194 80.2495953,20.758225 L80.9197764,16.6159841 L72.6662203,16.6159841 L68.7921413,40.533836 L76.9539379,40.533836 L78.5955212,30.379131 C79.1528044,26.9446073 79.8335546,24.6875244 80.6416152,23.6054736 C81.448715,22.5234228 82.6463934,21.9785432 84.2269638,21.9785432 C85.4943027,21.9785432 86.3162954,22.3658846 86.695344,23.1386404 C87.0801577,23.9152504 87.0993743,25.3567001 86.7573177,27.4591355 L84.6410829,40.533836 L92.7601224,40.533836 L94.4041078,30.379131 C94.9541847,26.976404 95.6243658,24.7304018 96.414651,23.6252261 C97.2078187,22.5267951 98.3896434,21.9785432 99.9591642,21.9785432 C101.214973,21.9785432 102.036485,22.3745565 102.417456,23.1632106 C102.800348,23.9557189 102.820045,25.3865697 102.486155,27.4591355 L100.36992,40.533836 Z M142.975661,16.6159841 L139.102543,40.533836 L147.534334,40.533836 L151.403608,16.6159841 L142.975661,16.6159841 Z M188.633969,28.539741 C188.330345,30.410446 187.59723,31.8822471 186.43318,32.9642979 C185.265288,34.041531 183.82644,34.5806294 182.108951,34.5806294 C180.410679,34.5806294 179.154389,34.041531 178.338162,32.9642979 C177.523856,31.8822471 177.266352,30.410446 177.569495,28.539741 C177.872638,26.6492835 178.606715,25.1654382 179.764999,24.0761609 C180.927126,22.992183 182.362611,22.4511576 184.076737,22.4511576 C185.791344,22.4511576 187.051957,22.9970007 187.868665,24.0882051 C188.679608,25.1827819 188.939033,26.667109 188.633969,28.539741 Z M190.185714,16.6159841 L189.553005,20.5211951 C188.884266,18.9260614 187.959944,17.7462117 186.785806,16.9840548 C185.615031,16.2132261 184.129583,15.8350382 182.334266,15.8350382 C178.969909,15.8350382 176.102303,16.9840548 173.739134,19.2830515 C171.375965,21.584457 169.876585,24.6875244 169.245318,28.5927355 C168.612129,32.511436 169.058436,35.6400371 170.58568,37.9727576 C172.109561,40.3074051 174.466004,41.4713565 177.640116,41.4713565 C179.495005,41.4713565 181.177423,41.0854603 182.680166,40.3112592 C184.182429,39.5360946 185.619835,38.3196305 186.990464,36.6589764 L186.027228,42.5958029 L193.75713,42.5856857 L197.963177,16.6159841 L190.185714,16.6159841 Z M74.5926906,5.07137856 L67.9576578,5.07137856 L62.318048,13.3659775 L65.9543208,13.3659775 L74.5926906,5.07137856 Z M147.620809,13.8752062 C148.915531,13.8752062 150.087748,13.4189719 151.140821,12.5065034 C152.195335,11.5906625 152.829965,10.4797056 153.040388,9.17122387 C153.249849,7.8641874 152.98562,6.76768354 152.23617,5.88556641 C151.490083,5.00296751 150.456707,4.56070453 149.132199,4.56070453 C147.855252,4.56070453 146.693124,5.0092305 145.63861,5.91013657 C144.584096,6.80863381 143.956191,7.89453878 143.751534,9.17122387 C143.543513,10.4493543 143.822155,11.5516393 144.584096,12.4814515 C145.349399,13.4122272 146.361637,13.8752062 147.620809,13.8752062 Z M61.6762115,16.6159841 L57.8035738,40.533836 L66.2368057,40.533836 L70.1056001,16.6159841 L61.6762115,16.6159841 Z M52.5233156,3.81974541 L46.5800826,40.533836 L55.0099516,40.533836 L60.9531846,3.81974541 L52.5233156,3.81974541 Z" id="Fill-15" fill="#FEFEFE" mask="url(#mask-2)"></path>
                </g>
                <g id="Group-20" transform="translate(150.850793, 45.286188)">
                    <mask id="mask-4" fill="white">
                        <use xlink:href="#path-3"></use>
                    </mask>
                    <g id="Clip-19"></g>
                    <path d="M61.2629572,13.7283151 C60.4058941,14.7154577 59.4762881,15.910724 58.1147876,15.7449958 C56.3920139,11.8503836 58.5577317,7.74764773 60.9751877,5.36337812 C61.4728992,4.86812066 62.185357,4.52654718 63.3124142,4.59254939 C65.6011186,8.06561459 63.2701375,11.4081207 61.2629572,13.7283151 M52.9474273,7.75102011 C52.1115026,11.1995151 49.4720941,12.6742069 47.2040476,14.5598466 C48.102907,11.6345516 50.0639673,8.93038807 52.9474273,7.75102011 M32.725254,14.5082975 C31.8874075,17.9587196 29.2475187,19.4300389 26.9799526,21.317124 C27.8807336,18.3903836 29.8398723,15.6876654 32.725254,14.5082975 M0.882284973,12.9276168 C0.208740986,16.2272455 1.78162473,18.1143306 3.7037713,18.4154356 C4.89664557,18.6023615 10.8302702,18.3691859 11.5417671,18.8586621 C6.92448378,23.4942334 0.374965108,32.0345339 0.0237806187,37.3696323 C-0.200573905,40.7617604 1.388644,43.1065251 4.49261526,41.2709892 C10.0250921,37.9959306 19.8813178,27.1195372 18.2214787,21.1701848 C17.8832654,19.9619107 17.2130844,18.8976853 16.2522513,18.1268566 C17.8515579,17.8223792 19.368233,15.3629538 20.8210126,15.5253096 C20.4049719,19.9517936 19.3153871,24.9867505 19.1107297,29.372766 C19.0242547,31.2227549 18.9200043,36.3087792 20.634611,36.0524787 C21.9341377,35.8559173 21.1789229,33.2673781 21.0506517,32.022008 C20.5178697,26.8010886 22.4861363,18.8307196 23.0679207,14.4109803 C24.2459021,12.4814997 28.0200544,13.381924 28.74164,10.9552588 C27.5775908,9.80576044 25.0217748,10.9306886 23.7328172,10.7784499 C23.2480769,8.85426873 25.3215547,6.38424442 24.715269,4.31986873 C24.5937237,3.90265768 24.0979338,3.25901569 23.6290472,3.26576044 C22.0523202,3.29996597 21.9850618,10.3116168 21.3677266,11.8961516 C20.2325023,12.6443372 19.1458001,13.1569383 17.6997463,13.9691991 C16.898892,14.4235063 15.6257881,14.991029 14.9608916,15.7339151 C14.4213839,16.1410091 13.9433694,16.5331682 13.698357,16.7807969 C11.1449431,15.4578621 6.30378561,16.147272 4.40614028,15.9218046 C2.98170525,15.7498135 3.28436767,14.1585339 3.44482679,13.523082 C4.64586814,8.79260243 8.64917915,4.75683227 14.6942605,2.98103558 C15.4922323,2.74785989 15.9664035,2.72473503 15.7319602,3.55241238 C15.5412348,4.22303337 15.3029482,4.8464411 14.9839516,5.49056486 C14.3560472,6.83277039 16.4727625,7.79534276 17.2798623,6.99223558 C18.1143458,5.31375602 18.3949091,4.67155934 18.4261361,3.11737591 C18.3838595,1.00578696 17.2659302,-0.0237511602 14.3666164,0.319749392 C7.71092565,1.89850298 2.45564914,6.44591072 0.882284973,12.9276168 M2.67471908,37.9145118 C2.74149698,32.4286201 12.1057761,21.9684743 14.2714939,19.8207527 C19.851532,23.9716654 8.02848098,35.3182643 3.61105091,38.7455615 C2.62667742,39.5082002 2.66222825,39.0355859 2.67471908,37.9145118 M57.9365531,5.65003006 C56.3703952,7.71729635 55.4431913,9.70025326 55.1486959,11.5969737 C54.3939615,12.8264455 53.4240005,14.3049914 52.5755849,15.2704544 C52.2493821,15.6423792 52.0591372,16.0451372 51.7574356,16.3602135 C50.5756109,17.5728234 47.5653209,20.8165671 46.6871194,17.9057251 C46.6851978,17.8667019 46.6803936,17.8281604 46.6770307,17.7891372 C47.1651339,17.8031085 47.4279217,17.5660787 47.8405995,17.5024853 C49.9938265,15.2458842 54.1244479,13.1675372 54.8700543,9.0546842 C55.1309205,7.61997923 54.9003206,6.07446762 54.2248549,5.44672398 C52.7379657,4.06212287 49.492752,6.93731403 48.4257469,8.22845215 C47.8213829,8.9674842 47.5302505,9.86549967 47.029176,10.672461 C46.4454699,11.612872 45.8934713,12.1418533 45.5144227,13.1130975 C45.1300894,14.0925317 44.7366283,15.1220698 44.605955,16.2166466 C44.5165975,16.9807306 44.5747279,17.750114 44.7563254,18.4612035 C43.7104586,19.5292831 43.0383558,19.7788389 42.6367276,18.7473737 C42.3897935,18.4356698 42.5694693,17.2302864 42.9365075,15.7710113 C43.2502195,14.5386488 43.5461561,13.3395284 43.8387298,12.1399262 C44.0774968,8.47945326 43.2079429,7.27888751 41.235833,8.53630188 C39.0172694,9.55813171 37.7369593,10.2870466 37.4338165,10.6156124 C37.2085011,10.3400411 36.8909458,10.1666046 36.5378396,10.1666046 C35.8570894,10.1666046 35.3070125,10.8121737 35.3070125,11.6066091 C35.3070125,12.3123991 35.7917528,13.0615483 36.5661842,13.047577 C37.3949027,16.220019 33.5116959,21.0608234 31.5347818,23.1155638 C30.34479,24.3556345 27.2619571,27.6644168 26.4293952,24.5444875 C26.9319109,24.5676124 27.1985421,24.3252831 27.6179458,24.261208 C29.769251,22.0050886 33.8998724,19.9252964 34.647881,15.8134069 C34.9087472,14.3796654 34.6757451,12.833672 34.0022011,12.2040013 C32.5133903,10.8208455 29.268657,13.6950731 28.2016519,14.9871748 C27.5968074,15.7266886 27.3075967,16.6256676 26.8065222,17.4316654 C26.2213749,18.37304 25.6708175,18.9015394 25.2917689,19.8689295 C24.905514,20.8522179 24.5139745,21.879829 24.3833012,22.973924 C23.9994484,26.1824986 26.3626173,29.6839881 29.1029133,28.2545825 C33.7480608,25.8317715 39.8214867,18.0333936 38.5041845,12.3596124 C39.1974256,11.8431571 39.9877108,11.5232632 41.2627363,10.9571859 C42.3239764,10.2494687 42.461856,10.8246997 42.2624831,12.5079969 C41.8180978,14.3859284 41.5288871,15.1890356 41.0633634,16.9913295 C40.7530143,18.9082842 40.648764,20.1729251 41.3948508,20.8382466 C42.7861371,21.7454157 44.1668543,21.6900124 45.5480518,20.2350731 C46.4204882,21.4920057 47.789195,22.1592544 49.3270083,21.4958599 C51.8809026,20.399356 53.5172014,17.5872765 55.44175,15.3976411 C56.1887977,17.5111571 59.1010828,18.7936234 61.3249309,17.2972522 C62.3650327,16.602061 64.2007043,14.407608 65.2523361,12.5662908 C67.2004252,9.15344663 66.3789129,5.29978475 64.1055819,2.73533392 C61.0515739,0.967245525 59.4042256,4.19653613 57.9365531,5.65003006" id="Fill-18" fill="#FEFEFE" mask="url(#mask-4)"></path>
                </g>
                <path d="M75.309281,58.7958644 C75.309281,58.1906512 75.2140226,57.7164881 75.023039,57.3738517 C74.8325222,57.0302622 74.5995128,56.8587057 74.3263455,56.8587057 C74.0685876,56.8587057 73.8547232,57.0140596 73.6842855,57.3238144 C73.5138477,57.6340457 73.4288623,58.0991544 73.4288623,58.7196171 C73.4288623,59.3448452 73.5171164,59.8228206 73.6936245,60.1535434 C73.8705996,60.4842662 74.0910013,60.649151 74.3548296,60.649151 C74.6284639,60.649151 74.8558699,60.4890316 75.0375145,60.1687929 C75.2186921,59.8485541 75.309281,59.3905935 75.309281,58.7958644 M71.7300883,63.7838694 L73.6628056,63.3945314 C73.7137035,63.827235 73.7996228,64.1322243 73.9200966,64.3099759 C74.0415043,64.4882041 74.1895283,64.5773181 74.3646356,64.5773181 C74.67656,64.5773181 74.9193754,64.3257019 75.0944827,63.821993 C75.2219608,63.4512404 75.3172192,62.6654163 75.3807247,61.465474 C75.1486492,61.8462341 74.9100364,62.1259665 74.6648862,62.3041946 C74.420203,62.4819462 74.1367627,62.5710603 73.8154992,62.5710603 C73.1888486,62.5710603 72.6597912,62.2155571 72.2283268,61.5035977 C71.7973295,60.7911617 71.5820643,59.8919197 71.5820643,58.8034891 C71.5820643,58.0610307 71.6917981,57.3848122 71.9112659,56.7748336 C72.1307337,56.164855 72.4328521,55.7030821 72.8180881,55.390468 C73.2028572,55.077854 73.6866202,54.921547 74.2689103,54.921547 C74.9688724,54.921547 75.5306166,55.1131184 75.9536758,55.4972143 C76.3767349,55.8813102 76.7148087,56.4912889 76.9678971,57.3276267 C77.2209855,58.1644412 77.3470627,59.2685978 77.3470627,60.6415263 C77.3470627,62.6601743 77.0813666,64.1384194 76.5499744,65.0767381 C76.0190491,66.0145803 75.2821977,66.4839779 74.340821,66.4839779 C73.7832794,66.4839779 73.3448108,66.3805675 73.0230804,66.1746997 C72.7018169,65.9688319 72.4347199,65.6676549 72.2217895,65.2711688 C72.0083921,64.8746827 71.8444917,64.3785985 71.7300883,63.7838694" id="Fill-21" fill="#FEFEFE"></path>
                <path d="M84.0728943,66.4839779 L78.3078958,66.4839779 C78.3739002,65.5483039 78.5746827,64.6683535 78.9093204,63.8436424 C79.2444196,63.0189312 79.8721536,62.045462 80.7939071,60.9232346 C81.3570215,60.2356522 81.7170454,59.7137874 81.8744405,59.3571556 C82.031374,59.0005237 82.1103023,58.6618204 82.1103023,58.3410455 C82.1103023,57.9945893 82.0322971,57.6990113 81.8767483,57.4533424 C81.720738,57.2076734 81.5250326,57.0850812 81.2896324,57.0850812 C81.0440776,57.0850812 80.8437566,57.2115498 80.6877462,57.4649717 C80.5321974,57.7183935 80.4278828,58.1656369 80.3738792,58.8062175 L78.4491359,58.5508575 C78.5248333,57.6612161 78.663304,56.9673345 78.8645482,56.4682438 C79.0657923,55.9696376 79.3496573,55.5873244 79.7161432,55.3208196 C80.0821675,55.0543148 80.589432,54.921547 81.2374751,54.921547 C81.9136739,54.921547 82.4398627,55.0480156 82.8155799,55.3014374 C83.1912972,55.5543747 83.4867015,55.9434716 83.7022542,56.4682438 C83.917807,56.9930159 84.0253526,57.5812646 84.0253526,58.23299 C84.0253526,58.9254178 83.9021137,59.5873188 83.6556358,60.2177237 C83.4086963,60.8486132 82.9595895,61.5415257 82.3083155,62.2959765 C81.9215205,62.7359516 81.6625802,63.0431589 81.5324177,63.2190521 C81.4017937,63.3949452 81.2485527,63.6251085 81.0722333,63.9095417 L84.0728943,63.9095417 L84.0728943,66.4839779 Z" id="Fill-23" fill="#FEFEFE"></path>
                <mask id="mask-6" fill="white">
                    <use xlink:href="#path-5"></use>
                </mask>
                <g id="Clip-26"></g>
                <polygon id="Fill-25" fill="#FEFEFE" mask="url(#mask-6)" points="85.5141439 66.4839779 87.43581 66.4839779 87.43581 63.1116022 85.5141439 63.1116022"></polygon>
                <path d="M93.2008085,54.921547 L93.2008085,66.4839779 L91.0799807,66.4839779 L91.0799807,58.9074893 C90.7370019,59.3004627 90.4045996,59.6183303 90.0842846,59.8610919 C89.7634659,60.1043381 89.3610576,60.3374086 88.8770596,60.5593344 L88.8770596,57.968908 C89.5907174,57.6229363 90.145225,57.2067043 90.5395751,56.7206965 C90.9344288,56.2346887 91.2431601,55.6348107 91.4662725,54.921547 L93.2008085,54.921547 Z" id="Fill-27" fill="#FEFEFE" mask="url(#mask-6)"></path>
            </g>
        </g>
    </g>
</svg>