<?xml version="1.0" encoding="UTF-8"?>
<svg width="168px" height="86px" viewBox="0 0 168 86" version="1.1" xmlns="http://www.w3.org/2000/svg" xmlns:xlink="http://www.w3.org/1999/xlink">
    <!-- Generator: Sketch 49.1 (51147) - http://www.bohemiancoding.com/sketch -->
    <title>Radio tiempo</title>
    <desc>Created with Sketch.</desc>
    <defs>
        <polygon id="path-1" points="0 0.332382979 167.990009 0.332382979 167.990009 85.599927 0 85.599927"></polygon>
    </defs>
    <g id="Page-2" stroke="none" stroke-width="1" fill="none" fill-rule="evenodd">
        <g id="8" transform="translate(-83.000000, -1515.000000)">
            <g id="Radio-tiempo" transform="translate(83.000000, 1515.200000)">
                <path d="M59.2078059,32.9103963 C59.2078059,35.2 62.7607369,35.2 63.9295451,35.2 C65.3905552,35.2 66.5909528,35.1251593 67.5035357,34.9676457 L68.0089662,34.8841026 L68.0089662,29.6 L61.1461671,30.8966589 C59.4587662,31.2012432 59.2078059,32.2907848 59.2078059,32.9103963" id="Fill-1" fill="#FFFFFF"></path>
                <path d="M120.683927,34.2916685 C121.312829,33.4009683 121.616034,31.7749548 121.616034,29.3211359 C121.616034,27.033803 121.263345,25.498432 120.533674,24.6216056 C119.691539,23.6624612 118.218702,23.2 116.015295,23.2 C113.861373,23.2 112.416427,23.6633861 111.594986,24.6160561 C110.799636,25.5437532 110.414557,27.0855987 110.414557,29.3211359 C110.414557,31.6889371 110.729458,33.3029265 111.379054,34.250047 C112.1843,35.4265482 113.701223,36 116.015295,36 C118.346462,36 119.872382,35.4394971 120.683927,34.2916685" id="Fill-3" fill="#FFFFFF"></path>
                <path d="M110.477255,47.2 C108.761941,47.2 107.570673,47.3328561 106.837945,47.5985684 L106.41403,47.7506657 L106.41403,59.6472441 L106.936204,59.7489477 C107.794328,59.9175376 109.012735,60 110.55867,60 C112.897223,60 114.49182,59.5565354 115.424808,58.6467001 C116.36154,57.734116 116.815401,56.1810737 116.815401,53.8996135 C116.815401,51.323121 116.446697,49.6353901 115.689638,48.741131 C114.824963,47.7048533 113.114328,47.2 110.477255,47.2" id="Fill-5" fill="#FFFFFF"></path>
                <path d="M90.7881479,35.6041521 L91.2120253,35.4502112 L91.2120253,23.5518648 L90.6870911,23.4464887 C89.8299791,23.2824683 88.6107468,23.2 87.064951,23.2 C84.7256718,23.2 83.1349619,23.64258 82.1983145,24.5533968 C81.2644742,25.4669626 80.810654,27.0219486 80.810654,29.3035722 C80.810654,31.8811654 81.1793244,33.5662682 81.9372509,34.4651729 C82.8009128,35.4987759 84.5085867,36 87.1491651,36 C88.8633889,36 90.0517428,35.8717159 90.7881479,35.6041521" id="Fill-7" fill="#FFFFFF"></path>
                <g id="Group-11">
                    <mask id="mask-2" fill="white">
                        <use xlink:href="#path-1"></use>
                    </mask>
                    <g id="Clip-10"></g>
                    <path d="M137.649912,16.2432374 C123.850289,9.59011404 104.920295,5.51682894 84.0191873,5.51136511 C71.4378226,5.51409702 59.5819374,7.00208 49.1176951,9.62745021 C59.5171461,6.39468426 71.21881,4.21006298 83.6112762,3.42873532 C126.970307,0.696820426 162.295224,16.1867779 162.500548,38.0229736 C162.546176,42.3530587 161.198335,46.6075609 158.680602,50.668097 C159.734601,48.1829651 160.294908,45.587646 160.305859,42.9058162 C160.266619,32.188514 151.41212,22.8872545 137.649912,16.2432374 Z M142.247353,61.3453311 C140.591982,63.0682587 137.908164,63.9424715 134.267992,63.9424715 C130.628731,63.9424715 127.944001,63.0682587 126.28863,61.3425991 C124.625959,59.613297 123.785498,56.8722757 123.785498,53.2024034 C123.785498,46.4026672 127.212134,43.0970502 134.267992,43.0970502 C141.323849,43.0970502 144.750485,46.4026672 144.750485,53.2024034 C144.750485,56.874097 143.911849,59.613297 142.247353,61.3453311 Z M105.913153,29.2544374 C105.913153,22.4510587 109.343438,19.1463523 116.400209,19.1463523 C123.453329,19.1463523 126.882702,22.4510587 126.882702,29.2544374 C126.882702,32.9233991 126.036766,35.6607779 124.37592,37.3909906 C122.726024,39.1148289 120.039469,39.9890417 116.400209,39.9890417 C112.759123,39.9890417 110.071656,39.1148289 108.417197,37.3909906 C106.756351,35.6598672 105.913153,32.9215779 105.913153,29.2544374 Z M111.074551,64.0207864 C109.570664,64.0207864 108.306779,63.9570417 107.323959,63.8259098 L106.60578,63.7339353 L106.60578,69.4654928 C106.60578,71.0008289 105.987069,71.6519353 104.537936,71.6519353 L102.538533,71.6519353 C102.052142,71.6519353 101.920734,71.5189821 101.920734,71.0281481 L101.920734,45.5739864 C101.920734,44.5158247 102.435414,43.9403013 103.579755,43.7135523 C105.924103,43.2518587 108.389821,43.0141821 110.907554,43.0141821 C114.709249,43.0141821 117.46242,43.8465055 119.093152,45.4874757 C120.722971,47.1229821 121.547006,49.8931438 121.547006,53.7160034 C121.547006,60.6514247 118.124021,64.0207864 111.074551,64.0207864 Z M84.376908,82.5040119 C41.0187895,85.2359268 5.70026071,69.7450587 5.48763592,47.9115949 C5.44657104,43.5878843 6.78893613,39.3424885 9.29663107,35.2892374 C8.28278497,37.7297481 7.73707843,40.2749821 7.7279529,42.9058162 C7.76810522,53.6240289 16.6226045,62.9243779 30.3848124,69.5638417 C44.1835224,76.2178757 63.1153416,80.295714 84.0191873,80.2993566 C97.284054,80.295714 109.750437,78.64928 120.623503,75.7461651 C109.796065,79.2849055 97.4702147,81.6771523 84.376908,82.5040119 Z M28.1052556,39.8251268 C28.1052556,38.311646 28.7257915,37.6641821 30.1895261,37.6641821 L32.1588149,37.6641821 C32.6515934,37.6641821 32.7875638,37.7998672 32.7875638,38.2879694 L32.7875638,43.4485566 L38.3121581,43.4485566 C38.8286629,43.4485566 38.9801467,43.5988119 38.9801467,44.1115013 L38.9801467,46.6330587 C38.9801467,47.1493906 38.8286629,47.2960034 38.3121581,47.2960034 L32.7875638,47.2960034 L32.7875638,57.2875268 C32.7875638,58.4504119 33.0595045,59.1925821 33.6298499,59.5568374 C34.0003464,59.8209226 34.6856735,59.9365736 35.906669,59.9365736 C36.4897902,59.9365736 37.7171737,59.8209226 38.5028816,59.7043609 C39.4647122,59.5568374 39.7685922,59.6979864 39.7685922,60.449263 L39.7685922,61.8206843 C39.7685922,63.208497 39.3424301,63.6018928 38.4435657,63.7567013 C37.6852343,63.8769055 36.6440117,63.9424715 35.3536621,63.9424715 C30.4778928,63.9424715 28.1052556,61.74328 28.1052556,57.216497 L28.1052556,39.8251268 Z M41.7616074,45.4528715 C41.7616074,43.93848 42.384881,43.2928374 43.8495281,43.2928374 L45.820642,43.2928374 C46.3106829,43.2928374 46.4466532,43.4285226 46.4466532,43.918446 L46.4466532,63.0400289 C46.4466532,63.5290417 46.3106829,63.6638162 45.820642,63.6638162 L42.3876186,63.6638162 C41.8957527,63.6638162 41.7616074,63.5290417 41.7616074,63.0400289 L41.7616074,45.4528715 Z M59.0362309,43.0970502 C65.320069,43.0970502 68.3780333,45.0776885 68.3780333,49.1509736 C68.3780333,50.9695183 67.8788669,52.3327438 66.8951351,53.2005821 C66.1760435,53.8261906 65.4158871,54.2897055 64.6484302,54.5792885 C64.1109367,54.7723438 63.1135165,55.0018247 61.6844589,55.2568034 L54.0345293,56.6045481 L54.298257,57.3175779 C54.7098183,58.4340204 55.5420664,59.1761906 56.7740126,59.5185906 C57.4137121,59.6934332 58.4229954,59.7808545 59.8620911,59.7808545 C61.8350301,59.7808545 63.8545093,59.6642928 66.4397713,59.4293481 C66.946238,59.3783523 67.1232733,59.5823353 67.1552126,60.0859183 L67.1552126,61.9235864 C67.1424369,63.0245481 66.7062367,63.4889736 65.5208306,63.6747438 C64.3701016,63.8514077 62.2529793,63.9424715 59.2333422,63.9424715 C55.6743866,63.9424715 53.0526225,63.0682587 51.4355791,61.3507949 C49.8084975,59.6160289 48.9817247,56.9141651 48.9817247,53.3226077 C48.9817247,49.7574587 49.7802084,47.1339098 51.3507117,45.5175268 C52.9157396,43.9120715 55.4991764,43.0970502 59.0362309,43.0970502 Z M98.6036052,39.0911523 L98.6036052,21.5030843 C98.6036052,19.9859609 99.2287039,19.3421396 100.688788,19.3421396 L102.659902,19.3421396 C103.149943,19.3421396 103.288651,19.476914 103.288651,19.9677481 L103.288651,39.0911523 C103.288651,39.582897 103.149943,39.7158502 102.659902,39.7158502 L99.2287039,39.7158502 C98.7377505,39.7158502 98.6036052,39.582897 98.6036052,39.0911523 Z M75.8226386,29.2917736 C75.8226386,22.3609055 79.2483616,18.9906332 86.2969189,18.9906332 C87.7898552,18.9906332 89.057391,19.0525566 90.052986,19.1782247 L90.7684274,19.2720204 L90.7684274,13.5422843 C90.7684274,12.00968 91.3871381,11.3549311 92.8353593,11.3549311 L94.8338498,11.3549311 C95.3184153,11.3549311 95.4507355,11.4887949 95.4507355,11.9814502 L95.4507355,37.4347013 C95.4507355,38.4901311 94.9378809,39.0629226 93.7935397,39.293314 C91.4610549,39.7559183 88.9925997,39.9890417 86.462091,39.9890417 C82.6603963,39.9890417 79.9090497,39.1594502 78.2774054,37.5212119 C76.6512364,35.8847949 75.8226386,33.1137226 75.8226386,29.2917736 Z M79.8123191,43.0542502 C81.6593259,43.0542502 83.2508179,43.3319949 84.533867,43.872914 L84.731891,43.9576034 L84.9381279,43.9047864 C87.110916,43.3401906 89.0072006,43.0542502 90.5777039,43.0542502 C96.1981162,43.0542502 98.9312117,45.4073396 98.9312117,50.2519353 L98.9312117,63.0400289 C98.9312117,63.5290417 98.797979,63.6638162 98.3033754,63.6638162 L94.8740022,63.6638162 C94.3803111,63.6638162 94.2470784,63.5290417 94.2470784,63.0400289 L94.2470784,50.8019609 C94.2470784,49.4933736 93.9924762,48.5881991 93.4641082,48.0263353 C92.923877,47.4517226 92.0186246,47.1776204 90.693598,47.1776204 C89.7262921,47.1776204 88.7598988,47.2878077 87.8300075,47.5072715 L87.3363165,47.6220119 L87.3363165,63.0400289 C87.3363165,63.5290417 87.2030838,63.6638162 86.7121304,63.6638162 L83.2818447,63.6638162 C82.7899787,63.6638162 82.6549209,63.5290417 82.6549209,63.0400289 L82.6549209,50.411297 C82.6549209,49.054446 82.3382651,48.1647523 81.677577,47.6893991 C81.1482964,47.3360715 80.2831964,47.1776204 78.9408313,47.1776204 C77.872232,47.1776204 76.9122265,47.2741481 76.0818035,47.470846 L75.5899376,47.5846757 L75.5899376,63.0400289 C75.5899376,63.5290417 75.4530547,63.6638162 74.9593637,63.6638162 L71.5290779,63.6638162 C71.0381245,63.6638162 70.9030667,63.5290417 70.9030667,63.0400289 L70.9030667,45.6104119 C70.9030667,44.5322162 71.4122711,43.961246 72.551137,43.7545311 C75.0515315,43.2919268 77.4944352,43.0542502 79.8123191,43.0542502 Z M68.6426736,25.3159268 C68.4063224,24.368863 67.7127823,23.6886162 66.8495074,23.4117821 C66.279162,23.2351183 65.4085867,23.1486077 64.1839409,23.1486077 C62.3214207,23.1486077 60.6368484,23.22328 59.1840644,23.371714 C58.1629179,23.4873651 57.0167516,23.6130332 56.8716557,23.618497 L56.8570549,23.618497 C56.5595627,23.618497 56.3314245,23.414514 56.3232116,22.9719438 C56.314086,22.8754162 56.3232116,22.5248204 56.3232116,21.2681396 C56.314086,20.8674587 56.4947715,20.4631353 56.8369787,20.118914 C57.3881606,19.5597821 58.0187345,19.3694587 59.1347866,19.2465226 C59.9925861,19.1509055 62.4993685,19.1463523 64.4759578,19.1463523 C70.4686916,19.1463523 73.3833851,21.6032545 73.3833851,26.6563864 L73.3833851,37.5558162 C73.3833851,38.6358332 72.8887815,39.2068034 71.7754671,39.411697 C69.7194858,39.7959864 67.1552126,39.9890417 64.1647773,39.9890417 C57.8499123,39.9890417 54.78191,37.9309991 54.78191,33.7001736 C54.78191,30.8781055 56.6252665,29.0322417 60.4169232,28.0569481 C62.3533601,27.5597396 65.7042537,26.9350417 68.1754466,26.5006672 L68.6974267,26.4032289 C68.6974267,26.4032289 68.7603929,25.7921906 68.6426736,25.3159268 Z M41.7616074,26.5006672 C41.7616074,21.5231183 44.3806338,19.1062843 49.7628699,19.1062843 C51.3981644,19.1062843 52.5963461,19.167297 53.3218256,19.2920545 C53.9204602,19.394046 54.6066998,19.6963779 54.6066998,21.146114 L54.6066998,22.5466757 C54.5793233,23.0238502 54.3739989,23.1895864 53.9286732,23.1895864 L49.6049983,23.1859438 C46.8582145,23.1859438 46.4466532,24.8414843 46.4466532,25.8295268 L46.4466532,39.0911523 C46.4466532,39.582897 46.3106829,39.7158502 45.8197295,39.7158502 L42.3876186,39.7158502 C41.8957527,39.7158502 41.7616074,39.582897 41.7616074,39.0911523 L41.7616074,26.5006672 Z M83.5875498,0.666769362 C37.1970186,3.58809702 -0.226769357,24.8961226 0.000456276371,48.2567268 C0.226769357,71.6182417 38.0137533,88.1873055 84.4042845,85.2659779 C130.792078,82.3437396 168.214954,61.035714 167.989553,37.6769311 C167.765065,14.3145055 129.973518,-2.25729021 83.5875498,0.666769362 Z" id="Fill-9" fill="#FFFFFF" mask="url(#mask-2)"></path>
                </g>
                <path d="M62.0973475,50.9202528 C62.6034732,50.647728 63.2083333,50.057418 63.2083333,48.8199819 C63.2083333,47.2146855 61.8082599,46.4 59.0499196,46.4 C57.05566,46.4 55.6982826,46.7851941 54.9048484,47.574842 C54.1034087,48.3798977 53.686233,49.8176347 53.6284155,51.9708697 L53.6070675,52.8 L59.5880673,51.6030093 C61.3457198,51.2553717 61.8616299,51.0464039 62.0973475,50.9202528" id="Fill-12" fill="#FFFFFF"></path>
                <path d="M134.417722,47.2 C132.266081,47.2 130.821165,47.6633526 130.002948,48.6168786 C129.20631,49.5509827 128.816983,51.0862428 128.816983,53.3188439 C128.816983,55.6920231 129.136178,57.3049711 129.789852,58.2455491 C130.592783,59.4247399 132.106035,60 134.417722,60 C136.752786,60 138.278625,59.4386127 139.081557,58.2927168 C139.713652,57.4039306 140.01846,55.7752601 140.01846,53.3188439 C140.01846,51.0344509 139.664199,49.4991908 138.934997,48.6224277 C138.092504,47.6633526 136.619714,47.2 134.417722,47.2" id="Fill-14" fill="#FFFFFF"></path>
            </g>
        </g>
    </g>
</svg>