<?xml version="1.0" encoding="UTF-8"?>
<svg width="299px" height="94px" viewBox="0 0 299 94" version="1.1" xmlns="http://www.w3.org/2000/svg" xmlns:xlink="http://www.w3.org/1999/xlink">
    <!-- Generator: Sketch 49.1 (51147) - http://www.bohemiancoding.com/sketch -->
    <title>Transmetro</title>
    <desc>Created with Sketch.</desc>
    <defs>
        <polygon id="path-1" points="0.348051864 0.499427027 85.0781682 0.499427027 85.0781682 46.93918 0.348051864 46.93918"></polygon>
        <polygon id="path-3" points="0 0.496142883 18.3278967 0.496142883 18.3278967 33.5344589 0 33.5344589"></polygon>
        <polygon id="path-5" points="0.481872509 0.508803243 26.4131679 0.508803243 26.4131679 23.6406303 0.481872509 23.6406303"></polygon>
    </defs>
    <g id="Page-2" stroke="none" stroke-width="1" fill="none" fill-rule="evenodd">
        <g id="8" transform="translate(-602.000000, -1511.000000)">
            <g id="Transmetro" transform="translate(602.268460, 1510.400000)">
                <path d="M6.95279982,26.4458411 C6.95279982,26.4458411 6.59396879,30.1727276 8.49449173,31.7552032 C10.4033447,33.3383168 12.0302589,34.5125762 14.4933777,34.2925222 C16.9532926,34.0775708 19.6182538,33.4365438 21.1593049,32.2571816 C22.7093268,31.08356 25.1058055,28.9614735 24.9744477,25.5630735 C24.8424492,22.1704141 24.2176987,21.5644681 23.626909,21.8342735 C23.0386825,22.1047168 22.8413254,22.1168357 22.8605485,22.2431276 C22.884257,22.3706951 23.3898243,23.0857114 23.5653952,23.5774843 C23.7351991,24.0635168 23.7435291,26.3680249 23.7435291,26.3680249 L23.4449304,26.3737654 L23.4257074,23.976133 C23.4257074,23.976133 23.2072049,23.3797546 23.1770887,23.3542411 C23.1412056,23.3338303 22.9227031,22.7859276 22.617056,22.6156249 C22.316535,22.449787 22.0595863,22.6220032 21.9980725,22.7693438 C21.9404032,22.9096681 21.3938266,22.9032897 21.3938266,22.9032897 C21.3938266,22.9032897 21.2714396,22.8592789 21.2400419,22.7482951 C21.2195373,22.6405005 20.6447668,22.213787 20.1872573,22.449787 C19.7271846,22.6813222 18.3552967,24.2956897 18.2232981,24.5208465 C18.0925811,24.7491924 18.268152,24.9533005 18.4860137,25.1255168 C18.7070793,25.3079384 18.7070793,25.4673978 18.7263024,25.6855384 C18.7352731,25.9062303 18.398869,25.9381222 18.398869,25.9381222 L18.4206552,25.4986519 C18.4206552,25.4986519 18.3046759,25.2926303 18.0765619,25.3079384 C17.8465255,25.321333 17.1903774,25.3079384 17.2640659,25.8424465 C17.3492883,26.3839708 17.308279,26.6308141 17.4921799,26.6607924 C17.6741585,26.6843924 18.1880558,26.878933 17.7965455,26.9350627 C17.4011906,26.9962951 17.3178905,27.5263384 16.6117623,27.5684357 C15.9075564,27.6016032 15.0335465,27.5894843 15.0335465,27.5894843 C15.0335465,27.5894843 14.8195295,27.3241438 14.7887725,26.8680897 C14.7560933,26.4171384 15.2552529,26.3469762 15.299466,26.3303924 C15.3353491,26.3138086 15.1335066,25.9470519 16.0120019,25.3570519 C16.8898564,24.7689654 17.4011906,24.7938411 17.6959447,24.4092249 C17.9939026,24.0201438 18.7314285,23.4244032 18.7314285,23.0391492 C18.7314285,22.6468789 18.6782446,22.4791276 18.4116844,22.4746627 C18.1496096,22.4650951 18.1284642,22.4791276 18.1284642,22.1531924 C18.1284642,21.8272573 19.1889381,21.8463924 19.1889381,21.8463924 C19.1889381,21.8463924 19.3555382,21.5644681 19.9239009,21.5587276 C20.488419,21.5459708 20.4986713,21.2646843 20.4986713,21.2646843 C20.4986713,21.2646843 21.0401217,21.3514303 21.4226613,21.0650411 C21.8135308,20.7837546 22.1480126,20.7403816 22.1480126,20.3500249 C22.1480126,19.9622195 22.1480126,18.925733 20.7133292,18.3261654 C19.2773643,17.7285114 19.2773643,17.7431816 17.9580195,17.7431816 C16.6450824,17.7431816 14.659337,17.8898843 12.7306202,19.0571276 C10.8134373,20.2294735 7.43081402,22.6813222 6.95279982,26.4458411" id="Fill-1" fill="#FEFEFE"></path>
                <g id="Group-5" transform="translate(0.000000, 0.138411)">
                    <mask id="mask-2" fill="white">
                        <use xlink:href="#path-1"></use>
                    </mask>
                    <g id="Clip-4"></g>
                    <path d="M3.44951962,38.8274854 C3.44951962,38.8274854 4.42541188,41.4209341 8.9024698,39.5533449 C13.3910616,37.688307 14.6245432,37.3987286 18.9343603,34.7032259 C23.2537888,32.0070854 29.9286868,27.9153557 32.5423865,26.3073665 C35.1548045,24.6885341 40.8480434,21.3558314 44.218492,18.9352368 C47.599193,16.5165557 53.6833013,12.3514746 55.8093752,10.8659503 C57.9264783,9.37532324 61.2078599,7.26025297 64.3111076,5.27147459 C67.414996,3.27504216 69.284762,2.14288 69.284762,2.14288 C69.284762,2.14288 70.8142793,1.10639351 72.2874089,0.805334054 C73.7720723,0.499171892 74.2167664,0.499171892 74.2167664,0.499171892 C74.2167664,0.499171892 74.8376723,0.625463784 74.6621014,2.77625297 C74.4865305,4.91556108 74.5115205,5.46792865 73.3760766,6.75380973 L72.2463996,8.03841514 L73.6733937,8.09454486 C73.6733937,8.09454486 77.220054,5.24277189 79.0475292,5.11711784 C80.8666744,4.98572324 81.3132909,5.24277189 82.080933,5.92717189 C82.8421674,6.60200432 83.2125323,7.06379892 84.6145364,7.06379892 C86.0229482,7.06379892 83.8795736,7.61361514 82.7396443,8.34393946 C81.6112488,9.07681514 73.9963417,14.0985124 72.2162834,15.6057232 C70.4458367,17.1225016 68.6190023,18.6609665 68.6190023,18.6609665 C68.6190023,18.6609665 62.0440644,22.4439827 59.2298038,23.9582097 C56.421951,25.4698854 50.5537821,28.7215827 44.7407193,31.8744151 C38.9225304,35.0304368 37.2276945,35.8098746 33.7733051,37.5269341 C30.3227602,39.238253 30.5707381,39.1189773 27.6123044,40.5024476 C24.6545114,41.8916584 23.9611986,42.1627395 21.9927541,42.8732908 C20.0217465,43.5774638 18.7901871,44.0864584 18.7901871,44.0864584 L18.4211037,44.0099178 C18.4211037,44.0099178 18.1494174,44.2325232 22.6117376,42.2411935 C27.0714947,40.2473124 27.5386158,40.1235719 29.9062599,38.9365557 C32.265574,37.751453 31.973383,37.7029773 33.6208019,36.9937016 C35.2733469,36.2901665 36.2633361,35.8098746 36.4587709,35.7333341 C36.6567687,35.6618962 37.4180031,34.5782097 35.9640967,35.2587827 C34.510831,35.9368043 30.7918036,37.5760476 28.3267626,38.8115395 C25.8668477,40.04448 25.690636,40.1235719 23.4697282,41.1823827 C21.2558689,42.2411935 19.6302362,42.9995827 19.0086896,43.1743503 L18.3993176,43.3535827 C18.3993176,43.3535827 11.9384367,46.7564476 8.48981411,46.8310746 C5.0341431,46.9069773 4.12937628,47.2609773 2.71968293,46.0720476 C1.31896036,44.8926854 0.447513561,43.9340151 0.380232742,42.7993016 C0.307825766,41.6613989 0.380232742,40.6772151 0.380232742,40.6772151 C0.380232742,40.6772151 0.747393782,41.3628908 0.747393782,42.0090205 C0.747393782,42.667907 0.625647538,42.6940584 1.04663323,43.2005016 C1.45928892,43.7043935 2.03405935,44.5865232 3.0099516,45.0406638 L4.00634849,45.4979935 C4.00634849,45.4979935 4.64327358,45.7435611 5.40578953,45.7237881 C6.1676647,45.6963611 6.92441372,45.6963611 6.92441372,45.6963611 L8.02012992,45.5911178 C8.02012992,45.5911178 6.54187421,45.3200368 5.75180517,45.3468259 C4.96686228,45.3691503 4.37222799,45.3965773 3.73466214,44.9628476 C3.09325167,44.5393232 2.69661522,44.6413773 2.20386332,43.9046746 C1.70790757,43.1743503 0.996653197,42.5199286 0.847994625,41.5153341 C0.701258363,40.5024476 0.723685303,38.6335827 0.723685303,38.6335827 C0.723685303,38.6335827 1.33946499,36.720707 1.63421905,36.9177989 C1.93602158,37.1174422 2.17823253,36.9445881 2.20386332,37.8777449 C2.23141642,38.8115395 2.23141642,39.4385341 2.23141642,39.4385341 C2.23141642,39.4385341 2.17438791,39.8544043 3.3188026,40.4616259 C4.46962499,41.0675719 6.27915863,41.1313557 6.27915863,41.1313557 C6.27915863,41.1313557 3.48540272,40.489053 3.3188026,39.7893449 C3.15732864,39.0800692 3.44951962,38.8274854 3.44951962,38.8274854" id="Fill-3" fill="#FEFEFE" mask="url(#mask-2)"></path>
                </g>
                <g id="Group-8" transform="translate(0.000000, 40.322195)">
                    <mask id="mask-4" fill="white">
                        <use xlink:href="#path-3"></use>
                    </mask>
                    <g id="Clip-7"></g>
                    <path d="M16.3591068,4.35560324 L16.3591068,6.33098703 L16.4641931,6.67223027 C16.4641931,6.67223027 16.4122907,6.58803568 16.525707,5.88832757 C16.631434,5.19691135 16.6679578,4.55779784 16.6679578,4.35560324 C16.6679578,4.15404649 16.6199001,3.11756 16.5135323,2.82734378 C16.4122907,2.53585189 16.3591068,4.02647892 16.3591068,4.35560324 Z M8.93450828,8.81727892 L8.78328663,10.2562411 C8.64039499,11.6907384 8.19121543,13.0040465 8.19121543,13.0040465 C7.99065451,13.8874519 7.47803875,15.2760249 7.47803875,15.2760249 L6.56366038,17.7954843 L5.8568914,19.4863924 C5.8568914,19.4863924 6.27915863,19.4468465 6.48997186,19.0998627 C6.71167818,18.7477762 7.00899532,18.2030627 7.29541938,17.5658627 C7.29541938,17.5658627 7.75036587,16.7934411 8.48084333,13.757333 C9.23054389,10.7339816 9.34780474,9.67899784 9.34780474,9.67899784 C9.63743265,8.42692216 9.13827305,9.11897622 9.23951466,6.67988432 C9.33050396,4.25673838 9.56822952,4.18083568 9.75853812,3.22088973 C9.95717673,2.27497622 10.9215351,1.29079243 10.9215351,1.29079243 C11.1855323,1.10390595 12.0595421,0.582154595 12.5651094,0.517732973 C13.1232198,0.45076 13.7319511,0.537505946 14.3336338,0.807311351 C14.9436466,1.06563568 14.6847756,1.68944108 14.6847756,1.68944108 C14.6847756,1.68944108 15.4690777,1.55549514 15.6356778,1.68497622 C15.7888218,1.81509514 16.0252658,2.35406811 16.3834561,2.22076 C17.2164567,1.92544108 18.1801743,1.42537622 18.1801743,1.42537622 C18.1801743,1.42537622 18.5985969,2.20991676 18.0270304,5.16310595 C17.4657161,8.05697622 17.9065657,9.37219784 17.1901851,12.6525978 C16.4680377,15.9617005 16.0541005,18.9416789 15.1333144,20.9413005 C14.1471698,23.079333 12.5651094,25.3130411 10.902312,27.775733 C9.26450468,30.2014303 7.68885198,31.7430843 6.70462971,32.6296789 C5.72425207,33.5092573 4.97006613,33.7561005 3.68275979,33.3325762 C2.70878984,33.0162086 1.59833595,31.0937654 0.83710154,29.6229114 C0.084197139,28.1629005 -0.174673821,27.9970627 0.116876394,27.7770086 C0.402018912,27.5684357 1.92320619,24.8537978 1.92320619,24.8537978 C1.92320619,24.8537978 2.74979911,23.8830086 4.01083388,22.1359708 C5.26417942,20.3908465 4.96686228,20.2741222 6.04463692,18.1105762 C7.16534313,15.8915384 7.87980135,13.0219059 8.48084333,10.6357546 L8.93450828,8.81727892 Z" id="Fill-6" fill="#FEFEFE" mask="url(#mask-4)"></path>
                </g>
                <path d="M15.9968156,49.2647449 C15.9968156,49.2647449 16.2467158,49.2915341 15.8449532,51.7644314 C15.4316568,54.2354151 15.3868029,54.3546908 15.3868029,54.3546908 C15.3868029,54.3546908 15.1548443,54.0364097 15.3868029,52.7843341 C15.6213246,51.5328962 15.6969354,51.4372205 15.7885655,50.3675665 C15.8936517,49.3195989 15.9968156,49.2647449 15.9968156,49.2647449" id="Fill-9" fill="#FEFEFE"></path>
                <path d="M21.6776876,46.1901751 C21.6776876,46.1901751 21.1067618,46.8720238 21.1657126,47.1220562 C21.2317119,47.3740022 21.5713198,48.180867 21.6776876,49.8972886 C21.7699584,51.6105211 21.9814124,51.1085427 21.1593049,55.0937535 C20.3429643,59.0796022 19.3555382,62.6042941 18.7660301,63.7211481 C18.1733181,64.8271589 18.6635069,66.5971589 19.5990307,68.3607805 C20.5383991,70.1269535 20.3429643,71.5876022 20.8357162,72.6451373 C21.3265458,73.7052238 22.258225,74.7621211 22.6606283,74.6638941 C23.0534202,74.5605643 25.0250685,74.4125859 26.203444,69.4699805 C27.388868,64.5197211 28.9209483,59.9349427 28.7684451,58.2121427 C28.6204273,56.5033751 28.724232,54.7365643 28.03156,50.6052886 C27.3382472,46.4676346 27.2658402,45.9375914 26.8736891,45.8693427 C26.4821788,45.8023697 26.1829394,45.7296562 26.2559871,46.120013 C26.3322387,46.5084562 26.3770926,47.0142616 26.3617141,47.1679805 L26.348258,47.3159589 C26.348258,47.3159589 26.3392872,46.6079589 26.0823385,46.3375157 C25.8311568,46.0677103 25.6639159,46.0524022 25.4005596,46.0524022 C25.1410479,46.0524022 25.065437,46.0524022 24.9334385,45.7583589 C24.8065661,45.4675049 24.9225454,45.1415697 24.0562247,45.1460346 C23.1860595,45.1568778 22.4466112,45.34504 22.2857781,45.6193103 C22.1268672,45.8986832 22.2505357,46.4038508 22.4241843,46.7591265 C22.594629,47.111213 22.5581052,47.1883914 22.5581052,47.1883914 C22.5581052,47.1883914 22.4177766,47.3516778 22.2396426,46.9944886 C22.0666348,46.6443157 21.7398423,46.1021535 21.6776876,46.1901751" id="Fill-11" fill="#FEFEFE"></path>
                <path d="M38.9743687,39.5022541 C38.9743687,39.5022541 43.1598764,47.3246973 43.0599163,52.5147838 L42.9670047,57.7118865 C42.9670047,57.7118865 42.0750533,63.0104054 41.488749,66.441973 C40.8998816,69.8684378 40.3552274,72.039 39.7631562,72.6449459 C39.173648,73.2528054 38.4290737,73.8517351 36.9988757,73.3523081 L35.5718815,72.8477784 C35.5718815,72.8477784 30.4438016,69.8684378 30.2989877,69.6228703 C30.1592999,69.368373 29.8011096,68.715227 30.8372342,65.1318541 C31.878485,61.5535838 32.0252212,60.9935622 32.5673124,58.4237135 C33.108122,55.8449351 32.8108049,58.6750216 33.108122,55.8449351 L33.4073615,53.0244162 C33.4073615,53.0244162 33.7021155,52.3674432 33.5489716,50.0010649 L33.4073615,47.6283081 C33.4073615,47.6283081 33.7975902,47.0759405 33.845648,46.3628378 C33.8949872,45.6612162 33.4073615,46.2652486 32.7146894,44.4486865 C32.0252212,42.629573 31.9733189,42.2258216 32.2187337,41.9273135 C32.4673523,41.6256162 32.8575811,41.5701243 33.172199,42.2583514 C33.4829723,42.9542324 34.221139,43.9447946 34.5024369,45.0744054 C34.7882202,46.193173 34.7023571,46.1121676 34.9163741,47.5115838 L35.1278281,48.9039838 C35.1278281,48.9039838 35.2098467,50.5502432 35.303399,50.6529351 C35.4104076,50.7530757 35.6878609,50.8729892 35.5718815,49.4589027 C35.4501353,48.0486432 36.3299121,46.8890541 34.7882202,44.2624378 C33.2356352,41.6434757 32.8306688,41.0030865 32.8306688,41.0030865 C32.8306688,41.0030865 33.0575012,40.5336378 33.8802495,39.9933892 C34.7023571,39.4544162 35.4277084,39.2987838 35.8288302,39.5022541 C36.2427674,39.7076378 36.3452906,40.0093351 36.3452906,40.0093351 C36.3452906,40.0093351 36.3927075,40.1082 36.7681986,40.0259189 C37.1462527,39.9436378 37.4275506,40.5336378 37.9882241,40.0916162 L38.5469753,39.6540595 C38.5469753,39.6540595 38.7962347,39.2509459 38.9090102,39.4218865 L39.0205041,39.589" id="Fill-13" fill="#FEFEFE"></path>
                <polygon id="Fill-15" fill="#FEFEFE" points="171.418455 74.6300249 212.92239 74.6606411 212.266242 76.8733005 170.880849 76.8733005"></polygon>
                <polygon id="Fill-17" fill="#FEFEFE" points="212.849791 74.6300249 254.353726 74.6606411 253.696937 76.8733005 212.311544 76.8733005"></polygon>
                <polygon id="Fill-19" fill="#FEFEFE" points="254.27049 74.6300249 295.771862 74.6606411 295.125966 76.8733005 253.731603 76.8733005"></polygon>
                <polygon id="Fill-21" fill="#FEFEFE" points="59.303172 40.5655297 87.343895 40.5655297 85.2171803 48.1092378 75.8093995 48.1092378 69.3228878 71.1173243 60.0977264 71.1173243 66.5842381 48.1092378 57.1764573 48.1092378"></polygon>
                <path d="M115.391795,60.6137935 C114.134604,61.0296638 112.842172,61.3989719 111.516419,61.7185286 C109.704963,62.1771341 108.511209,62.6280854 107.937721,63.0726584 C107.346931,63.5312638 106.969518,64.0523773 106.805481,64.6359989 C106.617735,65.3031773 106.690142,65.8478908 107.025905,66.2714151 C107.361028,66.6955773 107.9704,66.9067016 108.853381,66.9067016 C109.776089,66.9067016 110.698797,66.6777178 111.622787,66.2197503 C112.545496,65.7611449 113.267002,65.2017611 113.786026,64.5415989 C114.304408,63.8820746 114.712579,63.0241827 115.009896,61.9679232 L115.391795,60.6137935 Z M109.46083,56.1533935 L101.779924,55.2993286 C102.478363,53.882053 103.224219,52.7671124 104.01621,51.954507 C104.808842,51.1412638 105.819336,50.436453 107.04641,49.8394368 C107.928109,49.4088962 109.066116,49.0746692 110.464276,48.8386692 C111.861154,48.6026692 113.333642,48.4846692 114.881101,48.4846692 C117.365365,48.4846692 119.320354,48.6275449 120.747989,48.9113827 C122.174342,49.1971341 123.262369,49.7903232 124.013351,50.6935016 C124.541986,51.3192205 124.848915,52.2045395 124.933496,53.3507341 C125.018078,54.4962908 124.912992,55.5914584 124.618878,56.6330476 L121.863569,66.4072746 C121.569455,67.4495016 121.404137,68.2652962 121.366331,68.8559341 C121.329167,69.4472097 121.39837,70.1998584 121.573941,71.117707 L113.794996,71.117707 C113.643134,70.54748 113.563038,70.1137503 113.551504,69.8152422 C113.540611,69.5160962 113.578416,69.0472854 113.663639,68.4081719 C112.275091,69.4778259 110.980736,70.2419557 109.779293,70.6999232 C108.140845,71.3109719 106.350534,71.6171341 104.409643,71.6171341 C101.829263,71.6171341 100.043438,71.0060854 99.0515264,69.7833503 C98.0583333,68.5606151 97.8142001,67.0540422 98.3197674,65.26108 C98.7939369,63.5797395 99.6660245,62.1975449 100.935389,61.1138584 C102.203473,60.0301719 104.210363,59.2239449 106.952217,58.696453 C110.240647,58.0573395 112.383381,57.6089395 113.379137,57.3518908 C114.374252,57.09548 115.446901,56.7580638 116.596442,56.3415557 C116.889914,55.2993286 116.885429,54.5696422 116.582345,54.1531341 C116.279261,53.7366259 115.598122,53.528053 114.538289,53.528053 C113.181139,53.528053 112.100161,53.7506584 111.295354,54.1952314 C110.668681,54.5422151 110.057387,55.1947232 109.46083,56.1533935 Z" id="Fill-23" fill="#FEFEFE"></path>
                <path d="M129.456818,48.9844789 L137.174889,48.9844789 L136.159269,52.5895384 C137.727873,51.1180465 139.192032,50.0649762 140.552386,49.4328789 C141.910818,48.8007816 143.439053,48.4850519 145.135812,48.4850519 C147.430408,48.4850519 149.029128,49.1828465 149.931973,50.5790735 C150.834817,51.9753005 150.875186,54.1318303 150.052438,57.0499384 L146.086714,71.1174519 L137.757989,71.1174519 L141.18867,58.9462303 C141.580821,57.5570195 141.606452,56.5734735 141.266844,55.9968681 C140.926595,55.4215384 140.301845,55.1325978 139.392593,55.1325978 C138.387866,55.1325978 137.463876,55.5216789 136.619982,56.2998411 C135.776089,57.0780032 135.070601,58.4742303 134.502238,60.4885222 L131.505999,71.1174519 L123.217643,71.1174519 L129.456818,48.9844789 Z" id="Fill-25" fill="#FEFEFE"></path>
                <path d="M149.634207,64.9690141 L158.084678,64.1780951 C158.141706,65.177587 158.415315,65.8926032 158.904222,66.3237816 C159.394411,66.7543222 160.147956,66.9699114 161.166139,66.9699114 C162.279156,66.9699114 163.209554,66.727533 163.957973,66.2415005 C164.534025,65.8811222 164.899264,65.4308086 165.051126,64.8892843 C165.223493,64.2788735 165.044718,63.8068735 164.51352,63.4739222 C164.131622,63.2379222 163.026294,62.9470681 161.196256,62.5994465 C158.462732,62.085987 156.598733,61.6114357 155.601695,61.1738789 C154.605298,60.73696 153.869054,59.9977059 153.395525,58.9567546 C152.921996,57.9158032 152.873939,56.728787 153.24943,55.3963438 C153.660163,53.9388843 154.427165,52.6829816 155.553638,51.6279978 C156.678829,50.5736519 158.041106,49.7852843 159.640467,49.2660843 C161.240469,48.7449708 163.262097,48.484733 165.705352,48.484733 C168.28445,48.484733 170.131789,48.6862897 171.246728,49.0887654 C172.361668,49.4918789 173.210047,50.11696 173.793147,50.9646465 C174.375607,51.8116951 174.734438,52.9585276 174.870281,54.4032303 L166.786971,55.194787 C166.782486,54.4861492 166.590255,53.9650357 166.208997,53.6320843 C165.682925,53.1875114 164.958215,52.9655438 164.035506,52.9655438 C163.09806,52.9655438 162.368223,53.1345708 161.844715,53.4751762 C161.321206,53.8151438 160.991209,54.2278249 160.854085,54.7132195 C160.701581,55.2547438 160.857929,55.6635978 161.321847,55.9410573 C161.787045,56.2185168 162.897499,56.4685492 164.655131,56.6905168 C167.320732,57.0094357 169.244964,57.4533708 170.429106,58.0223222 C171.611967,58.5919114 172.411648,59.4038789 172.827507,60.4582249 C173.242085,61.5132086 173.272201,62.67216 172.915934,63.9350789 C172.555821,65.2120303 171.829829,66.4539005 170.735394,67.6619654 C169.64096,68.8693924 168.182568,69.8299762 166.358937,70.5449924 C164.535307,71.2593708 162.224691,71.6171978 159.429013,71.6171978 C155.478027,71.6171978 152.826522,71.0412303 151.475138,69.8873816 C150.123114,68.7341708 149.509898,67.0949276 149.634207,64.9690141" id="Fill-27" fill="#FEFEFE"></path>
                <path d="M178.855869,48.9844789 L186.594444,48.9844789 L185.683911,52.2151276 C187.178186,50.8680141 188.573141,49.9087059 189.868778,49.3397546 C191.165055,48.7695276 192.615117,48.4850519 194.220245,48.4850519 C195.945837,48.4850519 197.224814,48.7969546 198.05397,49.4226735 C198.883767,50.0477546 199.443799,50.97836 199.734709,52.2151276 C201.443001,50.7704249 202.906519,49.7868789 204.125263,49.2657654 C205.342725,48.7452897 206.738322,48.4850519 208.31077,48.4850519 C210.629075,48.4850519 212.240611,49.1898627 213.143456,50.5994843 C214.047582,52.0097438 214.077057,54.2160249 213.2306,57.2164141 L209.312293,71.1174519 L201.003433,71.1174519 L204.558423,58.5093114 C204.840362,57.5079059 204.860226,56.7654627 204.619296,56.2794303 C204.279047,55.5146627 203.696588,55.1325978 202.871276,55.1325978 C201.896666,55.1325978 201.011122,55.4942519 200.212082,56.2169222 C199.413683,56.9389546 198.788292,58.0991816 198.338472,59.6963276 L195.118604,71.1174519 L186.810384,71.1174519 L190.246832,58.9258195 C190.521722,57.9537546 190.652439,57.2929546 190.641546,56.9459708 C190.621041,56.3891384 190.440985,55.9420141 190.100736,55.6007708 C189.761128,55.2614411 189.297852,55.0911384 188.712829,55.0911384 C187.758723,55.0911384 186.871257,55.4591708 186.051072,56.1958735 C185.230246,56.9325762 184.583068,58.1406411 184.109539,59.8213438 L180.924914,71.1174519 L172.616694,71.1174519 L178.855869,48.9844789 Z" id="Fill-29" fill="#FEFEFE"></path>
                <path d="M231.223734,58.0917189 C231.522973,56.4531135 231.423654,55.2782162 230.924494,54.5702162 C230.424053,53.8609405 229.60515,53.5075784 228.463939,53.5075784 C227.147157,53.5075784 225.944432,54.0414486 224.855124,55.1123784 C224.165015,55.7789189 223.565895,56.7726703 223.057765,58.0917189 L231.223734,58.0917189 Z M238.509926,62.1553838 L221.892205,62.1553838 C221.658324,63.5178054 221.731371,64.5313297 222.113911,65.1985081 C222.644468,66.1578162 223.554361,66.6361946 224.844231,66.6361946 C225.65929,66.6361946 226.49165,66.4276216 227.341951,66.0117514 C227.864819,65.7476865 228.477395,65.2820649 229.18096,64.6155243 L237.130349,65.3866703 C235.254175,67.6095351 233.297905,69.2034919 231.261539,70.1685405 C229.223251,71.1335892 226.555727,71.6170703 223.257044,71.6170703 C220.392163,71.6170703 218.255837,71.2037514 216.846143,70.3771135 C215.435809,69.5504757 214.445179,68.2384432 213.872972,66.437827 C213.300764,64.6397622 213.358434,62.5240541 214.043417,60.0926162 C215.018668,56.6329838 216.889716,53.8335135 219.659122,51.6935676 C222.426607,49.5542595 225.718881,48.4846054 229.534024,48.4846054 C232.628942,48.4846054 234.937635,48.9636216 236.459463,49.9222919 C237.981291,50.8816 238.95398,52.270173 239.378169,54.0905622 C239.801718,55.9109514 239.601798,58.2798811 238.77969,61.1967135 L238.509926,62.1553838 Z" id="Fill-31" fill="#FEFEFE"></path>
                <path d="M255.313279,42.0485665 L253.741471,48.9844151 L258.303751,48.9844151 L256.553809,55.1944043 L251.991528,55.1944043 L249.781514,63.0359827 C249.514954,63.9793449 249.427168,64.6025124 249.518798,64.9080368 C249.656564,65.3793989 250.065375,65.6153989 250.74395,65.6153989 C251.355244,65.6153989 252.874509,65.1937881 253.901663,64.844253 L252.248477,70.9413449 C250.243509,71.3878314 248.264812,71.6168151 246.486676,71.6168151 C244.422757,71.6168151 242.978462,71.3470097 242.153791,70.8048476 C241.32848,70.2639611 240.83765,69.4424259 240.680021,68.3389665 C240.523032,67.235507 240.792156,65.4495611 241.488672,62.979853 L243.682668,55.1944043 L240.628119,55.1944043 L242.379342,48.9844151 L245.434532,48.9844151 L247.273541,42.0485665 L255.313279,42.0485665 Z" id="Fill-33" fill="#FEFEFE"></path>
                <path d="M260.049336,48.9844789 L267.808416,48.9844789 L266.786388,52.6112249 C267.975657,51.0415059 271.392241,47.7445222 276.957967,48.3772573 L273.865612,55.9719924 C268.91887,54.7065222 266.207132,58.125333 265.208173,61.6678843 L262.138886,71.1174519 L253.810161,71.1174519 L260.049336,48.9844789 Z" id="Fill-35" fill="#FEFEFE"></path>
                <path d="M86.2721436,48.9844789 L94.0312239,48.9844789 L93.0091962,52.6112249 C94.1984648,51.0415059 97.6150488,47.7445222 103.181415,48.3772573 L100.089061,55.9719924 C95.1416778,54.7065222 92.4299404,58.125333 91.4309804,61.6678843 L88.3616936,71.1174519 L80.032969,71.1174519 L86.2721436,48.9844789 Z" id="Fill-37" fill="#FEFEFE"></path>
                <g id="Group-41" transform="translate(272.327124, 47.976249)">
                    <mask id="mask-6" fill="white">
                        <use xlink:href="#path-5"></use>
                    </mask>
                    <g id="Clip-40"></g>
                    <path d="M9.31499733,12.1161762 C8.75816846,14.0896465 8.73766383,15.5483816 9.2522019,16.4923816 C9.76545843,17.4376573 10.6131968,17.9096573 11.7947761,17.9096573 C12.9891708,17.9096573 14.1009062,17.4446735 15.1306232,16.5140681 C16.1603401,15.5828249 16.9651468,14.0896465 17.5450434,12.0332573 C18.0852123,10.1152789 18.1005907,8.68779784 17.5911788,7.75017622 C17.0817669,6.81319243 16.2564555,6.34310595 15.1165262,6.34310595 C13.9080346,6.34310595 12.7757945,6.82020865 11.7210876,7.77122486 C10.6650991,8.72351676 9.86285543,10.1707708 9.31499733,12.1161762 M0.999728891,12.1372249 C1.95191267,8.76051135 3.84859099,5.97890054 6.69296771,3.79047892 C9.53606288,1.60269514 12.8520461,0.508803243 16.6396358,0.508803243 C20.9693167,0.508803243 23.8790519,1.79340865 25.3675599,4.36389514 C26.5625954,6.43431676 26.7336809,8.98375459 25.8795349,12.0122086 C24.9203027,15.4163492 23.0300321,18.2056141 20.2112861,20.3793654 C17.3918994,22.5537546 14.034907,23.6406303 10.1390272,23.6406303 C6.66285153,23.6406303 4.10746195,22.7380897 2.4715769,20.9310951 C0.468530807,18.6941978 -0.0222987857,15.763333 0.999728891,12.1372249" id="Fill-39" fill="#FEFEFE" mask="url(#mask-6)"></path>
                </g>
                <polygon id="Fill-42" fill="#FEFEFE" points="178.182548 82.0455276 178.022996 83.1496249 175.516946 83.1496249 174.420589 90.9108357 173.190311 90.9108357 174.287309 83.1496249 171.781899 83.1496249 171.94081 82.0455276"></polygon>
                <path d="M178.869004,87.1164659 L181.325075,87.1164659 C181.325075,86.7101632 181.232163,86.3893308 181.047621,86.1546065 C180.862439,85.9198822 180.602287,85.80252 180.266523,85.80252 C179.628317,85.80252 179.162477,86.2407146 178.869004,87.1164659 M182.109377,89.3884443 L181.949825,90.4415146 C181.35455,90.8771578 180.702247,91.0952984 179.992274,91.0952984 C179.252826,91.0952984 178.658832,90.8382497 178.210934,90.3241524 C177.762395,89.810693 177.538126,89.1256551 177.538126,88.2715903 C177.538126,87.3192984 177.806608,86.5188119 178.344855,85.869493 C178.882461,85.2195362 179.53989,84.8955146 180.317785,84.8955146 C180.912419,84.8955146 181.407734,85.1225849 181.803089,85.5773632 C182.198444,86.0321416 182.395801,86.6195903 182.395801,87.3384335 C182.395801,87.5163903 182.382986,87.6981741 182.357996,87.8844227 L178.69856,87.8844227 C178.664599,88.0789632 178.647298,88.2652119 178.647298,88.4425308 C178.647298,88.9802281 178.794675,89.4043903 179.090711,89.7150173 C179.386106,90.0262822 179.756471,90.1819146 180.203087,90.1819146 C180.7471,90.1819146 181.382744,89.9172119 182.109377,89.3884443" id="Fill-44" fill="#FEFEFE"></path>
                <path d="M193.677064,85.0727697 L192.842141,90.9108995 L191.747066,90.9108995 L191.848948,89.921613 C191.173577,90.6404562 190.529603,91.0001968 189.917668,91.0001968 C189.522313,91.0001968 189.187191,90.8592346 188.913582,90.5785859 C188.639333,90.2966616 188.502208,89.8960995 188.502208,89.3756238 C188.502208,89.2276454 188.51246,89.0771157 188.534247,88.9246724 L189.082745,85.0727697 L190.189995,85.0727697 L189.642137,88.9246724 C189.624837,89.0516022 189.617147,89.17024 189.617147,89.2805859 C189.617147,89.8642076 189.833727,90.1563373 190.267529,90.1563373 C190.722475,90.1563373 191.311342,89.7270724 192.034131,88.8679049 L192.569814,85.0727697 L193.677064,85.0727697 Z" id="Fill-46" fill="#FEFEFE"></path>
                <path d="M197.189123,85.0727697 L197.040464,86.1054292 L197.06994,86.12584 C197.69469,85.3648995 198.342508,84.9841103 199.014035,84.9841103 C199.468982,84.9841103 199.822046,85.1499481 200.072587,85.4822616 C200.323768,85.8145751 200.448718,86.2425643 200.448718,86.766867 C200.448718,86.9154832 200.435903,87.06984 200.410272,87.2305751 L199.848317,90.9108995 L198.753242,90.9108995 L199.288284,87.1923049 C199.310071,87.0609103 199.320323,86.9409968 199.320323,86.8306508 C199.320323,86.5257643 199.256887,86.2935914 199.128733,86.1328562 C199.00122,85.9721211 198.841027,85.8911157 198.649437,85.8911157 C198.538584,85.8911157 198.413634,85.9191805 198.275228,85.9740346 C198.136821,86.0288886 197.988803,86.1137211 197.830533,86.2278941 C197.672904,86.3414292 197.478751,86.5149211 197.246151,86.7477319 C197.014193,86.9799049 196.893087,87.1285211 196.883476,87.1923049 L196.347792,90.9108995 L195.253358,90.9108995 L196.075465,85.0727697 L197.189123,85.0727697 Z" id="Fill-48" fill="#FEFEFE"></path>
                <path d="M203.602459,87.1164659 L206.058529,87.1164659 C206.058529,86.7101632 205.966258,86.3893308 205.781076,86.1546065 C205.595893,85.9198822 205.335741,85.80252 204.999977,85.80252 C204.361771,85.80252 203.895931,86.2407146 203.602459,87.1164659 M206.842831,89.3884443 L206.683279,90.4415146 C206.088004,90.8771578 205.435701,91.0952984 204.726369,91.0952984 C203.986921,91.0952984 203.392286,90.8382497 202.944388,90.3241524 C202.495849,89.810693 202.27158,89.1256551 202.27158,88.2715903 C202.27158,87.3192984 202.540703,86.5188119 203.078309,85.869493 C203.615915,85.2195362 204.273345,84.8955146 205.051239,84.8955146 C205.645873,84.8955146 206.141188,85.1225849 206.537184,85.5773632 C206.931898,86.0321416 207.129896,86.6195903 207.129896,87.3384335 C207.129896,87.5163903 207.117081,87.6981741 207.09145,87.8844227 L203.432014,87.8844227 C203.398053,88.0789632 203.380752,88.2652119 203.380752,88.4425308 C203.380752,88.9802281 203.52877,89.4043903 203.824165,89.7150173 C204.11956,90.0262822 204.490566,90.1819146 204.936541,90.1819146 C205.480555,90.1819146 206.116198,89.9172119 206.842831,89.3884443" id="Fill-50" fill="#FEFEFE"></path>
                <path d="M216.817052,89.2236908 L217.296989,85.8533557 C217.177806,85.8450638 217.063108,85.8405989 216.952895,85.8405989 C216.081449,85.8405989 215.418252,86.1167827 214.963946,86.6685124 C214.509,87.22088 214.281527,87.8376692 214.281527,88.51888 C214.281527,88.9883286 214.391098,89.372307 214.610241,89.6708151 C214.829385,89.9686854 215.107479,90.1179395 215.443883,90.1179395 C215.712365,90.1179395 216.005838,89.985907 216.324941,89.7218422 C216.644685,89.4571395 216.808722,89.2913016 216.817052,89.2236908 M218.509325,85.0726422 L217.684654,90.9114097 L216.576764,90.9114097 L216.685054,90.2384908 L216.657501,90.2065989 C216.143603,90.7525881 215.616891,91.0255827 215.077363,91.0255827 C214.54232,91.0255827 214.086733,90.8004259 213.710601,90.3501124 C213.334469,89.8997989 213.146723,89.3544476 213.146723,88.7153341 C213.146723,87.6074097 213.495943,86.6933881 214.195663,85.973907 C214.894743,85.2544259 215.871276,84.8953232 217.125903,84.8953232 C217.635956,84.8953232 218.09731,84.9546422 218.509325,85.0726422" id="Fill-52" fill="#FEFEFE"></path>
                <path d="M226.785571,83.0608378 L226.429943,85.5936919 L227.069432,85.5936919 C227.560261,85.5936919 227.951131,85.471227 228.243962,85.2282108 C228.535513,84.9851946 228.681608,84.665 228.681608,84.2669892 C228.681608,83.4499189 228.173478,83.0423405 227.155936,83.0423405 C227.040597,83.0423405 226.917569,83.0480811 226.785571,83.0608378 Z M226.290896,86.5829784 L225.821853,89.9214216 L227.168751,89.9214216 C227.853734,89.9214216 228.379165,89.7881135 228.745044,89.5214973 C229.110924,89.2548811 229.294184,88.8740919 229.294184,88.3791297 C229.294184,87.8758757 229.083371,87.4504378 228.663026,87.1034541 C228.24204,86.7571081 227.740318,86.5829784 227.157858,86.5829784 L226.290896,86.5829784 Z M225.755854,82.0454 L227.062383,82.0454 C227.976121,82.0454 228.675841,82.2469568 229.160263,82.6481568 C229.644685,83.0493568 229.886896,83.599173 229.886896,84.2963297 C229.886896,85.0662 229.476803,85.6498216 228.656618,86.0471946 C229.884974,86.4707189 230.498831,87.2641892 230.498831,88.4282432 C230.498831,89.1649459 230.201514,89.7632378 229.606239,90.2224811 C229.011605,90.6817243 228.238196,90.9113459 227.286012,90.9113459 L224.518527,90.9113459 L225.755854,82.0454 Z" id="Fill-54" fill="#FEFEFE"></path>
                <path d="M235.5777,89.2236908 L236.057636,85.8533557 C235.938453,85.8450638 235.823755,85.8405989 235.713543,85.8405989 C234.842096,85.8405989 234.1789,86.1167827 233.723953,86.6685124 C233.269647,87.22088 233.042174,87.8376692 233.042174,88.51888 C233.042174,88.9883286 233.151746,89.372307 233.370889,89.6708151 C233.590032,89.9686854 233.868126,90.1179395 234.20453,90.1179395 C234.472372,90.1179395 234.766485,89.985907 235.085589,89.7218422 C235.405333,89.4571395 235.56937,89.2913016 235.5777,89.2236908 M237.269973,85.0726422 L236.445302,90.9114097 L235.337411,90.9114097 L235.445701,90.2384908 L235.418148,90.2065989 C234.904251,90.7525881 234.377538,91.0255827 233.83801,91.0255827 C233.302967,91.0255827 232.84738,90.8004259 232.471248,90.3501124 C232.095117,89.8997989 231.907371,89.3544476 231.907371,88.7153341 C231.907371,87.6074097 232.256591,86.6933881 232.956311,85.973907 C233.655391,85.2544259 234.631924,84.8953232 235.886551,84.8953232 C236.396604,84.8953232 236.857958,84.9546422 237.269973,85.0726422" id="Fill-56" fill="#FEFEFE"></path>
                <path d="M240.77274,85.0727697 L240.600373,86.1832454 L240.626004,86.2087589 C240.974583,85.7137968 241.251395,85.3859481 241.455801,85.225213 C241.660206,85.0644778 241.902417,84.9841103 242.183074,84.9841103 C242.358005,84.9841103 242.519478,85.0134508 242.668137,85.0727697 L242.668137,86.3229319 C242.434256,86.1921751 242.206783,86.12584 241.985717,86.12584 C241.768496,86.12584 241.574984,86.1800562 241.404539,86.2878508 C241.234735,86.3956454 241.028407,86.6271805 240.786196,86.9799049 C240.543345,87.333267 240.417754,87.5482184 240.409424,87.6241211 L239.950633,90.9108995 L238.843383,90.9108995 L239.66549,85.0727697 L240.77274,85.0727697 Z" id="Fill-58" fill="#FEFEFE"></path>
                <path d="M245.64291,85.0727697 L245.470543,86.1832454 L245.496174,86.2087589 C245.844753,85.7137968 246.121565,85.3859481 246.32533,85.225213 C246.529736,85.0644778 246.772587,84.9841103 247.053245,84.9841103 C247.227534,84.9841103 247.389649,85.0134508 247.538307,85.0727697 L247.538307,86.3229319 C247.304426,86.1921751 247.076953,86.12584 246.855887,86.12584 C246.638667,86.12584 246.445154,86.1800562 246.274709,86.2878508 C246.104905,86.3956454 245.898578,86.6271805 245.656367,86.9799049 C245.413515,87.333267 245.287924,87.5482184 245.279594,87.6241211 L244.820162,90.9108995 L243.712912,90.9108995 L244.53502,85.0727697 L245.64291,85.0727697 Z" id="Fill-60" fill="#FEFEFE"></path>
                <path d="M251.966795,89.2236908 L252.446731,85.8533557 C252.327548,85.8450638 252.21285,85.8405989 252.102638,85.8405989 C251.231191,85.8405989 250.567995,86.1167827 250.113048,86.6685124 C249.658102,87.22088 249.431269,87.8376692 249.431269,88.51888 C249.431269,88.9883286 249.540841,89.372307 249.759984,89.6708151 C249.979127,89.9686854 250.257221,90.1179395 250.593625,90.1179395 C250.861467,90.1179395 251.15558,89.985907 251.474684,89.7218422 C251.794428,89.4571395 251.957824,89.2913016 251.966795,89.2236908 M253.659068,85.0726422 L252.834397,90.9114097 L251.726506,90.9114097 L251.834796,90.2384908 L251.807243,90.2065989 C251.293346,90.7525881 250.766633,91.0255827 250.227105,91.0255827 C249.692062,91.0255827 249.236475,90.8004259 248.860343,90.3501124 C248.484211,89.8997989 248.296466,89.3544476 248.296466,88.7153341 C248.296466,87.6074097 248.645685,86.6933881 249.345406,85.973907 C250.044486,85.2544259 251.021019,84.8953232 252.275005,84.8953232 C252.785698,84.8953232 253.247053,84.9546422 253.659068,85.0726422" id="Fill-62" fill="#FEFEFE"></path>
                <path d="M257.07264,85.0727697 L256.923981,86.1054292 L256.953457,86.12584 C257.578207,85.3648995 258.226025,84.9841103 258.897552,84.9841103 C259.352499,84.9841103 259.704922,85.1499481 259.956104,85.4822616 C260.206645,85.8145751 260.332235,86.2425643 260.332235,86.766867 C260.332235,86.9154832 260.31942,87.06984 260.293789,87.2305751 L259.731834,90.9108995 L258.636759,90.9108995 L259.171802,87.1923049 C259.193588,87.0609103 259.20384,86.9409968 259.20384,86.8306508 C259.20384,86.5257643 259.140404,86.2935914 259.01225,86.1328562 C258.884096,85.9721211 258.724544,85.8911157 258.532954,85.8911157 C258.42146,85.8911157 258.297151,85.9191805 258.158745,85.9740346 C258.020338,86.0288886 257.872321,86.1137211 257.71405,86.2278941 C257.556421,86.3414292 257.361627,86.5149211 257.129668,86.7477319 C256.897069,86.9799049 256.776604,87.1285211 256.766993,87.1923049 L256.231309,90.9108995 L255.136234,90.9108995 L255.958982,85.0727697 L257.07264,85.0727697 Z" id="Fill-64" fill="#FEFEFE"></path>
                <path d="M265.638834,89.92072 L266.216167,85.8028389 C265.268469,85.7562768 264.529021,85.983347 263.997182,86.4846876 C263.465984,86.9860281 263.200705,87.6685146 263.200705,88.5315092 C263.200705,89.0302984 263.339752,89.4302227 263.617846,89.7306443 C263.895299,90.0317038 264.263742,90.1815957 264.721892,90.1815957 C264.964103,90.1815957 265.26975,90.0942119 265.638834,89.92072 Z M267.450931,84.8951957 L266.188614,93.9001903 L265.081364,93.9001903 L265.524136,90.7403416 C265.043559,90.9769795 264.639233,91.0956173 264.3118,91.0956173 C263.644118,91.0956173 263.101386,90.8532389 262.684886,90.3684822 C262.267744,89.8843632 262.059494,89.2503524 262.059494,88.4683632 C262.059494,87.4484605 262.421529,86.5982227 263.145599,85.9170119 C263.870309,85.2358011 264.892978,84.8951957 266.214245,84.8951957 L267.450931,84.8951957 Z" id="Fill-66" fill="#FEFEFE"></path>
                <path d="M274.291083,85.0727697 L273.45616,90.9108995 L272.361085,90.9108995 L272.462967,89.921613 C271.787596,90.6404562 271.143622,91.0001968 270.531687,91.0001968 C270.136332,91.0001968 269.80121,90.8592346 269.527601,90.5785859 C269.253352,90.2966616 269.116227,89.8960995 269.116227,89.3756238 C269.116227,89.2276454 269.126479,89.0771157 269.148265,88.9246724 L269.696764,85.0727697 L270.804014,85.0727697 L270.256156,88.9246724 C270.238855,89.0516022 270.231166,89.17024 270.231166,89.2805859 C270.231166,89.8642076 270.447106,90.1563373 270.881547,90.1563373 C271.336494,90.1563373 271.925361,89.7270724 272.64815,88.8679049 L273.183833,85.0727697 L274.291083,85.0727697 Z" id="Fill-68" fill="#FEFEFE"></path>
                <path d="M276.721523,83.2452368 C276.721523,83.06728 276.784318,82.9161124 276.909268,82.7910962 C277.034859,82.6667178 277.184799,82.6042097 277.359088,82.6042097 C277.533378,82.6042097 277.683318,82.6667178 277.808909,82.7910962 C277.933859,82.9161124 277.996654,83.06728 277.996654,83.2452368 C277.996654,83.4180908 277.933859,83.5679827 277.808909,83.6923611 C277.683318,83.8167395 277.533378,83.8798854 277.359088,83.8798854 C277.184799,83.8798854 277.034859,83.8167395 276.909268,83.6923611 C276.784318,83.5679827 276.721523,83.4180908 276.721523,83.2452368 Z M277.707667,85.0726422 L276.88556,90.9114097 L275.777669,90.9114097 L276.600417,85.0726422 L277.707667,85.0726422 Z" id="Fill-70" fill="#FEFEFE"></path>
                <polygon id="Fill-72" fill="#FEFEFE" points="281.379598 82.0455276 280.123049 90.9108357 279.015798 90.9108357 280.271707 82.0455276"></polygon>
                <polygon id="Fill-74" fill="#FEFEFE" points="284.617599 82.0455276 283.361691 90.9108357 282.2538 90.9108357 283.509709 82.0455276"></polygon>
                <path d="M289.321362,89.2236908 L289.801298,85.8533557 C289.682115,85.8450638 289.567417,85.8405989 289.457205,85.8405989 C288.585758,85.8405989 287.922561,86.1167827 287.468256,86.6685124 C287.013309,87.22088 286.785836,87.8376692 286.785836,88.51888 C286.785836,88.9883286 286.895408,89.372307 287.114551,89.6708151 C287.334335,89.9686854 287.611788,90.1179395 287.948192,90.1179395 C288.216675,90.1179395 288.510147,89.985907 288.829891,89.7218422 C289.148995,89.4571395 289.313032,89.2913016 289.321362,89.2236908 M291.014275,85.0726422 L290.188964,90.9114097 L289.081073,90.9114097 L289.190004,90.2384908 L289.16181,90.2065989 C288.647913,90.7525881 288.1212,91.0255827 287.581672,91.0255827 C287.046629,91.0255827 286.591042,90.8004259 286.21491,90.3501124 C285.838778,89.8997989 285.651033,89.3544476 285.651033,88.7153341 C285.651033,87.6074097 286.000893,86.6933881 286.699973,85.973907 C287.399053,85.2544259 288.376226,84.8953232 289.630213,84.8953232 C290.140265,84.8953232 290.60162,84.9546422 291.014275,85.0726422" id="Fill-76" fill="#FEFEFE"></path>
            </g>
        </g>
    </g>
</svg>