<?xml version="1.0" encoding="utf-8"?>
<!-- Generator: Adobe Illustrator 22.1.0, SVG Export Plug-In . SVG Version: 6.00 Build 0)  -->
<svg version="1.1" id="Capa_1" xmlns="http://www.w3.org/2000/svg" xmlns:xlink="http://www.w3.org/1999/xlink" x="0px" y="0px"
	 viewBox="0 0 202.7 285.4" style="enable-background:new 0 0 202.7 285.4;" xml:space="preserve">
<style type="text/css">
	.st0{fill:url(#SVGID_1_);}
	.st1{fill:url(#SVGID_2_);}
	.st2{fill:url(#SVGID_3_);}
	.st3{fill:url(#SVGID_4_);}
	.st4{fill:none;}
	.st5{fill:url(#SVGID_5_);}
	.st6{fill:url(#SVGID_6_);}
	.st7{fill:url(#SVGID_7_);}
	.st8{fill:url(#SVGID_8_);}
	.st9{opacity:0.15;fill:url(#SVGID_9_);enable-background:new    ;}
	.st10{fill:url(#SVGID_10_);}
	.st11{opacity:0.12;fill:url(#SVGID_11_);enable-background:new    ;}
	.st12{opacity:0.12;fill:url(#SVGID_12_);enable-background:new    ;}
	.st13{opacity:0.12;fill:url(#SVGID_13_);enable-background:new    ;}
	.st14{fill:url(#SVGID_14_);}
	.st15{fill:url(#SVGID_15_);}
	.st16{opacity:0.1;fill:url(#SVGID_16_);enable-background:new    ;}
	.st17{fill:url(#SVGID_17_);}
	.st18{fill:url(#SVGID_18_);}
	.st19{fill:url(#SVGID_19_);}
	.st20{fill:url(#SVGID_20_);}
	.st21{fill:url(#SVGID_21_);}
	.st22{opacity:0.1;fill:url(#SVGID_22_);enable-background:new    ;}
	.st23{fill:url(#SVGID_23_);}
	.st24{fill:url(#SVGID_24_);}
	.st25{opacity:0.1;fill:url(#SVGID_25_);enable-background:new    ;}
	.st26{opacity:0.15;fill:url(#SVGID_26_);enable-background:new    ;}
	.st27{opacity:0.15;fill:url(#SVGID_27_);enable-background:new    ;}
	.st28{opacity:0.15;fill:url(#SVGID_28_);enable-background:new    ;}
	.st29{opacity:0.15;fill:url(#SVGID_29_);enable-background:new    ;}
</style>
<g>
	<g>
		<g>
			
				<linearGradient id="SVGID_1_" gradientUnits="userSpaceOnUse" x1="-1752.6539" y1="-48.081" x2="-1730.5184" y2="-48.081" gradientTransform="matrix(0.9966 8.298481e-02 8.298481e-02 -0.9966 1930.3354 358.0085)">
				<stop  offset="0" style="stop-color:#DAE7F8"/>
				<stop  offset="1" style="stop-color:#A7C7EC"/>
			</linearGradient>
			<path class="st0" d="M187.1,247.9c0,0-12.5,11.4-5.8,30.5c0,0,17.2-13.4,21.4-26.6c0,0-4.6-7.9-7.1-7.8
				C193,244.1,187.1,247.9,187.1,247.9z"/>
			<g>
				
					<linearGradient id="SVGID_2_" gradientUnits="userSpaceOnUse" x1="-1751.5598" y1="-48.1272" x2="-1732.1345" y2="-48.1272" gradientTransform="matrix(0.9966 8.298481e-02 8.298481e-02 -0.9966 1930.3354 358.0085)">
					<stop  offset="0" style="stop-color:#1F3682"/>
					<stop  offset="1" style="stop-color:#162766"/>
				</linearGradient>
				<path class="st1" d="M180,274l-0.2-1c13-10.3,20.9-24.1,20.9-24.2l0.5,0.7C201.2,249.7,193.2,263.6,180,274z"/>
			</g>
		</g>
		
			<linearGradient id="SVGID_3_" gradientUnits="userSpaceOnUse" x1="-1285.1603" y1="739.1045" x2="-1270.4966" y2="739.1045" gradientTransform="matrix(0.978 -0.2087 -0.2087 -0.978 1591.1545 697.468)">
			<stop  offset="0" style="stop-color:#E4977C"/>
			<stop  offset="1" style="stop-color:#B56852"/>
		</linearGradient>
		<path class="st2" d="M179.4,239.7l7.9,8.7c0.6,0.6,1.5,0.9,2.3,0.7c1.8-0.5,4.7-1.9,5.6-5.3l-6.2-11.2L179.4,239.7z"/>
	</g>
	<g>
		<g>
			
				<linearGradient id="SVGID_4_" gradientUnits="userSpaceOnUse" x1="-883.1663" y1="-1281.4838" x2="-859.0999" y2="-1281.4838" gradientTransform="matrix(0.8778 0.479 0.479 -0.8778 1502.8607 -434.1246)">
				<stop  offset="0" style="stop-color:#DAE7F8"/>
				<stop  offset="1" style="stop-color:#A7C7EC"/>
			</linearGradient>
			<path class="st3" d="M127,257.6c0,0-17.5,5.9-19.2,27.8c0,0,23-5.8,33-17.1c0,0-5.2-10.1-7.8-11.1
				C130.5,256.2,127,257.6,127,257.6z"/>
			<g>
				<path class="st4" d="M108.7,279.8l0.1-0.2C108.7,279.6,108.7,279.7,108.7,279.8z"/>
				<path class="st4" d="M139.2,265.2c-1.7-3.1-4.4-7.4-6.1-8c-2.6-1-6.1,0.4-6.1,0.4s-14.2,4.8-18.2,21.8
					C123.5,275.6,135.6,267.7,139.2,265.2z"/>
				<path class="st4" d="M108.5,280.4c-0.3,1.6-0.6,3.2-0.7,5c0,0,23-5.8,33-17.1c0,0-0.5-1-1.2-2.3
					C136.4,268.3,123.8,276.5,108.5,280.4z"/>
				
					<linearGradient id="SVGID_5_" gradientUnits="userSpaceOnUse" x1="-881.9719" y1="-1281.0876" x2="-860.8522" y2="-1281.0876" gradientTransform="matrix(0.8778 0.479 0.479 -0.8778 1502.8607 -434.1246)">
					<stop  offset="0" style="stop-color:#1F3682"/>
					<stop  offset="1" style="stop-color:#162766"/>
				</linearGradient>
				<path class="st5" d="M139.6,266c-0.1-0.2-0.3-0.5-0.4-0.8c-3.6,2.5-15.7,10.4-30.4,14.1c0,0.1,0,0.1,0,0.2l-0.1,0.2
					c0,0.2-0.1,0.4-0.1,0.6C123.8,276.5,136.4,268.3,139.6,266z"/>
			</g>
		</g>
		
			<linearGradient id="SVGID_6_" gradientUnits="userSpaceOnUse" x1="-446.3734" y1="-1092.2468" x2="-432.8703" y2="-1092.2468" gradientTransform="matrix(0.8734 0.487 0.487 -0.8734 1044.8444 -486.2707)">
			<stop  offset="0" style="stop-color:#E4977C"/>
			<stop  offset="1" style="stop-color:#B56852"/>
		</linearGradient>
		<path class="st6" d="M124.5,247.8l0.3,10.3c0,1.7,1.5,3.1,3.2,3.1c1.5,0,3.3-0.3,5.1-1.4c0.3-0.2,0.5-0.5,0.6-0.8l2.2-10.2
			L124.5,247.8z"/>
	</g>
	<g>
		
			<linearGradient id="SVGID_7_" gradientUnits="userSpaceOnUse" x1="126.9506" y1="110.1857" x2="191.0124" y2="110.1857" gradientTransform="matrix(1 0 0 -1 0 285.4312)">
			<stop  offset="0" style="stop-color:#1F3683"/>
			<stop  offset="1" style="stop-color:#0F0038"/>
		</linearGradient>
		<path class="st7" d="M127,127.2c0,0,6.2,11.9,7.5,34.9s13,41.5,23.2,53.2s20.1,26.1,20.1,26.1s11.2-0.1,13.1-6.5
			s-13.4-37.1-21.2-47.2s10.6-41.7,4.6-68.5C168.1,92.4,127,127.2,127,127.2z"/>
		
			<linearGradient id="SVGID_8_" gradientUnits="userSpaceOnUse" x1="114.5365" y1="110.9766" x2="175.0411" y2="110.9766" gradientTransform="matrix(1 0 0 -1 0 285.4312)">
			<stop  offset="0" style="stop-color:#1F3683"/>
			<stop  offset="1" style="stop-color:#0F0038"/>
		</linearGradient>
		<path class="st8" d="M129.7,126.1c0,0-2.4,1-2.4,5.9c-0.2,12.5-13.2,37.5-12.7,55.1c0.6,24.4,6.3,60.5,7.3,62.2s16.4,5.8,18.1-3.5
			c1.7-9.3,6.3-28.7,2.4-50.8c-3.9-22,21.3-33.1,30.9-58.7c8-21.3-13.4-39.1-13.4-39.1L129.7,126.1z"/>
		
			<linearGradient id="SVGID_9_" gradientUnits="userSpaceOnUse" x1="134.7333" y1="150.7656" x2="143.9128" y2="150.7656" gradientTransform="matrix(1 0 0 -1 0 285.4312)">
			<stop  offset="0" style="stop-color:#24000A"/>
			<stop  offset="1" style="stop-color:#050000"/>
		</linearGradient>
		<path class="st9" d="M143.9,129.6c-0.1-1.8-0.4-3.7-1-5.4c0,1.8,0.1,3.6,0,5.4c-0.1,1.8-0.3,3.5-0.6,5.3c-0.2,1-0.4,2-0.6,2.9
			c-0.2-0.2-0.4-0.3-0.6-0.5c-0.4-0.4-0.8-0.8-1.2-1.2c-0.7-0.9-1.4-1.8-1.9-2.8c-0.6-1-1-2.1-1.4-3.2l-0.6-1.7l-0.5-1.7l0.3,1.7
			l0.4,1.7c0.3,1.1,0.7,2.3,1.2,3.4c0.5,1.1,1,2.2,1.7,3.2c0.3,0.5,0.7,1,1.2,1.4c0.2,0.2,0.4,0.4,0.7,0.6c0.1,0.1,0.3,0.2,0.4,0.3
			c-0.1,0.3-0.2,0.7-0.2,1c-0.5,1.7-1,3.4-1.6,5.1c1.1-1.5,1.9-3.1,2.5-4.8c0.7-1.7,1.1-3.5,1.4-5.3
			C143.9,133.3,144,131.5,143.9,129.6z"/>
	</g>
	<g>
		
			<linearGradient id="SVGID_10_" gradientUnits="userSpaceOnUse" x1="0.2557" y1="148.9744" x2="27.5569" y2="148.9744" gradientTransform="matrix(1 0 0 -1 0 285.4312)">
			<stop  offset="0" style="stop-color:#EAC29C"/>
			<stop  offset="1" style="stop-color:#DF9C74"/>
		</linearGradient>
		<path class="st10" d="M23,128.7c0,0-2.1,0.6-4.2-1c-2-1.5-8.4,1.1-13.2,1.1c-0.4,0-0.6,0.4-0.5,0.8c0.4,0.8,1.4,1.8,4.3,1.7
			c4.5-0.3,4.3,2.1,2.3,3.5s-3,3.7-5.7,4.6c-2.7,0.9-5.7,1.3-5.8,2.8c-0.1,1.5,6.1-0.2,6.6,0c0,0,0.6,0.5,2.1,0.7
			c0,0,0.3,0.7,2.3,0.9c0,0,1.3,2.2,3.1,1.8c1.8-0.4,2.4-2.7,4.1-3.5s6.4-5,7-6.6s2.1-2.6,2.1-2.6L23,128.7z"/>
		
			<linearGradient id="SVGID_11_" gradientUnits="userSpaceOnUse" x1="6.7972" y1="144.2656" x2="12.3473" y2="144.2656" gradientTransform="matrix(1 0 0 -1 0 285.4312)">
			<stop  offset="0" style="stop-color:#24000A"/>
			<stop  offset="1" style="stop-color:#050000"/>
		</linearGradient>
		<path class="st11" d="M6.9,142.1c0.9-0.4,1.8-0.7,2.7-1c0.9-0.3,1.8-0.7,2.7-0.9c-0.8,0.5-1.7,0.9-2.6,1.3
			C8.8,141.7,7.9,142,6.9,142.1z"/>
		
			<linearGradient id="SVGID_12_" gradientUnits="userSpaceOnUse" x1="8.9267" y1="142.9612" x2="12.7985" y2="142.9612" gradientTransform="matrix(1 0 0 -1 0 285.4312)">
			<stop  offset="0" style="stop-color:#24000A"/>
			<stop  offset="1" style="stop-color:#050000"/>
		</linearGradient>
		<path class="st12" d="M9,142.8c0.6-0.1,1.3-0.2,1.9-0.4c0.6-0.1,1.2-0.3,1.9-0.4c-0.6,0.4-1.2,0.6-1.8,0.7
			C10.3,142.9,9.6,143,9,142.8z"/>
		
			<linearGradient id="SVGID_13_" gradientUnits="userSpaceOnUse" x1="11.2138" y1="141.696" x2="13.6901" y2="141.696" gradientTransform="matrix(1 0 0 -1 0 285.4312)">
			<stop  offset="0" style="stop-color:#24000A"/>
			<stop  offset="1" style="stop-color:#050000"/>
		</linearGradient>
		<path class="st13" d="M11.3,143.7c0.4-0.1,0.8-0.1,1.2-0.1c0.4,0,0.8,0,1.2-0.1c-0.3,0.3-0.8,0.4-1.2,0.4
			C12.1,144,11.7,143.9,11.3,143.7z"/>
	</g>
	
		<linearGradient id="SVGID_14_" gradientUnits="userSpaceOnUse" x1="24.5649" y1="159.3734" x2="29.2221" y2="152.8162" gradientTransform="matrix(1 0 0 -1 0 285.4312)">
		<stop  offset="0" style="stop-color:#DBE8F9"/>
		<stop  offset="1" style="stop-color:#A8C8ED"/>
	</linearGradient>
	<path class="st14" d="M27.5,133.5c-0.9,0.6-2,0.5-2.8-0.1c-0.5-0.4-1-0.9-1.5-1.6c-0.4-0.6-0.7-1.1-0.8-1.5c-0.4-1-0.1-2.1,0.8-2.8
		c1.7-1.3,3.4-2.8,5.1-4l4.7,6.6L27.5,133.5z"/>
	
		<linearGradient id="SVGID_15_" gradientUnits="userSpaceOnUse" x1="44.5468" y1="251.2785" x2="92.1505" y2="251.2785" gradientTransform="matrix(1 0 0 -1 0 285.4312)">
		<stop  offset="0" style="stop-color:#EAC29C"/>
		<stop  offset="1" style="stop-color:#DF9C74"/>
	</linearGradient>
	<path class="st15" d="M44.6,22.3c0,0-0.2,5.1,2.3,10.7c2.4,5.6-2.3,13,0,13.9c1.6,0.6,3.6-0.8,4.7-1.8c0.5-0.4,1.1-0.3,1.5,0.2
		c1.9,2.8,7.8,10.5,12.5,8.3c5.7-2.6,5.9-6.6,13.2-2.3c3.1,1.8,6.3-1.8,9.1-5.7c1.6-2.3,3.1-4.6,4.3-6c0,0-10-7.2-12.4-12.3
		c-1.4-3-5.5-10.2-13-12.4C61.2,13.3,53.9,14.5,44.6,22.3z"/>
	
		<linearGradient id="SVGID_16_" gradientUnits="userSpaceOnUse" x1="75.7737" y1="249.8656" x2="92.121" y2="249.8656" gradientTransform="matrix(1 0 0 -1 0 285.4312)">
		<stop  offset="0" style="stop-color:#24000A"/>
		<stop  offset="1" style="stop-color:#050000"/>
	</linearGradient>
	<path class="st16" d="M87.8,45.5c1.6-2.3,3.1-4.6,4.3-6c0,0-10-7.2-12.4-12.3l-2.3-1.6c0,0,3,5.6-1.6,7.6c0,0,1.8,3.7,1.6,5.3
		C77.4,38.6,84.2,37.2,87.8,45.5z"/>
	<g>
		
			<linearGradient id="SVGID_17_" gradientUnits="userSpaceOnUse" x1="56.871" y1="242.2656" x2="63.2039" y2="242.2656" gradientTransform="matrix(1 0 0 -1 0 285.4312)">
			<stop  offset="0" style="stop-color:#24000A"/>
			<stop  offset="1" style="stop-color:#050000"/>
		</linearGradient>
		<path class="st17" d="M57.4,47.7c-0.2,0-0.3-0.1-0.4-0.3c-0.1-0.2,0-0.5,0.2-0.6c0.1,0,4.3-2.1,5.2-7.8c0-0.2,0.3-0.4,0.5-0.4
			s0.4,0.3,0.4,0.5c-0.9,6.3-5.5,8.4-5.7,8.5C57.5,47.7,57.4,47.7,57.4,47.7z"/>
	</g>
	
		<linearGradient id="SVGID_18_" gradientUnits="userSpaceOnUse" x1="50.2097" y1="251.3156" x2="54.1028" y2="251.3156" gradientTransform="matrix(1 0 0 -1 0 285.4312)">
		<stop  offset="0" style="stop-color:#24000A"/>
		<stop  offset="1" style="stop-color:#050000"/>
	</linearGradient>
	<path class="st18" d="M53.2,33.4c0.9,1.3,1.2,2.6,0.7,3s-1.7-0.3-2.7-1.6c-0.9-1.3-1.2-2.6-0.7-3C51.1,31.4,52.3,32.1,53.2,33.4z"
		/>
	
		<linearGradient id="SVGID_19_" gradientUnits="userSpaceOnUse" x1="47.2596" y1="257.2071" x2="55.0861" y2="257.2071" gradientTransform="matrix(1 0 0 -1 0 285.4312)">
		<stop  offset="0" style="stop-color:#24000A"/>
		<stop  offset="1" style="stop-color:#050000"/>
	</linearGradient>
	<path class="st19" d="M54.6,28.1c-1.3,0.1-3.6,0.5-5.8,1.8c-0.5,0.3-1.2,0.1-1.4-0.5c-0.2-0.6-0.1-1.2,0.6-1.8c1.3-1,5-1.9,6.9-0.5
		C55.4,27.3,55.2,28,54.6,28.1z"/>
	
		<linearGradient id="SVGID_20_" gradientUnits="userSpaceOnUse" x1="34.7503" y1="267.7598" x2="86.9505" y2="267.7598" gradientTransform="matrix(1 0 0 -1 0 285.4312)">
		<stop  offset="0" style="stop-color:#311A79"/>
		<stop  offset="1" style="stop-color:#0F0B35"/>
	</linearGradient>
	<path class="st20" d="M67.3,31.1c-0.6,0.1-1.1-9.4-8.8-11.4c0,0-23.8,13.3-23.7-10.1c0,0,1.6,6.3,3.8,7.3c0,0-2.3-11,6.9-16.6
		c0,0-0.5,3.2,0.2,4.6c0,0,4.6-7.6,20.8-3.9c16.3,3.7,18.8,8.7,18.7,14.5S81,30.4,87,35.3c0,0-7.1,0.7-8.7-5
		c-1.6-5.7-3.6-10.2-7.6-8.5C66.6,23.6,74.5,29.9,67.3,31.1z"/>
	
		<linearGradient id="SVGID_21_" gradientUnits="userSpaceOnUse" x1="72.5128" y1="198.6646" x2="163.7658" y2="198.6646" gradientTransform="matrix(1 0 0 -1 0 285.4312)">
		<stop  offset="0" style="stop-color:#3359D4"/>
		<stop  offset="1" style="stop-color:#487FED"/>
	</linearGradient>
	<path class="st21" d="M87.6,47.7c0,0-6.2,1.4-11.3,7.8c-5.1,6.4-3.5,8.2-3.5,8.2s-3.1,20.4,20.3,25.4c0,0,8.6,5.7,14.1,14.9
		c5.5,9.2,5.8,21.6,20.6,24.8s28.8-11.2,34.9-26.6c6.1-15.3-14.2-11.2-27.5-34.3C122,44.8,104.9,39.9,87.6,47.7z"/>
	
		<linearGradient id="SVGID_22_" gradientUnits="userSpaceOnUse" x1="76.2506" y1="204.8575" x2="163.7659" y2="204.8575" gradientTransform="matrix(1 0 0 -1 0 285.4312)">
		<stop  offset="0" style="stop-color:#24000A"/>
		<stop  offset="1" style="stop-color:#050000"/>
	</linearGradient>
	<path class="st22" d="M154,116.9c3.6-4.3,6.6-9.4,8.7-14.7c6.1-15.3-14.2-11.2-27.5-34.3c-13.3-23.1-30.3-28-47.6-20.3
		c0,0-6.2,1.4-11.3,7.8c0,0,22-9.3,33.3,0s17.8,30.6,34.3,37.3C160.5,99.5,154,116.9,154,116.9z"/>
	
		<linearGradient id="SVGID_23_" gradientUnits="userSpaceOnUse" x1="25.1199" y1="188.0727" x2="95.0335" y2="188.0727" gradientTransform="matrix(1 0 0 -1 0 285.4312)">
		<stop  offset="0" style="stop-color:#DBE8F9"/>
		<stop  offset="1" style="stop-color:#A8C8ED"/>
	</linearGradient>
	<path class="st23" d="M72.9,63.7c0,0-6.5,20.4-17,32.8s-34.6,21.7-30.2,32.8c4.4,11,40.4-14.3,47.2-21.3S86,87.7,93.2,89.2
		c0,0,5.5-8.2-2.3-17.5S75.4,61.4,72.9,63.7z"/>
	
		<linearGradient id="SVGID_24_" gradientUnits="userSpaceOnUse" x1="74.9315" y1="233.0622" x2="123.4778" y2="254.3582" gradientTransform="matrix(1 0 0 -1 0 285.4312)">
		<stop  offset="0" style="stop-color:#3359D4"/>
		<stop  offset="1" style="stop-color:#487FED"/>
	</linearGradient>
	<path class="st24" d="M76.3,55.5c0,0,0.6-8.3,9.9-12.8c0,0,7-5,10.2-12s17.2-13.7,22.4,3.5c0,0,11.9,0.9,7.2,10.1
		S92.9,41.4,76.3,55.5z"/>
	
		<linearGradient id="SVGID_25_" gradientUnits="userSpaceOnUse" x1="87.6473" y1="239.4035" x2="123.2396" y2="255.017" gradientTransform="matrix(1 0 0 -1 0 285.4312)">
		<stop  offset="0" style="stop-color:#24000A"/>
		<stop  offset="1" style="stop-color:#050000"/>
	</linearGradient>
	<path class="st25" d="M126,44.2c4.7-9.2-7.2-10.1-7.2-10.1c-5.3-17.2-19.2-10.5-22.4-3.5s-10.2,12-10.2,12s6.1-4.6,11.6-4.9
		c5.5-0.4,10.2-3.6,10.2-3.6s9.2-1,11,3.8C119.1,37.9,125,38.9,126,44.2z"/>
	
		<linearGradient id="SVGID_26_" gradientUnits="userSpaceOnUse" x1="118.6084" y1="248.4656" x2="119.8869" y2="248.4656" gradientTransform="matrix(1 0 0 -1 0 285.4312)">
		<stop  offset="0" style="stop-color:#24000A"/>
		<stop  offset="1" style="stop-color:#050000"/>
	</linearGradient>
	<path class="st26" d="M118.9,34.1c0.2,0.4,0.4,0.9,0.5,1.4c0.1,0.2,0.1,0.5,0.1,0.8c0,0.1,0,0.3,0,0.4s0,0.2,0,0.4c0,0.5,0,1,0,1.4
		c0,0.2,0.1,0.5,0.1,0.7c0.1,0.2,0.1,0.5,0.3,0.6c-0.2-0.1-0.4-0.3-0.5-0.6c-0.1-0.2-0.2-0.5-0.2-0.7c-0.1-0.5-0.2-1-0.1-1.5
		c0-0.3,0.1-0.5,0.1-0.7s0-0.5,0-0.7C119,35.1,118.9,34.6,118.9,34.1z"/>
	
		<linearGradient id="SVGID_27_" gradientUnits="userSpaceOnUse" x1="85.8932" y1="250.2879" x2="111.5084" y2="250.2879" gradientTransform="matrix(1 0 0 -1 0 285.4312)">
		<stop  offset="0" style="stop-color:#24000A"/>
		<stop  offset="1" style="stop-color:#050000"/>
	</linearGradient>
	<path class="st27" d="M106.5,28.2c0.7-0.3,1.4-0.5,2.1-0.6c0.4,0,0.8-0.1,1.1,0c0.4,0.1,0.8,0.2,1.1,0.5s0.5,0.7,0.5,1.1
		c0,0.2,0,0.4,0,0.6c0,0.1,0,0.2,0,0.3l-0.1,0.3c-0.2,0.8-0.5,1.5-1,2.1c-0.1,0.2-0.2,0.3-0.4,0.4c-0.1,0.1-0.3,0.3-0.4,0.4
		c-0.3,0.2-0.6,0.5-0.9,0.7c-0.3,0.2-0.6,0.5-0.9,0.7l-0.5,0.3l-0.5,0.3c-1.3,0.7-2.7,1.3-4.1,1.7c-0.7,0.2-1.4,0.4-2.2,0.5
		l-2.2,0.4c-1.4,0.2-2.8,0.6-4.2,1.1s-2.7,1-4,1.6s-2.6,1.3-3.8,2.1c2.3-1.8,4.9-3.3,7.6-4.4c1.4-0.5,2.8-0.9,4.3-1.2l2.1-0.4
		c0.7-0.2,1.4-0.3,2.1-0.5c1.4-0.4,2.7-0.9,4-1.6s2.5-1.5,3.4-2.5c0.5-0.5,0.8-1.1,1-1.8c0.2-0.6,0.2-1.4-0.3-1.8
		c-0.4-0.5-1.2-0.6-1.9-0.6C107.9,27.9,107.2,28,106.5,28.2z"/>
	
		<linearGradient id="SVGID_28_" gradientUnits="userSpaceOnUse" x1="3325.5105" y1="2318.1575" x2="3330.6306" y2="2318.1575" gradientTransform="matrix(-0.4283 0.9036 -0.9036 -0.4283 3594.6069 -1987.1985)">
		<stop  offset="0" style="stop-color:#24000A"/>
		<stop  offset="1" style="stop-color:#050000"/>
	</linearGradient>
	<path class="st28" d="M74.9,30c-0.2-0.5-0.2-1.1-0.4-1.5c-0.1-0.2-0.2-0.5-0.3-0.6c-0.1-0.2-0.3-0.3-0.5-0.3
		c-0.3-0.1-0.7,0.3-0.9,0.7l-0.3,0.6l-0.2-0.6c-0.1-0.4-0.2-0.9-0.2-1.3s0-0.9,0.1-1.3s0.4-0.9,0.8-1.1c0.2-0.1,0.5-0.2,0.7-0.1
		s0.4,0.2,0.5,0.4c-0.1-0.2-0.3-0.3-0.5-0.3s-0.4,0-0.5,0.2c-0.3,0.2-0.5,0.6-0.6,1c-0.1,0.6,0,1.3,0.1,1.9c0.1-0.1,0.1-0.2,0.2-0.2
		c0.2-0.2,0.6-0.4,0.9-0.3c0.7,0.2,1,0.8,1.1,1.3s0.1,1.1,0.2,1.5c0.1,0.2,0.2,0.3,0.5,0.3c0.2-0.1,0.5-0.2,0.7-0.3
		c-0.2,0.2-0.4,0.3-0.7,0.4c-0.1,0-0.1,0-0.2,0.1c-0.1,0-0.2,0-0.2,0C75.1,30.3,75,30.1,74.9,30z"/>
	
		<linearGradient id="SVGID_29_" gradientUnits="userSpaceOnUse" x1="43.4988" y1="267.7598" x2="86.9301" y2="267.7598" gradientTransform="matrix(1 0 0 -1 0 285.4312)">
		<stop  offset="0" style="stop-color:#24000A"/>
		<stop  offset="1" style="stop-color:#050000"/>
	</linearGradient>
	<path class="st29" d="M71.9,21.5c3.2-0.4,4.9,3.7,6.3,8.8c1.6,5.7,8.7,5,8.7,5c-6-4.8-2-13.9-1.8-19.8S82.7,4.6,66.4,1
		C50.1-2.7,45.6,4.9,45.6,4.9c-0.7-1.4-0.2-4.6-0.2-4.6s-4.6,5.8,0.7,13.2C51.6,21.1,69,8.9,71.9,21.5z"/>
</g>
</svg>
