<?xml version="1.0" encoding="utf-8"?>
<!-- Generator: Adobe Illustrator 22.1.0, SVG Export Plug-In . SVG Version: 6.00 Build 0)  -->
<svg version="1.1" id="Capa_1" xmlns="http://www.w3.org/2000/svg" xmlns:xlink="http://www.w3.org/1999/xlink" x="0px" y="0px"
	 viewBox="0 0 141.7 162.9" style="enable-background:new 0 0 141.7 162.9;" xml:space="preserve">
<style type="text/css">
	.st0{fill:url(#SVGID_1_);}
	.st1{fill:url(#SVGID_2_);}
	.st2{fill:url(#SVGID_3_);}
	.st3{opacity:0.15;fill:url(#SVGID_4_);enable-background:new    ;}
	.st4{opacity:0.15;fill:url(#SVGID_5_);enable-background:new    ;}
	.st5{fill:url(#SVGID_6_);}
	.st6{fill:url(#SVGID_7_);}
	.st7{opacity:2.000000e-02;fill:url(#SVGID_8_);enable-background:new    ;}
	.st8{fill:url(#SVGID_9_);}
	.st9{opacity:2.000000e-02;fill:url(#SVGID_10_);enable-background:new    ;}
	.st10{fill:url(#SVGID_11_);}
	.st11{fill:url(#SVGID_12_);}
	.st12{fill:url(#SVGID_13_);}
	.st13{opacity:0.15;fill:url(#SVGID_14_);enable-background:new    ;}
	.st14{fill:url(#SVGID_15_);}
	.st15{opacity:0.15;fill:url(#SVGID_16_);enable-background:new    ;}
	.st16{fill:url(#SVGID_17_);}
	.st17{fill:url(#SVGID_18_);}
	.st18{fill:url(#SVGID_19_);}
	.st19{fill:url(#SVGID_20_);}
	.st20{opacity:0.19;fill:url(#SVGID_21_);enable-background:new    ;}
	.st21{fill:url(#SVGID_22_);}
	.st22{fill:url(#SVGID_23_);}
	.st23{opacity:0.19;fill:url(#SVGID_24_);enable-background:new    ;}
	.st24{opacity:0.15;fill:url(#SVGID_25_);enable-background:new    ;}
	.st25{opacity:0.15;fill:url(#SVGID_26_);enable-background:new    ;}
	.st26{opacity:0.3;fill:#222221;enable-background:new    ;}
	.st27{opacity:4.000000e-02;fill:url(#SVGID_27_);enable-background:new    ;}
	.st28{opacity:0.15;fill:url(#SVGID_28_);enable-background:new    ;}
	.st29{opacity:0.15;fill:url(#SVGID_29_);enable-background:new    ;}
</style>
<g>
	<g>
		
			<linearGradient id="SVGID_1_" gradientUnits="userSpaceOnUse" x1="129.3833" y1="-176.3515" x2="136.0112" y2="-176.3515" gradientTransform="matrix(1 0 0 -1 0 -136.8859)">
			<stop  offset="0" style="stop-color:#EAC29C"/>
			<stop  offset="1" style="stop-color:#DF9C74"/>
		</linearGradient>
		<path class="st0" d="M129.3,41.5c0,0,2.1-1,3.1-2.2s2.8-2.7,3.4-2.1c0.6,0.6-1,3.1-1,3.1S131,43,129.3,41.5z"/>
		
			<linearGradient id="SVGID_2_" gradientUnits="userSpaceOnUse" x1="130.2226" y1="-176.6512" x2="140.5392" y2="-176.6512" gradientTransform="matrix(1 0 0 -1 0 -136.8859)">
			<stop  offset="0" style="stop-color:#EAC29C"/>
			<stop  offset="1" style="stop-color:#DF9C74"/>
		</linearGradient>
		<path class="st1" d="M130.2,41.6c0,0,2.7-0.6,3.7-1.7c1-1.1,5.2-3.5,6.3-2.7c1.1,0.8-2,3.3-3.9,4.8
			C134.5,43.5,130.2,41.6,130.2,41.6z"/>
	</g>
	<g>
		
			<linearGradient id="SVGID_3_" gradientUnits="userSpaceOnUse" x1="79.0569" y1="-286.914" x2="114.2876" y2="-286.914" gradientTransform="matrix(1 0 0 -1 0 -136.8859)">
			<stop  offset="0" style="stop-color:#311A79"/>
			<stop  offset="1" style="stop-color:#0F0B35"/>
		</linearGradient>
		<path class="st2" d="M86.7,147.1c-0.2,0-8.6,2.8-7.6,7.8s8.6,6,13.6,3.4s14.1,0.4,19.3-5.3s1.3-14.1-8.5-12.3
			C93.8,142.4,88.5,146.9,86.7,147.1z"/>
		
			<linearGradient id="SVGID_4_" gradientUnits="userSpaceOnUse" x1="92.26" y1="-286.1762" x2="111.5832" y2="-286.1762" gradientTransform="matrix(1 0 0 -1 0 -136.8859)">
			<stop  offset="0" style="stop-color:#24000A"/>
			<stop  offset="1" style="stop-color:#050000"/>
		</linearGradient>
		<path class="st3" d="M92.2,148.2c0,0,1.8,5.9,2.6,7.6c0,0,14.9,0.4,16.5-7C113.1,141.4,100.9,140.6,92.2,148.2z"/>
		
			<linearGradient id="SVGID_5_" gradientUnits="userSpaceOnUse" x1="81.7265" y1="-290.4953" x2="92.2534" y2="-290.4953" gradientTransform="matrix(1 0 0 -1 0 -136.8859)">
			<stop  offset="0" style="stop-color:#24000A"/>
			<stop  offset="1" style="stop-color:#050000"/>
		</linearGradient>
		<path class="st4" d="M89.6,149.3l2.6,7.3c0,0-8.5,3.8-10.3-1.1C80.1,150.6,89.6,149.3,89.6,149.3z"/>
	</g>
	
		<linearGradient id="SVGID_6_" gradientUnits="userSpaceOnUse" x1="79.1396" y1="-198.4572" x2="141.6852" y2="-198.4572" gradientTransform="matrix(1 0 0 -1 0 -136.8859)">
		<stop  offset="0" style="stop-color:#EAC29C"/>
		<stop  offset="1" style="stop-color:#DF9C74"/>
	</linearGradient>
	<path class="st5" d="M82,87.2c0,0,6.7,0.6,13-0.2c1-0.1,1.9-0.6,2.6-1.4c10.2-11,18.1-36.8,21.2-38c3.2-1.2,19.4-2.7,22.3-5.6
		c2.9-2.9-6.5,0-10.8-0.9c-4.3-0.9-5.4-0.8-5.4-0.8s3.1-2,5.1-2.7s0.2-2.8-3.9-1.2c-4.1,1.6-9.4,0.7-12.5,4
		c-3.1,3.4-13.8,22.8-21.1,29.7c-7.9,0.1-13.4,0.1-13.4,0.1S82.6,79.3,82,87.2z"/>
	
		<linearGradient id="SVGID_7_" gradientUnits="userSpaceOnUse" x1="54.5284" y1="-271.4368" x2="99.6477" y2="-246.1116" gradientTransform="matrix(1 0 0 -1 0 -136.8859)">
		<stop  offset="0" style="stop-color:#DBE8F9"/>
		<stop  offset="1" style="stop-color:#A8C8ED"/>
	</linearGradient>
	<path class="st6" d="M50.9,128.2c0,0,18.1-22.3,32.4-27.4c2-0.7,4-1.1,5.8-1c14.6,0.7,8.1,23.6,9.5,27.6c0.7,1.9-10.1,2.2-21.6,1.9
		C64.3,129,50.9,128.2,50.9,128.2z"/>
	
		<linearGradient id="SVGID_8_" gradientUnits="userSpaceOnUse" x1="50.9395" y1="-251.8574" x2="87.6335" y2="-251.8574" gradientTransform="matrix(1 0 0 -1 0 -136.8859)">
		<stop  offset="0" style="stop-color:#24000A"/>
		<stop  offset="1" style="stop-color:#050000"/>
	</linearGradient>
	<path class="st7" d="M77,129.3c-12.6-0.3-26.1-1.1-26.1-1.1s18.1-22.3,32.4-27.4c0,0,6.2-1,3.7,4.5s-5.5,4.2-4.5,8.6
		C83.4,118.3,81.5,125.3,77,129.3z"/>
	
		<linearGradient id="SVGID_9_" gradientUnits="userSpaceOnUse" x1="104.6603" y1="-292.3312" x2="42.1789" y2="-248.4061" gradientTransform="matrix(1 0 0 -1 0 -136.8859)">
		<stop  offset="0" style="stop-color:#DBE8F9"/>
		<stop  offset="1" style="stop-color:#A8C8ED"/>
	</linearGradient>
	<path class="st8" d="M38.5,153.8c0,0,6.2,9.2,27.6,2.3s52.1-17.3,50.9-33.5c-0.5-6.6-7.6-9.3-17.4-9.4c-14.5-0.1-35,5.7-48.7,13.6
		c-11.1,6.5-14.4,13-14.8,18.1C35.8,150.2,38.5,153.8,38.5,153.8z"/>
	
		<linearGradient id="SVGID_10_" gradientUnits="userSpaceOnUse" x1="36.2395" y1="-265.7924" x2="102.2839" y2="-265.7924" gradientTransform="matrix(1 0 0 -1 0 -136.8859)">
		<stop  offset="0" style="stop-color:#24000A"/>
		<stop  offset="1" style="stop-color:#050000"/>
	</linearGradient>
	<path class="st9" d="M36.2,144.8c0.4-5,3.7-11.6,14.8-18.1c13.7-7.9,34.1-13.7,48.7-13.6c0,0,4.9,0.9,1.1,5.2
		c-3.7,4.4-10.9,2.3-22.4,9.1c-11.5,6.8-25.8,11.5-39.3,13L36.2,144.8z"/>
	
		<linearGradient id="SVGID_11_" gradientUnits="userSpaceOnUse" x1="31.2837" y1="-248.0054" x2="61.6345" y2="-248.0054" gradientTransform="matrix(1 0 0 -1 0 -136.8859)">
		<stop  offset="0" style="stop-color:#1F3683"/>
		<stop  offset="1" style="stop-color:#162766"/>
	</linearGradient>
	<path class="st10" d="M61.1,82.7c0,0-0.9,6.6,0.1,10.2c1,3.5,0.7,9.2-8.2,14.4c-8.2,4.8,2.5,15,1.3,19c-1.3,4-7.9,10-15.9,13.2
		C30.3,142.7,20.8,83.3,61.1,82.7z"/>
	
		<linearGradient id="SVGID_12_" gradientUnits="userSpaceOnUse" x1="0" y1="-247.5793" x2="82.4062" y2="-247.5793" gradientTransform="matrix(1 0 0 -1 0 -136.8859)">
		<stop  offset="0" style="stop-color:#F4D85F"/>
		<stop  offset="1" style="stop-color:#ECB543"/>
	</linearGradient>
	<path class="st11" d="M32.2,62c0,0-19.2,13.3-23.8,33.2c-4.4,19.2-5.8,35.5,2.5,46.7c0.5,0.7,0.3,1.6-0.4,2c-1.9,1-4.8,3-3.5,4.8
		c1.8,2.6-3.4,2.8-5,5.1s-2.6,7.3-1.7,7.1c0.9-0.2,4.2-3.9,7.3-1.9c3,2,6.1,4.1,13.2,3c1.4-0.2,2.8-0.2,4.3-0.1
		c5.8,0.6,11.7,2.9,17.1-1.8c6.8-5.8-5.5-19.5-3.8-36.9s13.2-35.3,13.2-35.3s18.8,2.7,29.7,1.4c0,0,2.4-8.2,0-19.1
		c0,0-8.3,0.2-13.8-4.8C61.8,60.6,45.7,54.5,32.2,62z"/>
	
		<linearGradient id="SVGID_13_" gradientUnits="userSpaceOnUse" x1="77.0188" y1="-216.7782" x2="85.6206" y2="-216.7782" gradientTransform="matrix(1 0 0 -1 0 -136.8859)">
		<stop  offset="0" style="stop-color:#F4D85F"/>
		<stop  offset="1" style="stop-color:#ECB543"/>
	</linearGradient>
	<path class="st12" d="M81.4,68.6c-0.5-0.3-1.1-0.3-1.7-0.1c-0.5,0.2-1.2,0.3-2,0.2c-1.3-0.3-0.6,1.4-0.6,1.4s4.1,3.4,2.9,11.1
		c-1.2,7.7-2.9,8.7-2.9,8.7s-0.3,1,0.5,1.3c1.1,0.4,4.3,0.6,5.4-0.6C84.1,89.3,89,72.6,81.4,68.6z"/>
	
		<linearGradient id="SVGID_14_" gradientUnits="userSpaceOnUse" x1="92.4179" y1="-208.993" x2="96.1991" y2="-208.993" gradientTransform="matrix(1 0 0 -1 0 -136.8859)">
		<stop  offset="0" style="stop-color:#24000A"/>
		<stop  offset="1" style="stop-color:#050000"/>
	</linearGradient>
	<path class="st13" d="M92.5,70.2c0.9,0.2,1.8,0.7,2.5,1.3c0.3,0.4,0.6,0.8,0.8,1.2c0.2,0.5,0.2,1,0.2,1.4c-0.1-0.5-0.3-0.9-0.5-1.3
		c-0.2-0.4-0.5-0.7-0.8-1.1c-0.3-0.3-0.7-0.6-1-0.9C93.2,70.8,92.9,70.5,92.5,70.2z"/>
	<g>
		
			<linearGradient id="SVGID_15_" gradientUnits="userSpaceOnUse" x1="38.3207" y1="-170.403" x2="77.3699" y2="-170.403" gradientTransform="matrix(1 0 0 -1 0 -136.8859)">
			<stop  offset="0" style="stop-color:#EAC29C"/>
			<stop  offset="1" style="stop-color:#DF9C74"/>
		</linearGradient>
		<path class="st14" d="M53.5,8.3c0,0,3.9-1.2,8.9,5.7c5.6,7.6,14.3,2.3,9.7,10.5c-0.2,0.3-0.2,0.7,0,1c1.3,2.1,6.8,10.7,4.8,14.3
			c-2.1,3.8-13.7,3.3-18.2,19.1l-15.2-1.4l-5.3-27.4L53.5,8.3z"/>
		
			<linearGradient id="SVGID_16_" gradientUnits="userSpaceOnUse" x1="42.9481" y1="-186.043" x2="59.801" y2="-186.043" gradientTransform="matrix(1 0 0 -1 0 -136.8859)">
			<stop  offset="0" style="stop-color:#24000A"/>
			<stop  offset="1" style="stop-color:#050000"/>
		</linearGradient>
		<path class="st15" d="M50.4,41.6c0,0,3.2,0.9,4.3-1.8c0,0,0.8,3.7-1.1,7.3c-1.9,3.7,1.2,7.7,5.7,9.7l-0.6,1.8l-15.2-1.4L50.4,41.6
			z"/>
		<g>
			
				<linearGradient id="SVGID_17_" gradientUnits="userSpaceOnUse" x1="61.63" y1="-168.8385" x2="72.083" y2="-168.8385" gradientTransform="matrix(1 0 0 -1 0 -136.8859)">
				<stop  offset="0" style="stop-color:#24000A"/>
				<stop  offset="1" style="stop-color:#050000"/>
			</linearGradient>
			<path class="st16" d="M64.8,33.6c-0.9,0-1.9-0.1-2.9-0.4c-0.2-0.1-0.4-0.3-0.3-0.6s0.3-0.4,0.6-0.3c5.3,1.3,9.1-1.8,9.1-1.8
				c0.2-0.2,0.5-0.1,0.6,0.1c0.2,0.2,0.1,0.5-0.1,0.6C71.7,31.3,69,33.6,64.8,33.6z"/>
		</g>
		
			<linearGradient id="SVGID_18_" gradientUnits="userSpaceOnUse" x1="60.0475" y1="-156.493" x2="64.128" y2="-156.493" gradientTransform="matrix(1 0 0 -1 0 -136.8859)">
			<stop  offset="0" style="stop-color:#24000A"/>
			<stop  offset="1" style="stop-color:#050000"/>
		</linearGradient>
		<path class="st17" d="M63,18.8c1,1.1,1.4,2.3,0.9,2.8c-0.5,0.5-1.7,0-2.7-1.1s-1.4-2.3-0.9-2.8C60.7,17.2,62,17.7,63,18.8z"/>
		<g>
			
				<linearGradient id="SVGID_19_" gradientUnits="userSpaceOnUse" x1="57.6756" y1="-153.9297" x2="60.3522" y2="-153.9297" gradientTransform="matrix(1 0 0 -1 0 -136.8859)">
				<stop  offset="0" style="stop-color:#24000A"/>
				<stop  offset="1" style="stop-color:#050000"/>
			</linearGradient>
			<path class="st18" d="M58.1,19.6c-0.2,0-0.4-0.2-0.5-0.4c0-0.2-0.3-4,2.1-4.6c0.2-0.1,0.5,0.1,0.6,0.3s-0.1,0.5-0.3,0.6
				c-1.6,0.4-1.4,3.6-1.4,3.6C58.6,19.4,58.4,19.6,58.1,19.6L58.1,19.6z"/>
		</g>
		
			<linearGradient id="SVGID_20_" gradientUnits="userSpaceOnUse" x1="17.9461" y1="-172.7127" x2="63.2593" y2="-172.7127" gradientTransform="matrix(1 0 0 -1 0 -136.8859)">
			<stop  offset="0" style="stop-color:#311A79"/>
			<stop  offset="1" style="stop-color:#0F0B35"/>
		</linearGradient>
		<path class="st19" d="M59.9,61.2c-1.2-4.8-4.2-4.9-6.7-6.3s-4.2-3.7-3-7.1c1.2-3.4,0.1-6.2,0.1-6.2c-2.7-0.4-7.2-4.5-5.6-8.1
			s6.7-1.5,6.7-1.5c6.9-6.7,2.9-14.4,2.9-14.4c3.8-3.1,4.1-5.6,4.1-5.6c0.9,0.5,1.8-0.5,1.8-0.5c0.9,0.4,1.7-0.8,1.7-0.8
			c2.7-2.6,0.9-8.9-6.7-10.3C47.6-1,44.7,6.3,44.7,6.3S32.3,7,26.8,17.2c-5.4,10.2-1.2,17.5,0.5,20.2s2.4,5.9-2.8,9.5
			c-5.3,3.6-11.1,13.8-1.6,18.5c0,0-2.2,6.5,6.8,6.1c0,0-1.1-0.7-1.4-1.4c0,0,2,0.9,4.6,0.3c0,0-1.1-0.4-1.4-1.2c0,0,1.9,1,4.6-0.3
			c0,0-1.1-0.2-1.1-0.6c0,0,4.9,0.3,9-3.4c0,0,2.3-2.6,2.7,0.4c0,0,2.5,0.2,4.3-1.7C52.8,61.5,56.2,60.1,59.9,61.2z"/>
		
			<linearGradient id="SVGID_21_" gradientUnits="userSpaceOnUse" x1="17.9686" y1="-172.5233" x2="60.3395" y2="-172.5233" gradientTransform="matrix(1 0 0 -1 0 -136.8859)">
			<stop  offset="0" style="stop-color:#24000A"/>
			<stop  offset="1" style="stop-color:#050000"/>
		</linearGradient>
		<path class="st20" d="M33,70.2c-2.6,0.6-4.6-0.3-4.6-0.3c0.3,0.8,1.4,1.4,1.4,1.4c-9,0.4-6.8-6.1-6.8-6.1
			c-9.5-4.7-3.7-14.9,1.6-18.5s4.5-6.8,2.8-9.5s-5.9-10-0.5-20.2S44.8,6.1,44.8,6.1s2.9-7.2,10.5-5.9c2.1,0.4,3.7,1.1,5,2.1
			c0,0-8.3-3.2-14.8,6.4c0,0-10.6,0.6-13.2,11.6c-2.6,11,7.6,17.3,4.3,25C33.3,53.1,18.9,61.1,33,70.2z"/>
		
			<linearGradient id="SVGID_22_" gradientUnits="userSpaceOnUse" x1="60.9545" y1="-164.743" x2="61.6521" y2="-164.743" gradientTransform="matrix(1 0 0 -1 0 -136.8859)">
			<stop  offset="0" style="stop-color:#24000A"/>
			<stop  offset="1" style="stop-color:#050000"/>
		</linearGradient>
		<circle class="st21" cx="61.3" cy="27.9" r="0.3"/>
		
			<linearGradient id="SVGID_23_" gradientUnits="userSpaceOnUse" x1="36.6089" y1="-155.193" x2="50.5019" y2="-155.193" gradientTransform="matrix(1 0 0 -1 0 -136.8859)">
			<stop  offset="0" style="stop-color:#F4D85F"/>
			<stop  offset="1" style="stop-color:#ECB543"/>
		</linearGradient>
		<path class="st22" d="M46.3,31.8c1-0.5,2.3-0.5,3.3-0.4c0,0,3.8-18.7-4.6-26.4c-0.1-0.1-0.2-0.1-0.4-0.1C43.7,5,40,5.3,36.7,7.6
			c-0.2,0.2-0.3,0.5-0.1,0.7C38.3,10.1,44.9,18.5,46.3,31.8z"/>
		
			<linearGradient id="SVGID_24_" gradientUnits="userSpaceOnUse" x1="36.6001" y1="-144.843" x2="46.8158" y2="-144.843" gradientTransform="matrix(1 0 0 -1 0 -136.8859)">
			<stop  offset="0" style="stop-color:#24000A"/>
			<stop  offset="1" style="stop-color:#050000"/>
		</linearGradient>
		<path class="st23" d="M38.8,11.1c-0.9-1.4-1.7-2.3-2.1-2.8c-0.2-0.2-0.2-0.5,0.1-0.7c3.3-2.3,7-2.6,7.9-2.7c0.1,0,0.3,0,0.4,0.1
			c0.7,0.6,1.3,1.3,1.8,2c0,0-0.9,1.1-1.3,1.7C45.5,8.8,42.6,9,38.8,11.1z"/>
		
			<linearGradient id="SVGID_25_" gradientUnits="userSpaceOnUse" x1="37.1132" y1="-151.893" x2="50.722" y2="-151.893" gradientTransform="matrix(1 0 0 -1 0 -136.8859)">
			<stop  offset="0" style="stop-color:#24000A"/>
			<stop  offset="1" style="stop-color:#050000"/>
		</linearGradient>
		<path class="st24" d="M50.5,21.3c-0.3-0.7-0.6-1.5-1-2.2c-0.2-0.4-0.4-0.7-0.6-1l-0.6-1c-0.9-1.3-1.9-2.5-3-3.6
			c-0.5-0.6-1.2-1-1.8-1.5c-0.7-0.4-1.3-0.9-2-1.3c-1.4-0.8-2.9-1.3-4.4-1.9c0.4,0.1,0.8,0.2,1.2,0.3s0.8,0.2,1.2,0.3l1.1,0.4
			c0.4,0.1,0.7,0.3,1.1,0.5c0.7,0.3,1.4,0.8,2.1,1.2c0.6,0.5,1.3,1,1.8,1.6c1.2,1.1,2.2,2.4,3,3.8C49.4,18.3,50.1,19.8,50.5,21.3z"
			/>
		
			<linearGradient id="SVGID_26_" gradientUnits="userSpaceOnUse" x1="47.0073" y1="-174.3233" x2="52.1274" y2="-174.3233" gradientTransform="matrix(1 0 0 -1 0 -136.8859)">
			<stop  offset="0" style="stop-color:#24000A"/>
			<stop  offset="1" style="stop-color:#050000"/>
		</linearGradient>
		<path class="st25" d="M51.8,39.1c-0.4-0.4-0.9-0.6-1.2-1c-0.2-0.2-0.3-0.3-0.4-0.5s-0.1-0.4-0.1-0.6c0.1-0.3,0.6-0.5,1-0.5h0.6
			l-0.5-0.4c-0.3-0.3-0.7-0.6-1.1-0.8s-0.8-0.4-1.2-0.5c-0.4-0.1-1,0-1.3,0.2c-0.2,0.1-0.3,0.3-0.4,0.6c0,0.2,0.1,0.5,0.2,0.6
			c-0.1-0.2-0.1-0.4-0.1-0.6c0.1-0.2,0.2-0.3,0.4-0.4c0.4-0.2,0.8-0.2,1.1-0.1c0.6,0.2,1.2,0.6,1.7,1c-0.1,0-0.2,0-0.3,0.1
			c-0.3,0.1-0.6,0.4-0.6,0.7c-0.1,0.7,0.3,1.2,0.7,1.5c0.4,0.3,0.9,0.5,1.3,0.8c0.2,0.1,0.2,0.4,0,0.5c-0.2,0.2-0.4,0.3-0.6,0.5
			c0.2-0.1,0.5-0.2,0.7-0.4c0-0.1,0.1-0.1,0.1-0.2c0-0.1,0.1-0.1,0.1-0.2C51.9,39.3,51.9,39.2,51.8,39.1z"/>
		<g>
			<path class="st26" d="M60.3,11.5c0-0.8-0.2-1.5-0.6-2c-0.2-0.3-0.5-0.6-0.7-0.8l-0.4-0.4c-0.1-0.1-0.3-0.2-0.4-0.4
				C58.4,8,58.6,8,58.8,8.1c0.2,0.1,0.3,0.2,0.5,0.3c0.3,0.2,0.6,0.5,0.9,0.8c0.2,0.3,0.4,0.7,0.5,1.1
				C60.6,10.7,60.5,11.2,60.3,11.5z"/>
			<path class="st26" d="M62,10.7c-0.1-0.7-0.2-1.3-0.5-1.8c-0.1-0.3-0.3-0.5-0.5-0.8c-0.2-0.2-0.4-0.5-0.7-0.7
				c0.3,0.1,0.7,0.2,0.9,0.4c0.3,0.2,0.5,0.5,0.7,0.8s0.3,0.7,0.3,1C62.2,10,62.2,10.3,62,10.7z"/>
			<path class="st26" d="M58.5,12c-0.1-0.5-0.2-0.9-0.3-1.3c-0.1-0.2-0.2-0.4-0.3-0.6c-0.1-0.2-0.2-0.3-0.4-0.5
				c0.2,0.1,0.4,0.2,0.6,0.4s0.3,0.4,0.4,0.6C58.7,11.1,58.7,11.6,58.5,12z"/>
		</g>
	</g>
	
		<linearGradient id="SVGID_27_" gradientUnits="userSpaceOnUse" x1="24.9219" y1="-262.3258" x2="51.4691" y2="-262.3258" gradientTransform="matrix(1 0 0 -1 0 -136.8859)">
		<stop  offset="0" style="stop-color:#24000A"/>
		<stop  offset="1" style="stop-color:#050000"/>
	</linearGradient>
	<path class="st27" d="M24.9,162c5.8,0.6,11.7,2.9,17.1-1.8c6.8-5.8-5.5-19.5-3.8-36.9S51.4,88,51.4,88s-8.7-1.8-12.1,8.2
		c-3.4,9.9-7.5,12.1-5.6,16.9c1.9,4.8,0.8,6.6-3.6,12c-4.4,5.3-6.4,13.8-4.5,16.8s3.9,5.4,3.1,6.4s-3.3,4.1-0.9,7.9
		C27.8,156.3,25.5,157.4,24.9,162z"/>
	
		<linearGradient id="SVGID_28_" gradientUnits="userSpaceOnUse" x1="14.6685" y1="-282.3341" x2="36.1517" y2="-285.9734" gradientTransform="matrix(1 0 0 -1 0 -136.8859)">
		<stop  offset="0" style="stop-color:#24000A"/>
		<stop  offset="1" style="stop-color:#050000"/>
	</linearGradient>
	<path class="st28" d="M15,144.2c1.6,0.8,3.3,1.5,5,2.1s3.5,1,5.2,1.3c1.8,0.3,3.6,0.5,5.4,0.6c0.9,0.1,1.8,0,2.7,0
		c0.5,0,0.9,0,1.4-0.1c0.5,0,0.9-0.1,1.4-0.1c-1.8,0.5-3.6,0.8-5.4,0.9c-0.9,0.1-1.9,0-2.8,0c-0.5,0-0.9-0.1-1.4-0.1
		s-0.9-0.1-1.4-0.2c-0.5-0.1-0.9-0.2-1.4-0.3l-1.3-0.3c-0.9-0.3-1.8-0.6-2.6-0.9C18.1,146.2,16.5,145.3,15,144.2z"/>
	
		<linearGradient id="SVGID_29_" gradientUnits="userSpaceOnUse" x1="10.1411" y1="-288.6493" x2="37.1275" y2="-293.2208" gradientTransform="matrix(1 0 0 -1 0 -136.8859)">
		<stop  offset="0" style="stop-color:#24000A"/>
		<stop  offset="1" style="stop-color:#050000"/>
	</linearGradient>
	<path class="st29" d="M10.6,150.1c2,1.1,4.1,2,6.3,2.8c1.1,0.4,2.1,0.8,3.2,1.1l1.6,0.5l1.7,0.4c0.5,0.2,1.1,0.3,1.7,0.4
		c0.6,0.1,1.1,0.3,1.7,0.3l1.7,0.3c0.6,0.1,1.1,0.2,1.7,0.2c1.1,0.2,2.3,0.3,3.4,0.4c0.6,0.1,1.1,0.1,1.7,0.1c0.6,0,1.1,0.1,1.7,0.1
		c-0.6,0.1-1.1,0.1-1.7,0.1c-0.6,0-1.2,0.1-1.7,0.1c-1.2,0-2.3,0-3.5-0.1c-2.3-0.1-4.6-0.6-6.9-1.1c-2.3-0.6-4.4-1.3-6.6-2.3
		C14.5,152.7,12.4,151.6,10.6,150.1z"/>
</g>
</svg>
