<?xml version="1.0" encoding="utf-8"?>
<!-- Generator: Adobe Illustrator 22.1.0, SVG Export Plug-In . SVG Version: 6.00 Build 0)  -->
<svg version="1.1" id="Capa_1" xmlns="http://www.w3.org/2000/svg" xmlns:xlink="http://www.w3.org/1999/xlink" x="0px" y="0px"
	 viewBox="0 0 512.8 397.5" style="enable-background:new 0 0 512.8 397.5;" xml:space="preserve">
<style type="text/css">
	.st0{fill:url(#SVGID_1_);}
	.st1{fill:url(#SVGID_2_);}
	.st2{fill:url(#SVGID_3_);}
	.st3{fill:url(#SVGID_4_);}
	.st4{fill:url(#SVGID_5_);}
	.st5{fill:url(#SVGID_6_);}
	.st6{fill:url(#SVGID_7_);}
	.st7{fill:url(#SVGID_8_);}
	.st8{opacity:0.15;fill:url(#SVGID_9_);enable-background:new    ;}
	.st9{fill:url(#SVGID_10_);}
	.st10{fill:url(#SVGID_11_);}
	.st11{fill:#2B284D;}
	.st12{fill:#D5635D;}
	.st13{fill:#E3B94C;}
	.st14{fill:#70BC50;}
	.st15{fill:#343088;}
	.st16{fill:#322C77;}
	.st17{fill:#746FB9;}
	.st18{fill:#A2E1A5;}
	.st19{fill:#897FDA;}
	.st20{fill:#DF9423;}
	.st21{fill:#8CC6F7;}
	.st22{fill:#403892;}
	.st23{fill:url(#SVGID_12_);}
</style>
<g>
	<g>
		
			<linearGradient id="SVGID_1_" gradientUnits="userSpaceOnUse" x1="1.095703e-02" y1="45.9093" x2="11.6543" y2="45.9093" gradientTransform="matrix(1 0 0 -1 0 337.4859)">
			<stop  offset="0" style="stop-color:#311A79"/>
			<stop  offset="1" style="stop-color:#0F0B35"/>
		</linearGradient>
		<path class="st0" d="M7,284.8c0,0,1.3,3.8,3.3,4.4s-0.2,2.7,0.5,3.8s1.8,2.8-0.6,3.8s-0.6,1-2.5,1.4c-1.9,0.5-7.9-1.9-7.7-3.4
			C0.1,293.5,7,284.8,7,284.8z"/>
		<g>
			
				<linearGradient id="SVGID_2_" gradientUnits="userSpaceOnUse" x1="20.9989" y1="55.1011" x2="46.748" y2="55.1011" gradientTransform="matrix(1 0 0 -1 0 337.4859)">
				<stop  offset="0" style="stop-color:#EAC29C"/>
				<stop  offset="1" style="stop-color:#DF9C74"/>
			</linearGradient>
			<path class="st1" d="M46.6,272.4c-0.1,0.7-0.3,1.4-0.7,2c-1.7,3.1-1.3,22-10.4,31.1c-9.4,9.4-10.5,4-10.5,4l-4.1-11.4
				c0,0,13.6-5,16.4-26.5c0,0-3.5-4.7-5.4-6.5c-1.8-1.8-0.3-9.6-0.3-10.8c-0.1-1.3,3.1-1.2,3.5,5.2c0,0,0.2,2,1.9,2.1
				C38.2,261.7,47.9,265,46.6,272.4z"/>
			
				<linearGradient id="SVGID_3_" gradientUnits="userSpaceOnUse" x1="0" y1="34.1256" x2="22.6706" y2="34.1256" gradientTransform="matrix(1 0 0 -1 0 337.4859)">
				<stop  offset="0" style="stop-color:#F4D85F"/>
				<stop  offset="1" style="stop-color:#ECB543"/>
			</linearGradient>
			<path class="st2" d="M0.2,295.8c0,0,6,0.4,10.4,2.2s10.4,0,10.4,0s3.2,6.6,0.7,11.6C19.3,314.7-2.4,302.8,0.2,295.8z"/>
			
				<linearGradient id="SVGID_4_" gradientUnits="userSpaceOnUse" x1="18.2184" y1="34.5293" x2="26.2472" y2="34.5293" gradientTransform="matrix(1 0 0 -1 0 337.4859)">
				<stop  offset="0" style="stop-color:#F4D85F"/>
				<stop  offset="1" style="stop-color:#ECB543"/>
			</linearGradient>
			<path class="st3" d="M18.2,298.6c0,0-0.5-1.3,2.1-2.1c2.6-0.7,3.8,2.3,4.7,4.4c0.9,2.1,1.5,6.1,0.9,6.5c-0.6,0.3-2.5,3.2-5,1.5
				C21,308.9,22.9,305.4,18.2,298.6z"/>
		</g>
	</g>
	<g>
		
			<linearGradient id="SVGID_5_" gradientUnits="userSpaceOnUse" x1="461.7977" y1="330.0103" x2="469.8055" y2="330.0103" gradientTransform="matrix(1 0 0 -1 0 337.4859)">
			<stop  offset="0" style="stop-color:#DBE8F9"/>
			<stop  offset="1" style="stop-color:#A8C8ED"/>
		</linearGradient>
		<path class="st4" d="M469.8,3c0,0-5.8-1.6-6.4-1s-2,6.4-1.6,7.1s4.4,3.9,4.4,3.9L469.8,3z"/>
		
			<linearGradient id="SVGID_6_" gradientUnits="userSpaceOnUse" x1="429.4159" y1="333.0652" x2="451.0159" y2="333.0652" gradientTransform="matrix(1 0 0 -1 0 337.4859)">
			<stop  offset="0" style="stop-color:#EAC29C"/>
			<stop  offset="1" style="stop-color:#DF9C74"/>
		</linearGradient>
		<path class="st5" d="M451,2.4c0,0-14.2-1-16.3,0s-5.3,4.4-5.3,4.4h14.2L451,2.4z"/>
		
			<linearGradient id="SVGID_7_" gradientUnits="userSpaceOnUse" x1="465.4302" y1="319.7325" x2="512.7424" y2="319.7325" gradientTransform="matrix(1 0 0 -1 0 337.4859)">
			<stop  offset="0" style="stop-color:#DBE8F9"/>
			<stop  offset="1" style="stop-color:#A8C8ED"/>
		</linearGradient>
		<path class="st6" d="M477.3,2.3c0,0-7.5-2.3-9.2,0c-1.6,2.3-2.8,11-2.8,11s22.8,24.4,41,20.4C524.4,29.6,501.1-1.3,477.3,2.3z"/>
	</g>
	<g>
		<g>
			
				<linearGradient id="SVGID_8_" gradientUnits="userSpaceOnUse" x1="110.7159" y1="0.243" x2="391.5159" y2="0.243" gradientTransform="matrix(1 0 0 -1 0 337.4859)">
				<stop  offset="0" style="stop-color:#DBE8F9"/>
				<stop  offset="1" style="stop-color:#A8C8ED"/>
			</linearGradient>
			<path class="st7" d="M305.5,337.9v-61h-109v61c0,21.2-17.2,38.4-38.4,38.4h-36.8c-5.9,0-10.6,4.8-10.6,10.6l0,0
				c0,5.9,4.8,10.6,10.6,10.6h259.6c5.9,0,10.6-4.8,10.6-10.6l0,0c0-5.9-4.8-10.6-10.6-10.6h-36.8
				C322.7,376.3,305.5,359.1,305.5,337.9z"/>
			
				<linearGradient id="SVGID_9_" gradientUnits="userSpaceOnUse" x1="196.5159" y1="49.2929" x2="305.4159" y2="49.2929" gradientTransform="matrix(1 0 0 -1 0 337.4859)">
				<stop  offset="0" style="stop-color:#24000A"/>
				<stop  offset="1" style="stop-color:#050000"/>
			</linearGradient>
			<rect x="196.5" y="272.2" class="st8" width="108.9" height="31.9"/>
		</g>
		<g>
			
				<linearGradient id="SVGID_10_" gradientUnits="userSpaceOnUse" x1="7.1158" y1="195.193" x2="483.7158" y2="195.193" gradientTransform="matrix(1 0 0 -1 0 337.4859)">
				<stop  offset="0" style="stop-color:#DBE8F9"/>
				<stop  offset="1" style="stop-color:#A8C8ED"/>
			</linearGradient>
			<path class="st9" d="M476.6,5.2H14.2c-3.9,0-7.1,3.2-7.1,7.1v259.9c0,3.9,3.2,7.1,7.1,7.1h462.4c3.9,0,7.1-3.2,7.1-7.1V12.3
				C483.7,8.4,480.5,5.2,476.6,5.2z"/>
			
				<linearGradient id="SVGID_11_" gradientUnits="userSpaceOnUse" x1="18.2159" y1="201.893" x2="472.7159" y2="201.893" gradientTransform="matrix(1 0 0 -1 0 337.4859)">
				<stop  offset="0" style="stop-color:#311A79"/>
				<stop  offset="1" style="stop-color:#0F0B35"/>
			</linearGradient>
			<path class="st10" d="M466,16H24.9c-3.7,0-6.7,2.8-6.7,6.2v226.7c0,3.4,3,6.2,6.7,6.2H466c3.7,0,6.7-2.8,6.7-6.2V22.2
				C472.7,18.8,469.7,16,466,16z"/>
			<g>
				<path class="st11" d="M452.6,23.5H38.2c-3.3,0-6,2.7-6,6v7h426.5v-7C458.7,26.2,456,23.5,452.6,23.5z"/>
				<g>
					<circle class="st12" cx="43" cy="30" r="2.6"/>
					<circle class="st13" cx="51.3" cy="30" r="2.6"/>
					<circle class="st14" cx="59.6" cy="30" r="2.6"/>
				</g>
				<path class="st15" d="M32.2,36.5v197.6c0,4.5,3.7,8.2,8.2,8.2h96.4V36.5H32.2z"/>
				<path class="st16" d="M136.7,36.5v205.8h313.8c4.5,0,8.2-3.7,8.2-8.2V36.5H136.7z"/>
				<g>
					<path class="st17" d="M122.8,56.1c0-2.3-1.9-4.2-4.2-4.2h-77c-2.3,0-4.2,1.9-4.2,4.2s1.9,4.2,4.2,4.2h77
						C120.9,60.3,122.8,58.4,122.8,56.1z"/>
					<path class="st17" d="M118.6,69H71.5c-2.3,0-4.2,1.9-4.2,4.2l0,0c0,2.3,1.9,4.2,4.2,4.2h47.1c2.3,0,4.2-1.9,4.2-4.2l0,0
						C122.8,70.9,120.9,69,118.6,69z"/>
					<path class="st17" d="M118.6,86.2h-58c-2.3,0-4.2,1.9-4.2,4.2l0,0c0,2.3,1.9,4.2,4.2,4.2h58c2.3,0,4.2-1.9,4.2-4.2l0,0
						C122.8,88.1,120.9,86.2,118.6,86.2z"/>
					<path class="st17" d="M118.6,103.4h-17.3c-2.3,0-4.2,1.9-4.2,4.2s1.9,4.2,4.2,4.2h17.3c2.3,0,4.2-1.9,4.2-4.2
						S120.9,103.4,118.6,103.4z"/>
					<path class="st17" d="M118.6,120.6H85.8c-2.3,0-4.2,1.9-4.2,4.2l0,0c0,2.3,1.9,4.2,4.2,4.2h32.8c2.3,0,4.2-1.9,4.2-4.2l0,0
						C122.8,122.5,120.9,120.6,118.6,120.6z"/>
					<path class="st17" d="M118.6,137.8h-58c-2.3,0-4.2,1.9-4.2,4.2l0,0c0,2.3,1.9,4.2,4.2,4.2h58c2.3,0,4.2-1.9,4.2-4.2l0,0
						C122.8,139.7,120.9,137.8,118.6,137.8z"/>
					<path class="st17" d="M118.6,155H81c-2.3,0-4.2,1.9-4.2,4.2s1.9,4.2,4.2,4.2h37.6c2.3,0,4.2-1.9,4.2-4.2S120.9,155,118.6,155z"
						/>
					<path class="st17" d="M118.6,172.2H54.3c-2.3,0-4.2,1.9-4.2,4.2l0,0c0,2.3,1.9,4.2,4.2,4.2h64.3c2.3,0,4.2-1.9,4.2-4.2l0,0
						C122.8,174,120.9,172.2,118.6,172.2z"/>
					<path class="st17" d="M118.6,189.3H54.3c-2.3,0-4.2,1.9-4.2,4.2l0,0c0,2.3,1.9,4.2,4.2,4.2h64.3c2.3,0,4.2-1.9,4.2-4.2l0,0
						C122.8,191.2,120.9,189.3,118.6,189.3z"/>
					<path class="st17" d="M118.6,206.5H76.3c-2.3,0-4.2,1.9-4.2,4.2s1.9,4.2,4.2,4.2h42.3c2.3,0,4.2-1.9,4.2-4.2
						S120.9,206.5,118.6,206.5z"/>
					<path class="st17" d="M118.6,223.7H97.2c-2.3,0-4.2,1.9-4.2,4.2l0,0c0,2.3,1.9,4.2,4.2,4.2h21.4c2.3,0,4.2-1.9,4.2-4.2l0,0
						C122.8,225.6,120.9,223.7,118.6,223.7z"/>
				</g>
				<path class="st18" d="M254.2,51.8h-77c-2.3,0-4.2,1.9-4.2,4.2s1.9,4.2,4.2,4.2h77c2.3,0,4.2-1.9,4.2-4.2S256.6,51.8,254.2,51.8z
					"/>
				<path class="st19" d="M241.5,69h-64.2c-2.3,0-4.2,1.9-4.2,4.2c0,2.3,1.9,4.2,4.2,4.2h64.3c2.3,0,4.2-1.9,4.2-4.2
					C245.8,70.9,243.9,69,241.5,69z"/>
				<path class="st18" d="M321,69h-64.3c-2.3,0-4.2,1.9-4.2,4.2c0,2.3,1.9,4.2,4.2,4.2H321c2.3,0,4.2-1.9,4.2-4.2
					C325.3,70.9,323.4,69,321,69z"/>
				<path class="st20" d="M362.3,69h-26c-2.3,0-4.2,1.9-4.2,4.2l0,0c0,2.3,1.9,4.2,4.2,4.2h26c2.3,0,4.2-1.9,4.2-4.2l0,0
					C366.6,70.9,364.7,69,362.3,69z"/>
				<path class="st21" d="M403.7,69h-26.1c-2.3,0-4.2,1.9-4.2,4.2l0,0c0,2.3,1.9,4.2,4.2,4.2h26.1c2.3,0,4.2-1.9,4.2-4.2l0,0
					C407.9,70.9,406,69,403.7,69z"/>
				<path class="st19" d="M268.5,86.2h-58c-2.3,0-4.2,1.9-4.2,4.2l0,0c0,2.3,1.9,4.2,4.2,4.2h58c2.3,0,4.2-1.9,4.2-4.2l0,0
					C272.7,88.1,270.8,86.2,268.5,86.2z"/>
				<path class="st19" d="M275.3,103.4h-64.8c-2.3,0-4.2,1.9-4.2,4.2s1.9,4.2,4.2,4.2h64.8c2.3,0,4.2-1.9,4.2-4.2
					S277.6,103.4,275.3,103.4z"/>
				<path class="st18" d="M371.3,103.4h-81c-2.3,0-4.2,1.9-4.2,4.2s1.9,4.2,4.2,4.2h81c2.3,0,4.2-1.9,4.2-4.2
					S373.6,103.4,371.3,103.4z"/>
				<path class="st19" d="M440.7,103.4h-54.2c-2.3,0-4.2,1.9-4.2,4.2s1.9,4.2,4.2,4.2h54.2c2.3,0,4.2-1.9,4.2-4.2
					S443,103.4,440.7,103.4z"/>
				<path class="st19" d="M210,120.6h-32.7c-2.3,0-4.2,1.9-4.2,4.2l0,0c0,2.3,1.9,4.2,4.2,4.2h32.8c2.3,0,4.2-1.9,4.2-4.2l0,0
					C214.3,122.5,212.4,120.6,210,120.6z"/>
				<path class="st19" d="M235.3,137.8h-58c-2.3,0-4.2,1.9-4.2,4.2l0,0c0,2.3,1.9,4.2,4.2,4.2h58c2.3,0,4.2-1.9,4.2-4.2l0,0
					C239.5,139.7,237.6,137.8,235.3,137.8z"/>
				<path class="st19" d="M247.9,155h-37.6c-2.3,0-4.2,1.9-4.2,4.2s1.9,4.2,4.2,4.2h37.6c2.3,0,4.2-1.9,4.2-4.2S250.2,155,247.9,155
					z"/>
				<path class="st20" d="M440.7,155h-43.2c-2.3,0-4.2,1.9-4.2,4.2s1.9,4.2,4.2,4.2h43.2c2.3,0,4.2-1.9,4.2-4.2S443,155,440.7,155z"
					/>
				<path class="st21" d="M382.3,155H263.1c-2.3,0-4.2,1.9-4.2,4.2s1.9,4.2,4.2,4.2h119.2c2.3,0,4.2-1.9,4.2-4.2
					S384.6,155,382.3,155z"/>
				<path class="st19" d="M274.6,172.2h-64.4c-2.3,0-4.2,1.9-4.2,4.2v0.1c0,2.3,1.9,4.2,4.2,4.2h64.4c2.3,0,4.2-1.9,4.2-4.2v-0.1
					C278.8,174,276.9,172.2,274.6,172.2z"/>
				<path class="st18" d="M354.1,172.2h-64.3c-2.3,0-4.2,1.9-4.2,4.2l0,0c0,2.3,1.9,4.2,4.2,4.2h64.3c2.3,0,4.2-1.9,4.2-4.2l0,0
					C358.3,174,356.4,172.2,354.1,172.2z"/>
				<path class="st20" d="M433.6,172.2h-64.3c-2.3,0-4.2,1.9-4.2,4.2l0,0c0,2.3,1.9,4.2,4.2,4.2h64.3c2.3,0,4.2-1.9,4.2-4.2l0,0
					C437.8,174,435.9,172.2,433.6,172.2z"/>
				<path class="st19" d="M250.4,189.3h-40.1c-2.3,0-4.2,1.9-4.2,4.2l0,0c0,2.3,1.9,4.2,4.2,4.2h40.2c2.3,0,4.2-1.9,4.2-4.2l0,0
					C254.7,191.2,252.8,189.3,250.4,189.3z"/>
				<path class="st20" d="M288.3,189.3h-22.7c-2.3,0-4.2,1.9-4.2,4.2l0,0c0,2.3,1.9,4.2,4.2,4.2h22.7c2.3,0,4.2-1.9,4.2-4.2l0,0
					C292.6,191.2,290.7,189.3,288.3,189.3z"/>
				<path class="st19" d="M239.1,206.5h-42.3c-2.3,0-4.2,1.9-4.2,4.2s1.9,4.2,4.2,4.2h42.3c2.3,0,4.2-1.9,4.2-4.2
					S241.4,206.5,239.1,206.5z"/>
				<path class="st19" d="M198.7,223.7h-21.4c-2.3,0-4.2,1.9-4.2,4.2l0,0c0,2.3,1.9,4.2,4.2,4.2h21.4c2.3,0,4.2-1.9,4.2-4.2l0,0
					C202.9,225.6,201,223.7,198.7,223.7z"/>
				<circle class="st22" cx="154.4" cy="56" r="4.2"/>
				<circle class="st22" cx="154.4" cy="73.3" r="4.2"/>
				<circle class="st22" cx="154.4" cy="90.5" r="4.2"/>
				<circle class="st22" cx="154.4" cy="107.8" r="4.2"/>
				<circle class="st22" cx="154.4" cy="125" r="4.2"/>
				<circle class="st22" cx="154.4" cy="142.3" r="4.2"/>
				<circle class="st22" cx="154.4" cy="159.5" r="4.2"/>
				<circle class="st22" cx="154.4" cy="176.8" r="4.2"/>
				<circle class="st22" cx="154.4" cy="194" r="4.2"/>
				<circle class="st22" cx="154.4" cy="211.3" r="4.2"/>
				<circle class="st22" cx="154.4" cy="228.5" r="4.2"/>
				<path class="st18" d="M326.2,189.3h-22.7c-2.3,0-4.2,1.9-4.2,4.2l0,0c0,2.3,1.9,4.2,4.2,4.2h22.7c2.3,0,4.2-1.9,4.2-4.2l0,0
					C330.4,191.2,328.5,189.3,326.2,189.3z"/>
				<path class="st21" d="M420.3,189.3h-78.9c-2.3,0-4.2,1.9-4.2,4.2s1.9,4.2,4.2,4.2h78.9c2.3,0,4.2-1.9,4.2-4.2
					C424.6,191.2,422.7,189.3,420.3,189.3z"/>
			</g>
		</g>
	</g>
	
		<linearGradient id="SVGID_12_" gradientUnits="userSpaceOnUse" x1="439.5102" y1="333.5713" x2="463.3159" y2="333.5713" gradientTransform="matrix(1 0 0 -1 0 337.4859)">
		<stop  offset="0" style="stop-color:#EAC29C"/>
		<stop  offset="1" style="stop-color:#DF9C74"/>
	</linearGradient>
	<path class="st23" d="M462.4,5.2c0.3-1.3,0.7-2.5,0.9-3l0,0c-1.9-0.5-5.4-1.4-7.3-1.9c-2.6-0.6-7.9-0.4-9.8,0.5S439.8,6,439.5,7
		c-0.2,1.1,4.9,1.5,9.2-1.9L462.4,5.2L462.4,5.2z"/>
</g>
</svg>
