<?xml version="1.0" encoding="utf-8"?>
<!-- Generator: Adobe Illustrator 22.1.0, SVG Export Plug-In . SVG Version: 6.00 Build 0)  -->
<svg version="1.1" id="Capa_1" xmlns="http://www.w3.org/2000/svg" xmlns:xlink="http://www.w3.org/1999/xlink" x="0px" y="0px"
	 viewBox="0 0 172.4 391.8" style="enable-background:new 0 0 172.4 391.8;" xml:space="preserve">
<style type="text/css">
	.st0{fill:url(#SVGID_1_);}
	.st1{fill:url(#SVGID_2_);}
	.st2{fill:url(#SVGID_3_);}
	.st3{fill:url(#SVGID_4_);}
	.st4{fill:url(#SVGID_5_);}
	.st5{fill:url(#SVGID_6_);}
	.st6{fill:url(#SVGID_7_);}
	.st7{fill:url(#SVGID_8_);}
	.st8{fill:url(#SVGID_9_);}
	.st9{fill:url(#SVGID_10_);}
	.st10{opacity:0.15;}
	.st11{fill:url(#SVGID_11_);}
	.st12{opacity:0.15;fill:url(#SVGID_12_);enable-background:new    ;}
	.st13{fill:url(#SVGID_13_);}
	.st14{fill:url(#SVGID_14_);}
	.st15{fill:url(#SVGID_15_);}
	.st16{fill:url(#SVGID_16_);}
	.st17{fill:url(#SVGID_17_);}
	.st18{opacity:8.000000e-02;fill:url(#SVGID_18_);enable-background:new    ;}
	.st19{fill:url(#SVGID_19_);}
	.st20{fill:#FDFBFF;}
	.st21{fill:url(#SVGID_20_);}
	.st22{fill:url(#SVGID_21_);}
	.st23{fill:url(#SVGID_22_);}
	.st24{clip-path:url(#SVGID_24_);fill:#560C10;}
	.st25{clip-path:url(#SVGID_26_);fill:#FFFFFF;}
	.st26{fill:url(#SVGID_27_);}
	.st27{fill:url(#SVGID_28_);}
	.st28{fill:url(#SVGID_29_);}
	.st29{fill:url(#SVGID_30_);}
	.st30{opacity:0.15;fill:url(#SVGID_31_);enable-background:new    ;}
	.st31{fill:url(#SVGID_32_);}
	.st32{opacity:0.15;fill:url(#SVGID_33_);enable-background:new    ;}
	.st33{opacity:0.15;fill:url(#SVGID_34_);enable-background:new    ;}
	.st34{opacity:0.15;fill:url(#SVGID_35_);enable-background:new    ;}
	.st35{opacity:0.15;fill:url(#SVGID_36_);enable-background:new    ;}
	.st36{opacity:0.15;fill:url(#SVGID_37_);enable-background:new    ;}
	.st37{fill:url(#SVGID_38_);}
</style>
<g>
	<g>
		
			<linearGradient id="SVGID_1_" gradientUnits="userSpaceOnUse" x1="155.5484" y1="235.8307" x2="159.1671" y2="235.8307" gradientTransform="matrix(1 0 0 -1 0 391.8643)">
			<stop  offset="0" style="stop-color:#EAC29C"/>
			<stop  offset="1" style="stop-color:#DF9C74"/>
		</linearGradient>
		<path class="st0" d="M158.6,153.4c0,0,0.9,5.3,0.5,6.1s-2.9-0.6-3.5-7.2L158.6,153.4z"/>
		
			<linearGradient id="SVGID_2_" gradientUnits="userSpaceOnUse" x1="158.3264" y1="232.4982" x2="164.7213" y2="232.4982" gradientTransform="matrix(1 0 0 -1 0 391.8643)">
			<stop  offset="0" style="stop-color:#EAC29C"/>
			<stop  offset="1" style="stop-color:#DF9C74"/>
		</linearGradient>
		<path class="st1" d="M162.5,155.7c0,0,2.5,6.4,2.3,7.5c-0.3,1.1-3.8,0.1-6.4-8.1L162.5,155.7z"/>
		
			<linearGradient id="SVGID_3_" gradientUnits="userSpaceOnUse" x1="161.0598" y1="231.3929" x2="168.3828" y2="231.3929" gradientTransform="matrix(1 0 0 -1 0 391.8643)">
			<stop  offset="0" style="stop-color:#EAC29C"/>
			<stop  offset="1" style="stop-color:#DF9C74"/>
		</linearGradient>
		<path class="st2" d="M165.2,156.6c0,0,3.3,6,3.2,7.2s-3.7,0.6-7.3-7.2H165.2z"/>
	</g>
	
		<linearGradient id="SVGID_4_" gradientUnits="userSpaceOnUse" x1="82.1522" y1="267.449" x2="172.5272" y2="267.449" gradientTransform="matrix(1 0 0 -1 0 391.8643)">
		<stop  offset="0" style="stop-color:#EAC29C"/>
		<stop  offset="1" style="stop-color:#DF9C74"/>
	</linearGradient>
	<path class="st3" d="M130.9,146c-14.8-0.4-23.1-7.1-33.5-18.9S82.2,90.3,82.2,90.3s5.3-7.2,13-5.8c0,0,11,23.4,17.1,30.2
		c5.8,6.4,27.4,23.3,35.3,25.6c1,0.6,2.2,1.4,3.3,2.5c3.2,3.1,8.5,7.1,10.4,8.6c1.8,1.5,2.4,2.4,2.4,2.4c2.9,1.2,6.4,1.9,8.2,2.3
		c0.6,0.1,0.7,0.9,0.2,1.2c-5.6,3.6-22.5-3.9-22.5-3.9s-0.3,1.8,1.1,5c1.5,3.1-0.7,8.7-1.8,4.6c-0.8-2.9-3.2-5.8-4.5-7.2
		c-0.4-0.5-0.9-0.8-1.5-1.2C140.8,153,143.6,146.2,130.9,146z"/>
	
		<linearGradient id="SVGID_5_" gradientUnits="userSpaceOnUse" x1="54.755" y1="8.889" x2="97.5166" y2="8.889" gradientTransform="matrix(1 0 0 -1 0 391.8643)">
		<stop  offset="0" style="stop-color:#1F3683"/>
		<stop  offset="1" style="stop-color:#0F0038"/>
	</linearGradient>
	<path class="st4" d="M58.3,374.1c0,0-4.9,10.8-3.1,12.7c1.7,1.8,28,6.5,40.9,4.5c1.1-0.2,1.8-1.4,1.3-2.4
		c-1.3-2.8-4.5-7.8-12.1-10.1C74.5,375.4,62.9,380,58.3,374.1z"/>
	
		<linearGradient id="SVGID_6_" gradientUnits="userSpaceOnUse" x1="57.9274" y1="21.0454" x2="87.2203" y2="21.0454" gradientTransform="matrix(1 0 0 -1 0 391.8643)">
		<stop  offset="0" style="stop-color:#EAC29C"/>
		<stop  offset="1" style="stop-color:#DF9C74"/>
	</linearGradient>
	<path class="st5" d="M62.2,360.2c0,0-3.4,11-4.2,15.5c-0.8,4.3,17.9,9.5,28.6,5.7c0.8-0.3,0.9-1.4,0.2-1.8
		c-1.9-1.2-5.4-3.1-10.4-4.5c-7.7-2.2,1.9-12.7,1.9-12.7S73,356.2,62.2,360.2z"/>
	
		<linearGradient id="SVGID_7_" gradientUnits="userSpaceOnUse" x1="150.4774" y1="-33.1224" x2="193.1923" y2="-33.1224" gradientTransform="matrix(0.9923 -0.1239 -0.1239 -0.9923 -39.2365 370.1093)">
		<stop  offset="0" style="stop-color:#1F3683"/>
		<stop  offset="1" style="stop-color:#0F0038"/>
	</linearGradient>
	<path class="st6" d="M116.6,375.1c0,0-3.5,11.3-1.5,13c1.9,1.6,28.6,2.9,41.1-0.6c1.1-0.3,1.6-1.6,1-2.6c-1.6-2.6-5.5-7.2-13.2-8.5
		C132.8,374.4,121.9,380.4,116.6,375.1z"/>
	
		<linearGradient id="SVGID_8_" gradientUnits="userSpaceOnUse" x1="153.5969" y1="-17.6089" x2="182.9179" y2="-17.6089" gradientTransform="matrix(0.9923 -0.1239 -0.1239 -0.9923 -39.2365 370.1093)">
		<stop  offset="0" style="stop-color:#EAC29C"/>
		<stop  offset="1" style="stop-color:#DF9C74"/>
	</linearGradient>
	<path class="st7" d="M117.7,353.8c0,0-0.9,18.3-1.2,23c-0.3,4.3,18.9,7.2,29.1,2.1c0.8-0.4,0.8-1.5,0-1.8c-2-0.9-5.7-2.4-10.8-3.1
		c-8-1.2-0.2-16.9-0.2-16.9S127.9,348.4,117.7,353.8z"/>
	
		<linearGradient id="SVGID_9_" gradientUnits="userSpaceOnUse" x1="106.9329" y1="126.6769" x2="160.6074" y2="155.4319" gradientTransform="matrix(1 0 0 -1 0 391.8643)">
		<stop  offset="0" style="stop-color:#83B1E3"/>
		<stop  offset="1" style="stop-color:#5695D9"/>
	</linearGradient>
	<path class="st8" d="M111.1,154.4c0,0,23.9,41.8,30.6,115.2c6.7,73.4-6.9,89.2-6.9,89.2s-11.5,4.5-17.4-3.3
		c-5.6-7.3-7-49.7-3.9-66.6c3-17-33.9-64.6-30.6-75.4C86.2,202.6,111.1,154.4,111.1,154.4z"/>
	
		<linearGradient id="SVGID_10_" gradientUnits="userSpaceOnUse" x1="53.1067" y1="131.5407" x2="112.5745" y2="131.5407" gradientTransform="matrix(1 0 0 -1 0 391.8643)">
		<stop  offset="0" style="stop-color:#83B1E3"/>
		<stop  offset="1" style="stop-color:#5695D9"/>
	</linearGradient>
	<path class="st9" d="M111.1,154.4c4.1,15.5-1.2,34.1-3.4,38.4s6.8,50,2.8,84.2c-3.9,34.2-24.3,85.9-34,88.6
		c-7.2,1.9-12.2-1.3-14.3-3.1c-0.7-0.6-1.2-1.5-1.3-2.4c-3.6-37.9,15.1-67.3,15.3-71s2.4-22.8-15.8-60.9s2.6-67.5,2.6-67.5
		S88.1,174,111.1,154.4z"/>
	<g class="st10">
		
			<linearGradient id="SVGID_11_" gradientUnits="userSpaceOnUse" x1="55.7402" y1="219.4188" x2="77.2868" y2="219.5174" gradientTransform="matrix(1 0 0 -1 0 391.8643)">
			<stop  offset="0" style="stop-color:#24000A"/>
			<stop  offset="1" style="stop-color:#050000"/>
		</linearGradient>
		<path class="st11" d="M56,176.9c2.2,0.2,4.4,0.3,6.6,0.2c1.1-0.1,2.2-0.2,3.2-0.4c1.1-0.2,2.1-0.4,3.1-0.8c1-0.4,1.9-0.8,2.8-1.4
			c0.9-0.6,1.6-1.3,2.3-2.1c0.4-0.4,0.6-0.9,0.9-1.3c0.3-0.5,0.5-0.9,0.7-1.4c0.5-1,0.8-2,1.1-3.1c0,1.1-0.2,2.2-0.5,3.3
			c-0.1,0.6-0.4,1.1-0.6,1.6c-0.3,0.5-0.5,1-0.9,1.5c-0.6,1-1.5,1.8-2.4,2.5s-2,1.2-3.1,1.6c-2.2,0.8-4.5,1-6.7,1
			C60.3,178,58.1,177.7,56,176.9z"/>
	</g>
	
		<linearGradient id="SVGID_12_" gradientUnits="userSpaceOnUse" x1="100.1165" y1="215.1321" x2="108.3015" y2="215.1321" gradientTransform="matrix(1 0 0 -1 0 391.8643)">
		<stop  offset="0" style="stop-color:#24000A"/>
		<stop  offset="1" style="stop-color:#050000"/>
	</linearGradient>
	<path class="st12" d="M107.7,192.8c0-1.4,0-2.8,0-4.2s-0.1-2.8-0.2-4.2c-0.1-1.4-0.2-2.8-0.4-4.2s-0.4-2.8-0.6-4.1
		c-0.5-2.7-1.2-5.5-2.1-8.1c-1-2.6-2.2-5.1-3.9-7.4c1,1,1.8,2.2,2.6,3.4c0.7,1.2,1.4,2.5,1.9,3.8c1.1,2.6,1.8,5.4,2.3,8.2
		s0.8,5.6,0.8,8.4C108.2,187.2,108.1,190,107.7,192.8z"/>
	
		<linearGradient id="SVGID_13_" gradientUnits="userSpaceOnUse" x1="62.3473" y1="232.6794" x2="112.5981" y2="232.6794" gradientTransform="matrix(1 0 0 -1 0 391.8643)">
		<stop  offset="0" style="stop-color:#DAE7F8"/>
		<stop  offset="1" style="stop-color:#A7C7EC"/>
	</linearGradient>
	<path class="st13" d="M62.7,157c0,0-1.4,5.7,1.8,8.1c3.2,2.4,18,8,39.9-1.5c0,0,8.2-5,8.3-8.8c0-3.7-1.7-5.7-3-5.4
		S95.1,158.9,62.7,157z"/>
	<g>
		
			<linearGradient id="SVGID_14_" gradientUnits="userSpaceOnUse" x1="73.5628" y1="228.742" x2="78.4047" y2="228.742" gradientTransform="matrix(1 0 0 -1 0 391.8643)">
			<stop  offset="0" style="stop-color:#83B1E3"/>
			<stop  offset="1" style="stop-color:#5695D9"/>
		</linearGradient>
		<path class="st14" d="M77.4,170.2c-0.2,0-0.5-0.1-0.7-0.2c-2.4-1.9-3.4-4.9-2.9-8.6c0.4-2.7,1.4-4.8,1.4-4.8
			c0.3-0.5,0.9-0.8,1.5-0.5c0.5,0.3,0.8,0.9,0.5,1.5c-0.1,0.1-3.5,7.3,0.9,10.7c0.5,0.4,0.6,1.1,0.2,1.5
			C78,170,77.7,170.2,77.4,170.2z"/>
	</g>
	<g>
		
			<linearGradient id="SVGID_15_" gradientUnits="userSpaceOnUse" x1="-590.2415" y1="162.2318" x2="-585.3997" y2="162.2318" gradientTransform="matrix(-0.9786 0.2059 -0.2059 -0.9786 -444.3604 440.2704)">
			<stop  offset="0" style="stop-color:#83B1E3"/>
			<stop  offset="1" style="stop-color:#5695D9"/>
		</linearGradient>
		<path class="st15" d="M97.5,167.7c-0.2,0-0.5-0.1-0.7-0.3c-0.5-0.4-0.5-1.1-0.1-1.5c3.6-4.3-1.3-10.6-1.3-10.7
			c-0.4-0.5-0.3-1.2,0.2-1.5c0.5-0.4,1.2-0.3,1.5,0.2c0.1,0.1,1.5,1.9,2.4,4.4c1.3,3.5,0.9,6.6-1.1,9
			C98.1,167.6,97.8,167.7,97.5,167.7z"/>
	</g>
	<g>
		
			<linearGradient id="SVGID_16_" gradientUnits="userSpaceOnUse" x1="-600.6725" y1="167.6749" x2="-598.7729" y2="156.1311" gradientTransform="matrix(-0.9786 0.2059 -0.2059 -0.9786 -444.3604 440.2704)">
			<stop  offset="0" style="stop-color:#83B1E3"/>
			<stop  offset="1" style="stop-color:#5695D9"/>
		</linearGradient>
		<path class="st16" d="M108.8,162.4c-0.2,0-0.5-0.1-0.7-0.3c-0.5-0.4-0.5-1.1-0.1-1.5c3.6-4.3-1.3-10.6-1.3-10.7
			c-0.4-0.5-0.3-1.2,0.2-1.5c0.5-0.4,1.2-0.3,1.5,0.2c0.1,0.1,1.5,1.9,2.4,4.4c1.3,3.5,0.9,6.6-1.1,9
			C109.5,162.3,109.1,162.4,108.8,162.4z"/>
	</g>
	
		<linearGradient id="SVGID_17_" gradientUnits="userSpaceOnUse" x1="12.9365" y1="280.4561" x2="113.5169" y2="280.4561" gradientTransform="matrix(1 0 0 -1 0 391.8643)">
		<stop  offset="0" style="stop-color:#F4D85F"/>
		<stop  offset="1" style="stop-color:#ECB543"/>
	</linearGradient>
	<path class="st17" d="M14.9,111.4c0,0-7.3-23.9,6.6-33.7c13.8-9.7,12.8-11,12.8-11l22.4-3.3c0,0,5,1.2,16.5,1.3
		c11.5,0.1,17.1,3.5,22.1,19.7c0,0-1,3.2-7,4.7c0,0,7.7,7.6,8,19.3s26.2,32.4,14,42.4c-4.6,3.8-14.5,6.6-25,7.8
		c-17.2,2.1-36.2,0-36.3-8.8c0,0,1.6-22.8-13.7-32.6l-17-2.3L14.9,111.4"/>
	
		<linearGradient id="SVGID_18_" gradientUnits="userSpaceOnUse" x1="35.1352" y1="264.3914" x2="85.2153" y2="264.3914" gradientTransform="matrix(1 0 0 -1 0 391.8643)">
		<stop  offset="0" style="stop-color:#24000A"/>
		<stop  offset="1" style="stop-color:#050000"/>
	</linearGradient>
	<path class="st18" d="M85.3,158.7c-17.2,2.1-36.2,0-36.3-8.8c0,0,1.6-22.8-13.7-32.6l1.5-9.4c0,0-0.9-9,0-12.2s5.3,22.9,20.7,29
		c15.4,6.1,21,0.5,22.7,13.7c0,0-2.2,0.5-4.1-3.2c0,0-6.6-5.1-9.7,2C63.3,144.3,62.8,157.9,85.3,158.7z"/>
	
		<linearGradient id="SVGID_19_" gradientUnits="userSpaceOnUse" x1="14.8523" y1="257.8916" x2="93.0217" y2="257.8916" gradientTransform="matrix(1 0 0 -1 0 391.8643)">
		<stop  offset="0" style="stop-color:#EAC29C"/>
		<stop  offset="1" style="stop-color:#DF9C74"/>
	</linearGradient>
	<path class="st19" d="M14.9,111.4c0,0,5.8,44.8,15.9,48c10.1,3.1,25.9-6.1,32.4-29.5c0,0,6.6,2,10.9,0.4c4.2-1.5,3.5,7.9,6,8
		s-0.2-8.2-0.2-8.2s2.5,2.4,3.2,6.5s3.1,2.5,3,0.5c0,0,0.7,2.8,2.3,2s-0.3-9.5-3.3-12.5c0,0,2.1,0.6,3.6,2.8
		c1.4,2.2,2.2,4.8,3.7,4.5s1-6.7-7-12.2c-8-5.6-22.6-4.4-25.4-2.3c-2.8,2.1-16.2,13-19.4,15.8c0,0-0.9-14.2-3.9-27.3
		C36.6,107.8,28.3,114.4,14.9,111.4z"/>
	<path class="st20" d="M32.6,69c0,0,4.1,9.9,14.1,11.6s10.4-6.8,10.4-6.8s3.9,1.4,7.4-0.6c3.4-2,3.5-8.3-7.8-9.6l-22.4,3.3L32.6,69z
		"/>
	<g>
		
			<linearGradient id="SVGID_20_" gradientUnits="userSpaceOnUse" x1="51.7218" y1="341.3322" x2="74.0794" y2="341.3322" gradientTransform="matrix(1 0 0 -1 0 391.8643)">
			<stop  offset="0" style="stop-color:#311A79"/>
			<stop  offset="1" style="stop-color:#0F0B35"/>
		</linearGradient>
		<path class="st21" d="M61,58.4c-2.5,0.8-5.4,1.4-8.8,1.8c0,0-3.8-14,10.5-19.4c0,0,3.2,5.8,11.4,8.5c0,0-2.4,4.9-10.8,8.3
			c0,0-1.8-1.2-2.9-3.9C60.4,53.7,60.1,56.5,61,58.4z"/>
		
			<linearGradient id="SVGID_21_" gradientUnits="userSpaceOnUse" x1="19.1197" y1="353.2777" x2="65.0905" y2="353.2777" gradientTransform="matrix(1 0 0 -1 0 391.8643)">
			<stop  offset="0" style="stop-color:#EAC29C"/>
			<stop  offset="1" style="stop-color:#DF9C74"/>
		</linearGradient>
		<path class="st22" d="M32.6,69c0,0,6-6.2,0.6-16.3c0,0-13.7-4.6-13.7-15.4s-3.4-29.7,14-33.9c0,0,12.9-0.7,15.1,5.1
			s4.2,10.1,5.8,11.4c0,0,2.2,0.5,4.1,0.6c0.5,0,0.9,0.4,0.9,1c-0.1,0.9-0.3,2.2-1.2,3.2c0,0,7.1,7.7,7.1,13.4s-6.2,9.2-7.8,10.9
			S51.9,59.8,59,66c0,0,1.2,4.1-3.4,6.6C50.7,75,38.5,73.5,32.6,69z"/>
		
			<linearGradient id="SVGID_22_" gradientUnits="userSpaceOnUse" x1="0.1427" y1="356.1942" x2="52.186" y2="356.1942" gradientTransform="matrix(1 0 0 -1 0 391.8643)">
			<stop  offset="0" style="stop-color:#311A79"/>
			<stop  offset="1" style="stop-color:#0F0B35"/>
		</linearGradient>
		<path class="st23" d="M38.9,67c3.5-1.1,6.8-2.4,9.7-4.1c0,0-9.5-7.8-13.4-19.2c0,0-4.4,3.4-9-0.2c-4.7-3.7-2.9-7.1,1.8-7
			c4.7,0.1,8.4-8.6,2.4-17.2c0,0,9.9-4.7,9-14.2c0,0,2.6,1.8,5.2,1.6c0,0,3.3,2.4,7.6,10.4c0,0,0.9-21.3-20.3-16.4
			c0,0-18.3,2.3-23.6,15.3C3,28.9,11.8,38.5,4.8,45.9s-6.1,18,1.6,25.4c0,0,4.4,0.1,10.7-0.4c-8.2-6.8-2.8-17.5-2.8-17.5
			c-3.2,11.4,6,17.2,6,17.2c4.6-0.5,9.7-1.2,14.8-2.5c0,0-7.3-3.1-7.8-13.9C27.5,54.1,29.7,64.1,38.9,67z"/>
		<g>
			<g>
				<defs>
					<path id="SVGID_23_" d="M57.8,28.8c0,0-1.9,4.1-11.4,3c0,0,1.6,4.8,6.8,4.9S61.3,33.4,57.8,28.8z"/>
				</defs>
				<clipPath id="SVGID_24_">
					<use xlink:href="#SVGID_23_"  style="overflow:visible;"/>
				</clipPath>
				<path class="st24" d="M57.8,28.8c0,0-1.9,4.1-11.4,3c0,0,1.6,4.8,6.8,4.9S61.3,33.4,57.8,28.8z"/>
			</g>
			<g>
				<defs>
					<path id="SVGID_25_" d="M57.8,28.8c0,0-1.9,4.1-11.4,3c0,0,1.6,4.8,6.8,4.9S61.3,33.4,57.8,28.8z"/>
				</defs>
				<clipPath id="SVGID_26_">
					<use xlink:href="#SVGID_25_"  style="overflow:visible;"/>
				</clipPath>
				<path class="st25" d="M45.3,33.1c0,0,9.5,3.4,14-3.2L57,27.1c0,0-2.9,5.3-10.6,2.6C46.4,29.7,44.9,30.1,45.3,33.1z"/>
			</g>
		</g>
		<g>
			
				<linearGradient id="SVGID_27_" gradientUnits="userSpaceOnUse" x1="35.8475" y1="371.6455" x2="42.5434" y2="371.6455" gradientTransform="matrix(1 0 0 -1 0 391.8643)">
				<stop  offset="0" style="stop-color:#311A79"/>
				<stop  offset="1" style="stop-color:#0F0B35"/>
			</linearGradient>
			<path class="st26" d="M36.3,23.7L36.3,23.7c-0.3,0-0.5-0.3-0.4-0.5c0-0.2,0.9-5,6.1-6.5c0.2-0.1,0.5,0.1,0.5,0.3
				c0.1,0.2-0.1,0.5-0.3,0.5c-4.7,1.3-5.5,5.7-5.5,5.8C36.7,23.6,36.5,23.7,36.3,23.7z"/>
		</g>
		<g>
			
				<linearGradient id="SVGID_28_" gradientUnits="userSpaceOnUse" x1="47.3547" y1="378.0244" x2="50.5878" y2="378.0244" gradientTransform="matrix(1 0 0 -1 0 391.8643)">
				<stop  offset="0" style="stop-color:#311A79"/>
				<stop  offset="1" style="stop-color:#0F0B35"/>
			</linearGradient>
			<path class="st27" d="M47.7,14.8c-0.1,0-0.1,0-0.2,0c-0.2-0.1-0.2-0.3-0.1-0.4c1.3-2.2,3-1.5,3-1.4c0.2,0.1,0.2,0.3,0.2,0.4
				c-0.1,0.2-0.3,0.2-0.4,0.2S49,13.1,48,14.8C48,14.8,47.8,14.8,47.7,14.8z"/>
		</g>
		
			<linearGradient id="SVGID_29_" gradientUnits="userSpaceOnUse" x1="33.9708" y1="348.9322" x2="35.6146" y2="348.9322" gradientTransform="matrix(1 0 0 -1 0 391.8643)">
			<stop  offset="0" style="stop-color:#311A79"/>
			<stop  offset="1" style="stop-color:#0F0B35"/>
		</linearGradient>
		<circle class="st28" cx="34.8" cy="42.9" r="0.8"/>
		
			<linearGradient id="SVGID_30_" gradientUnits="userSpaceOnUse" x1="39.9766" y1="369.4899" x2="45.6195" y2="369.4899" gradientTransform="matrix(1 0 0 -1 0 391.8643)">
			<stop  offset="0" style="stop-color:#24000A"/>
			<stop  offset="1" style="stop-color:#050000"/>
		</linearGradient>
		<path class="st29" d="M45.6,20.2c-1.2,0.3-2.2,0.9-3,1.6c-0.4,0.4-0.8,0.8-1.1,1.3c-0.2,0.2-0.3,0.5-0.5,0.7
			c-0.2,0.3-0.3,0.5-0.5,0.8c0-0.3,0.1-0.6,0.1-0.9c0.1-0.3,0.2-0.6,0.3-0.9c0.3-0.6,0.6-1.1,1.1-1.6c0.5-0.4,1.1-0.8,1.7-1
			C44.3,20.1,45,20,45.6,20.2z"/>
		
			<linearGradient id="SVGID_31_" gradientUnits="userSpaceOnUse" x1="45.4127" y1="374.3822" x2="54.3046" y2="374.3822" gradientTransform="matrix(1 0 0 -1 0 391.8643)">
			<stop  offset="0" style="stop-color:#24000A"/>
			<stop  offset="1" style="stop-color:#050000"/>
		</linearGradient>
		<path class="st30" d="M54.3,19.9c-1.7-0.1-3.4-0.7-4.9-1.5c-0.4-0.2-0.7-0.4-1.1-0.7c-0.3-0.3-0.7-0.5-1-0.8
			c-0.7-0.6-1.2-1.2-1.7-1.9c0.6,0.6,1.2,1.2,1.9,1.7c0.7,0.5,1.4,1,2.1,1.4s1.5,0.8,2.3,1.1C52.7,19.4,53.5,19.7,54.3,19.9z"/>
		
			<linearGradient id="SVGID_32_" gradientUnits="userSpaceOnUse" x1="49.4736" y1="375.0322" x2="52.0506" y2="375.0322" gradientTransform="matrix(1 0 0 -1 0 391.8643)">
			<stop  offset="0" style="stop-color:#24000A"/>
			<stop  offset="1" style="stop-color:#050000"/>
		</linearGradient>
		<path class="st31" d="M49.9,17.6c-0.1-0.2-0.1-0.5,0-0.7s0.2-0.5,0.5-0.7c0.2-0.2,0.5-0.2,0.8-0.2s0.5,0.2,0.7,0.4
			c-0.3,0.1-0.5,0.1-0.6,0.2c-0.2,0.1-0.3,0.1-0.4,0.2C50.4,16.9,50.2,17.2,49.9,17.6z"/>
		
			<linearGradient id="SVGID_33_" gradientUnits="userSpaceOnUse" x1="56.5231" y1="366.2822" x2="58.1095" y2="366.2822" gradientTransform="matrix(1 0 0 -1 0 391.8643)">
			<stop  offset="0" style="stop-color:#24000A"/>
			<stop  offset="1" style="stop-color:#050000"/>
		</linearGradient>
		<path class="st32" d="M58.1,24.7c-0.2,0.3-0.4,0.6-0.6,0.9s-0.4,0.6-0.7,0.8c0.1-0.4,0.2-0.7,0.5-1C57.4,25.1,57.7,24.8,58.1,24.7
			z"/>
		
			<linearGradient id="SVGID_34_" gradientUnits="userSpaceOnUse" x1="26.5379" y1="351.0029" x2="32.5679" y2="351.0029" gradientTransform="matrix(1 0 0 -1 0 391.8643)">
			<stop  offset="0" style="stop-color:#24000A"/>
			<stop  offset="1" style="stop-color:#050000"/>
		</linearGradient>
		<path class="st33" d="M32.4,41c-0.1-0.1-0.2-0.2-0.4-0.3c-0.3-0.1-0.6-0.2-0.8-0.3c-0.5-0.1-1.1-0.1-1.5-0.3
			c-0.2-0.1-0.3-0.2-0.3-0.4c0-0.2,0.1-0.4,0.2-0.6l0.1-0.2l-0.2-0.1c-0.3-0.1-0.6-0.2-0.9-0.1c-0.3,0-0.6,0.1-0.9,0.3
			c-0.3,0.2-0.5,0.4-0.6,0.7c-0.2,0.3-0.3,0.5-0.4,0.8c0.3-0.5,0.7-1,1.1-1.2c0.2-0.1,0.5-0.2,0.8-0.2c0.2,0,0.4,0,0.6,0.1
			c-0.1,0.2-0.2,0.4-0.2,0.7c0,0.4,0.3,0.7,0.6,0.8c0.3,0.1,0.6,0.2,0.9,0.2l0.8,0.1c0.3,0,0.5,0.1,0.8,0.2c0.2,0.1,0.4,0.2,0.4,0.4
			c0,0.5-0.4,1-0.7,1.4c0.2-0.2,0.4-0.4,0.6-0.6s0.3-0.5,0.4-0.8C32.6,41.3,32.6,41.1,32.4,41z"/>
	</g>
	
		<linearGradient id="SVGID_35_" gradientUnits="userSpaceOnUse" x1="81.2189" y1="259.6822" x2="86.1773" y2="259.6822" gradientTransform="matrix(1 0 0 -1 0 391.8643)">
		<stop  offset="0" style="stop-color:#24000A"/>
		<stop  offset="1" style="stop-color:#050000"/>
	</linearGradient>
	<path class="st34" d="M86.1,137.1c-0.1-0.5-0.2-0.9-0.3-1.4s-0.2-0.9-0.4-1.3c-0.3-0.9-0.6-1.8-1-2.6c-0.4-0.9-0.8-1.7-1.3-2.4
		l-0.4-0.6c-0.1-0.2-0.3-0.4-0.4-0.5c-0.3-0.4-0.6-0.7-0.9-1.1c0.7,0.6,1.4,1.3,1.9,2c0.5,0.8,1,1.6,1.4,2.5s0.7,1.8,0.9,2.7
		C85.9,135.2,86,136.1,86.1,137.1z"/>
	
		<linearGradient id="SVGID_36_" gradientUnits="userSpaceOnUse" x1="36.0517" y1="252.6894" x2="38.9065" y2="251.6555" gradientTransform="matrix(1 0 0 -1 0 391.8643)">
		<stop  offset="0" style="stop-color:#24000A"/>
		<stop  offset="1" style="stop-color:#050000"/>
	</linearGradient>
	<path class="st35" d="M40.6,135.1c-0.6,0.7-1.1,1.5-1.7,2.2c-0.5,0.7-1.1,1.5-1.6,2.2s-1,1.5-1.5,2.3s-0.9,1.6-1.4,2.4
		c0.3-0.9,0.6-1.7,1.1-2.5c0.4-0.8,0.9-1.6,1.4-2.4C38,137.7,39.2,136.3,40.6,135.1z"/>
	
		<linearGradient id="SVGID_37_" gradientUnits="userSpaceOnUse" x1="77.8762" y1="308.7822" x2="95.1762" y2="308.7822" gradientTransform="matrix(1 0 0 -1 0 391.8643)">
		<stop  offset="0" style="stop-color:#24000A"/>
		<stop  offset="1" style="stop-color:#050000"/>
	</linearGradient>
	<path class="st36" d="M95.2,84.5c0,0-1,3.2-7,4.7c0,0-3.9-3.1-6-4.8c-2.2-1.8-4.3-7.5-4.3-7.5s6,8.9,10.4,9.3
		C92.7,86.5,95.2,84.5,95.2,84.5z"/>
	<g class="st10">
		
			<linearGradient id="SVGID_38_" gradientUnits="userSpaceOnUse" x1="158.4099" y1="239.1822" x2="163.8455" y2="239.1822" gradientTransform="matrix(1 0 0 -1 0 391.8643)">
			<stop  offset="0" style="stop-color:#24000A"/>
			<stop  offset="1" style="stop-color:#050000"/>
		</linearGradient>
		<path class="st37" d="M163.8,153.9c-0.9-0.3-1.9-0.6-2.8-1c-0.4-0.2-0.9-0.4-1.3-0.7c-0.4-0.2-0.9-0.5-1.2-0.8
			c0.4,0.2,0.9,0.4,1.3,0.6l1.3,0.6C162.1,153,163,153.4,163.8,153.9z"/>
	</g>
</g>
</svg>
