<?xml version="1.0" encoding="utf-8"?>
<!-- Generator: Adobe Illustrator 22.1.0, SVG Export Plug-In . SVG Version: 6.00 Build 0)  -->
<svg version="1.1" id="Capa_1" xmlns="http://www.w3.org/2000/svg" xmlns:xlink="http://www.w3.org/1999/xlink" x="0px" y="0px"
	 viewBox="0 0 204 104.6" style="enable-background:new 0 0 204 104.6;" xml:space="preserve">
<style type="text/css">
	.st0{fill:#2B284D;}
	.st1{fill:#D5635D;}
	.st2{fill:#E3B94C;}
	.st3{fill:#70BC50;}
	.st4{fill:#343088;}
	.st5{fill:#322C77;}
	.st6{fill:#746FB9;}
	.st7{fill:#A2E1A5;}
	.st8{fill:#897FDA;}
	.st9{fill:#DF9423;}
	.st10{fill:#8CC6F7;}
	.st11{fill:#403892;}
</style>
<g>
	<path class="st0" d="M201.1,0H2.9C1.3,0,0,1.3,0,2.9v3.4h203.9V2.9C204,1.3,202.7,0,201.1,0z"/>
	<g>
		<circle class="st1" cx="5.3" cy="3.1" r="1.2"/>
		<circle class="st2" cx="9.3" cy="3.1" r="1.2"/>
		<circle class="st3" cx="13.2" cy="3.1" r="1.2"/>
	</g>
	<path class="st4" d="M0.1,6.2v94.5c0,2.2,1.8,3.9,3.9,3.9h46.1V6.2H0.1z"/>
	<path class="st5" d="M50.1,6.2v98.4h150c2.2,0,3.9-1.8,3.9-3.9V6.2H50.1z"/>
	<g>
		<path class="st6" d="M43.4,15.6c0-1.1-0.9-2.1-2.1-2.1H4.5c-1.1,0-2.1,0.9-2.1,2.1s0.9,2.1,2.1,2.1h36.8
			C42.5,17.6,43.4,16.7,43.4,15.6z"/>
		<path class="st6" d="M41.4,21.8H18.9c-1.1,0-2.1,0.9-2.1,2.1l0,0c0,1.1,0.9,2.1,2.1,2.1h22.5c1.1,0,2.1-0.9,2.1-2.1l0,0
			C43.4,22.6,42.5,21.8,41.4,21.8z"/>
		<path class="st6" d="M41.4,30H13.7c-1.1,0-2.1,0.9-2.1,2.1l0,0c0,1.1,0.9,2.1,2.1,2.1h27.7c1.1,0,2.1-0.9,2.1-2.1l0,0
			C43.4,30.9,42.5,30,41.4,30z"/>
		<path class="st6" d="M41.4,38.2h-8.3c-1.1,0-2.1,0.9-2.1,2.1s0.9,2.1,2.1,2.1h8.3c1.1,0,2.1-0.9,2.1-2.1
			C43.4,39.1,42.5,38.2,41.4,38.2z"/>
		<path class="st6" d="M41.4,46.4H25.7c-1.1,0-2.1,0.9-2.1,2.1l0,0c0,1.1,0.9,2.1,2.1,2.1h15.7c1.1,0,2.1-0.9,2.1-2.1l0,0
			C43.4,47.3,42.5,46.4,41.4,46.4z"/>
		<path class="st6" d="M41.4,54.7H13.7c-1.1,0-2.1,0.9-2.1,2.1l0,0c0,1.1,0.9,2.1,2.1,2.1h27.7c1.1,0,2.1-0.9,2.1-2.1l0,0
			C43.4,55.5,42.5,54.7,41.4,54.7z"/>
		<path class="st6" d="M41.4,62.8H23.5c-1.1,0-2.1,0.9-2.1,2.1c0,1.1,0.9,2.1,2.1,2.1h17.9c1.1,0,2.1-0.9,2.1-2.1
			C43.5,63.8,42.5,62.8,41.4,62.8z"/>
		<path class="st6" d="M41.4,71.1H10.7c-1.1,0-2.1,0.9-2.1,2.1l0,0c0,1.1,0.9,2.1,2.1,2.1h30.7c1.1,0,2.1-0.9,2.1-2.1l0,0
			C43.4,71.9,42.5,71.1,41.4,71.1z"/>
		<path class="st6" d="M41.4,79.3H10.7c-1.1,0-2.1,0.9-2.1,2.1l0,0c0,1.1,0.9,2.1,2.1,2.1h30.7c1.1,0,2.1-0.9,2.1-2.1l0,0
			C43.4,80.2,42.5,79.3,41.4,79.3z"/>
		<path class="st6" d="M41.4,87.5H21.2c-1.1,0-2.1,0.9-2.1,2.1s0.9,2.1,2.1,2.1h20.2c1.1,0,2.1-0.9,2.1-2.1S42.5,87.5,41.4,87.5z"/>
		<path class="st6" d="M41.4,95.7H31.2c-1.1,0-2.1,0.9-2.1,2.1l0,0c0,1.1,0.9,2.1,2.1,2.1h10.2c1.1,0,2.1-0.9,2.1-2.1l0,0
			C43.4,96.6,42.5,95.7,41.4,95.7z"/>
	</g>
	<path class="st7" d="M106.2,13.5H69.4c-1.1,0-2.1,0.9-2.1,2.1s0.9,2.1,2.1,2.1h36.8c1.1,0,2.1-0.9,2.1-2.1
		C108.3,14.5,107.4,13.5,106.2,13.5z"/>
	<path class="st8" d="M100.2,21.8H69.5c-1.1,0-2.1,0.9-2.1,2.1s0.9,2.1,2.1,2.1h30.7c1.1,0,2.1-0.9,2.1-2.1
		C102.2,22.6,101.3,21.8,100.2,21.8z"/>
	<path class="st7" d="M138.2,21.8h-30.7c-1.1,0-2.1,0.9-2.1,2.1s0.9,2.1,2.1,2.1h30.7c1.1,0,2.1-0.9,2.1-2.1
		C140.2,22.6,139.3,21.8,138.2,21.8z"/>
	<path class="st9" d="M158,21.8h-12.5c-1.1,0-2.1,0.9-2.1,2.1l0,0c0,1.1,0.9,2.1,2.1,2.1H158c1.1,0,2.1-0.9,2.1-2.1l0,0
		C160,22.6,159.1,21.8,158,21.8z"/>
	<path class="st10" d="M177.7,21.8h-12.5c-1.1,0-2.1,0.9-2.1,2.1l0,0c0,1.1,0.9,2.1,2.1,2.1h12.5c1.1,0,2.1-0.9,2.1-2.1l0,0
		C179.8,22.6,178.8,21.8,177.7,21.8z"/>
	<path class="st8" d="M113.1,30H85.4c-1.1,0-2.1,0.9-2.1,2.1l0,0c0,1.1,0.9,2.1,2.1,2.1h27.7c1.1,0,2.1-0.9,2.1-2.1l0,0
		C115.1,30.9,114.2,30,113.1,30z"/>
	<path class="st8" d="M116.3,38.2h-31c-1.1,0-2.1,0.9-2.1,2.1s0.9,2.1,2.1,2.1h31c1.1,0,2.1-0.9,2.1-2.1
		C118.3,39.1,117.4,38.2,116.3,38.2z"/>
	<path class="st7" d="M162.2,38.2h-38.7c-1.1,0-2.1,0.9-2.1,2.1s0.9,2.1,2.1,2.1h38.7c1.1,0,2.1-0.9,2.1-2.1
		C164.3,39.1,163.3,38.2,162.2,38.2z"/>
	<path class="st8" d="M195.5,38.2h-25.9c-1.1,0-2.1,0.9-2.1,2.1s0.9,2.1,2.1,2.1h25.9c1.1,0,2.1-0.9,2.1-2.1
		C197.4,39.1,196.5,38.2,195.5,38.2z"/>
	<path class="st8" d="M85.1,46.4H69.4c-1.1,0-2.1,0.9-2.1,2.1l0,0c0,1.1,0.9,2.1,2.1,2.1h15.7c1.1,0,2.1-0.9,2.1-2.1l0,0
		C87.2,47.3,86.2,46.4,85.1,46.4z"/>
	<path class="st8" d="M97.2,54.7H69.5c-1.1,0-2.1,0.9-2.1,2.1l0,0c0,1.1,0.9,2.1,2.1,2.1h27.7c1.1,0,2.1-0.9,2.1-2.1l0,0
		C99.2,55.5,98.3,54.7,97.2,54.7z"/>
	<path class="st8" d="M103.2,62.8H85.3c-1.1,0-2.1,0.9-2.1,2.1c0,1.1,0.9,2.1,2.1,2.1h17.9c1.1,0,2.1-0.9,2.1-2.1
		C105.3,63.8,104.3,62.8,103.2,62.8z"/>
	<path class="st9" d="M195.5,62.8h-20.7c-1.1,0-2.1,0.9-2.1,2.1c0,1.1,0.9,2.1,2.1,2.1h20.7c1.1,0,2.1-0.9,2.1-2.1
		C197.5,63.8,196.5,62.8,195.5,62.8z"/>
	<path class="st10" d="M167.5,62.8h-57c-1.1,0-2.1,0.9-2.1,2.1c0,1.1,0.9,2.1,2.1,2.1h57c1.1,0,2.1-0.9,2.1-2.1
		C169.5,63.8,168.6,62.8,167.5,62.8z"/>
	<path class="st8" d="M116,71.1H85.2c-1.1,0-2,0.8-2,2v0.1c0,1.1,0.8,2,2,2H116c1.1,0,2-0.8,2-2v-0.1C118,71.9,117.1,71.1,116,71.1z
		"/>
	<path class="st7" d="M154,71.1h-30.7c-1.1,0-2.1,0.9-2.1,2.1l0,0c0,1.1,0.9,2.1,2.1,2.1H154c1.1,0,2.1-0.9,2.1-2.1l0,0
		C156,71.9,155.2,71.1,154,71.1z"/>
	<path class="st9" d="M192,71.1h-30.7c-1.1,0-2.1,0.9-2.1,2.1l0,0c0,1.1,0.9,2.1,2.1,2.1H192c1.1,0,2.1-0.9,2.1-2.1l0,0
		C194,71.9,193.1,71.1,192,71.1z"/>
	<path class="st8" d="M104.4,79.3H85.3c-1.1,0-2.1,0.9-2.1,2.1l0,0c0,1.1,0.9,2.1,2.1,2.1h19.2c1.1,0,2.1-0.9,2.1-2.1l0,0
		C106.5,80.2,105.6,79.3,104.4,79.3z"/>
	<path class="st9" d="M122.6,79.3h-10.8c-1.1,0-2.1,0.9-2.1,2.1l0,0c0,1.1,0.9,2.1,2.1,2.1h10.8c1.1,0,2.1-0.9,2.1-2.1l0,0
		C124.6,80.2,123.7,79.3,122.6,79.3z"/>
	<path class="st8" d="M99,87.5H78.8c-1.1,0-2.1,0.9-2.1,2.1s0.9,2.1,2.1,2.1H99c1.1,0,2.1-0.9,2.1-2.1S100.1,87.5,99,87.5z"/>
	<path class="st8" d="M79.7,95.7H69.5c-1.1,0-2.1,0.9-2.1,2.1l0,0c0,1.1,0.9,2.1,2.1,2.1h10.2c1.1,0,2.1-0.9,2.1-2.1l0,0
		C81.7,96.6,80.8,95.7,79.7,95.7z"/>
	<circle class="st11" cx="58.5" cy="15.6" r="2.1"/>
	<circle class="st11" cx="58.5" cy="23.8" r="2.1"/>
	<circle class="st11" cx="58.5" cy="32" r="2.1"/>
	<circle class="st11" cx="58.5" cy="40.3" r="2.1"/>
	<circle class="st11" cx="58.5" cy="48.6" r="2.1"/>
	<circle class="st11" cx="58.5" cy="56.8" r="2.1"/>
	<circle class="st11" cx="58.5" cy="65" r="2.1"/>
	<circle class="st11" cx="58.5" cy="73.3" r="2.1"/>
	<circle class="st11" cx="58.5" cy="81.5" r="2.1"/>
	<circle class="st11" cx="58.5" cy="89.8" r="2.1"/>
	<circle class="st11" cx="58.5" cy="98.1" r="2.1"/>
	<path class="st7" d="M140.7,79.3h-10.8c-1.1,0-2.1,0.9-2.1,2.1l0,0c0,1.1,0.9,2.1,2.1,2.1h10.8c1.1,0,2.1-0.9,2.1-2.1l0,0
		C142.7,80.2,141.8,79.3,140.7,79.3z"/>
	<path class="st10" d="M185.7,79.3h-37.8c-1.1,0-2.1,0.9-2.1,2.1s0.9,2.1,2.1,2.1h37.8c1.1,0,2.1-0.9,2.1-2.1S186.8,79.3,185.7,79.3
		z"/>
</g>
</svg>
