<?xml version="1.0" encoding="utf-8"?>
<!-- Generator: Adobe Illustrator 22.1.0, SVG Export Plug-In . SVG Version: 6.00 Build 0)  -->
<svg version="1.1" id="Capa_1" xmlns="http://www.w3.org/2000/svg" xmlns:xlink="http://www.w3.org/1999/xlink" x="0px" y="0px"
	 viewBox="0 0 72.9 72.9" style="enable-background:new 0 0 72.9 72.9;" xml:space="preserve">
<style type="text/css">
	.st0{fill:#61AAFB;}
	.st1{fill:#FFFFFF;}
</style>
<g>
	<path class="st0" d="M63.6,72.9H9.3c-5.1,0-9.3-4.2-9.3-9.3V9.3C0,4.2,4.2,0,9.3,0h54.3c5.1,0,9.3,4.2,9.3,9.3v54.3
		C72.8,68.8,68.7,72.9,63.6,72.9z"/>
	<g>
		<g>
			<path class="st1" d="M49.9,50.4c-0.6,0-1.2-0.3-1.5-0.8c-0.6-0.8-0.4-2,0.4-2.6l10.6-7.7l-10.6-7.7c-0.8-0.6-1-1.8-0.4-2.6
				s1.8-1,2.6-0.4l12.7,9.3c0.5,0.4,0.8,0.9,0.8,1.5s-0.3,1.2-0.8,1.5L51,50.2C50.7,50.3,50.3,50.4,49.9,50.4z"/>
		</g>
		<g>
			<path class="st1" d="M30.8,53.6c-0.2,0-0.5,0-0.7-0.1c-1-0.4-1.4-1.5-1-2.5l11.1-26.4c0.4-1,1.5-1.4,2.5-1s1.4,1.5,1,2.5
				L32.6,52.5C32.3,53.2,31.6,53.6,30.8,53.6z"/>
		</g>
		<g>
			<path class="st1" d="M22.9,50.4c0.6,0,1.2-0.3,1.5-0.8c0.6-0.8,0.4-2-0.4-2.6l-10.6-7.7L24,31.6c0.8-0.6,1-1.8,0.4-2.6
				s-1.8-1-2.6-0.4L9.1,37.9c-0.5,0.4-0.8,0.9-0.8,1.5s0.3,1.2,0.8,1.5l12.7,9.3C22.1,50.3,22.5,50.4,22.9,50.4z"/>
		</g>
	</g>
</g>
</svg>
