<?xml version="1.0" encoding="utf-8"?>
<!-- Generator: Adobe Illustrator 22.1.0, SVG Export Plug-In . SVG Version: 6.00 Build 0)  -->
<svg version="1.1" id="Capa_1" xmlns="http://www.w3.org/2000/svg" xmlns:xlink="http://www.w3.org/1999/xlink" x="0px" y="0px"
	 viewBox="0 0 304.2 487.3" style="enable-background:new 0 0 304.2 487.3;" xml:space="preserve">
<style type="text/css">
	.st0{fill:url(#SVGID_1_);}
	.st1{fill:url(#SVGID_2_);}
	.st2{fill:url(#SVGID_3_);}
	.st3{fill:url(#SVGID_4_);}
	.st4{fill:url(#SVGID_5_);}
	.st5{fill:url(#SVGID_6_);}
	.st6{fill:url(#SVGID_7_);}
	.st7{fill:url(#SVGID_8_);}
	.st8{fill:url(#SVGID_9_);}
	.st9{fill:url(#SVGID_10_);}
	.st10{fill:url(#SVGID_11_);}
	.st11{opacity:0.15;fill:url(#SVGID_12_);}
	.st12{opacity:0.15;fill:url(#SVGID_13_);}
	.st13{fill:#FFFFFF;}
	.st14{opacity:6.000000e-02;fill:url(#SVGID_14_);}
	.st15{opacity:6.000000e-02;fill:url(#SVGID_15_);}
	.st16{fill:url(#SVGID_16_);}
	.st17{fill:url(#SVGID_17_);}
	.st18{opacity:0.15;}
	.st19{fill:url(#SVGID_18_);}
	.st20{fill:url(#SVGID_19_);}
	.st21{opacity:0.15;fill:url(#SVGID_20_);}
	.st22{fill:url(#SVGID_21_);}
	.st23{fill:url(#SVGID_22_);}
	.st24{fill:url(#SVGID_23_);}
	.st25{opacity:0.25;fill:url(#SVGID_24_);}
	.st26{opacity:0.25;fill:url(#SVGID_25_);}
	.st27{opacity:0.25;fill:url(#SVGID_26_);}
	.st28{fill:none;}
	.st29{fill:#AEAEAE;}
	.st30{fill:url(#SVGID_27_);}
	.st31{fill:url(#SVGID_28_);}
	.st32{opacity:6.000000e-02;fill:url(#SVGID_29_);}
	.st33{opacity:6.000000e-02;fill:url(#SVGID_30_);}
	.st34{opacity:0.15;fill:#0F0038;}
	.st35{fill:url(#SVGID_31_);}
	.st36{opacity:0.15;clip-path:url(#SVGID_33_);fill:url(#SVGID_34_);}
	.st37{opacity:0.15;clip-path:url(#SVGID_33_);fill:url(#SVGID_35_);}
	.st38{fill:url(#SVGID_36_);}
	.st39{fill:url(#SVGID_37_);}
	.st40{fill:url(#SVGID_38_);}
	.st41{fill:url(#SVGID_39_);}
	.st42{fill:url(#SVGID_40_);}
	.st43{opacity:0.15;fill:url(#SVGID_41_);}
	.st44{fill:url(#SVGID_42_);}
	.st45{fill:url(#SVGID_43_);}
	.st46{fill:url(#SVGID_44_);}
</style>
<g>
	<g>
		<linearGradient id="SVGID_1_" gradientUnits="userSpaceOnUse" x1="46.8681" y1="229.2771" x2="110.1661" y2="229.2771">
			<stop  offset="0" style="stop-color:#EAC29C"/>
			<stop  offset="1" style="stop-color:#DF9C74"/>
		</linearGradient>
		<path class="st0" d="M46.9,226.4c7.1,6.6,25.5,21.4,33.3,20.9c8.3-0.5,21.3-10.3,30-20.2l-6.2-14.2l-12.2-1.5c0,0-3.4,7.1-5.9,8.8
			c0,0-10.1-1.1-19-1c-5,0.1-11.4-2.7-16.1-5.2L46.9,226.4z"/>
		<g>
			
				<linearGradient id="SVGID_2_" gradientUnits="userSpaceOnUse" x1="-389.0345" y1="2032.1957" x2="-355.3556" y2="2032.1957" gradientTransform="matrix(0.5671 0.8236 -0.8236 0.5671 1953.3694 -366.15)">
				<stop  offset="0" style="stop-color:#DAE7F8"/>
				<stop  offset="1" style="stop-color:#A7C7EC"/>
			</linearGradient>
			<path class="st1" d="M78.7,463.3c0,0-24-3.5-39.1,21.3c0,0,34.3,6.6,52.8-0.7c0,0,1.3-15.1-1.2-17.8
				C88.8,463.4,78.7,463.3,78.7,463.3z"/>
			
				<linearGradient id="SVGID_3_" gradientUnits="userSpaceOnUse" x1="-348.2908" y1="1829.7316" x2="-327.2737" y2="1829.7316" gradientTransform="matrix(0.9241 0.3821 -0.3821 0.9241 1095.3472 -1104.4972)">
				<stop  offset="0" style="stop-color:#EAC29C"/>
				<stop  offset="1" style="stop-color:#DF9C74"/>
			</linearGradient>
			<path class="st2" d="M76,449.3l2.1,16.8c0.1,0.8,0.6,1.5,1.3,1.8c2.3,1.1,7.6,2.8,12-0.9l1.8-18.2L76,449.3z"/>
			
				<linearGradient id="SVGID_4_" gradientUnits="userSpaceOnUse" x1="50.1889" y1="472.8551" x2="99.416" y2="472.8551" gradientTransform="matrix(0.9994 -3.321883e-02 3.321883e-02 0.9994 -22.4357 9.5935)">
				<stop  offset="0" style="stop-color:#1F3682"/>
				<stop  offset="1" style="stop-color:#162766"/>
			</linearGradient>
			<path class="st3" d="M92.6,480.6c0-0.4,0-0.8,0.1-1.3c-5.1,0.8-26.4,3.4-48.3-1.3l-1,1.2C66.1,484.1,88.1,481.3,92.6,480.6z"/>
		</g>
		<g>
			<linearGradient id="SVGID_5_" gradientUnits="userSpaceOnUse" x1="143.4991" y1="467.2818" x2="161.2438" y2="493.0508">
				<stop  offset="0" style="stop-color:#DAE7F8"/>
				<stop  offset="1" style="stop-color:#A7C7EC"/>
			</linearGradient>
			<path class="st4" d="M161.8,464.8c0,0-22.3-3.3-36.3,19.8c0,0,31.8,6.2,49.1-0.6c0,0,1.2-14-1.1-16.5
				C171.2,464.8,161.8,464.8,161.8,464.8z"/>
			
				<linearGradient id="SVGID_6_" gradientUnits="userSpaceOnUse" x1="-239.3457" y1="1719.9236" x2="-216.9122" y2="1719.9236" gradientTransform="matrix(0.9847 0.1743 -0.1743 0.9847 688.3524 -1196.6818)">
				<stop  offset="0" style="stop-color:#EAC29C"/>
				<stop  offset="1" style="stop-color:#DF9C74"/>
			</linearGradient>
			<path class="st5" d="M154,449.2l7.4,19.7c0.2,0.7,0.8,1.2,1.5,1.4c2.3,0.5,7.4,1,10.7-3.2l-2.3-22L154,449.2z"/>
			
				<linearGradient id="SVGID_7_" gradientUnits="userSpaceOnUse" x1="135.7548" y1="475.957" x2="181.4866" y2="475.957" gradientTransform="matrix(0.9994 -3.321883e-02 3.321883e-02 0.9994 -22.4357 9.5935)">
				<stop  offset="0" style="stop-color:#1F3682"/>
				<stop  offset="1" style="stop-color:#162766"/>
			</linearGradient>
			<path class="st6" d="M174.7,480.9c0-0.4,0-0.8,0.1-1.2c-4.7,0.7-24.5,3.2-44.9-1.3l-0.9,1.1C150.1,484.1,170.6,481.5,174.7,480.9
				z"/>
		</g>
		<linearGradient id="SVGID_8_" gradientUnits="userSpaceOnUse" x1="86.5429" y1="448.8633" x2="108.6054" y2="447.367">
			<stop  offset="0" style="stop-color:#1F3683"/>
			<stop  offset="1" style="stop-color:#162766"/>
		</linearGradient>
		<path class="st7" d="M74.1,443c0,0-0.3,10.1,3.5,11.4c3.8,1.3,15.8,2.6,17.1-3.4c1.2-5.6,1.9-8,1.9-8H74.1z"/>
		<linearGradient id="SVGID_9_" gradientUnits="userSpaceOnUse" x1="149.3604" y1="436.9571" x2="171.8928" y2="445.1163">
			<stop  offset="0" style="stop-color:#1F3683"/>
			<stop  offset="1" style="stop-color:#162766"/>
		</linearGradient>
		<path class="st8" d="M147.8,441.3c0,0,2.3,11.1,10.7,10.4c8.3-0.7,14.3-4.7,14.3-10.4c0-5.7-2.2-8.9-2.2-8.9
			S159.9,445.5,147.8,441.3z"/>
		<linearGradient id="SVGID_10_" gradientUnits="userSpaceOnUse" x1="68.656" y1="365.905" x2="164.8963" y2="365.905">
			<stop  offset="0" style="stop-color:#1F3683"/>
			<stop  offset="1" style="stop-color:#0F0038"/>
		</linearGradient>
		<path class="st9" d="M128.8,286.7c0,0-47.1,49-52.9,74.5c-5.8,25.5-12.9,81.6,0,84.8c12.9,3.2,21.9,5.3,25.4-12.3
			c3.5-17.5,2-47.1,8.5-56.1s41.8-35.1,48.5-41.5S177.6,269.7,128.8,286.7z"/>
		<linearGradient id="SVGID_11_" gradientUnits="userSpaceOnUse" x1="133.6671" y1="362.6567" x2="188.9563" y2="362.6567">
			<stop  offset="0" style="stop-color:#1F3683"/>
			<stop  offset="1" style="stop-color:#0F0038"/>
		</linearGradient>
		<path class="st10" d="M147.8,298.1c0,0-15.5,42.7-14,76.6c1.5,33.9,1.5,71.3,21.6,70.4s19.6-16.9,19-21c-0.6-4.1-9.5-24,0.2-46.2
			s20.8-63.1,9.7-92.9C184.3,284.9,156.4,268.1,147.8,298.1z"/>
		<linearGradient id="SVGID_12_" gradientUnits="userSpaceOnUse" x1="171.5856" y1="297.5755" x2="186.1798" y2="297.5755">
			<stop  offset="0" style="stop-color:#24000A"/>
			<stop  offset="1" style="stop-color:#050000"/>
		</linearGradient>
		<path class="st11" d="M172,294.9c0.8,1.1,1.8,2,2.8,2.7c0.3,0.2,0.5,0.4,0.8,0.5c0.3,0.1,0.6,0.3,0.9,0.4c0.3,0.1,0.6,0.2,0.9,0.4
			l0.9,0.2c0.3,0.1,0.6,0.1,0.9,0.2c0.2,0,0.3,0.1,0.5,0.1l0.5,0c0.3,0,0.6,0,1,0c0.3,0,0.6-0.1,1-0.1c0.3,0,0.6-0.1,1-0.1l1-0.2
			c0.6-0.2,1.3-0.4,1.9-0.5c-0.6,0.3-1.2,0.6-1.8,0.9l-1,0.3c-0.3,0.1-0.7,0.2-1,0.3c-1.3,0.3-2.8,0.3-4.1,0c-1.4-0.3-2.6-1-3.7-1.9
			C173.4,297.3,172.5,296.2,172,294.9z"/>
		<linearGradient id="SVGID_13_" gradientUnits="userSpaceOnUse" x1="123.1428" y1="294.498" x2="132.3119" y2="294.498">
			<stop  offset="0" style="stop-color:#24000A"/>
			<stop  offset="1" style="stop-color:#050000"/>
		</linearGradient>
		<path class="st12" d="M132.1,293.6c-0.6,0.5-1.3,0.9-2,1.2c-0.7,0.3-1.5,0.5-2.3,0.5c-0.8,0.1-1.6-0.1-2.4-0.4
			c-0.8-0.3-1.4-0.8-1.9-1.4c0.7,0.3,1.4,0.6,2.1,0.8c0.7,0.1,1.4,0.2,2.2,0.1C129.1,294.4,130.6,294,132.1,293.6z"/>
		<path class="st13" d="M201.1,204.1c0,0-3-38.7-64.7-35.8c0,0-31.7,5.7-44.7,43c0,0,5.3,14.9,18.4,15.8l6.8-6c0,0,1.3,11.4,7.5,25
			c6.1,13.6-1.2,38.3,0.4,41.9c1.6,3.7,9.1,15.2,26,15.9s25.9-6.8,37-13.2c8.8-5-4.5-26.4-0.9-63l13.3-17.1L201.1,204.1z"/>
		<linearGradient id="SVGID_14_" gradientUnits="userSpaceOnUse" x1="150.8602" y1="251.1217" x2="190.8819" y2="251.1217">
			<stop  offset="0" style="stop-color:#24000A"/>
			<stop  offset="1" style="stop-color:#050000"/>
		</linearGradient>
		<path class="st14" d="M150.9,303.9c16.9,0.7,25.9-6.8,37-13.2c8.8-5-4.5-26.4-0.9-63l0.2-8.8l-5.2-1.3c0,0-6.7-5.2-10.6-19.4
			c0,0,0.3,10.4,4.8,23.8s6.6,19.9,0.5,37.3s6.8,9.9,4.3,19.4C178.5,288.2,167.3,302.3,150.9,303.9z"/>
		<linearGradient id="SVGID_15_" gradientUnits="userSpaceOnUse" x1="91.7551" y1="210.8597" x2="116.9606" y2="210.8597">
			<stop  offset="0" style="stop-color:#24000A"/>
			<stop  offset="1" style="stop-color:#050000"/>
		</linearGradient>
		<path class="st15" d="M91.8,211.3c0,0,5.3,14.9,18.4,15.8l6.8-6c0,0-2.1-14,0-26.4c0,0-5.8,10.8-6.8,17
			C109.2,217.8,98.4,225.9,91.8,211.3z"/>
		<g>
			<linearGradient id="SVGID_16_" gradientUnits="userSpaceOnUse" x1="119.8646" y1="142.1873" x2="170.6799" y2="142.1873">
				<stop  offset="0" style="stop-color:#EAC29C"/>
				<stop  offset="1" style="stop-color:#DF9C74"/>
			</linearGradient>
			<path class="st16" d="M166.2,142.2c6.3-6.8,7.8-26.1-7.8-34.8c-1-0.6-2-1.3-2.9-2c-4.1-3.1-16.4-9.9-24.8,12.1
				c-10.2,26.7-13,26.4-9.2,31.9c3.8,5.4,12.4,6.6,8.5,20.6s9.4,19.7,23.4-1.5c0,0-3.3-10.8,1.1-16.7
				C158.8,145.8,162.5,146.2,166.2,142.2z"/>
			<linearGradient id="SVGID_17_" gradientUnits="userSpaceOnUse" x1="139.223" y1="124.7187" x2="178.7028" y2="124.7187">
				<stop  offset="0" style="stop-color:#1F3683"/>
				<stop  offset="1" style="stop-color:#162766"/>
			</linearGradient>
			<path class="st17" d="M140.7,103.4c0,0-2.7-2.6-0.8-6.1c0,0-0.1,2.1,0.4,2.5c0,0,1.6-8.7,16.1-6.6c0,0-1.8,0.7-2.4,2
				c0,0,5.6-1.8,12.3,2.5c0,0-2.6-0.2-3.7,1.2c0,0,5.5,0.3,9.2,3.5c0,0-3.7,0.6-5,3.8c0,0,0.4-0.5,1.4-0.5c0,0-1.4,3,0.8,5.4
				c2.2,2.4,14.7,10.2,7.3,31.2c0,0-0.4-0.9-1-1.5c0,0-1,3.7-8.1,5.4c-7,1.7-12,5.9-12.6,10.4c0,0-1.5-0.5-1.8-2.8
				c0,0,0.4-3.4,3.2-7.4c0,0,5.3-1.1,7.3-6.8c2-5.7-4.7-4.8-7.4-2.1c0,0-2.1-1.2-1.3-2.5c0.8-1.3,8.7-11.6,9.2-15.7
				c0.5-4.1-6.4-2.7-6.6-9c0,0-4.3,0.3-6.8-2.8c0,0-3.2-0.1-5.3-1.6S142.6,102.9,140.7,103.4z"/>
			<g class="st18">
				<linearGradient id="SVGID_18_" gradientUnits="userSpaceOnUse" x1="131.0271" y1="123.8852" x2="138.7817" y2="126.6932">
					<stop  offset="0" style="stop-color:#24000A"/>
					<stop  offset="1" style="stop-color:#050000"/>
				</linearGradient>
				<path class="st19" d="M130.8,133.6c-1.2-1.1-1.7-2.4-1.7-4.1c0-0.7,1.2-1.6,3.7-3.4c1.6-1.1,3.6-2.5,5.5-4.1
					c2.5-2.2,2.9-3.2,2.9-3.7c0-0.3-0.2-0.5-0.2-0.5l0,0c0,0,0.6,0.2,0.6,0.8c0.1,1.1-0.8,2.1-2.9,3.9c-1.9,1.6-3.9,3-5.6,4.2
					c-1.6,1.1-3.5,2.4-3.5,2.9C129.7,130.4,129.8,131.8,130.8,133.6L130.8,133.6z"/>
			</g>
			<g>
				<linearGradient id="SVGID_19_" gradientUnits="userSpaceOnUse" x1="144.8379" y1="120.3676" x2="154.6602" y2="123.9244">
					<stop  offset="0" style="stop-color:#24000A"/>
					<stop  offset="1" style="stop-color:#050000"/>
				</linearGradient>
				<path class="st20" d="M153.9,124.8c-0.2,0-0.4-0.1-0.5-0.4c0-0.1-0.8-2.2-3.7-1.9c-3.7,0.3-4.9-1.4-4.9-1.4
					c-0.2-0.3-0.1-0.6,0.1-0.8c0.2-0.2,0.6-0.1,0.8,0.1c0,0,1,1.2,3.9,1c3-0.2,4.5,1.6,4.8,2.7c0.1,0.3-0.1,0.6-0.3,0.7
					C154.1,124.8,154,124.8,153.9,124.8z"/>
			</g>
			<linearGradient id="SVGID_20_" gradientUnits="userSpaceOnUse" x1="152.4642" y1="145.4933" x2="156.0824" y2="146.8035">
				<stop  offset="0" style="stop-color:#24000A"/>
				<stop  offset="1" style="stop-color:#050000"/>
			</linearGradient>
			<path class="st21" d="M156.1,146.3c-0.3,0.2-0.6,0.3-0.9,0.3c-0.3,0.1-0.7,0-1,0c-0.7-0.1-1.3-0.4-1.7-1c0.3,0.1,0.6,0.2,0.9,0.3
				c0.3,0.1,0.6,0.2,0.9,0.2c0.3,0.1,0.6,0.1,0.9,0.1C155.5,146.3,155.8,146.3,156.1,146.3z"/>
			<linearGradient id="SVGID_21_" gradientUnits="userSpaceOnUse" x1="143.9766" y1="124.4156" x2="150.0055" y2="126.5987">
				<stop  offset="0" style="stop-color:#24000A"/>
				<stop  offset="1" style="stop-color:#050000"/>
			</linearGradient>
			<path class="st22" d="M143.6,125.4c0,0,4.4,0.2,6,2.2c0,0-0.2-0.9-0.7-1.4c0,0,0.9,0.1,1.2,0.3
				C150.1,126.5,148.5,123.1,143.6,125.4z"/>
			
				<linearGradient id="SVGID_22_" gradientUnits="userSpaceOnUse" x1="427.9126" y1="248.6874" x2="433.9415" y2="250.8706" gradientTransform="matrix(-0.6184 -0.675 -0.7373 0.6755 584.6018 241.8241)">
				<stop  offset="0" style="stop-color:#24000A"/>
				<stop  offset="1" style="stop-color:#050000"/>
			</linearGradient>
			<path class="st23" d="M136.1,121.9c0,0-2.9-2.8-5.3-2.6c0,0,0.8-0.5,1.5-0.5c0,0-0.6-0.5-1-0.6
				C131.4,118.3,134.8,117.1,136.1,121.9z"/>
			<g>
				<linearGradient id="SVGID_23_" gradientUnits="userSpaceOnUse" x1="132.0343" y1="114.124" x2="140.5586" y2="117.2107">
					<stop  offset="0" style="stop-color:#24000A"/>
					<stop  offset="1" style="stop-color:#050000"/>
				</linearGradient>
				<path class="st24" d="M139.1,118.1c-1.2,0-2.1-0.7-3.1-2.4c-1-1.7-3.1-1.2-3.2-1.2c-0.3,0.1-0.6-0.1-0.7-0.4
					c-0.1-0.3,0.1-0.6,0.4-0.7c0.1,0,2.9-0.6,4.4,1.7c1.2,2,2,2,2.9,1.7c0.3-0.1,0.6,0.1,0.7,0.4c0.1,0.3-0.1,0.6-0.4,0.7
					C139.7,118,139.4,118.1,139.1,118.1z"/>
			</g>
			<linearGradient id="SVGID_24_" gradientUnits="userSpaceOnUse" x1="157.9805" y1="106.7704" x2="160.7276" y2="107.7652">
				<stop  offset="0" style="stop-color:#24000A"/>
				<stop  offset="1" style="stop-color:#050000"/>
			</linearGradient>
			<path class="st25" d="M157.3,110.2c-0.1-1.3,0.2-2.7,1-3.8c0.4-0.5,0.9-1,1.5-1.3c0.3-0.2,0.6-0.3,0.9-0.4c0.3-0.1,0.6-0.2,1-0.2
				c-0.6,0.3-1.2,0.5-1.7,0.9c-0.5,0.4-1,0.8-1.3,1.3c-0.4,0.5-0.7,1.1-0.9,1.6C157.6,108.9,157.4,109.6,157.3,110.2z"/>
			<linearGradient id="SVGID_25_" gradientUnits="userSpaceOnUse" x1="150.7108" y1="103.6004" x2="152.8626" y2="104.3796">
				<stop  offset="0" style="stop-color:#24000A"/>
				<stop  offset="1" style="stop-color:#050000"/>
			</linearGradient>
			<path class="st26" d="M150.5,107.4c-0.4-1.3-0.3-2.7,0.4-3.9c0.3-0.6,0.8-1.2,1.3-1.6c0.3-0.2,0.6-0.4,0.9-0.5
				c0.3-0.1,0.6-0.3,0.9-0.4c-0.3,0.2-0.6,0.3-0.8,0.6c-0.3,0.2-0.5,0.4-0.7,0.6c-0.5,0.4-0.9,0.9-1.2,1.5c-0.3,0.6-0.5,1.2-0.6,1.8
				C150.5,106,150.5,106.7,150.5,107.4z"/>
			<linearGradient id="SVGID_26_" gradientUnits="userSpaceOnUse" x1="145.6693" y1="102.6132" x2="148.116" y2="103.4991">
				<stop  offset="0" style="stop-color:#24000A"/>
				<stop  offset="1" style="stop-color:#050000"/>
			</linearGradient>
			<path class="st27" d="M147.1,106.1c-0.4-0.4-0.7-0.9-0.9-1.4c-0.2-0.5-0.4-1.1-0.4-1.6c0-0.6,0.1-1.1,0.4-1.6
				c0.3-0.5,0.7-0.9,1.2-1.2c-0.3,0.4-0.7,0.8-0.9,1.3c-0.2,0.5-0.3,1-0.3,1.5c0,0.5,0.1,1,0.3,1.5
				C146.6,105.1,146.8,105.6,147.1,106.1z"/>
			<g>
				<path class="st13" d="M127,135.1c0,0,4.6,4.1,16.4,4.6c0,0,0.5,6.2-9.2,3.5C124.8,140.6,129.7,140.3,127,135.1z"/>
				<g>
					<path class="st28" d="M142.3,142c-0.3,0-0.7-0.1-1-0.1c-0.6-0.1-1.3-0.3-1.9-0.5c0.6,0.1,1.3,0.2,1.9,0.2c0.3,0,0.6,0,1,0
						c0.2,0,0.4,0,0.7-0.1c0.4-0.9,0.3-1.7,0.3-1.7c-11.7-0.5-16.4-4.6-16.4-4.6c0.7,1.3,0.9,2.3,1,3.1c0.4,0.3,0.8,0.5,1.2,0.8
						c0.5,0.3,1.1,0.5,1.7,0.6c-0.6,0-1.2-0.1-1.8-0.3c-0.4-0.1-0.7-0.3-1.1-0.4c0.1,1.9-0.2,2.6,6.1,4.4c5.5,1.5,7.7,0.2,8.6-1.2
						C142.6,142,142.5,142,142.3,142z"/>
					<path class="st29" d="M141.4,141.5c-0.6,0-1.3-0.1-1.9-0.2c0.6,0.2,1.2,0.4,1.9,0.5c0.3,0.1,0.7,0.1,1,0.1c0.1,0,0.2,0,0.4,0
						c0.1-0.2,0.2-0.4,0.3-0.6c-0.2,0-0.4,0.1-0.7,0.1C142,141.5,141.7,141.5,141.4,141.5z"/>
					<path class="st29" d="M130.9,139.5c-0.6-0.1-1.2-0.3-1.7-0.6c-0.4-0.2-0.8-0.5-1.2-0.8c0,0.2,0,0.5,0,0.7
						c0.3,0.2,0.7,0.3,1.1,0.4C129.6,139.4,130.3,139.5,130.9,139.5z"/>
				</g>
			</g>
		</g>
		<linearGradient id="SVGID_27_" gradientUnits="userSpaceOnUse" x1="182.0566" y1="229.088" x2="253.9471" y2="229.088">
			<stop  offset="0" style="stop-color:#EAC29C"/>
			<stop  offset="1" style="stop-color:#DF9C74"/>
		</linearGradient>
		<path class="st30" d="M182.1,217.7c0,0,15.8,36.4,28.1,36.4c12.3,0,40.8-26.7,40.8-26.7l3.1-18.2c0,0-12.6,5.7-20.5,7.8
			c-7.9,2.1-16.1,4.9-20.3,8.1c0,0-6.1-7.9-12.1-20.9C201.1,204.1,194.4,213.9,182.1,217.7z"/>
		<linearGradient id="SVGID_28_" gradientUnits="userSpaceOnUse" x1="47.4165" y1="186.3383" x2="51.1287" y2="186.3383">
			<stop  offset="0" style="stop-color:#EAC29C"/>
			<stop  offset="1" style="stop-color:#DF9C74"/>
		</linearGradient>
		<path class="st31" d="M47.5,188.8c-0.1-0.1-0.1-3.1,0.3-4.2c0.4-1.2,2.2-2.3,3.1,1.2C51.9,189.3,49.5,190,47.5,188.8z"/>
		<linearGradient id="SVGID_29_" gradientUnits="userSpaceOnUse" x1="85.8373" y1="224.1199" x2="92.851" y2="224.1199">
			<stop  offset="0" style="stop-color:#24000A"/>
			<stop  offset="1" style="stop-color:#050000"/>
		</linearGradient>
		<path class="st32" d="M85.8,220.1c1,0.1,1.9,0.4,2.8,0.8c0.9,0.4,1.7,1.1,2.3,1.8c0.6,0.8,1.2,1.6,1.4,2.6c0.2,0.5,0.2,1,0.3,1.4
			c0.1,0.2,0,0.5,0.1,0.7c0,0.2,0,0.5,0,0.7c-0.1-0.5-0.2-1-0.3-1.4c-0.1-0.5-0.2-0.9-0.4-1.4c-0.3-0.9-0.9-1.7-1.5-2.4
			c-0.6-0.7-1.4-1.3-2.2-1.8l-0.6-0.3c-0.2-0.1-0.4-0.2-0.7-0.3C86.8,220.3,86.3,220.2,85.8,220.1z"/>
		<linearGradient id="SVGID_30_" gradientUnits="userSpaceOnUse" x1="201.1251" y1="218.4852" x2="213.1799" y2="218.4852">
			<stop  offset="0" style="stop-color:#24000A"/>
			<stop  offset="1" style="stop-color:#050000"/>
		</linearGradient>
		<path class="st33" d="M201.1,204.1c5.9,13,12.1,20.9,12.1,20.9s-3.8,2.1-6.6,7.8C206.5,232.8,207.2,221.1,201.1,204.1z"/>
		<path class="st34" d="M155.9,141.6c0-0.2,0.1-0.3,0.2-0.4c0.2-0.2,0.4-0.4,0.7-0.6c0.4-0.3,1-0.6,1.3-0.9c0.1-0.2,0.2-0.4,0.1-0.5
			c-0.1-0.2-0.3-0.4-0.4-0.5l-0.2-0.2l0.2-0.2c0.2-0.2,0.5-0.4,0.8-0.5c0.3-0.1,0.6-0.1,1-0.1c0.3,0.1,0.6,0.2,0.9,0.4
			c0.3,0.2,0.5,0.4,0.7,0.6c-0.5-0.4-1-0.6-1.5-0.7c-0.3,0-0.5,0-0.8,0.1c-0.2,0.1-0.3,0.2-0.5,0.3c0.2,0.1,0.3,0.3,0.4,0.5
			c0.2,0.3,0,0.8-0.2,1c-0.2,0.2-0.5,0.4-0.7,0.5L157,141c-0.2,0.1-0.4,0.3-0.6,0.5c-0.2,0.2-0.3,0.4-0.2,0.6c0.2,0.4,0.7,0.7,1.2,1
			c-0.3-0.1-0.5-0.2-0.8-0.3c-0.2-0.1-0.5-0.3-0.6-0.6C155.9,142,155.9,141.8,155.9,141.6z"/>
	</g>
	<g>
		<g>
			<g>
				<linearGradient id="SVGID_31_" gradientUnits="userSpaceOnUse" x1="-3.285286e-02" y1="204.0493" x2="304.2329" y2="204.0493">
					<stop  offset="0" style="stop-color:#DBE8F9"/>
					<stop  offset="1" style="stop-color:#A8C8ED"/>
				</linearGradient>
				<path class="st35" d="M295.5,56.8l-173-56.2c-6.6-2.1-13.7,1.5-15.8,8.1L0.6,335.5c-2.1,6.6,1.5,13.7,8.1,15.8l173,56.2
					c6.6,2.1,13.7-1.5,15.8-8.1L303.6,72.6C305.8,66,302.1,58.9,295.5,56.8z M280,86.9l-93.2,287c-2.1,6.6-9.2,10.2-15.8,8.1
					L32.3,337c-6.6-2.1-10.2-9.2-8.1-15.8l93.2-287c2.1-6.6,9.2-10.2,15.8-8.1l138.7,45C278.5,73.2,282.1,80.3,280,86.9z"/>
				<g>
					<defs>
						<path id="SVGID_32_" d="M280,86.9l-93.2,287c-2.1,6.6-9.2,10.2-15.8,8.1L32.3,337c-6.6-2.1-10.2-9.2-8.1-15.8l93.2-287
							c2.1-6.6,9.2-10.2,15.8-8.1l138.7,45C278.5,73.2,282.1,80.3,280,86.9z"/>
					</defs>
					<clipPath id="SVGID_33_">
						<use xlink:href="#SVGID_32_"  style="overflow:visible;"/>
					</clipPath>
					
						<linearGradient id="SVGID_34_" gradientUnits="userSpaceOnUse" x1="159.0934" y1="-159.7116" x2="446.0723" y2="-245.1234" gradientTransform="matrix(0.8973 -0.4415 0.4415 0.8973 -27.9784 441.3901)">
						<stop  offset="0" style="stop-color:#84B3E4"/>
						<stop  offset="1" style="stop-color:#5796DA"/>
					</linearGradient>
					<path class="st36" d="M280,86.9c2.1-6.6-1.5-13.7-8.1-15.8l-73.5-23.9L97,97.2L63.9,199L277.8,93.7L280,86.9z"/>
					
						<linearGradient id="SVGID_35_" gradientUnits="userSpaceOnUse" x1="151.1156" y1="-113.309" x2="445.6322" y2="-200.9642" gradientTransform="matrix(0.8973 -0.4415 0.4415 0.8973 -27.9784 441.3901)">
						<stop  offset="0" style="stop-color:#84B3E4"/>
						<stop  offset="1" style="stop-color:#5796DA"/>
					</linearGradient>
					<polygon class="st37" points="266.2,147.7 283.1,95.4 55.1,207.6 40.6,252.2 43.2,257.5 					"/>
				</g>
			</g>
		</g>
		<g>
			<linearGradient id="SVGID_36_" gradientUnits="userSpaceOnUse" x1="38.4259" y1="201.2328" x2="56.3579" y2="201.2328">
				<stop  offset="0" style="stop-color:#EAC29C"/>
				<stop  offset="1" style="stop-color:#DF9C74"/>
			</linearGradient>
			<path class="st38" d="M46.8,186.3c-1.8,0.2-3.3,2.1-4,3.9c-0.5,1.4-2.6,5-3.6,6.6c-0.3,0.5-0.5,1-0.5,1.6
				c-1.1,17.3,0.5,17.8,0.5,17.8l5-15.4c7.5,1.1,7.7-1.8,7.7-1.8c2.3-0.2,1.4-2.1,1.4-2.1s1,0.5,2.4-0.3c1.5-0.8-1.8-3.4-1.8-3.4
				c1.2,0.1,2.6-0.2,2.3-0.9c-0.3-0.6-2.1-3.8-3.5-5.5c-0.3-0.3-0.6-0.5-1-0.5H46.8z"/>
			<g class="st18">
				<linearGradient id="SVGID_37_" gradientUnits="userSpaceOnUse" x1="46.0528" y1="191.2251" x2="54.1661" y2="191.2251">
					<stop  offset="0" style="stop-color:#24000A"/>
					<stop  offset="1" style="stop-color:#050000"/>
				</linearGradient>
				<path class="st39" d="M54,193.1c-0.6-0.4-1.3-0.9-1.8-1.5c-0.3-0.3-0.6-0.6-0.8-0.9c-0.2-0.3-0.5-0.6-0.8-0.7
					c-0.6-0.3-1.4-0.4-2.1-0.3c-0.8,0.1-1.5,0.2-2.3,0.3c0.7-0.3,1.5-0.6,2.3-0.7c0.8-0.1,1.6-0.2,2.4,0.3c0.4,0.2,0.7,0.5,0.9,0.8
					c0.2,0.3,0.5,0.6,0.7,0.9L54,193.1z"/>
				<linearGradient id="SVGID_38_" gradientUnits="userSpaceOnUse" x1="44.9778" y1="195.4242" x2="53.5375" y2="195.4242">
					<stop  offset="0" style="stop-color:#24000A"/>
					<stop  offset="1" style="stop-color:#050000"/>
				</linearGradient>
				<path class="st40" d="M53.4,196.8c-0.7-0.4-1.3-0.7-2-1.1c-0.7-0.4-1.3-0.8-2-1.1c-0.6-0.3-1.4-0.2-2.1-0.2
					c-0.7,0-1.5,0.1-2.3,0c0.8-0.1,1.5-0.3,2.3-0.4c0.8-0.1,1.6-0.2,2.4,0.1c0.7,0.3,1.4,0.8,2,1.2
					C52.2,195.9,52.8,196.3,53.4,196.8z"/>
				<linearGradient id="SVGID_39_" gradientUnits="userSpaceOnUse" x1="43.6651" y1="198.3518" x2="52.1217" y2="198.3518">
					<stop  offset="0" style="stop-color:#24000A"/>
					<stop  offset="1" style="stop-color:#050000"/>
				</linearGradient>
				<path class="st41" d="M52,199c-0.7-0.3-1.3-0.4-2-0.6c-0.3-0.1-0.7-0.1-1-0.1l-1.1,0c-1.4-0.1-2.8-0.2-4.2-0.6
					c1.4-0.1,2.8,0,4.2,0.1c0.4,0,0.7,0,1.1,0c0.4,0,0.7,0.1,1.1,0.2C50.8,198.2,51.4,198.6,52,199z"/>
			</g>
		</g>
		<g>
			<linearGradient id="SVGID_40_" gradientUnits="userSpaceOnUse" x1="254.4622" y1="203.207" x2="277.877" y2="203.207">
				<stop  offset="0" style="stop-color:#EAC29C"/>
				<stop  offset="1" style="stop-color:#DF9C74"/>
			</linearGradient>
			<path class="st42" d="M254.5,224c0,0,8.8-10.3,11.9-12.6c3.1-2.3,8.4-14.5,9.4-15.5c1-1,3.6-3.9,1-6.2c-2.6-2.3-6.8-7.9-10.6-7.2
				c-3.8,0.7-7.7,2-5.9,3.5c0,0-4.1,0.8-1.7,3.2c0,0-2,0.9,1.2,3c0,0-1.3-0.3-0.6,1.2s2.2,4.7,3.6,5.1L254.5,224z"/>
			<linearGradient id="SVGID_41_" gradientUnits="userSpaceOnUse" x1="268.4064" y1="198.677" x2="275.1888" y2="198.677">
				<stop  offset="0" style="stop-color:#24000A"/>
				<stop  offset="1" style="stop-color:#050000"/>
			</linearGradient>
			<path class="st43" d="M275,195.9c-0.1,0.3-0.3,0.7-0.6,0.9c-0.1,0.1-0.3,0.3-0.4,0.4c-0.2,0.1-0.3,0.2-0.4,0.3
				c-0.3,0.2-0.5,0.5-0.8,0.8c-0.3,0.3-0.6,0.5-1,0.6c-0.2,0.1-0.4,0.1-0.5,0.2c-0.1,0-0.3,0.1-0.4,0.2c-0.3,0.2-0.5,0.5-0.7,0.7
				c-0.2,0.3-0.4,0.6-0.7,0.9c-0.3,0.3-0.6,0.5-1,0.6c0.7-0.4,1-1,1.4-1.6c0.2-0.3,0.4-0.6,0.7-0.9c0.2-0.1,0.3-0.2,0.5-0.3
				c0.2-0.1,0.3-0.1,0.5-0.2c0.3-0.1,0.6-0.3,0.9-0.5c0.3-0.2,0.5-0.5,0.8-0.7c0.2-0.1,0.4-0.2,0.5-0.3c0.2-0.1,0.3-0.2,0.4-0.3
				C274.6,196.5,274.8,196.2,275,195.9z"/>
			<g class="st18">
				<linearGradient id="SVGID_42_" gradientUnits="userSpaceOnUse" x1="260.2476" y1="187.7212" x2="272.9776" y2="187.7212">
					<stop  offset="0" style="stop-color:#24000A"/>
					<stop  offset="1" style="stop-color:#050000"/>
				</linearGradient>
				<path class="st44" d="M260.3,186c0.6-0.2,1.1-0.3,1.7-0.4c0.6-0.1,1.2-0.1,1.8-0.2c1.2,0,2.4,0.1,3.5,0.5
					c0.6,0.2,1.1,0.5,1.6,0.8c0.5,0.3,1,0.6,1.5,1c0.5,0.4,0.9,0.8,1.3,1.2c0.2,0.2,0.4,0.4,0.6,0.7c0.2,0.2,0.4,0.5,0.7,0.5
					c-0.3,0-0.5-0.2-0.8-0.4c-0.2-0.2-0.4-0.4-0.7-0.6c-0.4-0.4-0.9-0.7-1.4-1.1c-0.5-0.3-1-0.6-1.5-0.9c-0.5-0.3-1-0.5-1.5-0.7
					c-1.1-0.4-2.2-0.5-3.4-0.6C262.6,185.7,261.5,185.8,260.3,186z"/>
				<linearGradient id="SVGID_43_" gradientUnits="userSpaceOnUse" x1="258.6228" y1="191.6541" x2="269.7226" y2="191.6541">
					<stop  offset="0" style="stop-color:#24000A"/>
					<stop  offset="1" style="stop-color:#050000"/>
				</linearGradient>
				<path class="st45" d="M258.6,189.2c1.1-0.1,2.1-0.1,3.2,0c1.1,0.1,2.1,0.3,3.1,0.7c0.5,0.2,1,0.5,1.4,0.8
					c0.4,0.4,0.8,0.7,1.1,1.1l1.1,1.2c0.3,0.4,0.7,0.8,1,1.2c-0.4-0.3-0.8-0.7-1.2-1l-1.2-1.1c-0.4-0.4-0.8-0.7-1.1-1
					c-0.4-0.3-0.9-0.5-1.3-0.7c-1-0.4-2-0.6-3-0.8c-0.5-0.1-1-0.2-1.6-0.2C259.7,189.2,259.1,189.2,258.6,189.2z"/>
				<linearGradient id="SVGID_44_" gradientUnits="userSpaceOnUse" x1="259.6428" y1="194.3848" x2="266.2417" y2="194.3848">
					<stop  offset="0" style="stop-color:#24000A"/>
					<stop  offset="1" style="stop-color:#050000"/>
				</linearGradient>
				<path class="st46" d="M259.8,192.2c1.1,0.7,2.1,1.5,3.1,2.3c0.5,0.4,1,0.8,1.6,1.1c0.5,0.4,1.1,0.7,1.7,1
					c-0.6-0.1-1.3-0.4-1.8-0.7c-0.6-0.3-1.1-0.7-1.7-1.1C261.6,194,260.6,193.2,259.8,192.2z"/>
			</g>
		</g>
	</g>
</g>
</svg>
