<?xml version="1.0" encoding="UTF-8"?>
<svg width="385px" height="383px" viewBox="0 0 385 383" version="1.1" xmlns="http://www.w3.org/2000/svg" xmlns:xlink="http://www.w3.org/1999/xlink">
    <!-- Generator: Sketch 49.1 (51147) - http://www.bohemiancoding.com/sketch -->
    <title>grafismo</title>
    <desc>Created with Sketch.</desc>
    <defs>
        <linearGradient x1="95.2403073%" y1="-27.7193006%" x2="21.499245%" y2="90.1388141%" id="linearGradient-1">
            <stop stop-color="#9B38DC" offset="0%"></stop>
            <stop stop-color="#4D007D" offset="100%"></stop>
        </linearGradient>
        <polygon id="path-2" points="0 0.039476874 111.959287 0.039476874 111.959287 112 0 112"></polygon>
    </defs>
    <g id="Page-2" stroke="none" stroke-width="1" fill="none" fill-rule="evenodd">
        <g id="grafismo">
            <path d="M385,102.144742 C385,107.585537 380.59172,112 375.150925,112 L282.855258,112 C277.414463,112 273,107.585537 273,102.144742 L273,9.84289263 C273,4.40209771 277.414463,0 282.855258,0 L375.150925,0 C380.59172,0 385,4.40209771 385,9.84289263 L385,102.144742 Z" id="Fill-1" fill="url(#linearGradient-1)"></path>
            <path d="M247,237.150925 C247,242.59172 242.59172,247 237.150925,247 L144.855258,247 C139.414463,247 135,242.59172 135,237.150925 L135,144.849075 C135,139.40828 139.414463,135 144.855258,135 L237.150925,135 C242.59172,135 247,139.40828 247,144.849075 L247,237.150925 Z" id="Fill-3" fill="url(#linearGradient-1)"></path>
            <path d="M385,237.150925 C385,242.59172 380.59172,247 375.150925,247 L282.855258,247 C277.414463,247 273,242.59172 273,237.150925 L273,144.849075 C273,139.40828 277.414463,135 282.855258,135 L375.150925,135 C380.59172,135 385,139.40828 385,144.849075 L385,237.150925 Z" id="Fill-5" fill="url(#linearGradient-1)"></path>
            <g id="Group-9" transform="translate(0.000000, 271.000000)">
                <mask id="mask-3" fill="white">
                    <use xlink:href="#path-2"></use>
                </mask>
                <g id="Clip-8"></g>
                <path d="M111.959287,102.148216 C111.959287,107.593273 107.55256,112 102.113683,112 L9.85054826,112 C4.41167107,112 -0.00123610845,107.593273 -0.00123610845,102.148216 L-0.00123610845,9.8850807 C-0.00123610845,4.44620351 4.41167107,0.039476874 9.85054826,0.039476874 L102.113683,0.039476874 C107.55256,0.039476874 111.959287,4.44620351 111.959287,9.8850807 L111.959287,102.148216 Z" id="Fill-7" fill="url(#linearGradient-1)" mask="url(#mask-3)"></path>
            </g>
            <path d="M247,373.144742 C247,378.59172 242.59172,383 237.150925,383 L144.855258,383 C139.414463,383 135,378.59172 135,373.144742 L135,280.849075 C135,275.40828 139.414463,271 144.855258,271 L237.150925,271 C242.59172,271 247,275.40828 247,280.849075 L247,373.144742 Z" id="Fill-10" fill="url(#linearGradient-1)"></path>
            <path d="M385,373.144742 C385,378.59172 380.59172,383 375.150925,383 L282.855258,383 C277.414463,383 273,378.59172 273,373.144742 L273,280.849075 C273,275.40828 277.414463,271 282.855258,271 L375.150925,271 C380.59172,271 385,275.40828 385,280.849075 L385,373.144742 Z" id="Fill-12" fill="url(#linearGradient-1)"></path>
        </g>
    </g>
</svg>