<svg id="Layer_1" data-name="Layer 1" xmlns="http://www.w3.org/2000/svg" xmlns:xlink="http://www.w3.org/1999/xlink" viewBox="0 0 383 385"><defs><style>.cls-1{fill:#fff;}.cls-1,.cls-2,.cls-3,.cls-4,.cls-6,.cls-7,.cls-8{fill-rule:evenodd;}.cls-2{fill:url(#linear-gradient);}.cls-3{fill:url(#linear-gradient-2);}.cls-4{fill:url(#linear-gradient-3);}.cls-5{mask:url(#mask);}.cls-6{fill:url(#linear-gradient-4);}.cls-7{fill:url(#linear-gradient-5);}.cls-8{fill:url(#linear-gradient-6);}</style><linearGradient id="linear-gradient" x1="-484.65" y1="574.55" x2="-485.39" y2="573.37" gradientTransform="matrix(0, -112, -112, 0, 64321, -54279)" gradientUnits="userSpaceOnUse"><stop offset="0" stop-color="#9b38dc"/><stop offset="1" stop-color="#4d007d"/></linearGradient><linearGradient id="linear-gradient-2" x1="-484.65" y1="574.55" x2="-485.39" y2="573.37" gradientTransform="matrix(0, -112, -112, 0, 64456, -54141)" xlink:href="#linear-gradient"/><linearGradient id="linear-gradient-3" x1="-484.65" y1="574.55" x2="-485.39" y2="573.37" gradientTransform="matrix(0, -112, -112, 0, 64456, -54279)" xlink:href="#linear-gradient"/><mask id="mask" x="271.04" y="273.04" width="111.96" height="111.96" maskUnits="userSpaceOnUse"><g transform="translate(-1 1)"><g id="mask-3"><polygon id="path-2" class="cls-1" points="272.04 384 272.04 272.04 384 272.04 384 384 272.04 384"/></g></g></mask><linearGradient id="linear-gradient-4" x1="-484.65" y1="574.55" x2="-485.38" y2="573.37" gradientTransform="matrix(0, -111.96, -111.96, 0, 64569.3, -53986.66)" xlink:href="#linear-gradient"/><linearGradient id="linear-gradient-5" x1="-484.65" y1="574.55" x2="-485.39" y2="573.37" gradientTransform="matrix(0, -112, -112, 0, 64592, -54141)" xlink:href="#linear-gradient"/><linearGradient id="linear-gradient-6" x1="-484.65" y1="574.55" x2="-485.39" y2="573.37" gradientTransform="matrix(0, -112, -112, 0, 64592, -54279)" xlink:href="#linear-gradient"/></defs><title>boxes-1</title><g id="Page-2"><g id="grafismo"><path id="Fill-1" class="cls-2" d="M103.14-1A9.86,9.86,0,0,1,113,8.85v92.29a9.87,9.87,0,0,1-9.86,9.86H10.84A9.85,9.85,0,0,1,1,101.14V8.85A9.84,9.84,0,0,1,10.84-1Z" transform="translate(-1 1)"/><path id="Fill-3" class="cls-3" d="M238.15,137a9.85,9.85,0,0,1,9.85,9.85v92.29a9.86,9.86,0,0,1-9.85,9.86h-92.3a9.86,9.86,0,0,1-9.85-9.86V146.85a9.85,9.85,0,0,1,9.85-9.85Z" transform="translate(-1 1)"/><path id="Fill-5" class="cls-4" d="M238.15-1A9.85,9.85,0,0,1,248,8.85v92.29a9.86,9.86,0,0,1-9.85,9.86h-92.3a9.86,9.86,0,0,1-9.85-9.86V8.85A9.85,9.85,0,0,1,145.85-1Z" transform="translate(-1 1)"/><g id="Group-9"><g class="cls-5"><path id="Fill-7" class="cls-6" d="M374.15,272a9.85,9.85,0,0,1,9.85,9.85v92.26a9.85,9.85,0,0,1-9.85,9.85H281.88a9.85,9.85,0,0,1-9.84-9.85V281.89a9.85,9.85,0,0,1,9.84-9.85Z" transform="translate(-1 1)"/></g></g><path id="Fill-10" class="cls-7" d="M374.14,137a9.85,9.85,0,0,1,9.86,9.85v92.29a9.86,9.86,0,0,1-9.86,9.86H281.85a9.86,9.86,0,0,1-9.85-9.86V146.85a9.85,9.85,0,0,1,9.85-9.85Z" transform="translate(-1 1)"/><path id="Fill-12" class="cls-8" d="M374.14-1A9.85,9.85,0,0,1,384,8.85v92.29a9.86,9.86,0,0,1-9.86,9.86H281.85a9.86,9.86,0,0,1-9.85-9.86V8.85A9.85,9.85,0,0,1,281.85-1Z" transform="translate(-1 1)"/></g></g></svg>