<svg id="Layer_1" data-name="Layer 1" xmlns="http://www.w3.org/2000/svg" xmlns:xlink="http://www.w3.org/1999/xlink" viewBox="0 0 383 385"><defs><style>.cls-1{fill:#fff;}.cls-1,.cls-2,.cls-3,.cls-4,.cls-6,.cls-7,.cls-8{fill-rule:evenodd;}.cls-2{fill:url(#linear-gradient);}.cls-3{fill:url(#linear-gradient-2);}.cls-4{fill:url(#linear-gradient-3);}.cls-5{mask:url(#mask);}.cls-6{fill:url(#linear-gradient-4);}.cls-7{fill:url(#linear-gradient-5);}.cls-8{fill:url(#linear-gradient-6);}</style><linearGradient id="linear-gradient" x1="-484.65" y1="574.55" x2="-485.39" y2="573.37" gradientTransform="matrix(0, 112, 112, 0, -63936, 54662)" gradientUnits="userSpaceOnUse"><stop offset="0" stop-color="#9b38dc"/><stop offset="1" stop-color="#4d007d"/></linearGradient><linearGradient id="linear-gradient-2" x1="-484.65" y1="574.55" x2="-485.39" y2="573.37" gradientTransform="matrix(0, 112, 112, 0, -64071, 54524)" xlink:href="#linear-gradient"/><linearGradient id="linear-gradient-3" x1="-484.65" y1="574.55" x2="-485.39" y2="573.37" gradientTransform="matrix(0, 112, 112, 0, -64071, 54662)" xlink:href="#linear-gradient"/><mask id="mask" x="0" y="0" width="111.96" height="111.96" maskUnits="userSpaceOnUse"><g transform="translate(-1 1)"><g id="mask-3"><polygon id="path-2" class="cls-1" points="112.96 -1 112.96 110.96 1 110.96 1 -1 112.96 -1"/></g></g></mask><linearGradient id="linear-gradient-4" x1="-484.65" y1="574.55" x2="-485.38" y2="573.37" gradientTransform="matrix(0, 111.96, 111.96, 0, -64184.3, 54369.66)" xlink:href="#linear-gradient"/><linearGradient id="linear-gradient-5" x1="-484.65" y1="574.55" x2="-485.39" y2="573.37" gradientTransform="matrix(0, 112, 112, 0, -64207, 54524)" xlink:href="#linear-gradient"/><linearGradient id="linear-gradient-6" x1="-484.65" y1="574.55" x2="-485.39" y2="573.37" gradientTransform="matrix(0, 112, 112, 0, -64207, 54662)" xlink:href="#linear-gradient"/></defs><title>boxes-2</title><g id="Page-2"><g id="grafismo"><path id="Fill-1" class="cls-2" d="M281.85,384a9.85,9.85,0,0,1-9.85-9.85V281.86a9.85,9.85,0,0,1,9.85-9.86h92.31a9.84,9.84,0,0,1,9.84,9.86v92.29a9.84,9.84,0,0,1-9.84,9.85Z" transform="translate(-1 1)"/><path id="Fill-3" class="cls-3" d="M146.85,246a9.85,9.85,0,0,1-9.85-9.85V143.86a9.85,9.85,0,0,1,9.85-9.86h92.3a9.85,9.85,0,0,1,9.85,9.86v92.29a9.85,9.85,0,0,1-9.85,9.85Z" transform="translate(-1 1)"/><path id="Fill-5" class="cls-4" d="M146.85,384a9.85,9.85,0,0,1-9.85-9.85V281.86a9.85,9.85,0,0,1,9.85-9.86h92.3a9.85,9.85,0,0,1,9.85,9.86v92.29a9.85,9.85,0,0,1-9.85,9.85Z" transform="translate(-1 1)"/><g id="Group-9"><g class="cls-5"><path id="Fill-7" class="cls-6" d="M10.85,111A9.85,9.85,0,0,1,1,101.11V8.85A9.85,9.85,0,0,1,10.85-1h92.26A9.85,9.85,0,0,1,113,8.85v92.26a9.85,9.85,0,0,1-9.85,9.85Z" transform="translate(-1 1)"/></g></g><path id="Fill-10" class="cls-7" d="M10.85,246A9.85,9.85,0,0,1,1,236.15V143.86A9.85,9.85,0,0,1,10.85,134h92.3a9.85,9.85,0,0,1,9.85,9.86v92.29a9.85,9.85,0,0,1-9.85,9.85Z" transform="translate(-1 1)"/><path id="Fill-12" class="cls-8" d="M10.85,384A9.85,9.85,0,0,1,1,374.15V281.86A9.85,9.85,0,0,1,10.85,272h92.3a9.85,9.85,0,0,1,9.85,9.86v92.29a9.85,9.85,0,0,1-9.85,9.85Z" transform="translate(-1 1)"/></g></g></svg>