<?xml version="1.0" encoding="utf-8"?>
<!-- Generator: Adobe Illustrator 22.1.0, SVG Export Plug-In . SVG Version: 6.00 Build 0)  -->
<svg version="1.1" id="Capa_1" xmlns="http://www.w3.org/2000/svg" xmlns:xlink="http://www.w3.org/1999/xlink" x="0px" y="0px"
	 viewBox="0 0 1080 1080" style="enable-background:new 0 0 1080 1080;" xml:space="preserve">
<style type="text/css">
	.st0{opacity:0.77;}
	.st1{fill:url(#SVGID_1_);}
	.st2{fill:url(#SVGID_2_);}
	.st3{fill:url(#SVGID_3_);}
	.st4{fill:url(#SVGID_4_);}
	.st5{fill:url(#SVGID_5_);}
	.st6{fill:url(#SVGID_6_);}
	.st7{fill:url(#SVGID_7_);}
	.st8{fill:url(#SVGID_8_);}
	.st9{fill:url(#SVGID_9_);}
	.st10{fill:url(#SVGID_10_);}
	.st11{fill:url(#SVGID_11_);}
	.st12{fill:url(#SVGID_12_);}
	.st13{fill:url(#SVGID_13_);}
	.st14{fill:url(#SVGID_14_);}
	.st15{fill:url(#SVGID_15_);}
	.st16{fill:url(#SVGID_16_);}
	.st17{fill:url(#SVGID_17_);}
	.st18{fill:url(#SVGID_18_);}
	.st19{fill:url(#SVGID_19_);}
	.st20{opacity:0.21;fill:#13003A;}
	.st21{fill:url(#SVGID_20_);}
	.st22{fill:url(#SVGID_21_);}
	.st23{fill:url(#SVGID_22_);}
	.st24{fill:url(#SVGID_23_);}
	.st25{fill:url(#SVGID_24_);}
	.st26{opacity:7.000000e-02;fill:#13003A;}
	.st27{fill:url(#SVGID_25_);}
	.st28{fill:url(#SVGID_26_);}
	.st29{fill:#86535E;}
	.st30{fill:url(#SVGID_27_);}
	.st31{fill:url(#SVGID_28_);}
	.st32{fill:url(#SVGID_29_);}
	.st33{fill:url(#SVGID_30_);}
	.st34{fill:url(#SVGID_31_);}
	.st35{fill:url(#SVGID_32_);}
	.st36{fill:url(#SVGID_33_);}
	.st37{fill:url(#SVGID_34_);}
	.st38{fill:url(#SVGID_35_);}
	.st39{fill:url(#SVGID_36_);}
	.st40{fill:#FFFFFF;}
	.st41{opacity:0.15;fill:#0F0038;}
</style>
<g>
	<g class="st0">
		
			<linearGradient id="SVGID_1_" gradientUnits="userSpaceOnUse" x1="59.3901" y1="1397.8887" x2="79.3088" y2="1281.8502" gradientTransform="matrix(0.9834 0.1812 -0.1812 0.9834 500.2636 -656.9407)">
			<stop  offset="0" style="stop-color:#E9E9EB"/>
			<stop  offset="1" style="stop-color:#BDBEC3"/>
		</linearGradient>
		<path class="st1" d="M307.4,663c0,0-29.1,33.4-52.6,48.4s-7.6,58.5,42.8,48.9c0,0,15.4,16.8,33.2,5.7c0,0,24,6.7,29.9-20.6
			s1.5-47,1.5-47s14.2-90.7,25-122.9l-23.6-15.1L307.4,663z"/>
		
			<linearGradient id="SVGID_2_" gradientUnits="userSpaceOnUse" x1="142.7219" y1="1377.1589" x2="100.0665" y2="1287.4102" gradientTransform="matrix(0.9834 0.1812 -0.1812 0.9834 500.2636 -656.9407)">
			<stop  offset="0" style="stop-color:#E9E9EB"/>
			<stop  offset="1" style="stop-color:#BDBEC3"/>
		</linearGradient>
		<path class="st2" d="M387.1,575.5c0,0-19.3,72.6,10.2,93.3s19.4,75.4-32.8,56c0,0-19.9-9.4-13.9-41.6"/>
		
			<linearGradient id="SVGID_3_" gradientUnits="userSpaceOnUse" x1="-9.260114e-02" y1="1317.6417" x2="88.8081" y2="1283.7787" gradientTransform="matrix(0.9834 0.1812 -0.1812 0.9834 500.2636 -656.9407)">
			<stop  offset="0" style="stop-color:#E9E9EB"/>
			<stop  offset="1" style="stop-color:#BDBEC3"/>
		</linearGradient>
		<path class="st3" d="M329.2,667.1c-10.3,12.1-14.2,28-53.7,22.8c-39.6-5.2-35.8-65,19.2-74.7s68.7-53.3,68.7-53.3"/>
	</g>
	
		<linearGradient id="SVGID_4_" gradientUnits="userSpaceOnUse" x1="-39.4184" y1="1729.9019" x2="6.819" y2="1729.9019" gradientTransform="matrix(0.9502 0.3116 -0.3116 0.9502 934.5049 -1085.2025)">
		<stop  offset="0" style="stop-color:#E9E9EB"/>
		<stop  offset="1" style="stop-color:#BDBEC3"/>
	</linearGradient>
	<path class="st4" d="M378.7,577.2l-11.8-3.9c-8.9-2.9-13.7-12.5-10.8-21.3l9-27.5l43.9,14.4l-9,27.5
		C397.1,575.3,387.5,580.1,378.7,577.2z"/>
	
		<linearGradient id="SVGID_5_" gradientUnits="userSpaceOnUse" x1="-46.0564" y1="1710.5786" x2="15.9599" y2="1710.5786" gradientTransform="matrix(0.9502 0.3116 -0.3116 0.9502 934.5049 -1085.2025)">
		<stop  offset="0" style="stop-color:#E9E9EB"/>
		<stop  offset="1" style="stop-color:#BDBEC3"/>
	</linearGradient>
	<path class="st5" d="M395.5,562.4l-31-10.2c-7.7-2.5-11.9-10.8-9.4-18.5l9.7-29.6l58.9,19.3L414,553
		C411.5,560.7,403.2,564.9,395.5,562.4z"/>
	<linearGradient id="SVGID_6_" gradientUnits="userSpaceOnUse" x1="338.2299" y1="395.7142" x2="551.2451" y2="395.7142">
		<stop  offset="0" style="stop-color:#DEE7F9"/>
		<stop  offset="1" style="stop-color:#AFC6ED"/>
	</linearGradient>
	<path class="st6" d="M551.2,248.9l-68.7,4.3c-31.8,2-59.8,21.7-72.4,51l-18.5,43.2l-6.8,15.9l-18.6,39.6c0,0-32.3,1.1-27.5,96.8
		c0,0,23.9,45.1,84.2,42.9S551.2,248.9,551.2,248.9z"/>
	<linearGradient id="SVGID_7_" gradientUnits="userSpaceOnUse" x1="384.7993" y1="371.8817" x2="442.9395" y2="371.8817">
		<stop  offset="0" style="stop-color:#A10700"/>
		<stop  offset="1" style="stop-color:#721018"/>
	</linearGradient>
	<path class="st7" d="M384.8,363.1l6.8-15.9c0,0,15.8,31.8,51.3,34.7l-8.1,14.5C434.9,396.5,403.7,395.6,384.8,363.1z"/>
	<g>
		<g>
			<linearGradient id="SVGID_8_" gradientUnits="userSpaceOnUse" x1="551.2451" y1="542.4955" x2="595.6539" y2="542.4955">
				<stop  offset="0" style="stop-color:#DEE7F9"/>
				<stop  offset="1" style="stop-color:#AFC6ED"/>
			</linearGradient>
			<path class="st8" d="M573.6,555.5c-0.9,0-1.9-0.1-2.8-0.3c-5.5-1.1-10.7-5.7-14.8-13.4c-3.1-5.7-4.6-11-4.7-11.2
				c-0.1-0.5,0.1-1,0.6-1.1c0.5-0.1,1,0.1,1.1,0.6c0.1,0.2,5.9,20.8,18.1,23.3c6.9,1.4,14.6-3.2,22.9-13.7c0.3-0.4,0.9-0.4,1.2-0.1
				c0.4,0.3,0.4,0.9,0.1,1.2C587.7,550.6,580.4,555.5,573.6,555.5z"/>
		</g>
		<g>
			<linearGradient id="SVGID_9_" gradientUnits="userSpaceOnUse" x1="547.5174" y1="524.8094" x2="593.292" y2="524.8094">
				<stop  offset="0" style="stop-color:#DEE7F9"/>
				<stop  offset="1" style="stop-color:#AFC6ED"/>
			</linearGradient>
			<path class="st9" d="M564.3,536.5c-9.3,0-16.1-5.2-16.4-5.4c-0.4-0.3-0.5-0.9-0.2-1.2c0.3-0.4,0.9-0.5,1.2-0.2
				c0.1,0.1,9.2,6.9,20.2,4.5c8.6-1.9,16.2-8.8,22.4-20.6c0.2-0.4,0.8-0.6,1.2-0.4c0.4,0.2,0.6,0.8,0.4,1.2
				c-6.5,12.3-14.5,19.5-23.7,21.5C567.7,536.3,566,536.5,564.3,536.5z"/>
		</g>
		
			<linearGradient id="SVGID_10_" gradientUnits="userSpaceOnUse" x1="166.5012" y1="1874.7756" x2="172.0383" y2="1874.7756" gradientTransform="matrix(0.9347 0.3553 -0.3553 0.9347 1101.2439 -1301.6976)">
			<stop  offset="0" style="stop-color:#E9E9EB"/>
			<stop  offset="1" style="stop-color:#BDBEC3"/>
		</linearGradient>
		<path class="st10" d="M591.3,516L591.3,516c-1.4-0.5-2.1-2.1-1.6-3.6l1.9-5.1c0.5-1.4,2.1-2.1,3.6-1.6l0,0
			c1.4,0.5,2.1,2.1,1.6,3.6l-1.9,5.1C594.4,515.8,592.8,516.5,591.3,516z"/>
		
			<linearGradient id="SVGID_11_" gradientUnits="userSpaceOnUse" x1="231.3923" y1="3168.5149" x2="236.9295" y2="3168.5149" gradientTransform="matrix(0.7736 0.6336 -0.6336 0.7736 2423.6428 -2062.2656)">
			<stop  offset="0" style="stop-color:#E9E9EB"/>
			<stop  offset="1" style="stop-color:#BDBEC3"/>
		</linearGradient>
		<path class="st11" d="M593.6,541.6L593.6,541.6c-1.2-1-1.4-2.7-0.4-3.9l3.4-4.2c1-1.2,2.7-1.4,3.9-0.4l0,0c1.2,1,1.4,2.7,0.4,3.9
			l-3.4,4.2C596.5,542.4,594.8,542.6,593.6,541.6z"/>
	</g>
	<g>
		<g>
			
				<linearGradient id="SVGID_12_" gradientUnits="userSpaceOnUse" x1="7823.7368" y1="2913.8413" x2="7882.7993" y2="2913.8413" gradientTransform="matrix(-0.7883 -0.6153 -0.6153 0.7883 8288.5791 3412.9299)">
				<stop  offset="0" style="stop-color:#DDE6F8"/>
				<stop  offset="1" style="stop-color:#AEC5EC"/>
			</linearGradient>
			<path class="st12" d="M337.2,857.9c0,0,3.9,44.8-44.6,69.9c0,0-9.6-57,6.3-90.4c0,0,23.6-7.1,28.5-2.3
				C332.4,839.9,337.2,857.9,337.2,857.9z"/>
			
				<linearGradient id="SVGID_13_" gradientUnits="userSpaceOnUse" x1="7822.8604" y1="2857.5715" x2="7862.4692" y2="2857.5715" gradientTransform="matrix(-0.7883 -0.6153 -0.6153 0.7883 8288.5791 3412.9299)">
				<stop  offset="0" style="stop-color:#D2967B"/>
				<stop  offset="1" style="stop-color:#A46851"/>
			</linearGradient>
			<path class="st13" d="M368.9,845.2l-31.7,12.7c0,0-14.3-7.6-11.8-21.4l28.2-19.5L368.9,845.2z"/>
			<g>
				
					<linearGradient id="SVGID_14_" gradientUnits="userSpaceOnUse" x1="7826.9062" y1="2913.8789" x2="7878.3965" y2="2913.8789" gradientTransform="matrix(-0.7883 -0.6153 -0.6153 0.7883 8288.5791 3412.9299)">
					<stop  offset="0" style="stop-color:#293681"/>
					<stop  offset="1" style="stop-color:#202A66"/>
				</linearGradient>
				<path class="st14" d="M303.4,921.4l2.1-1.5c-7.1-43.4,2.8-84.4,2.9-84.8l-2.4,0.5C305.9,835.9,296.2,877.5,303.4,921.4z"/>
			</g>
		</g>
		<g>
			
				<linearGradient id="SVGID_15_" gradientUnits="userSpaceOnUse" x1="7370.6646" y1="548.8691" x2="7430.5864" y2="548.8691" gradientTransform="matrix(-0.9987 -5.039252e-02 -5.039252e-02 0.9987 7861.7266 801.2058)">
				<stop  offset="0" style="stop-color:#DDE6F8"/>
				<stop  offset="1" style="stop-color:#AEC5EC"/>
			</linearGradient>
			<path class="st15" d="M457.7,942.3c0,0,29.5,34.4,4.6,82.2c0,0-41.3-41.3-47.9-77.5c0,0,15.2-19.1,22-17.9
				S457.7,942.3,457.7,942.3z"/>
			
				<linearGradient id="SVGID_16_" gradientUnits="userSpaceOnUse" x1="7370.5054" y1="493.0459" x2="7410.251" y2="493.0459" gradientTransform="matrix(-0.9987 -5.039252e-02 -5.039252e-02 0.9987 7861.7266 801.2058)">
				<stop  offset="0" style="stop-color:#D2967B"/>
				<stop  offset="1" style="stop-color:#A46851"/>
			</linearGradient>
			<path class="st16" d="M476.2,914.1l-18.5,28.2c0,0-16.2,1.9-22.2-10.9l11.7-31.8L476.2,914.1z"/>
			<g>
				
					<linearGradient id="SVGID_17_" gradientUnits="userSpaceOnUse" x1="7373.6519" y1="548.8592" x2="7426.2021" y2="548.8592" gradientTransform="matrix(-0.9987 -5.039252e-02 -5.039252e-02 0.9987 7861.7266 801.2058)">
					<stop  offset="0" style="stop-color:#293681"/>
					<stop  offset="1" style="stop-color:#202A66"/>
				</linearGradient>
				<path class="st17" d="M467.3,1013.2l0.9-2.4c-31.3-31.6-47.3-70.7-47.5-71l-1.7,1.8C419.2,941.9,435.6,981.3,467.3,1013.2z"/>
			</g>
		</g>
		<linearGradient id="SVGID_18_" gradientUnits="userSpaceOnUse" x1="341.9893" y1="751.5677" x2="530.2062" y2="751.5677">
			<stop  offset="0" style="stop-color:#243682"/>
			<stop  offset="1" style="stop-color:#13003A"/>
		</linearGradient>
		<path class="st18" d="M452,651.9c0,0,41.5,59.9,14.1,72.8c-27.3,12.9-106.5,48.9-112.1,84.8c0,0-13.2,4.6-12,13.6
			c1.2,9,10.6,38.3,32,24.4c0,0,44.7,16.4,86.7-24.8S597.8,713.4,452,651.9z"/>
		<linearGradient id="SVGID_19_" gradientUnits="userSpaceOnUse" x1="418.5938" y1="705.3901" x2="581.1848" y2="705.3901">
			<stop  offset="0" style="stop-color:#243682"/>
			<stop  offset="1" style="stop-color:#13003A"/>
		</linearGradient>
		<path class="st19" d="M427.8,503.4c-12,35.3-25.7,115.7,53.6,200.2c5.5,5.9,7.4,14.2,4.9,21.7c-2,6.1-5.9,14.2-12.9,24.9
			c-17.9,27.1-33.3,96.6-23.2,118.8c1.6,3.6,1.6,7.7-0.2,11.2c-3.8,7.5-8.8,19.4-4.2,23.1c6.9,5.5,27,19.7,35.8,9.2
			c6.3-7.4,10-14.6,11.6-18.1c0.7-1.5,1.2-3.4,2.8-3.9c24.6-7.6,31-32.9,56.6-99.8c30.1-78.7,37.7-83.6,17-161
			c-13.4-49.9-11-87.2-11.9-101.7c-0.4-6.4-11.6-3.6-18.2-4.1c-21-1.8-64.7-7.8-90.8-26.7C441.2,491.9,430.7,494.9,427.8,503.4z"/>
		<path class="st20" d="M518.1,548.7c-0.3,1.7-1.2,3.3-2.3,4.7c-0.5,0.7-1.2,1.3-1.8,2c-0.6,0.6-1.3,1.2-2,1.7
			c-0.7,0.5-1.5,1-2.3,1.4c-0.8,0.4-1.6,0.8-2.4,1.2c-0.8,0.3-1.7,0.6-2.5,0.9l-0.6,0.2l-0.6,0.1l-1.3,0.3c-1.7,0.4-3.5,0.5-5.2,0.7
			c-0.9,0.1-1.7,0-2.6,0c-0.9,0-1.7,0-2.6-0.1c-1.7-0.2-3.4-0.4-5.1-0.8c-1.7-0.4-3.3-0.8-5-1.4c1.7-0.2,3.4-0.3,5.1-0.3
			c1.7-0.1,3.3-0.3,5-0.3c1.6-0.2,3.3-0.3,4.9-0.5l2.4-0.4c0.8-0.1,1.6-0.3,2.4-0.5c1.6-0.3,3.1-0.8,4.6-1.2
			c0.7-0.3,1.5-0.6,2.2-0.8c0.7-0.3,1.4-0.7,2.2-1c0.7-0.4,1.4-0.8,2.1-1.2c0.7-0.5,1.4-0.9,2-1.4
			C515.9,551.2,517.1,550.1,518.1,548.7z"/>
	</g>
	<g>
		
			<linearGradient id="SVGID_20_" gradientUnits="userSpaceOnUse" x1="2792.7739" y1="-1779.8706" x2="2801.635" y2="-1779.8706" gradientTransform="matrix(0.7623 -0.6472 0.6472 0.7623 -167.1725 3251.8997)">
			<stop  offset="0" style="stop-color:#DFC19A"/>
			<stop  offset="1" style="stop-color:#CF9B72"/>
		</linearGradient>
		<path class="st21" d="M812.2,85.7c0,0,7.4,2.5,9.1-0.6c1.7-3.1-4-5.3-8.7-7.5C812.7,77.6,807.7,81.4,812.2,85.7z"/>
		<linearGradient id="SVGID_21_" gradientUnits="userSpaceOnUse" x1="804.1737" y1="77.1609" x2="824.4754" y2="77.1609">
			<stop  offset="0" style="stop-color:#DFC19A"/>
			<stop  offset="1" style="stop-color:#CF9B72"/>
		</linearGradient>
		<path class="st22" d="M811,83.3c0,0,10.3-4,16.2-4.7s6.4-7.5-4.7-7.6C811.5,70.9,811,83.3,811,83.3z"/>
		<linearGradient id="SVGID_22_" gradientUnits="userSpaceOnUse" x1="803.8415" y1="71.0266" x2="828.6824" y2="71.0266">
			<stop  offset="0" style="stop-color:#DFC19A"/>
			<stop  offset="1" style="stop-color:#CF9B72"/>
		</linearGradient>
		<path class="st23" d="M820.5,65.2c0,0,14.6-6.3,15.4-0.7c0.8,5.6-17.5,9.4-23.4,14.4S820.5,65.2,820.5,65.2z"/>
		<linearGradient id="SVGID_23_" gradientUnits="userSpaceOnUse" x1="672.1413" y1="163.5495" x2="831.8682" y2="163.5495">
			<stop  offset="0" style="stop-color:#DFC19A"/>
			<stop  offset="1" style="stop-color:#CF9B72"/>
		</linearGradient>
		<path class="st24" d="M672.1,217.8c0,0,83.9-47.5,116.9-99.8c0,0,7-17.7,6.1-26.9c-0.9-9.2,21.4-29.6,28.5-33.8
			c7.1-4.2,10.6-0.7,6.3,3.9c-4.3,4.5-25.9,18.6-14.5,38.8c0,0,4.3-7.5,6.8-11.8s6.2-2.8,5.5,2.4c-0.7,5.2-4.9,14.3-4.5,20.2
			c0.3,5.9-3.2,15-9.5,19s-10.1,13-15.4,23c-5.3,10.1-24,57.3-99.3,118.7l-23.3-11.8L672.1,217.8z"/>
	</g>
	<linearGradient id="SVGID_24_" gradientUnits="userSpaceOnUse" x1="430.6469" y1="378.5823" x2="699.9885" y2="378.5823">
		<stop  offset="0" style="stop-color:#EED85E"/>
		<stop  offset="1" style="stop-color:#E4B542"/>
	</linearGradient>
	<path class="st25" d="M521.8,267.9c0,0-38.4,10.2-67.9,74.3c0,0,10.3,117.2,4.1,121.4c-6.2,4.1-17.4,2.1-17.7,21.6
		c0,0-13,1.4-8.9,11.2c4.1,9.7,28.1,24.5,41.3,35.4c13.3,10.9,84.5,9.2,88.9,0c4.4-9.2,4.4-14.8,17.4-22.1s6.5-45.2,31.6-90.7
		c25.1-45.5,33.4-61.1,27.5-98.6c0,0,4.1-22.7,60.8-48.7c0,0,8.9-26.9-26.9-53.7c0,0-17.2,11.8-44.3,17.4
		C600.7,240.9,580.2,243.2,521.8,267.9z"/>
	<path class="st26" d="M459.7,430.5c0.6,17.9,0.4,31.7-1.7,33.1c-6.2,4.1-17.4,2.1-17.7,21.6c0,0-13,1.4-8.9,11.2
		c4.1,9.7,28.1,24.5,41.3,35.4c-5.2-9-2.9-15.1,0.7-18.9c3.4-3.6,9.1-4.1,13.1-1.1c14.8,11,30.5,10.3,30.5,10.3
		c-21.3-7.4-50.5-54.6-18-54.3s77.5-25,77.5-25s-39.4-4.5-44.7-13.4c-5.3-8.9-23.7-21.9-1.5-47.8c22.2-26,10.6-43.4,10.6-43.4
		c-2.4,13-21.2,33.4-21.2,33.4S457.3,373.7,459.7,430.5z"/>
	<linearGradient id="SVGID_25_" gradientUnits="userSpaceOnUse" x1="485.908" y1="342.919" x2="592.5164" y2="342.919">
		<stop  offset="0" style="stop-color:#DEE7F9"/>
		<stop  offset="1" style="stop-color:#AFC6ED"/>
	</linearGradient>
	<path class="st27" d="M521.8,267.9c0,0-18.3-5.5-30.7,3.7c-12.4,9.2-2.4,13.6,27.2,24.2c29.5,10.6,50.2,50.1,29.8,82.8
		s-62.2,37.7-62.2,37.7l50.3,3.2c0,0,54.2-20.1,56.2-70.6C594.5,298.5,567.4,282,521.8,267.9z"/>
	<g>
		<linearGradient id="SVGID_26_" gradientUnits="userSpaceOnUse" x1="421.2718" y1="400.731" x2="651.06" y2="400.731">
			<stop  offset="0" style="stop-color:#DFC19A"/>
			<stop  offset="1" style="stop-color:#CF9B72"/>
		</linearGradient>
		<path class="st28" d="M453.9,342.2c0,0-67.8,95.4-8,112.2c59.8,16.8,127.6-15.5,137.3-12c9.7,3.5,21.5-8.9,24.4-17.6
			c2.9-8.8,27.3,2.7,30-2s-13.7-9.9-13.7-9.9s9.2-0.4,15.3,1.8s7-1.7,5.9-3.3c0,0,5.3,1.6,6-1.3c0.7-2.9-8.6-11-20.5-12.1
			c0,0,8-2.1,13.6-2.5c5.6-0.4,7.1-7.6-8.2-6.6c-15.3,1-30,3.3-35.1,9.2c-5.1,5.9-23,20.4-35.5,20.2c-11.9-0.2-47.7-7.6-75.6-6.4
			c-1.7,0.1-2.8-1.9-1.7-3.3c6.4-8.5,22.8-29.7,31.8-37.1C519.8,371.5,477,379.4,453.9,342.2z"/>
		<g>
			<path class="st29" d="M645,411.4c-0.9-0.7-1.9-1.3-2.9-1.8c-1-0.6-2-1.1-3-1.5c-2.1-0.9-4.1-1.8-6.3-2.5
				c-1.1-0.3-2.2-0.7-3.3-0.9l-1.6-0.4c-0.6-0.1-1.1-0.2-1.7-0.4c-2.2-0.5-4.5-0.8-6.7-1.1c1.1,0,2.3,0,3.4,0.1
				c1.1,0.1,2.3,0.2,3.4,0.4c2.3,0.3,4.5,0.9,6.7,1.5c2.2,0.7,4.3,1.6,6.3,2.7C641.5,408.6,643.4,409.8,645,411.4z"/>
			<path class="st29" d="M630.5,398c-1.9,0.1-3.7,0.1-5.5,0c-1.8-0.1-3.6-0.3-5.5-0.6c1.8-0.3,3.7-0.4,5.5-0.3
				C626.9,397.2,628.7,397.5,630.5,398z"/>
			<path class="st29" d="M623.9,413c-1.5-0.1-2.8-0.3-4.2-0.6c-0.7-0.2-1.4-0.3-2-0.5c-0.7-0.2-1.3-0.3-2.1-0.5
				c0.7-0.3,1.4-0.3,2.2-0.2c0.7,0,1.4,0.2,2.1,0.3C621.3,411.8,622.6,412.2,623.9,413z"/>
		</g>
		<linearGradient id="SVGID_27_" gradientUnits="userSpaceOnUse" x1="564.4988" y1="433.3933" x2="577.2573" y2="433.3933">
			<stop  offset="0" style="stop-color:#243682"/>
			<stop  offset="1" style="stop-color:#13003A"/>
		</linearGradient>
		<path class="st30" d="M564.5,422.9c0,0,4.2,8.8,3.1,21.8c0,0,5.2,1.3,8.9-2.1c0,0,2.5-9.7-2.2-20.9
			C574.4,421.8,570.7,425.5,564.5,422.9z"/>
		<linearGradient id="SVGID_28_" gradientUnits="userSpaceOnUse" x1="558.986" y1="418.2742" x2="577.2573" y2="418.2742">
			<stop  offset="0" style="stop-color:#EDF0F5"/>
			<stop  offset="1" style="stop-color:#B9B9BB"/>
		</linearGradient>
		<path class="st31" d="M560.5,413.1c-1.2,0.9-1.7,2.4-1.4,3.8c0.7,3.2,2.6,9,8.1,8.8c7.5-0.3,10.1-3.2,10.1-4.9
			c0-1.8-1.9-9.1-4.7-9.6C570.1,410.8,564.7,410,560.5,413.1z"/>
		<linearGradient id="SVGID_29_" gradientUnits="userSpaceOnUse" x1="561.6575" y1="418.2742" x2="574.5859" y2="418.2742">
			<stop  offset="0" style="stop-color:#230C12"/>
			<stop  offset="1" style="stop-color:#0B0006"/>
		</linearGradient>
		<path class="st32" d="M562.7,414.6c-0.8,0.6-1.2,1.7-1,2.7c0.5,2.3,1.9,6.4,5.7,6.2c5.3-0.2,7.1-2.2,7.1-3.5
			c0-1.3-1.3-6.5-3.3-6.8C569.5,413,565.7,412.4,562.7,414.6z"/>
	</g>
	<linearGradient id="SVGID_30_" gradientUnits="userSpaceOnUse" x1="337.8749" y1="451.1856" x2="367.0444" y2="451.1856">
		<stop  offset="0" style="stop-color:#DEE7F9"/>
		<stop  offset="1" style="stop-color:#AFC6ED"/>
	</linearGradient>
	<path class="st33" d="M366.2,402.8c-4,16.3-8.5,32.4-13.1,48.6c-2.3,8.1-4.6,16.1-7,24.2c-2.4,8-4.8,16.1-7.3,24.1
		c3.7-16.4,8.1-32.6,12.7-48.7c2.3-8.1,4.7-16.1,7.1-24.1C360.9,418.7,363.5,410.7,366.2,402.8z"/>
	
		<linearGradient id="SVGID_31_" gradientUnits="userSpaceOnUse" x1="425.1657" y1="345.2814" x2="477.8077" y2="345.2814" gradientTransform="matrix(0.9994 -3.539833e-02 3.539833e-02 0.9994 -78.6269 138.1965)">
		<stop  offset="0" style="stop-color:#A10700"/>
		<stop  offset="1" style="stop-color:#721018"/>
	</linearGradient>
	<path class="st34" d="M407,474c-7.2,23.6-22.9,39.6-35.2,35.9c-12.3-3.7-16.4-25.9-9.3-49.4c7.2-23.6,22.9-39.6,35.2-35.9
		C410,428.3,414.2,450.5,407,474z"/>
	<linearGradient id="SVGID_32_" gradientUnits="userSpaceOnUse" x1="577.0579" y1="297.0042" x2="650.4294" y2="297.0042">
		<stop  offset="0" style="stop-color:#DEE7F9"/>
		<stop  offset="1" style="stop-color:#AFC6ED"/>
	</linearGradient>
	<path class="st35" d="M595.1,242.2c0,0,36.7,15.1,49.9,56.6c14.8,46.4-5.7,53-5.7,53s8.5-48.1-39.6-76.2S595.1,242.2,595.1,242.2z"
		/>
	<g>
		<linearGradient id="SVGID_33_" gradientUnits="userSpaceOnUse" x1="521.7888" y1="205.3909" x2="629.4022" y2="205.3909">
			<stop  offset="0" style="stop-color:#DFC19A"/>
			<stop  offset="1" style="stop-color:#CF9B72"/>
		</linearGradient>
		<path class="st36" d="M579.7,116.4c0,0,16.4,12.1,22.3,20c5.9,8,9.1,17.7,27.2,24.5c0,0,2.3,3.8-9.2,11.2c0,0,8.3,34.8,0.4,40.2
			s-30,20.8-27.5,48.3c0,0,11.2,17.8,8.6,33.8c0,0-40.8-31-79.8-26.5c0,0,17.4-14.5,21-34.4S488.2,146.7,579.7,116.4z"/>
		<linearGradient id="SVGID_34_" gradientUnits="userSpaceOnUse" x1="589.1843" y1="152.8484" x2="596.8704" y2="152.8484">
			<stop  offset="0" style="stop-color:#240012"/>
			<stop  offset="1" style="stop-color:#0B0000"/>
		</linearGradient>
		<path class="st37" d="M595.1,151.6c1.8,3.1,2.3,6.1,1.1,6.8c-1.2,0.7-3.5-1.3-5.3-4.3c-1.8-3.1-2.3-6.1-1.1-6.8
			C591,146.6,593.4,148.6,595.1,151.6z"/>
		<g>
			<linearGradient id="SVGID_35_" gradientUnits="userSpaceOnUse" x1="578.3785" y1="142.3218" x2="593.8829" y2="142.3218">
				<stop  offset="0" style="stop-color:#240012"/>
				<stop  offset="1" style="stop-color:#0B0000"/>
			</linearGradient>
			<path class="st38" d="M580.6,149.5c-0.4,0-0.8-0.1-1.2-0.4c-1-0.7-1.3-2-0.6-3.1c5-7.7,11.8-10.6,12.1-10.7
				c1.1-0.5,2.4,0.1,2.9,1.2c0.5,1.1-0.1,2.4-1.2,2.9c-0.1,0-5.8,2.6-10.1,9.1C582,149.1,581.3,149.5,580.6,149.5z"/>
		</g>
		<linearGradient id="SVGID_36_" gradientUnits="userSpaceOnUse" x1="451.5406" y1="160.0415" x2="627.829" y2="160.0415">
			<stop  offset="0" style="stop-color:#243682"/>
			<stop  offset="1" style="stop-color:#13003A"/>
		</linearGradient>
		<path class="st39" d="M546,151.3c3.2,16.2,27.2,24.5,28.6,30.6c1.5,6.1-3.7,9.9-14,3.8s-22.9,2.5-14.6,12.7
			c8.3,10.2,18.9,11.4,19.5,12.1c17.4,21.8-30.3,30.7-30.3,30.7c3.1-1.6,4-4,4-4c-0.6,1.6-3.4,2.1-3.4,2.1c1.5-1,1.6-15.5-10.2-17.4
			c-11.8-1.9-18.3-7.4-18.3-7.4c0.9,2.4,3.7,4.3,3.7,4.3c-18.5-2.2-20.1-15.1-20.1-15.1c-1,5.9,0.9,12,0.9,12
			c-18.5-6.5-20.4-26-20.4-26c-0.6,3-0.4,10.3-0.4,10.3c-7.2-9.7-5-19.3-5-19.3c-4.4,3.7-14.5,2.8-14.5,2.8
			c23.8-10.3,11.5-24.1,22.9-46.8c11.4-22.7,33.5-33.4,33.5-33.4c-5.9,1.8-14.3-0.6-14.3-0.6s5.2,1.6,30.4-13
			c25.2-14.6,40.3,3.2,40.3,3.2c0.6-9.6-7.2-14-7.2-14c16.4,2.1,19.6,17,19.6,17c-1.5-10.9,6.8-14.3,6.8-14.3
			c-3.7,13.3,3.7,8,9.5,17.6s-4.6,14.6-4.6,14.6C583.4,140.6,542.8,135,546,151.3z M572.5,188.9c-1.3,0.6-2,2.1-1.4,3.5
			c1.2,3,2.7,7.7,1.4,11c-2.1,5.2-0.3,10.9,1.5,13.3c1.8,2.4,8.1,9.3,11.2,11.5c3.1,2.2,12,4.6,17.4,3.1s13.9-11.5,13.9-10.3
			s5.6-2.2,7.4-5.9c1.8-3.7,5.2-8.9,3.5-17.6c-1.6-8.7-0.4-29.2-17.6-18.6c-13.2,8.2-26,5.8-31.1,4.2c-1.1-0.3-2.2,0.4-2.4,1.5
			C575.9,186.1,575,187.9,572.5,188.9z"/>
		<path class="st40" d="M602.8,187.4c3.2,1.2,11.3,3.8,14.1,0.7c0,0,2.8,8-2.2,9.5c-4.4,1.3-10.2-5.9-12.5-9.5
			C602,187.7,602.4,187.2,602.8,187.4z"/>
		<path class="st41" d="M563.8,196.6c-0.7-0.4-1.5-0.7-2.3-0.9c-1.5-0.5-3.2-0.5-4.3-1.2c-0.6-0.3-0.9-0.7-0.9-1.3
			c0-0.6,0.3-1.3,0.6-1.8l0.4-0.7l-0.7-0.2c-0.8-0.3-1.7-0.6-2.7-0.6c-0.9,0-1.8,0.2-2.6,0.7c-0.8,0.4-1.4,1.1-1.9,1.8
			c-0.5,0.7-0.9,1.5-1.2,2.3c0.9-1.4,2-2.7,3.5-3.4c0.7-0.3,1.5-0.5,2.2-0.4c0.5,0,1,0.2,1.6,0.4c-0.3,0.6-0.5,1.1-0.5,1.9
			c-0.1,1,0.7,2,1.5,2.4c0.8,0.4,1.7,0.6,2.4,0.7l2.3,0.4c0.7,0.2,1.5,0.3,2.1,0.6c0.7,0.3,1.1,0.7,1.2,1.3
			c-0.1,1.3-1.2,2.7-2.1,3.9c0.6-0.5,1.2-1,1.7-1.6c0.5-0.6,1-1.3,1.1-2.2c0-0.5-0.1-1-0.4-1.4C564.6,197.1,564.2,196.8,563.8,196.6
			z"/>
	</g>
</g>
</svg>
