<?xml version="1.0" encoding="UTF-8"?>
<svg width="1438px" height="772px" viewBox="0 0 1438 772" version="1.1" xmlns="http://www.w3.org/2000/svg" xmlns:xlink="http://www.w3.org/1999/xlink">
    <!-- Generator: Sketch 49.1 (51147) - http://www.bohemiancoding.com/sketch -->
    <title>grafismo trans 2</title>
    <desc>Created with Sketch.</desc>
    <defs></defs>
    <g id="Page-2" stroke="none" stroke-width="1" fill="none" fill-rule="evenodd">
        <path d="M188.817504,647 C187.062722,647.26927 184.533362,646.810784 185.07437,649.588991 C185.37981,651.160943 186.970891,651.890519 188.67776,651.988766 C190.821827,652.112484 192.804191,651.213706 192.983861,649.32518 C193.227414,646.770757 190.66212,647.169203 188.817504,647 M50,730.365444 C55.0049744,733.934623 58.4837504,736.60355 62.1259053,738.94284 C64.2219376,740.286398 66.6885611,740.904752 67.6927439,737.328753 C68.4677976,734.566618 67.8421758,732.236421 65.0627414,731.131567 C60.7531237,729.417452 56.4753849,727.735164 50,730.365444 M308,671.181387 C307.765684,666.865358 305.362334,664.651102 301.078008,665.044793 C297.247265,665.398908 293.680934,667.488182 294.022734,671.420935 C294.364535,675.378683 298.7241,676.459773 302.15715,676.930537 C306.168467,677.480456 307.750636,674.691285 308,671.181387 M2.13123514,729.88482 C1.44856919,728.357076 0.763918737,726.829332 0.0812527832,725.301589 C0.879019392,721.229587 -2.3259385,715.639749 4.44317071,713.832612 C4.44515521,713.832612 4.28441119,713.989151 4.28242669,713.989151 C4.1137447,715.964716 3.95895416,717.924429 6.99919905,717.135788 C6.99919905,717.135788 7.36633045,717.504349 7.35839247,717.508312 C5.09408476,723.282431 8.85866998,723.880846 13.0419834,724.116646 C14.1473466,725.374904 15.2507253,726.633163 16.354104,727.893403 C14.9014544,733.025512 18.19373,733.752726 22.021819,733.978618 C22.021819,733.978618 21.9424393,733.94097 21.9424393,733.938988 C22.6310587,734.622609 23.3196781,735.304248 24.0082976,735.985887 C24.0082976,735.985887 23.9944061,735.863034 23.9963906,735.863034 C24.0956153,737.192627 24.8159867,737.844543 26.1475822,737.830673 C26.1475822,737.830673 26.2130705,737.688004 26.2130705,737.688004 C26.4631167,745.431743 32.4066764,745.19198 37.7013065,745.863712 C39.2511964,748.295024 41.5770234,748.045354 43.9405558,747.666885 C43.9405558,747.666885 44.041765,747.575736 44.0397805,747.575736 C44.1727416,753.815509 48.5029077,751.70322 51.8725786,751.501106 C51.8725786,751.501106 51.9856947,751.491199 51.9856947,751.491199 C52.7159885,755.301641 55.4585593,755.919872 58.7151141,755.725684 C58.7151141,755.725684 59.2648189,755.765314 59.2687879,755.767296 C63.3588301,760.871664 66.9229815,766.164276 74.922477,765.944328 C90.7150807,765.514341 106.527529,765.857142 122.33204,765.760048 C124.358208,765.75014 127.162298,766.792414 127.920375,763.174178 C122.675357,760.55066 116.956046,759.906669 110.808083,759.482626 C112.544515,757.923178 113.909847,756.698605 115.275179,755.474033 C117.122743,754.845894 118.968322,754.219737 120.813902,753.595562 C122.37173,753.490542 124.834487,753.403355 122.730923,751.20388 C119.593438,747.926463 115.838775,746.127253 110.768393,745.828045 C93.6382404,744.819456 76.5557156,744.096205 59.4632683,746.12329 C59.4632683,746.12329 59.3441987,746.368997 59.3461832,746.370978 C57.0957669,738.310198 48.6001479,738.912577 43.1963706,735.369638 C39.4198784,732.894733 35.0202551,731.202524 32.1705216,727.54862 C26.359923,720.096163 18.9299773,713.05586 15.0582294,705.111989 C2.97067612,680.311417 -2.76649618,653.903841 6.66580405,626.483714 C8.16211257,622.132319 12.3990074,619.399818 16.4473752,616.164013 C19.7277439,618.65477 19.9142863,622.108541 19.8944414,625.69111 C19.864674,630.973814 20.8807349,636.478447 19.7336974,641.497611 C16.6716231,654.900541 26.3063417,663.783647 33.6112643,670.164108 C37.7409964,673.772436 47.3538856,677.355005 55.2859083,678.444835 C67.9628563,680.186582 80.6636183,681.749993 93.3306438,683.55713 C95.7219592,683.897949 98.0616776,684.821333 98.8713512,681.599398 C99.5401257,678.930305 98.2343286,677.412469 95.5870136,676.487104 C91.0722896,674.911804 86.6865577,672.971906 82.0210122,671.093435 C84.4004206,666.785634 88.3376568,666.036623 91.600165,667.001619 C110.206781,672.494363 125.433804,663.155509 141.462563,656.612565 C167.931744,645.807394 194.885142,636.131683 221.007038,624.569576 C230.415524,620.404443 241.665621,620.11118 249.337675,611.796766 C251.840122,609.086061 255.88849,608.93943 259.629261,609.236656 C262.731025,609.484345 266.072913,609.13758 267.598989,606.311948 C272.30224,597.593307 281.141176,594.569523 289.09106,590.675857 C298.908352,585.864752 307.638141,579.563552 316.369915,573.202907 C323.905039,567.714126 332.886859,565.413594 341.088773,561.410945 C344.031778,559.972369 347.347867,558.747796 349.574469,556.512653 C354.484108,551.576713 359.441374,547.71277 366.774079,546.482253 C372.781143,545.473664 375.962287,539.194261 380.647677,535.548284 C388.14708,529.71472 398.023907,527.838231 404.527094,520.377848 C406.196054,518.46371 408.815586,517.417473 409.125167,514.451153 C418.539607,516.119584 424.862205,513.939924 431.051842,504.99539 C435.757077,498.19485 446.133997,495.327606 453.950919,490.651243 C473.508107,478.954393 492.475902,466.106286 512.749493,455.820271 C533.227487,445.431217 550.14133,429.151136 570.823727,420.129323 C594.415392,409.835382 613.740395,392.974718 637.022479,382.290419 C655.160755,373.964117 671.344304,361.375587 688.333558,350.584287 C690.881648,348.965394 693.100312,346.983884 696.416402,348.485869 C698.7204,349.528143 699.9746,348.269884 701.123622,346.339894 C709.061598,333.000373 723.133645,328.421104 735.84433,321.642361 C743.15719,317.740768 749.577029,312.07167 756.117921,306.852374 C762.250008,301.958046 767.86811,296.558433 776.054148,294.919725 C784.414822,293.245349 786.415192,282.620496 794.396827,280.759858 C800.060573,279.440173 800.042712,276.313351 799.48507,272.122459 C799.48507,272.122459 799.453318,272.181904 799.455302,272.181904 C805.363141,272.239368 810.159663,270.731439 811.185646,263.897213 C811.185646,263.897213 811.225336,263.994307 811.227321,263.996289 C815.934541,264.180569 822.276984,266.590084 820.13373,257.467215 C820.13373,257.467215 820.691373,257.108562 820.695342,257.114506 C824.628609,259.946083 827.347366,257.140266 830.39158,255.190461 C844.88434,245.901145 859.504108,236.807998 873.939317,227.429514 C881.418876,222.570853 890.591207,220.197004 897.265061,215.043098 C906.100028,208.224724 913.529974,199.452582 923.130956,193.264328 C925.280163,191.881235 924.875326,189.1844 924.577652,186.862071 C924.577652,186.862071 924.438738,186.988888 924.438738,186.988888 C935.083564,187.028518 947.875612,178.363378 949.094092,170.29269 C949.094092,170.29269 949.076231,170.221355 949.074247,170.219374 C959.578174,172.042362 966.055562,163.432704 974.553166,160.091879 C986.081092,155.56413 993.066511,144.408232 1003.46923,137.746397 C1012.55623,131.926704 1024.40564,131.544273 1031.86337,123.307138 C1044.21486,109.662464 1061.21404,103.178966 1076.19895,93.6142197 C1084.00794,88.628742 1094.3531,86.9543665 1097.5402,76.329513 C1101.65207,76.5336085 1105.35117,75.8281912 1108.24655,72.4457546 C1109.48685,70.9972712 1112.02304,68.6729607 1112.73349,69.0534105 C1123.3803,74.7324165 1124.96988,63.8935599 1130.5602,59.9939494 C1140.99467,52.7099208 1151.95701,46.1015869 1163.07216,39.8796473 C1175.20933,33.087033 1186.14786,24.5011527 1198.41997,17.8432811 C1210.64644,11.211169 1224.08543,8.20125623 1236.91519,3.83599099 C1244.42451,1.28182535 1253.98382,5.71842493 1262.3306,0.404016674 C1265.06523,-1.3377301 1268.07968,2.95223779 1267.87329,5.65501663 C1266.99615,16.9852875 1274.42808,27.1623199 1272.08439,38.5817586 C1263.93804,39.1722484 1262.19566,44.3638031 1262.09842,51.4754404 C1261.96149,61.5256562 1265.48198,73.2997851 1257.32372,80.7760202 C1250.34227,87.1743141 1248.38953,97.1175284 1239.70935,101.9643 C1236.15116,103.951754 1233.64672,107.928644 1230.86248,111.172375 C1226.25647,116.542265 1226.50453,123.103043 1228.98118,128.748363 C1231.36853,134.185625 1237.60778,133.630802 1242.83096,133.690248 C1245.47034,133.71997 1248.31412,134.249033 1250.70742,133.466337 C1255.70041,131.835555 1262.48738,131.81574 1262.10239,123.74307 C1266.62108,119.75231 1275.51955,119.970276 1274.60867,110.764184 C1274.60867,110.764184 1275.21791,110.409494 1275.21989,110.413457 C1279.90528,113.379776 1283.23328,110.074618 1286.88078,107.9762 C1297.90464,101.637351 1307.0353,92.4669258 1318.89662,87.2694265 C1324.33215,84.8856707 1330.06535,84.0712703 1335.49691,82.1274096 C1353.14303,75.8143206 1370.70978,71.9503772 1388.20706,82.2205405 C1391.30089,84.0356032 1394.31732,84.3962379 1397.6473,84.0415477 C1398.18906,83.9662503 1398.6713,84.09703 1399.09995,84.4358681 C1399.00866,89.0864707 1400.58832,92.845394 1404.98993,94.937868 C1408.65529,96.6815963 1411.61417,99.251614 1414.07296,102.402214 C1418.30985,107.837494 1423.70569,109.783337 1430.46488,108.342779 C1433.01694,107.799846 1435.75752,107.379766 1438,111.463657 C1425.14048,114.25164 1415.13268,122.183622 1404.17231,128.318376 C1393.04129,134.54626 1382.27541,141.42606 1371.33688,147.996746 C1369.33254,149.199522 1369.42382,151.280107 1368.95548,153.142726 C1355.86179,154.381169 1347.83451,164.669166 1338.29902,171.59256 C1333.26039,175.250426 1327.5768,175.404984 1322.75845,178.90433 C1298.71432,196.367372 1274.21574,213.204258 1249.87592,230.257128 C1248.80231,231.010101 1247.78625,231.939429 1246.59356,232.418954 C1239.44542,235.296106 1234.10514,239.379997 1228.87402,245.821884 C1222.04934,254.223484 1211.56328,260.080826 1201.79956,265.49431 C1197.30865,267.983085 1197.15982,272.550465 1194.02432,274.850997 C1180.18446,285.004251 1168.78155,298.282346 1152.00662,304.843124 C1145.96582,307.203101 1140.02425,311.837852 1134.18785,315.644332 C1117.01999,326.843823 1097.10163,332.863648 1080.47355,345.577013 C1075.36546,349.482568 1066.82817,349.700534 1063.6252,357.456162 C1052.24015,357.872279 1041.69654,360.28972 1034.35986,370.04271 C1031.33351,374.067155 1026.35045,374.44166 1022.29612,376.373632 C1010.98649,381.761356 1002.03642,391.764016 990.339816,395.324788 C975.944296,399.707887 963.489612,406.522298 951.783081,415.450979 C949.322309,417.325487 946.184823,417.202634 943.196175,417.103558 C938.006723,416.929185 933.626945,417.054021 932.3529,424.03686 C931.473769,428.851928 927.175355,429.272008 922.926553,427.064606 C920.5273,425.818237 917.697411,424.407402 916.498777,428.221808 C913.50616,437.744942 904.302076,439.68484 897.183696,443.596339 C872.699009,457.05277 847.577298,469.359925 823.189851,482.98082 C815.636867,487.201435 806.222427,489.620858 801.85654,498.498021 C801.85654,498.498021 801.920044,498.389038 801.920044,498.389038 C800.116139,498.256276 798.538466,498.553503 797.843893,500.529068 C797.843893,500.529068 798.006621,500.461696 798.008606,500.461696 C783.255877,503.204105 769.939922,510.333576 757.717423,517.918794 C741.736293,527.836249 724.78276,535.480912 708.176514,543.914216 C692.858204,551.691641 678.266219,560.816492 662.37836,567.573439 C652.154247,571.922852 642.598908,577.843602 632.777647,583.126306 C630.523261,584.337009 627.816412,587.06951 625.99663,583.916929 C623.867268,580.22934 627.359978,578.025901 630.162084,576.234617 C630.940005,575.737258 632.045368,575.725369 633.009832,575.54307 C635.377334,575.095249 639.286787,576.054299 638.221114,571.813869 C637.403502,568.562212 634.482327,570.977672 632.414484,570.8568 C613.494318,569.747155 598.138303,581.667915 580.549732,584.806626 C568.406613,586.974398 561.960976,598.354206 550.095686,600.946021 C547.565457,601.498862 543.181709,602.792787 540.347852,603.62304 C520.407655,609.458585 503.533502,621.623071 484.924902,630.02269 C466.344084,638.408438 446.941686,645.591409 429.130851,656.303449 C420.657062,661.399891 412.236854,668.196469 401.812306,670.370185 C397.081273,671.356976 392.221247,673.009555 391.359976,679.035325 C391.359976,679.035325 391.28655,678.880767 391.28655,678.880767 C376.238131,677.142984 364.900717,683.993062 355.125099,694.459395 C354.521813,695.137071 353.916542,695.814747 353.313256,696.492423 L353.295396,696.498368 C346.681077,692.204437 340.052867,695.152923 333.428626,696.462701 C330.451885,693.688587 327.419578,690.912493 323.182683,694.237465 C321.777661,695.339185 321.140639,697.271156 322.234095,698.642361 C324.52817,701.525457 327.008788,697.81409 329.473529,698.428358 C329.568785,702.983848 322.62504,703.471299 323.615303,708.54 C323.615303,708.54 323.680791,708.470648 323.680791,708.470648 C318.346471,708.807504 316.985108,705.688608 317.558627,701.190582 C318.534998,693.545919 314.276274,690.149612 307.618296,688.574312 C303.343696,679.524758 294.629783,681.11591 290.513942,685.485138 C286.140117,690.129796 280.940743,690.302188 276.364499,692.757278 C267.535485,697.493085 260.970779,693.197173 259.799927,682.73084 C261.453011,675.926337 251.361859,661.705044 244.854703,661.665414 C242.586426,661.651543 242.31455,663.294214 242.229217,664.94283 C242.094271,667.548515 242.09824,670.162126 242.044659,672.771774 C238.599577,671.711666 235.216015,670.302813 231.693538,669.666749 C224.912522,668.444157 217.50639,669.601359 213.612813,661.136351 C212.832907,659.440179 203.436327,652.712954 204.168606,664.635696 C204.359117,667.720906 202.537352,668.862256 199.911866,668.691846 C189.755225,668.032003 182.204225,673.231484 174.313877,678.734136 C158.535165,689.741421 146.267023,712.419796 146.977472,730.748758 C147.449781,742.937022 142.169042,754.168218 140.537788,766.027552 C140.388951,767.10153 138.66641,768.980001 138.192116,768.831388 C131.994541,766.89149 127.35281,772.168249 121.32987,771.995858 C103.874261,771.496518 86.3888836,772.043414 68.921367,771.797707 C61.4259329,771.692687 53.8273052,771.046715 47.6436217,765.839308 C46.8597466,764.214471 45.4011435,763.841947 43.7798118,763.770612 L43.7599669,763.74089 C41.7476899,752.47799 40.1878776,751.223695 33.722396,755.676146 C27.4533793,756.197283 27.0822789,745.172165 19.4340388,748.396081 C19.4340388,748.396081 19.6443952,748.437693 19.6424107,748.435711 C19.4499147,747.078377 18.6719931,746.402682 17.2967387,746.426461 C17.2967387,746.426461 17.3979479,746.583 17.3999324,746.581018 C17.9238388,743.339269 16.6617006,741.904656 13.3297351,742.556573 L13.8278431,742.144419 C13.8278431,742.144419 13.3813319,742.612055 13.3813319,742.610073 C14.699036,736.415875 12.2263564,733.582316 5.88589789,734.176769 L5.92757226,734.212436 C6.21333941,731.412564 4.72099988,730.170157 2.13123514,729.88482" id="grafismo-trans-2" fill="#EEBB38" transform="translate(719.000000, 386.000000) scale(-1, 1) translate(-719.000000, -386.000000) "></path>
    </g>
</svg>