<?xml version="1.0" encoding="UTF-8"?>
<svg width="39px" height="29px" viewBox="0 0 39 29" version="1.1" xmlns="http://www.w3.org/2000/svg" xmlns:xlink="http://www.w3.org/1999/xlink">
    <!-- Generator: Sketch 49.1 (51147) - http://www.bohemiancoding.com/sketch -->
    <title>Flecha</title>
    <desc>Created with Sketch.</desc>
    <defs></defs>
    <g id="Page-2" stroke="none" stroke-width="1" fill="none" fill-rule="evenodd">
        <g id="1_PE-Copy" transform="translate(-8758.000000, -508.000000)" fill="#000000" fill-rule="nonzero" stroke="#000000" stroke-width="2.09999996">
            <g id="Flecha" transform="translate(8777.500000, 522.500000) scale(-1, 1) translate(-8777.500000, -522.500000) translate(8759.000000, 509.000000)">
                <path d="M0.52349019,13.4040633 C0.52349019,13.7262658 0.717382595,14.1537342 0.915104114,14.3613418 L12.0543446,26.1967848 C12.5744079,26.734462 13.4278826,26.785981 14.0342054,26.2399494 C14.5762687,25.7521203 14.5789839,24.8116203 14.0773699,24.2818797 L5.13548386,14.7961203 L35.3332756,14.7961203 C36.1023009,14.7961203 36.7256807,14.1727405 36.7256807,13.4037152 C36.7256807,12.6346899 36.1023009,12.0113101 35.3332756,12.0113101 L5.13548386,12.0113101 L14.0773699,2.52554367 C14.5785661,1.99587278 14.5537813,1.05697405 14.0342054,0.545682911 C13.4852497,0.00598670886 12.5664712,0.0650246835 12.0543446,0.611125949 L0.915104114,12.4465759 C0.587819304,12.7675949 0.52899019,13.0769177 0.52349019,13.4038544 L0.52349019,13.4040633 Z" id="Shape"></path>
            </g>
        </g>
    </g>
</svg>