<?xml version="1.0" encoding="UTF-8"?>
<svg width="18px" height="18px" viewBox="0 0 18 18" version="1.1" xmlns="http://www.w3.org/2000/svg" xmlns:xlink="http://www.w3.org/1999/xlink">
    <!-- Generator: Sketch 49.1 (51147) - http://www.bohemiancoding.com/sketch -->
    <title>Dribbble Copy</title>
    <desc>Created with Sketch.</desc>
    <defs></defs>
    <g id="Page-2" stroke="none" stroke-width="1" fill="none" fill-rule="evenodd" opacity="0.98999995">
        <path d="M10.6248466,8.17080345 C10.449795,7.76581169 10.2678044,7.36239699 10.0735128,6.9633981 C11.7335071,6.24456926 13.0673691,5.26804707 14.0615363,4.02941571 C15.0311017,5.17531531 15.6398399,6.63032076 15.7300467,8.2231622 C13.8789149,7.9200492 12.1769713,7.90333226 10.6248466,8.17080345 M12.5794324,14.5475312 C12.2646548,12.8562806 11.8032123,11.2031951 11.1998361,9.59048252 C12.5478915,9.39997238 14.031888,9.4494924 15.6549795,9.73147265 C15.3408327,11.7340371 14.1977928,13.4637682 12.5794324,14.5475312 M8.62452671,15.74989 C6.97651793,15.74989 5.46129608,15.1824599 4.25233576,14.2387408 C5.66725775,12.0182252 7.47486317,10.5736284 9.71268562,9.90684291 C10.3794589,11.6463519 10.8696035,13.435381 11.1821733,15.268568 C10.3860825,15.5757814 9.52691008,15.74989 8.62452671,15.74989 M1.49976684,8.62436899 C1.49976684,8.56286323 1.50828287,8.50293455 1.50985991,8.44111337 C4.27536057,8.43701299 6.66174037,8.11939095 8.66048326,7.49045514 C8.82828052,7.83173324 8.98882339,8.17490383 9.14211186,8.51996691 C6.71378275,9.27916876 4.71188577,10.8351067 3.15029889,13.1773722 C2.12143676,11.9422104 1.49976684,10.3550464 1.49976684,8.62436899 M5.41083074,2.27508223 C6.36777976,3.52696098 7.21496666,4.81826649 7.95270686,6.14269049 C6.20565985,6.65681555 4.12112588,6.9211326 1.71014423,6.93784955 C2.20848947,4.89995876 3.58051592,3.20555397 5.41083074,2.27508223 M8.62452671,1.50010968 C10.2602346,1.50010968 11.7644171,2.05965437 12.9686463,2.98949528 C12.1028503,4.10637677 10.9074526,4.98922096 9.38434549,5.63392748 C8.6544905,4.2965715 7.81991993,2.992334 6.8774797,1.72594621 C7.43732957,1.58337901 8.02115048,1.50010968 8.62452671,1.50010968 M8.62452671,0 C3.86154478,0 0,3.86129997 0,8.62499982 C0,13.3883843 3.86154478,17.2499996 8.62452671,17.2499996 C13.3884549,17.2499996 17.2499996,13.3883843 17.2499996,8.62499982 C17.2499996,3.86129997 13.3884549,0 8.62452671,0" id="Dribbble-Copy" fill="#434244"></path>
    </g>
</svg>