<?xml version="1.0" encoding="UTF-8"?>
<svg width="16px" height="16px" viewBox="0 0 16 16" version="1.1" xmlns="http://www.w3.org/2000/svg" xmlns:xlink="http://www.w3.org/1999/xlink">
    <!-- Generator: Sketch 49.1 (51147) - http://www.bohemiancoding.com/sketch -->
    <title>Instagram Copy</title>
    <desc>Created with Sketch.</desc>
    <defs>
        <polygon id="path-1" points="0.000344999993 0.764749984 15.3352497 0.764749984 15.3352497 16.0996547 0.000344999993 16.0996547 0.000344999993 0.764749984"></polygon>
    </defs>
    <g id="Page-2" stroke="none" stroke-width="1" fill="none" fill-rule="evenodd">
        <g id="Instagram-Copy" transform="translate(0.000000, -1.000000)">
            <g id="Group-3" transform="translate(0.000000, 0.385595)">
                <mask id="mask-2" fill="white">
                    <use xlink:href="#path-1"></use>
                </mask>
                <g id="Clip-2"></g>
                <path d="M7.66739484,0.764404984 C5.58474488,0.764404984 5.32369489,0.773604984 4.50604491,0.810404983 C3.69069492,0.847204982 3.13294494,0.97830498 2.64534495,1.16805498 C2.14049496,1.36355497 1.71269496,1.62460497 1.28719497,2.05125496 C0.860544982,2.47790495 0.599494988,2.90455494 0.402844992,3.40940493 C0.213094996,3.89815492 0.0831449983,4.45475491 0.046344999,5.27125489 C0.00839499983,6.08890487 0.000344999993,6.34880487 0.000344999993,8.43260483 C0.000344999993,10.5152548 0.00839499983,10.7763048 0.046344999,11.5939548 C0.0831449983,12.4093047 0.213094996,12.9670547 0.402844992,13.4546547 C0.599494988,13.9595047 0.860544982,14.3873047 1.28719497,14.8128047 C1.71269496,15.2394547 2.14049496,15.5005047 2.64534495,15.6971547 C3.13294494,15.8869047 3.69069492,16.0168547 4.50604491,16.0536547 C5.32369489,16.0904547 5.58474488,16.0996547 7.66739484,16.0996547 C9.7511948,16.0996547 10.0110948,16.0904547 10.8287448,16.0536547 C11.6452448,16.0168547 12.2018447,15.8869047 12.6905947,15.6971547 C13.1954447,15.5005047 13.6220947,15.2394547 14.0487447,14.8128047 C14.4753947,14.3873047 14.7364447,13.9595047 14.9319447,13.4546547 C15.1216947,12.9670547 15.2527947,12.4093047 15.2895947,11.5939548 C15.3263947,10.7763048 15.3355947,10.5152548 15.3355947,8.43260483 C15.3355947,6.34880487 15.3263947,6.08890487 15.2895947,5.27125489 C15.2527947,4.45475491 15.1216947,3.89815492 14.9319447,3.40940493 C14.7364447,2.90455494 14.4753947,2.47790495 14.0487447,2.05125496 C13.6220947,1.62460497 13.1954447,1.36355497 12.6905947,1.16805498 C12.2018447,0.97830498 11.6452448,0.847204982 10.8287448,0.810404983 C10.0110948,0.773604984 9.7511948,0.764404984 7.66739484,0.764404984 M7.66739484,2.14555496 C9.7143948,2.14555496 9.95704479,2.15360496 10.7654948,2.19040495 C11.5141448,2.22490495 11.9189448,2.35025495 12.1903447,2.45490495 C12.5479947,2.59405495 12.8032947,2.75965494 13.0712447,3.02875494 C13.3403447,3.29670493 13.5059447,3.55200493 13.6450947,3.90965492 C13.7497447,4.18105491 13.8750947,4.5858549 13.9095947,5.33450489 C13.9463947,6.14295487 13.9544447,6.38560487 13.9544447,8.43260483 C13.9544447,10.4796048 13.9463947,10.7222548 13.9095947,11.5307048 C13.8750947,12.2782047 13.7497447,12.6841547 13.6450947,12.9544047 C13.5059447,13.3120547 13.3403447,13.5685047 13.0712447,13.8364547 C12.8032947,14.1044047 12.5479947,14.2700047 12.1903447,14.4091547 C11.9189448,14.5149547 11.5141448,14.6391547 10.7654948,14.6736547 C9.95704479,14.7104547 9.7155448,14.7185047 7.66739484,14.7185047 C5.62039488,14.7185047 5.37774489,14.7104547 4.56929491,14.6736547 C3.82179492,14.6391547 3.41584493,14.5149547 3.14559493,14.4091547 C2.78794494,14.2700047 2.53149495,14.1044047 2.26354495,13.8364547 C1.99559496,13.5685047 1.82999496,13.3120547 1.69084496,12.9544047 C1.58504497,12.6841547 1.46084497,12.2782047 1.42634497,11.5307048 C1.38954497,10.7222548 1.38149497,10.4796048 1.38149497,8.43260483 C1.38149497,6.38560487 1.38954497,6.14295487 1.42634497,5.33450489 C1.46084497,4.5858549 1.58504497,4.18105491 1.69084496,3.90965492 C1.82999496,3.55200493 1.99559496,3.29670493 2.26354495,3.02875494 C2.53149495,2.75965494 2.78794494,2.59405495 3.14559493,2.45490495 C3.41584493,2.35025495 3.82179492,2.22490495 4.56929491,2.19040495 C5.37774489,2.15360496 5.62039488,2.14555496 7.66739484,2.14555496" id="Fill-1" fill="#434244" mask="url(#mask-2)"></path>
            </g>
            <path d="M7.66739484,11.3741898 C6.25519487,11.3741898 5.11094489,10.2299398 5.11094489,8.81773982 C5.11094489,7.40668985 6.25519487,6.26243987 7.66739484,6.26243987 C9.07959481,6.26243987 10.2238448,7.40668985 10.2238448,8.81773982 C10.2238448,10.2299398 9.07959481,11.3741898 7.66739484,11.3741898 M7.66739484,4.8812899 C5.49274489,4.8812899 3.72979492,6.64308986 3.72979492,8.81773982 C3.72979492,10.9923898 5.49274489,12.7553397 7.66739484,12.7553397 C9.8431948,12.7553397 11.6049948,10.9923898 11.6049948,8.81773982 C11.6049948,6.64308986 9.8431948,4.8812899 7.66739484,4.8812899" id="Fill-4" fill="#434244"></path>
            <path d="M12.6807047,4.7246599 C12.6807047,5.23295989 12.2690047,5.64465988 11.7607048,5.64465988 C11.2524048,5.64465988 10.8407048,5.23295989 10.8407048,4.7246599 C10.8407048,4.21750991 11.2524048,3.80465992 11.7607048,3.80465992 C12.2690047,3.80465992 12.6807047,4.21750991 12.6807047,4.7246599" id="Fill-6" fill="#434244"></path>
        </g>
    </g>
</svg>