<?xml version="1.0" encoding="UTF-8"?>
<svg width="112px" height="24px" viewBox="0 0 112 24" version="1.1" xmlns="http://www.w3.org/2000/svg" xmlns:xlink="http://www.w3.org/1999/xlink">
    <!-- Generator: Sketch 49.1 (51147) - http://www.bohemiancoding.com/sketch -->
    <title>Logo Copy</title>
    <desc>Created with Sketch.</desc>
    <defs>
        <polygon id="path-1" points="0.0315289048 0.000844635193 24.9715763 0.000844635193 24.9715763 17.169909 0.0315289048 17.169909"></polygon>
    </defs>
    <g id="Page-2" stroke="none" stroke-width="1" fill="none" fill-rule="evenodd">
        <g id="Logo-Copy">
            <path d="M14.1029716,14.0187914 L14.1192589,13.985315 C13.972372,13.4024137 13.7438478,12.8504137 13.4336862,12.3319931 C13.1235246,11.8135725 12.780688,11.3285253 12.3586269,10.9271176 C11.8199411,10.4110661 11.1832302,10.0431348 10.4976575,9.77552961 C9.8119842,9.50792446 9.09604883,9.37412189 8.34512603,9.37412189 C6.85966822,9.37412189 5.53969695,9.90933219 4.36430018,10.9772807 L4.36430018,10.960594 C3.46649048,11.8135725 2.88115476,12.833727 2.60366822,14.0187914 L14.1029716,14.0187914 Z M16.7125515,15.2229116 C16.7125515,15.2229116 16.6798765,15.2731777 16.6798765,15.3233408 C16.6798765,15.3735039 16.6472014,15.5073064 16.6472014,15.5073064 C16.4840273,16.1093665 16.0922284,16.4104481 15.4905048,16.4104481 L2.55470592,16.4104481 C2.65263052,17.0436155 2.84847971,17.6289888 3.12596625,18.1808858 C3.40124093,18.7327828 3.80932711,19.21783 4.28266284,19.7027742 C5.42538456,20.8209888 6.76164309,21.4063622 8.36151382,21.4063622 C8.8675246,21.4063622 9.34096086,21.3394094 9.77940969,21.2223966 C10.2200704,21.1052807 10.6608316,20.9380017 11.1015928,20.7205597 L11.0853056,20.7205597 C11.4933917,20.5032206 11.8851907,20.2356155 12.2420022,19.9202163 C12.601126,19.6024481 12.9276754,19.2345167 13.2051619,18.8164223 C13.3847239,18.5655039 13.6622104,18.3983279 14.0377221,18.3146884 L14.217284,18.3146884 C14.4458083,18.3146884 14.6743325,18.3815382 14.8864689,18.5153408 C15.1803433,18.6993064 15.3575928,18.9669116 15.4229429,19.3181562 C15.4415425,19.3683193 15.455618,19.4017957 15.455618,19.4351691 L15.455618,19.5689717 C15.455618,19.8198901 15.3739806,20.0540189 15.2294061,20.2690918 C14.8538944,20.8209888 14.4131332,21.3227227 13.9071224,21.7742936 C13.4010111,22.2258644 12.8460381,22.6104824 12.2606018,22.9283536 C11.0363433,23.5782077 9.74673465,23.9126627 8.39408833,23.9126627 C6.12734506,23.9126627 4.13577594,23.1122163 2.48935583,21.4063622 C0.840623339,19.7027742 0.0593378815,17.6791519 0.0593378815,15.3735039 L0.0593378815,15.1225854 C0.0593378815,12.833727 0.954835189,10.8434781 2.58728043,9.22363262 C4.20112603,7.60131502 6.16002011,6.81765837 8.39408833,6.81765837 C10.6608316,6.81765837 12.601126,7.60131502 14.217284,9.22363262 C15.0171691,10.0263451 15.6187921,10.9438043 16.0432661,11.9305854 C16.46774,12.9173665 16.7125515,14.0021047 16.7125515,15.1895382 L16.7125515,15.2229116 Z" id="Fill-1" fill="#000000"></path>
            <path d="M82.4902822,14.0187914 L82.50667,13.985315 C82.3596826,13.4024137 82.1312589,12.8504137 81.8210973,12.3319931 C81.5108352,11.8135725 81.1680991,11.3285253 80.7459375,10.9271176 C80.2072517,10.4110661 79.5706413,10.0431348 78.884968,9.77552961 C78.1992948,9.50792446 77.4833594,9.37412189 76.7324366,9.37412189 C75.2469788,9.37412189 73.9270075,9.90933219 72.7517113,10.9772807 L72.7517113,10.960594 C71.8538011,11.8135725 71.2685659,12.833727 70.9909788,14.0187914 L82.4902822,14.0187914 Z M71.5133774,18.1808858 C71.7885515,18.7327828 72.1966377,19.21783 72.670074,19.7027742 C73.8126952,20.8209888 75.1489537,21.4063622 76.7488244,21.4063622 C77.2549357,21.4063622 77.7282715,21.3394094 78.1667203,21.2223966 C78.6074815,21.1052807 79.0482427,20.9380017 79.4889034,20.7205597 L79.4726162,20.7205597 C79.8808029,20.5032206 80.2725013,20.2356155 80.6293127,19.9202163 C80.9884366,19.6024481 81.314986,19.2345167 81.5924725,18.8164223 C81.7720345,18.5655039 82.049521,18.3983279 82.4250327,18.3146884 L82.6045946,18.3146884 C82.8331189,18.3146884 83.0617436,18.3815382 83.2738801,18.5153408 C83.5677544,18.6993064 83.7449034,18.9669116 83.8102535,19.3181562 C83.8288531,19.3683193 83.8429285,19.4017957 83.8429285,19.4351691 L83.8429285,19.5689717 C83.8429285,19.8198901 83.7612912,20.0540189 83.6167167,20.2690918 C83.2413056,20.8209888 82.8004438,21.3227227 82.294433,21.7742936 C81.7884223,22.2258644 81.2333487,22.6104824 80.6480129,22.9283536 C79.4236539,23.5782077 78.1340452,23.9126627 76.7814995,23.9126627 C74.5147562,23.9126627 72.5230865,23.1122163 70.8766664,21.4063622 C69.2279339,19.7027742 68.4466485,17.6791519 68.4466485,15.3735039 L68.4466485,15.1225854 C68.4466485,12.833727 69.3422463,10.8434781 70.9746916,9.22363262 C72.5884366,7.60131502 74.5473307,6.81765837 76.7814995,6.81765837 C79.0482427,6.81765837 80.9884366,7.60131502 82.6045946,9.22363262 C83.4044797,10.0263451 84.0061027,10.9438043 84.4305767,11.9305854 C84.8550506,12.9173665 85.0998621,14.0021047 85.0998621,15.1895382 L85.0998621,15.2229116 C85.0998621,15.2229116 85.0672876,15.2731777 85.0672876,15.3233408 C85.0672876,15.3735039 85.0346126,15.5073064 85.0346126,15.5073064 C84.8713379,16.1093665 84.479539,16.4104481 83.877916,16.4104481 L70.9420165,16.4104481 C71.0399411,17.0436155 71.2358908,17.6289888 71.5133774,18.1808858 Z" id="Fill-3" fill="#000000"></path>
            <path d="M66.3339102,7.27844807 C66.0276697,6.93194163 65.6896589,6.76589871 65.3352603,6.76332361 C65.0300251,6.76589871 64.7566607,6.91453391 64.515368,7.14546953 C64.2554758,7.39504893 64.1254794,7.66110901 64.1254794,8.01039657 L64.1254794,22.660285 C64.1254794,22.6788258 64.1273896,22.6965425 64.1280934,22.7147742 L64.1280934,22.7208515 C64.1280934,23.0867227 64.2429084,23.3529888 64.4891275,23.5857785 C64.7518348,23.8186712 65.01414,23.9352721 65.3260108,23.9352721 C65.6212926,23.9352721 65.9002873,23.8354609 66.1465063,23.6025682 C66.3159138,23.4737099 66.4299246,23.3027227 66.4899461,23.0951691 C66.52986,22.9833064 66.5450413,22.8447657 66.5450413,22.6768687 L66.5450413,8.02708326 C66.5450413,7.84414764 66.5286535,7.6943794 66.4797917,7.57798455 C66.4313321,7.4614867 66.3825709,7.36167554 66.3339102,7.27844807" id="Fill-5" fill="#000000"></path>
            <path d="M49.5981544,19.620206 C48.4409551,18.4346266 47.8544129,16.9985408 47.8544129,15.3120515 C47.8544129,13.6255622 48.4409551,12.1894764 49.5981544,11.004 C50.7553537,9.8184206 52.1570628,9.21718455 53.8031813,9.21718455 C55.4818743,9.21718455 56.8673968,9.8184206 58.0082083,11.004 C59.1489192,12.2062661 59.735763,13.6255622 59.735763,15.3287382 C59.735763,16.4863004 59.4669228,17.5258197 58.924316,18.4473991 C58.8668079,18.5449442 58.8055799,18.6407382 58.7420395,18.7356052 C58.7244452,18.7618712 58.7058456,18.7876223 58.6877487,18.8135794 C58.6406966,18.8814592 58.5924381,18.948618 58.5421688,19.0150558 C58.5191454,19.0456481 58.4957199,19.0759313 58.4719928,19.1062146 C58.421623,19.1703863 58.3694434,19.2337339 58.316158,19.2965665 C58.2931346,19.3235536 58.2708151,19.3508498 58.2471885,19.3776309 C58.1704776,19.4649785 58.0915548,19.5515021 58.008711,19.6362747 C58.0086104,19.6364807 58.0084093,19.6366867 58.0082083,19.6368927 C57.791246,19.859073 57.5656373,20.0608584 57.3314829,20.2419399 C57.253465,20.3023004 57.1743411,20.3603948 57.0944129,20.4162232 C56.9345566,20.5277768 56.7707792,20.6300601 56.6031813,20.723176 C56.5194327,20.7697339 56.4345781,20.8139227 56.3490197,20.8559485 C56.0295081,21.012309 55.6960215,21.1351931 55.3500682,21.227073 C54.8608474,21.3569614 54.3455871,21.4236052 53.8031813,21.4236052 C53.399921,21.4236052 53.0097307,21.3860086 52.6328115,21.3109185 C52.1616876,21.2168755 51.7112747,21.0643262 51.2814722,20.8529614 C51.0236912,20.7261631 50.7732496,20.5782489 50.5302478,20.4091159 C50.2063124,20.1837425 49.8956481,19.9207725 49.5981544,19.620206 M60.9744991,5.15021459e-05 C60.648553,5.15021459e-05 60.3714686,0.116961373 60.1268582,0.350678112 C59.8825494,0.63455794 59.7519497,0.935124464 59.7519497,1.25237768 L59.7519497,9.26734764 C59.5238276,9.0336309 59.2795189,8.81649785 59.0186212,8.59936481 C58.7577235,8.38243777 58.4807397,8.18209442 58.1710808,7.99833476 C56.8509084,7.18017167 55.4004381,6.76269528 53.8031813,6.76269528 C51.5051706,6.76269528 49.5492926,7.61423176 47.9031741,9.30072103 C46.2569551,10.9872103 45.4258025,12.9910558 45.4258025,15.3622146 C45.4258025,16.9383863 45.7953824,18.3515021 46.5252926,19.6178369 C46.5252926,19.6178369 46.5252926,19.6178369 46.5252926,19.6179399 C46.6522729,19.8380601 46.7903124,20.0537511 46.9391095,20.2651159 C46.9583124,20.292412 46.9772136,20.3197082 46.9967181,20.3467983 C47.0378384,20.4038627 47.0795619,20.460618 47.1223914,20.5170644 C47.1653214,20.5739227 47.2095583,20.6302661 47.2541975,20.6864034 C47.2953178,20.7381116 47.3368402,20.7897167 47.3794686,20.8409099 C47.4395907,20.9135279 47.5012208,20.9855279 47.564158,21.0570129 C47.5900969,21.0863691 47.6161364,21.1156223 47.6424776,21.1447725 C47.7272316,21.2385064 47.8134937,21.3317253 47.9031741,21.4236052 C48.2117271,21.7398283 48.5313393,22.0255622 48.8619102,22.2810129 C49.0823914,22.451279 49.3076984,22.6082575 49.5380323,22.7518455 C49.7683662,22.8954335 50.0038276,23.0257339 50.2442154,23.1427468 C51.3261113,23.6695107 52.5105566,23.9283605 53.8031813,23.9283605 C55.1049551,23.9283605 56.2985494,23.6695107 57.383763,23.1427468 C57.6249551,23.0257339 57.8608187,22.8954335 58.0912531,22.7518455 C58.3217882,22.6082575 58.5468941,22.451279 58.7665709,22.2810129 C59.0963375,22.0255622 59.413939,21.7398283 59.7195763,21.4236052 C59.8052352,21.3357425 59.8878779,21.2465408 59.9688115,21.156721 C60.0012855,21.1209785 60.0332567,21.085133 60.0649264,21.0491845 C60.1013214,21.0076738 60.1366104,20.9657511 60.172,20.9237253 C61.5163016,19.3420944 62.1968474,17.4888412 62.1968474,15.3622146 L62.1968474,15.3287382 L62.1968474,1.23569099 C62.1968474,0.884961373 62.0828366,0.58439485 61.854614,0.350678112 C61.6100036,0.116961373 61.3167325,5.15021459e-05 60.9744991,5.15021459e-05" id="Fill-7" fill="#000000"></path>
            <g id="Group-11" transform="translate(86.965889, 6.771296)">
                <mask id="mask-2" fill="white">
                    <use xlink:href="#path-1"></use>
                </mask>
                <g id="Clip-10"></g>
                <path d="M22.9548323,2.08390043 C21.6593925,0.723213734 20.0690729,0.000844635193 18.1504948,0.000844635193 C16.7566276,0.000844635193 15.4612883,0.420793133 14.280563,1.22721373 C13.9362183,1.46226953 13.6248503,1.71432103 13.3295684,2.01674163 C13.0344876,2.31916223 12.7720819,2.65516223 12.526265,3.00784893 C12.3130226,2.68874163 12.0506169,2.36953133 11.7389472,2.06711073 C11.4275792,1.76469013 11.0996223,1.49595193 10.7552776,1.24400343 C9.59114111,0.420793133 8.29560072,0.0175313305 6.86905853,0.0175313305 C5.01623268,0.0175313305 3.40932424,0.68953133 2.06462047,2.03353133 C0.736505566,3.36074163 0.0315289048,4.99016652 0.0315289048,6.90542833 L0.0315289048,12.2446558 L0.0315289048,15.920776 L0.0315289048,15.9267502 C0.0315289048,16.2457545 0.146343986,16.5313854 0.35928474,16.7834369 C0.57252711,17.0353854 0.867808977,17.1529133 1.24482873,17.1529133 C1.55639785,17.1529133 1.83519138,17.0520721 2.08120934,16.8002266 C2.31073896,16.5817545 2.42555404,16.2962266 2.42555404,15.9435399 L2.42555404,15.9375657 L2.42555404,12.2446558 L2.42555404,7.02295622 C2.42555404,5.76290472 2.88451275,4.72142833 3.73738169,3.83105923 C4.60623627,2.94069013 5.63937092,2.47026953 6.86905853,2.47026953 C8.08235835,2.47026953 9.13188079,2.92390043 10.0009364,3.83105923 C10.8700926,4.72142833 11.2962758,5.77979742 11.2962758,7.02295622 L11.2962758,12.2446558 L11.2962758,15.9375657 L11.2962758,15.9435399 C11.2962758,16.3465957 11.4275792,16.6322266 11.6899849,16.8673854 C11.9195145,17.0858575 12.1817192,17.169909 12.4770011,17.169909 C12.8212452,17.169909 13.1000388,17.0690678 13.3295684,16.8170163 C13.559098,16.5650678 13.6741142,16.2794369 13.6741142,15.9435399 L13.6741142,15.9375657 L13.6741142,12.2446558 L13.6741142,7.02295622 C13.6741142,5.76290472 14.1167856,4.72142833 14.9856402,3.83105923 C15.8710837,2.92390043 16.9041178,2.47026953 18.1339059,2.47026953 C19.3638952,2.47026953 20.4133171,2.92390043 21.2821716,3.83105923 C22.1350406,4.70463863 22.5611232,5.76290472 22.5611232,7.02295622 L22.5611232,12.2446558 L22.5611232,15.9375657 L22.5611232,15.9435399 C22.5611232,16.3129133 22.6759382,16.5817545 22.9220567,16.8170163 C23.1843619,17.0520721 23.4465666,17.169909 23.7581357,17.169909 C24.0533171,17.169909 24.3320101,17.0690678 24.5781285,16.833909 C24.8405343,16.6322266 24.9716366,16.329909 24.9716366,15.9435399 L24.9716366,15.9375657 L24.9716366,12.2446558 L24.9716366,7.02295622 C24.9716366,5.12469013 24.299335,3.47837253 22.9548323,2.08390043" id="Fill-9" fill="#000000" mask="url(#mask-2)"></path>
            </g>
            <path d="M36.7375583,6.78998112 C35.3448977,6.78998112 34.0507648,7.2096206 32.8711454,8.01521717 C32.5272029,8.25006695 32.2160359,8.50191245 31.9210557,8.80402403 C31.6262765,9.10613562 31.3640718,9.44182661 31.118456,9.7943073 C30.9055153,9.47540601 30.6433106,9.15650472 30.3319425,8.85439313 C30.0208761,8.55228155 29.6932208,8.28374936 29.3492783,8.03200687 C28.1861472,7.2096206 26.8918133,6.80677082 25.4665781,6.80677082 C23.6154614,6.80677082 22.0101616,7.47804979 20.6666643,8.82081373 C19.3397558,10.146788 18.6354829,11.7747708 18.6354829,13.6880755 L18.6354829,19.0224618 L18.6354829,22.6951828 L18.6354829,22.7011571 C18.6354829,23.0198524 18.7500969,23.3051742 18.9629372,23.5570197 C19.1758779,23.8086592 19.4709587,23.9261871 19.8474758,23.9261871 C20.1588438,23.9261871 20.4373357,23.8254489 20.6831526,23.5738094 C20.9124811,23.3555433 21.0271957,23.0702215 21.0271957,22.7178438 L21.0271957,22.7118695 L21.0271957,19.0224618 L21.0271957,13.8056034 C21.0271957,12.546788 21.4857522,11.5062386 22.3377163,10.6165906 C23.2058671,9.7271485 24.2379964,9.25713991 25.4665781,9.25713991 C26.6788725,9.25713991 27.727289,9.7103588 28.5956409,10.6165906 C29.4638923,11.5062386 29.8896732,12.5635777 29.8896732,13.8056034 L29.8896732,19.0224618 L29.8896732,22.7118695 L29.8896732,22.7178438 C29.8896732,23.1205906 30.0208761,23.4059124 30.2829803,23.6408652 C30.5124093,23.8590283 30.7743124,23.9430798 31.0692926,23.9430798 C31.4132352,23.9430798 31.6917271,23.8423416 31.9210557,23.5904961 C32.1503842,23.3388567 32.2652998,23.0535348 32.2652998,22.7178438 L32.2652998,22.7118695 L32.2652998,19.0224618 L32.2652998,13.8056034 C32.2652998,12.546788 32.7075691,11.5062386 33.5756194,10.6165906 C34.4602585,9.7103588 35.4923878,9.25713991 36.7209695,9.25713991 C37.9498528,9.25713991 38.9982693,9.7103588 39.8663196,10.6165906 C40.7182837,11.4894489 41.1440646,12.546788 41.1440646,13.8056034 L41.1440646,19.0224618 L41.1440646,22.7118695 L41.1440646,22.7178438 C41.1440646,23.0869082 41.2587792,23.3555433 41.5045961,23.5904961 C41.7667002,23.8254489 42.0287038,23.9430798 42.3400718,23.9430798 C42.634851,23.9430798 42.9133429,23.8423416 43.1591598,23.6073888 C43.4213645,23.4059124 43.5523662,23.1039039 43.5523662,22.7178438 L43.5523662,22.7118695 L43.5523662,19.0224618 L43.5523662,13.8056034 C43.5523662,11.9089854 42.8807684,10.2642129 41.5374722,8.87107983 C40.2431382,7.51162918 38.6542262,6.78998112 36.7375583,6.78998112" id="Fill-12" fill="#000000"></path>
        </g>
    </g>
</svg>