<?xml version="1.0" encoding="UTF-8"?>
<svg width="20px" height="17px" viewBox="0 0 20 17" version="1.1" xmlns="http://www.w3.org/2000/svg" xmlns:xlink="http://www.w3.org/1999/xlink">
    <!-- Generator: Sketch 49.1 (51147) - http://www.bohemiancoding.com/sketch -->
    <title>Vimeo</title>
    <desc>Created with Sketch.</desc>
    <defs>
        <polygon id="path-1" points="0 0.000100454681 19.0519551 0.000100454681 19.0519551 16.4868833 0 16.4868833"></polygon>
    </defs>
    <g id="Page-2" stroke="none" stroke-width="1" fill="none" fill-rule="evenodd">
        <g id="1_PE" transform="translate(-504.000000, -972.000000)">
            <g id="Vimeo" transform="translate(504.000000, 972.000000)">
                <mask id="mask-2" fill="white">
                    <use xlink:href="#path-1"></use>
                </mask>
                <g id="Clip-2"></g>
                <path d="M16.2753042,0.00354166667 C13.6346375,-0.0814583333 11.8460958,1.40816667 10.9096792,4.47666667 C11.3927625,4.269125 11.8630958,4.16429167 12.3199708,4.16429167 C13.2882625,4.16429167 13.7168042,4.71041667 13.6027625,5.79841667 C13.5453875,6.45575 13.1175542,7.41483333 12.3199708,8.67566667 C11.5209708,9.93579167 10.9217208,10.5655 10.5236375,10.5655 C10.0086792,10.5655 9.53905417,9.59579167 9.1126375,7.65283333 C8.9681375,7.082625 8.71172083,5.62629167 8.34197083,3.28525 C7.99842917,1.1135 7.08680417,0.100583333 5.6042625,0.242958333 C4.97667917,0.300333333 4.03459583,0.87125 2.7801375,1.95429167 C1.86709583,2.781625 0.940595833,3.60895833 -7.08333333e-05,4.434875 L0.896679167,5.59016667 C1.75022083,4.99233333 2.24959583,4.692 2.3912625,4.692 C3.0457625,4.692 3.65705417,5.71908333 4.2272625,7.76970833 C4.74009583,9.649625 5.25222083,11.5288333 5.76505417,13.410875 C6.53217917,15.4615 7.4721375,16.4871667 8.5835125,16.4871667 C10.3763042,16.4871667 12.5671792,14.8034583 15.1582625,11.4353333 C17.6629292,8.21029167 18.9577625,5.67020833 19.0427625,3.81508333 C19.1553875,1.33166667 18.2331375,0.061625 16.2753042,0.00354166667" id="Fill-1" fill="#434244" mask="url(#mask-2)"></path>
            </g>
        </g>
    </g>
</svg>