<?xml version="1.0" encoding="utf-8"?>
<!-- Generator: Adobe Illustrator 22.1.0, SVG Export Plug-In . SVG Version: 6.00 Build 0)  -->
<svg version="1.1" id="Capa_1" xmlns="http://www.w3.org/2000/svg" xmlns:xlink="http://www.w3.org/1999/xlink" x="0px" y="0px"
	 viewBox="0 0 240.5 455" style="enable-background:new 0 0 240.5 455;" xml:space="preserve">
<style type="text/css">
	.st0{fill:url(#SVGID_1_);}
	.st1{fill:#F0F0F0;}
</style>
<g>
	<g>
		
			<linearGradient id="SVGID_1_" gradientUnits="userSpaceOnUse" x1="0" y1="227.5" x2="240.5" y2="227.5" gradientTransform="matrix(1 0 0 -1 0 455)">
			<stop  offset="0" style="stop-color:#DBE8F9"/>
			<stop  offset="1" style="stop-color:#A8C8ED"/>
		</linearGradient>
		<path class="st0" d="M240.4,437.6c0,9.6-7.8,17.4-17.4,17.4H17.4C7.8,455,0,447.2,0,437.6V17.4C0,7.8,7.8,0,17.4,0h205.7
			c9.6,0,17.4,7.8,17.4,17.4v420.2H240.4z"/>
		<circle class="st1" cx="120.2" cy="109.9" r="47.8"/>
		<g>
			<path class="st1" d="M83.9,206.7H55.1c-2.5,0-4.5-2-4.5-4.5l0,0c0-2.5,2-4.5,4.5-4.5h28.8c2.5,0,4.5,2,4.5,4.5l0,0
				C88.4,204.7,86.4,206.7,83.9,206.7z"/>
			<path class="st1" d="M134.6,206.7h-28.8c-2.5,0-4.5-2-4.5-4.5l0,0c0-2.5,2-4.5,4.5-4.5h28.8c2.5,0,4.5,2,4.5,4.5l0,0
				C139.1,204.7,137.1,206.7,134.6,206.7z"/>
			<path class="st1" d="M185.3,206.7h-28.8c-2.5,0-4.5-2-4.5-4.5l0,0c0-2.5,2-4.5,4.5-4.5h28.8c2.5,0,4.5,2,4.5,4.5l0,0
				C189.8,204.7,187.8,206.7,185.3,206.7z"/>
		</g>
		<g>
			<g>
				<path class="st1" d="M92.2,249.9H63.4c-2.5,0-4.5-2-4.5-4.5l0,0c0-2.5,2-4.5,4.5-4.5h28.8c2.5,0,4.5,2,4.5,4.5l0,0
					C96.7,247.9,94.7,249.9,92.2,249.9z"/>
				<path class="st1" d="M114.3,267h-51c-2.5,0-4.5-2-4.5-4.5l0,0c0-2.5,2-4.5,4.5-4.5h51c2.5,0,4.5,2,4.5,4.5l0,0
					C118.8,265,116.8,267,114.3,267z"/>
			</g>
			<circle class="st1" cx="37.2" cy="254" r="17.1"/>
			<path class="st1" d="M211.1,236.9h-38.5c-5.1,0-9.3,4.2-9.3,9.3v15.7c0,5.1,4.2,9.3,9.3,9.3h38.5c5.1,0,9.3-4.2,9.3-9.3v-15.7
				C220.4,241,216.2,236.9,211.1,236.9z"/>
		</g>
		<g>
			<g>
				<path class="st1" d="M92.2,304.2H63.4c-2.5,0-4.5-2-4.5-4.5l0,0c0-2.5,2-4.5,4.5-4.5h28.8c2.5,0,4.5,2,4.5,4.5l0,0
					C96.7,302.2,94.7,304.2,92.2,304.2z"/>
				<path class="st1" d="M114.3,321.3h-51c-2.5,0-4.5-2-4.5-4.5l0,0c0-2.5,2-4.5,4.5-4.5h51c2.5,0,4.5,2,4.5,4.5l0,0
					C118.8,319.3,116.8,321.3,114.3,321.3z"/>
			</g>
			<circle class="st1" cx="37.2" cy="308.3" r="17.1"/>
			<path class="st1" d="M211.1,291.2h-38.5c-5.1,0-9.3,4.2-9.3,9.3v15.7c0,5.1,4.2,9.3,9.3,9.3h38.5c5.1,0,9.3-4.2,9.3-9.3v-15.7
				C220.4,295.3,216.2,291.2,211.1,291.2z"/>
		</g>
		<g>
			<g>
				<path class="st1" d="M92.2,358.5H63.4c-2.5,0-4.5-2-4.5-4.5l0,0c0-2.5,2-4.5,4.5-4.5h28.8c2.5,0,4.5,2,4.5,4.5l0,0
					C96.7,356.5,94.7,358.5,92.2,358.5z"/>
				<path class="st1" d="M114.3,375.6h-51c-2.5,0-4.5-2-4.5-4.5l0,0c0-2.5,2-4.5,4.5-4.5h51c2.5,0,4.5,2,4.5,4.5l0,0
					C118.8,373.6,116.8,375.6,114.3,375.6z"/>
			</g>
			<circle class="st1" cx="37.2" cy="362.6" r="17.1"/>
			<path class="st1" d="M211.1,345.5h-38.5c-5.1,0-9.3,4.2-9.3,9.3v15.7c0,5.1,4.2,9.3,9.3,9.3h38.5c5.1,0,9.3-4.2,9.3-9.3v-15.7
				C220.4,349.7,216.2,345.5,211.1,345.5z"/>
		</g>
		<g>
			<g>
				<path class="st1" d="M92.2,412.8H63.4c-2.5,0-4.5-2-4.5-4.5l0,0c0-2.5,2-4.5,4.5-4.5h28.8c2.5,0,4.5,2,4.5,4.5l0,0
					C96.7,410.8,94.7,412.8,92.2,412.8z"/>
				<path class="st1" d="M114.3,429.9h-51c-2.5,0-4.5-2-4.5-4.5l0,0c0-2.5,2-4.5,4.5-4.5h51c2.5,0,4.5,2,4.5,4.5l0,0
					C118.8,427.9,116.8,429.9,114.3,429.9z"/>
			</g>
			<circle class="st1" cx="37.2" cy="416.9" r="17.1"/>
			<path class="st1" d="M211.1,399.8h-38.5c-5.1,0-9.3,4.2-9.3,9.3v15.7c0,5.1,4.2,9.3,9.3,9.3h38.5c5.1,0,9.3-4.2,9.3-9.3v-15.7
				C220.4,404,216.2,399.8,211.1,399.8z"/>
		</g>
	</g>
	<g>
		<path class="st1" d="M217.4,22.1h-15.8c-1,0-1.9-0.8-1.9-1.9l0,0c0-1,0.8-1.9,1.9-1.9h15.8c1,0,1.9,0.8,1.9,1.9l0,0
			C219.3,21.2,218.4,22.1,217.4,22.1z"/>
		<path class="st1" d="M217.4,27.8h-15.8c-1,0-1.9-0.8-1.9-1.9l0,0c0-1,0.8-1.9,1.9-1.9h15.8c1,0,1.9,0.8,1.9,1.9l0,0
			C219.3,26.9,218.4,27.8,217.4,27.8z"/>
		<path class="st1" d="M217.4,33.5h-15.8c-1,0-1.9-0.8-1.9-1.9l0,0c0-1,0.8-1.9,1.9-1.9h15.8c1,0,1.9,0.8,1.9,1.9l0,0
			C219.3,32.7,218.4,33.5,217.4,33.5z"/>
	</g>
</g>
</svg>
