<?xml version="1.0" encoding="utf-8"?>
<!-- Generator: Adobe Illustrator 22.1.0, SVG Export Plug-In . SVG Version: 6.00 Build 0)  -->
<svg version="1.1" id="Capa_1" xmlns="http://www.w3.org/2000/svg" xmlns:xlink="http://www.w3.org/1999/xlink" x="0px" y="0px"
	 viewBox="0 0 156.2 375.6" style="enable-background:new 0 0 156.2 375.6;" xml:space="preserve">
<style type="text/css">
	.st0{fill:#86535E;}
	.st1{opacity:7.000000e-02;fill:#13003A;enable-background:new    ;}
	.st2{fill:url(#SVGID_1_);}
	.st3{opacity:4.000000e-02;fill:#13003A;enable-background:new    ;}
	.st4{fill:url(#SVGID_2_);}
	.st5{opacity:0.13;fill:#13003A;enable-background:new    ;}
	.st6{fill:url(#SVGID_3_);}
	.st7{fill:url(#SVGID_4_);}
	.st8{fill:url(#SVGID_5_);}
	.st9{fill:url(#SVGID_6_);}
	.st10{fill:url(#SVGID_7_);}
	.st11{fill:url(#SVGID_8_);}
	.st12{fill:url(#SVGID_9_);}
	.st13{opacity:0.1;fill:#13003A;enable-background:new    ;}
	.st14{opacity:0.2;}
	.st15{fill:#13003A;}
	.st16{opacity:0.15;fill:#0F0038;enable-background:new    ;}
	.st17{fill:#560C10;}
	.st18{fill:none;}
	.st19{fill:#F0F0F3;}
	.st20{fill:#72393C;}
</style>
<g>
	<path class="st0" d="M111.6,55.3c0,0,22.2-11.5,24.3-15.5s-0.7-8,1.2-11.5s0.5-7.3,1.5-7.5s3.2,1.7,3,4.4c-0.2,2.6,0.6,6.5,3.8,5.2
		c3.1-1.3,6-4,7.9-3.3s0.6,4.2,0.6,4.2s1.3,1.9,0.8,5c0,0,1.7,1.2,1.5,3.3c-0.3,2.2-0.5,3.3-2.3,4.7s-4.6,2.6-7.9,3.3
		c-3.3,0.7-14.8,11.5-22.5,20.4C123.5,67.9,109.6,69,111.6,55.3z"/>
	<path class="st0" d="M12.1,148.2c0,0,12.6,9.4,19.3,11.5l3.9-5.9l4.9-7.5c0,0-10.1-5.4-16.1-9l-6.6,5.9L12.1,148.2z"/>
	<path class="st1" d="M35.3,153.8l4.9-7.5c0,0-10.1-5.4-16.1-9l-6.6,5.9C17.6,143.3,27.6,150.4,35.3,153.8z"/>
	
		<linearGradient id="SVGID_1_" gradientUnits="userSpaceOnUse" x1="36.6012" y1="241.6091" x2="5.3653" y2="283.8531" gradientTransform="matrix(1 0 0 -1 0 375.592)">
		<stop  offset="0" style="stop-color:#EED85E"/>
		<stop  offset="1" style="stop-color:#E4B542"/>
	</linearGradient>
	<path class="st2" d="M33.3,71.1c0,0-11.9,11.3-28.6,49.4c-14.5,33,9.3,29.6,9.3,29.6s3.4-1.6,6.5-4.3c2.4-2.1,4.6-4.9,4.8-8.2
		c0,0,2.6-2.8-1-6.1c0,0,4.2-8.6,9.1-10.7c2.8-1.2,4.7-14.9,4.5-27.7C37.6,83.4,36.3,74.3,33.3,71.1z"/>
	<path class="st3" d="M31.1,122.2c-3.9,3.2-6.9,9.4-6.9,9.4c3.6,3.3,1,6.1,1,6.1c-0.1,3.2-2.3,6.1-4.8,8.2c0,0-5.9-3.8-6.8-10.9
		c-1-7.1,6.5-14.2,12-24.3c2.7-5.1,4-9.6,4.6-12.8C30.2,97.8,31.9,115.4,31.1,122.2z"/>
	<path class="st0" d="M45,337c-2.6,7.5-4.8,13.7-6,17c-0.5,1.5,0,3.1,1.3,4c7.8,5.3,17.4,10.4,17.4,10.4c-29.3,7.6-39.1-10-39.1-10
		c1.8-2.3,4.9-16.3,6.9-30.8C25.5,327.6,40.1,325.6,45,337z"/>
	
		<linearGradient id="SVGID_2_" gradientUnits="userSpaceOnUse" x1="67.4603" y1="133.1559" x2="23.807" y2="132.4153" gradientTransform="matrix(1 0 0 -1 0 375.592)">
		<stop  offset="0" style="stop-color:#243682"/>
		<stop  offset="1" style="stop-color:#13003A"/>
	</linearGradient>
	<path class="st4" d="M25.3,327.7c0-0.1-0.1-0.1,0-0.2c0.9-7,1.8-14.1,1.9-20.1c0.2-18.3,10-35.9,10-35.9c7.1-10.7-5.6-47.9-12-73.3
		c-6.4-25.4,10-48.4,10-48.4c36.6-12.2,25,45.8,30.4,81.5c5.4,35.7-1.1,47.7-3.3,55.3c-1.3,4.6-8.3,29.7-12.5,48.6
		c-0.3,1.1-1.2,2-2.3,2.1C43,337.9,31.5,338.1,25.3,327.7z"/>
	<path class="st5" d="M47.5,337.4c1.2-0.1,2.1-1,2.3-2.1c4.3-18.9,11.2-44,12.5-48.6c2.2-7.6,8.7-19.6,3.3-55.3l-29.4-31.6
		c0,0,4,20.4,12.9,36.3c8.9,15.8,8.9,24.5,2.5,38.7C45.2,288.9,45.8,320.1,47.5,337.4z"/>
	
		<linearGradient id="SVGID_3_" gradientUnits="userSpaceOnUse" x1="17.1668" y1="10.4093" x2="63.1925" y2="10.4093" gradientTransform="matrix(1 0 0 -1 0 375.592)">
		<stop  offset="0" style="stop-color:#243682"/>
		<stop  offset="1" style="stop-color:#13003A"/>
	</linearGradient>
	<path class="st6" d="M20.1,354.8c0,0-2.7,1.3-2.7,8.5s-1.6,8.9,3.9,9.9s37.1,4.8,41.2,0s-9.6-7.5-9.6-7.5S31.4,373.3,20.1,354.8z"
		/>
	<g>
		<path class="st0" d="M108.1,332.9c0,11.9,4,23.6,4,23.6c8.1,5.9,19.5,12,19.5,12c-29.3,7.6-39.1-10-39.1-10
			c1.8-2.3-1.1-15.8-4.4-30.8C88.2,327.6,103.2,321.5,108.1,332.9z"/>
		
			<linearGradient id="SVGID_4_" gradientUnits="userSpaceOnUse" x1="91.0668" y1="9.7093" x2="137.0925" y2="9.7093" gradientTransform="matrix(1 0 0 -1 0 375.592)">
			<stop  offset="0" style="stop-color:#243682"/>
			<stop  offset="1" style="stop-color:#13003A"/>
		</linearGradient>
		<path class="st7" d="M93.1,356.1c0,0-1.8,0.1-1.8,7.3s-1.6,8.9,3.9,9.9s37.1,4.8,41.2,0s-9.6-7.5-9.6-7.5S104.4,374.6,93.1,356.1z
			"/>
		
			<linearGradient id="SVGID_5_" gradientUnits="userSpaceOnUse" x1="111.8249" y1="130.4897" x2="30.1337" y2="132.3249" gradientTransform="matrix(1 0 0 -1 0 375.592)">
			<stop  offset="0" style="stop-color:#243682"/>
			<stop  offset="1" style="stop-color:#13003A"/>
		</linearGradient>
		<path class="st8" d="M40.2,150.1c0,0-18.2,33.9-2,58c16.2,24.1,33.3,32.6,35.8,54.4c2.4,21.2,5.9,59.1,12.1,71.6
			c0.3,0.7,0.9,1.2,1.6,1.5c2.2,1,7.7,3.1,13.1,2.5c2.9-0.3,5.8-1.4,8.2-3.8c0.7-0.7,1.1-1.6,1-2.6c-0.6-8.9-4.4-58-10-78.4
			c-6.2-22.5-25.8-94.1-25.9-97.1S40.2,150.1,40.2,150.1z"/>
	</g>
	<path class="st0" d="M44.5,4.2c0,0,6,0.3,9.9,7.7c3.3,6.5,8,10.3,13.1,11.7c1.2,0.3,1.7,1.7,1.1,2.8c-0.7,1.1-1.7,2.4-3,3.5
		c-2.9,2.4,12.1,17.3-8.8,24c0,0-3.4,4.2-2,9.4c0,0,12.5-5.8,18.3-4.6c0,0-12.5,28.3-39.7,13.9c0,0,5.5-5.9,5.2-14.6
		s-21-17.6-19.1-31.8C21.4,12.1,33.8,3.1,44.5,4.2z"/>
	
		<linearGradient id="SVGID_6_" gradientUnits="userSpaceOnUse" x1="51.8115" y1="353.696" x2="55.9101" y2="353.696" gradientTransform="matrix(1 0 0 -1 0 375.592)">
		<stop  offset="0" style="stop-color:#230C12"/>
		<stop  offset="1" style="stop-color:#0B0006"/>
	</linearGradient>
	<path class="st9" d="M55,21c0.9,1.2,1.2,2.5,0.5,3s-1.9,0-2.9-1.2c-0.9-1.2-1.2-2.5-0.5-3S54.1,19.8,55,21z"/>
	<g>
		
			<linearGradient id="SVGID_7_" gradientUnits="userSpaceOnUse" x1="48.9561" y1="355.6656" x2="51.5812" y2="355.6656" gradientTransform="matrix(1 0 0 -1 0 375.592)">
			<stop  offset="0" style="stop-color:#230C12"/>
			<stop  offset="1" style="stop-color:#0B0006"/>
		</linearGradient>
		<path class="st10" d="M50.2,23.4c-0.2,0-0.4-0.1-0.4-0.3c-2.3-4.7,1.1-6.6,1.1-6.6c0.2-0.1,0.5,0,0.7,0.2c0.1,0.2,0,0.5-0.2,0.7
			c-0.1,0.1-2.6,1.5-0.7,5.3c0.1,0.2,0,0.5-0.2,0.7C50.4,23.4,50.3,23.4,50.2,23.4z"/>
	</g>
	
		<linearGradient id="SVGID_8_" gradientUnits="userSpaceOnUse" x1="7.7682" y1="345.0432" x2="55.0984" y2="345.0432" gradientTransform="matrix(1 0 0 -1 0 375.592)">
		<stop  offset="0" style="stop-color:#230C12"/>
		<stop  offset="1" style="stop-color:#0B0006"/>
	</linearGradient>
	<path class="st11" d="M10.5,22.4c0,0-1.6-6.8,14.8-16.9C40.2-3.6,51.8,0.2,55,6.4c0.4,0.8-0.3,1.7-1.2,1.6c-1.6-0.3-4-0.6-5.2,0.1
		c0,0,2.9,0.9,2.8,5c-0.1,4.1-2.4,5.1-3.1,4.7s0.2-2.7-2.1-5.9c0,0,2.4,13-2.5,11.8c0,0,2,10.3-4,9.9c0,0-4.9-2.8-6.3,1.7
		c-1.4,4.6,4.2,7,8.3,6.8c0,0,2.7,1.3,3.9,8.4c1.2,7.2-2,6-2,6s-0.5,2.8-2.7,1.8c0,0-2.9,3.6-5.3,0.4c0,0-1.9,2.6-5.2,2.3
		c-3.3-0.3-1.2-2.4,0-4s0.8-6.3-3.7-7.5s-13.4-3.4-15.5-16.1c0,0-0.5,0.5-0.8,1.6c-0.1,0.4-0.7,0.4-0.8,0c-0.6-1.6-1.1-4.4-0.3-7.9
		c0.1-0.3-2.5-4.1-1.1-8.6c0.1-0.3,0.5-0.3,0.6,0C9,19.8,9.5,21.8,10.5,22.4z"/>
	
		<linearGradient id="SVGID_9_" gradientUnits="userSpaceOnUse" x1="108.4669" y1="258.556" x2="25.4955" y2="287.5398" gradientTransform="matrix(1 0 0 -1 0 375.592)">
		<stop  offset="0" style="stop-color:#EED85E"/>
		<stop  offset="1" style="stop-color:#E4B542"/>
	</linearGradient>
	<path class="st12" d="M123.5,64.7c-0.5-3.1-2.5-8.1-9.1-9.8c-0.5-0.1-0.9-0.2-1.4-0.4c-2.7-0.9-6.3-2.3-8.7,1
		c-2.2,3-5.5,3.3-6.5,3.3c-0.1,0-0.2,0-0.3,0C87.6,58.6,74,56.7,70,58.7c0,0-5.4,13.3-19.6,15.2s-14.2-5.5-14.2-5.5
		s-8.6,5.4-9.4,20.2c-0.8,14.8,6.8,37.7,1.8,47.8c-5,10.1-8.3,17.9,5.5,17.3c4.5-0.2,7.1,0.7,9.2,2c4.2,2.5,6,6.3,17.4,3.7
		c0,0,13.8,4.9,17.1-1s-4.1-26.9-3.4-31.8c0.7-4.9,8-12.4,6.7-22.6c-1.3-10.3-7.8-18.1-8-23.1c0,0,8.8-2.8,22.5-2.8
		c6.9,0,12.1-0.7,16.5-2.5l0,0c12.6-0.8,13.2-4.8,12.5-7C124,67.4,123.7,66.1,123.5,64.7z"/>
	<path class="st13" d="M54.7,63.5c-1.5-5.2,2-9.4,2-9.4s-8.6,1.2-10.8,17.1C45.8,71.1,50.2,65.9,54.7,63.5z"/>
	<g class="st14">
		<path class="st15" d="M151.4,31.8c0.6,0.5,1.1,1,1.6,1.7c0.1,0.2,0.2,0.3,0.3,0.5c0,0.1,0.1,0.2,0.1,0.3c0,0.1,0,0.2,0,0.3
			c0.1,0.4,0.1,0.7,0.3,1.1c0.1,0.4,0.2,0.7,0.4,1c0.1,0.2,0.2,0.3,0.3,0.4l0.1,0.1l0.1,0.1c0.1,0.1,0.1,0.2,0.2,0.3
			c0.4,0.7,0.5,1.5,0.5,2.3c-0.1-0.4-0.2-0.7-0.3-1.1s-0.3-0.7-0.4-1c0-0.1-0.1-0.1-0.2-0.2l-0.2-0.2c-0.2-0.2-0.3-0.3-0.4-0.5
			c-0.2-0.4-0.3-0.7-0.5-1.1c-0.1-0.4-0.2-0.8-0.2-1.2c0-0.1,0-0.2,0-0.3c0-0.1,0-0.2,0-0.2c-0.1-0.2-0.1-0.3-0.2-0.5
			c-0.2-0.3-0.4-0.6-0.6-0.9C151.8,32.4,151.6,32.1,151.4,31.8z"/>
		<path class="st15" d="M153.9,31.1c0,0.3,0,0.6-0.1,0.9c0,0.1-0.1,0.3-0.1,0.4s-0.1,0.3-0.2,0.4c-0.1-0.3,0-0.6,0-0.9
			C153.6,31.7,153.7,31.4,153.9,31.1z"/>
	</g>
	<path class="st3" d="M43.3,155.8c4.2,2.5,6,6.3,17.4,3.7c0,0,13.8,4.9,17.1-1c3.3-5.9-4.1-26.9-3.4-31.8c0.7-4.9,8-12.4,6.7-22.6
		c-1.2-9.7-7.2-17.3-7.9-22.3c0-0.3-0.1-0.5-0.1-0.8c0,0-8.4,6.4-10.8,16.7c0,0,7.2,3.5,5.7,12.9s-5.8,12.5,0.2,23.3
		C74.1,144.7,66.4,167,43.3,155.8z"/>
	<path class="st16" d="M35.5,36.3c0.1-0.2,0.3-0.5,0.5-0.7s0.4-0.4,0.7-0.5c0.3-0.1,0.6-0.2,0.9-0.1c0.3,0,0.6,0.2,0.8,0.3l0.2,0.1
		l-0.2,0.2c-0.1,0.2-0.3,0.4-0.3,0.5c0,0.2,0.1,0.3,0.2,0.5c0.3,0.2,0.9,0.3,1.3,0.6c0.2,0.1,0.5,0.2,0.7,0.4
		c0.1,0.1,0.2,0.2,0.3,0.3c0.1,0.1,0.1,0.3,0.1,0.5c-0.1,0.3-0.3,0.5-0.5,0.7s-0.4,0.3-0.6,0.4c0.3-0.3,0.8-0.7,0.8-1.1
		c0-0.2-0.1-0.4-0.3-0.5c-0.2-0.1-0.4-0.2-0.7-0.3l-0.7-0.2c-0.2-0.1-0.5-0.2-0.7-0.3c-0.2-0.2-0.4-0.5-0.4-0.8
		c0.1-0.3,0.2-0.6,0.4-0.8v0.3c-0.2-0.1-0.4-0.2-0.7-0.3c-0.2-0.1-0.5-0.1-0.7,0C36.2,35.5,35.8,35.9,35.5,36.3z"/>
	<g>
		<path class="st17" d="M64,37.2c0,0-4.8,1.9-9,0.7c0,0,0.2,4.2,4.8,4.4S64,37.2,64,37.2z"/>
		<g>
			<path class="st18" d="M62.9,41.2c0.6-0.7,0.9-1.6,1.1-2.4c-2.9,1.4-6.7,1-8.4,0.8c0.2,0.4,0.5,0.9,0.9,1.3
				C57.8,40.6,60.5,40.2,62.9,41.2z"/>
			<path class="st19" d="M64,37.2c0,0-4.8,1.9-9,0.7c0,0,0,0.8,0.5,1.7c1.7,0.3,5.5,0.6,8.4-0.8C64.1,38,64,37.2,64,37.2z"/>
			<path class="st20" d="M56.5,40.9c0.7,0.7,1.8,1.3,3.4,1.4c1.4,0.1,2.4-0.4,3-1.1C60.5,40.2,57.8,40.6,56.5,40.9z"/>
		</g>
	</g>
</g>
</svg>
