<?xml version="1.0" encoding="utf-8"?>
<!-- Generator: Adobe Illustrator 22.1.0, SVG Export Plug-In . SVG Version: 6.00 Build 0)  -->
<svg version="1.1" id="Capa_1" xmlns="http://www.w3.org/2000/svg" xmlns:xlink="http://www.w3.org/1999/xlink" x="0px" y="0px"
	 viewBox="0 0 227.8 398.9" style="enable-background:new 0 0 227.8 398.9;" xml:space="preserve">
<style type="text/css">
	.st0{fill:url(#SVGID_1_);}
	.st1{fill:url(#SVGID_2_);}
	.st2{fill:url(#SVGID_3_);}
	.st3{opacity:6.000000e-02;fill:#0F0038;enable-background:new    ;}
	.st4{fill:url(#SVGID_4_);}
	.st5{fill:url(#SVGID_5_);}
	.st6{fill:url(#SVGID_6_);}
	.st7{fill:url(#SVGID_7_);}
	.st8{opacity:0.15;fill:#0F0038;enable-background:new    ;}
	.st9{fill:url(#SVGID_8_);}
	.st10{fill:url(#SVGID_9_);}
	.st11{fill:#FFFFFF;}
	.st12{fill:url(#SVGID_10_);}
	.st13{fill:url(#SVGID_11_);}
	.st14{fill:url(#SVGID_12_);}
	.st15{fill:url(#SVGID_13_);}
	.st16{fill:url(#SVGID_14_);}
	.st17{fill:url(#SVGID_15_);}
	.st18{fill:none;stroke:url(#SVGID_16_);stroke-width:0.5565;stroke-miterlimit:10;}
	.st19{fill:url(#SVGID_17_);}
	.st20{opacity:0.13;fill:#13003A;enable-background:new    ;}
	.st21{fill:url(#SVGID_18_);}
	.st22{fill:url(#SVGID_19_);}
	.st23{fill:url(#SVGID_20_);}
	.st24{opacity:0.1;fill:#13003A;enable-background:new    ;}
	.st25{fill:url(#SVGID_21_);}
	.st26{opacity:0.16;fill:#13003A;enable-background:new    ;}
	.st27{fill:#86535E;}
	.st28{fill:url(#SVGID_22_);}
	.st29{opacity:0.1;fill:#0F0038;enable-background:new    ;}
	.st30{fill:#13003A;}
	.st31{fill:url(#SVGID_23_);}
</style>
<g>
	
		<linearGradient id="SVGID_1_" gradientUnits="userSpaceOnUse" x1="40.7732" y1="200.345" x2="53.9784" y2="191.6727" gradientTransform="matrix(1 0 0 -1 0 398.875)">
		<stop  offset="0" style="stop-color:#E6C1AA"/>
		<stop  offset="1" style="stop-color:#CEA28C"/>
	</linearGradient>
	<path class="st0" d="M57.7,199.3c0,0-7.2-0.5-10.9,3.3c-3.7,3.7,1,14.1,8.1,14.2C61.9,217,63.5,202.9,57.7,199.3z"/>
	
		<linearGradient id="SVGID_2_" gradientUnits="userSpaceOnUse" x1="59.9153" y1="187.1" x2="16.9344" y2="187.1" gradientTransform="matrix(1 0 0 -1 0 398.875)">
		<stop  offset="0" style="stop-color:#E9EAEC"/>
		<stop  offset="1" style="stop-color:#BEBFC5"/>
	</linearGradient>
	<circle class="st1" cx="48" cy="211.8" r="11.9"/>
	<g>
		
			<linearGradient id="SVGID_3_" gradientUnits="userSpaceOnUse" x1="50.8558" y1="309.2245" x2="97.069" y2="309.2245" gradientTransform="matrix(1 0 0 -1 0 398.875)">
			<stop  offset="0" style="stop-color:#E6C1AA"/>
			<stop  offset="1" style="stop-color:#CEA28C"/>
		</linearGradient>
		<path class="st2" d="M82.3,59c0,0-7.6,2-13.8,7.5c-0.6,0.6-7.6,1-11.5,1.4c-0.8,0.1-1.3,0.9-1,1.7c0.4,1,0.9,2.1,1.5,3.2
			c0.4,0.8,0.3,1.8-0.2,2.5c-1.5,1.9-4.3,5.5-5.4,7.6c-1.5,3-3.4,3.4,9.8,15c0,0,1.3,7.1,0.8,10.4c0,0,7.7-1,13.9,5.6
			c0.9,1,1.9,1.9,2.7,2.7c4.8,4.3,8.3,4.9,7.7,1.9c0,0-3.6-6.2-2.7-15s11.8-3.8,12.7-10.8C97.8,85.8,96.4,58.2,82.3,59z"/>
		<path class="st3" d="M79.2,116.6c4.8,4.3,8.3,4.9,7.7,1.9c0,0-3.6-6.2-2.7-15c0,0-2.4-4.6-2.7-11.6c0,0-1.7,0.3-2.3-0.6
			c0,0-1.8,4.2-6.9,4.7c0,0,0.6,4.5,1.6,7.3C75,106.3,78,110.9,79.2,116.6z"/>
		
			<linearGradient id="SVGID_4_" gradientUnits="userSpaceOnUse" x1="2073.4551" y1="-2005.5865" x2="2077.5537" y2="-2005.5865" gradientTransform="matrix(-0.1786 0.8749 0.9319 3.668832e-03 2311.8787 -1739.6832)">
			<stop  offset="0" style="stop-color:#230C12"/>
			<stop  offset="1" style="stop-color:#0B0006"/>
		</linearGradient>
		<path class="st4" d="M72.8,70c-1.2,0.8-2.5,1-2.9,0.4s0.3-1.7,1.6-2.5s2.5-1,2.9-0.4S74.1,69.2,72.8,70z"/>
		<g>
			
				<linearGradient id="SVGID_5_" gradientUnits="userSpaceOnUse" x1="58.0063" y1="315.7545" x2="68.5102" y2="315.7545" gradientTransform="matrix(1 0 0 -1 0 398.875)">
				<stop  offset="0" style="stop-color:#230C12"/>
				<stop  offset="1" style="stop-color:#0B0006"/>
			</linearGradient>
			<path class="st5" d="M68,86.6L68,86.6c-5.5-0.2-9.7-5.9-9.9-6.1c-0.2-0.2-0.1-0.5,0.1-0.7s0.5-0.1,0.7,0.1c0,0.1,4.2,5.5,9.2,5.7
				c0.3,0,0.5,0.2,0.5,0.5C68.5,86.4,68.3,86.6,68,86.6z"/>
		</g>
		<g>
			
				<linearGradient id="SVGID_6_" gradientUnits="userSpaceOnUse" x1="75.9453" y1="332.42" x2="80.798" y2="332.42" gradientTransform="matrix(1 0 0 -1 0 398.875)">
				<stop  offset="0" style="stop-color:#243682"/>
				<stop  offset="1" style="stop-color:#13003A"/>
			</linearGradient>
			<path class="st6" d="M79.5,70.3c-0.7,0-1.2-0.5-1.3-1.2c-0.2-2.8-1.8-4-1.8-4.1c-0.6-0.4-0.7-1.2-0.3-1.8
				c0.4-0.6,1.2-0.7,1.8-0.3c0.1,0.1,2.6,1.9,2.8,6C80.8,69.7,80.3,70.3,79.5,70.3C79.6,70.3,79.5,70.3,79.5,70.3z"/>
		</g>
		
			<linearGradient id="SVGID_7_" gradientUnits="userSpaceOnUse" x1="77.3891" y1="324.05" x2="107.4451" y2="324.05" gradientTransform="matrix(1 0 0 -1 0 398.875)">
			<stop  offset="0" style="stop-color:#243682"/>
			<stop  offset="1" style="stop-color:#13003A"/>
		</linearGradient>
		<path class="st7" d="M88.2,47.8c0,0,7.2-4.8,12.7,3.5c0,0-2.9-0.5-3.8-0.4c0,0,5.1,4.9,5.3,10.1c0,0-1.4-0.4-2.2,0
			c0,0,2.3,3.9,3.2,7.4c0.8,3.5,7.4,13.5,2,22.8c0,0,1.3-0.4,2.1-1.6c0,0,0.2,4.1-4.6,4.9c0,0-0.1,4.1-2.7,5.1c0,0,0.3-3.4-0.1-4.5
			c0,0-2.1,2.7-9.1,4.5c-7,1.9-7.9,5.8-7.9,5.8s-4.1-4-3.8-7c0.3-3.1,2.4-4.1,2.2-6.5c0,0,3.5-1.3,5-4c1.5-2.7-0.2-4.9-2.9-4.1
			c-2.7,0.8-4.3,2.7-4.3,2.7s-2.6-2.6-1.7-4.4s10.3-5.8,9.4-11.5s-11.6-19.9,3.3-26.3C90.3,44.4,88.7,46.5,88.2,47.8z"/>
		<path class="st8" d="M84.8,86.5c-0.2-0.2-0.4-0.4-0.7-0.5c-0.3-0.1-0.6-0.2-0.9-0.1c-0.3,0-0.6,0.2-0.8,0.3l-0.2,0.1l0.2,0.2
			c0.1,0.2,0.3,0.4,0.3,0.5c0,0.2-0.1,0.3-0.2,0.5c-0.3,0.2-0.9,0.3-1.3,0.6c-0.2,0.1-0.5,0.2-0.7,0.4c-0.1,0.1-0.2,0.2-0.3,0.3
			c-0.1,0.1-0.1,0.3-0.1,0.5c0.1,0.3,0.3,0.5,0.5,0.7s0.4,0.3,0.6,0.4c-0.3-0.3-0.8-0.7-0.8-1.1c0-0.2,0.1-0.4,0.3-0.5
			c0.2-0.1,0.4-0.2,0.7-0.3l0.7-0.2c0.2-0.1,0.5-0.2,0.7-0.3c0.2-0.2,0.4-0.5,0.4-0.8c0-0.2-0.1-0.4-0.3-0.6
			c0.2-0.1,0.3-0.2,0.5-0.2c0.2-0.1,0.5-0.1,0.7,0c0.5,0.2,0.9,0.5,1.2,0.9C85.1,86.9,85,86.7,84.8,86.5z"/>
		
			<linearGradient id="SVGID_8_" gradientUnits="userSpaceOnUse" x1="50.1636" y1="311.9156" x2="55.3408" y2="311.9156" gradientTransform="matrix(1 0 0 -1 0 398.875)">
			<stop  offset="0" style="stop-color:#243682"/>
			<stop  offset="1" style="stop-color:#13003A"/>
		</linearGradient>
		<path class="st9" d="M52.5,83.2c-0.4-0.2-0.9-0.2-1.3,0.2c-0.7,0.6-1.6,2.1-0.7,5.4c0,0,0.2-0.7,0.3-0.9c0,0,0.6,1.7,1.5,2.4
			c0,0-0.1-1,0.2-1.2l1.6,1.8C54.2,90.9,57.7,85.7,52.5,83.2z"/>
	</g>
	<g>
		
			<linearGradient id="SVGID_9_" gradientUnits="userSpaceOnUse" x1="-176.7912" y1="297.3209" x2="-141.2775" y2="273.9977" gradientTransform="matrix(0.9767 0.2144 0.2144 -0.9767 234.1072 686.9714)">
			<stop  offset="0" style="stop-color:#A10700"/>
			<stop  offset="1" style="stop-color:#721018"/>
		</linearGradient>
		<path class="st10" d="M126.4,358.6c0,0,0.5,33.4,16.7,40.1c1.3,0.5,2.7-0.2,3-1.6c1.5-6.5,5-25.5,0.7-39.4
			c-0.2-0.6-0.6-1.1-1.2-1.3C142,354.8,129.4,350.1,126.4,358.6z"/>
		<g>
			<path class="st11" d="M142.6,398.5c2.8-15.8,2.4-26.6,1.6-33c-0.9-6.9-2.6-10.6-2.6-10.6l1.5,0.5c0.3,0.5,5.9,12.8,0.5,43.5
				c-0.1,0-0.3-0.1-0.5-0.1C142.9,398.6,142.8,398.6,142.6,398.5z"/>
		</g>
		
			<linearGradient id="SVGID_10_" gradientUnits="userSpaceOnUse" x1="-182.5919" y1="301.6824" x2="-166.6561" y2="301.6824" gradientTransform="matrix(0.9767 0.2144 0.2144 -0.9767 234.1072 686.9714)">
			<stop  offset="0" style="stop-color:#E6C1AA"/>
			<stop  offset="1" style="stop-color:#CEA28C"/>
		</linearGradient>
		<path class="st12" d="M133.8,361.5L133.8,361.5c-2.3,1.9-5.6,1.7-7.6-0.6l-4.2-5c-1.9-2.3-1.7-5.6,0.6-7.6l0,0
			c2.3-1.9,5.6-1.7,7.6,0.6l4.2,5C136.3,356.2,136.1,359.6,133.8,361.5z"/>
	</g>
	
		<linearGradient id="SVGID_11_" gradientUnits="userSpaceOnUse" x1="-1141.4283" y1="615.2203" x2="-1132.1271" y2="614.2691" gradientTransform="matrix(0.7166 0.6975 0.6975 -0.7166 511.1581 1585.1084)">
		<stop  offset="0" style="stop-color:#243682"/>
		<stop  offset="1" style="stop-color:#13003A"/>
	</linearGradient>
	<path class="st13" d="M120.1,356.1L120.1,356.1c-1.7-2-1.4-4.9,0.6-6.6l3.3-2.7c2-1.7,4.9-1.4,6.6,0.6l0,0c1.7,2,1.4,4.9-0.6,6.6
		l-3.3,2.7C124.7,358.3,121.8,358,120.1,356.1z"/>
	<g>
		
			<linearGradient id="SVGID_12_" gradientUnits="userSpaceOnUse" x1="1237.7635" y1="1821.6284" x2="1268.864" y2="1801.2036" gradientTransform="matrix(0.6835 -0.73 -0.73 -0.6835 672.7331 2458.9309)">
			<stop  offset="0" style="stop-color:#A10700"/>
			<stop  offset="1" style="stop-color:#721018"/>
		</linearGradient>
		<path class="st14" d="M189.3,309.3c0,0,25.4,14.6,37.7,5.4c1-0.7,1-2.1,0.2-2.9c-4.3-4-16.9-15.2-29.4-18.2
			c-0.5-0.1-1.1,0-1.6,0.3C193.5,295.8,184.3,303.2,189.3,309.3z"/>
		<g>
			<path class="st11" d="M226.6,314.9c-10.7-9.2-19-13.7-24.1-16c-5.6-2.4-9.1-2.8-9.2-2.8l1-0.9c0.5,0,12.3,1.3,33,19.1
				c-0.1,0.1-0.2,0.2-0.3,0.3C226.9,314.7,226.8,314.8,226.6,314.9z"/>
		</g>
		
			<linearGradient id="SVGID_13_" gradientUnits="userSpaceOnUse" x1="105.8303" y1="166.8964" x2="120.9566" y2="166.8964" gradientTransform="matrix(0.9983 5.819651e-02 5.819651e-02 -0.9983 64.3606 465.1421)">
			<stop  offset="0" style="stop-color:#E6C1AA"/>
			<stop  offset="1" style="stop-color:#CEA28C"/>
		</linearGradient>
		<path class="st15" d="M190.7,300.9l-5.7-0.8c-2.6-0.3-4.9,1.5-5.3,4c-0.3,2.6,1.5,4.9,4,5.3l5.7,0.8c2.6,0.3,4.9-1.5,5.3-4
			C195.1,303.6,193.3,301.2,190.7,300.9z"/>
	</g>
	
		<linearGradient id="SVGID_14_" gradientUnits="userSpaceOnUse" x1="178.1268" y1="95.3229" x2="186.2586" y2="94.4912" gradientTransform="matrix(1 0 0 -1 0 398.875)">
		<stop  offset="0" style="stop-color:#243682"/>
		<stop  offset="1" style="stop-color:#13003A"/>
	</linearGradient>
	<path class="st16" d="M181.6,309.9L181.6,309.9c-2.2-0.2-3.9-2.2-3.6-4.5l0.4-3.7c0.2-2.2,2.2-3.9,4.5-3.6l0,0
		c2.2,0.2,3.9,2.2,3.6,4.5l-0.4,3.7C185.8,308.5,183.8,310.2,181.6,309.9z"/>
	
		<linearGradient id="SVGID_15_" gradientUnits="userSpaceOnUse" x1="41.6914" y1="185.7597" x2="66.8413" y2="198.5568" gradientTransform="matrix(1 0 0 -1 0 398.875)">
		<stop  offset="0" style="stop-color:#E6C1AA"/>
		<stop  offset="1" style="stop-color:#CEA28C"/>
	</linearGradient>
	<path class="st17" d="M63.7,199.7c-1.6-1.6-4.2-1.8-6-0.4c-2,1.5-4.4,4.3-5.7,9.5c-2.6,10.1,4.5-0.1,6-2c0,0,6.8,2.5,8.2-1.2
		C66.9,203.6,65.2,201.3,63.7,199.7z"/>
	
		<linearGradient id="SVGID_16_" gradientUnits="userSpaceOnUse" x1="83.2208" y1="140.1256" x2="182.9678" y2="140.1256" gradientTransform="matrix(1 0 0 -1 0 398.875)">
		<stop  offset="0" style="stop-color:#243682"/>
		<stop  offset="1" style="stop-color:#13003A"/>
	</linearGradient>
	<path class="st18" d="M83.5,215.7c0,0,7.7,99.7,92.9,94.7c2.2-0.1,4.3-1.5,5.2-3.5s1.5-4.9,0.7-8.5c-0.3-1.5-1.3-2.8-2.5-3.6
		c-5-3.4-20-12.7-34.9-15.7c-18.3-3.7-18.3-26.6-18.8-33s0-26.4-14.7-39.1L83.5,215.7z"/>
	
		<linearGradient id="SVGID_17_" gradientUnits="userSpaceOnUse" x1="83.5154" y1="140.1104" x2="182.6895" y2="140.1104" gradientTransform="matrix(1 0 0 -1 0 398.875)">
		<stop  offset="0" style="stop-color:#243682"/>
		<stop  offset="1" style="stop-color:#13003A"/>
	</linearGradient>
	<path class="st19" d="M83.5,215.7c0,0,6.6,85.1,74.7,94.1c5.6,0.7,11.7,1,18.2,0.6c2.2-0.1,4.3-1.5,5.2-3.5s1.5-4.9,0.7-8.5
		c-0.3-1.5-1.3-2.8-2.5-3.6c-5-3.4-20-12.7-34.9-15.7c-18.3-3.7-18.3-26.6-18.8-33s0-26.4-14.7-39.1l-12,3.8L83.5,215.7z"/>
	<path class="st20" d="M158.2,309.7c5.6,0.7,11.7,1,18.2,0.6c2.2-0.1,4.3-1.5,5.2-3.5s1.5-4.9,0.7-8.5c-0.3-1.5-1.3-2.8-2.5-3.6
		c-5-3.4-20-12.7-34.9-15.7c-18.3-3.7-18.3-26.6-18.8-33s0-26.4-14.7-39.1l-12,3.8c0,0,17.1,19.7,14,47.9
		C110.3,286.9,158.2,290.9,158.2,309.7z"/>
	
		<linearGradient id="SVGID_18_" gradientUnits="userSpaceOnUse" x1="65.1221" y1="117.0799" x2="131.181" y2="117.0799" gradientTransform="matrix(1 0 0 -1 0 398.875)">
		<stop  offset="0" style="stop-color:#243682"/>
		<stop  offset="1" style="stop-color:#13003A"/>
	</linearGradient>
	<path class="st21" d="M70.2,214.4c0,0-27.5,92.6,45.3,140c0.9,0.6,1.9,0.7,2.9,0.3c3.3-1.3,10.8-4.6,12.6-9.6
		c0.2-0.6,0.2-1.3,0.1-2c-1.3-4.5-8.2-26.1-23.7-37.7c-17.4-12.9-7.4-32.3-2.5-42c4.9-9.7,17.7-29.6-0.3-54.7L70.2,214.4z"/>
	<path class="st20" d="M107.7,348.9c2.5,1.9,5,3.7,7.8,5.5c0.9,0.6,1.9,0.7,2.9,0.3c3.3-1.3,10.8-4.6,12.6-9.6
		c0.2-0.6,0.2-1.3,0.1-2c-1.3-4.5-8.2-26.1-23.7-37.7c-17.4-12.9-7.4-32.3-2.5-42c4.9-9.7,17.7-29.6-0.3-54.7l-22.5,3.7
		c0,0,16.9,43.2-1.2,84.4C80.8,296.9,128.8,338.7,107.7,348.9z"/>
	
		<linearGradient id="SVGID_19_" gradientUnits="userSpaceOnUse" x1="3.774667e-02" y1="381.9875" x2="24.0426" y2="381.9875" gradientTransform="matrix(1 0 0 -1 0 398.875)">
		<stop  offset="0" style="stop-color:#E6C1AA"/>
		<stop  offset="1" style="stop-color:#CEA28C"/>
	</linearGradient>
	<path class="st22" d="M13.3,33.8c0,0-4.5-5.1-7.1-9c0,0-5.6-2.8-6.2-8.8c-0.1-0.6,0.3-1.2,0.9-1.4c0.4-0.1,0.8,0,1.1,0.6
		c0.6,1,1.7,2.9,2.8,3.6c0.5,0.3,1.1-0.3,0.7-0.8c-1.2-1.7-4.6-6.1-2.9-10c0,0-0.8-4.8,1.3-6.2c0,0,0.4-3,2.7-1.2
		c2.3,1.8,7.7,14.6,10.3,15.6c2.6,1,3.4-1.9,2.6-3.8c-0.7-1.6,0.5-6.3,2.1-3.7c1.5,2.6,2.9,7.7,2.3,10.5s-2.6,10.6-2.7,14.5
		L13.3,33.8L13.3,33.8z"/>
	
		<linearGradient id="SVGID_20_" gradientUnits="userSpaceOnUse" x1="92.7908" y1="233.115" x2="110.0699" y2="229.5238" gradientTransform="matrix(1 0 0 -1 0 398.875)">
		<stop  offset="0" style="stop-color:#A10700"/>
		<stop  offset="1" style="stop-color:#721018"/>
	</linearGradient>
	<path class="st23" d="M100.1,141.9c0,0,3.5,8.4,6.1,17.5c2.3,8.2,3.7,17,1.1,20.7c-5.6,8-11.6,11.7-11.6,11.7s-0.8-7.2-1.1-16.1
		C94.1,162.7,94.7,146,100.1,141.9z"/>
	<path class="st24" d="M95.6,191.8c0,0,6-3.7,11.6-11.7c2.7-3.8,1.2-12.5-1.1-20.7c0,0,4.2,16.3-11.7,16.3L95.6,191.8z"/>
	
		<linearGradient id="SVGID_21_" gradientUnits="userSpaceOnUse" x1="9.1349" y1="272.2246" x2="114.6887" y2="272.2246" gradientTransform="matrix(1 0 0 -1 0 398.875)">
		<stop  offset="0" style="stop-color:#BB0911"/>
		<stop  offset="1" style="stop-color:#830B16"/>
	</linearGradient>
	<path class="st25" d="M114.2,204.2c3.2,9.4-11.4,13.6-27.1,16c-3.1,0.5-6.3,0.9-9.3,1.3c-0.1,0-0.3,0-0.4,0
		c-25.1,0.9-20.3-31.5-20.4-36c-0.2-4.5-5.8-19.5-7.6-29.4c-1.4-7.6-0.6-17.7-0.1-21.9c0.1-1.3-0.3-2.5-1.1-3.5
		c-16.4-18.5-28.1-37.4-29.4-39.6c-0.1-0.1-0.2-0.3-0.2-0.4c-7-14.8-9-49.3-9.3-54.2c0-0.6,0-1.1,0.2-1.7c1.6-4,9-3,12.1-2.4
		c0.8,0.2,1.4,0.8,1.5,1.6c0,0,8.7,24.8,11.5,35.8s3.8,12.9,7.8,16c3.2,2.5,13,15.3,16.8,20.4c0.9,1.2,2.4,1.6,3.9,1.8
		c28,3.6,33.7,46,34,49.4c0,0.1,0,0.3,0.1,0.4c0,0,3.4,20.2,5.7,24.5C105.2,186.7,112.4,198.5,114.2,204.2z"/>
	<path class="st26" d="M87.1,220.2c15.7-2.4,30.3-6.6,27.1-16c-1.8-5.6-9-17.5-11.4-21.8s-5.7-24.5-5.7-24.5c0-0.1,0-0.3-0.1-0.4
		c-0.3-3.4-5.9-43.3-34-49.4c0,0,13.5,1.8,14.6,18.6s1.8,29.3,6,32.2c0,0-1.2,2.6,0.1,6c0,0-1.9,10.3,1.5,17.7
		C85,182.5,101.2,209.9,87.1,220.2z"/>
	<path class="st24" d="M58.1,184.1c0,0,2.9,10.1,12.1,13.2C70.2,197.2,62.6,191.5,58.1,184.1z"/>
	<g>
		<path class="st27" d="M4,1.9C4.4,3,4.9,4,5.4,5.1c0.5,1,1,2.1,1.6,3.1c0.5,1,1.1,2,1.7,3c0.3,0.5,0.6,1,0.9,1.5s0.7,1,1,1.4
			c-0.8-0.8-1.5-1.7-2.2-2.7c-0.7-0.9-1.3-1.9-1.8-3C6,7.4,5.5,6.3,5.1,5.2C4.9,4.7,4.7,4.1,4.5,3.6C4.3,3,4.1,2.5,4,1.9z"/>
	</g>
	<g>
		<path class="st27" d="M2.7,8.1c0.8,1.4,1.6,2.9,2.4,4.4c0.4,0.7,0.8,1.5,1.2,2.2c0.4,0.7,0.8,1.4,1.3,2.1C7,16.2,6.5,15.6,6,14.9
			c-0.5-0.7-0.9-1.4-1.3-2.1C3.8,11.2,3.2,9.7,2.7,8.1z"/>
	</g>
	
		<linearGradient id="SVGID_22_" gradientUnits="userSpaceOnUse" x1="72.4913" y1="164.9499" x2="82.3669" y2="164.9499" gradientTransform="matrix(1 0 0 -1 0 398.875)">
		<stop  offset="0" style="stop-color:#243682"/>
		<stop  offset="1" style="stop-color:#13003A"/>
	</linearGradient>
	<path class="st28" d="M73,227.2c1.3,2.5,2.5,4.9,4,7.2c0.7,1.2,1.5,2.2,2.3,3.3s1.8,2,2.8,3c-1.3-0.6-2.4-1.5-3.4-2.5
		s-1.9-2.1-2.6-3.3s-1.4-2.4-1.9-3.7C73.6,230,73.2,228.6,73,227.2z"/>
	<path class="st29" d="M56.9,185.5c-0.2-4.5-5.8-19.5-7.6-29.4s0.2-23.9,0.2-23.9s3.9,4.7,3.8,13.6s0.3,22.1,1,24.6
		S57.8,179.8,56.9,185.5z"/>
	<path class="st24" d="M62.4,143.8c0.5,0.5,1,1.1,1.5,1.6l1.4,1.6c0.9,1.1,1.9,2.2,2.8,3.2c1.9,2.1,3.9,4.2,5.9,6.2s4.1,3.9,6.3,5.8
		c2.2,1.9,4.4,3.7,6.7,5.5c-2.5-1.4-4.9-3-7.2-4.8c-2.3-1.8-4.5-3.7-6.5-5.7c-2.1-2-4-4.2-5.8-6.4c-0.9-1.1-1.8-2.3-2.6-3.4
		c-0.4-0.6-0.8-1.2-1.2-1.8l-0.6-0.9C62.8,144.4,62.6,144.1,62.4,143.8z"/>
	<path class="st24" d="M62.4,154.3c1.9,2.5,3.9,5,5.7,7.6l5.7,7.6l1.4,1.9l1.4,1.9c1,1.3,1.9,2.5,2.9,3.7c2,2.5,4,4.9,6.3,7.1
		c-2.6-1.9-4.8-4.2-6.9-6.5c-2.1-2.4-4.1-4.8-6-7.4c-1.9-2.5-3.8-5.1-5.5-7.8C65.7,159.8,64,157.1,62.4,154.3z"/>
	<path class="st30" d="M86.9,118.5c0,0,15.1,11.6,17,23.3s-9.3,9.2-11.5,5.7S82,118.5,79,115.8C79.1,115.9,85,121.4,86.9,118.5z"/>
	
		<linearGradient id="SVGID_23_" gradientUnits="userSpaceOnUse" x1="63.0153" y1="265.1285" x2="105.9176" y2="265.1285" gradientTransform="matrix(1 0 0 -1 0 398.875)">
		<stop  offset="0" style="stop-color:#A10700"/>
		<stop  offset="1" style="stop-color:#721018"/>
	</linearGradient>
	<path class="st31" d="M63,108.1c0,0,13.9,0.5,20.3,14.2c6.4,13.6,11.1,24.2,14.5,25.3c3.3,1.2,6.3-0.7,6.2-5.7c0,0,6.1,9.6-3.2,13
		c0,0-1.8,4-4.5,4.5c-0.9,0.2-2.6-0.3-4.5-1.5c-3.7-2.3-8.2-7.2-9-14.5C81.6,133.9,81.8,110.7,63,108.1z"/>
	<path class="st24" d="M91.6,157.8c1.9,1.2,3.6,1.7,4.5,1.5c2.8-0.5,4.5-4.5,4.5-4.5c9.4-3.4,3.2-13,3.2-13c0.1,5.1-2.9,6.9-6.2,5.7
		c0,0,1.8,3.4-1.4,5.8C96.3,153.4,95.8,157.7,91.6,157.8z"/>
	<path class="st24" d="M100.7,154.8c-0.9-0.1-1.7-0.3-2.6-0.5c-0.8-0.3-1.6-0.6-2.4-1c-1.5-0.8-2.9-2-4.1-3.3
		c-0.3-0.3-0.5-0.7-0.8-1.1l-0.4-0.5l-0.3-0.6c-0.2-0.4-0.4-0.8-0.6-1.2c-0.2-0.4-0.3-0.8-0.5-1.2c-0.1-0.2-0.2-0.4-0.2-0.6
		l-0.2-0.6l-0.3-1.3c-0.1-0.9-0.2-1.7-0.3-2.6c0.2,0.8,0.4,1.7,0.6,2.5L89,144l0.2,0.6c0.1,0.2,0.2,0.4,0.3,0.6
		c0.2,0.4,0.3,0.8,0.5,1.2c0.2,0.4,0.4,0.7,0.6,1.1l0.3,0.6l0.4,0.5c0.3,0.3,0.5,0.7,0.8,1c1.1,1.3,2.4,2.4,3.8,3.3
		C97.4,153.8,99,154.5,100.7,154.8z"/>
</g>
</svg>
