<svg id="Capa_1" data-name="Capa 1" xmlns="http://www.w3.org/2000/svg" xmlns:xlink="http://www.w3.org/1999/xlink" viewBox="0 0 1062.8 931.3"><defs><style>.cls-1{fill:url(#linear-gradient);}.cls-2{fill:url(#linear-gradient-2);}.cls-3{fill:url(#linear-gradient-3);}.cls-4{fill:url(#linear-gradient-4);}.cls-5{fill:url(#linear-gradient-5);}.cls-6{fill:url(#linear-gradient-6);}.cls-7{fill:url(#linear-gradient-7);}.cls-8{fill:url(#linear-gradient-8);}.cls-9{fill:url(#linear-gradient-9);}.cls-10{fill:url(#linear-gradient-10);}.cls-11{fill:url(#linear-gradient-11);}.cls-12{fill:url(#linear-gradient-12);}.cls-13{fill:url(#linear-gradient-13);}.cls-14{fill:url(#linear-gradient-14);}.cls-15{fill:url(#linear-gradient-15);}.cls-16{fill:url(#linear-gradient-16);}.cls-17{fill:url(#linear-gradient-17);}.cls-18{fill:url(#linear-gradient-18);}.cls-19{fill:url(#linear-gradient-19);}.cls-20{fill:url(#linear-gradient-20);}.cls-21{fill:url(#linear-gradient-21);}.cls-22{fill:url(#linear-gradient-22);}.cls-23{fill:url(#linear-gradient-23);}.cls-24{fill:url(#linear-gradient-24);}.cls-25{fill:url(#linear-gradient-25);}.cls-26{fill:url(#linear-gradient-26);}.cls-27{fill:url(#linear-gradient-27);}.cls-28{fill:url(#linear-gradient-28);}.cls-29{fill:url(#linear-gradient-29);}.cls-30{fill:url(#linear-gradient-30);}.cls-31{fill:url(#linear-gradient-31);}.cls-32{fill:url(#linear-gradient-32);}.cls-33{fill:url(#linear-gradient-33);}.cls-34{fill:url(#linear-gradient-34);}.cls-35{fill:url(#linear-gradient-35);}.cls-36{fill:url(#linear-gradient-36);}.cls-37{fill:url(#linear-gradient-37);}.cls-38{fill:url(#linear-gradient-38);}.cls-39{fill:url(#linear-gradient-39);}.cls-40{fill:url(#linear-gradient-40);}.cls-41{fill:none;}</style><linearGradient id="linear-gradient" x1="-1698.59" y1="-2102.63" x2="-1698.59" y2="-892.9" gradientTransform="matrix(0.72, 0.69, 0.69, -0.72, 3027.32, 394.33)" gradientUnits="userSpaceOnUse"><stop offset="0" stop-color="#dbe8f9"/><stop offset="1" stop-color="#a8c8ed"/></linearGradient><linearGradient id="linear-gradient-2" x1="-1704.78" y1="-2102.63" x2="-1704.78" y2="-892.9" xlink:href="#linear-gradient"/><linearGradient id="linear-gradient-3" x1="-1600.97" y1="-2102.63" x2="-1600.97" y2="-892.9" xlink:href="#linear-gradient"/><linearGradient id="linear-gradient-4" x1="-1594.37" y1="-2102.63" x2="-1594.37" y2="-892.9" xlink:href="#linear-gradient"/><linearGradient id="linear-gradient-5" x1="-1594.09" y1="-2102.63" x2="-1594.09" y2="-892.9" xlink:href="#linear-gradient"/><linearGradient id="linear-gradient-6" x1="-1594.06" y1="-2102.63" x2="-1594.06" y2="-892.9" xlink:href="#linear-gradient"/><linearGradient id="linear-gradient-7" x1="-1724.88" y1="-2102.63" x2="-1724.88" y2="-892.9" xlink:href="#linear-gradient"/><linearGradient id="linear-gradient-8" x1="-1744.88" y1="-2102.63" x2="-1744.88" y2="-892.9" xlink:href="#linear-gradient"/><linearGradient id="linear-gradient-9" x1="-1719.55" y1="-2102.63" x2="-1719.55" y2="-892.9" xlink:href="#linear-gradient"/><linearGradient id="linear-gradient-10" x1="-1781.44" y1="-2102.63" x2="-1781.44" y2="-892.9" xlink:href="#linear-gradient"/><linearGradient id="linear-gradient-11" x1="-1729.27" y1="-2102.63" x2="-1729.27" y2="-892.9" xlink:href="#linear-gradient"/><linearGradient id="linear-gradient-12" x1="-1711.71" y1="-2102.63" x2="-1711.71" y2="-892.9" xlink:href="#linear-gradient"/><linearGradient id="linear-gradient-13" x1="-1658.51" y1="-2102.63" x2="-1658.51" y2="-892.9" xlink:href="#linear-gradient"/><linearGradient id="linear-gradient-14" x1="-1594.16" y1="-2102.63" x2="-1594.16" y2="-892.9" xlink:href="#linear-gradient"/><linearGradient id="linear-gradient-15" x1="322.76" y1="503.48" x2="828.82" y2="503.48" gradientTransform="matrix(0, 1, 1, 0, 156.6, -8.7)" gradientUnits="userSpaceOnUse"><stop offset="0" stop-color="#1f3683"/><stop offset="1" stop-color="#0f0038"/></linearGradient><linearGradient id="linear-gradient-16" x1="-1593.95" y1="-2102.63" x2="-1593.95" y2="-892.9" xlink:href="#linear-gradient"/><linearGradient id="linear-gradient-17" x1="295.71" y1="507.13" x2="849.39" y2="507.13" xlink:href="#linear-gradient-15"/><linearGradient id="linear-gradient-18" x1="-1594.13" y1="-2102.63" x2="-1594.13" y2="-892.9" xlink:href="#linear-gradient"/><linearGradient id="linear-gradient-19" x1="258.28" y1="512.85" x2="875" y2="512.85" xlink:href="#linear-gradient-15"/><linearGradient id="linear-gradient-20" x1="-1594.37" y1="-2102.63" x2="-1594.37" y2="-892.9" xlink:href="#linear-gradient"/><linearGradient id="linear-gradient-21" x1="217.5" y1="518.87" x2="905" y2="518.87" xlink:href="#linear-gradient-15"/><linearGradient id="linear-gradient-22" x1="-1625.98" y1="-2102.63" x2="-1625.98" y2="-892.9" xlink:href="#linear-gradient"/><linearGradient id="linear-gradient-23" x1="170.93" y1="518.65" x2="938.04" y2="518.65" xlink:href="#linear-gradient-15"/><linearGradient id="linear-gradient-24" x1="-1684.32" y1="-2102.63" x2="-1684.32" y2="-892.9" xlink:href="#linear-gradient"/><linearGradient id="linear-gradient-25" x1="115.68" y1="500.4" x2="974.54" y2="500.4" xlink:href="#linear-gradient-15"/><linearGradient id="linear-gradient-26" x1="-1753.24" y1="-2102.63" x2="-1753.24" y2="-892.9" xlink:href="#linear-gradient"/><linearGradient id="linear-gradient-27" x1="42.26" y1="478.1" x2="1018.21" y2="478.1" xlink:href="#linear-gradient-15"/><linearGradient id="linear-gradient-28" x1="-1745.24" y1="-2102.63" x2="-1745.24" y2="-892.9" xlink:href="#linear-gradient"/><linearGradient id="linear-gradient-29" x1="-30.55" y1="552.65" x2="1055.93" y2="552.65" xlink:href="#linear-gradient-15"/><linearGradient id="linear-gradient-30" x1="-1729.48" y1="-2102.63" x2="-1729.48" y2="-892.9" xlink:href="#linear-gradient"/><linearGradient id="linear-gradient-31" x1="-109.47" y1="623.8" x2="1091" y2="623.8" xlink:href="#linear-gradient-15"/><linearGradient id="linear-gradient-32" x1="-1719.69" y1="-2102.63" x2="-1719.69" y2="-892.9" xlink:href="#linear-gradient"/><linearGradient id="linear-gradient-33" x1="-193.72" y1="677.2" x2="1135.03" y2="677.2" xlink:href="#linear-gradient-15"/><linearGradient id="linear-gradient-34" x1="-1711.77" y1="-2102.63" x2="-1711.77" y2="-892.9" xlink:href="#linear-gradient"/><linearGradient id="linear-gradient-35" x1="-285.22" y1="733.45" x2="1181.58" y2="733.45" xlink:href="#linear-gradient-15"/><linearGradient id="linear-gradient-36" x1="-1704.91" y1="-2102.63" x2="-1704.91" y2="-892.9" xlink:href="#linear-gradient"/><linearGradient id="linear-gradient-37" x1="-385.08" y1="791.2" x2="1232.35" y2="791.2" xlink:href="#linear-gradient-15"/><linearGradient id="linear-gradient-38" x1="-1698.72" y1="-2102.63" x2="-1698.72" y2="-892.9" xlink:href="#linear-gradient"/><linearGradient id="linear-gradient-39" x1="-479.9" y1="849.65" x2="1275.95" y2="849.65" xlink:href="#linear-gradient-15"/><linearGradient id="linear-gradient-40" x1="573.06" y1="-1611.59" x2="573.06" y2="5149.22" gradientTransform="matrix(0, 1, 1, 0, 156.6, -8.7)" xlink:href="#linear-gradient"/></defs><title>new-portal-mask</title><path class="cls-1" d="M1062.7,0H951.4q56,48.75,111.3,100.9Z" transform="translate(0 0.1)"/><path class="cls-2" d="M1062.7,205.2V102.4Q1006.6,49.6,949.6,0H834.7C901,54.8,967,113.6,1032.1,175.7Q1047.55,190.4,1062.7,205.2Z" transform="translate(0 0.1)"/><path class="cls-3" d="M764.3,456C660.2,356.6,553.4,272.6,463.6,219.4c-43.7-25.9-80.9-43-110.7-51-30.7-8.2-52.1-6.3-63.6,5.7-.3.3-.6.7-.9,1q15.9,23.4,32.1,46.4a27.46,27.46,0,0,1,2.2-2.6c21-22,77.1-7.8,158,39.9,80.7,47.6,176.4,122.8,269.7,211.9S923.2,651.9,974.5,730.3c48,73.4,65.7,126.5,50.8,151.1,11.8,6.9,24.3,14.1,37.4,21.6V832.2C1024.3,741.3,913.2,598.2,764.3,456Z" transform="translate(0 0.1)"/><path class="cls-4" d="M749.6,471.5c-93.2-89-188.9-164.2-269.5-211.7-39.2-23.1-72.6-38.4-99.4-45.5-27.6-7.3-46.8-5.5-57.2,5.4a31.12,31.12,0,0,0-2.3,2.8c9.7,13.7,19.4,27.2,29.3,40.7a25.89,25.89,0,0,1,3.2-4.2c19.1-20,69.6-7.6,142.3,35,72.5,42.4,158.4,109.7,242,189.6s154.8,162.5,200.5,233c44.8,69,59.9,118.2,42.8,139.1,13.1,7.8,27.5,16.3,42.9,25.3,3.4-5.5,5-12.6,5-20.9C1029.3,790.6,915.9,630.2,749.6,471.5Z" transform="translate(0 0.1)"/><path class="cls-5" d="M948.9,810.3c0-23-15.1-58.6-44.5-103.8-41-63.2-104.9-137.4-179.8-208.9s-152-131.9-217-170c-64.8-37.9-109.7-49.1-126.4-31.6a24.57,24.57,0,0,0-3,4c6.6,8.7,13.3,17.3,20.1,25.9a25.29,25.29,0,0,1,3.1-4.2c15.7-16.4,57.2-6.3,116.9,28.7,59.5,34.8,130,90,198.5,155.5S843.8,639.2,881.3,697c37.7,58,49.7,99,34,115.4-.6.6-1.3,1.2-2,1.8,8,4.9,17.5,10.8,28.3,17.4l.2-.2C946.6,826.5,948.9,819.4,948.9,810.3Z" transform="translate(0 0.1)"/><path class="cls-6" d="M937.7,717.1c-45.7-70.4-116.8-153-200.4-232.8C565.1,319.9,393.4,219.1,354.6,259.8a20.26,20.26,0,0,0-3.3,4.4c8.6,11.7,17.4,23.4,26.2,34.9a21.24,21.24,0,0,1,2.9-3.8c17.2-18,62.6-6.8,127.8,31.4s142.2,98.5,217.2,170.1,138.9,145.9,180,209.1c41.2,63.4,54.4,108.3,37.3,126.2h0q16.8,10.2,37.9,22.8c4.5-5.4,6.7-12.9,6.7-22.2C987.2,807.1,970.4,767.5,937.7,717.1Z" transform="translate(0 0.1)"/><path class="cls-7" d="M815.6,402.4C543,142.2,270.2-16.1,207.5,49.6l-.2.2q21.45,34.8,44.1,69.6c26.5-27,96.5-9.3,197.1,49.9,100.8,59.4,220.5,153.3,337,264.6,114.9,109.7,213.1,223.3,277.2,320.4V674C997.3,589,912.9,495.4,815.6,402.4Z" transform="translate(0 0.1)"/><path class="cls-8" d="M852.1,364.1c77.7,74.1,149,150,210.5,223.6V486.2c-50.4-56.4-105.4-113.3-163.8-169C764,188.3,624.4,78,498.1,0H358.7c20.7,9.6,42.8,21,66.1,34.2C553.7,106.9,705.5,224,852.1,364.1Z" transform="translate(0 0.1)"/><path class="cls-9" d="M1062.7,401V307.8q-39.3-40.05-80.8-79.6C894.4,144.7,805.1,67.8,717.3,0H606.9C714.7,76.3,827.5,169.9,937.4,274.8,981.1,316.4,1023,358.7,1062.7,401Z" transform="translate(0 0.1)"/><path class="cls-10" d="M433,102.5c115,66.7,251.2,172.9,383.3,299.1,94.9,90.5,179.6,183.6,246.4,270.3V589.6c-60.8-72.7-132.1-149-211.3-224.7C670.6,192.3,488.6,61.2,355.9,0H177.1q14.55,24.3,29.6,48.8C237.5,16.7,317.8,35.8,433,102.5Z" transform="translate(0 0.1)"/><path class="cls-11" d="M1062.7,484.5V402.7q-59.55-63.45-126.1-127.1C826.4,170.3,713.1,76.4,605,0H500.3c125.9,78,265,188,399.5,316.3C957.8,371.8,1012.5,428.3,1062.7,484.5Z" transform="translate(0 0.1)"/><path class="cls-12" d="M1062.7,306.2V206.8c-10.4-10.1-20.8-20.2-31.4-30.3C965.9,114.1,899.6,55,832.9,0H719.1c87.5,67.6,176.4,144.2,263.5,227.4Q1023.7,266.55,1062.7,306.2Z" transform="translate(0 0.1)"/><path class="cls-13" d="M784.8,434.6C544.8,205.5,306,64.6,252.1,120.3c11.7,18,23.6,36,35.7,53.8a5.72,5.72,0,0,1,.7-.8c23.2-24.3,85.6-8.3,175.7,45.1C554.1,271.7,661,355.8,765.1,455.2s193.1,202.3,250.4,289.6c20.8,31.7,36.6,60.1,47.1,84.4v-73C998.7,658.9,900.2,544.8,784.8,434.6Z" transform="translate(0 0.1)"/><path class="cls-14" d="M881.2,697c-37.5-57.8-95.9-125.7-164.5-191.1S577.6,385.2,518.2,350.4c-59.7-34.9-101.2-45.1-116.9-28.7a25.29,25.29,0,0,0-3.1,4.2,8.74,8.74,0,0,1,.8,1,19.83,19.83,0,0,1,3.2-4.4C434,289.2,574.8,371.8,716,506.7c68.5,65.4,126.9,133.2,164.3,190.9,26.8,41.3,40.6,73.8,40.6,94.8,0,8.2-2.1,14.7-6.5,19.2a20,20,0,0,1-2.2,1.9c.3.2.7.4,1,.6.7-.6,1.4-1.2,2-1.8C931,796,918.9,755,881.2,697Z" transform="translate(0 0.1)"/><path class="cls-15" d="M881.2,697c-37.5-57.8-95.9-125.7-164.5-191.1S577.6,385.2,518.2,350.4c-59.7-34.9-101.2-45.1-116.9-28.7a25.29,25.29,0,0,0-3.1,4.2,8.74,8.74,0,0,1,.8,1,19.83,19.83,0,0,1,3.2-4.4C434,289.2,574.8,371.8,716,506.7c68.5,65.4,126.9,133.2,164.3,190.9,26.8,41.3,40.6,73.8,40.6,94.8,0,8.2-2.1,14.7-6.5,19.2a20,20,0,0,1-2.2,1.9c.3.2.7.4,1,.6.7-.6,1.4-1.2,2-1.8C931,796,918.9,755,881.2,697Z" transform="translate(0 0.1)"/><path class="cls-16" d="M905.4,706c-41.1-63.2-105-137.5-180-209.1S573.2,364.8,508.2,326.8c-65.3-38.2-110.7-49.4-127.8-31.4a18.19,18.19,0,0,0-2.9,3.8,8.65,8.65,0,0,1,.7,1,23.22,23.22,0,0,1,3-4c16.8-17.6,61.7-6.3,126.4,31.6,65,38,142.1,98.4,217,170S863.4,643.6,904.4,706.7c29.3,45.2,44.5,80.8,44.5,103.8,0,9-2.3,16.1-7.1,21.1l-.2.2c.3.2.7.4,1,.6h0C959.8,814.2,946.6,769.4,905.4,706Z" transform="translate(0 0.1)"/><path class="cls-17" d="M905.4,706c-41.1-63.2-105-137.5-180-209.1S573.2,364.8,508.2,326.8c-65.3-38.2-110.7-49.4-127.8-31.4a18.19,18.19,0,0,0-2.9,3.8,8.65,8.65,0,0,1,.7,1,23.22,23.22,0,0,1,3-4c16.8-17.6,61.7-6.3,126.4,31.6,65,38,142.1,98.4,217,170S863.4,643.6,904.4,706.7c29.3,45.2,44.5,80.8,44.5,103.8,0,9-2.3,16.1-7.1,21.1l-.2.2c.3.2.7.4,1,.6h0C959.8,814.2,946.6,769.4,905.4,706Z" transform="translate(0 0.1)"/><path class="cls-18" d="M938.6,716.5c-45.7-70.4-117-153.2-200.5-233s-169.5-147.1-242-189.6c-72.7-42.6-123.2-55-142.3-35a25.89,25.89,0,0,0-3.2,4.2,8.65,8.65,0,0,1,.7,1,36.06,36.06,0,0,1,3.3-4.4c38.8-40.6,210.5,60.1,382.7,224.6C820.8,564,892,646.7,937.7,717.1c32.7,50.3,49.5,90,49.5,115.6,0,9.3-2.2,16.8-6.7,22.2a8.79,8.79,0,0,0,1,.6C998.5,834.7,983.4,785.5,938.6,716.5Z" transform="translate(0 0.1)"/><path class="cls-19" d="M938.6,716.5c-45.7-70.4-117-153.2-200.5-233s-169.5-147.1-242-189.6c-72.7-42.6-123.2-55-142.3-35a25.89,25.89,0,0,0-3.2,4.2,8.65,8.65,0,0,1,.7,1,36.06,36.06,0,0,1,3.3-4.4c38.8-40.6,210.5,60.1,382.7,224.6C820.8,564,892,646.7,937.7,717.1c32.7,50.3,49.5,90,49.5,115.6,0,9.3-2.2,16.8-6.7,22.2a8.79,8.79,0,0,0,1,.6C998.5,834.7,983.4,785.5,938.6,716.5Z" transform="translate(0 0.1)"/><path class="cls-20" d="M974.5,730.3c-51.2-78.4-130.8-170.6-224.1-259.6s-189-164.3-269.7-211.9c-80.9-47.7-137-61.9-158-39.9a27.46,27.46,0,0,0-2.2,2.6c.2.3.5.7.7,1a31.12,31.12,0,0,1,2.3-2.8c10.4-10.8,29.6-12.7,57.2-5.4,26.8,7.1,60.2,22.4,99.4,45.5,80.6,47.5,176.3,122.7,269.5,211.7C915.9,630.3,1029.3,790.6,1029.3,860c0,8.3-1.6,15.3-5,20.9a8.79,8.79,0,0,0,1,.6C1040.2,856.8,1022.5,803.6,974.5,730.3Z" transform="translate(0 0.1)"/><path class="cls-21" d="M974.5,730.3c-51.2-78.4-130.8-170.6-224.1-259.6s-189-164.3-269.7-211.9c-80.9-47.7-137-61.9-158-39.9a27.46,27.46,0,0,0-2.2,2.6c.2.3.5.7.7,1a31.12,31.12,0,0,1,2.3-2.8c10.4-10.8,29.6-12.7,57.2-5.4,26.8,7.1,60.2,22.4,99.4,45.5,80.6,47.5,176.3,122.7,269.5,211.7C915.9,630.3,1029.3,790.6,1029.3,860c0,8.3-1.6,15.3-5,20.9a8.79,8.79,0,0,0,1,.6C1040.2,856.8,1022.5,803.6,974.5,730.3Z" transform="translate(0 0.1)"/><path class="cls-22" d="M765.1,455.2C661,355.8,554.1,271.7,464.2,218.4,374.1,165,311.7,149,288.5,173.3a5,5,0,0,0-.7.8,8.79,8.79,0,0,1,.6,1c.3-.3.6-.7.9-1,11.5-12,32.9-13.9,63.6-5.7,29.8,8,67.1,25.2,110.7,51C553.4,272.6,660.2,356.7,764.3,456c148.9,142.1,260,285.3,298.4,376.2v-2.9c-10.5-24.4-26.3-52.7-47.1-84.4C958.2,657.5,869.2,554.6,765.1,455.2Z" transform="translate(0 0.1)"/><path class="cls-23" d="M765.1,455.2C661,355.8,554.1,271.7,464.2,218.4,374.1,165,311.7,149,288.5,173.3a5,5,0,0,0-.7.8,8.79,8.79,0,0,1,.6,1c.3-.3.6-.7.9-1,11.5-12,32.9-13.9,63.6-5.7,29.8,8,67.1,25.2,110.7,51C553.4,272.6,660.2,356.7,764.3,456c148.9,142.1,260,285.3,298.4,376.2v-2.9c-10.5-24.4-26.3-52.7-47.1-84.4C958.2,657.5,869.2,554.6,765.1,455.2Z" transform="translate(0 0.1)"/><path class="cls-24" d="M785.5,433.8C669,322.6,549.3,228.6,448.5,169.2,347.9,110,278,92.3,251.4,119.3a8.79,8.79,0,0,1,.6,1c53.9-55.7,292.7,85.2,532.7,314.3,115.4,110.2,214,224.3,277.9,321.6v-2C998.7,657.1,900.4,543.5,785.5,433.8Z" transform="translate(0 0.1)"/><path class="cls-25" d="M785.5,433.8C669,322.6,549.3,228.6,448.5,169.2,347.9,110,278,92.3,251.4,119.3a8.79,8.79,0,0,1,.6,1c53.9-55.7,292.7,85.2,532.7,314.3,115.4,110.2,214,224.3,277.9,321.6v-2C998.7,657.1,900.4,543.5,785.5,433.8Z" transform="translate(0 0.1)"/><path class="cls-26" d="M816.3,401.6C684.2,275.4,548,169.2,433,102.5,317.8,35.8,237.5,16.7,206.7,48.7c.2.3.4.7.6,1l.2-.2C270.2-16.2,543,142.1,815.6,402.3c97.3,93.1,181.7,186.7,247.1,271.6v-2C995.9,585.2,911.2,492.1,816.3,401.6Z" transform="translate(0 0.1)"/><path class="cls-27" d="M816.3,401.6C684.2,275.4,548,169.2,433,102.5,317.8,35.8,237.5,16.7,206.7,48.7c.2.3.4.7.6,1l.2-.2C270.2-16.2,543,142.1,815.6,402.3c97.3,93.1,181.7,186.7,247.1,271.6v-2C995.9,585.2,911.2,492.1,816.3,401.6Z" transform="translate(0 0.1)"/><path class="cls-28" d="M1062.7,589.6v-1.9c-61.6-73.6-132.9-149.5-210.5-223.6C705.5,224,553.7,106.9,424.8,34.2,401.5,21.1,379.4,9.7,358.7,0h-2.9C488.6,61.2,670.5,192.3,851.3,364.9,930.6,440.6,1001.9,516.8,1062.7,589.6Z" transform="translate(0 0.1)"/><path class="cls-29" d="M1062.7,589.6v-1.9c-61.6-73.6-132.9-149.5-210.5-223.6C705.5,224,553.7,106.9,424.8,34.2,401.5,21.1,379.4,9.7,358.7,0h-2.9C488.6,61.2,670.5,192.3,851.3,364.9,930.6,440.6,1001.9,516.8,1062.7,589.6Z" transform="translate(0 0.1)"/><path class="cls-30" d="M1062.7,486.2v-1.7c-50.2-56.2-104.9-112.7-163-168.2C765.3,188,626.2,78,500.2,0h-2.1C624.4,78,764,188.3,898.9,317.1,957.3,372.9,1012.3,429.7,1062.7,486.2Z" transform="translate(0 0.1)"/><path class="cls-31" d="M1062.7,486.2v-1.7c-50.2-56.2-104.9-112.7-163-168.2C765.3,188,626.2,78,500.2,0h-2.1C624.4,78,764,188.3,898.9,317.1,957.3,372.9,1012.3,429.7,1062.7,486.2Z" transform="translate(0 0.1)"/><path class="cls-32" d="M1062.7,402.7V401q-59.55-63.45-125.3-126.2C827.6,169.9,714.7,76.3,606.9,0h-2C713.1,76.4,826.3,170.4,936.6,275.6Q1003.05,339,1062.7,402.7Z" transform="translate(0 0.1)"/><path class="cls-33" d="M1062.7,402.7V401q-59.55-63.45-125.3-126.2C827.6,169.9,714.7,76.3,606.9,0h-2C713.1,76.4,826.3,170.4,936.6,275.6Q1003.05,339,1062.7,402.7Z" transform="translate(0 0.1)"/><path class="cls-34" d="M1062.7,307.8v-1.6q-39-39.6-80-78.8C895.6,144.2,806.6,67.6,719.2,0h-1.8C805.2,67.8,894.5,144.7,982,228.2,1009.5,254.5,1036.5,281.1,1062.7,307.8Z" transform="translate(0 0.1)"/><path class="cls-35" d="M1062.7,307.8v-1.6q-39-39.6-80-78.8C895.6,144.2,806.6,67.6,719.2,0h-1.8C805.2,67.8,894.5,144.7,982,228.2,1009.5,254.5,1036.5,281.1,1062.7,307.8Z" transform="translate(0 0.1)"/><path class="cls-36" d="M1062.7,206.8v-1.6c-10.1-9.9-20.3-19.7-30.6-29.6Q934.6,82.45,834.7-.1h-1.8Q933,82.55,1031.3,176.4,1047.05,191.55,1062.7,206.8Z" transform="translate(0 0.1)"/><path class="cls-37" d="M1062.7,206.8v-1.6c-10.1-9.9-20.3-19.7-30.6-29.6Q934.6,82.45,834.7-.1h-1.8Q933,82.55,1031.3,176.4,1047.05,191.55,1062.7,206.8Z" transform="translate(0 0.1)"/><path class="cls-38" d="M1062.7,100.8q-55.35-52-111.3-100.9h-1.7q56.85,49.5,113.1,102.4l-.1-1.5Z" transform="translate(0 0.1)"/><path class="cls-39" d="M1062.7,100.8q-55.35-52-111.3-100.9h-1.7q56.85,49.5,113.1,102.4l-.1-1.5Z" transform="translate(0 0.1)"/><path class="cls-40" d="M700.5,522.9C828.2,644.8,909.8,766.7,882.7,795c0,0,10.3,6.6,29.6,18.6a20,20,0,0,0,2.2-1.9c4.3-4.5,6.5-11,6.5-19.2,0-21-13.8-53.5-40.6-94.8C842.9,640,784.6,572.2,716.1,506.8,574.7,371.9,433.9,289.2,402.2,322.5a23.62,23.62,0,0,0-3.2,4.4c7,8.9,14.1,17.8,21.2,26.6C447.3,325.1,572.8,401,700.5,522.9Z" transform="translate(0 0.1)"/><line class="cls-41" x1="903" y1="0.1" x2="1062.8"/><line class="cls-41" y1="885.7" y2="931.3"/></svg>