<?xml version="1.0" encoding="utf-8"?>
<!-- Generator: Adobe Illustrator 22.1.0, SVG Export Plug-In . SVG Version: 6.00 Build 0)  -->
<svg version="1.1" id="Capa_1" xmlns="http://www.w3.org/2000/svg" xmlns:xlink="http://www.w3.org/1999/xlink" x="0px" y="0px"
	 viewBox="0 0 1062.8 931.2" style="enable-background:new 0 0 1062.8 931.2;" xml:space="preserve">
<style type="text/css">
	.st0{fill:url(#SVGID_1_);}
	.st1{fill:url(#SVGID_2_);}
	.st2{fill:url(#SVGID_3_);}
	.st3{fill:url(#SVGID_4_);}
	.st4{fill:url(#SVGID_5_);}
	.st5{fill:url(#SVGID_6_);}
	.st6{fill:url(#SVGID_7_);}
	.st7{fill:url(#SVGID_8_);}
	.st8{fill:url(#SVGID_9_);}
	.st9{fill:url(#SVGID_10_);}
	.st10{fill:url(#SVGID_11_);}
	.st11{fill:url(#SVGID_12_);}
	.st12{fill:url(#SVGID_13_);}
	.st13{fill:url(#SVGID_14_);}
	.st14{fill:url(#SVGID_15_);}
	.st15{fill:url(#SVGID_16_);}
	.st16{fill:url(#SVGID_17_);}
	.st17{fill:url(#SVGID_18_);}
	.st18{fill:url(#SVGID_19_);}
	.st19{fill:url(#SVGID_20_);}
	.st20{fill:url(#SVGID_21_);}
	.st21{fill:url(#SVGID_22_);}
	.st22{fill:url(#SVGID_23_);}
	.st23{fill:url(#SVGID_24_);}
	.st24{fill:url(#SVGID_25_);}
	.st25{fill:url(#SVGID_26_);}
	.st26{fill:url(#SVGID_27_);}
	.st27{fill:url(#SVGID_28_);}
	.st28{fill:url(#SVGID_29_);}
	.st29{fill:url(#SVGID_30_);}
	.st30{fill:url(#SVGID_31_);}
	.st31{fill:url(#SVGID_32_);}
	.st32{fill:url(#SVGID_33_);}
	.st33{fill:url(#SVGID_34_);}
	.st34{fill:url(#SVGID_35_);}
	.st35{fill:url(#SVGID_36_);}
	.st36{fill:url(#SVGID_37_);}
	.st37{fill:url(#SVGID_38_);}
	.st38{fill:url(#SVGID_39_);}
	.st39{fill:url(#SVGID_40_);}
	.st40{fill:url(#SVGID_41_);}
	.st41{fill:url(#SVGID_42_);}
	.st42{fill:url(#SVGID_43_);}
	.st43{fill:url(#SVGID_44_);}
	.st44{fill:url(#SVGID_45_);}
	.st45{fill:url(#SVGID_46_);}
	.st46{fill:url(#SVGID_47_);}
	.st47{fill:url(#SVGID_48_);}
	.st48{fill:url(#SVGID_49_);}
	.st49{fill:url(#SVGID_50_);}
	.st50{fill:url(#SVGID_51_);}
	.st51{fill:url(#SVGID_52_);}
	.st52{fill:url(#SVGID_53_);}
	.st53{fill:url(#SVGID_54_);}
	.st54{fill:url(#SVGID_55_);}
	.st55{fill:url(#SVGID_56_);}
	.st56{fill:url(#SVGID_57_);}
	.st57{fill:url(#SVGID_58_);}
	.st58{fill:url(#SVGID_59_);}
	.st59{fill:url(#SVGID_60_);}
	.st60{fill:url(#SVGID_61_);}
	.st61{fill:url(#SVGID_62_);}
	.st62{fill:url(#SVGID_63_);}
	.st63{fill:url(#SVGID_64_);}
	.st64{fill:url(#SVGID_65_);}
	.st65{fill:url(#SVGID_66_);}
	.st66{fill:url(#SVGID_67_);}
	.st67{fill:url(#SVGID_68_);}
	.st68{fill:url(#SVGID_69_);}
	.st69{fill:url(#SVGID_70_);}
	.st70{fill:url(#SVGID_71_);}
	.st71{fill:url(#SVGID_72_);}
	.st72{fill:url(#SVGID_73_);}
	.st73{fill:url(#SVGID_74_);}
	.st74{fill:url(#SVGID_75_);}
	.st75{fill:url(#SVGID_76_);}
	.st76{fill:url(#SVGID_77_);}
	.st77{fill:url(#SVGID_78_);}
	.st78{fill:url(#SVGID_79_);}
	.st79{fill:url(#SVGID_80_);}
	.st80{fill:url(#SVGID_81_);}
	.st81{fill:url(#SVGID_82_);}
	.st82{fill:url(#SVGID_83_);}
	.st83{fill:url(#SVGID_84_);}
	.st84{fill:url(#SVGID_85_);}
	.st85{fill:url(#SVGID_86_);}
	.st86{fill:url(#SVGID_87_);}
	.st87{fill:url(#SVGID_88_);}
	.st88{fill:url(#SVGID_89_);}
	.st89{fill:url(#SVGID_90_);}
	.st90{fill:url(#SVGID_91_);}
	.st91{fill:url(#SVGID_92_);}
	.st92{fill:url(#SVGID_93_);}
	.st93{fill:url(#SVGID_94_);}
	.st94{fill:url(#SVGID_95_);}
	.st95{fill:url(#SVGID_96_);}
	.st96{fill:url(#SVGID_97_);}
	.st97{fill:#FFFFFF;}
</style>
<g id="Capa_4">
</g>
<g id="Capa_5">
	<g>
		<g>
			
				<linearGradient id="SVGID_1_" gradientUnits="userSpaceOnUse" x1="-1744.2859" y1="2913.9187" x2="-1744.2859" y2="1704.1801" gradientTransform="matrix(0.6906 -0.7233 0.7233 0.6906 -123.8445 -2596.5791)">
				<stop  offset="0" style="stop-color:#DBE8F9"/>
				<stop  offset="1" style="stop-color:#A8C8ED"/>
			</linearGradient>
			<path class="st0" d="M639.1,473.3C527.9,589.8,412.7,689.2,314.7,753.1c-70.5,46-126,69.7-162,69.7c-14.1,0-25.2-3.7-33-11.1
				c-0.1-0.1-0.2-0.2-0.4-0.4c-23.2,15-46.4,29.7-69.6,44.1c66,62.3,330.9-108.4,590.9-380.7C810.1,297.2,936.3,119.6,985.6,0h-22.5
				c-6.9,34.7-26.9,80.7-59.5,136.1C844.3,237.1,750.4,356.8,639.1,473.3z"/>
			
				<linearGradient id="SVGID_2_" gradientUnits="userSpaceOnUse" x1="-1712.0074" y1="2913.9187" x2="-1712.0074" y2="1704.1801" gradientTransform="matrix(0.6906 -0.7233 0.7233 0.6906 -123.8445 -2596.5791)">
				<stop  offset="0" style="stop-color:#DBE8F9"/>
				<stop  offset="1" style="stop-color:#A8C8ED"/>
			</linearGradient>
			<path class="st1" d="M873.2,169.8c-53.3,89.9-137.3,196.8-236.8,300.9C537,574.8,434.1,663.8,346.8,721.1
				C283.7,762.6,234,784,202.1,784c-11.8,0-21.2-3-27.9-8.9c-17.8,12.1-35.8,24-53.8,35.7c0.1,0.1,0.1,0.1,0.2,0.2
				c7.6,7.3,18.5,10.8,32.1,10.8c87,0,287.4-141.6,485.6-349.2c111.2-116.4,205.1-236.1,264.4-336.8c28.8-49,47.9-90.8,56.7-124.3
				c1-3.9,1.9-7.6,2.6-11.2h-38.8C939.9,27.1,922.5,86.7,873.2,169.8z"/>
			
				<linearGradient id="SVGID_3_" gradientUnits="userSpaceOnUse" x1="-1693.0295" y1="2913.9187" x2="-1693.0295" y2="1704.1801" gradientTransform="matrix(0.6906 -0.7233 0.7233 0.6906 -123.8445 -2596.5791)">
				<stop  offset="0" style="stop-color:#DBE8F9"/>
				<stop  offset="1" style="stop-color:#A8C8ED"/>
			</linearGradient>
			<path class="st2" d="M399,666.6c70.4-45.7,153-116.8,232.8-200.4C796.3,294,897,122.3,856.4,83.5c-0.4-0.4-0.9-0.8-1.3-1.1
				c-8.3,14-16,26.7-22.8,37.9c17.9,17.2,6.8,62.6-31.4,127.8c-38.1,65.1-98.5,142.2-170.1,217.2s-145.9,138.9-209.1,180
				c-45.3,29.4-81.1,44.6-104.5,44.6c-7.2,0-13.3-1.5-18-4.4c-11.5,8.8-23.2,17.5-34.9,26.2c5.1,3.1,11.5,4.6,19.2,4.6
				C309,716.2,348.6,699.3,399,666.6z"/>
			
				<linearGradient id="SVGID_4_" gradientUnits="userSpaceOnUse" x1="-1693.1373" y1="2913.9187" x2="-1693.1373" y2="1704.1801" gradientTransform="matrix(0.6906 -0.7233 0.7233 0.6906 -123.8445 -2596.5791)">
				<stop  offset="0" style="stop-color:#DBE8F9"/>
				<stop  offset="1" style="stop-color:#A8C8ED"/>
			</linearGradient>
			<path class="st3" d="M627.5,462.2c65.4-68.5,120.6-138.9,155.3-198.3c33.1-56.6,43.9-96.5,30.8-113.3
				c-11.9,19.3-18.6,29.6-18.6,29.6L353.5,642.6c-8.8,7.1-17.6,14.2-26.6,21.2c4,2.2,9,3.3,14.8,3.3
				C393.3,667.1,511.1,584.1,627.5,462.2z"/>
			
				<linearGradient id="SVGID_5_" gradientUnits="userSpaceOnUse" x1="-1693.8003" y1="2913.9187" x2="-1693.8003" y2="1704.1801" gradientTransform="matrix(0.6906 -0.7233 0.7233 0.6906 -123.8445 -2596.5791)">
				<stop  offset="0" style="stop-color:#DBE8F9"/>
				<stop  offset="1" style="stop-color:#A8C8ED"/>
			</linearGradient>
			<path class="st4" d="M886.3,41.2c22,21,7.8,77.1-39.9,158c-47.6,80.6-122.8,176.4-211.9,269.7c-89,93.3-181.2,172.8-259.6,224.1
				c-56.5,36.9-101,56-129.7,56c-9.8,0-17.7-2.2-23.7-6.6c-15.4,10.9-30.8,21.6-46.4,32.1c12.2,10.6,33.3,11.2,62.8,1.9
				c29.4-9.4,65.9-28.2,108.3-56.1C433.5,663,536.3,574.1,635.6,470C833.8,262.4,958.6,56.4,921.9,0.2h-18.8
				c-7.5,13.1-14.7,25.6-21.6,37.4C883.2,38.6,884.8,39.8,886.3,41.2z"/>
			
				<linearGradient id="SVGID_6_" gradientUnits="userSpaceOnUse" x1="-1693.2568" y1="2913.9187" x2="-1693.2568" y2="1704.1801" gradientTransform="matrix(0.6906 -0.7233 0.7233 0.6906 -123.8445 -2596.5791)">
				<stop  offset="0" style="stop-color:#DBE8F9"/>
				<stop  offset="1" style="stop-color:#A8C8ED"/>
			</linearGradient>
			<path class="st5" d="M633.7,468.1c89-93.2,164.2-188.9,211.7-269.5c23.1-39.2,38.4-72.6,45.5-99.4c7.3-27.6,5.5-46.8-5.4-57.2
				c-1.4-1.3-2.9-2.5-4.6-3.5c-9,15.4-17.4,29.8-25.3,42.9c0.5,0.4,1,0.8,1.5,1.3c20,19.1,7.6,69.6-35,142.3
				c-42.4,72.5-109.7,158.4-189.6,242C552.8,550.6,470,621.8,399.6,667.6c-50.5,32.8-90.4,49.7-116.3,49.7c-8.1,0-14.8-1.6-20.1-4.9
				c-13.4,9.9-27,19.6-40.7,29.3C271.7,777.2,453.7,656.6,633.7,468.1z"/>
			
				<linearGradient id="SVGID_7_" gradientUnits="userSpaceOnUse" x1="-1693.1035" y1="2913.9187" x2="-1693.1035" y2="1704.1801" gradientTransform="matrix(0.6906 -0.7233 0.7233 0.6906 -123.8445 -2596.5791)">
				<stop  offset="0" style="stop-color:#DBE8F9"/>
				<stop  offset="1" style="stop-color:#A8C8ED"/>
			</linearGradient>
			<path class="st6" d="M421,644.3c63.2-41,137.4-104.9,208.9-179.8c147.3-154.3,237.7-308.1,201.8-343.2
				c-6.6,10.9-12.4,20.4-17.4,28.3c13.8,17,3.1,57.6-30.5,114.9c-34.8,59.5-90,130-155.5,198.5C562.8,531.6,495,590,437.2,627.5
				c-41.4,26.9-74.2,40.7-95.5,40.7c-6.3,0-11.5-1.2-15.7-3.6c-8.6,6.7-17.2,13.4-25.9,20.1C319.8,696.5,362.3,682.4,421,644.3z"/>
			
				<linearGradient id="SVGID_8_" gradientUnits="userSpaceOnUse" x1="-1709.5826" y1="2913.9187" x2="-1709.5826" y2="1704.1801" gradientTransform="matrix(0.6906 -0.7233 0.7233 0.6906 -123.8445 -2596.5791)">
				<stop  offset="0" style="stop-color:#DBE8F9"/>
				<stop  offset="1" style="stop-color:#A8C8ED"/>
			</linearGradient>
			<path class="st7" d="M660.3,493.5C818.9,327.4,955.2,158.7,1062.8,0.2H1052c-27.8,42.5-57.9,85.9-90.3,130.1
				c-89,121.2-191.3,242.5-304.1,360.6S428.3,716.8,311.3,811.3C257.3,855,204.2,895,152.4,931h16.5
				C327.4,814.2,495.8,665.8,660.3,493.5z"/>
			
				<linearGradient id="SVGID_9_" gradientUnits="userSpaceOnUse" x1="-1774.6863" y1="2913.9187" x2="-1774.6863" y2="1704.1801" gradientTransform="matrix(0.6906 -0.7233 0.7233 0.6906 -123.8445 -2596.5791)">
				<stop  offset="0" style="stop-color:#DBE8F9"/>
				<stop  offset="1" style="stop-color:#A8C8ED"/>
			</linearGradient>
			<path class="st8" d="M75.2,901.5c43-11.8,95.6-37.1,156.5-75.3c97.6-61.2,207.9-149.9,318-255.5c-0.1-0.2-0.2-0.5-0.2-0.8
				c0-0.1,0-0.2,0-0.2v-0.1c0-0.2,0-0.4,0.1-0.6c0-0.1,0-0.1,0.1-0.2c0.1-0.3,0.4-0.6,0.6-0.9c0.4-0.3,0.9-0.6,1.5-0.6
				c0.4,0,0.8,0.1,1.1,0.3c30.2-29,60.4-59.3,90.3-90.6c164.7-172.4,291.6-346,356-476.8H987c-11.3,27.4-26.8,58.3-46.4,92.1
				c-66.7,115-172.9,251.2-299.1,383.3C515.3,607.8,384.3,720.2,272.4,792.1c-79.5,51.1-142.6,77.4-184,77.4
				c-16.9,0-30.3-4.4-39.6-13.3l0,0C32.5,866.3,16.2,876.1,0,885.8v19C18.7,911.2,43.8,910.1,75.2,901.5z"/>
			
				<linearGradient id="SVGID_10_" gradientUnits="userSpaceOnUse" x1="-1718.9065" y1="2913.9187" x2="-1718.9065" y2="1704.1801" gradientTransform="matrix(0.6906 -0.7233 0.7233 0.6906 -123.8445 -2596.5791)">
				<stop  offset="0" style="stop-color:#DBE8F9"/>
				<stop  offset="1" style="stop-color:#A8C8ED"/>
			</linearGradient>
			<path class="st9" d="M656.7,490.1c112.7-118.1,215-239.4,304-360.5c32.2-43.9,62.3-87.1,89.9-129.4h-7.7
				c-32,50.3-67.7,102-107,155c-82.6,111.5-177.4,223.4-281.6,332.6c-104.2,109.1-211.6,209-319.2,296.8
				c-67.8,55.3-133.9,104.3-197.4,146.5h12.8c52.1-36.3,105.6-76.5,160.1-120.6C427.6,716,544,608.2,656.7,490.1z"/>
			
				<linearGradient id="SVGID_11_" gradientUnits="userSpaceOnUse" x1="-1740.9675" y1="2913.9187" x2="-1740.9675" y2="1704.1801" gradientTransform="matrix(0.6906 -0.7233 0.7233 0.6906 -123.8445 -2596.5791)">
				<stop  offset="0" style="stop-color:#DBE8F9"/>
				<stop  offset="1" style="stop-color:#A8C8ED"/>
			</linearGradient>
			<path class="st10" d="M650.8,484.5C805.7,322.2,937.9,153.7,1031.3,0.2h-9.3c-86.3,150-217.1,319.7-372.8,482.7
				C479.1,661.1,299.7,810,144.1,902.3c-17.6,10.4-34.6,20-51.1,28.7h22.8C282.7,829.7,471.7,672.1,650.8,484.5z"/>
			
				<linearGradient id="SVGID_12_" gradientUnits="userSpaceOnUse" x1="-1728.7795" y1="2913.9187" x2="-1728.7795" y2="1704.1801" gradientTransform="matrix(0.6906 -0.7233 0.7233 0.6906 -123.8445 -2596.5791)">
				<stop  offset="0" style="stop-color:#DBE8F9"/>
				<stop  offset="1" style="stop-color:#A8C8ED"/>
			</linearGradient>
			<path class="st11" d="M653.5,487c104.2-109.1,198.9-221,281.6-332.5c39.1-52.7,74.7-104.3,106.6-154.3h-9
				c-93.5,153.7-225.8,322.6-381,485.1C473,672.3,284.6,829.6,117.9,931h17.7c63.9-42.4,130.4-91.7,198.7-147.4
				C441.9,695.9,549.3,596.1,653.5,487z"/>
			
				<linearGradient id="SVGID_13_" gradientUnits="userSpaceOnUse" x1="-1761.1658" y1="2913.9187" x2="-1761.1658" y2="1704.1801" gradientTransform="matrix(0.6906 -0.7233 0.7233 0.6906 -123.8445 -2596.5791)">
				<stop  offset="0" style="stop-color:#DBE8F9"/>
				<stop  offset="1" style="stop-color:#A8C8ED"/>
			</linearGradient>
			<path class="st12" d="M648.4,482.1c160-167.5,288.9-337.4,372.2-482h-10.2c-1.1,2.1-2.3,4.3-3.4,6.4
				c-77.7,143.9-205.2,311.9-359.1,473.2c-154,161.2-315.9,296.4-456,380.6C137,893.3,87.8,917,45.2,931.1h45.3
				c17.1-9,34.7-18.9,53-29.7C299,809.1,478.3,660.2,648.4,482.1z"/>
			
				<linearGradient id="SVGID_14_" gradientUnits="userSpaceOnUse" x1="-1780.777" y1="2913.9187" x2="-1780.777" y2="1704.1801" gradientTransform="matrix(0.6906 -0.7233 0.7233 0.6906 -123.8445 -2596.5791)">
				<stop  offset="0" style="stop-color:#DBE8F9"/>
				<stop  offset="1" style="stop-color:#A8C8ED"/>
			</linearGradient>
			<path class="st13" d="M647,478.9C808.2,310.1,935.1,139,1009,0.2h-8.5c-7.9,16.1-16.8,32.9-26.7,50.4
				C901.2,179.4,784,331.2,643.9,477.9c-29.9,31.3-60.1,61.6-90.3,90.6c0.1,0.2,0.2,0.4,0.3,0.6c0,0.1,0.1,0.2,0.1,0.4
				c0,0.1,0,0.2,0,0.3c0,0.2,0,0.4-0.1,0.6c-0.1,0.2-0.2,0.5-0.3,0.7c-0.3,0.4-0.7,0.8-1.2,0.9c-0.2,0.1-0.5,0.1-0.7,0.1
				c-0.5,0-0.9-0.2-1.3-0.4C440.3,677.2,330,766,232.3,827.2C144.9,881.9,74.9,910,27.7,910c-10.4,0-19.6-1.4-27.7-4.1V931h41.5
				c43.2-13.9,93.4-37.9,149.7-71.7C331.3,775.2,493.2,640.1,647,478.9z"/>
			
				<linearGradient id="SVGID_15_" gradientUnits="userSpaceOnUse" x1="-1693.134" y1="2913.9187" x2="-1693.134" y2="1704.1801" gradientTransform="matrix(0.6906 -0.7233 0.7233 0.6906 -123.8445 -2596.5791)">
				<stop  offset="0" style="stop-color:#DBE8F9"/>
				<stop  offset="1" style="stop-color:#A8C8ED"/>
			</linearGradient>
			<path class="st14" d="M437.2,627.5C495,590,562.9,531.6,628.3,463c65.5-68.6,120.7-139.1,155.5-198.5
				c33.6-57.3,44.3-97.9,30.5-114.9c-0.2,0.3-0.4,0.7-0.6,1c13.1,16.8,2.3,56.7-30.8,113.3c-34.8,59.4-89.9,129.8-155.3,198.3
				C511.1,584.1,393.3,667.1,341.8,667.1c-5.8,0-10.8-1.1-14.8-3.3c-0.3,0.3-0.6,0.5-1,0.8c4.2,2.4,9.5,3.6,15.7,3.6
				C363,668.2,395.8,654.4,437.2,627.5z"/>
			
				<linearGradient id="SVGID_16_" gradientUnits="userSpaceOnUse" x1="314.1026" y1="557.6999" x2="820.1652" y2="557.6999" gradientTransform="matrix(1 0 0 1 0 -148.7999)">
				<stop  offset="0" style="stop-color:#1F3683"/>
				<stop  offset="1" style="stop-color:#0F0038"/>
			</linearGradient>
			<path class="st15" d="M437.2,627.5C495,590,562.9,531.6,628.3,463c65.5-68.6,120.7-139.1,155.5-198.5
				c33.6-57.3,44.3-97.9,30.5-114.9c-0.2,0.3-0.4,0.7-0.6,1c13.1,16.8,2.3,56.7-30.8,113.3c-34.8,59.4-89.9,129.8-155.3,198.3
				C511.1,584.1,393.3,667.1,341.8,667.1c-5.8,0-10.8-1.1-14.8-3.3c-0.3,0.3-0.6,0.5-1,0.8c4.2,2.4,9.5,3.6,15.7,3.6
				C363,668.2,395.8,654.4,437.2,627.5z"/>
			
				<linearGradient id="SVGID_17_" gradientUnits="userSpaceOnUse" x1="-1693.2021" y1="2913.9187" x2="-1693.2021" y2="1704.1801" gradientTransform="matrix(0.6906 -0.7233 0.7233 0.6906 -123.8445 -2596.5791)">
				<stop  offset="0" style="stop-color:#DBE8F9"/>
				<stop  offset="1" style="stop-color:#A8C8ED"/>
			</linearGradient>
			<path class="st16" d="M421.6,645.3c63.2-41.1,137.5-105,209.1-180s132.1-152.2,170.1-217.2c38.2-65.2,49.3-110.6,31.4-127.8
				c-0.2,0.3-0.4,0.7-0.6,1c35.9,35.2-54.5,189-201.8,343.2c-71.6,75-145.8,138.8-208.9,179.8c-58.7,38.1-101.2,52.2-120.9,40.4
				c-0.3,0.2-0.6,0.5-1,0.7c4.7,3,10.8,4.4,18,4.4C340.4,689.8,376.3,674.7,421.6,645.3z"/>
			
				<linearGradient id="SVGID_18_" gradientUnits="userSpaceOnUse" x1="286.9543" y1="553.85" x2="840.6287" y2="553.85" gradientTransform="matrix(1 0 0 1 0 -148.7999)">
				<stop  offset="0" style="stop-color:#1F3683"/>
				<stop  offset="1" style="stop-color:#0F0038"/>
			</linearGradient>
			<path class="st17" d="M421.6,645.3c63.2-41.1,137.5-105,209.1-180s132.1-152.2,170.1-217.2c38.2-65.2,49.3-110.6,31.4-127.8
				c-0.2,0.3-0.4,0.7-0.6,1c35.9,35.2-54.5,189-201.8,343.2c-71.6,75-145.8,138.8-208.9,179.8c-58.7,38.1-101.2,52.2-120.9,40.4
				c-0.3,0.2-0.6,0.5-1,0.7c4.7,3,10.8,4.4,18,4.4C340.4,689.8,376.3,674.7,421.6,645.3z"/>
			
				<linearGradient id="SVGID_19_" gradientUnits="userSpaceOnUse" x1="-1693.0604" y1="2913.9187" x2="-1693.0604" y2="1704.1801" gradientTransform="matrix(0.6906 -0.7233 0.7233 0.6906 -123.8445 -2596.5791)">
				<stop  offset="0" style="stop-color:#DBE8F9"/>
				<stop  offset="1" style="stop-color:#A8C8ED"/>
			</linearGradient>
			<path class="st18" d="M399.6,667.6c70.4-45.7,153.2-117,233-200.5c79.8-83.6,147.1-169.5,189.6-242c42.6-72.7,55-123.2,35-142.3
				c-0.5-0.5-1-0.9-1.5-1.3c-0.2,0.3-0.4,0.6-0.6,1c0.4,0.4,0.9,0.7,1.3,1.1c40.6,38.8-60.1,210.5-224.6,382.7
				C552,549.8,469.4,620.9,399,666.6c-50.3,32.7-90,49.5-115.6,49.5c-7.7,0-14.1-1.5-19.2-4.6c-0.3,0.2-0.6,0.5-1,0.7
				c5.3,3.3,12,4.9,20.1,4.9C309.2,717.2,349.1,700.4,399.6,667.6z"/>
			
				<linearGradient id="SVGID_20_" gradientUnits="userSpaceOnUse" x1="249.7069" y1="548.1002" x2="866.4342" y2="548.1002" gradientTransform="matrix(1 0 0 1 0 -148.7999)">
				<stop  offset="0" style="stop-color:#1F3683"/>
				<stop  offset="1" style="stop-color:#0F0038"/>
			</linearGradient>
			<path class="st19" d="M399.6,667.6c70.4-45.7,153.2-117,233-200.5c79.8-83.6,147.1-169.5,189.6-242c42.6-72.7,55-123.2,35-142.3
				c-0.5-0.5-1-0.9-1.5-1.3c-0.2,0.3-0.4,0.6-0.6,1c0.4,0.4,0.9,0.7,1.3,1.1c40.6,38.8-60.1,210.5-224.6,382.7
				C552,549.8,469.4,620.9,399,666.6c-50.3,32.7-90,49.5-115.6,49.5c-7.7,0-14.1-1.5-19.2-4.6c-0.3,0.2-0.6,0.5-1,0.7
				c5.3,3.3,12,4.9,20.1,4.9C309.2,717.2,349.1,700.4,399.6,667.6z"/>
			
				<linearGradient id="SVGID_21_" gradientUnits="userSpaceOnUse" x1="-1693.2535" y1="2913.9187" x2="-1693.2535" y2="1704.1801" gradientTransform="matrix(0.6906 -0.7233 0.7233 0.6906 -123.8445 -2596.5791)">
				<stop  offset="0" style="stop-color:#DBE8F9"/>
				<stop  offset="1" style="stop-color:#A8C8ED"/>
			</linearGradient>
			<path class="st20" d="M374.9,693c78.4-51.2,170.6-130.8,259.6-224.1s164.3-189,211.9-269.7c47.7-80.9,61.9-137,39.9-158
				c-1.5-1.4-3.1-2.6-4.8-3.7c-0.2,0.3-0.4,0.6-0.6,1c1.7,1,3.2,2.2,4.6,3.5c10.8,10.4,12.7,29.6,5.4,57.2
				c-7.1,26.8-22.4,60.2-45.5,99.4c-47.5,80.6-122.7,176.3-211.7,269.5c-180,188.5-362,309.1-411.2,273.5c-0.3,0.2-0.7,0.5-1,0.7
				c6,4.4,13.9,6.6,23.7,6.6C273.9,748.9,318.4,729.9,374.9,693z"/>
			
				<linearGradient id="SVGID_22_" gradientUnits="userSpaceOnUse" x1="208.8449" y1="541.9999" x2="896.3496" y2="541.9999" gradientTransform="matrix(1 0 0 1 0 -148.7999)">
				<stop  offset="0" style="stop-color:#1F3683"/>
				<stop  offset="1" style="stop-color:#0F0038"/>
			</linearGradient>
			<path class="st21" d="M374.9,693c78.4-51.2,170.6-130.8,259.6-224.1s164.3-189,211.9-269.7c47.7-80.9,61.9-137,39.9-158
				c-1.5-1.4-3.1-2.6-4.8-3.7c-0.2,0.3-0.4,0.6-0.6,1c1.7,1,3.2,2.2,4.6,3.5c10.8,10.4,12.7,29.6,5.4,57.2
				c-7.1,26.8-22.4,60.2-45.5,99.4c-47.5,80.6-122.7,176.3-211.7,269.5c-180,188.5-362,309.1-411.2,273.5c-0.3,0.2-0.7,0.5-1,0.7
				c6,4.4,13.9,6.6,23.7,6.6C273.9,748.9,318.4,729.9,374.9,693z"/>
			
				<linearGradient id="SVGID_23_" gradientUnits="userSpaceOnUse" x1="-1693.8413" y1="2913.9187" x2="-1693.8413" y2="1704.1801" gradientTransform="matrix(0.6906 -0.7233 0.7233 0.6906 -123.8445 -2596.5791)">
				<stop  offset="0" style="stop-color:#DBE8F9"/>
				<stop  offset="1" style="stop-color:#A8C8ED"/>
			</linearGradient>
			<path class="st22" d="M635.6,469.9C536.2,574,433.4,662.8,346.2,720.2c-42.4,27.9-78.8,46.7-108.3,56.1
				c-29.5,9.4-50.6,8.8-62.8-1.9c-0.3,0.2-0.6,0.4-1,0.6c6.7,6,16.1,8.9,27.9,8.9c31.9,0,81.5-21.4,144.7-62.9
				c87.3-57.4,190.2-146.3,289.6-250.4c99.6-104,183.6-210.9,236.9-300.8c49.3-83.2,66.7-142.7,50-169.7h-1.3
				C958.6,56.3,833.8,262.4,635.6,469.9z"/>
			
				<linearGradient id="SVGID_24_" gradientUnits="userSpaceOnUse" x1="162.2919" y1="540.7999" x2="929.4053" y2="540.7999" gradientTransform="matrix(1 0 0 1 0 -148.7999)">
				<stop  offset="0" style="stop-color:#1F3683"/>
				<stop  offset="1" style="stop-color:#0F0038"/>
			</linearGradient>
			<path class="st23" d="M635.6,469.9C536.2,574,433.4,662.8,346.2,720.2c-42.4,27.9-78.8,46.7-108.3,56.1
				c-29.5,9.4-50.6,8.8-62.8-1.9c-0.3,0.2-0.6,0.4-1,0.6c6.7,6,16.1,8.9,27.9,8.9c31.9,0,81.5-21.4,144.7-62.9
				c87.3-57.4,190.2-146.3,289.6-250.4c99.6-104,183.6-210.9,236.9-300.8c49.3-83.2,66.7-142.7,50-169.7h-1.3
				C958.6,56.3,833.8,262.4,635.6,469.9z"/>
			
				<linearGradient id="SVGID_25_" gradientUnits="userSpaceOnUse" x1="-1712.0171" y1="2913.9187" x2="-1712.0171" y2="1704.1801" gradientTransform="matrix(0.6906 -0.7233 0.7233 0.6906 -123.8445 -2596.5791)">
				<stop  offset="0" style="stop-color:#DBE8F9"/>
				<stop  offset="1" style="stop-color:#A8C8ED"/>
			</linearGradient>
			<path class="st24" d="M902.7,135.7c-59.3,100.8-153.2,220.4-264.4,336.8C440.1,680.2,239.7,821.8,152.7,821.7
				c-13.7,0-24.5-3.5-32.1-10.8c-0.1-0.1-0.1-0.1-0.2-0.2c-0.3,0.2-0.6,0.4-1,0.6c0.1,0.1,0.2,0.2,0.4,0.4
				c7.8,7.4,18.8,11.1,33,11.1c35.9,0,91.5-23.7,162-69.7c98-64,213.2-163.3,324.5-279.8c111.2-116.5,205.2-236.2,264.6-337
				c32.6-55.4,52.6-101.4,59.5-136.1h-1.2c-0.7,3.6-1.6,7.3-2.6,11.2C950.6,44.9,931.5,86.7,902.7,135.7z"/>
			
				<linearGradient id="SVGID_26_" gradientUnits="userSpaceOnUse" x1="107.0766" y1="560.2999" x2="965.9424" y2="560.2999" gradientTransform="matrix(1 0 0 1 0 -148.7999)">
				<stop  offset="0" style="stop-color:#1F3683"/>
				<stop  offset="1" style="stop-color:#0F0038"/>
			</linearGradient>
			<path class="st25" d="M902.7,135.7c-59.3,100.8-153.2,220.4-264.4,336.8C440.1,680.2,239.7,821.8,152.7,821.7
				c-13.7,0-24.5-3.5-32.1-10.8c-0.1-0.1-0.1-0.1-0.2-0.2c-0.3,0.2-0.6,0.4-1,0.6c0.1,0.1,0.2,0.2,0.4,0.4
				c7.8,7.4,18.8,11.1,33,11.1c35.9,0,91.5-23.7,162-69.7c98-64,213.2-163.3,324.5-279.8c111.2-116.5,205.2-236.2,264.6-337
				c32.6-55.4,52.6-101.4,59.5-136.1h-1.2c-0.7,3.6-1.6,7.3-2.6,11.2C950.6,44.9,931.5,86.7,902.7,135.7z"/>
			
				<linearGradient id="SVGID_27_" gradientUnits="userSpaceOnUse" x1="-1744.4387" y1="2913.9187" x2="-1744.4387" y2="1704.1801" gradientTransform="matrix(0.6906 -0.7233 0.7233 0.6906 -123.8445 -2596.5791)">
				<stop  offset="0" style="stop-color:#DBE8F9"/>
				<stop  offset="1" style="stop-color:#A8C8ED"/>
			</linearGradient>
			<path class="st26" d="M49.8,855.5c-0.3,0.2-0.7,0.4-1,0.6l0,0c9.3,8.9,22.6,13.3,39.6,13.3c41.4,0,104.5-26.3,184-77.4
				c111.9-71.8,242.9-184.2,369.1-316.4S873.9,207.3,940.6,92.3c19.6-33.8,35.1-64.6,46.4-92.1h-1.3
				c-49.3,119.6-175.5,297.2-345,474.7C380.7,747.1,115.8,917.8,49.8,855.5z"/>
			
				<linearGradient id="SVGID_28_" gradientUnits="userSpaceOnUse" x1="33.6094" y1="583.5999" x2="1009.5573" y2="583.5999" gradientTransform="matrix(1 0 0 1 0 -148.7999)">
				<stop  offset="0" style="stop-color:#1F3683"/>
				<stop  offset="1" style="stop-color:#0F0038"/>
			</linearGradient>
			<path class="st27" d="M49.8,855.5c-0.3,0.2-0.7,0.4-1,0.6l0,0c9.3,8.9,22.6,13.3,39.6,13.3c41.4,0,104.5-26.3,184-77.4
				c111.9-71.8,242.9-184.2,369.1-316.4S873.9,207.3,940.6,92.3c19.6-33.8,35.1-64.6,46.4-92.1h-1.3
				c-49.3,119.6-175.5,297.2-345,474.7C380.7,747.1,115.8,917.8,49.8,855.5z"/>
			
				<linearGradient id="SVGID_29_" gradientUnits="userSpaceOnUse" x1="-1461.3798" y1="2913.9187" x2="-1461.3798" y2="1704.1801" gradientTransform="matrix(0.6906 -0.7233 0.7233 0.6906 -123.8445 -2596.5791)">
				<stop  offset="0" style="stop-color:#DBE8F9"/>
				<stop  offset="1" style="stop-color:#A8C8ED"/>
			</linearGradient>
			<path class="st28" d="M552.9,567.7c0.2,0.1,0.3,0.2,0.4,0.3c0.2,0.1,0.3,0.3,0.4,0.5c30.2-29,60.4-59.3,90.3-90.6
				C784.1,331.2,901.2,179.4,973.9,50.5c9.9-17.5,18.8-34.3,26.7-50.4h-1.3c-64.5,130.9-191.4,304.5-356.2,477
				C613.2,508.4,583.1,538.7,552.9,567.7z"/>
			
				<linearGradient id="SVGID_30_" gradientUnits="userSpaceOnUse" x1="-39.2066" y1="433.0999" x2="1047.2715" y2="433.0999" gradientTransform="matrix(1 0 0 1 0 -148.7999)">
				<stop  offset="0" style="stop-color:#1F3683"/>
				<stop  offset="1" style="stop-color:#0F0038"/>
			</linearGradient>
			<path class="st29" d="M552.9,567.7c0.2,0.1,0.3,0.2,0.4,0.3c0.2,0.1,0.3,0.3,0.4,0.5c30.2-29,60.4-59.3,90.3-90.6
				C784.1,331.2,901.2,179.4,973.9,50.5c9.9-17.5,18.8-34.3,26.7-50.4h-1.3c-64.5,130.9-191.4,304.5-356.2,477
				C613.2,508.4,583.1,538.7,552.9,567.7z"/>
			
				<linearGradient id="SVGID_31_" gradientUnits="userSpaceOnUse" x1="-2136.6917" y1="2913.9187" x2="-2136.6917" y2="1704.1801" gradientTransform="matrix(0.6906 -0.7233 0.7233 0.6906 -123.8445 -2596.5791)">
				<stop  offset="0" style="stop-color:#DBE8F9"/>
				<stop  offset="1" style="stop-color:#A8C8ED"/>
			</linearGradient>
			<path class="st30" d="M232.3,827.2c97.7-61.2,208-150,318.1-255.6c-0.2-0.2-0.4-0.3-0.6-0.5c-0.1-0.1-0.1-0.2-0.2-0.3
				c-110.1,105.5-220.4,194.3-318,255.5c-60.9,38.2-113.6,63.5-156.5,75.3c-31.3,8.6-56.5,9.7-75.1,3.2v1.2
				c8.1,2.7,17.3,4.1,27.7,4.1C74.9,910,144.9,881.9,232.3,827.2z"/>
			
				<linearGradient id="SVGID_32_" gradientUnits="userSpaceOnUse" x1="-39.2066" y1="889.2499" x2="1047.2715" y2="889.2499" gradientTransform="matrix(1 0 0 1 0 -148.7999)">
				<stop  offset="0" style="stop-color:#1F3683"/>
				<stop  offset="1" style="stop-color:#0F0038"/>
			</linearGradient>
			<path class="st31" d="M232.3,827.2c97.7-61.2,208-150,318.1-255.6c-0.2-0.2-0.4-0.3-0.6-0.5c-0.1-0.1-0.1-0.2-0.2-0.3
				c-110.1,105.5-220.4,194.3-318,255.5c-60.9,38.2-113.6,63.5-156.5,75.3c-31.3,8.6-56.5,9.7-75.1,3.2v1.2
				c8.1,2.7,17.3,4.1,27.7,4.1C74.9,910,144.9,881.9,232.3,827.2z"/>
			
				<linearGradient id="SVGID_33_" gradientUnits="userSpaceOnUse" x1="-1765.9304" y1="2913.9187" x2="-1765.9304" y2="1704.1801" gradientTransform="matrix(0.6906 -0.7233 0.7233 0.6906 -123.8445 -2596.5791)">
				<stop  offset="0" style="stop-color:#DBE8F9"/>
				<stop  offset="1" style="stop-color:#A8C8ED"/>
			</linearGradient>
			<path class="st32" d="M647.9,479.7C801.9,318.5,929.4,150.4,1007,6.6c1.2-2.1,2.3-4.3,3.4-6.4h-1.4
				c-74,138.9-200.8,309.9-362,478.7C493.2,640.1,331.3,775.2,191.3,859.3C135,893.1,84.8,917.2,41.6,931h3.7
				c42.6-14,91.7-37.8,146.7-70.8C332,776.1,493.9,640.9,647.9,479.7z"/>
			
				<linearGradient id="SVGID_34_" gradientUnits="userSpaceOnUse" x1="-118.127" y1="614.3999" x2="1082.3456" y2="614.3999" gradientTransform="matrix(1 0 0 1 0 -148.7999)">
				<stop  offset="0" style="stop-color:#1F3683"/>
				<stop  offset="1" style="stop-color:#0F0038"/>
			</linearGradient>
			<path class="st33" d="M647.9,479.7C801.9,318.5,929.4,150.4,1007,6.6c1.2-2.1,2.3-4.3,3.4-6.4h-1.4
				c-74,138.9-200.8,309.9-362,478.7C493.2,640.1,331.3,775.2,191.3,859.3C135,893.1,84.8,917.2,41.6,931h3.7
				c42.6-14,91.7-37.8,146.7-70.8C332,776.1,493.9,640.9,647.9,479.7z"/>
			
				<linearGradient id="SVGID_35_" gradientUnits="userSpaceOnUse" x1="-1745.114" y1="2913.9187" x2="-1745.114" y2="1704.1801" gradientTransform="matrix(0.6906 -0.7233 0.7233 0.6906 -123.8445 -2596.5791)">
				<stop  offset="0" style="stop-color:#DBE8F9"/>
				<stop  offset="1" style="stop-color:#A8C8ED"/>
			</linearGradient>
			<path class="st34" d="M649.2,482.9C804.9,319.8,935.8,150.2,1022,0.2h-1.4c-83.3,144.6-212.3,314.4-372.2,482
				C478.3,660.3,299,809.2,143.5,901.5c-18.2,10.8-35.9,20.7-53,29.7h2.4c16.5-8.7,33.6-18.3,51.1-28.7
				C299.7,810,479.1,661.1,649.2,482.9z"/>
			
				<linearGradient id="SVGID_36_" gradientUnits="userSpaceOnUse" x1="-202.3781" y1="614.4999" x2="1126.3778" y2="614.4999" gradientTransform="matrix(1 0 0 1 0 -148.7999)">
				<stop  offset="0" style="stop-color:#1F3683"/>
				<stop  offset="1" style="stop-color:#0F0038"/>
			</linearGradient>
			<path class="st35" d="M649.2,482.9C804.9,319.8,935.8,150.2,1022,0.2h-1.4c-83.3,144.6-212.3,314.4-372.2,482
				C478.3,660.3,299,809.2,143.5,901.5c-18.2,10.8-35.9,20.7-53,29.7h2.4c16.5-8.7,33.6-18.3,51.1-28.7
				C299.7,810,479.1,661.1,649.2,482.9z"/>
			
				<linearGradient id="SVGID_37_" gradientUnits="userSpaceOnUse" x1="-1732.681" y1="2913.9187" x2="-1732.681" y2="1704.1801" gradientTransform="matrix(0.6906 -0.7233 0.7233 0.6906 -123.8445 -2596.5791)">
				<stop  offset="0" style="stop-color:#DBE8F9"/>
				<stop  offset="1" style="stop-color:#A8C8ED"/>
			</linearGradient>
			<path class="st36" d="M651.6,485.2c155.1-162.5,287.5-331.3,381-485.1h-1.3c-93.4,153.6-225.6,322.1-380.5,484.4
				C471.7,672.1,282.7,829.7,115.7,931.1h2.2C284.6,829.6,473,672.3,651.6,485.2z"/>
			
				<linearGradient id="SVGID_38_" gradientUnits="userSpaceOnUse" x1="-293.8795" y1="614.3999" x2="1172.927" y2="614.3999" gradientTransform="matrix(1 0 0 1 0 -148.7999)">
				<stop  offset="0" style="stop-color:#1F3683"/>
				<stop  offset="1" style="stop-color:#0F0038"/>
			</linearGradient>
			<path class="st37" d="M651.6,485.2c155.1-162.5,287.5-331.3,381-485.1h-1.3c-93.4,153.6-225.6,322.1-380.5,484.4
				C471.7,672.1,282.7,829.7,115.7,931.1h2.2C284.6,829.6,473,672.3,651.6,485.2z"/>
			
				<linearGradient id="SVGID_39_" gradientUnits="userSpaceOnUse" x1="-1722.2195" y1="2913.9187" x2="-1722.2195" y2="1704.1801" gradientTransform="matrix(0.6906 -0.7233 0.7233 0.6906 -123.8445 -2596.5791)">
				<stop  offset="0" style="stop-color:#DBE8F9"/>
				<stop  offset="1" style="stop-color:#A8C8ED"/>
			</linearGradient>
			<path class="st38" d="M654.3,487.8c104.2-109.1,199-221,281.7-332.6c39.3-52.9,75-104.7,107-155h-1.3
				c-31.9,50.1-67.5,101.6-106.6,154.3C852.4,266,757.7,377.9,653.5,487S441.9,695.9,334.3,783.6C266,839.3,199.5,888.6,135.6,931h2
				c63.5-42.2,129.5-91.2,197.4-146.5C442.7,696.7,550.1,596.9,654.3,487.8z"/>
			
				<linearGradient id="SVGID_40_" gradientUnits="userSpaceOnUse" x1="-393.7377" y1="614.3999" x2="1223.6943" y2="614.3999" gradientTransform="matrix(1 0 0 1 0 -148.7999)">
				<stop  offset="0" style="stop-color:#1F3683"/>
				<stop  offset="1" style="stop-color:#0F0038"/>
			</linearGradient>
			<path class="st39" d="M654.3,487.8c104.2-109.1,199-221,281.7-332.6c39.3-52.9,75-104.7,107-155h-1.3
				c-31.9,50.1-67.5,101.6-106.6,154.3C852.4,266,757.7,377.9,653.5,487S441.9,695.9,334.3,783.6C266,839.3,199.5,888.6,135.6,931h2
				c63.5-42.2,129.5-91.2,197.4-146.5C442.7,696.7,550.1,596.9,654.3,487.8z"/>
			
				<linearGradient id="SVGID_41_" gradientUnits="userSpaceOnUse" x1="-1714.0037" y1="2913.9187" x2="-1714.0037" y2="1704.1801" gradientTransform="matrix(0.6906 -0.7233 0.7233 0.6906 -123.8445 -2596.5791)">
				<stop  offset="0" style="stop-color:#DBE8F9"/>
				<stop  offset="1" style="stop-color:#A8C8ED"/>
			</linearGradient>
			<path class="st40" d="M657.6,490.9c112.8-118.1,215.1-239.4,304.1-360.6c32.4-44.1,62.6-87.6,90.3-130.1h-1.3
				C1023,42.5,993,85.7,960.8,129.6c-89,121.2-191.3,242.5-304,360.5C544,608.2,427.6,716,310.6,810.5
				c-54.5,44-108,84.3-160.1,120.6h2c51.7-36.1,104.8-76,158.9-119.7C428.3,716.8,544.8,609,657.6,490.9z"/>
			
				<linearGradient id="SVGID_42_" gradientUnits="userSpaceOnUse" x1="-488.5571" y1="614.4499" x2="1267.2939" y2="614.4499" gradientTransform="matrix(1 0 0 1 0 -148.7999)">
				<stop  offset="0" style="stop-color:#1F3683"/>
				<stop  offset="1" style="stop-color:#0F0038"/>
			</linearGradient>
			<path class="st41" d="M657.6,490.9c112.8-118.1,215.1-239.4,304.1-360.6c32.4-44.1,62.6-87.6,90.3-130.1h-1.3
				C1023,42.5,993,85.7,960.8,129.6c-89,121.2-191.3,242.5-304,360.5C544,608.2,427.6,716,310.6,810.5
				c-54.5,44-108,84.3-160.1,120.6h2c51.7-36.1,104.8-76,158.9-119.7C428.3,716.8,544.8,609,657.6,490.9z"/>
			
				<linearGradient id="SVGID_43_" gradientUnits="userSpaceOnUse" x1="-1823.7947" y1="2913.9187" x2="-1823.7947" y2="1704.1801" gradientTransform="matrix(0.6906 -0.7233 0.7233 0.6906 -123.8445 -2596.5791)">
				<stop  offset="0" style="stop-color:#DBE8F9"/>
				<stop  offset="1" style="stop-color:#A8C8ED"/>
			</linearGradient>
			<path class="st42" d="M551.2,569.3c0.1-0.1,0.2-0.2,0.3-0.3c-0.8-0.3-1.5-0.3-1.9-0.2c0,0.1,0,0.1-0.1,0.2c0.1,0,0.3,0,0.6,0
				C550.5,569,550.9,569.2,551.2,569.3z"/>
			
				<linearGradient id="SVGID_44_" gradientUnits="userSpaceOnUse" x1="553.3232" y1="717.012" x2="548.8777" y2="718.2863" gradientTransform="matrix(1 0 0 1 0 -148.7999)">
				<stop  offset="0" style="stop-color:#F4D85F"/>
				<stop  offset="1" style="stop-color:#ECB543"/>
			</linearGradient>
			<path class="st43" d="M551.2,569.3c0.1-0.1,0.2-0.2,0.3-0.3c-0.8-0.3-1.5-0.3-1.9-0.2c0,0.1,0,0.1-0.1,0.2c0.1,0,0.3,0,0.6,0
				C550.5,569,550.9,569.2,551.2,569.3z"/>
			
				<linearGradient id="SVGID_45_" gradientUnits="userSpaceOnUse" x1="-1825.1422" y1="2913.9187" x2="-1825.1422" y2="1704.1801" gradientTransform="matrix(0.6906 -0.7233 0.7233 0.6906 -123.8445 -2596.5791)">
				<stop  offset="0" style="stop-color:#DBE8F9"/>
				<stop  offset="1" style="stop-color:#A8C8ED"/>
			</linearGradient>
			<path class="st44" d="M551,571.2c-0.1,0-0.1,0-0.2,0c-0.1,0.1-0.3,0.3-0.4,0.4c0.4,0.3,0.8,0.4,1.3,0.4c0.2,0,0.5,0,0.7-0.1
				C552.2,571.6,551.8,571.2,551,571.2z"/>
			
				<linearGradient id="SVGID_46_" gradientUnits="userSpaceOnUse" x1="554.078" y1="719.6455" x2="549.6324" y2="720.9196" gradientTransform="matrix(1 0 0 1 0 -148.7999)">
				<stop  offset="0" style="stop-color:#F4D85F"/>
				<stop  offset="1" style="stop-color:#ECB543"/>
			</linearGradient>
			<path class="st45" d="M551,571.2c-0.1,0-0.1,0-0.2,0c-0.1,0.1-0.3,0.3-0.4,0.4c0.4,0.3,0.8,0.4,1.3,0.4c0.2,0,0.5,0,0.7-0.1
				C552.2,571.6,551.8,571.2,551,571.2z"/>
			
				<linearGradient id="SVGID_47_" gradientUnits="userSpaceOnUse" x1="-1824.9686" y1="2913.9187" x2="-1824.9686" y2="1704.1801" gradientTransform="matrix(0.6906 -0.7233 0.7233 0.6906 -123.8445 -2596.5791)">
				<stop  offset="0" style="stop-color:#DBE8F9"/>
				<stop  offset="1" style="stop-color:#A8C8ED"/>
			</linearGradient>
			<path class="st46" d="M550.4,570.1c-0.4-0.1-0.7-0.2-1-0.4v0.1c0,0.1,0,0.2,0,0.2c0.2,0.2,0.4,0.3,0.6,0.4
				C550.2,570.3,550.3,570.2,550.4,570.1z"/>
			
				<linearGradient id="SVGID_48_" gradientUnits="userSpaceOnUse" x1="553.535" y1="717.7508" x2="549.0894" y2="719.0249" gradientTransform="matrix(1 0 0 1 0 -148.7999)">
				<stop  offset="0" style="stop-color:#F4D85F"/>
				<stop  offset="1" style="stop-color:#ECB543"/>
			</linearGradient>
			<path class="st47" d="M550.4,570.1c-0.4-0.1-0.7-0.2-1-0.4v0.1c0,0.1,0,0.2,0,0.2c0.2,0.2,0.4,0.3,0.6,0.4
				C550.2,570.3,550.3,570.2,550.4,570.1z"/>
			
				<linearGradient id="SVGID_49_" gradientUnits="userSpaceOnUse" x1="-1822.2756" y1="2913.9187" x2="-1822.2756" y2="1704.1801" gradientTransform="matrix(0.6906 -0.7233 0.7233 0.6906 -123.8445 -2596.5791)">
				<stop  offset="0" style="stop-color:#DBE8F9"/>
				<stop  offset="1" style="stop-color:#A8C8ED"/>
			</linearGradient>
			<path class="st48" d="M552,568.6c0.3-0.3,0.6-0.6,0.9-0.8c-0.3-0.2-0.7-0.3-1.1-0.3c-0.6,0-1.1,0.2-1.5,0.6
				c0.3,0,0.7,0.1,1.3,0.4C551.7,568.5,551.9,568.5,552,568.6z"/>
			
				<linearGradient id="SVGID_50_" gradientUnits="userSpaceOnUse" x1="553.1594" y1="716.4404" x2="548.7139" y2="717.7147" gradientTransform="matrix(1 0 0 1 0 -148.7999)">
				<stop  offset="0" style="stop-color:#F4D85F"/>
				<stop  offset="1" style="stop-color:#ECB543"/>
			</linearGradient>
			<path class="st49" d="M552,568.6c0.3-0.3,0.6-0.6,0.9-0.8c-0.3-0.2-0.7-0.3-1.1-0.3c-0.6,0-1.1,0.2-1.5,0.6
				c0.3,0,0.7,0.1,1.3,0.4C551.7,568.5,551.9,568.5,552,568.6z"/>
			
				<linearGradient id="SVGID_51_" gradientUnits="userSpaceOnUse" x1="-1823.007" y1="2913.9187" x2="-1823.007" y2="1704.1801" gradientTransform="matrix(0.6906 -0.7233 0.7233 0.6906 -123.8445 -2596.5791)">
				<stop  offset="0" style="stop-color:#DBE8F9"/>
				<stop  offset="1" style="stop-color:#A8C8ED"/>
			</linearGradient>
			<path class="st50" d="M552.1,570c-0.1,0.1-0.2,0.1-0.2,0.2c1.1-0.1,1.6,0.5,1.8,0.8c0.1-0.2,0.2-0.4,0.3-0.7
				c-0.2-0.1-0.8-0.4-1.4-0.4C552.5,570,552.3,570,552.1,570z"/>
			
				<linearGradient id="SVGID_52_" gradientUnits="userSpaceOnUse" x1="553.8969" y1="719.0142" x2="549.4514" y2="720.2883" gradientTransform="matrix(1 0 0 1 0 -148.7999)">
				<stop  offset="0" style="stop-color:#F4D85F"/>
				<stop  offset="1" style="stop-color:#ECB543"/>
			</linearGradient>
			<path class="st51" d="M552.1,570c-0.1,0.1-0.2,0.1-0.2,0.2c1.1-0.1,1.6,0.5,1.8,0.8c0.1-0.2,0.2-0.4,0.3-0.7
				c-0.2-0.1-0.8-0.4-1.4-0.4C552.5,570,552.3,570,552.1,570z"/>
			
				<linearGradient id="SVGID_53_" gradientUnits="userSpaceOnUse" x1="-1822.254" y1="2913.9187" x2="-1822.254" y2="1704.1801" gradientTransform="matrix(0.6906 -0.7233 0.7233 0.6906 -123.8445 -2596.5791)">
				<stop  offset="0" style="stop-color:#DBE8F9"/>
				<stop  offset="1" style="stop-color:#A8C8ED"/>
			</linearGradient>
			<path class="st52" d="M552.4,569.7c0.7,0,1.3-0.1,1.6-0.2c0-0.1,0-0.3-0.1-0.4c-0.2,0.1-0.6,0.3-1.2,0.3
				C552.7,569.5,552.6,569.6,552.4,569.7z"/>
			
				<linearGradient id="SVGID_54_" gradientUnits="userSpaceOnUse" x1="553.6533" y1="718.1638" x2="549.2078" y2="719.438" gradientTransform="matrix(1 0 0 1 0 -148.7999)">
				<stop  offset="0" style="stop-color:#F4D85F"/>
				<stop  offset="1" style="stop-color:#ECB543"/>
			</linearGradient>
			<path class="st53" d="M552.4,569.7c0.7,0,1.3-0.1,1.6-0.2c0-0.1,0-0.3-0.1-0.4c-0.2,0.1-0.6,0.3-1.2,0.3
				C552.7,569.5,552.6,569.6,552.4,569.7z"/>
			
				<linearGradient id="SVGID_55_" gradientUnits="userSpaceOnUse" x1="-1823.012" y1="2913.9187" x2="-1823.012" y2="1704.1801" gradientTransform="matrix(0.6906 -0.7233 0.7233 0.6906 -123.8445 -2596.5791)">
				<stop  offset="0" style="stop-color:#DBE8F9"/>
				<stop  offset="1" style="stop-color:#A8C8ED"/>
			</linearGradient>
			<path class="st54" d="M552.4,569.7L552.4,569.7c0.2-0.1,0.3-0.2,0.4-0.3c-0.3,0-0.7-0.1-1.1-0.3c-0.1,0-0.1,0-0.2-0.1
				c-0.1,0.1-0.2,0.2-0.3,0.3C551.5,569.5,551.9,569.7,552.4,569.7z"/>
			
				<linearGradient id="SVGID_56_" gradientUnits="userSpaceOnUse" x1="-39.2066" y1="718.15" x2="1047.2715" y2="718.15" gradientTransform="matrix(1 0 0 1 0 -148.7999)">
				<stop  offset="0" style="stop-color:#1F3683"/>
				<stop  offset="1" style="stop-color:#0F0038"/>
			</linearGradient>
			<path class="st55" d="M552.4,569.7L552.4,569.7c0.2-0.1,0.3-0.2,0.4-0.3c-0.3,0-0.7-0.1-1.1-0.3c-0.1,0-0.1,0-0.2-0.1
				c-0.1,0.1-0.2,0.2-0.3,0.3C551.5,569.5,551.9,569.7,552.4,569.7z"/>
			
				<linearGradient id="SVGID_57_" gradientUnits="userSpaceOnUse" x1="553.5203" y1="717.6999" x2="549.0748" y2="718.9741" gradientTransform="matrix(1 0 0 1 0 -148.7999)">
				<stop  offset="0" style="stop-color:#F4D85F"/>
				<stop  offset="1" style="stop-color:#ECB543"/>
			</linearGradient>
			<path class="st56" d="M552.4,569.7L552.4,569.7c0.2-0.1,0.3-0.2,0.4-0.3c-0.3,0-0.7-0.1-1.1-0.3c-0.1,0-0.1,0-0.2-0.1
				c-0.1,0.1-0.2,0.2-0.3,0.3C551.5,569.5,551.9,569.7,552.4,569.7z"/>
			
				<linearGradient id="SVGID_58_" gradientUnits="userSpaceOnUse" x1="-1824.3188" y1="2913.9187" x2="-1824.3188" y2="1704.1801" gradientTransform="matrix(0.6906 -0.7233 0.7233 0.6906 -123.8445 -2596.5791)">
				<stop  offset="0" style="stop-color:#DBE8F9"/>
				<stop  offset="1" style="stop-color:#A8C8ED"/>
			</linearGradient>
			<path class="st57" d="M550.4,570.1c-0.1,0.1-0.2,0.2-0.3,0.3c0.3,0.1,0.7,0.1,1.2,0c0.2-0.1,0.4-0.1,0.5-0.1
				c0.1-0.1,0.2-0.1,0.2-0.2C551.6,570.1,551,570.2,550.4,570.1z"/>
			
				<linearGradient id="SVGID_59_" gradientUnits="userSpaceOnUse" x1="-39.2066" y1="719.0874" x2="1047.2715" y2="719.0874" gradientTransform="matrix(1 0 0 1 0 -148.7999)">
				<stop  offset="0" style="stop-color:#1F3683"/>
				<stop  offset="1" style="stop-color:#0F0038"/>
			</linearGradient>
			<path class="st58" d="M550.4,570.1c-0.1,0.1-0.2,0.2-0.3,0.3c0.3,0.1,0.7,0.1,1.2,0c0.2-0.1,0.4-0.1,0.5-0.1
				c0.1-0.1,0.2-0.1,0.2-0.2C551.6,570.1,551,570.2,550.4,570.1z"/>
			
				<linearGradient id="SVGID_60_" gradientUnits="userSpaceOnUse" x1="553.6809" y1="718.2603" x2="549.2354" y2="719.5343" gradientTransform="matrix(1 0 0 1 0 -148.7999)">
				<stop  offset="0" style="stop-color:#F4D85F"/>
				<stop  offset="1" style="stop-color:#ECB543"/>
			</linearGradient>
			<path class="st59" d="M550.4,570.1c-0.1,0.1-0.2,0.2-0.3,0.3c0.3,0.1,0.7,0.1,1.2,0c0.2-0.1,0.4-0.1,0.5-0.1
				c0.1-0.1,0.2-0.1,0.2-0.2C551.6,570.1,551,570.2,550.4,570.1z"/>
			
				<linearGradient id="SVGID_61_" gradientUnits="userSpaceOnUse" x1="-1825.4321" y1="2913.9187" x2="-1825.4321" y2="1704.1801" gradientTransform="matrix(0.6906 -0.7233 0.7233 0.6906 -123.8445 -2596.5791)">
				<stop  offset="0" style="stop-color:#DBE8F9"/>
				<stop  offset="1" style="stop-color:#A8C8ED"/>
			</linearGradient>
			<path class="st60" d="M549.9,571.1c0.2,0.2,0.3,0.4,0.6,0.5c0.1-0.1,0.3-0.3,0.4-0.4C550.4,571.2,550.1,571.2,549.9,571.1z"/>
			
				<linearGradient id="SVGID_62_" gradientUnits="userSpaceOnUse" x1="-39.2066" y1="720.1499" x2="1047.2715" y2="720.1499" gradientTransform="matrix(1 0 0 1 0 -148.7999)">
				<stop  offset="0" style="stop-color:#1F3683"/>
				<stop  offset="1" style="stop-color:#0F0038"/>
			</linearGradient>
			<path class="st61" d="M549.9,571.1c0.2,0.2,0.3,0.4,0.6,0.5c0.1-0.1,0.3-0.3,0.4-0.4C550.4,571.2,550.1,571.2,549.9,571.1z"/>
			
				<linearGradient id="SVGID_63_" gradientUnits="userSpaceOnUse" x1="553.9172" y1="719.0845" x2="549.4716" y2="720.3586" gradientTransform="matrix(1 0 0 1 0 -148.7999)">
				<stop  offset="0" style="stop-color:#F4D85F"/>
				<stop  offset="1" style="stop-color:#ECB543"/>
			</linearGradient>
			<path class="st62" d="M549.9,571.1c0.2,0.2,0.3,0.4,0.6,0.5c0.1-0.1,0.3-0.3,0.4-0.4C550.4,571.2,550.1,571.2,549.9,571.1z"/>
			
				<linearGradient id="SVGID_64_" gradientUnits="userSpaceOnUse" x1="-1821.7676" y1="2913.9187" x2="-1821.7676" y2="1704.1801" gradientTransform="matrix(0.6906 -0.7233 0.7233 0.6906 -123.8445 -2596.5791)">
				<stop  offset="0" style="stop-color:#DBE8F9"/>
				<stop  offset="1" style="stop-color:#A8C8ED"/>
			</linearGradient>
			<path class="st63" d="M553.3,568c-0.1-0.1-0.3-0.2-0.4-0.3c-0.3,0.3-0.6,0.6-0.9,0.8C552.6,568.6,553,568.3,553.3,568z"/>
			
				<linearGradient id="SVGID_65_" gradientUnits="userSpaceOnUse" x1="-39.2066" y1="716.9097" x2="1047.2715" y2="716.9097" gradientTransform="matrix(1 0 0 1 0 -148.7999)">
				<stop  offset="0" style="stop-color:#1F3683"/>
				<stop  offset="1" style="stop-color:#0F0038"/>
			</linearGradient>
			<path class="st64" d="M553.3,568c-0.1-0.1-0.3-0.2-0.4-0.3c-0.3,0.3-0.6,0.6-0.9,0.8C552.6,568.6,553,568.3,553.3,568z"/>
			
				<linearGradient id="SVGID_66_" gradientUnits="userSpaceOnUse" x1="553.2451" y1="716.74" x2="548.7996" y2="718.014" gradientTransform="matrix(1 0 0 1 0 -148.7999)">
				<stop  offset="0" style="stop-color:#F4D85F"/>
				<stop  offset="1" style="stop-color:#ECB543"/>
			</linearGradient>
			<path class="st65" d="M553.3,568c-0.1-0.1-0.3-0.2-0.4-0.3c-0.3,0.3-0.6,0.6-0.9,0.8C552.6,568.6,553,568.3,553.3,568z"/>
			
				<linearGradient id="SVGID_67_" gradientUnits="userSpaceOnUse" x1="-1825.3661" y1="2913.9187" x2="-1825.3661" y2="1704.1801" gradientTransform="matrix(0.6906 -0.7233 0.7233 0.6906 -123.8445 -2596.5791)">
				<stop  offset="0" style="stop-color:#DBE8F9"/>
				<stop  offset="1" style="stop-color:#A8C8ED"/>
			</linearGradient>
			<path class="st66" d="M549.5,570c0,0.3,0.1,0.5,0.2,0.8c0.1-0.1,0.3-0.3,0.4-0.4C549.8,570.3,549.6,570.1,549.5,570z"/>
			
				<linearGradient id="SVGID_68_" gradientUnits="userSpaceOnUse" x1="553.6201" y1="718.0478" x2="549.1745" y2="719.3219" gradientTransform="matrix(1 0 0 1 0 -148.7999)">
				<stop  offset="0" style="stop-color:#F4D85F"/>
				<stop  offset="1" style="stop-color:#ECB543"/>
			</linearGradient>
			<path class="st67" d="M549.5,570c0,0.3,0.1,0.5,0.2,0.8c0.1-0.1,0.3-0.3,0.4-0.4C549.8,570.3,549.6,570.1,549.5,570z"/>
			
				<linearGradient id="SVGID_69_" gradientUnits="userSpaceOnUse" x1="10385.3828" y1="720.4463" x2="10390.1445" y2="718.9552" gradientTransform="matrix(-1 0 0 1 10938.9629 -148.7999)">
				<stop  offset="0" style="stop-color:#E8A32E"/>
				<stop  offset="1" style="stop-color:#DD4D2C"/>
			</linearGradient>
			<path class="st68" d="M549.5,570c0,0.3,0.1,0.5,0.2,0.8c0.1-0.1,0.3-0.3,0.4-0.4C549.8,570.3,549.6,570.1,549.5,570z"/>
			
				<linearGradient id="SVGID_70_" gradientUnits="userSpaceOnUse" x1="-1824.1183" y1="2913.9187" x2="-1824.1183" y2="1704.1801" gradientTransform="matrix(0.6906 -0.7233 0.7233 0.6906 -123.8445 -2596.5791)">
				<stop  offset="0" style="stop-color:#DBE8F9"/>
				<stop  offset="1" style="stop-color:#A8C8ED"/>
			</linearGradient>
			<path class="st69" d="M551.9,570.3c-0.3,0.3-0.7,0.7-1,1c0.1,0,0.1,0,0.2,0c0.8-0.1,1.2,0.4,1.4,0.7c0.5-0.2,0.9-0.5,1.2-0.9
				C553.5,570.8,552.9,570.1,551.9,570.3z"/>
			
				<linearGradient id="SVGID_71_" gradientUnits="userSpaceOnUse" x1="554.0161" y1="719.4294" x2="549.5706" y2="720.7036" gradientTransform="matrix(1 0 0 1 0 -148.7999)">
				<stop  offset="0" style="stop-color:#F4D85F"/>
				<stop  offset="1" style="stop-color:#ECB543"/>
			</linearGradient>
			<path class="st70" d="M551.9,570.3c-0.3,0.3-0.7,0.7-1,1c0.1,0,0.1,0,0.2,0c0.8-0.1,1.2,0.4,1.4,0.7c0.5-0.2,0.9-0.5,1.2-0.9
				C553.5,570.8,552.9,570.1,551.9,570.3z"/>
			
				<linearGradient id="SVGID_72_" gradientUnits="userSpaceOnUse" x1="10385.333" y1="720.2875" x2="10390.0947" y2="718.7964" gradientTransform="matrix(-1 0 0 1 10938.9629 -148.7999)">
				<stop  offset="0" style="stop-color:#E8A32E"/>
				<stop  offset="1" style="stop-color:#DD4D2C"/>
			</linearGradient>
			<path class="st71" d="M551.9,570.3c-0.3,0.3-0.7,0.7-1,1c0.1,0,0.1,0,0.2,0c0.8-0.1,1.2,0.4,1.4,0.7c0.5-0.2,0.9-0.5,1.2-0.9
				C553.5,570.8,552.9,570.1,551.9,570.3z"/>
			
				<linearGradient id="SVGID_73_" gradientUnits="userSpaceOnUse" x1="-1824.7134" y1="2913.9187" x2="-1824.7134" y2="1704.1801" gradientTransform="matrix(0.6906 -0.7233 0.7233 0.6906 -123.8445 -2596.5791)">
				<stop  offset="0" style="stop-color:#DBE8F9"/>
				<stop  offset="1" style="stop-color:#A8C8ED"/>
			</linearGradient>
			<path class="st72" d="M551.9,570.3c-0.2,0-0.3,0-0.5,0.1c-0.5,0.2-0.9,0.1-1.2,0c-0.1,0.1-0.3,0.3-0.4,0.4
				c0.1,0.1,0.1,0.2,0.2,0.3c0.2,0.1,0.5,0.2,1,0.1C551.2,570.9,551.5,570.6,551.9,570.3z"/>
			
				<linearGradient id="SVGID_74_" gradientUnits="userSpaceOnUse" x1="-39.2066" y1="719.5706" x2="1047.2715" y2="719.5706" gradientTransform="matrix(1 0 0 1 0 -148.7999)">
				<stop  offset="0" style="stop-color:#1F3683"/>
				<stop  offset="1" style="stop-color:#0F0038"/>
			</linearGradient>
			<path class="st73" d="M551.9,570.3c-0.2,0-0.3,0-0.5,0.1c-0.5,0.2-0.9,0.1-1.2,0c-0.1,0.1-0.3,0.3-0.4,0.4
				c0.1,0.1,0.1,0.2,0.2,0.3c0.2,0.1,0.5,0.2,1,0.1C551.2,570.9,551.5,570.6,551.9,570.3z"/>
			
				<linearGradient id="SVGID_75_" gradientUnits="userSpaceOnUse" x1="553.8019" y1="718.6821" x2="549.3564" y2="719.9564" gradientTransform="matrix(1 0 0 1 0 -148.7999)">
				<stop  offset="0" style="stop-color:#F4D85F"/>
				<stop  offset="1" style="stop-color:#ECB543"/>
			</linearGradient>
			<path class="st74" d="M551.9,570.3c-0.2,0-0.3,0-0.5,0.1c-0.5,0.2-0.9,0.1-1.2,0c-0.1,0.1-0.3,0.3-0.4,0.4
				c0.1,0.1,0.1,0.2,0.2,0.3c0.2,0.1,0.5,0.2,1,0.1C551.2,570.9,551.5,570.6,551.9,570.3z"/>
			
				<linearGradient id="SVGID_76_" gradientUnits="userSpaceOnUse" x1="10385.3496" y1="720.3434" x2="10390.1113" y2="718.8523" gradientTransform="matrix(-1 0 0 1 10938.9629 -148.7999)">
				<stop  offset="0" style="stop-color:#E8A32E"/>
				<stop  offset="1" style="stop-color:#DD4D2C"/>
			</linearGradient>
			<path class="st75" d="M551.9,570.3c-0.2,0-0.3,0-0.5,0.1c-0.5,0.2-0.9,0.1-1.2,0c-0.1,0.1-0.3,0.3-0.4,0.4
				c0.1,0.1,0.1,0.2,0.2,0.3c0.2,0.1,0.5,0.2,1,0.1C551.2,570.9,551.5,570.6,551.9,570.3z"/>
			
				<linearGradient id="SVGID_77_" gradientUnits="userSpaceOnUse" x1="-1821.8595" y1="2913.9187" x2="-1821.8595" y2="1704.1801" gradientTransform="matrix(0.6906 -0.7233 0.7233 0.6906 -123.8445 -2596.5791)">
				<stop  offset="0" style="stop-color:#DBE8F9"/>
				<stop  offset="1" style="stop-color:#A8C8ED"/>
			</linearGradient>
			<path class="st76" d="M554,569.1c-0.1-0.2-0.1-0.4-0.3-0.6c-0.3,0.3-0.6,0.6-0.9,0.9C553.4,569.4,553.8,569.2,554,569.1z"/>
			
				<linearGradient id="SVGID_78_" gradientUnits="userSpaceOnUse" x1="553.5268" y1="717.7222" x2="549.0812" y2="718.9963" gradientTransform="matrix(1 0 0 1 0 -148.7999)">
				<stop  offset="0" style="stop-color:#F4D85F"/>
				<stop  offset="1" style="stop-color:#ECB543"/>
			</linearGradient>
			<path class="st77" d="M554,569.1c-0.1-0.2-0.1-0.4-0.3-0.6c-0.3,0.3-0.6,0.6-0.9,0.9C553.4,569.4,553.8,569.2,554,569.1z"/>
			
				<linearGradient id="SVGID_79_" gradientUnits="userSpaceOnUse" x1="10384.9629" y1="717.9848" x2="10389.4414" y2="716.5824" gradientTransform="matrix(-1 0 0 1 10938.9629 -148.7999)">
				<stop  offset="0" style="stop-color:#E8A32E"/>
				<stop  offset="1" style="stop-color:#DD4D2C"/>
			</linearGradient>
			<path class="st78" d="M554,569.1c-0.1-0.2-0.1-0.4-0.3-0.6c-0.3,0.3-0.6,0.6-0.9,0.9C553.4,569.4,553.8,569.2,554,569.1z"/>
			
				<linearGradient id="SVGID_80_" gradientUnits="userSpaceOnUse" x1="-1823.3361" y1="2913.9187" x2="-1823.3361" y2="1704.1801" gradientTransform="matrix(0.6906 -0.7233 0.7233 0.6906 -123.8445 -2596.5791)">
				<stop  offset="0" style="stop-color:#DBE8F9"/>
				<stop  offset="1" style="stop-color:#A8C8ED"/>
			</linearGradient>
			<path class="st79" d="M551.5,569c0.2-0.2,0.3-0.3,0.5-0.5c-0.1,0-0.3-0.1-0.4-0.1c-0.6-0.3-1.1-0.4-1.3-0.4
				c-0.3,0.2-0.5,0.5-0.6,0.9C550,568.8,550.7,568.7,551.5,569z"/>
			
				<linearGradient id="SVGID_81_" gradientUnits="userSpaceOnUse" x1="553.2156" y1="716.6364" x2="548.7699" y2="717.9103" gradientTransform="matrix(1 0 0 1 0 -148.7999)">
				<stop  offset="0" style="stop-color:#F4D85F"/>
				<stop  offset="1" style="stop-color:#ECB543"/>
			</linearGradient>
			<path class="st80" d="M551.5,569c0.2-0.2,0.3-0.3,0.5-0.5c-0.1,0-0.3-0.1-0.4-0.1c-0.6-0.3-1.1-0.4-1.3-0.4
				c-0.3,0.2-0.5,0.5-0.6,0.9C550,568.8,550.7,568.7,551.5,569z"/>
			
				<linearGradient id="SVGID_82_" gradientUnits="userSpaceOnUse" x1="10385.1006" y1="718.4239" x2="10389.5791" y2="717.0214" gradientTransform="matrix(-1 0 0 1 10938.9629 -148.7999)">
				<stop  offset="0" style="stop-color:#E8A32E"/>
				<stop  offset="1" style="stop-color:#DD4D2C"/>
			</linearGradient>
			<path class="st81" d="M551.5,569c0.2-0.2,0.3-0.3,0.5-0.5c-0.1,0-0.3-0.1-0.4-0.1c-0.6-0.3-1.1-0.4-1.3-0.4
				c-0.3,0.2-0.5,0.5-0.6,0.9C550,568.8,550.7,568.7,551.5,569z"/>
			
				<linearGradient id="SVGID_83_" gradientUnits="userSpaceOnUse" x1="-1822.1934" y1="2913.9187" x2="-1822.1934" y2="1704.1801" gradientTransform="matrix(0.6906 -0.7233 0.7233 0.6906 -123.8445 -2596.5791)">
				<stop  offset="0" style="stop-color:#DBE8F9"/>
				<stop  offset="1" style="stop-color:#A8C8ED"/>
			</linearGradient>
			<path class="st82" d="M552,568.6c-0.2,0.2-0.3,0.3-0.5,0.5c0.1,0,0.1,0,0.2,0.1c0.4,0.2,0.8,0.3,1.1,0.3c0.3-0.3,0.6-0.6,0.9-0.9
				c-0.1-0.2-0.2-0.3-0.4-0.5C553,568.3,552.6,568.6,552,568.6z"/>
			
				<linearGradient id="SVGID_84_" gradientUnits="userSpaceOnUse" x1="-39.2066" y1="717.5999" x2="1047.2715" y2="717.5999" gradientTransform="matrix(1 0 0 1 0 -148.7999)">
				<stop  offset="0" style="stop-color:#1F3683"/>
				<stop  offset="1" style="stop-color:#0F0038"/>
			</linearGradient>
			<path class="st83" d="M552,568.6c-0.2,0.2-0.3,0.3-0.5,0.5c0.1,0,0.1,0,0.2,0.1c0.4,0.2,0.8,0.3,1.1,0.3c0.3-0.3,0.6-0.6,0.9-0.9
				c-0.1-0.2-0.2-0.3-0.4-0.5C553,568.3,552.6,568.6,552,568.6z"/>
			
				<linearGradient id="SVGID_85_" gradientUnits="userSpaceOnUse" x1="553.4582" y1="717.4828" x2="549.0127" y2="718.757" gradientTransform="matrix(1 0 0 1 0 -148.7999)">
				<stop  offset="0" style="stop-color:#F4D85F"/>
				<stop  offset="1" style="stop-color:#ECB543"/>
			</linearGradient>
			<path class="st84" d="M552,568.6c-0.2,0.2-0.3,0.3-0.5,0.5c0.1,0,0.1,0,0.2,0.1c0.4,0.2,0.8,0.3,1.1,0.3c0.3-0.3,0.6-0.6,0.9-0.9
				c-0.1-0.2-0.2-0.3-0.4-0.5C553,568.3,552.6,568.6,552,568.6z"/>
			
				<linearGradient id="SVGID_86_" gradientUnits="userSpaceOnUse" x1="10384.9512" y1="717.9451" x2="10389.4297" y2="716.5426" gradientTransform="matrix(-1 0 0 1 10938.9629 -148.7999)">
				<stop  offset="0" style="stop-color:#E8A32E"/>
				<stop  offset="1" style="stop-color:#DD4D2C"/>
			</linearGradient>
			<path class="st85" d="M552,568.6c-0.2,0.2-0.3,0.3-0.5,0.5c0.1,0,0.1,0,0.2,0.1c0.4,0.2,0.8,0.3,1.1,0.3c0.3-0.3,0.6-0.6,0.9-0.9
				c-0.1-0.2-0.2-0.3-0.4-0.5C553,568.3,552.6,568.6,552,568.6z"/>
			
				<linearGradient id="SVGID_87_" gradientUnits="userSpaceOnUse" x1="-1822.5056" y1="2913.9187" x2="-1822.5056" y2="1704.1805" gradientTransform="matrix(0.6906 -0.7233 0.7233 0.6906 -123.8445 -2596.5791)">
				<stop  offset="0" style="stop-color:#DBE8F9"/>
				<stop  offset="1" style="stop-color:#A8C8ED"/>
			</linearGradient>
			<path class="st86" d="M552.1,570c0.2,0,0.4,0,0.5-0.1c0.6,0,1.2,0.3,1.4,0.4c0.1-0.2,0.1-0.4,0.1-0.6c0-0.1,0-0.2,0-0.3
				c-0.3,0.1-0.9,0.2-1.6,0.2C552.3,569.8,552.2,569.9,552.1,570z"/>
			
				<linearGradient id="SVGID_88_" gradientUnits="userSpaceOnUse" x1="553.778" y1="718.5986" x2="549.3325" y2="719.8729" gradientTransform="matrix(1 0 0 1 0 -148.7999)">
				<stop  offset="0" style="stop-color:#F4D85F"/>
				<stop  offset="1" style="stop-color:#ECB543"/>
			</linearGradient>
			<path class="st87" d="M552.1,570c0.2,0,0.4,0,0.5-0.1c0.6,0,1.2,0.3,1.4,0.4c0.1-0.2,0.1-0.4,0.1-0.6c0-0.1,0-0.2,0-0.3
				c-0.3,0.1-0.9,0.2-1.6,0.2C552.3,569.8,552.2,569.9,552.1,570z"/>
			
				<linearGradient id="SVGID_89_" gradientUnits="userSpaceOnUse" x1="10384.8359" y1="718.8217" x2="10389.4629" y2="717.3724" gradientTransform="matrix(-1 0 0 1 10938.9629 -148.7999)">
				<stop  offset="0" style="stop-color:#E8A32E"/>
				<stop  offset="1" style="stop-color:#DD4D2C"/>
			</linearGradient>
			<path class="st88" d="M552.1,570c0.2,0,0.4,0,0.5-0.1c0.6,0,1.2,0.3,1.4,0.4c0.1-0.2,0.1-0.4,0.1-0.6c0-0.1,0-0.2,0-0.3
				c-0.3,0.1-0.9,0.2-1.6,0.2C552.3,569.8,552.2,569.9,552.1,570z"/>
			
				<linearGradient id="SVGID_90_" gradientUnits="userSpaceOnUse" x1="-1824.2236" y1="2913.9187" x2="-1824.2236" y2="1704.1801" gradientTransform="matrix(0.6906 -0.7233 0.7233 0.6906 -123.8445 -2596.5791)">
				<stop  offset="0" style="stop-color:#DBE8F9"/>
				<stop  offset="1" style="stop-color:#A8C8ED"/>
			</linearGradient>
			<path class="st89" d="M551.2,569.3c-0.3-0.2-0.6-0.4-1-0.3c-0.3,0-0.5,0-0.6,0c-0.1,0.2-0.1,0.4-0.1,0.6c0.3,0.2,0.6,0.4,1,0.4
				C550.7,569.8,550.9,569.6,551.2,569.3z"/>
			
				<linearGradient id="SVGID_91_" gradientUnits="userSpaceOnUse" x1="553.4159" y1="717.3353" x2="548.9703" y2="718.6094" gradientTransform="matrix(1 0 0 1 0 -148.7999)">
				<stop  offset="0" style="stop-color:#F4D85F"/>
				<stop  offset="1" style="stop-color:#ECB543"/>
			</linearGradient>
			<path class="st90" d="M551.2,569.3c-0.3-0.2-0.6-0.4-1-0.3c-0.3,0-0.5,0-0.6,0c-0.1,0.2-0.1,0.4-0.1,0.6c0.3,0.2,0.6,0.4,1,0.4
				C550.7,569.8,550.9,569.6,551.2,569.3z"/>
			
				<linearGradient id="SVGID_92_" gradientUnits="userSpaceOnUse" x1="10385.0137" y1="719.389" x2="10389.6416" y2="717.9396" gradientTransform="matrix(-1 0 0 1 10938.9629 -148.7999)">
				<stop  offset="0" style="stop-color:#E8A32E"/>
				<stop  offset="1" style="stop-color:#DD4D2C"/>
			</linearGradient>
			<path class="st91" d="M551.2,569.3c-0.3-0.2-0.6-0.4-1-0.3c-0.3,0-0.5,0-0.6,0c-0.1,0.2-0.1,0.4-0.1,0.6c0.3,0.2,0.6,0.4,1,0.4
				C550.7,569.8,550.9,569.6,551.2,569.3z"/>
			
				<linearGradient id="SVGID_93_" gradientUnits="userSpaceOnUse" x1="-1823.788" y1="2913.9187" x2="-1823.788" y2="1704.1801" gradientTransform="matrix(0.6906 -0.7233 0.7233 0.6906 -123.8445 -2596.5791)">
				<stop  offset="0" style="stop-color:#DBE8F9"/>
				<stop  offset="1" style="stop-color:#A8C8ED"/>
			</linearGradient>
			<path class="st92" d="M551.2,569.3c-0.3,0.2-0.5,0.5-0.8,0.7c0.6,0.1,1.2,0,1.7,0c0.1-0.1,0.2-0.2,0.3-0.3c0,0,0,0-0.1,0
				C551.9,569.7,551.5,569.5,551.2,569.3z"/>
			
				<linearGradient id="SVGID_94_" gradientUnits="userSpaceOnUse" x1="-39.2066" y1="718.4722" x2="1047.2715" y2="718.4722" gradientTransform="matrix(1 0 0 1 0 -148.7999)">
				<stop  offset="0" style="stop-color:#1F3683"/>
				<stop  offset="1" style="stop-color:#0F0038"/>
			</linearGradient>
			<path class="st93" d="M551.2,569.3c-0.3,0.2-0.5,0.5-0.8,0.7c0.6,0.1,1.2,0,1.7,0c0.1-0.1,0.2-0.2,0.3-0.3c0,0,0,0-0.1,0
				C551.9,569.7,551.5,569.5,551.2,569.3z"/>
			
				<linearGradient id="SVGID_95_" gradientUnits="userSpaceOnUse" x1="553.5771" y1="717.8976" x2="549.1315" y2="719.1718" gradientTransform="matrix(1 0 0 1 0 -148.7999)">
				<stop  offset="0" style="stop-color:#F4D85F"/>
				<stop  offset="1" style="stop-color:#ECB543"/>
			</linearGradient>
			<path class="st94" d="M551.2,569.3c-0.3,0.2-0.5,0.5-0.8,0.7c0.6,0.1,1.2,0,1.7,0c0.1-0.1,0.2-0.2,0.3-0.3c0,0,0,0-0.1,0
				C551.9,569.7,551.5,569.5,551.2,569.3z"/>
			
				<linearGradient id="SVGID_96_" gradientUnits="userSpaceOnUse" x1="10385.0273" y1="719.4319" x2="10389.6553" y2="717.9825" gradientTransform="matrix(-1 0 0 1 10938.9629 -148.7999)">
				<stop  offset="0" style="stop-color:#E8A32E"/>
				<stop  offset="1" style="stop-color:#DD4D2C"/>
			</linearGradient>
			<path class="st95" d="M551.2,569.3c-0.3,0.2-0.5,0.5-0.8,0.7c0.6,0.1,1.2,0,1.7,0c0.1-0.1,0.2-0.2,0.3-0.3c0,0,0,0-0.1,0
				C551.9,569.7,551.5,569.5,551.2,569.3z"/>
		</g>
		
			<linearGradient id="SVGID_97_" gradientUnits="userSpaceOnUse" x1="-1693.342" y1="2659.2534" x2="-1693.342" y2="2507.5889" gradientTransform="matrix(0.6906 -0.7233 0.7233 0.6906 -123.8445 -2596.5791)">
			<stop  offset="0" style="stop-color:#2A49F9"/>
			<stop  offset="1" style="stop-color:#3A3981"/>
		</linearGradient>
		<path class="st96" d="M795.1,180.1c28.4,27.1-47.5,152.6-169.4,280.3S381.9,669.7,353.5,642.6S401,490,522.9,362.3
			S766.7,153.1,795.1,180.1z"/>
		<circle class="st97" cx="403.7" cy="600.1" r="1.5"/>
		<circle class="st97" cx="476.8" cy="482.7" r="1.5"/>
		<circle class="st97" cx="722.8" cy="223.4" r="1.5"/>
		<circle class="st97" cx="702.1" cy="338.4" r="1.5"/>
		<circle class="st97" cx="431.8" cy="523.6" r="1.5"/>
		<circle class="st97" cx="475.3" cy="515.3" r="1.5"/>
		<circle class="st97" cx="358.7" cy="616.2" r="1.5"/>
		<circle class="st97" cx="595.3" cy="307.2" r="1.5"/>
		<circle class="st97" cx="648.6" cy="304.2" r="1.5"/>
		<circle class="st97" cx="695" cy="234.8" r="1.5"/>
		<circle class="st97" cx="586" cy="352.1" r="1.5"/>
		<circle class="st97" cx="479.1" cy="553.3" r="2.3"/>
		<circle class="st97" cx="760" cy="273.1" r="2.3"/>
		<g>
			<circle class="st97" cx="646.3" cy="363.3" r="2.3"/>
		</g>
		<circle class="st97" cx="524.4" cy="515.3" r="3.3"/>
	</g>
</g>
</svg>
