<?xml version="1.0" encoding="utf-8"?>
<!-- Generator: Adobe Illustrator 22.1.0, SVG Export Plug-In . SVG Version: 6.00 Build 0)  -->
<svg version="1.1" id="Capa_1" xmlns="http://www.w3.org/2000/svg" xmlns:xlink="http://www.w3.org/1999/xlink" x="0px" y="0px"
	 viewBox="0 0 1062.8 931.2" style="enable-background:new 0 0 1062.8 931.2;" xml:space="preserve">
<style type="text/css">
	.st0{fill:url(#SVGID_1_);}
	.st1{fill:url(#SVGID_2_);}
	.st2{fill:url(#SVGID_3_);}
	.st3{fill:url(#SVGID_4_);}
	.st4{fill:url(#SVGID_5_);}
	.st5{fill:url(#SVGID_6_);}
	.st6{fill:url(#SVGID_7_);}
	.st7{fill:url(#SVGID_8_);}
	.st8{fill:url(#SVGID_9_);}
	.st9{fill:url(#SVGID_10_);}
	.st10{fill:url(#SVGID_11_);}
	.st11{fill:url(#SVGID_12_);}
	.st12{fill:url(#SVGID_13_);}
	.st13{fill:url(#SVGID_14_);}
	.st14{fill:url(#SVGID_15_);}
	.st15{fill:url(#SVGID_16_);}
	.st16{fill:url(#SVGID_17_);}
	.st17{fill:url(#SVGID_18_);}
	.st18{fill:url(#SVGID_19_);}
	.st19{fill:url(#SVGID_20_);}
	.st20{fill:url(#SVGID_21_);}
	.st21{fill:url(#SVGID_22_);}
	.st22{fill:url(#SVGID_23_);}
	.st23{fill:url(#SVGID_24_);}
	.st24{fill:url(#SVGID_25_);}
	.st25{fill:url(#SVGID_26_);}
	.st26{fill:url(#SVGID_27_);}
	.st27{fill:url(#SVGID_28_);}
	.st28{fill:url(#SVGID_29_);}
	.st29{fill:url(#SVGID_30_);}
	.st30{fill:url(#SVGID_31_);}
	.st31{fill:url(#SVGID_32_);}
	.st32{fill:url(#SVGID_33_);}
	.st33{fill:url(#SVGID_34_);}
	.st34{fill:url(#SVGID_35_);}
	.st35{fill:url(#SVGID_36_);}
	.st36{fill:url(#SVGID_37_);}
	.st37{fill:url(#SVGID_38_);}
	.st38{fill:url(#SVGID_39_);}
	.st39{fill:url(#SVGID_40_);}
	.st40{fill:none;}
</style>
<g id="Capa_4">
</g>
<g>
	
		<linearGradient id="SVGID_1_" gradientUnits="userSpaceOnUse" x1="-1839.0414" y1="3010.113" x2="-1839.0414" y2="1800.3744" gradientTransform="matrix(0.6906 -0.7233 0.7233 0.6906 -165.0568 -2692.9165)">
		<stop  offset="0" style="stop-color:#DBE8F9"/>
		<stop  offset="1" style="stop-color:#A8C8ED"/>
	</linearGradient>
	<path class="st0" d="M0,0v111.3C32.5,74,66.2,36.8,100.9,0H0z"/>
	
		<linearGradient id="SVGID_2_" gradientUnits="userSpaceOnUse" x1="-1845.2306" y1="3010.113" x2="-1845.2306" y2="1800.3744" gradientTransform="matrix(0.6906 -0.7233 0.7233 0.6906 -165.0568 -2692.9165)">
		<stop  offset="0" style="stop-color:#DBE8F9"/>
		<stop  offset="1" style="stop-color:#A8C8ED"/>
	</linearGradient>
	<path class="st1" d="M205.2,0H102.4C67.2,37.4,33,75.1,0,113.1V228C54.8,161.7,113.6,95.7,175.7,30.6
		C185.5,20.3,195.3,10.1,205.2,0z"/>
	
		<linearGradient id="SVGID_3_" gradientUnits="userSpaceOnUse" x1="-1741.4175" y1="3010.113" x2="-1741.4175" y2="1800.3744" gradientTransform="matrix(0.6906 -0.7233 0.7233 0.6906 -165.0568 -2692.9165)">
		<stop  offset="0" style="stop-color:#DBE8F9"/>
		<stop  offset="1" style="stop-color:#A8C8ED"/>
	</linearGradient>
	<path class="st2" d="M456,298.4c-99.4,104.1-183.4,210.9-236.6,300.7c-25.9,43.7-43,80.9-51,110.7c-8.2,30.7-6.3,52.1,5.7,63.6
		c0.3,0.3,0.7,0.6,1,0.9c15.6-10.6,31.1-21.3,46.4-32.1c-0.9-0.7-1.8-1.4-2.6-2.2c-22-21-7.8-77.1,39.9-158
		c47.6-80.7,122.8-176.4,211.9-269.7c89-93.3,181.2-172.8,259.6-224.1c73.4-48,126.5-65.7,151.1-50.8C888.3,25.6,895.5,13.1,903,0
		h-70.8C741.3,38.4,598.2,149.5,456,298.4z"/>
	
		<linearGradient id="SVGID_4_" gradientUnits="userSpaceOnUse" x1="-1734.8236" y1="3010.113" x2="-1734.8236" y2="1800.3744" gradientTransform="matrix(0.6906 -0.7233 0.7233 0.6906 -165.0568 -2692.9165)">
		<stop  offset="0" style="stop-color:#DBE8F9"/>
		<stop  offset="1" style="stop-color:#A8C8ED"/>
	</linearGradient>
	<path class="st3" d="M471.5,313.1c-89,93.2-164.2,188.9-211.7,269.5c-23.1,39.2-38.4,72.6-45.5,99.4c-7.3,27.6-5.5,46.8,5.4,57.2
		c0.9,0.8,1.8,1.6,2.8,2.3c13.7-9.7,27.2-19.4,40.7-29.3c-1.5-0.9-2.9-2-4.2-3.2c-20-19.1-7.6-69.6,35-142.3
		c42.4-72.5,109.7-158.4,189.6-242c79.8-83.6,162.5-154.8,233-200.5c69-44.8,118.2-59.9,139.1-42.8c7.8-13.1,16.3-27.5,25.3-42.9
		c-5.5-3.4-12.6-5-20.9-5C790.6,33.4,630.2,146.8,471.5,313.1z"/>
	
		<linearGradient id="SVGID_5_" gradientUnits="userSpaceOnUse" x1="-1734.5359" y1="3010.113" x2="-1734.5359" y2="1800.3744" gradientTransform="matrix(0.6906 -0.7233 0.7233 0.6906 -165.0568 -2692.9165)">
		<stop  offset="0" style="stop-color:#DBE8F9"/>
		<stop  offset="1" style="stop-color:#A8C8ED"/>
	</linearGradient>
	<path class="st4" d="M810.3,113.8c-23,0-58.6,15.1-103.8,44.5c-63.2,41-137.4,104.9-208.9,179.8c-71.6,75-131.9,152-170,217
		c-37.9,64.8-49.1,109.7-31.6,126.4c1.2,1.1,2.5,2.1,4,3c8.7-6.6,17.3-13.3,25.9-20.1c-1.5-0.9-2.9-1.9-4.2-3.1
		c-16.4-15.7-6.3-57.2,28.7-116.9c34.8-59.5,90-130,155.5-198.5c65.5-68.6,133.3-127,191.1-164.5c58-37.7,99-49.7,115.4-34
		c0.6,0.6,1.2,1.3,1.8,2c4.9-8,10.8-17.5,17.4-28.3c-0.1-0.1-0.1-0.1-0.2-0.2C826.5,116.1,819.4,113.8,810.3,113.8z"/>
	
		<linearGradient id="SVGID_6_" gradientUnits="userSpaceOnUse" x1="-1734.5123" y1="3010.113" x2="-1734.5123" y2="1800.3744" gradientTransform="matrix(0.6906 -0.7233 0.7233 0.6906 -165.0568 -2692.9165)">
		<stop  offset="0" style="stop-color:#DBE8F9"/>
		<stop  offset="1" style="stop-color:#A8C8ED"/>
	</linearGradient>
	<path class="st5" d="M717.1,125c-70.4,45.7-153,116.8-232.8,200.4C319.9,497.6,219.1,669.3,259.8,708.1c1.3,1.3,2.8,2.4,4.4,3.3
		c11.7-8.6,23.4-17.4,34.9-26.2c-1.4-0.8-2.6-1.8-3.8-2.9c-18-17.2-6.8-62.6,31.4-127.8c38.1-65.1,98.5-142.2,170.1-217.2
		s145.9-138.9,209.1-180c63.4-41.2,108.3-54.4,126.2-37.3l0,0c6.8-11.2,14.4-23.8,22.8-37.9c-5.4-4.5-12.9-6.7-22.2-6.7
		C807.1,75.5,767.5,92.3,717.1,125z"/>
	
		<linearGradient id="SVGID_7_" gradientUnits="userSpaceOnUse" x1="-1865.3279" y1="3010.113" x2="-1865.3279" y2="1800.3744" gradientTransform="matrix(0.6906 -0.7233 0.7233 0.6906 -165.0568 -2692.9165)">
		<stop  offset="0" style="stop-color:#DBE8F9"/>
		<stop  offset="1" style="stop-color:#A8C8ED"/>
	</linearGradient>
	<path class="st6" d="M402.4,247.1C142.2,519.7-16.1,792.5,49.6,855.2c0.1,0.1,0.1,0.1,0.2,0.2c23.2-14.3,46.4-29,69.6-44.1
		c-27-26.5-9.3-96.5,49.9-197.1c59.4-100.8,153.3-220.5,264.6-337C543.6,162.3,657.2,64.1,754.3,0H674
		C589,65.4,495.4,149.8,402.4,247.1z"/>
	
		<linearGradient id="SVGID_8_" gradientUnits="userSpaceOnUse" x1="-1885.3313" y1="3010.113" x2="-1885.3313" y2="1800.3744" gradientTransform="matrix(0.6906 -0.7233 0.7233 0.6906 -165.0568 -2692.9165)">
		<stop  offset="0" style="stop-color:#DBE8F9"/>
		<stop  offset="1" style="stop-color:#A8C8ED"/>
	</linearGradient>
	<path class="st7" d="M364.1,210.6c74.1-77.7,150-149,223.6-210.5H486.2c-56.4,50.4-113.3,105.4-169,163.8
		C188.3,298.7,78,438.3,0,564.6V704c9.6-20.7,21-42.8,34.2-66.1C106.9,509,224,357.2,364.1,210.6z"/>
	
		<linearGradient id="SVGID_9_" gradientUnits="userSpaceOnUse" x1="-1860.0034" y1="3010.113" x2="-1860.0034" y2="1800.3744" gradientTransform="matrix(0.6906 -0.7233 0.7233 0.6906 -165.0568 -2692.9165)">
		<stop  offset="0" style="stop-color:#DBE8F9"/>
		<stop  offset="1" style="stop-color:#A8C8ED"/>
	</linearGradient>
	<path class="st8" d="M401,0h-93.2c-26.7,26.2-53.3,53.2-79.6,80.8C144.7,168.3,67.8,257.6,0,345.4v110.4
		C76.3,348,169.9,235.2,274.8,125.3C316.4,81.6,358.7,39.7,401,0z"/>
	
		<linearGradient id="SVGID_10_" gradientUnits="userSpaceOnUse" x1="-1921.8932" y1="3010.113" x2="-1921.8932" y2="1800.3744" gradientTransform="matrix(0.6906 -0.7233 0.7233 0.6906 -165.0568 -2692.9165)">
		<stop  offset="0" style="stop-color:#DBE8F9"/>
		<stop  offset="1" style="stop-color:#A8C8ED"/>
	</linearGradient>
	<path class="st9" d="M102.5,629.7c66.7-115,172.9-251.2,299.1-383.3C492.1,151.5,585.2,66.8,671.9,0h-82.3
		c-72.7,60.8-149,132.1-224.7,211.3C192.3,392.1,61.2,574.1,0,706.8v178.8c16.2-9.7,32.5-19.6,48.8-29.6
		C16.7,825.2,35.8,744.9,102.5,629.7z"/>
	
		<linearGradient id="SVGID_11_" gradientUnits="userSpaceOnUse" x1="-1869.7218" y1="3010.113" x2="-1869.7218" y2="1800.3744" gradientTransform="matrix(0.6906 -0.7233 0.7233 0.6906 -165.0568 -2692.9165)">
		<stop  offset="0" style="stop-color:#DBE8F9"/>
		<stop  offset="1" style="stop-color:#A8C8ED"/>
	</linearGradient>
	<path class="st10" d="M484.5,0h-81.8c-42.3,39.7-84.8,81.8-127.1,126.1C170.3,236.3,76.4,349.6,0,457.7v104.7
		c78-125.9,188-265,316.3-399.5C371.8,104.9,428.3,50.2,484.5,0z"/>
	
		<linearGradient id="SVGID_12_" gradientUnits="userSpaceOnUse" x1="-1852.1614" y1="3010.113" x2="-1852.1614" y2="1800.3744" gradientTransform="matrix(0.6906 -0.7233 0.7233 0.6906 -165.0568 -2692.9165)">
		<stop  offset="0" style="stop-color:#DBE8F9"/>
		<stop  offset="1" style="stop-color:#A8C8ED"/>
	</linearGradient>
	<path class="st11" d="M306.2,0h-99.4c-10.1,10.4-20.2,20.8-30.3,31.4C114.1,96.8,55,163.1,0,229.8v113.8
		c67.6-87.5,144.2-176.4,227.4-263.5C253.5,52.7,279.8,26,306.2,0z"/>
	
		<linearGradient id="SVGID_13_" gradientUnits="userSpaceOnUse" x1="-1798.9614" y1="3010.113" x2="-1798.9614" y2="1800.3744" gradientTransform="matrix(0.6906 -0.7233 0.7233 0.6906 -165.0568 -2692.9165)">
		<stop  offset="0" style="stop-color:#DBE8F9"/>
		<stop  offset="1" style="stop-color:#A8C8ED"/>
	</linearGradient>
	<path class="st12" d="M434.6,277.9c-229.1,240-370,478.8-314.3,532.7c18-11.7,36-23.6,53.8-35.7c-0.3-0.2-0.6-0.5-0.8-0.7
		C149,751,165,688.6,218.4,598.5c53.3-89.9,137.4-196.8,236.8-300.9S657.5,104.5,744.8,47.2c31.7-20.8,60.1-36.6,84.4-47.1h-73
		C658.9,64,544.8,162.5,434.6,277.9z"/>
	
		<linearGradient id="SVGID_14_" gradientUnits="userSpaceOnUse" x1="-1734.6083" y1="3010.113" x2="-1734.6083" y2="1800.3744" gradientTransform="matrix(0.6906 -0.7233 0.7233 0.6906 -165.0568 -2692.9165)">
		<stop  offset="0" style="stop-color:#DBE8F9"/>
		<stop  offset="1" style="stop-color:#A8C8ED"/>
	</linearGradient>
	<path class="st13" d="M697,181.5C639.2,219,571.3,277.4,505.9,346c-65.5,68.6-120.7,139.1-155.5,198.5
		c-34.9,59.7-45.1,101.2-28.7,116.9c1.3,1.2,2.7,2.2,4.2,3.1c0.3-0.3,0.6-0.5,1-0.8c-1.6-0.9-3.1-1.9-4.4-3.2
		c-33.3-31.8,49.3-172.6,184.2-313.8c65.4-68.5,133.2-126.9,190.9-164.3c41.3-26.8,73.8-40.6,94.8-40.6c8.2,0,14.7,2.1,19.2,6.5
		c0.7,0.7,1.3,1.4,1.9,2.2c0.2-0.3,0.4-0.7,0.6-1c-0.6-0.7-1.2-1.4-1.8-2C796,131.7,755,143.8,697,181.5z"/>
	
		<linearGradient id="SVGID_15_" gradientUnits="userSpaceOnUse" x1="314.0599" y1="597.0181" x2="820.1223" y2="597.0181" gradientTransform="matrix(1 0 0 1 0 -194.4)">
		<stop  offset="0" style="stop-color:#1F3683"/>
		<stop  offset="1" style="stop-color:#0F0038"/>
	</linearGradient>
	<path class="st14" d="M697,181.5C639.2,219,571.3,277.4,505.9,346c-65.5,68.6-120.7,139.1-155.5,198.5
		c-34.9,59.7-45.1,101.2-28.7,116.9c1.3,1.2,2.7,2.2,4.2,3.1c0.3-0.3,0.6-0.5,1-0.8c-1.6-0.9-3.1-1.9-4.4-3.2
		c-33.3-31.8,49.3-172.6,184.2-313.8c65.4-68.5,133.2-126.9,190.9-164.3c41.3-26.8,73.8-40.6,94.8-40.6c8.2,0,14.7,2.1,19.2,6.5
		c0.7,0.7,1.3,1.4,1.9,2.2c0.2-0.3,0.4-0.7,0.6-1c-0.6-0.7-1.2-1.4-1.8-2C796,131.7,755,143.8,697,181.5z"/>
	
		<linearGradient id="SVGID_16_" gradientUnits="userSpaceOnUse" x1="-1734.401" y1="3010.113" x2="-1734.401" y2="1800.3744" gradientTransform="matrix(0.6906 -0.7233 0.7233 0.6906 -165.0568 -2692.9165)">
		<stop  offset="0" style="stop-color:#DBE8F9"/>
		<stop  offset="1" style="stop-color:#A8C8ED"/>
	</linearGradient>
	<path class="st15" d="M706,157.3c-63.2,41.1-137.5,105-209.1,180S364.8,489.5,326.8,554.5c-38.2,65.3-49.4,110.7-31.4,127.8
		c1.1,1.1,2.4,2.1,3.8,2.9c0.3-0.2,0.6-0.5,1-0.7c-1.4-0.9-2.8-1.8-4-3c-17.6-16.8-6.3-61.7,31.6-126.4c38-65,98.4-142.1,170-217
		c71.6-75,145.8-138.8,208.9-179.8c45.2-29.3,80.8-44.5,103.8-44.5c9,0,16.1,2.3,21.1,7.1c0.1,0.1,0.1,0.1,0.2,0.2
		c0.2-0.3,0.4-0.7,0.6-1l0,0C814.2,102.9,769.4,116.1,706,157.3z"/>
	
		<linearGradient id="SVGID_17_" gradientUnits="userSpaceOnUse" x1="287.0125" y1="593.373" x2="840.6871" y2="593.373" gradientTransform="matrix(1 0 0 1 0 -194.4)">
		<stop  offset="0" style="stop-color:#1F3683"/>
		<stop  offset="1" style="stop-color:#0F0038"/>
	</linearGradient>
	<path class="st16" d="M706,157.3c-63.2,41.1-137.5,105-209.1,180S364.8,489.5,326.8,554.5c-38.2,65.3-49.4,110.7-31.4,127.8
		c1.1,1.1,2.4,2.1,3.8,2.9c0.3-0.2,0.6-0.5,1-0.7c-1.4-0.9-2.8-1.8-4-3c-17.6-16.8-6.3-61.7,31.6-126.4c38-65,98.4-142.1,170-217
		c71.6-75,145.8-138.8,208.9-179.8c45.2-29.3,80.8-44.5,103.8-44.5c9,0,16.1,2.3,21.1,7.1c0.1,0.1,0.1,0.1,0.2,0.2
		c0.2-0.3,0.4-0.7,0.6-1l0,0C814.2,102.9,769.4,116.1,706,157.3z"/>
	
		<linearGradient id="SVGID_18_" gradientUnits="userSpaceOnUse" x1="-1734.5774" y1="3010.113" x2="-1734.5774" y2="1800.3744" gradientTransform="matrix(0.6906 -0.7233 0.7233 0.6906 -165.0568 -2692.9165)">
		<stop  offset="0" style="stop-color:#DBE8F9"/>
		<stop  offset="1" style="stop-color:#A8C8ED"/>
	</linearGradient>
	<path class="st17" d="M716.5,124.1c-70.4,45.7-153.2,117-233,200.5c-79.8,83.6-147.1,169.5-189.6,242c-42.6,72.7-55,123.2-35,142.3
		c1.3,1.2,2.7,2.3,4.2,3.2c0.3-0.2,0.6-0.5,1-0.7c-1.6-1-3-2.1-4.4-3.3c-40.6-38.8,60.1-210.5,224.6-382.7
		C564,241.9,646.7,170.7,717.1,125c50.3-32.7,90-49.5,115.6-49.5c9.3,0,16.8,2.2,22.2,6.7c0.2-0.3,0.4-0.6,0.6-1
		C834.7,64.2,785.5,79.3,716.5,124.1z"/>
	
		<linearGradient id="SVGID_19_" gradientUnits="userSpaceOnUse" x1="249.575" y1="587.6512" x2="866.3024" y2="587.6512" gradientTransform="matrix(1 0 0 1 0 -194.4)">
		<stop  offset="0" style="stop-color:#1F3683"/>
		<stop  offset="1" style="stop-color:#0F0038"/>
	</linearGradient>
	<path class="st18" d="M716.5,124.1c-70.4,45.7-153.2,117-233,200.5c-79.8,83.6-147.1,169.5-189.6,242c-42.6,72.7-55,123.2-35,142.3
		c1.3,1.2,2.7,2.3,4.2,3.2c0.3-0.2,0.6-0.5,1-0.7c-1.6-1-3-2.1-4.4-3.3c-40.6-38.8,60.1-210.5,224.6-382.7
		C564,241.9,646.7,170.7,717.1,125c50.3-32.7,90-49.5,115.6-49.5c9.3,0,16.8,2.2,22.2,6.7c0.2-0.3,0.4-0.6,0.6-1
		C834.7,64.2,785.5,79.3,716.5,124.1z"/>
	
		<linearGradient id="SVGID_20_" gradientUnits="userSpaceOnUse" x1="-1734.8206" y1="3010.113" x2="-1734.8206" y2="1800.3744" gradientTransform="matrix(0.6906 -0.7233 0.7233 0.6906 -165.0568 -2692.9165)">
		<stop  offset="0" style="stop-color:#DBE8F9"/>
		<stop  offset="1" style="stop-color:#A8C8ED"/>
	</linearGradient>
	<path class="st19" d="M730.3,88.2C651.9,139.4,559.7,219,470.7,312.3S306.4,501.3,258.8,582c-47.7,80.9-61.9,137-39.9,158
		c0.8,0.8,1.7,1.5,2.6,2.2c0.3-0.2,0.7-0.5,1-0.7c-1-0.7-1.9-1.5-2.8-2.3c-10.8-10.4-12.7-29.6-5.4-57.2
		c7.1-26.8,22.4-60.2,45.5-99.4c47.5-80.6,122.7-176.3,211.7-269.5C630.3,146.8,790.6,33.4,860,33.4c8.3,0,15.3,1.6,20.9,5
		c0.2-0.3,0.4-0.6,0.6-1C856.8,22.5,803.6,40.2,730.3,88.2z"/>
	
		<linearGradient id="SVGID_21_" gradientUnits="userSpaceOnUse" x1="208.7953" y1="581.6323" x2="896.2999" y2="581.6323" gradientTransform="matrix(1 0 0 1 0 -194.4)">
		<stop  offset="0" style="stop-color:#1F3683"/>
		<stop  offset="1" style="stop-color:#0F0038"/>
	</linearGradient>
	<path class="st20" d="M730.3,88.2C651.9,139.4,559.7,219,470.7,312.3S306.4,501.3,258.8,582c-47.7,80.9-61.9,137-39.9,158
		c0.8,0.8,1.7,1.5,2.6,2.2c0.3-0.2,0.7-0.5,1-0.7c-1-0.7-1.9-1.5-2.8-2.3c-10.8-10.4-12.7-29.6-5.4-57.2
		c7.1-26.8,22.4-60.2,45.5-99.4c47.5-80.6,122.7-176.3,211.7-269.5C630.3,146.8,790.6,33.4,860,33.4c8.3,0,15.3,1.6,20.9,5
		c0.2-0.3,0.4-0.6,0.6-1C856.8,22.5,803.6,40.2,730.3,88.2z"/>
	
		<linearGradient id="SVGID_22_" gradientUnits="userSpaceOnUse" x1="-1766.4305" y1="3010.113" x2="-1766.4305" y2="1800.3744" gradientTransform="matrix(0.6906 -0.7233 0.7233 0.6906 -165.0568 -2692.9165)">
		<stop  offset="0" style="stop-color:#DBE8F9"/>
		<stop  offset="1" style="stop-color:#A8C8ED"/>
	</linearGradient>
	<path class="st21" d="M455.2,297.6c-99.4,104.1-183.5,211-236.8,300.9C165,688.6,149,751,173.3,774.2c0.3,0.3,0.5,0.5,0.8,0.7
		c0.3-0.2,0.6-0.4,1-0.6c-0.3-0.3-0.7-0.6-1-0.9c-12-11.5-13.9-32.9-5.7-63.6c8-29.8,25.2-67.1,51-110.7
		c53.2-89.8,137.3-196.6,236.6-300.7C598.1,149.5,741.3,38.4,832.2,0h-2.9c-24.4,10.5-52.7,26.3-84.4,47.1
		C657.5,104.5,554.6,193.5,455.2,297.6z"/>
	
		<linearGradient id="SVGID_23_" gradientUnits="userSpaceOnUse" x1="162.2299" y1="581.85" x2="929.3433" y2="581.85" gradientTransform="matrix(1 0 0 1 0 -194.4)">
		<stop  offset="0" style="stop-color:#1F3683"/>
		<stop  offset="1" style="stop-color:#0F0038"/>
	</linearGradient>
	<path class="st22" d="M455.2,297.6c-99.4,104.1-183.5,211-236.8,300.9C165,688.6,149,751,173.3,774.2c0.3,0.3,0.5,0.5,0.8,0.7
		c0.3-0.2,0.6-0.4,1-0.6c-0.3-0.3-0.7-0.6-1-0.9c-12-11.5-13.9-32.9-5.7-63.6c8-29.8,25.2-67.1,51-110.7
		c53.2-89.8,137.3-196.6,236.6-300.7C598.1,149.5,741.3,38.4,832.2,0h-2.9c-24.4,10.5-52.7,26.3-84.4,47.1
		C657.5,104.5,554.6,193.5,455.2,297.6z"/>
	
		<linearGradient id="SVGID_24_" gradientUnits="userSpaceOnUse" x1="-1824.7645" y1="3010.113" x2="-1824.7645" y2="1800.3744" gradientTransform="matrix(0.6906 -0.7233 0.7233 0.6906 -165.0568 -2692.9165)">
		<stop  offset="0" style="stop-color:#DBE8F9"/>
		<stop  offset="1" style="stop-color:#A8C8ED"/>
	</linearGradient>
	<path class="st23" d="M433.8,277.2c-111.2,116.5-205.2,236.2-264.6,337C110,714.8,92.3,784.7,119.3,811.3c0.3-0.2,0.6-0.4,1-0.6
		C64.6,756.8,205.5,518,434.6,278C544.8,162.6,658.9,64,756.2,0.1h-2C657.1,64,543.5,162.3,433.8,277.2z"/>
	
		<linearGradient id="SVGID_25_" gradientUnits="userSpaceOnUse" x1="106.9788" y1="600.1" x2="965.8447" y2="600.1" gradientTransform="matrix(1 0 0 1 0 -194.4)">
		<stop  offset="0" style="stop-color:#1F3683"/>
		<stop  offset="1" style="stop-color:#0F0038"/>
	</linearGradient>
	<path class="st24" d="M433.8,277.2c-111.2,116.5-205.2,236.2-264.6,337C110,714.8,92.3,784.7,119.3,811.3c0.3-0.2,0.6-0.4,1-0.6
		C64.6,756.8,205.5,518,434.6,278C544.8,162.6,658.9,64,756.2,0.1h-2C657.1,64,543.5,162.3,433.8,277.2z"/>
	
		<linearGradient id="SVGID_26_" gradientUnits="userSpaceOnUse" x1="-1893.6842" y1="3010.113" x2="-1893.6842" y2="1800.3744" gradientTransform="matrix(0.6906 -0.7233 0.7233 0.6906 -165.0568 -2692.9165)">
		<stop  offset="0" style="stop-color:#DBE8F9"/>
		<stop  offset="1" style="stop-color:#A8C8ED"/>
	</linearGradient>
	<path class="st25" d="M401.6,246.4C275.4,378.5,169.2,514.7,102.5,629.7C35.8,744.9,16.7,825.2,48.7,856c0.3-0.2,0.7-0.4,1-0.6
		c-0.1-0.1-0.1-0.1-0.2-0.2c-65.7-62.7,92.6-335.5,352.8-608.1C495.4,149.8,589,65.4,673.9,0h-2C585.2,66.8,492.1,151.5,401.6,246.4
		z"/>
	
		<linearGradient id="SVGID_27_" gradientUnits="userSpaceOnUse" x1="33.5614" y1="622.4" x2="1009.5093" y2="622.4" gradientTransform="matrix(1 0 0 1 0 -194.4)">
		<stop  offset="0" style="stop-color:#1F3683"/>
		<stop  offset="1" style="stop-color:#0F0038"/>
	</linearGradient>
	<path class="st26" d="M401.6,246.4C275.4,378.5,169.2,514.7,102.5,629.7C35.8,744.9,16.7,825.2,48.7,856c0.3-0.2,0.7-0.4,1-0.6
		c-0.1-0.1-0.1-0.1-0.2-0.2c-65.7-62.7,92.6-335.5,352.8-608.1C495.4,149.8,589,65.4,673.9,0h-2C585.2,66.8,492.1,151.5,401.6,246.4
		z"/>
	
		<linearGradient id="SVGID_28_" gradientUnits="userSpaceOnUse" x1="-1885.6877" y1="3010.113" x2="-1885.6877" y2="1800.3744" gradientTransform="matrix(0.6906 -0.7233 0.7233 0.6906 -165.0568 -2692.9165)">
		<stop  offset="0" style="stop-color:#DBE8F9"/>
		<stop  offset="1" style="stop-color:#A8C8ED"/>
	</linearGradient>
	<path class="st27" d="M589.6,0h-1.9c-73.6,61.6-149.5,132.9-223.6,210.5C224,357.2,106.9,509,34.2,637.9
		C21.1,661.2,9.7,683.3,0,704v2.9c61.2-132.8,192.3-314.7,364.9-495.5C440.6,132.1,516.8,60.8,589.6,0z"/>
	
		<linearGradient id="SVGID_29_" gradientUnits="userSpaceOnUse" x1="-39.251" y1="547.85" x2="1047.2271" y2="547.85" gradientTransform="matrix(1 0 0 1 0 -194.4)">
		<stop  offset="0" style="stop-color:#1F3683"/>
		<stop  offset="1" style="stop-color:#0F0038"/>
	</linearGradient>
	<path class="st28" d="M589.6,0h-1.9c-73.6,61.6-149.5,132.9-223.6,210.5C224,357.2,106.9,509,34.2,637.9
		C21.1,661.2,9.7,683.3,0,704v2.9c61.2-132.8,192.3-314.7,364.9-495.5C440.6,132.1,516.8,60.8,589.6,0z"/>
	
		<linearGradient id="SVGID_30_" gradientUnits="userSpaceOnUse" x1="-1869.9304" y1="3010.113" x2="-1869.9304" y2="1800.3744" gradientTransform="matrix(0.6906 -0.7233 0.7233 0.6906 -165.0568 -2692.9165)">
		<stop  offset="0" style="stop-color:#DBE8F9"/>
		<stop  offset="1" style="stop-color:#A8C8ED"/>
	</linearGradient>
	<path class="st29" d="M486.2,0h-1.7c-56.2,50.2-112.7,104.9-168.2,163C188,297.4,78,436.5,0,562.5v2.1
		c78-126.3,188.3-265.9,317.1-400.8C372.9,105.4,429.7,50.4,486.2,0z"/>
	
		<linearGradient id="SVGID_31_" gradientUnits="userSpaceOnUse" x1="-118.1714" y1="476.7" x2="1082.3011" y2="476.7" gradientTransform="matrix(1 0 0 1 0 -194.4)">
		<stop  offset="0" style="stop-color:#1F3683"/>
		<stop  offset="1" style="stop-color:#0F0038"/>
	</linearGradient>
	<path class="st30" d="M486.2,0h-1.7c-56.2,50.2-112.7,104.9-168.2,163C188,297.4,78,436.5,0,562.5v2.1
		c78-126.3,188.3-265.9,317.1-400.8C372.9,105.4,429.7,50.4,486.2,0z"/>
	
		<linearGradient id="SVGID_32_" gradientUnits="userSpaceOnUse" x1="-1860.1396" y1="3010.113" x2="-1860.1396" y2="1800.3744" gradientTransform="matrix(0.6906 -0.7233 0.7233 0.6906 -165.0568 -2692.9165)">
		<stop  offset="0" style="stop-color:#DBE8F9"/>
		<stop  offset="1" style="stop-color:#A8C8ED"/>
	</linearGradient>
	<path class="st31" d="M402.7,0H401c-42.3,39.7-84.5,81.6-126.2,125.3C169.9,235.1,76.3,348,0,455.8v2
		c76.4-108.2,170.4-221.4,275.6-331.7C317.9,81.8,360.4,39.7,402.7,0z"/>
	
		<linearGradient id="SVGID_33_" gradientUnits="userSpaceOnUse" x1="-202.4226" y1="423.3" x2="1126.3334" y2="423.3" gradientTransform="matrix(1 0 0 1 0 -194.4)">
		<stop  offset="0" style="stop-color:#1F3683"/>
		<stop  offset="1" style="stop-color:#0F0038"/>
	</linearGradient>
	<path class="st32" d="M402.7,0H401c-42.3,39.7-84.5,81.6-126.2,125.3C169.9,235.1,76.3,348,0,455.8v2
		c76.4-108.2,170.4-221.4,275.6-331.7C317.9,81.8,360.4,39.7,402.7,0z"/>
	
		<linearGradient id="SVGID_34_" gradientUnits="userSpaceOnUse" x1="-1852.2238" y1="3010.113" x2="-1852.2238" y2="1800.3744" gradientTransform="matrix(0.6906 -0.7233 0.7233 0.6906 -165.0568 -2692.9165)">
		<stop  offset="0" style="stop-color:#DBE8F9"/>
		<stop  offset="1" style="stop-color:#A8C8ED"/>
	</linearGradient>
	<path class="st33" d="M307.8,0h-1.6c-26.4,26-52.7,52.7-78.8,80C144.2,167.1,67.6,256.1,0,343.5v1.8
		c67.8-87.8,144.7-177.1,228.2-264.6C254.5,53.2,281.1,26.2,307.8,0z"/>
	
		<linearGradient id="SVGID_35_" gradientUnits="userSpaceOnUse" x1="-293.924" y1="367.05" x2="1172.8826" y2="367.05" gradientTransform="matrix(1 0 0 1 0 -194.4)">
		<stop  offset="0" style="stop-color:#1F3683"/>
		<stop  offset="1" style="stop-color:#0F0038"/>
	</linearGradient>
	<path class="st34" d="M307.8,0h-1.6c-26.4,26-52.7,52.7-78.8,80C144.2,167.1,67.6,256.1,0,343.5v1.8
		c67.8-87.8,144.7-177.1,228.2-264.6C254.5,53.2,281.1,26.2,307.8,0z"/>
	
		<linearGradient id="SVGID_36_" gradientUnits="userSpaceOnUse" x1="-1845.3636" y1="3010.113" x2="-1845.3636" y2="1800.3744" gradientTransform="matrix(0.6906 -0.7233 0.7233 0.6906 -165.0568 -2692.9165)">
		<stop  offset="0" style="stop-color:#DBE8F9"/>
		<stop  offset="1" style="stop-color:#A8C8ED"/>
	</linearGradient>
	<path class="st35" d="M206.8,0h-1.6c-9.9,10.1-19.7,20.3-29.6,30.6C113.5,95.6,54.8,161.6-0.1,228v1.8
		C55,163.1,114,96.8,176.4,31.4C186.5,20.9,196.6,10.4,206.8,0z"/>
	
		<linearGradient id="SVGID_37_" gradientUnits="userSpaceOnUse" x1="-393.7821" y1="309.3" x2="1223.6499" y2="309.3" gradientTransform="matrix(1 0 0 1 0 -194.4)">
		<stop  offset="0" style="stop-color:#1F3683"/>
		<stop  offset="1" style="stop-color:#0F0038"/>
	</linearGradient>
	<path class="st36" d="M206.8,0h-1.6c-9.9,10.1-19.7,20.3-29.6,30.6C113.5,95.6,54.8,161.6-0.1,228v1.8
		C55,163.1,114,96.8,176.4,31.4C186.5,20.9,196.6,10.4,206.8,0z"/>
	
		<linearGradient id="SVGID_38_" gradientUnits="userSpaceOnUse" x1="-1839.1711" y1="3010.113" x2="-1839.1711" y2="1800.3744" gradientTransform="matrix(0.6906 -0.7233 0.7233 0.6906 -165.0568 -2692.9165)">
		<stop  offset="0" style="stop-color:#DBE8F9"/>
		<stop  offset="1" style="stop-color:#A8C8ED"/>
	</linearGradient>
	<path class="st37" d="M100.8,0C66.1,36.9,32.5,74-0.1,111.3v1.7c33-37.9,67.2-75.6,102.4-113.1L100.8,0L100.8,0z"/>
	
		<linearGradient id="SVGID_39_" gradientUnits="userSpaceOnUse" x1="-488.6015" y1="250.85" x2="1267.2495" y2="250.85" gradientTransform="matrix(1 0 0 1 0 -194.4)">
		<stop  offset="0" style="stop-color:#1F3683"/>
		<stop  offset="1" style="stop-color:#0F0038"/>
	</linearGradient>
	<path class="st38" d="M100.8,0C66.1,36.9,32.5,74-0.1,111.3v1.7c33-37.9,67.2-75.6,102.4-113.1L100.8,0L100.8,0z"/>
	
		<linearGradient id="SVGID_40_" gradientUnits="userSpaceOnUse" x1="564.3648" y1="2712.0874" x2="564.3648" y2="-4048.7222" gradientTransform="matrix(1 0 0 1 0 -194.4)">
		<stop  offset="0" style="stop-color:#DBE8F9"/>
		<stop  offset="1" style="stop-color:#A8C8ED"/>
	</linearGradient>
	<path class="st39" d="M522.9,362.2C644.8,234.5,766.7,152.9,795,180c0,0,6.6-10.3,18.6-29.6c-0.6-0.8-1.2-1.5-1.9-2.2
		c-4.5-4.3-11-6.5-19.2-6.5c-21,0-53.5,13.8-94.8,40.6c-57.7,37.5-125.5,95.8-190.9,164.3C371.9,488,289.2,628.8,322.5,660.5
		c1.3,1.2,2.8,2.3,4.4,3.2c8.9-7,17.8-14.1,26.6-21.2C325.1,615.4,401,489.9,522.9,362.2z"/>
</g>
<line class="st40" x1="903" y1="0" x2="1062.8" y2="-0.1"/>
<line class="st40" x1="0" y1="885.6" x2="0" y2="931.2"/>
</svg>
