<?xml version="1.0" encoding="utf-8"?>
<!-- Generator: Adobe Illustrator 22.1.0, SVG Export Plug-In . SVG Version: 6.00 Build 0)  -->
<svg version="1.1" id="Capa_1" xmlns="http://www.w3.org/2000/svg" xmlns:xlink="http://www.w3.org/1999/xlink" x="0px" y="0px"
	 viewBox="0 0 1048.8 930.9" style="enable-background:new 0 0 1048.8 930.9;" xml:space="preserve">
<style type="text/css">
	.st0{display:none;}
	.st1{display:inline;}
	.st2{fill:url(#SVGID_1_);}
	.st3{fill:url(#SVGID_2_);}
	.st4{fill:url(#SVGID_3_);}
	.st5{fill:url(#SVGID_4_);}
	.st6{fill:url(#SVGID_5_);}
	.st7{fill:url(#SVGID_6_);}
	.st8{fill:url(#SVGID_7_);}
	.st9{fill:url(#SVGID_8_);}
	.st10{fill:url(#SVGID_9_);}
	.st11{fill:url(#SVGID_10_);}
	.st12{fill:url(#SVGID_11_);}
	.st13{fill:url(#SVGID_12_);}
	.st14{fill:url(#SVGID_13_);}
	.st15{opacity:0.21;fill:#0F0038;enable-background:new    ;}
	.st16{fill:url(#SVGID_14_);}
	.st17{fill:url(#SVGID_15_);}
	.st18{fill:url(#SVGID_16_);}
	.st19{fill:url(#SVGID_17_);}
	.st20{fill:url(#SVGID_18_);}
	.st21{fill:url(#SVGID_19_);}
	.st22{opacity:7.000000e-02;fill:#0F0038;enable-background:new    ;}
	.st23{fill:url(#SVGID_20_);}
	.st24{fill:url(#SVGID_21_);}
	.st25{fill:#95535F;}
	.st26{fill:url(#SVGID_22_);}
	.st27{fill:url(#SVGID_23_);}
	.st28{fill:url(#SVGID_24_);}
	.st29{fill:url(#SVGID_25_);}
	.st30{fill:url(#SVGID_26_);}
	.st31{fill:url(#SVGID_27_);}
	.st32{fill:url(#SVGID_28_);}
	.st33{fill:#FFFFFF;}
	.st34{fill:none;stroke:url(#SVGID_29_);stroke-width:0.6644;stroke-miterlimit:10;}
	.st35{fill:url(#SVGID_30_);}
	.st36{fill:url(#SVGID_31_);}
	.st37{fill:url(#SVGID_32_);}
	.st38{fill:url(#SVGID_33_);}
	.st39{fill:url(#SVGID_34_);}
	.st40{fill:url(#SVGID_35_);}
	.st41{fill:url(#SVGID_36_);}
	.st42{fill:url(#SVGID_37_);}
	.st43{fill:url(#SVGID_38_);}
	.st44{fill:url(#SVGID_39_);}
	.st45{fill:url(#SVGID_40_);}
	.st46{fill:url(#SVGID_41_);}
	.st47{fill:url(#SVGID_42_);}
	.st48{fill:url(#SVGID_43_);}
	.st49{fill:url(#SVGID_44_);}
	.st50{fill:url(#SVGID_45_);}
	.st51{fill:url(#SVGID_46_);}
	.st52{fill:url(#SVGID_47_);}
	.st53{fill:url(#SVGID_48_);}
	.st54{fill:url(#SVGID_49_);}
	.st55{fill:url(#SVGID_50_);}
	.st56{fill:url(#SVGID_51_);}
	.st57{fill:url(#SVGID_52_);}
	.st58{fill:url(#SVGID_53_);}
	.st59{fill:url(#SVGID_54_);}
	.st60{fill:url(#SVGID_55_);}
	.st61{fill:url(#SVGID_56_);}
	.st62{fill:url(#SVGID_57_);}
	.st63{fill:url(#SVGID_58_);}
	.st64{fill:url(#SVGID_59_);}
	.st65{fill:url(#SVGID_60_);}
	.st66{fill:url(#SVGID_61_);}
	.st67{fill:url(#SVGID_62_);}
	.st68{fill:url(#SVGID_63_);}
	.st69{fill:url(#SVGID_64_);}
	.st70{fill:url(#SVGID_65_);}
	.st71{fill:url(#SVGID_66_);}
	.st72{fill:url(#SVGID_67_);}
	.st73{fill:url(#SVGID_68_);}
	.st74{fill:url(#SVGID_69_);}
	.st75{fill:none;}
</style>
<g id="Capa_3" class="st0">
	<g class="st1">
		<g>
			<g>
				
					<linearGradient id="SVGID_1_" gradientUnits="userSpaceOnUse" x1="3438.2727" y1="-7392.7539" x2="3471.5781" y2="-7392.7539" gradientTransform="matrix(-0.7984 0.6021 -0.6021 -0.7984 -1729.8977 -7837.8896)">
					<stop  offset="0" style="stop-color:#DBE8F9"/>
					<stop  offset="1" style="stop-color:#A8C8ED"/>
				</linearGradient>
				<path class="st2" d="M-42.9,136.9c0.6-0.4,1.2-0.8,1.8-1.1c3.8-1.8,9-1.4,14.9,1.3c4.4,2,7.7,4.5,7.8,4.6
					c0.3,0.2,0.3,0.6,0.1,0.9c-0.2,0.3-0.6,0.3-0.9,0.1c-0.1-0.1-13-9.8-21.4-5.8c-4.7,2.3-7.3,8.5-7.5,18.6c0,0.4-0.3,0.7-0.7,0.6
					c-0.4,0-0.7-0.3-0.6-0.7C-49.2,146.3-47,140-42.9,136.9z"/>
			</g>
			<g>
				
					<linearGradient id="SVGID_2_" gradientUnits="userSpaceOnUse" x1="3435.4771" y1="-7406.0894" x2="3469.8069" y2="-7406.0894" gradientTransform="matrix(-0.7984 0.6021 -0.6021 -0.7984 -1729.8977 -7837.8896)">
					<stop  offset="0" style="stop-color:#DBE8F9"/>
					<stop  offset="1" style="stop-color:#A8C8ED"/>
				</linearGradient>
				<path class="st3" d="M-28.8,144.1c5.6-4.2,12-4.2,12.3-4.2c0.4,0,0.7,0.3,0.7,0.7s-0.3,0.7-0.7,0.7c-0.1,0-8.6,0-14.2,6.4
					c-4.3,5-5.7,12.6-4.1,22.5c0.1,0.4-0.2,0.7-0.6,0.8c-0.4,0.1-0.7-0.2-0.8-0.6c-1.7-10.3-0.2-18.2,4.4-23.6
					C-30.8,145.8-29.8,144.9-28.8,144.1z"/>
			</g>
			
				<linearGradient id="SVGID_3_" gradientUnits="userSpaceOnUse" x1="36.5174" y1="-6562.7339" x2="40.6701" y2="-6562.7339" gradientTransform="matrix(-0.9603 0.2791 -0.2791 -0.9603 -1829.4771 -6140.3188)">
				<stop  offset="0" style="stop-color:#E9EAEC"/>
				<stop  offset="1" style="stop-color:#BEBFC5"/>
			</linearGradient>
			<path class="st4" d="M-35.7,168.6L-35.7,168.6c1.1-0.3,2.3,0.3,2.6,1.4l1.1,3.9c0.3,1.1-0.3,2.3-1.4,2.6l0,0
				c-1.1,0.3-2.3-0.3-2.6-1.4l-1.1-3.9C-37.5,170.1-36.8,168.9-35.7,168.6z"/>
			
				<linearGradient id="SVGID_4_" gradientUnits="userSpaceOnUse" x1="-2577.0811" y1="-4801.189" x2="-2572.9282" y2="-4801.189" gradientTransform="matrix(-0.9992 -4.007399e-02 4.007399e-02 -0.9992 -2429.3491 -4742.085)">
				<stop  offset="0" style="stop-color:#E9EAEC"/>
				<stop  offset="1" style="stop-color:#BEBFC5"/>
			</linearGradient>
			<path class="st5" d="M-48.7,154.3L-48.7,154.3c1.1,0,2,1,2,2.2l-0.2,4.1c0,1.1-1,2-2.2,2l0,0c-1.1,0-2-1-2-2.2l0.2-4.1
				C-50.8,155.2-49.8,154.3-48.7,154.3z"/>
		</g>
		<g>
			
				<linearGradient id="SVGID_5_" gradientUnits="userSpaceOnUse" x1="-2028.912" y1="2337.5486" x2="-1973.77" y2="2337.5486" gradientTransform="matrix(0.9993 3.727137e-02 -3.727137e-02 0.9993 2108.1414 -2135.0325)">
				<stop  offset="0" style="stop-color:#EAC29C"/>
				<stop  offset="1" style="stop-color:#DF9C74"/>
			</linearGradient>
			<path class="st6" d="M-7.3,147.4c0,0,16.6,10.8,21.2,15.3c4.7,4.5,16.7,6.3,16.7,6.3s18.4-59.3,18.7-60.1c0.4-0.8-5-21.5-5-21.5
				l-10.6-3L-7.3,147.4z"/>
			<g>
				<g>
					
						<linearGradient id="SVGID_6_" gradientUnits="userSpaceOnUse" x1="8036.8457" y1="5747.3462" x2="8087.9434" y2="5747.3462" gradientTransform="matrix(0.9765 -0.2154 -0.2154 -0.9765 -6767.5981 7143.0527)">
						<stop  offset="0" style="stop-color:#DAE7F8"/>
						<stop  offset="1" style="stop-color:#A7C7EC"/>
					</linearGradient>
					<path class="st7" d="M-137.3-173.7c0,0-32-22.1-22-68.2c0,0,43.3,25.1,56.8,54.1c0,0-8.3,19.7-14.2,20.3
						C-122.6-166.9-137.3-173.7-137.3-173.7z"/>
					
						<linearGradient id="SVGID_7_" gradientUnits="userSpaceOnUse" x1="8036.0801" y1="5698.687" x2="8070.3726" y2="5698.687" gradientTransform="matrix(0.9765 -0.2154 -0.2154 -0.9765 -6767.5981 7143.0527)">
						<stop  offset="0" style="stop-color:#E4977C"/>
						<stop  offset="1" style="stop-color:#B56852"/>
					</linearGradient>
					<path class="st8" d="M-146.3-145.6l9-28.1c0,0,13-5.4,20.8,4l-2.6,29.6L-146.3-145.6z"/>
					<g>
						
							<linearGradient id="SVGID_8_" gradientUnits="userSpaceOnUse" x1="8039.5923" y1="5747.4609" x2="8084.1489" y2="5747.4609" gradientTransform="matrix(0.9765 -0.2154 -0.2154 -0.9765 -6767.5981 7143.0527)">
							<stop  offset="0" style="stop-color:#1F3682"/>
							<stop  offset="1" style="stop-color:#162766"/>
						</linearGradient>
						<path class="st9" d="M-160.9-231.3l-0.2,2.3c32.9,19.2,54.8,48.4,55,48.7l1-1.9C-105.3-182.5-127.7-211.9-160.9-231.3z"/>
					</g>
				</g>
				
					<linearGradient id="SVGID_9_" gradientUnits="userSpaceOnUse" x1="-1598.929" y1="2863.6035" x2="-1436.0746" y2="2863.6035" gradientTransform="matrix(-0.6372 0.7707 -0.7707 -0.6372 1119.174 2945.071)">
					<stop  offset="0" style="stop-color:#1F3683"/>
					<stop  offset="1" style="stop-color:#0F0038"/>
				</linearGradient>
				<path class="st10" d="M-63.2,16.4c0,0-62.8-5.4-56.4-30.7s26.2-98,5.3-121.5c0,0,4.2-11.3-2.4-15.5s-31.4-14-34,7.9
					c0,0-35.5,20.8-31.3,71.5S-184.5,79.7-63.2,16.4z"/>
				<g>
					<g>
						
							<linearGradient id="SVGID_10_" gradientUnits="userSpaceOnUse" x1="9188.0605" y1="2725.5945" x2="9239.8643" y2="2725.5945" gradientTransform="matrix(0.6752 -0.7376 -0.7376 -0.6752 -4485.6309 8468.0928)">
							<stop  offset="0" style="stop-color:#DAE7F8"/>
							<stop  offset="1" style="stop-color:#A7C7EC"/>
						</linearGradient>
						<path class="st11" d="M-259.9-139.9c0,0-39.2,0.7-57.4-42.3c0,0,50.3-4.8,78.1,10.8c0,0,4.4,20.7-0.2,24.5
							C-243.9-143-259.9-139.9-259.9-139.9z"/>
						
							<linearGradient id="SVGID_11_" gradientUnits="userSpaceOnUse" x1="9187.9229" y1="2677.3035" x2="9222.3164" y2="2677.3035" gradientTransform="matrix(0.6752 -0.7376 -0.7376 -0.6752 -4485.6309 8468.0928)">
							<stop  offset="0" style="stop-color:#E4977C"/>
							<stop  offset="1" style="stop-color:#B56852"/>
						</linearGradient>
						<path class="st12" d="M-251.3-112.1l-8.6-27.9c0,0,7.7-11.8,19.5-8.8l14.8,25.3L-251.3-112.1z"/>
						<g>
							
								<linearGradient id="SVGID_12_" gradientUnits="userSpaceOnUse" x1="9190.6455" y1="2725.615" x2="9236.1572" y2="2725.615" gradientTransform="matrix(0.6752 -0.7376 -0.7376 -0.6752 -4485.6309 8468.0928)">
								<stop  offset="0" style="stop-color:#1F3682"/>
								<stop  offset="1" style="stop-color:#162766"/>
							</linearGradient>
							<path class="st13" d="M-312.6-172.7l1.2,1.9c38.3-3.5,73.2,7.4,73.6,7.5l-0.3-2.1C-238.5-165.4-273.8-176.2-312.6-172.7z"/>
						</g>
					</g>
					
						<linearGradient id="SVGID_13_" gradientUnits="userSpaceOnUse" x1="-2108.9602" y1="2179.6411" x2="-2194.5081" y2="2291.342" gradientTransform="matrix(0.9993 3.727137e-02 -3.727137e-02 0.9993 2108.1414 -2135.0325)">
						<stop  offset="0" style="stop-color:#1F3683"/>
						<stop  offset="1" style="stop-color:#0F0038"/>
					</linearGradient>
					<path class="st14" d="M-2.6,146c12.8-13,20.2-36.4,44.5-46.6c7.2-3,11.3-10.7,7.3-17.3C32.3,54.7-13.8,1.2-113.9,7.5
						c-6.9,0.4-13.5-2.9-17.2-8.7c-2.9-4.7-6.3-11.8-9.5-22.3c-8.2-26.8-46.1-75.4-66.4-81c-3.3-0.9-6-3.2-7.3-6.3
						c-2.9-6.7-8.1-16.6-13.1-15.5c-7.5,1.6-28,7.2-25.9,18.8c1.5,8.3,4.2,14.7,5.6,17.7c0.6,1.3,1.6,2.7,1,4
						c-8.5,20.6,4.9,38.8,35.3,92.7c35.8,63.5,35,71.2,98,100.1c40.7,18.6,76.6,28.7,86.8,36C-25.5,143-11.3,155-2.6,146z"/>
				</g>
				<path class="st15" d="M-30.8,117.4c-1-1.2-1.5-2.6-1.9-4.1c-0.2-0.7-0.3-1.5-0.4-2.3c-0.1-0.8,0-1.5,0-2.3
					c0.1-0.8,0.1-1.5,0.3-2.3s0.4-1.5,0.5-2.3c0.2-0.7,0.5-1.4,0.8-2.2l0.2-0.5l0.3-0.5l0.5-1c0.7-1.4,1.6-2.6,2.4-3.9
					c0.4-0.6,0.9-1.2,1.4-1.8s1-1.2,1.5-1.7c1.1-1,2.2-2.1,3.3-3c1.2-0.9,2.4-1.8,3.7-2.5c-0.8,1.3-1.7,2.4-2.6,3.6
					s-1.7,2.4-2.5,3.5c-0.8,1.2-1.6,2.4-2.4,3.5l-1.1,1.8c-0.4,0.6-0.7,1.2-1,1.8c-0.7,1.2-1.2,2.5-1.7,3.8c-0.2,0.6-0.4,1.3-0.7,2
					c-0.2,0.7-0.3,1.3-0.5,2c-0.1,0.7-0.2,1.4-0.4,2c-0.1,0.7-0.2,1.4-0.1,2.1C-31.3,114.5-31.2,115.9-30.8,117.4z"/>
			</g>
		</g>
		<g>
			<g>
				
					<linearGradient id="SVGID_14_" gradientUnits="userSpaceOnUse" x1="-1699.7932" y1="2611.4727" x2="-1690.7761" y2="2611.4727" gradientTransform="matrix(0.9993 3.727137e-02 -3.727137e-02 0.9993 2108.1414 -2135.0325)">
					<stop  offset="0" style="stop-color:#EAC29C"/>
					<stop  offset="1" style="stop-color:#DF9C74"/>
				</linearGradient>
				<path class="st16" d="M315.5,407.7c0,0-4.6,4.5-3,6.9s5.4-0.9,8.8-3.5C321.2,411,320.4,406,315.5,407.7z"/>
				
					<linearGradient id="SVGID_15_" gradientUnits="userSpaceOnUse" x1="-1697.0132" y1="2616.8032" x2="-1688.3497" y2="2616.8032" gradientTransform="matrix(0.9993 3.727137e-02 -3.727137e-02 0.9993 2108.1414 -2135.0325)">
					<stop  offset="0" style="stop-color:#EAC29C"/>
					<stop  offset="1" style="stop-color:#DF9C74"/>
				</linearGradient>
				<path class="st17" d="M317.7,407.7c0,0-1,9.1-2.8,13.6c-1.8,4.6,3,7.6,7.4-0.5C326.6,412.8,317.7,407.7,317.7,407.7z"/>
				
					<linearGradient id="SVGID_16_" gradientUnits="userSpaceOnUse" x1="-1691.948" y1="2620.96" x2="-1684.3094" y2="2620.96" gradientTransform="matrix(0.9993 3.727137e-02 -3.727137e-02 0.9993 2108.1414 -2135.0325)">
					<stop  offset="0" style="stop-color:#EAC29C"/>
					<stop  offset="1" style="stop-color:#DF9C74"/>
				</linearGradient>
				<path class="st18" d="M327.3,421.5c0,0-0.9,13.1-5.4,11.5c-4.4-1.6-0.2-16.4-1.6-22.6C318.9,404.2,327.3,421.5,327.3,421.5z"/>
				
					<linearGradient id="SVGID_17_" gradientUnits="userSpaceOnUse" x1="-1795.5084" y1="2457.3738" x2="-1795.5084" y2="2457.3738" gradientTransform="matrix(0.9993 3.727137e-02 -3.727137e-02 0.9993 2108.1414 -2135.0325)">
					<stop  offset="0" style="stop-color:#EAC29C"/>
					<stop  offset="1" style="stop-color:#DF9C74"/>
				</linearGradient>
				<path class="st19" d="M222.3,253.7"/>
				
					<linearGradient id="SVGID_18_" gradientUnits="userSpaceOnUse" x1="-1790.2794" y1="2542.0474" x2="-1679.5016" y2="2542.0474" gradientTransform="matrix(0.9993 3.727137e-02 -3.727137e-02 0.9993 2108.1414 -2135.0325)">
					<stop  offset="0" style="stop-color:#EAC29C"/>
					<stop  offset="1" style="stop-color:#DF9C74"/>
				</linearGradient>
				<path class="st20" d="M300.6,378.3c0,0,10.3,11.9,17.4,14.7c7.1,2.9,13.5,26.9,13.9,33.8c0.4,6.8-3.6,8.1-5.2,3.2
					c-1.7-4.9-3.8-26.1-22.9-25.4c0,0,3.9,6,6.1,9.5c2.2,3.4-0.3,5.6-3.9,3.1s-8.6-9-13.1-11c-4.4-2-9.7-8.1-10.3-14.2
					c-0.6-6.2-5.7-12.3-11-20.1c0,0-36.5-49.6-41.6-65s-2.4-45.5-2.4-45.5l24-12.4l21.4,9.1c0,0-5.6,35.7-2.6,41.2
					C273.1,304.6,287.2,354.3,300.6,378.3z"/>
			</g>
			
				<linearGradient id="SVGID_19_" gradientUnits="userSpaceOnUse" x1="-1889.2765" y1="2273.0791" x2="-1865.6853" y2="2487.0581" gradientTransform="matrix(0.9993 3.727137e-02 -3.727137e-02 0.9993 2108.1414 -2135.0325)">
				<stop  offset="0" style="stop-color:#F4D85F"/>
				<stop  offset="1" style="stop-color:#ECB543"/>
			</linearGradient>
			<path class="st21" d="M226.9,269.5c0,0,27,15.2,45.8-11.2c0,0,14-73.6-31.9-126.2c0,0-26.2-28-99.5-23.7
				C80.6,112,64.9,89,61.3,81c-1.3-2.9-3.4-5.4-6.1-7.1c-3-1.8-6.9-2.8-10.1,0.7c-6.5,6.9-19.8,18.8-24.8,35.6
				c-3.2,10.5,3.4,30.3-1.3,42.9s-5.6,47.8,7.6,38.1c14.6-10.7,30.8-1.8,48.8,4c4.7,1.5,9.3,3.5,13.7,5.8
				c19.8,10.6,78.2,39,121.6,30.9C210.7,232,227.9,245.3,226.9,269.5z"/>
			<path class="st22" d="M272.7,258.3c-18.8,26.4-45.8,11.2-45.8,11.2c0.9-24.1-16.3-37.4-16.3-37.4s28-3,43.6-24.8
				c0,0-9.9,21.6-18.4,32.8C227.6,250.8,237.8,275.9,272.7,258.3z"/>
			<path class="st22" d="M19,153.2c-4.6,12.6-5.6,47.8,7.6,38.1c14.6-10.7,30.8-1.8,48.8,4c4.7,1.5,9.3,3.5,13.7,5.8
				c15.5,8.3,54.8,27.6,92,31.6l-17.4-44.8c0,0,3.1-12.5,16.2-31.5c0,0-10.4,4.7-14,13.2s-21.2,22.7-48.3,18.1
				c-27.1-4.6-28.2-4.4-37.8-1.4s-24-13.5-33.7-15.2C36.4,169.4,18.1,179.1,19,153.2z"/>
			<g>
				
					<linearGradient id="SVGID_20_" gradientUnits="userSpaceOnUse" x1="-1842.4407" y1="2392.344" x2="-1817.7013" y2="2616.7366" gradientTransform="matrix(0.9993 3.727137e-02 -3.727137e-02 0.9993 2108.1414 -2135.0325)">
					<stop  offset="0" style="stop-color:#EAC29C"/>
					<stop  offset="1" style="stop-color:#DF9C74"/>
				</linearGradient>
				<path class="st23" d="M163.6,188c0,0-13.6,33.4-15.2,52c-10.8,52.7,34.1,105.7,31.6,114.3c-2.4,8.6,9,18,16.7,19.9
					s-0.6,23.8,3.6,25.8s7.6-12.5,7.6-12.5s1,7.9-0.6,13.3c-1.5,5.4,1.9,5.9,3.2,4.9c0,0-1,4.7,1.5,5.1s8.9-8.1,9.1-18.5
					c0,0,2.3,6.8,3.1,11.6s7,5.6,5.2-7.5s-4.7-25.7-10.1-29.7s-19-18.6-19.6-29.4c-0.6-10.3-5.2-47.5-12.3-70.8
					c0,0-2.1-8.5,3.8-18.7s14.2-25,14.2-25S183.2,216.5,163.6,188z"/>
				
					<linearGradient id="SVGID_21_" gradientUnits="userSpaceOnUse" x1="-1594.2269" y1="2512.9351" x2="-1594.2269" y2="2512.9351" gradientTransform="matrix(7.246313e-02 0.9974 -0.9974 7.246313e-02 2880.3242 1644.2867)">
					<stop  offset="0" style="stop-color:#EAC29C"/>
					<stop  offset="1" style="stop-color:#DF9C74"/>
				</linearGradient>
				<path class="st24" d="M258.4,236.3"/>
				<g>
					<path class="st25" d="M210.6,405.6c0.5-0.8,1-1.7,1.4-2.6s0.8-1.8,1.1-2.7c0.7-1.8,1.3-3.7,1.7-5.6c0.2-1,0.5-1.9,0.6-2.9
						l0.3-1.4c0.1-0.5,0.1-1,0.2-1.5c0.3-1.9,0.4-3.9,0.5-5.9c0.1,1,0.1,2,0.2,3c0,1,0,2-0.1,3c-0.1,2-0.5,3.9-0.9,5.9
						c-0.5,1.9-1.1,3.8-1.9,5.6C212.9,402.3,211.9,404.1,210.6,405.6z"/>
					<path class="st25" d="M221.3,392.2c-0.2-1.6-0.3-3.2-0.3-4.7c0-1.6,0-3.2,0.2-4.8c0.4,1.6,0.6,3.2,0.6,4.7
						C221.7,389.1,221.7,390.7,221.3,392.2z"/>
					<path class="st25" d="M208,387.5c0-1.3,0.1-2.5,0.3-3.7c0.1-0.6,0.2-1.2,0.3-1.8c0.1-0.6,0.2-1.2,0.3-1.8
						c0.3,0.6,0.3,1.2,0.3,1.9c0,0.6,0,1.2-0.1,1.9C208.8,385.1,208.5,386.3,208,387.5z"/>
				</g>
				
					<linearGradient id="SVGID_22_" gradientUnits="userSpaceOnUse" x1="-1498.5692" y1="2591.8928" x2="-1487.5287" y2="2591.8928" gradientTransform="matrix(7.246313e-02 0.9974 -0.9974 7.246313e-02 2880.3242 1644.2867)">
					<stop  offset="0" style="stop-color:#1F3683"/>
					<stop  offset="1" style="stop-color:#0F0038"/>
				</linearGradient>
				<path class="st26" d="M195.6,336.8c0,0-7.3,4.2-18.6,4.1c0,0-0.8,4.6,2.3,7.6c0,0,8.5,1.6,17.9-3.2
					C197.3,345.3,193.9,342.3,195.6,336.8z"/>
				
					<linearGradient id="SVGID_23_" gradientUnits="userSpaceOnUse" x1="-1503.3281" y1="2578.7583" x2="-1487.5172" y2="2578.7583" gradientTransform="matrix(7.246313e-02 0.9974 -0.9974 7.246313e-02 2880.3242 1644.2867)">
					<stop  offset="0" style="stop-color:#EDF0F5"/>
					<stop  offset="1" style="stop-color:#BABABD"/>
				</linearGradient>
				<path class="st27" d="M203.9,332.7c-0.8-1-2.1-1.3-3.4-1c-2.7,0.8-7.6,2.8-7.1,7.5c0.7,6.5,3.4,8.5,4.9,8.4s7.8-2.2,8-4.7
					C206.5,340.9,206.8,336.2,203.9,332.7z"/>
				
					<linearGradient id="SVGID_24_" gradientUnits="userSpaceOnUse" x1="-1501.028" y1="2578.7493" x2="-1489.8403" y2="2578.7493" gradientTransform="matrix(7.246313e-02 0.9974 -0.9974 7.246313e-02 2880.3242 1644.2867)">
					<stop  offset="0" style="stop-color:#24000A"/>
					<stop  offset="1" style="stop-color:#050000"/>
				</linearGradient>
				<path class="st28" d="M202.7,334.8c-0.6-0.7-1.5-0.9-2.4-0.7c-1.9,0.6-5.4,2-5,5.3c0.5,4.6,2.4,6,3.5,5.9s5.5-1.6,5.7-3.3
					C204.6,340.5,204.8,337.2,202.7,334.8z"/>
			</g>
			<g>
				
					<linearGradient id="SVGID_25_" gradientUnits="userSpaceOnUse" x1="-1739.9915" y1="2313.0107" x2="-1696.229" y2="2395.2825" gradientTransform="matrix(0.9993 3.727137e-02 -3.727137e-02 0.9993 2108.1414 -2135.0325)">
					<stop  offset="0" style="stop-color:#EAC29C"/>
					<stop  offset="1" style="stop-color:#DF9C74"/>
				</linearGradient>
				<path class="st29" d="M380.6,120c0,0-3.2,17.3-7.2,24.9s-10.4,13.8-8.8,30.5c0,0-2.1,3.2-12.2-2.9c0,0-23.9,19.6-31.1,15.5
					s-29.5-16.5-49.9-4.2c0,0-20.2,22.6-33.6,26.6c0,0,27.8-50.8,2.9-78.3c0,0,17.9,8.1,34.8,3.4C292.5,130.8,322.5,60.1,380.6,120z
					"/>
				
					<linearGradient id="SVGID_26_" gradientUnits="userSpaceOnUse" x1="-1808.4648" y1="2337.9197" x2="-1801.8137" y2="2337.9197" gradientTransform="matrix(0.4364 0.8998 -0.8998 0.4364 3248.6519 748.05)">
					<stop  offset="0" style="stop-color:#24000A"/>
					<stop  offset="1" style="stop-color:#050000"/>
				</linearGradient>
				<path class="st30" d="M359,145.3c-1.7,2.5-3.9,4.1-4.9,3.4s-0.3-3.2,1.4-5.8s3.9-4.1,4.9-3.4C361.4,140.2,360.8,142.8,359,145.3
					z"/>
				<g>
					
						<linearGradient id="SVGID_27_" gradientUnits="userSpaceOnUse" x1="-1817.8154" y1="2328.8442" x2="-1804.3988" y2="2328.8442" gradientTransform="matrix(0.4364 0.8998 -0.8998 0.4364 3248.6519 748.05)">
						<stop  offset="0" style="stop-color:#24000A"/>
						<stop  offset="1" style="stop-color:#050000"/>
					</linearGradient>
					<path class="st31" d="M355.2,133.2c-0.2-0.3-0.2-0.7-0.2-1.1c0.1-1.1,1.1-1.8,2.1-1.7c7.9,1,12.7,5.2,12.9,5.4
						c0.8,0.7,0.9,1.9,0.2,2.7c-0.7,0.8-1.9,0.9-2.7,0.2c-0.1-0.1-4.2-3.6-10.9-4.4C356,134.2,355.5,133.7,355.2,133.2z"/>
				</g>
				
					<linearGradient id="SVGID_28_" gradientUnits="userSpaceOnUse" x1="-1684.6478" y1="2149.5979" x2="-1623.3617" y2="2264.814" gradientTransform="matrix(0.6906 -0.7233 0.7233 0.6906 -126.2205 -2604.1328)">
					<stop  offset="0" style="stop-color:#1F3683"/>
					<stop  offset="1" style="stop-color:#0F0038"/>
				</linearGradient>
				<path class="st32" d="M388.9,123.5c-1.9,1.7-4.4,2.8-7,3c-20.1,1.5-30.4-27.7-41.1-19.5c-11.4,8.7-8.8,30.4-13,33.8
					s-9.1,0.9-8.3-9.5c0.8-10.3-10.6-16.9-15.4-6.6s-1.7,19-2.1,19.7c-10.4,21.8-35.3-12-35.3-12c2.4,1.8,4.6,1.6,4.6,1.6
					c-1.5,0.2-2.9-1.9-2.9-1.9c1.4,0.8,12.7-4.6,9.7-14.5s-1.2-17-1.2-17c-1.5,1.6-1.9,4.5-1.9,4.5c-5.2-15.2,4.1-21.3,4.1-21.3
					c-5,1.4-9,5.2-9,5.2c-1.9-16.8,12.5-25.7,12.5-25.7c-2.5,0.7-8.2,3.6-8.2,3.6c4.9-9.3,13.2-11.2,13.2-11.2
					c-4.5-2.1-7.6-10.2-7.6-10.2c17,14.6,23.1-0.1,45.1,0.1c22,0.3,38.6,13.5,38.6,13.5c-3.6-3.9-4.9-11.4-4.9-11.4
					s0.7,4.6,21.6,18.8c20.9,14.1,12.7,32.6,12.7,32.6c4.7-4.1,4.9-10.2,4.9-10.2S403.7,110.2,388.9,123.5z M321.5,141.8
					c-1-0.8-2.4-0.7-3.2,0.2c-1.8,2.1-4.9,5-8,5.2c-4.8,0.3-8.6,3.9-9.8,6.2c-1.2,2.3-4.2,9.8-4.7,13.1s1,11,4.2,14.7
					s14.2,6.5,13.3,6.9c-0.9,0.4,3.8,3.5,7.4,3.5c3.5,0,8.8,0.7,15-3.9s22.6-11.4,7.9-20.7c-11.4-7.2-14.3-18.1-15.1-22.7
					c-0.2-1-1.1-1.6-2.1-1.3C325,143.3,323.2,143.3,321.5,141.8z"/>
				<path class="st33" d="M328,164.2c1,3.3,3.7,11.3,7.9,11.7c0,0-4.8,7-9,3.9c-3.7-2.7-1.4-11.7,0.1-15.7
					C327.2,163.7,327.9,163.7,328,164.2z"/>
			</g>
			<path class="st22" d="M205.5,222.7c5.2-6,10.5-11.9,15.8-17.9c2.6-3,5.2-6,7.7-9c2.4-3,4.3-6.5,5.9-10c1.6-3.6,2.9-7.3,4-11.1
				s1.8-7.6,2.4-11.5c0.5-3.9,0.7-7.8,0.5-11.8c-0.2-3.9-0.9-7.9-2.1-11.6c1.7,3.6,2.6,7.6,3.1,11.6s0.5,8,0.1,12
				c-0.7,8-2.8,15.9-6.1,23.2c-1.7,3.7-3.7,7.2-6.3,10.4c-2.6,3-5.3,6-8,8.9C217,211.6,211.3,217.3,205.5,222.7z"/>
			
				<linearGradient id="SVGID_29_" gradientUnits="userSpaceOnUse" x1="-1807.9092" y1="2436.1211" x2="-1807.9092" y2="2436.1211" gradientTransform="matrix(0.9993 3.727137e-02 -3.727137e-02 0.9993 2108.1414 -2135.0325)">
				<stop  offset="0" style="stop-color:#F4D85F"/>
				<stop  offset="1" style="stop-color:#ECB543"/>
			</linearGradient>
			<path class="st34" d="M210.7,232"/>
		</g>
	</g>
</g>
<g id="Capa_2_1_">
	<g>
		
			<linearGradient id="SVGID_30_" gradientUnits="userSpaceOnUse" x1="5022.2725" y1="-4727.6484" x2="5022.2725" y2="-5937.3867" gradientTransform="matrix(-0.6906 0.7233 -0.7233 -0.6906 369.9543 -6717.2622)">
			<stop  offset="0" style="stop-color:#DBE8F9"/>
			<stop  offset="1" style="stop-color:#A8C8ED"/>
		</linearGradient>
		<path class="st35" d="M648.3,497.6C798.9,339.9,896,182.7,880.1,127.5c-11.7,9.2-23.5,18.6-35.2,28.1c4.3,22.7-9,61.7-39,112.9
			c-38.1,65.1-98.5,142.2-170.1,217.2s-145.9,138.9-209.1,180c-42.7,27.8-77,42.8-100.4,44.4c-8.3,12-16.7,24.4-25.4,37.4
			c25.7-0.4,64.9-17.2,114.6-49.5C485.9,652.3,568.5,581.1,648.3,497.6z"/>
		
			<linearGradient id="SVGID_31_" gradientUnits="userSpaceOnUse" x1="5021.8623" y1="-4727.6484" x2="5021.8623" y2="-5937.3867" gradientTransform="matrix(-0.6906 0.7233 -0.7233 -0.6906 369.9543 -6717.2622)">
			<stop  offset="0" style="stop-color:#DBE8F9"/>
			<stop  offset="1" style="stop-color:#A8C8ED"/>
		</linearGradient>
		<path class="st36" d="M401.7,733.8c78.3-51.2,170.4-130.7,259.4-223.9S825.3,321,872.8,240.4c23.1-39.2,38.4-72.6,45.5-99.4
			c5-18.9,5.7-33.8,2.2-44.7c-13.1,10-26.3,20.1-39.4,30.4c7.3,24.6-7.2,69.5-42.4,129.6c-42.4,72.5-109.7,158.4-189.6,242
			c-79.8,83.6-162.5,154.8-233,200.5c-50.3,32.6-90,49.5-116,49.7c-8.8,13.2-17.9,26.9-27.1,41c8.9-0.1,19.4-2,31.5-5.8
			C331,775.5,363.7,758.7,401.7,733.8z"/>
		
			<linearGradient id="SVGID_32_" gradientUnits="userSpaceOnUse" x1="5021.6733" y1="-4727.6484" x2="5021.6733" y2="-5937.3867" gradientTransform="matrix(-0.6906 0.7233 -0.7233 -0.6906 369.9543 -6717.2622)">
			<stop  offset="0" style="stop-color:#DBE8F9"/>
			<stop  offset="1" style="stop-color:#A8C8ED"/>
		</linearGradient>
		<path class="st37" d="M387.1,774.9c87.3-57.3,190.1-146.2,289.4-250.3C867,325.1,989.7,127,966.3,62c-15,11-30,22.1-45,33.5
			c8.9,26.8-7.5,77.3-47.6,145.4C826.3,321.6,751,417.4,662,510.7S480.8,683.5,402.4,734.8c-56.5,36.9-101,56-129.7,56
			c-0.1,0-0.3,0-0.4,0c-9.8,15-19.8,30.7-30.1,46.8c10.3,0.1,22.5-2.1,36.7-6.6C308.3,821.6,344.7,802.7,387.1,774.9z"/>
		
			<linearGradient id="SVGID_33_" gradientUnits="userSpaceOnUse" x1="5050.627" y1="-4727.6484" x2="5050.627" y2="-5937.3867" gradientTransform="matrix(-0.6906 0.7233 -0.7233 -0.6906 369.9543 -6717.2622)">
			<stop  offset="0" style="stop-color:#DBE8F9"/>
			<stop  offset="1" style="stop-color:#A8C8ED"/>
		</linearGradient>
		<path class="st38" d="M610.2,930.9h99.5c65.2-58.3,130.6-121.6,194.7-188.8c50.7-53.1,99-107,144.4-160.7V478.9
			C991.2,551.6,927,625.3,857.9,697.7C776.2,783.2,692.5,861.9,610.2,930.9z"/>
		
			<linearGradient id="SVGID_34_" gradientUnits="userSpaceOnUse" x1="5056.3667" y1="-4727.6484" x2="5056.3667" y2="-5937.3867" gradientTransform="matrix(-0.6906 0.7233 -0.7233 -0.6906 369.9543 -6717.2622)">
			<stop  offset="0" style="stop-color:#DBE8F9"/>
			<stop  offset="1" style="stop-color:#A8C8ED"/>
		</linearGradient>
		<path class="st39" d="M817.6,930.9h107c28.9-28.4,57.5-57.6,86-87.4c12.8-13.5,25.6-27,38.1-40.5V692.7
			c-29.7,33.4-60.3,66.6-91.8,99.6C911.1,840.4,864.5,886.7,817.6,930.9z"/>
		
			<linearGradient id="SVGID_35_" gradientUnits="userSpaceOnUse" x1="5022.147" y1="-4727.6484" x2="5022.147" y2="-5937.3867" gradientTransform="matrix(-0.6906 0.7233 -0.7233 -0.6906 369.9543 -6717.2622)">
			<stop  offset="0" style="stop-color:#DBE8F9"/>
			<stop  offset="1" style="stop-color:#A8C8ED"/>
		</linearGradient>
		<path class="st40" d="M635,484.9c71.6-75,131.9-152,170-217c29.7-50.7,43-89.2,39-111.6c-8.6,7-17.2,14-25.8,21.1
			c2.8,21-9.4,55.8-35.9,101.1c-34.8,59.5-90,130-155.5,198.5c-65.5,68.6-133.3,127-191.1,164.5c-37.8,24.5-68.4,38.2-89.7,40.4
			c-6.2,8.7-12.4,17.7-18.9,27c23-1.9,56.8-16.9,99-44.2C489.2,623.7,563.4,559.8,635,484.9z"/>
		
			<linearGradient id="SVGID_36_" gradientUnits="userSpaceOnUse" x1="5053.4023" y1="-4727.6484" x2="5053.4023" y2="-5937.3867" gradientTransform="matrix(-0.6906 0.7233 -0.7233 -0.6906 369.9543 -6717.2622)">
			<stop  offset="0" style="stop-color:#DBE8F9"/>
			<stop  offset="1" style="stop-color:#A8C8ED"/>
		</linearGradient>
		<path class="st41" d="M711.4,930.9H816c47.2-44.5,94-91,140.2-139.4c31.8-33.3,62.7-66.8,92.6-100.5V583.2
			c-45.1,53.4-93.1,106.9-143.5,159.8C841.4,809.8,776.3,872.9,711.4,930.9z"/>
		
			<linearGradient id="SVGID_37_" gradientUnits="userSpaceOnUse" x1="5047.9756" y1="-4727.6484" x2="5047.9756" y2="-5937.3867" gradientTransform="matrix(-0.6906 0.7233 -0.7233 -0.6906 369.9543 -6717.2622)">
			<stop  offset="0" style="stop-color:#DBE8F9"/>
			<stop  offset="1" style="stop-color:#A8C8ED"/>
		</linearGradient>
		<path class="st42" d="M518.8,930.9h89.7c82.5-69.1,166.6-148.2,248.5-234c69.4-72.7,134-146.8,191.8-219.8v-92.8
			c-66.1,90.3-145,184.1-232.5,275.7C717.8,763.1,616,855.6,518.8,930.9z"/>
		
			<linearGradient id="SVGID_38_" gradientUnits="userSpaceOnUse" x1="5025.6953" y1="-4727.6484" x2="5025.6953" y2="-5937.3867" gradientTransform="matrix(-0.6906 0.7233 -0.7233 -0.6906 369.9543 -6717.2622)">
			<stop  offset="0" style="stop-color:#DBE8F9"/>
			<stop  offset="1" style="stop-color:#A8C8ED"/>
		</linearGradient>
		<path class="st43" d="M1021,22.9c14.5,32.3-5.4,97.2-57.6,185.9C904,309.6,810,429.3,698.8,545.8
			C587.5,662.3,472.3,761.7,374.3,825.6c-70.5,46-126,69.7-162,69.7c-2.1,0-4.1-0.1-6-0.2c-7.1,11.7-14.4,23.6-21.7,35.8H295
			c20.6-10.8,42.7-23.7,66.2-38.8C473,820.2,604,707.9,730.1,575.8C874.8,424.2,988,272.6,1048.7,157.1V3.5
			C1039.5,9.9,1030.3,16.3,1021,22.9z"/>
		
			<linearGradient id="SVGID_39_" gradientUnits="userSpaceOnUse" x1="5021.7969" y1="-4727.6484" x2="5021.7969" y2="-5937.3867" gradientTransform="matrix(-0.6906 0.7233 -0.7233 -0.6906 369.9543 -6717.2622)">
			<stop  offset="0" style="stop-color:#DBE8F9"/>
			<stop  offset="1" style="stop-color:#A8C8ED"/>
		</linearGradient>
		<path class="st44" d="M698,545c111.2-116.4,205.1-236.1,264.4-336.8c28.8-49,47.9-90.8,56.7-124.3c6.9-26.2,7.2-46.4,1-60.3
			c-17.5,12.3-35,24.9-52.7,37.8c10.8,29.4-7.5,86.1-53.2,163.1c-53.3,89.9-137.4,196.8-236.8,300.9s-202.3,193-289.6,250.4
			c-63.2,41.5-112.8,62.9-144.7,62.9c-0.5,0-1.1,0-1.6,0c-11.2,17.8-22.7,36.2-34.5,55.4C291,900.1,495.6,757,698,545z"/>
		
			<linearGradient id="SVGID_40_" gradientUnits="userSpaceOnUse" x1="5022.4268" y1="-4727.6484" x2="5022.4268" y2="-5937.3867" gradientTransform="matrix(-0.6906 0.7233 -0.7233 -0.6906 369.9543 -6717.2622)">
			<stop  offset="0" style="stop-color:#DBE8F9"/>
			<stop  offset="1" style="stop-color:#A8C8ED"/>
		</linearGradient>
		<path class="st45" d="M435,640.6c57.7-37.5,125.5-95.8,190.9-164.3S746.5,337.4,781.2,278c26.2-44.7,38.4-79,35.9-99.7
			c-10.3,8.5-20.7,17.2-31,26c-6.4,48.9-75.2,151.8-174.9,256.2c-93.7,98.1-187.4,169-238.6,184.2c-8.3,11.4-16.9,23.4-25.8,36.1
			C367.7,678.3,397.8,664.7,435,640.6z"/>
		
			<linearGradient id="SVGID_41_" gradientUnits="userSpaceOnUse" x1="5059.3389" y1="-4727.6484" x2="5059.3389" y2="-5937.3867" gradientTransform="matrix(-0.6906 0.7233 -0.7233 -0.6906 369.9543 -6717.2622)">
			<stop  offset="0" style="stop-color:#DBE8F9"/>
			<stop  offset="1" style="stop-color:#A8C8ED"/>
		</linearGradient>
		<path class="st46" d="M926.3,930.9h122.5V804.8c-12.3,13.2-24.7,26.4-37.3,39.6C983.3,873.9,954.9,902.8,926.3,930.9z"/>
		
			<linearGradient id="SVGID_42_" gradientUnits="userSpaceOnUse" x1="5045.0454" y1="-4727.6484" x2="5045.0454" y2="-5937.3867" gradientTransform="matrix(-0.6906 0.7233 -0.7233 -0.6906 369.9543 -6717.2622)">
			<stop  offset="0" style="stop-color:#DBE8F9"/>
			<stop  offset="1" style="stop-color:#A8C8ED"/>
		</linearGradient>
		<path class="st47" d="M403.7,930.9h113.2c97.5-75.4,199.7-168.2,298.6-271.8c87.8-92,167-186.2,233.3-276.8v-116
			c-71.6,109.2-168.7,229.3-280.2,346.1C645.6,741.2,517.9,852.5,403.7,930.9z"/>
		
			<linearGradient id="SVGID_43_" gradientUnits="userSpaceOnUse" x1="5043.1987" y1="-4727.6484" x2="5043.1987" y2="-5937.3867" gradientTransform="matrix(-0.6906 0.7233 -0.7233 -0.6906 369.9543 -6717.2622)">
			<stop  offset="0" style="stop-color:#DBE8F9"/>
			<stop  offset="1" style="stop-color:#A8C8ED"/>
		</linearGradient>
		<path class="st48" d="M731,576.6C604.8,708.8,473.8,821.2,361.9,893.1c-22.9,14.7-44.3,27.3-64.4,37.9h104.1
			c114.5-78.4,242.6-190.1,366-319.3c114.9-120.3,211.3-241.1,281.1-347.6V159.6c-5.7,10.9-12,22.1-18.7,33.7
			C963.5,308.3,857.2,444.4,731,576.6z"/>
		
			<linearGradient id="SVGID_44_" gradientUnits="userSpaceOnUse" x1="5022.4663" y1="-4727.6484" x2="5022.4663" y2="-5937.3867" gradientTransform="matrix(-0.6906 0.7233 -0.7233 -0.6906 369.9543 -6717.2622)">
			<stop  offset="0" style="stop-color:#DBE8F9"/>
			<stop  offset="1" style="stop-color:#A8C8ED"/>
		</linearGradient>
		<path class="st49" d="M626.7,477c65.5-68.6,120.7-139.1,155.5-198.5c26.5-45.3,38.7-80.1,35.9-101.1c-0.3,0.3-0.7,0.5-1,0.8
			c2.5,20.7-9.8,55-35.9,99.7c-34.8,59.4-89.9,129.8-155.3,198.3S492.7,603.1,435,640.6c-37.2,24.2-67.3,37.7-88.2,40.2
			c-0.3,0.4-0.5,0.8-0.8,1.2c21.3-2.2,51.8-15.9,89.7-40.4C493.4,604,561.3,545.6,626.7,477z"/>
		
			<linearGradient id="SVGID_45_" gradientUnits="userSpaceOnUse" x1="-574.7588" y1="-9594.4961" x2="-68.6962" y2="-9594.4961" gradientTransform="matrix(-1 0 0 -1 243.7338 -9164.7959)">
			<stop  offset="0" style="stop-color:#1F3683"/>
			<stop  offset="1" style="stop-color:#0F0038"/>
		</linearGradient>
		<path class="st50" d="M626.7,477c65.5-68.6,120.7-139.1,155.5-198.5c26.5-45.3,38.7-80.1,35.9-101.1c-0.3,0.3-0.7,0.5-1,0.8
			c2.5,20.7-9.8,55-35.9,99.7c-34.8,59.4-89.9,129.8-155.3,198.3S492.7,603.1,435,640.6c-37.2,24.2-67.3,37.7-88.2,40.2
			c-0.3,0.4-0.5,0.8-0.8,1.2c21.3-2.2,51.8-15.9,89.7-40.4C493.4,604,561.3,545.6,626.7,477z"/>
		
			<linearGradient id="SVGID_46_" gradientUnits="userSpaceOnUse" x1="5022.2915" y1="-4727.6484" x2="5022.2915" y2="-5937.3867" gradientTransform="matrix(-0.6906 0.7233 -0.7233 -0.6906 369.9543 -6717.2622)">
			<stop  offset="0" style="stop-color:#DBE8F9"/>
			<stop  offset="1" style="stop-color:#A8C8ED"/>
		</linearGradient>
		<path class="st51" d="M635.8,485.7c71.6-75,132.1-152.2,170.1-217.2c30-51.2,43.3-90.2,39-112.9c-0.3,0.3-0.6,0.5-1,0.8
			c4,22.4-9.3,60.9-39,111.6c-38,65-98.4,142.1-170,217C563.4,559.8,489.2,623.7,426,664.7c-42.2,27.4-76,42.3-99,44.2
			c-0.3,0.4-0.5,0.8-0.8,1.1c23.3-1.6,57.6-16.7,100.4-44.4C489.9,624.6,564.2,560.7,635.8,485.7z"/>
		
			<linearGradient id="SVGID_47_" gradientUnits="userSpaceOnUse" x1="-601.9558" y1="-9597.5957" x2="-48.2811" y2="-9597.5957" gradientTransform="matrix(-1 0 0 -1 243.7338 -9164.7959)">
			<stop  offset="0" style="stop-color:#1F3683"/>
			<stop  offset="1" style="stop-color:#0F0038"/>
		</linearGradient>
		<path class="st52" d="M635.8,485.7c71.6-75,132.1-152.2,170.1-217.2c30-51.2,43.3-90.2,39-112.9c-0.3,0.3-0.6,0.5-1,0.8
			c4,22.4-9.3,60.9-39,111.6c-38,65-98.4,142.1-170,217C563.4,559.8,489.2,623.7,426,664.7c-42.2,27.4-76,42.3-99,44.2
			c-0.3,0.4-0.5,0.8-0.8,1.1c23.3-1.6,57.6-16.7,100.4-44.4C489.9,624.6,564.2,560.7,635.8,485.7z"/>
		
			<linearGradient id="SVGID_48_" gradientUnits="userSpaceOnUse" x1="5022.3135" y1="-4727.6484" x2="5022.3135" y2="-5937.3867" gradientTransform="matrix(-0.6906 0.7233 -0.7233 -0.6906 369.9543 -6717.2622)">
			<stop  offset="0" style="stop-color:#DBE8F9"/>
			<stop  offset="1" style="stop-color:#A8C8ED"/>
		</linearGradient>
		<path class="st53" d="M649.1,498.4c79.8-83.6,147.1-169.5,189.6-242c35.2-60.1,49.8-105.1,42.4-129.6c-0.3,0.2-0.6,0.5-0.9,0.7
			c15.8,55.2-81.3,212.4-231.9,370.1C568.6,581.1,485.9,652.3,415.5,698c-49.7,32.3-89,49.1-114.6,49.5c-0.2,0.4-0.5,0.7-0.7,1.1
			c26-0.2,65.7-17,116-49.7C486.6,653.2,569.3,581.9,649.1,498.4z"/>
		
			<linearGradient id="SVGID_49_" gradientUnits="userSpaceOnUse" x1="-639.2397" y1="-9602.4961" x2="-22.5127" y2="-9602.4961" gradientTransform="matrix(-1 0 0 -1 243.7338 -9164.7959)">
			<stop  offset="0" style="stop-color:#1F3683"/>
			<stop  offset="1" style="stop-color:#0F0038"/>
		</linearGradient>
		<path class="st54" d="M649.1,498.4c79.8-83.6,147.1-169.5,189.6-242c35.2-60.1,49.8-105.1,42.4-129.6c-0.3,0.2-0.6,0.5-0.9,0.7
			c15.8,55.2-81.3,212.4-231.9,370.1C568.6,581.1,485.9,652.3,415.5,698c-49.7,32.3-89,49.1-114.6,49.5c-0.2,0.4-0.5,0.7-0.7,1.1
			c26-0.2,65.7-17,116-49.7C486.6,653.2,569.3,581.9,649.1,498.4z"/>
		
			<linearGradient id="SVGID_50_" gradientUnits="userSpaceOnUse" x1="5021.9048" y1="-4727.6484" x2="5021.9048" y2="-5937.3867" gradientTransform="matrix(-0.6906 0.7233 -0.7233 -0.6906 369.9543 -6717.2622)">
			<stop  offset="0" style="stop-color:#DBE8F9"/>
			<stop  offset="1" style="stop-color:#A8C8ED"/>
		</linearGradient>
		<path class="st55" d="M402.4,734.8c78.3-51.3,170.5-130.9,259.6-224.1c89-93.3,164.3-189,211.9-269.7
			c40.1-68.1,56.5-118.6,47.6-145.4c-0.3,0.2-0.6,0.5-0.9,0.7c3.5,10.9,2.8,25.8-2.2,44.7c-7.1,26.8-22.4,60.2-45.5,99.4
			C825.3,321,750.1,416.7,661.2,509.9c-89,93.2-181.1,172.7-259.4,223.9c-38,24.9-70.7,41.7-97.2,50c-12.1,3.8-22.6,5.7-31.5,5.8
			c-0.2,0.4-0.5,0.8-0.7,1.1c0.1,0,0.3,0,0.4,0C301.4,790.7,345.9,771.7,402.4,734.8z"/>
		
			<linearGradient id="SVGID_51_" gradientUnits="userSpaceOnUse" x1="-680.1231" y1="-9607.9463" x2="7.3813" y2="-9607.9463" gradientTransform="matrix(-1 0 0 -1 243.7338 -9164.7959)">
			<stop  offset="0" style="stop-color:#1F3683"/>
			<stop  offset="1" style="stop-color:#0F0038"/>
		</linearGradient>
		<path class="st56" d="M402.4,734.8c78.3-51.3,170.5-130.9,259.6-224.1c89-93.3,164.3-189,211.9-269.7
			c40.1-68.1,56.5-118.6,47.6-145.4c-0.3,0.2-0.6,0.5-0.9,0.7c3.5,10.9,2.8,25.8-2.2,44.7c-7.1,26.8-22.4,60.2-45.5,99.4
			C825.3,321,750.1,416.7,661.2,509.9c-89,93.2-181.1,172.7-259.4,223.9c-38,24.9-70.7,41.7-97.2,50c-12.1,3.8-22.6,5.7-31.5,5.8
			c-0.2,0.4-0.5,0.8-0.7,1.1c0.1,0,0.3,0,0.4,0C301.4,790.7,345.9,771.7,402.4,734.8z"/>
		
			<linearGradient id="SVGID_52_" gradientUnits="userSpaceOnUse" x1="5021.751" y1="-4727.6484" x2="5021.751" y2="-5937.3867" gradientTransform="matrix(-0.6906 0.7233 -0.7233 -0.6906 369.9543 -6717.2622)">
			<stop  offset="0" style="stop-color:#DBE8F9"/>
			<stop  offset="1" style="stop-color:#A8C8ED"/>
		</linearGradient>
		<path class="st57" d="M387.8,775.8c87.3-57.4,190.2-146.3,289.6-250.4s183.5-211,236.8-300.9c45.6-77,64-133.8,53.2-163.1
			c-0.3,0.2-0.6,0.5-0.9,0.7c23.3,64.9-99.4,263.1-289.8,462.6c-99.5,104-202.3,192.8-289.6,250.2c-42.4,27.9-78.8,46.7-108.3,56.1
			c-14.2,4.5-26.4,6.7-36.7,6.6c-0.2,0.4-0.5,0.7-0.7,1.1c0.5,0,1.1,0,1.6,0C275,838.7,324.6,817.3,387.8,775.8z"/>
		
			<linearGradient id="SVGID_53_" gradientUnits="userSpaceOnUse" x1="-726.6749" y1="-9614.8457" x2="40.4386" y2="-9614.8457" gradientTransform="matrix(-1 0 0 -1 243.7338 -9164.7959)">
			<stop  offset="0" style="stop-color:#1F3683"/>
			<stop  offset="1" style="stop-color:#0F0038"/>
		</linearGradient>
		<path class="st58" d="M387.8,775.8c87.3-57.4,190.2-146.3,289.6-250.4s183.5-211,236.8-300.9c45.6-77,64-133.8,53.2-163.1
			c-0.3,0.2-0.6,0.5-0.9,0.7c23.3,64.9-99.4,263.1-289.8,462.6c-99.5,104-202.3,192.8-289.6,250.2c-42.4,27.9-78.8,46.7-108.3,56.1
			c-14.2,4.5-26.4,6.7-36.7,6.6c-0.2,0.4-0.5,0.7-0.7,1.1c0.5,0,1.1,0,1.6,0C275,838.7,324.6,817.3,387.8,775.8z"/>
		
			<linearGradient id="SVGID_54_" gradientUnits="userSpaceOnUse" x1="5021.7671" y1="-4727.6484" x2="5021.7671" y2="-5937.3867" gradientTransform="matrix(-0.6906 0.7233 -0.7233 -0.6906 369.9543 -6717.2622)">
			<stop  offset="0" style="stop-color:#DBE8F9"/>
			<stop  offset="1" style="stop-color:#A8C8ED"/>
		</linearGradient>
		<path class="st59" d="M1019,83.9c-8.8,33.5-27.9,75.4-56.7,124.3C903.1,309,809.2,428.6,698,545C495.6,757,291,900.1,207.1,894
			c-0.2,0.4-0.4,0.7-0.7,1.1c1.9,0.2,3.9,0.2,6,0.2c35.9,0,91.5-23.7,162-69.7c98-64,213.2-163.3,324.5-279.8
			c111.2-116.5,205.2-236.2,264.6-337c52.2-88.7,72.2-153.6,57.6-185.9c-0.3,0.2-0.6,0.4-0.9,0.7C1026.2,37.5,1025.9,57.7,1019,83.9
			z"/>
		
			<linearGradient id="SVGID_55_" gradientUnits="userSpaceOnUse" x1="-782.0095" y1="-9623.8955" x2="76.8564" y2="-9623.8955" gradientTransform="matrix(-1 0 0 -1 243.7338 -9164.7959)">
			<stop  offset="0" style="stop-color:#1F3683"/>
			<stop  offset="1" style="stop-color:#0F0038"/>
		</linearGradient>
		<path class="st60" d="M1019,83.9c-8.8,33.5-27.9,75.4-56.7,124.3C903.1,309,809.2,428.6,698,545C495.6,757,291,900.1,207.1,894
			c-0.2,0.4-0.4,0.7-0.7,1.1c1.9,0.2,3.9,0.2,6,0.2c35.9,0,91.5-23.7,162-69.7c98-64,213.2-163.3,324.5-279.8
			c111.2-116.5,205.2-236.2,264.6-337c52.2-88.7,72.2-153.6,57.6-185.9c-0.3,0.2-0.6,0.4-0.9,0.7C1026.2,37.5,1025.9,57.7,1019,83.9
			z"/>
		
			<linearGradient id="SVGID_56_" gradientUnits="userSpaceOnUse" x1="5043.0527" y1="-4727.6484" x2="5043.0527" y2="-5937.3867" gradientTransform="matrix(-0.6906 0.7233 -0.7233 -0.6906 369.9543 -6717.2622)">
			<stop  offset="0" style="stop-color:#DBE8F9"/>
			<stop  offset="1" style="stop-color:#A8C8ED"/>
		</linearGradient>
		<path class="st61" d="M361.3,892.1c-23.5,15.1-45.6,28.1-66.2,38.8h2.4c20-10.6,41.5-23.2,64.4-37.9
			C473.8,821.2,604.8,708.8,731,576.6s232.4-268.3,299.1-383.3c6.7-11.6,12.9-22.8,18.7-33.7v-2.5
			c-60.7,115.5-173.9,267.2-318.6,418.7C604.1,707.9,473.1,820.3,361.3,892.1z"/>
		
			<linearGradient id="SVGID_57_" gradientUnits="userSpaceOnUse" x1="-855.3192" y1="-9708.7959" x2="120.6288" y2="-9708.7959" gradientTransform="matrix(-1 0 0 -1 243.7338 -9164.7959)">
			<stop  offset="0" style="stop-color:#1F3683"/>
			<stop  offset="1" style="stop-color:#0F0038"/>
		</linearGradient>
		<path class="st62" d="M361.3,892.1c-23.5,15.1-45.6,28.1-66.2,38.8h2.4c20-10.6,41.5-23.2,64.4-37.9
			C473.8,821.2,604.8,708.8,731,576.6s232.4-268.3,299.1-383.3c6.7-11.6,12.9-22.8,18.7-33.7v-2.5
			c-60.7,115.5-173.9,267.2-318.6,418.7C604.1,707.9,473.1,820.3,361.3,892.1z"/>
		
			<linearGradient id="SVGID_58_" gradientUnits="userSpaceOnUse" x1="5044.9746" y1="-4727.6484" x2="5044.9746" y2="-5937.3867" gradientTransform="matrix(-0.6906 0.7233 -0.7233 -0.6906 369.9543 -6717.2622)">
			<stop  offset="0" style="stop-color:#DBE8F9"/>
			<stop  offset="1" style="stop-color:#A8C8ED"/>
		</linearGradient>
		<path class="st63" d="M401.7,930.9h2c114.2-78.4,241.9-189.8,364.8-318.5c111.6-116.9,208.6-237,280.2-346.1v-2.2
			C979,370.6,882.5,491.4,767.6,611.7C644.3,740.9,516.2,852.5,401.7,930.9z"/>
		
			<linearGradient id="SVGID_59_" gradientUnits="userSpaceOnUse" x1="-928.1316" y1="-9762.2959" x2="158.347" y2="-9762.2959" gradientTransform="matrix(-1 0 0 -1 243.7338 -9164.7959)">
			<stop  offset="0" style="stop-color:#1F3683"/>
			<stop  offset="1" style="stop-color:#0F0038"/>
		</linearGradient>
		<path class="st64" d="M401.7,930.9h2c114.2-78.4,241.9-189.8,364.8-318.5c111.6-116.9,208.6-237,280.2-346.1v-2.2
			C979,370.6,882.5,491.4,767.6,611.7C644.3,740.9,516.2,852.5,401.7,930.9z"/>
		
			<linearGradient id="SVGID_60_" gradientUnits="userSpaceOnUse" x1="5047.9429" y1="-4727.6484" x2="5047.9429" y2="-5937.3867" gradientTransform="matrix(-0.6906 0.7233 -0.7233 -0.6906 369.9543 -6717.2622)">
			<stop  offset="0" style="stop-color:#DBE8F9"/>
			<stop  offset="1" style="stop-color:#A8C8ED"/>
		</linearGradient>
		<path class="st65" d="M516.9,930.9h1.8c97.2-75.3,199-167.8,297.5-271c87.5-91.6,166.4-185.4,232.5-275.7v-1.9
			c-66.3,90.6-145.5,184.8-233.3,276.8C716.6,762.7,614.5,855.5,516.9,930.9z"/>
		
			<linearGradient id="SVGID_61_" gradientUnits="userSpaceOnUse" x1="-1007.0581" y1="-9821.3955" x2="193.4147" y2="-9821.3955" gradientTransform="matrix(-1 0 0 -1 243.7338 -9164.7959)">
			<stop  offset="0" style="stop-color:#1F3683"/>
			<stop  offset="1" style="stop-color:#0F0038"/>
		</linearGradient>
		<path class="st66" d="M516.9,930.9h1.8c97.2-75.3,199-167.8,297.5-271c87.5-91.6,166.4-185.4,232.5-275.7v-1.9
			c-66.3,90.6-145.5,184.8-233.3,276.8C716.6,762.7,614.5,855.5,516.9,930.9z"/>
		
			<linearGradient id="SVGID_62_" gradientUnits="userSpaceOnUse" x1="5050.5269" y1="-4727.6484" x2="5050.5269" y2="-5937.3867" gradientTransform="matrix(-0.6906 0.7233 -0.7233 -0.6906 369.9543 -6717.2622)">
			<stop  offset="0" style="stop-color:#DBE8F9"/>
			<stop  offset="1" style="stop-color:#A8C8ED"/>
		</linearGradient>
		<path class="st67" d="M608.5,930.9h1.8c82.2-69,166-147.8,247.6-233.3c69.1-72.4,133.3-146.1,190.9-218.8V477
			C991,550,926.5,624.1,857,696.8C775.1,782.7,691,861.8,608.5,930.9z"/>
		
			<linearGradient id="SVGID_63_" gradientUnits="userSpaceOnUse" x1="-1091.309" y1="-9868.7461" x2="237.4467" y2="-9868.7461" gradientTransform="matrix(-1 0 0 -1 243.7338 -9164.7959)">
			<stop  offset="0" style="stop-color:#1F3683"/>
			<stop  offset="1" style="stop-color:#0F0038"/>
		</linearGradient>
		<path class="st68" d="M608.5,930.9h1.8c82.2-69,166-147.8,247.6-233.3c69.1-72.4,133.3-146.1,190.9-218.8V477
			C991,550,926.5,624.1,857,696.8C775.1,782.7,691,861.8,608.5,930.9z"/>
		
			<linearGradient id="SVGID_64_" gradientUnits="userSpaceOnUse" x1="5053.3022" y1="-4727.6484" x2="5053.3022" y2="-5937.3867" gradientTransform="matrix(-0.6906 0.7233 -0.7233 -0.6906 369.9543 -6717.2622)">
			<stop  offset="0" style="stop-color:#DBE8F9"/>
			<stop  offset="1" style="stop-color:#A8C8ED"/>
		</linearGradient>
		<path class="st69" d="M709.7,930.9h1.7c64.9-58.1,130-121.1,193.9-188c50.4-52.8,98.5-106.3,143.5-159.8v-1.8
			c-45.3,53.8-93.6,107.6-144.4,160.7C840.3,809.3,774.9,872.7,709.7,930.9z"/>
		
			<linearGradient id="SVGID_65_" gradientUnits="userSpaceOnUse" x1="-1182.8107" y1="-9920.8955" x2="283.9962" y2="-9920.8955" gradientTransform="matrix(-1 0 0 -1 243.7338 -9164.7959)">
			<stop  offset="0" style="stop-color:#1F3683"/>
			<stop  offset="1" style="stop-color:#0F0038"/>
		</linearGradient>
		<path class="st70" d="M709.7,930.9h1.7c64.9-58.1,130-121.1,193.9-188c50.4-52.8,98.5-106.3,143.5-159.8v-1.8
			c-45.3,53.8-93.6,107.6-144.4,160.7C840.3,809.3,774.9,872.7,709.7,930.9z"/>
		
			<linearGradient id="SVGID_66_" gradientUnits="userSpaceOnUse" x1="5056.2695" y1="-4727.6484" x2="5056.2695" y2="-5937.3867" gradientTransform="matrix(-0.6906 0.7233 -0.7233 -0.6906 369.9543 -6717.2622)">
			<stop  offset="0" style="stop-color:#DBE8F9"/>
			<stop  offset="1" style="stop-color:#A8C8ED"/>
		</linearGradient>
		<path class="st71" d="M816,930.9h1.6c46.9-44.2,93.4-90.5,139.4-138.6c31.5-33,62.1-66.2,91.8-99.6V691
			c-29.9,33.7-60.8,67.2-92.6,100.5C910,839.9,863.2,886.5,816,930.9z"/>
		
			<linearGradient id="SVGID_67_" gradientUnits="userSpaceOnUse" x1="-1282.6683" y1="-9975.7461" x2="334.7634" y2="-9975.7461" gradientTransform="matrix(-1 0 0 -1 243.7338 -9164.7959)">
			<stop  offset="0" style="stop-color:#1F3683"/>
			<stop  offset="1" style="stop-color:#0F0038"/>
		</linearGradient>
		<path class="st72" d="M816,930.9h1.6c46.9-44.2,93.4-90.5,139.4-138.6c31.5-33,62.1-66.2,91.8-99.6V691
			c-29.9,33.7-60.8,67.2-92.6,100.5C910,839.9,863.2,886.5,816,930.9z"/>
		
			<linearGradient id="SVGID_68_" gradientUnits="userSpaceOnUse" x1="5059.2402" y1="-4727.6484" x2="5059.2402" y2="-5937.3867" gradientTransform="matrix(-0.6906 0.7233 -0.7233 -0.6906 369.9543 -6717.2622)">
			<stop  offset="0" style="stop-color:#DBE8F9"/>
			<stop  offset="1" style="stop-color:#A8C8ED"/>
		</linearGradient>
		<path class="st73" d="M924.7,930.9h1.6c28.6-28.2,57-57.1,85.2-86.6c12.6-13.2,25-26.4,37.3-39.6V803
			c-12.6,13.5-25.3,27-38.1,40.5C982.2,873.4,953.5,902.5,924.7,930.9z"/>
		
			<linearGradient id="SVGID_69_" gradientUnits="userSpaceOnUse" x1="-1377.4882" y1="-10031.7461" x2="378.3628" y2="-10031.7461" gradientTransform="matrix(-1 0 0 -1 243.7338 -9164.7959)">
			<stop  offset="0" style="stop-color:#1F3683"/>
			<stop  offset="1" style="stop-color:#0F0038"/>
		</linearGradient>
		<path class="st74" d="M924.7,930.9h1.6c28.6-28.2,57-57.1,85.2-86.6c12.6-13.2,25-26.4,37.3-39.6V803
			c-12.6,13.5-25.3,27-38.1,40.5C982.2,873.4,953.5,902.5,924.7,930.9z"/>
	</g>
</g>
<line class="st75" x1="184.6" y1="930.9" x2="0" y2="930.9"/>
</svg>
