<?xml version="1.0" encoding="utf-8"?>
<!-- Generator: Adobe Illustrator 22.1.0, SVG Export Plug-In . SVG Version: 6.00 Build 0)  -->
<svg version="1.1" id="Capa_1" xmlns="http://www.w3.org/2000/svg" xmlns:xlink="http://www.w3.org/1999/xlink" x="0px" y="0px"
	 viewBox="0 0 1045.4 927.8" style="enable-background:new 0 0 1045.4 927.8;" xml:space="preserve">
<style type="text/css">
	.st0{fill:none;}
	.st1{fill:url(#SVGID_1_);}
	.st2{fill:url(#SVGID_2_);}
	.st3{fill:url(#SVGID_3_);}
	.st4{fill:url(#SVGID_4_);}
	.st5{fill:url(#SVGID_5_);}
	.st6{fill:url(#SVGID_6_);}
	.st7{fill:url(#SVGID_7_);}
	.st8{fill:url(#SVGID_8_);}
	.st9{fill:url(#SVGID_9_);}
	.st10{fill:url(#SVGID_10_);}
	.st11{fill:url(#SVGID_11_);}
	.st12{fill:url(#SVGID_12_);}
	.st13{fill:url(#SVGID_13_);}
	.st14{fill:url(#SVGID_14_);}
	.st15{fill:url(#SVGID_15_);}
	.st16{fill:url(#SVGID_16_);}
	.st17{fill:url(#SVGID_17_);}
	.st18{fill:url(#SVGID_18_);}
	.st19{fill:url(#SVGID_19_);}
	.st20{fill:url(#SVGID_20_);}
	.st21{fill:url(#SVGID_21_);}
	.st22{fill:url(#SVGID_22_);}
	.st23{fill:url(#SVGID_23_);}
	.st24{fill:url(#SVGID_24_);}
	.st25{fill:url(#SVGID_25_);}
	.st26{fill:url(#SVGID_26_);}
	.st27{fill:url(#SVGID_27_);}
	.st28{fill:url(#SVGID_28_);}
	.st29{fill:url(#SVGID_29_);}
	.st30{fill:url(#SVGID_30_);}
	.st31{fill:url(#SVGID_31_);}
	.st32{fill:url(#SVGID_32_);}
	.st33{fill:url(#SVGID_33_);}
	.st34{fill:url(#SVGID_34_);}
	.st35{fill:url(#SVGID_35_);}
	.st36{fill:url(#SVGID_36_);}
	.st37{fill:url(#SVGID_37_);}
	.st38{fill:url(#SVGID_38_);}
	.st39{fill:url(#SVGID_39_);}
	.st40{fill:url(#SVGID_40_);}
	.st41{fill:url(#SVGID_41_);}
	.st42{fill:#FFFFFF;}
	.st43{display:none;}
	.st44{display:inline;}
	.st45{fill:url(#SVGID_42_);}
	.st46{fill:url(#SVGID_43_);}
	.st47{fill:url(#SVGID_44_);}
	.st48{fill:url(#SVGID_45_);}
	.st49{fill:url(#SVGID_46_);}
	.st50{fill:url(#SVGID_47_);}
	.st51{fill:url(#SVGID_48_);}
	.st52{fill:url(#SVGID_49_);}
	.st53{fill:url(#SVGID_50_);}
	.st54{fill:url(#SVGID_51_);}
	.st55{fill:url(#SVGID_52_);}
	.st56{fill:url(#SVGID_53_);}
	.st57{fill:url(#SVGID_54_);}
	.st58{opacity:0.21;fill:#0F0038;enable-background:new    ;}
	.st59{fill:url(#SVGID_55_);}
	.st60{fill:url(#SVGID_56_);}
	.st61{fill:url(#SVGID_57_);}
	.st62{fill:url(#SVGID_58_);}
	.st63{fill:url(#SVGID_59_);}
	.st64{fill:url(#SVGID_60_);}
	.st65{opacity:7.000000e-02;fill:#0F0038;enable-background:new    ;}
	.st66{fill:url(#SVGID_61_);}
	.st67{fill:url(#SVGID_62_);}
	.st68{fill:#95535F;}
	.st69{fill:url(#SVGID_63_);}
	.st70{fill:url(#SVGID_64_);}
	.st71{fill:url(#SVGID_65_);}
	.st72{fill:url(#SVGID_66_);}
	.st73{fill:url(#SVGID_67_);}
	.st74{fill:url(#SVGID_68_);}
	.st75{fill:url(#SVGID_69_);}
	.st76{fill:none;stroke:url(#SVGID_70_);stroke-width:0.6644;stroke-miterlimit:10;}
	.st77{fill:url(#SVGID_71_);}
	.st78{fill:url(#SVGID_72_);}
	.st79{fill:url(#SVGID_73_);}
	.st80{fill:url(#SVGID_74_);}
	.st81{fill:url(#SVGID_75_);}
	.st82{fill:url(#SVGID_76_);}
	.st83{fill:url(#SVGID_77_);}
	.st84{fill:url(#SVGID_78_);}
	.st85{fill:url(#SVGID_79_);}
	.st86{fill:url(#SVGID_80_);}
	.st87{fill:url(#SVGID_81_);}
	.st88{fill:url(#SVGID_82_);}
	.st89{fill:url(#SVGID_83_);}
	.st90{fill:url(#SVGID_84_);}
	.st91{fill:url(#SVGID_85_);}
	.st92{fill:url(#SVGID_86_);}
	.st93{fill:url(#SVGID_87_);}
	.st94{fill:url(#SVGID_88_);}
	.st95{fill:url(#SVGID_89_);}
	.st96{fill:url(#SVGID_90_);}
	.st97{fill:url(#SVGID_91_);}
	.st98{fill:url(#SVGID_92_);}
	.st99{fill:url(#SVGID_93_);}
	.st100{fill:url(#SVGID_94_);}
	.st101{fill:url(#SVGID_95_);}
	.st102{fill:url(#SVGID_96_);}
	.st103{fill:url(#SVGID_97_);}
	.st104{fill:url(#SVGID_98_);}
	.st105{fill:url(#SVGID_99_);}
	.st106{fill:url(#SVGID_100_);}
	.st107{fill:url(#SVGID_101_);}
	.st108{fill:url(#SVGID_102_);}
	.st109{fill:url(#SVGID_103_);}
	.st110{fill:url(#SVGID_104_);}
	.st111{fill:url(#SVGID_105_);}
	.st112{fill:url(#SVGID_106_);}
	.st113{fill:url(#SVGID_107_);}
	.st114{fill:url(#SVGID_108_);}
	.st115{fill:url(#SVGID_109_);}
	.st116{fill:url(#SVGID_110_);}
</style>
<g id="Capa_1_1_">
	<g>
		<g>
			<path class="st0" d="M822.7-0.1h-837v927.9H0c115.3-187.9,276.2-395.6,470.8-599.5C587.8,205.8,706.8,95.4,822.7-0.1z"/>
			<path class="st0" d="M1017.7,22.6c-0.3,0.2-0.6,0.4-0.9,0.7c-17.4,12.3-34.9,24.8-52.5,37.7c-0.3,0.2-0.6,0.5-0.9,0.7
				c-15,11-29.9,22-44.9,33.4c-0.3,0.2-0.6,0.5-0.9,0.7c-13.1,10-26.2,20-39.3,30.3c-0.3,0.2-0.6,0.5-0.9,0.7
				c-11.7,9.2-23.4,18.5-35.1,28c-0.3,0.3-0.6,0.5-1,0.8c-8.6,7-17.1,14-25.7,21c-0.3,0.3-0.7,0.5-1,0.8
				c-102.6,84.9-204.3,180.3-298.9,286.4c0,0-65.2,66.1-170,214.5c-0.3,0.4-0.5,0.8-0.8,1.2c-6.2,8.7-12.4,17.6-18.8,26.9
				c-0.3,0.4-0.5,0.8-0.8,1.1c-8.3,12-16.6,24.3-25.3,37.3c-0.2,0.4-0.5,0.7-0.7,1.1c-8.8,13.2-17.8,26.8-27,40.9
				c-0.2,0.4-0.5,0.8-0.7,1.1c-9.8,15-19.7,30.6-30,46.6c-0.2,0.4-0.5,0.7-0.7,1.1c-11.2,17.7-22.6,36.1-34.4,55.2
				c-0.2,0.4-0.4,0.7-0.7,1.1c-7.1,11.7-14.4,23.5-21.6,35.7h861.3V3.3C1036.2,9.7,1027,16,1017.7,22.6z"/>
			
				<linearGradient id="SVGID_1_" gradientUnits="userSpaceOnUse" x1="5106.3979" y1="5671.0928" x2="5106.3979" y2="6876.9331" gradientTransform="matrix(-0.6906 0.7233 0.7233 0.6906 -333.9155 -7348.1753)">
				<stop  offset="0" style="stop-color:#DBE8F9"/>
				<stop  offset="1" style="stop-color:#A8C8ED"/>
			</linearGradient>
			<path class="st1" d="M481.9,338.9C609.2,205.6,741.6,88.7,865.4-0.2h-9.6C732.9,92.1,604.2,207.5,480.2,337.4
				C293.6,532.9,140,737.7,47.8,913.9c-2.4,4.6-4.8,9.2-7.1,13.8h14c9.6-21.2,20.5-43.5,32.8-66.6
				C172.2,702,312.4,516.5,481.9,338.9z"/>
			
				<linearGradient id="SVGID_2_" gradientUnits="userSpaceOnUse" x1="5122.8843" y1="5671.0928" x2="5122.8843" y2="6876.9331" gradientTransform="matrix(-0.6906 0.7233 0.7233 0.6906 -333.9155 -7348.1753)">
				<stop  offset="0" style="stop-color:#DBE8F9"/>
				<stop  offset="1" style="stop-color:#A8C8ED"/>
			</linearGradient>
			<path class="st2" d="M476.9,334.1C580.7,225.4,687.8,125.8,795,38.3c16.1-13.2,32.2-26,48.1-38.4H835
				c-5.2,4.2-10.5,8.4-15.6,12.6c-116.5,94.2-232.6,201.6-345,319.3C362,449.4,260.1,570.4,171.3,691.1
				c-60,81.7-112.2,161-156,236.6h10C71,845,128.3,757.1,196.1,665.5C278.5,554.4,373,442.9,476.9,334.1z"/>
			
				<linearGradient id="SVGID_3_" gradientUnits="userSpaceOnUse" x1="4996.3936" y1="5671.0928" x2="4996.3936" y2="6876.9331" gradientTransform="matrix(-0.6906 0.7233 0.7233 0.6906 -333.9155 -7348.1753)">
				<stop  offset="0" style="stop-color:#DBE8F9"/>
				<stop  offset="1" style="stop-color:#A8C8ED"/>
			</linearGradient>
			<path class="st3" d="M846.7,106.5c-62.6,0-205.8,100.9-347.4,249.1c-79.4,83.2-146.5,168.9-188.8,241
				c-42.2,72-54.6,121.9-35.1,140.5c5.5,5.3,13.4,7.9,23.4,7.9c0.3,0,0.7,0,1,0c8.7-12.9,17.1-25.3,25.3-37.3
				c-1.4,0.1-2.8,0.2-4.1,0.2c-9.3,0-16.5-2.4-21.7-7.3c-17.9-17.1-6.8-62.4,31.3-127.4c38-64.9,98.2-141.7,169.6-216.5
				s145.4-138.5,208.4-179.4c63.2-41.1,108-54.2,125.8-37.2c3.9,3.7,6.4,8.7,7.6,14.9c11.7-9.5,23.4-18.8,35.1-28
				c-1.5-5.1-3.9-9.3-7.3-12.6C864.5,108.9,856.6,106.5,846.7,106.5z"/>
			
				<linearGradient id="SVGID_4_" gradientUnits="userSpaceOnUse" x1="5131.626" y1="5671.0928" x2="5131.626" y2="6876.9331" gradientTransform="matrix(-0.6906 0.7233 0.7233 0.6906 -333.9155 -7348.1753)">
				<stop  offset="0" style="stop-color:#DBE8F9"/>
				<stop  offset="1" style="stop-color:#A8C8ED"/>
			</linearGradient>
			<path class="st4" d="M473.6,330.9C586,213.2,702.1,105.8,818.7,11.6c4.9-3.9,9.7-7.8,14.6-11.7h-10.5
				c-115.9,95.5-234.9,205.9-352,328.4C276.2,532.1,115.3,739.9,0,927.7h14.1c43.9-75.9,96.2-155.4,156.4-237.3
				C259.2,569.7,361.1,448.6,473.6,330.9z"/>
			
				<linearGradient id="SVGID_5_" gradientUnits="userSpaceOnUse" x1="5115.313" y1="5671.0928" x2="5115.313" y2="6876.9331" gradientTransform="matrix(-0.6906 0.7233 0.7233 0.6906 -333.9155 -7348.1753)">
				<stop  offset="0" style="stop-color:#DBE8F9"/>
				<stop  offset="1" style="stop-color:#A8C8ED"/>
			</linearGradient>
			<path class="st5" d="M479.5,336.6C603.1,207.1,731.3,92,853.8-0.1H845c-16.3,12.8-32.7,25.8-49.2,39.3
				c-107.3,87.4-214.3,187-318.1,295.7C373.8,443.6,279.4,555.1,197,666.2C129.4,757.5,72.2,845.2,26.6,927.7h12.9
				c2.4-4.7,4.9-9.5,7.4-14.3C139.1,737.1,292.8,532.2,479.5,336.6z"/>
			
				<linearGradient id="SVGID_6_" gradientUnits="userSpaceOnUse" x1="4996.0791" y1="5671.0928" x2="4996.0791" y2="6876.9331" gradientTransform="matrix(-0.6906 0.7233 0.7233 0.6906 -333.9155 -7348.1753)">
				<stop  offset="0" style="stop-color:#DBE8F9"/>
				<stop  offset="1" style="stop-color:#A8C8ED"/>
			</linearGradient>
			<path class="st6" d="M812.9,133.7c-22.9,0-58.4,15.1-103.5,44.4c-63,40.9-137,104.6-208.2,179.2
				C429.8,432,369.7,508.8,331.7,573.5c-37.8,64.6-48.9,109.3-31.5,126c5.8,5.5,14.5,7.8,25.8,6.8c6.4-9.3,12.7-18.2,18.8-26.9
				c-2,0.2-4,0.3-5.8,0.3c-8.5,0-15.2-2.2-19.8-6.7c-16.3-15.6-6.3-57,28.6-116.5c34.7-59.3,89.7-129.6,155-197.9
				c65.3-68.4,132.9-126.6,190.5-164c57.8-37.6,98.7-49.5,115-33.9c4,3.8,6.4,9.1,7.3,15.7c8.6-7.1,17.1-14.1,25.7-21
				c-1.1-6.2-3.6-11.2-7.4-14.9C828.9,136.1,821.8,133.7,812.9,133.7z"/>
			
				<linearGradient id="SVGID_7_" gradientUnits="userSpaceOnUse" x1="4996.314" y1="5671.0928" x2="4996.314" y2="6876.9331" gradientTransform="matrix(-0.6906 0.7233 0.7233 0.6906 -333.9155 -7348.1753)">
				<stop  offset="0" style="stop-color:#DBE8F9"/>
				<stop  offset="1" style="stop-color:#A8C8ED"/>
			</linearGradient>
			<path class="st7" d="M937.2,8.4c-33,10.3-73.8,31.2-121.2,62.2c-97.6,63.7-212.4,162.7-323.3,278.8
				C264.1,588.7,123.6,827,179.6,880.5c6.6,6.3,15.6,9.8,26.7,10.6c11.7-19.1,23.1-37.5,34.4-55.2c-11.6-0.3-20.6-3.5-27.1-9.6
				c-24.2-23.1-8.3-85.3,45-175.1c53.1-89.6,137-196.2,236-299.9s201.6-192.5,288.7-249.6c87.3-57.3,148.7-76.2,172.8-53
				c3.5,3.4,6.2,7.6,8,12.6c17.5-12.9,35.1-25.4,52.5-37.7c-2-4.4-4.6-8.2-7.9-11.4C995.3-1.1,971.2-2.3,937.2,8.4z"/>
			
				<linearGradient id="SVGID_8_" gradientUnits="userSpaceOnUse" x1="4996.2285" y1="5671.0928" x2="4996.2285" y2="6876.9331" gradientTransform="matrix(-0.6906 0.7233 0.7233 0.6906 -333.9155 -7348.1753)">
				<stop  offset="0" style="stop-color:#DBE8F9"/>
				<stop  offset="1" style="stop-color:#A8C8ED"/>
			</linearGradient>
			<path class="st8" d="M927.5,39.9c-76.7,0-255.2,126.6-432.1,312c-99.1,103.8-182.8,210.2-235.8,299.7
				c-25.8,43.6-42.9,80.6-50.8,110.3c-8.2,30.6-6.3,51.9,5.7,63.4c6.4,6.1,15.4,9.2,27,9.3c10.2-16.1,20.2-31.7,30-46.6
				c-11.1-0.1-19.6-3-25.8-8.8c-21.9-20.9-7.8-76.9,39.8-157.5c47.4-80.4,122.4-175.8,211.2-268.8c88.7-93,180.6-172.2,258.8-223.4
				c78.3-51.2,133.6-67.9,155.4-46.9c3.5,3.3,6,7.5,7.7,12.6c15-11.4,29.9-22.5,44.9-33.4c-1.8-4.9-4.4-9.1-7.9-12.5
				C948.8,43,939.4,39.9,927.5,39.9z"/>
			
				<linearGradient id="SVGID_9_" gradientUnits="userSpaceOnUse" x1="4996.2612" y1="5671.0928" x2="4996.2612" y2="6876.9331" gradientTransform="matrix(-0.6906 0.7233 0.7233 0.6906 -333.9155 -7348.1753)">
				<stop  offset="0" style="stop-color:#DBE8F9"/>
				<stop  offset="1" style="stop-color:#A8C8ED"/>
			</linearGradient>
			<path class="st9" d="M884.7,74.9c-9,0-19.6,1.9-31.9,5.8c-26.3,8.3-58.9,25-96.9,49.8c-78,51-169.9,130.3-258.6,223.2
				s-163.7,188.3-211,268.6c-23,39.1-38.3,72.4-45.4,99.1c-7.3,27.5-5.5,46.6,5.4,57c6,5.7,14.7,8.6,25.7,8.5
				c9.2-14.2,18.2-27.7,27-40.9c-0.1,0-0.2,0-0.4,0c-10.4,0-18.4-2.7-24.1-8.1c-19.9-19-7.6-69.4,34.9-141.8
				c42.3-72.3,109.3-157.9,189-241.2c79.5-83.3,162-154.3,232.2-199.9c70.4-45.8,120.2-60.4,140.1-41.4c3.5,3.3,5.9,7.6,7.5,12.7
				c13.2-10.3,26.2-20.4,39.3-30.3c-1.6-5-4.1-9.2-7.6-12.5C904.1,77.6,895.6,74.9,884.7,74.9z"/>
			
				<linearGradient id="SVGID_10_" gradientUnits="userSpaceOnUse" x1="5073.7046" y1="5671.0928" x2="5073.7046" y2="6876.9331" gradientTransform="matrix(-0.6906 0.7233 0.7233 0.6906 -333.9155 -7348.1753)">
				<stop  offset="0" style="stop-color:#DBE8F9"/>
				<stop  offset="1" style="stop-color:#A8C8ED"/>
			</linearGradient>
			<path class="st10" d="M191.5,728.3C258,613.7,363.8,478,489.6,346.3C615.4,214.5,746.1,102.5,857.5,30.8
				c18-11.6,35.2-21.9,51.4-30.9h-15.8c-118.8,75.3-263,196-405.2,344.8c-215,225.2-365.4,452.1-395.9,583h32.3
				C116.1,887.6,139.1,818.8,191.5,728.3z"/>
			
				<linearGradient id="SVGID_11_" gradientUnits="userSpaceOnUse" x1="5086.0581" y1="5671.0928" x2="5086.0581" y2="6876.9331" gradientTransform="matrix(-0.6906 0.7233 0.7233 0.6906 -333.9155 -7348.1753)">
				<stop  offset="0" style="stop-color:#DBE8F9"/>
				<stop  offset="1" style="stop-color:#A8C8ED"/>
			</linearGradient>
			<path class="st11" d="M487.1,343.9C624.3,200.3,767.4,78.3,890.9-0.2h-9.2c-121.6,81.4-261,200-397.7,343.1
				c-153.4,160.7-280.4,328-357.7,471.4c-22.3,41.3-39.7,79.2-52.1,113.4h16.6c9.9-42.5,32.5-95.7,67.5-157.9
				C230.8,641.4,347.6,490.1,487.1,343.9z"/>
			
				<linearGradient id="SVGID_12_" gradientUnits="userSpaceOnUse" x1="5096.2466" y1="5671.0928" x2="5096.2466" y2="6876.9331" gradientTransform="matrix(-0.6906 0.7233 0.7233 0.6906 -333.9155 -7348.1753)">
				<stop  offset="0" style="stop-color:#DBE8F9"/>
				<stop  offset="1" style="stop-color:#A8C8ED"/>
			</linearGradient>
			<path class="st12" d="M483.2,342.2C615.8,203.3,754.3,83.9,879.6-0.1h-12.1C746.6,86.6,613.4,202.8,482.7,339.7
				c-201.2,210.7-353.3,425.2-426.6,588H73c12.5-34.4,30-72.6,52.3-114C202.6,670.3,329.8,502.9,483.2,342.2z"/>
			
				<linearGradient id="SVGID_13_" gradientUnits="userSpaceOnUse" x1="5015.1323" y1="5671.0928" x2="5015.1323" y2="6876.9331" gradientTransform="matrix(-0.6906 0.7233 0.7233 0.6906 -333.9155 -7348.1753)">
				<stop  offset="0" style="stop-color:#DBE8F9"/>
				<stop  offset="1" style="stop-color:#A8C8ED"/>
			</linearGradient>
			<path class="st13" d="M178.8,881.3c-27.4-26.2-9.9-96.1,49.4-196.8C287.5,584,381.1,464.7,492,348.6
				c110.8-116.2,225.7-215.3,323.4-279c97.9-63.9,166.9-84.6,194.3-58.4c3.4,3.2,6,7.1,8.1,11.6c9.3-6.5,18.5-13,27.7-19.2V0H911.3
				c-16.8,9.3-34.6,19.8-53.2,31.8c-111.4,71.7-242,183.6-367.7,315.3C364.6,478.7,258.8,614.3,192.4,728.8
				c-32.3,55.7-53.4,103.4-63,141.7c-5.8,23.1-7.1,42.3-4,57.2H184c7.3-12.2,14.5-24,21.6-35.7C194.5,891.1,185.4,887.5,178.8,881.3
				z"/>
			
				<linearGradient id="SVGID_14_" gradientUnits="userSpaceOnUse" x1="4996.1846" y1="5671.0928" x2="4996.1846" y2="6876.9331" gradientTransform="matrix(-0.6906 0.7233 0.7233 0.6906 -333.9155 -7348.1753)">
				<stop  offset="0" style="stop-color:#DBE8F9"/>
				<stop  offset="1" style="stop-color:#A8C8ED"/>
			</linearGradient>
			<path class="st14" d="M788.4,155.3c-20.9,0-53.3,13.8-94.5,40.5c-57.5,37.4-125.1,95.5-190.3,163.8
				C369.1,500.4,286.8,640.6,320,672.3c5.7,5.4,14.4,7.4,25.7,6c104.8-148.4,170-214.5,170-214.5C610.3,357.6,712,262.3,814.6,177.4
				c-0.8-6.7-3.1-12-7.1-15.7C803,157.4,796.5,155.3,788.4,155.3z"/>
			
				<linearGradient id="SVGID_15_" gradientUnits="userSpaceOnUse" x1="4996.3955" y1="5671.0928" x2="4996.3955" y2="6876.9331" gradientTransform="matrix(-0.6906 0.7233 0.7233 0.6906 -333.9155 -7348.1753)">
				<stop  offset="0" style="stop-color:#DBE8F9"/>
				<stop  offset="1" style="stop-color:#A8C8ED"/>
			</linearGradient>
			<path class="st15" d="M693.3,194.8c-57.6,37.4-125.3,95.6-190.5,164c-65.3,68.4-120.3,138.7-155.1,198
				c-34.8,59.5-45,100.9-28.6,116.5c4.7,4.5,11.4,6.7,19.8,6.7c1.9,0,3.8-0.1,5.8-0.3c0.3-0.4,0.5-0.8,0.8-1.2
				c-11.4,1.3-20.1-0.6-25.7-6c-33.2-31.7,49.1-172,183.6-312.8c65.2-68.3,132.8-126.5,190.3-163.8c41.2-26.7,73.6-40.5,94.5-40.5
				c8.2,0,14.7,2.1,19.1,6.5c3.9,3.8,6.3,9.1,7.1,15.7c0.3-0.3,0.7-0.5,1-0.8c-0.9-6.7-3.3-12-7.3-15.7
				C791.8,145.2,751.1,157.3,693.3,194.8z"/>
			
				<linearGradient id="SVGID_16_" gradientUnits="userSpaceOnUse" x1="-544.9642" y1="10513.8828" x2="-41.0532" y2="10513.8828" gradientTransform="matrix(-1 0 0 1 270.3999 -10096.7959)">
				<stop  offset="0" style="stop-color:#1F3683"/>
				<stop  offset="1" style="stop-color:#0F0038"/>
			</linearGradient>
			<path class="st16" d="M693.3,194.8c-57.6,37.4-125.3,95.6-190.5,164c-65.3,68.4-120.3,138.7-155.1,198
				c-34.8,59.5-45,100.9-28.6,116.5c4.7,4.5,11.4,6.7,19.8,6.7c1.9,0,3.8-0.1,5.8-0.3c0.3-0.4,0.5-0.8,0.8-1.2
				c-11.4,1.3-20.1-0.6-25.7-6c-33.2-31.7,49.1-172,183.6-312.8c65.2-68.3,132.8-126.5,190.3-163.8c41.2-26.7,73.6-40.5,94.5-40.5
				c8.2,0,14.7,2.1,19.1,6.5c3.9,3.8,6.3,9.1,7.1,15.7c0.3-0.3,0.7-0.5,1-0.8c-0.9-6.7-3.3-12-7.3-15.7
				C791.8,145.2,751.1,157.3,693.3,194.8z"/>
			
				<linearGradient id="SVGID_17_" gradientUnits="userSpaceOnUse" x1="4996.1528" y1="5671.0928" x2="4996.1528" y2="6876.9331" gradientTransform="matrix(-0.6906 0.7233 0.7233 0.6906 -333.9155 -7348.1753)">
				<stop  offset="0" style="stop-color:#DBE8F9"/>
				<stop  offset="1" style="stop-color:#A8C8ED"/>
			</linearGradient>
			<path class="st17" d="M708.8,177.1c-63,41-137.1,104.7-208.4,179.4S368.7,508.3,330.8,573c-38.1,65.1-49.2,110.3-31.3,127.4
				c5.1,4.9,12.5,7.3,21.7,7.3c1.3,0,2.7-0.1,4.1-0.2c0.3-0.4,0.5-0.8,0.8-1.1c-11.4,0.9-20-1.3-25.8-6.8
				c-17.5-16.7-6.3-61.5,31.5-126c37.9-64.8,98.1-141.6,169.5-216.3c71.4-74.8,145.3-138.4,208.2-179.2
				c45.1-29.2,80.5-44.4,103.5-44.4c9,0,16,2.3,21,7.1c3.8,3.7,6.3,8.6,7.4,14.9c0.3-0.3,0.6-0.5,1-0.8c-1.2-6.2-3.7-11.2-7.6-14.9
				C816.8,122.8,772,136.1,708.8,177.1z"/>
			
				<linearGradient id="SVGID_18_" gradientUnits="userSpaceOnUse" x1="-572.5851" y1="10516.9883" x2="-20.6945" y2="10516.9883" gradientTransform="matrix(-1 0 0 1 270.3999 -10096.7959)">
				<stop  offset="0" style="stop-color:#1F3683"/>
				<stop  offset="1" style="stop-color:#0F0038"/>
			</linearGradient>
			<path class="st18" d="M708.8,177.1c-63,41-137.1,104.7-208.4,179.4S368.7,508.3,330.8,573c-38.1,65.1-49.2,110.3-31.3,127.4
				c5.1,4.9,12.5,7.3,21.7,7.3c1.3,0,2.7-0.1,4.1-0.2c0.3-0.4,0.5-0.8,0.8-1.1c-11.4,0.9-20-1.3-25.8-6.8
				c-17.5-16.7-6.3-61.5,31.5-126c37.9-64.8,98.1-141.6,169.5-216.3c71.4-74.8,145.3-138.4,208.2-179.2
				c45.1-29.2,80.5-44.4,103.5-44.4c9,0,16,2.3,21,7.1c3.8,3.7,6.3,8.6,7.4,14.9c0.3-0.3,0.6-0.5,1-0.8c-1.2-6.2-3.7-11.2-7.6-14.9
				C816.8,122.8,772,136.1,708.8,177.1z"/>
			
				<linearGradient id="SVGID_19_" gradientUnits="userSpaceOnUse" x1="4996.1895" y1="5671.0928" x2="4996.1895" y2="6876.9331" gradientTransform="matrix(-0.6906 0.7233 0.7233 0.6906 -333.9155 -7348.1753)">
				<stop  offset="0" style="stop-color:#DBE8F9"/>
				<stop  offset="1" style="stop-color:#A8C8ED"/>
			</linearGradient>
			<path class="st19" d="M730.7,154.8C660.6,200.4,578,271.4,498.5,354.7c-79.5,83.4-146.6,169.1-189,241.3
				c-42.5,72.5-54.8,122.8-34.9,141.8c5.7,5.5,13.9,8.1,24.1,8.1c0.1,0,0.2,0,0.4,0c0.2-0.4,0.5-0.7,0.7-1.1c-0.3,0-0.7,0-1,0
				c-10.1,0-17.9-2.6-23.4-7.9c-19.5-18.6-7.1-68.6,35.1-140.5c42.3-72.2,109.3-157.8,188.8-241
				c141.4-148.2,284.8-249.1,347.4-249.1c10,0,17.8,2.6,23.4,7.9c3.4,3.3,5.8,7.5,7.3,12.6c0.3-0.2,0.6-0.5,0.9-0.7
				c-1.5-5.1-4-9.4-7.5-12.7C850.8,94.4,801.1,109.1,730.7,154.8z"/>
			
				<linearGradient id="SVGID_20_" gradientUnits="userSpaceOnUse" x1="-609.7123" y1="10522.3828" x2="5.0273" y2="10522.3828" gradientTransform="matrix(-1 0 0 1 270.3999 -10096.7959)">
				<stop  offset="0" style="stop-color:#1F3683"/>
				<stop  offset="1" style="stop-color:#0F0038"/>
			</linearGradient>
			<path class="st20" d="M730.7,154.8C660.6,200.4,578,271.4,498.5,354.7c-79.5,83.4-146.6,169.1-189,241.3
				c-42.5,72.5-54.8,122.8-34.9,141.8c5.7,5.5,13.9,8.1,24.1,8.1c0.1,0,0.2,0,0.4,0c0.2-0.4,0.5-0.7,0.7-1.1c-0.3,0-0.7,0-1,0
				c-10.1,0-17.9-2.6-23.4-7.9c-19.5-18.6-7.1-68.6,35.1-140.5c42.3-72.2,109.3-157.8,188.8-241
				c141.4-148.2,284.8-249.1,347.4-249.1c10,0,17.8,2.6,23.4,7.9c3.4,3.3,5.8,7.5,7.3,12.6c0.3-0.2,0.6-0.5,0.9-0.7
				c-1.5-5.1-4-9.4-7.5-12.7C850.8,94.4,801.1,109.1,730.7,154.8z"/>
			
				<linearGradient id="SVGID_21_" gradientUnits="userSpaceOnUse" x1="4996.1899" y1="5671.0928" x2="4996.1899" y2="6876.9331" gradientTransform="matrix(-0.6906 0.7233 0.7233 0.6906 -333.9155 -7348.1753)">
				<stop  offset="0" style="stop-color:#DBE8F9"/>
				<stop  offset="1" style="stop-color:#A8C8ED"/>
			</linearGradient>
			<path class="st21" d="M755.4,129.5c-78.1,51-170.1,130.4-258.8,223.4S332.8,541.3,285.4,621.7c-47.5,80.6-61.7,136.6-39.8,157.5
				c6.1,5.8,14.8,8.7,25.8,8.8c0.2-0.4,0.5-0.8,0.7-1.1c-11.1,0.1-19.7-2.8-25.7-8.5c-10.8-10.4-12.7-29.5-5.4-57
				c7.1-26.7,22.3-60,45.4-99.1c47.3-80.3,122.3-175.7,211-268.6S677.9,181.5,756,130.5c37.9-24.8,70.5-41.6,96.9-49.8
				c12.3-3.9,22.9-5.8,31.9-5.8c10.9,0,19.3,2.8,25.3,8.5c3.4,3.3,5.9,7.4,7.6,12.5c0.3-0.2,0.6-0.5,0.9-0.7
				c-1.7-5-4.2-9.3-7.7-12.6C888.8,61.6,833.7,78.3,755.4,129.5z"/>
			
				<linearGradient id="SVGID_22_" gradientUnits="userSpaceOnUse" x1="-650.4429" y1="10527.6416" x2="34.8461" y2="10527.6416" gradientTransform="matrix(-1 0 0 1 270.3999 -10096.7959)">
				<stop  offset="0" style="stop-color:#1F3683"/>
				<stop  offset="1" style="stop-color:#0F0038"/>
			</linearGradient>
			<path class="st22" d="M755.4,129.5c-78.1,51-170.1,130.4-258.8,223.4S332.8,541.3,285.4,621.7c-47.5,80.6-61.7,136.6-39.8,157.5
				c6.1,5.8,14.8,8.7,25.8,8.8c0.2-0.4,0.5-0.8,0.7-1.1c-11.1,0.1-19.7-2.8-25.7-8.5c-10.8-10.4-12.7-29.5-5.4-57
				c7.1-26.7,22.3-60,45.4-99.1c47.3-80.3,122.3-175.7,211-268.6S677.9,181.5,756,130.5c37.9-24.8,70.5-41.6,96.9-49.8
				c12.3-3.9,22.9-5.8,31.9-5.8c10.9,0,19.3,2.8,25.3,8.5c3.4,3.3,5.9,7.4,7.6,12.5c0.3-0.2,0.6-0.5,0.9-0.7
				c-1.7-5-4.2-9.3-7.7-12.6C888.8,61.6,833.7,78.3,755.4,129.5z"/>
			
				<linearGradient id="SVGID_23_" gradientUnits="userSpaceOnUse" x1="4996.1597" y1="5671.0928" x2="4996.1597" y2="6876.9331" gradientTransform="matrix(-0.6906 0.7233 0.7233 0.6906 -333.9155 -7348.1753)">
				<stop  offset="0" style="stop-color:#DBE8F9"/>
				<stop  offset="1" style="stop-color:#A8C8ED"/>
			</linearGradient>
			<path class="st23" d="M783.4,101.5c-87,57.2-189.6,145.8-288.7,249.6c-99.1,103.8-182.9,210.3-236,299.9
				c-53.2,89.8-69.2,152-45,175.1c6.5,6.2,15.5,9.4,27.1,9.6c0.2-0.4,0.5-0.7,0.7-1.1c-11.6-0.1-20.6-3.3-27-9.3
				c-12-11.5-13.9-32.8-5.7-63.4c8-29.7,25.1-66.9,50.8-110.3c53-89.5,136.9-196,235.8-299.7c176.9-185.3,355.5-312,432.1-312
				c11.9,0,21.3,3,27.9,9.4c3.5,3.3,6.1,7.5,7.9,12.5c0.3-0.2,0.6-0.5,0.9-0.7c-1.8-5-4.5-9.2-8-12.6
				C932,25.3,870.6,44.2,783.4,101.5z"/>
			
				<linearGradient id="SVGID_24_" gradientUnits="userSpaceOnUse" x1="-696.8459" y1="10534.0508" x2="67.7957" y2="10534.0508" gradientTransform="matrix(-1 0 0 1 270.3999 -10096.7959)">
				<stop  offset="0" style="stop-color:#1F3683"/>
				<stop  offset="1" style="stop-color:#0F0038"/>
			</linearGradient>
			<path class="st24" d="M783.4,101.5c-87,57.2-189.6,145.8-288.7,249.6c-99.1,103.8-182.9,210.3-236,299.9
				c-53.2,89.8-69.2,152-45,175.1c6.5,6.2,15.5,9.4,27.1,9.6c0.2-0.4,0.5-0.7,0.7-1.1c-11.6-0.1-20.6-3.3-27-9.3
				c-12-11.5-13.9-32.8-5.7-63.4c8-29.7,25.1-66.9,50.8-110.3c53-89.5,136.9-196,235.8-299.7c176.9-185.3,355.5-312,432.1-312
				c11.9,0,21.3,3,27.9,9.4c3.5,3.3,6.1,7.5,7.9,12.5c0.3-0.2,0.6-0.5,0.9-0.7c-1.8-5-4.5-9.2-8-12.6
				C932,25.3,870.6,44.2,783.4,101.5z"/>
			
				<linearGradient id="SVGID_25_" gradientUnits="userSpaceOnUse" x1="4996.1729" y1="5671.0928" x2="4996.1729" y2="6876.9331" gradientTransform="matrix(-0.6906 0.7233 0.7233 0.6906 -333.9155 -7348.1753)">
				<stop  offset="0" style="stop-color:#DBE8F9"/>
				<stop  offset="1" style="stop-color:#A8C8ED"/>
			</linearGradient>
			<path class="st25" d="M815.4,69.6c-97.7,63.8-212.5,162.8-323.5,278.9c-110.8,116.1-204.5,235.4-263.6,336
				c-59.3,100.7-76.9,170.6-49.4,196.8c6.6,6.3,15.6,9.9,26.9,10.8c0.2-0.4,0.4-0.7,0.7-1.1c-11.2-0.8-20.1-4.3-26.7-10.6
				c-56.1-53.3,84.4-291.7,313-531.1C603.5,233.2,718.3,134.2,816,70.5c47.4-31,88.2-51.8,121.2-62.2c34-10.6,58.1-9.4,71.8,3.6
				c3.3,3.1,5.9,7,7.9,11.4c0.3-0.2,0.6-0.4,0.9-0.7c-2-4.5-4.7-8.3-8.1-11.6C982.2-15.1,913.2,5.7,815.4,69.6z"/>
			
				<linearGradient id="SVGID_26_" gradientUnits="userSpaceOnUse" x1="-751.8831" y1="10542.8174" x2="104.2152" y2="10542.8174" gradientTransform="matrix(-1 0 0 1 270.3999 -10096.7959)">
				<stop  offset="0" style="stop-color:#1F3683"/>
				<stop  offset="1" style="stop-color:#0F0038"/>
			</linearGradient>
			<path class="st26" d="M815.4,69.6c-97.7,63.8-212.5,162.8-323.5,278.9c-110.8,116.1-204.5,235.4-263.6,336
				c-59.3,100.7-76.9,170.6-49.4,196.8c6.6,6.3,15.6,9.9,26.9,10.8c0.2-0.4,0.4-0.7,0.7-1.1c-11.2-0.8-20.1-4.3-26.7-10.6
				c-56.1-53.3,84.4-291.7,313-531.1C603.5,233.2,718.3,134.2,816,70.5c47.4-31,88.2-51.8,121.2-62.2c34-10.6,58.1-9.4,71.8,3.6
				c3.3,3.1,5.9,7,7.9,11.4c0.3-0.2,0.6-0.4,0.9-0.7c-2-4.5-4.7-8.3-8.1-11.6C982.2-15.1,913.2,5.7,815.4,69.6z"/>
			
				<linearGradient id="SVGID_27_" gradientUnits="userSpaceOnUse" x1="5061.7295" y1="5671.0928" x2="5061.7295" y2="6876.9331" gradientTransform="matrix(-0.6906 0.7233 0.7233 0.6906 -333.9155 -7348.1753)">
				<stop  offset="0" style="stop-color:#DBE8F9"/>
				<stop  offset="1" style="stop-color:#A8C8ED"/>
			</linearGradient>
			<path class="st27" d="M129.5,870.6c9.5-38.4,30.7-86,63-141.7C258.9,614.2,364.7,478.7,490.4,347S746.8,103.4,858.1,31.7
				c18.6-12,36.4-22.6,53.2-31.8h-2.3c-16.2,9-33.4,19.3-51.4,30.9c-111.4,71.7-242.1,183.7-367.9,315.5
				C363.7,478,257.9,613.6,191.5,728.3c-52.4,90.4-75.4,159.3-67.1,199.5h1.1C122.4,912.8,123.7,893.7,129.5,870.6z"/>
			
				<linearGradient id="SVGID_28_" gradientUnits="userSpaceOnUse" x1="-825.1141" y1="10560.6465" x2="147.689" y2="10560.6465" gradientTransform="matrix(-1 0 0 1 270.3999 -10096.7959)">
				<stop  offset="0" style="stop-color:#1F3683"/>
				<stop  offset="1" style="stop-color:#0F0038"/>
			</linearGradient>
			<path class="st28" d="M129.5,870.6c9.5-38.4,30.7-86,63-141.7C258.9,614.2,364.7,478.7,490.4,347S746.8,103.4,858.1,31.7
				c18.6-12,36.4-22.6,53.2-31.8h-2.3c-16.2,9-33.4,19.3-51.4,30.9c-111.4,71.7-242.1,183.7-367.9,315.5
				C363.7,478,257.9,613.6,191.5,728.3c-52.4,90.4-75.4,159.3-67.1,199.5h1.1C122.4,912.8,123.7,893.7,129.5,870.6z"/>
			
				<linearGradient id="SVGID_29_" gradientUnits="userSpaceOnUse" x1="5079.6255" y1="5671.0928" x2="5079.6255" y2="6876.9331" gradientTransform="matrix(-0.6906 0.7233 0.7233 0.6906 -333.9155 -7348.1753)">
				<stop  offset="0" style="stop-color:#DBE8F9"/>
				<stop  offset="1" style="stop-color:#A8C8ED"/>
			</linearGradient>
			<path class="st29" d="M893.1-0.1h-2.2C767.4,78.3,624.3,200.3,487.1,344C347.6,490.1,230.8,641.4,158.3,769.9
				c-35.1,62.2-57.7,115.4-67.5,157.9h1.3C122.6,796.9,273,570,488,344.8C630.1,195.9,774.3,75.2,893.1-0.1z"/>
			
				<linearGradient id="SVGID_30_" gradientUnits="userSpaceOnUse" x1="-897.6956" y1="10560.6465" x2="185.282" y2="10560.6465" gradientTransform="matrix(-1 0 0 1 270.3999 -10096.7959)">
				<stop  offset="0" style="stop-color:#1F3683"/>
				<stop  offset="1" style="stop-color:#0F0038"/>
			</linearGradient>
			<path class="st30" d="M893.1-0.1h-2.2C767.4,78.3,624.3,200.3,487.1,344C347.6,490.1,230.8,641.4,158.3,769.9
				c-35.1,62.2-57.7,115.4-67.5,157.9h1.3C122.6,796.9,273,570,488,344.8C630.1,195.9,774.3,75.2,893.1-0.1z"/>
			
				<linearGradient id="SVGID_31_" gradientUnits="userSpaceOnUse" x1="5089.6733" y1="5671.0928" x2="5089.6733" y2="6876.9331" gradientTransform="matrix(-0.6906 0.7233 0.7233 0.6906 -333.9155 -7348.1753)">
				<stop  offset="0" style="stop-color:#DBE8F9"/>
				<stop  offset="1" style="stop-color:#A8C8ED"/>
			</linearGradient>
			<path class="st31" d="M484,342.9C620.7,199.8,760.1,81.3,881.7-0.2h-2.2c-125.3,84-263.7,203.4-396.3,342.3
				C329.8,502.9,202.6,670.3,125.3,813.8c-22.4,41.5-39.9,79.6-52.3,114h1.2c12.5-34.3,29.9-72.2,52.1-113.4
				C203.6,670.9,330.6,503.6,484,342.9z"/>
			
				<linearGradient id="SVGID_32_" gradientUnits="userSpaceOnUse" x1="-976.3615" y1="10560.5967" x2="220.2429" y2="10560.5967" gradientTransform="matrix(-1 0 0 1 270.3999 -10096.7959)">
				<stop  offset="0" style="stop-color:#1F3683"/>
				<stop  offset="1" style="stop-color:#0F0038"/>
			</linearGradient>
			<path class="st32" d="M484,342.9C620.7,199.8,760.1,81.3,881.7-0.2h-2.2c-125.3,84-263.7,203.4-396.3,342.3
				C329.8,502.9,202.6,670.3,125.3,813.8c-22.4,41.5-39.9,79.6-52.3,114h1.2c12.5-34.3,29.9-72.2,52.1-113.4
				C203.6,670.9,330.6,503.6,484,342.9z"/>
			
				<linearGradient id="SVGID_33_" gradientUnits="userSpaceOnUse" x1="5100.9287" y1="5671.0928" x2="5100.9287" y2="6876.9331" gradientTransform="matrix(-0.6906 0.7233 0.7233 0.6906 -333.9155 -7348.1753)">
				<stop  offset="0" style="stop-color:#DBE8F9"/>
				<stop  offset="1" style="stop-color:#A8C8ED"/>
			</linearGradient>
			<path class="st33" d="M867.5-0.1h-2.2C741.6,88.8,609.1,205.7,481.8,339C312.4,516.5,172.2,702,87.5,861.2
				c-12.4,23.1-23.2,45.4-32.8,66.6h1.4c73.4-162.8,225.4-377.3,426.6-588C613.4,202.8,746.6,86.6,867.5-0.1z"/>
			
				<linearGradient id="SVGID_34_" gradientUnits="userSpaceOnUse" x1="-1060.3408" y1="10560.6465" x2="264.133" y2="10560.6465" gradientTransform="matrix(-1 0 0 1 270.3999 -10096.7959)">
				<stop  offset="0" style="stop-color:#1F3683"/>
				<stop  offset="1" style="stop-color:#0F0038"/>
			</linearGradient>
			<path class="st34" d="M867.5-0.1h-2.2C741.6,88.8,609.1,205.7,481.8,339C312.4,516.5,172.2,702,87.5,861.2
				c-12.4,23.1-23.2,45.4-32.8,66.6h1.4c73.4-162.8,225.4-377.3,426.6-588C613.4,202.8,746.6,86.6,867.5-0.1z"/>
			
				<linearGradient id="SVGID_35_" gradientUnits="userSpaceOnUse" x1="5110.2197" y1="5671.0928" x2="5110.2197" y2="6876.9331" gradientTransform="matrix(-0.6906 0.7233 0.7233 0.6906 -333.9155 -7348.1753)">
				<stop  offset="0" style="stop-color:#DBE8F9"/>
				<stop  offset="1" style="stop-color:#A8C8ED"/>
			</linearGradient>
			<path class="st35" d="M480.2,337.4C604.2,207.5,732.9,92.2,855.7-0.1h-1.9C731.4,92,603.1,207.1,479.5,336.6
				C292.8,532.2,139.1,737.1,46.8,913.4c-2.5,4.8-5,9.6-7.4,14.3h1.3c2.3-4.6,4.7-9.2,7.1-13.8C140,737.7,293.6,532.9,480.2,337.4z"
				/>
			
				<linearGradient id="SVGID_36_" gradientUnits="userSpaceOnUse" x1="-1151.5476" y1="10560.5967" x2="310.5326" y2="10560.5967" gradientTransform="matrix(-1 0 0 1 270.3999 -10096.7959)">
				<stop  offset="0" style="stop-color:#1F3683"/>
				<stop  offset="1" style="stop-color:#0F0038"/>
			</linearGradient>
			<path class="st36" d="M480.2,337.4C604.2,207.5,732.9,92.2,855.7-0.1h-1.9C731.4,92,603.1,207.1,479.5,336.6
				C292.8,532.2,139.1,737.1,46.8,913.4c-2.5,4.8-5,9.6-7.4,14.3h1.3c2.3-4.6,4.7-9.2,7.1-13.8C140,737.7,293.6,532.9,480.2,337.4z"
				/>
			
				<linearGradient id="SVGID_37_" gradientUnits="userSpaceOnUse" x1="5118.7871" y1="5671.0928" x2="5118.7871" y2="6876.9331" gradientTransform="matrix(-0.6906 0.7233 0.7233 0.6906 -333.9155 -7348.1753)">
				<stop  offset="0" style="stop-color:#DBE8F9"/>
				<stop  offset="1" style="stop-color:#A8C8ED"/>
			</linearGradient>
			<path class="st37" d="M477.7,334.8C581.5,226.1,688.5,126.6,795.7,39.1c16.5-13.5,32.9-26.6,49.2-39.3h-1.8
				c-15.9,12.5-32,25.2-48.1,38.4c-107.3,87.5-214.3,187-318.2,295.8C373,442.8,278.5,554.3,196.1,665.5
				C128.3,757.1,71,845,25.3,927.7h1.3C72.2,845.2,129.3,757.5,197,666.2C279.4,555.1,373.8,443.6,477.7,334.8z"/>
			
				<linearGradient id="SVGID_38_" gradientUnits="userSpaceOnUse" x1="-1251.0835" y1="10560.5469" x2="361.1362" y2="10560.5469" gradientTransform="matrix(-1 0 0 1 270.3999 -10096.7959)">
				<stop  offset="0" style="stop-color:#1F3683"/>
				<stop  offset="1" style="stop-color:#0F0038"/>
			</linearGradient>
			<path class="st38" d="M477.7,334.8C581.5,226.1,688.5,126.6,795.7,39.1c16.5-13.5,32.9-26.6,49.2-39.3h-1.8
				c-15.9,12.5-32,25.2-48.1,38.4c-107.3,87.5-214.3,187-318.2,295.8C373,442.8,278.5,554.3,196.1,665.5
				C128.3,757.1,71,845,25.3,927.7h1.3C72.2,845.2,129.3,757.5,197,666.2C279.4,555.1,373.8,443.6,477.7,334.8z"/>
			
				<linearGradient id="SVGID_39_" gradientUnits="userSpaceOnUse" x1="5126.1899" y1="5671.0928" x2="5126.1899" y2="6876.9331" gradientTransform="matrix(-0.6906 0.7233 0.7233 0.6906 -333.9155 -7348.1753)">
				<stop  offset="0" style="stop-color:#DBE8F9"/>
				<stop  offset="1" style="stop-color:#A8C8ED"/>
			</linearGradient>
			<path class="st39" d="M474.4,331.7C586.8,214,702.8,106.7,819.4,12.5c5.2-4.2,10.5-8.4,15.6-12.6h-1.8
				c-4.9,3.9-9.7,7.8-14.6,11.7C702,105.8,586,213.2,473.6,330.9S259.2,569.7,170.4,690.5C110.2,772.4,57.9,851.8,14.1,927.8h1.3
				c43.8-75.7,96-154.9,156-236.6C260.1,570.4,362,449.4,474.4,331.7z"/>
			
				<linearGradient id="SVGID_40_" gradientUnits="userSpaceOnUse" x1="-1345.5978" y1="10560.6465" x2="404.5951" y2="10560.6465" gradientTransform="matrix(-1 0 0 1 270.3999 -10096.7959)">
				<stop  offset="0" style="stop-color:#1F3683"/>
				<stop  offset="1" style="stop-color:#0F0038"/>
			</linearGradient>
			<path class="st40" d="M474.4,331.7C586.8,214,702.8,106.7,819.4,12.5c5.2-4.2,10.5-8.4,15.6-12.6h-1.8
				c-4.9,3.9-9.7,7.8-14.6,11.7C702,105.8,586,213.2,473.6,330.9S259.2,569.7,170.4,690.5C110.2,772.4,57.9,851.8,14.1,927.8h1.3
				c43.8-75.7,96-154.9,156-236.6C260.1,570.4,362,449.4,474.4,331.7z"/>
		</g>
		<g>
			
				<linearGradient id="SVGID_41_" gradientUnits="userSpaceOnUse" x1="-1650.73" y1="-1589.2823" x2="-1650.73" y2="-1438.1068" gradientTransform="matrix(0.6906 -0.7233 -0.7233 -0.6906 604.3154 -1828.6184)">
				<stop  offset="0" style="stop-color:#2A49F9"/>
				<stop  offset="1" style="stop-color:#3A3981"/>
			</linearGradient>
			<path class="st41" d="M778.3,179.3c28.3,27-47.3,152.1-168.9,279.4S366.3,667.2,338.1,640.2c-28.3-27,47.3-152.1,168.9-279.4
				S750,152.3,778.3,179.3z"/>
			<g>
				<g>
					<g>
						
							<image style="overflow:visible;enable-background:new    ;" width="321" height="317" xlink:href="8CD24FC47892A0FC.png"  transform="matrix(0.234 0 0 0.234 358.6897 562.3448)">
						</image>
					</g>
					<circle class="st42" cx="396.2" cy="599.5" r="1.5"/>
				</g>
				<g>
					<g>
						
							<image style="overflow:visible;enable-background:new    ;" width="317" height="321" xlink:href="8CD24FC47892A0FD.png"  transform="matrix(0.234 0 0 0.234 432.1219 444.8951)">
						</image>
					</g>
					<circle class="st42" cx="469.2" cy="482.3" r="1.5"/>
				</g>
				<g>
					<g>
						
							<image style="overflow:visible;enable-background:new    ;" width="317" height="321" xlink:href="8CD24FC47892A0FB.png"  transform="matrix(0.234 0 0 0.234 673.5015 184.8557)">
						</image>
					</g>
					<circle class="st42" cx="710.6" cy="222.4" r="1.5"/>
				</g>
				<g>
					<g>
						
							<image style="overflow:visible;enable-background:new    ;" width="317" height="321" xlink:href="8CD24FC47892A104.png"  transform="matrix(0.234 0 0 0.234 652.928 299.4453)">
						</image>
					</g>
					<circle class="st42" cx="690" cy="337" r="1.5"/>
				</g>
				<g>
					<g>
						
							<image style="overflow:visible;enable-background:new    ;" width="321" height="317" xlink:href="8CD24FC47892A107.png"  transform="matrix(0.234 0 0 0.234 386.6793 486.0316)">
						</image>
					</g>
					<circle class="st42" cx="424.3" cy="523.2" r="1.5"/>
				</g>
				<g>
					<g>
						
							<image style="overflow:visible;enable-background:new    ;" width="317" height="321" xlink:href="8CD24FC47892A105.png"  transform="matrix(0.234 0 0 0.234 422.4332 475.7552)">
						</image>
					</g>
					<circle class="st42" cx="459.5" cy="513.3" r="1.5"/>
				</g>
				<g>
					<g>
						
							<image style="overflow:visible;enable-background:new    ;" width="321" height="317" xlink:href="8CD24FC47892A10B.png"  transform="matrix(0.2333 0 0 0.2333 313.9543 578.4912)">
						</image>
					</g>
					<circle class="st42" cx="351.4" cy="615.4" r="1.5"/>
				</g>
				<g>
					<g>
						
							<image style="overflow:visible;enable-background:new    ;" width="321" height="321" xlink:href="8CD24FC47892A10C.png"  transform="matrix(0.234 0 0 0.234 546.0042 268.3458)">
						</image>
					</g>
					<circle class="st42" cx="583.5" cy="305.9" r="1.5"/>
				</g>
				<g>
					<g>
						
							<image style="overflow:visible;enable-background:new    ;" width="317" height="317" xlink:href="8CD24FC47892A10F.png"  transform="matrix(0.2362 0 0 0.2362 599.2321 265.4751)">
						</image>
					</g>
					<circle class="st42" cx="636.6" cy="302.9" r="1.5"/>
				</g>
				<g>
					<g>
						
							<image style="overflow:visible;enable-background:new    ;" width="317" height="317" xlink:href="5A6587656D3144CB.png"  transform="matrix(0.2362 0 0 0.2362 645.4028 196.3386)">
						</image>
					</g>
					<circle class="st42" cx="682.9" cy="233.7" r="1.5"/>
				</g>
				<g>
					<g>
						
							<image style="overflow:visible;enable-background:new    ;" width="317" height="317" xlink:href="5A6587656D3144C9.png"  transform="matrix(0.237 0 0 0.237 536.6743 313.0811)">
						</image>
					</g>
					<circle class="st42" cx="574.2" cy="350.7" r="1.5"/>
				</g>
				<g>
					<g>
						
							<image style="overflow:visible;enable-background:new    ;" width="325" height="325" xlink:href="5A6587656D3144CF.png"  transform="matrix(0.2355 0 0 0.2355 433.0892 514.5099)">
						</image>
					</g>
					<circle class="st42" cx="471.4" cy="552.7" r="2.3"/>
				</g>
				<g>
					<g>
						
							<image style="overflow:visible;enable-background:new    ;" width="325" height="325" xlink:href="5A6587656D3144CA.png"  transform="matrix(0.2355 0 0 0.2355 709.3959 233.6579)">
						</image>
					</g>
					<circle class="st42" cx="747.7" cy="271.9" r="2.3"/>
				</g>
				<g>
					<g>
						
							<image style="overflow:visible;enable-background:new    ;" width="321" height="321" xlink:href="5A6587656D3144D5.png"  transform="matrix(0.2385 0 0 0.2385 596.2418 323.6071)">
						</image>
					</g>
					<circle class="st42" cx="634.4" cy="361.8" r="2.3"/>
				</g>
				<g>
					<g>
						
							<image style="overflow:visible;enable-background:new    ;" width="333" height="333" xlink:href="5A6587656D3144D6.png"  transform="matrix(0.2356 0 0 0.2356 477.3461 475.6356)">
						</image>
					</g>
					<circle class="st42" cx="516.5" cy="514.8" r="3.3"/>
				</g>
			</g>
		</g>
	</g>
</g>
<g id="Capa_3" class="st43">
	<g class="st44">
		<g>
			<g>
				
					<linearGradient id="SVGID_42_" gradientUnits="userSpaceOnUse" x1="3223.8804" y1="7578.2788" x2="3257.1858" y2="7578.2788" gradientTransform="matrix(-0.7984 0.6021 0.6021 0.7984 -2310.6089 -8575.4502)">
					<stop  offset="0" style="stop-color:#DBE8F9"/>
					<stop  offset="1" style="stop-color:#A8C8ED"/>
				</linearGradient>
				<path class="st45" d="M-340.8-581.6c0.6-0.4,1.2-0.8,1.8-1.1c3.8-1.8,9-1.4,14.9,1.3c4.4,2,7.7,4.5,7.8,4.6
					c0.3,0.2,0.3,0.6,0.1,0.9c-0.2,0.3-0.6,0.3-0.9,0.1c-0.1-0.1-13-9.8-21.4-5.8c-4.7,2.3-7.3,8.5-7.5,18.6c0,0.4-0.3,0.7-0.7,0.6
					c-0.4,0-0.7-0.3-0.6-0.7C-347.1-572.3-344.9-578.5-340.8-581.6z"/>
			</g>
			<g>
				
					<linearGradient id="SVGID_43_" gradientUnits="userSpaceOnUse" x1="3221.0847" y1="7591.6099" x2="3255.4146" y2="7591.6099" gradientTransform="matrix(-0.7984 0.6021 0.6021 0.7984 -2310.6089 -8575.4502)">
					<stop  offset="0" style="stop-color:#DBE8F9"/>
					<stop  offset="1" style="stop-color:#A8C8ED"/>
				</linearGradient>
				<path class="st46" d="M-326.7-574.4c5.6-4.2,12-4.2,12.3-4.2c0.4,0,0.7,0.3,0.7,0.7s-0.3,0.7-0.7,0.7c-0.1,0-8.6,0-14.2,6.4
					c-4.3,5-5.7,12.6-4.1,22.5c0.1,0.4-0.2,0.7-0.6,0.8c-0.4,0.1-0.7-0.2-0.8-0.6c-1.7-10.3-0.2-18.2,4.4-23.6
					C-328.7-572.8-327.7-573.7-326.7-574.4z"/>
			</g>
			
				<linearGradient id="SVGID_44_" gradientUnits="userSpaceOnUse" x1="127.9432" y1="6720.835" x2="132.0959" y2="6720.835" gradientTransform="matrix(-0.9603 0.2791 0.2791 0.9603 -2083.6406 -7036.1694)">
				<stop  offset="0" style="stop-color:#E9EAEC"/>
				<stop  offset="1" style="stop-color:#BEBFC5"/>
			</linearGradient>
			<path class="st47" d="M-333.6-549.9L-333.6-549.9c1.1-0.3,2.3,0.3,2.6,1.4l1.1,3.9c0.3,1.1-0.3,2.3-1.4,2.6l0,0
				c-1.1,0.3-2.3-0.3-2.6-1.4l-1.1-3.9C-335.4-548.5-334.7-549.6-333.6-549.9z"/>
			
				<linearGradient id="SVGID_45_" gradientUnits="userSpaceOnUse" x1="-2221.0886" y1="5027.7979" x2="-2216.936" y2="5027.7979" gradientTransform="matrix(-0.9992 -4.007399e-02 -4.007399e-02 0.9992 -2362.4475 -5672.7476)">
				<stop  offset="0" style="stop-color:#E9EAEC"/>
				<stop  offset="1" style="stop-color:#BEBFC5"/>
			</linearGradient>
			<path class="st48" d="M-346.6-564.2L-346.6-564.2c1.1,0,2,1,2,2.2l-0.2,4.1c0,1.1-1,2-2.2,2l0,0c-1.1,0-2-1-2-2.2l0.2-4.1
				C-348.7-563.4-347.7-564.3-346.6-564.2z"/>
		</g>
		<g>
			
				<linearGradient id="SVGID_46_" gradientUnits="userSpaceOnUse" x1="-2356.1426" y1="-554.4962" x2="-2301.0005" y2="-554.4962" gradientTransform="matrix(0.9993 3.727137e-02 3.727137e-02 -0.9993 2070.719 -1059.6313)">
				<stop  offset="0" style="stop-color:#EAC29C"/>
				<stop  offset="1" style="stop-color:#DF9C74"/>
			</linearGradient>
			<path class="st49" d="M-305.3-571.2c0,0,16.6,10.8,21.2,15.3c4.6,4.5,16.7,6.3,16.7,6.3s18.4-59.3,18.7-60.1
				c0.4-0.8-5-21.5-5-21.5l-10.6-3L-305.3-571.2z"/>
			<g>
				<g>
					
						<linearGradient id="SVGID_47_" gradientUnits="userSpaceOnUse" x1="7916.645" y1="-5582.4341" x2="7967.7427" y2="-5582.4341" gradientTransform="matrix(0.9765 -0.2154 0.2154 0.9765 -6983.6113 6237.5254)">
						<stop  offset="0" style="stop-color:#DAE7F8"/>
						<stop  offset="1" style="stop-color:#A7C7EC"/>
					</linearGradient>
					<path class="st50" d="M-435.2-892.3c0,0-32-22.1-22-68.2c0,0,43.3,25.1,56.8,54.1c0,0-8.3,19.7-14.2,20.3
						C-420.5-885.6-435.2-892.3-435.2-892.3z"/>
					
						<linearGradient id="SVGID_48_" gradientUnits="userSpaceOnUse" x1="7915.8799" y1="-5533.7749" x2="7950.1724" y2="-5533.7749" gradientTransform="matrix(0.9765 -0.2154 0.2154 0.9765 -6983.6113 6237.5254)">
						<stop  offset="0" style="stop-color:#E4977C"/>
						<stop  offset="1" style="stop-color:#B56852"/>
					</linearGradient>
					<path class="st51" d="M-444.2-864.2l9-28.1c0,0,13-5.4,20.8,4l-2.6,29.6L-444.2-864.2z"/>
					<g>
						
							<linearGradient id="SVGID_49_" gradientUnits="userSpaceOnUse" x1="7919.3921" y1="-5582.5488" x2="7963.9482" y2="-5582.5488" gradientTransform="matrix(0.9765 -0.2154 0.2154 0.9765 -6983.6113 6237.5254)">
							<stop  offset="0" style="stop-color:#1F3682"/>
							<stop  offset="1" style="stop-color:#162766"/>
						</linearGradient>
						<path class="st52" d="M-458.8-949.9l-0.2,2.3c32.9,19.2,54.8,48.4,55,48.7l1-1.9C-403.3-901.1-425.6-930.4-458.8-949.9z"/>
					</g>
				</g>
				
					<linearGradient id="SVGID_50_" gradientUnits="userSpaceOnUse" x1="-1996.7678" y1="-2603.0405" x2="-1833.9467" y2="-2603.0405" gradientTransform="matrix(-0.6372 0.7707 0.7707 0.6372 366.9884 2367.1555)">
					<stop  offset="0" style="stop-color:#1F3683"/>
					<stop  offset="1" style="stop-color:#0F0038"/>
				</linearGradient>
				<path class="st53" d="M-361.1-702.1c0,0-62.8-5.4-56.4-30.7c6.5-25.3,26.1-97.9,5.3-121.5c0,0,4.2-11.3-2.4-15.5
					c-6.6-4.2-31.4-14-34,7.9c0,0-35.5,20.8-31.3,71.5S-482.4-638.9-361.1-702.1z"/>
				<g>
					<g>
						
							<linearGradient id="SVGID_51_" gradientUnits="userSpaceOnUse" x1="9574.6006" y1="-2484.9634" x2="9626.4043" y2="-2484.9634" gradientTransform="matrix(0.6752 -0.7376 0.7376 0.6752 -5222.0728 7872.124)">
							<stop  offset="0" style="stop-color:#DAE7F8"/>
							<stop  offset="1" style="stop-color:#A7C7EC"/>
						</linearGradient>
						<path class="st54" d="M-557.9-858.5c0,0-39.2,0.7-57.4-42.3c0,0,50.3-4.8,78.1,10.8c0,0,4.4,20.7-0.2,24.5
							C-541.8-861.6-557.9-858.5-557.9-858.5z"/>
						
							<linearGradient id="SVGID_52_" gradientUnits="userSpaceOnUse" x1="9574.4629" y1="-2436.5312" x2="9608.8564" y2="-2436.5312" gradientTransform="matrix(0.6752 -0.7376 0.7376 0.6752 -5222.0728 7872.124)">
							<stop  offset="0" style="stop-color:#E4977C"/>
							<stop  offset="1" style="stop-color:#B56852"/>
						</linearGradient>
						<path class="st55" d="M-549.2-830.6l-8.6-27.9c0,0,7.7-11.8,19.5-8.8l14.8,25.3L-549.2-830.6z"/>
						<g>
							
								<linearGradient id="SVGID_53_" gradientUnits="userSpaceOnUse" x1="9577.1855" y1="-2484.8425" x2="9622.6973" y2="-2484.8425" gradientTransform="matrix(0.6752 -0.7376 0.7376 0.6752 -5222.0728 7872.124)">
								<stop  offset="0" style="stop-color:#1F3682"/>
								<stop  offset="1" style="stop-color:#162766"/>
							</linearGradient>
							<path class="st56" d="M-610.5-891.2l1.2,1.9c38.3-3.5,73.2,7.4,73.6,7.5l-0.3-2.1C-536.4-884-571.8-894.7-610.5-891.2z"/>
						</g>
					</g>
					
						<linearGradient id="SVGID_54_" gradientUnits="userSpaceOnUse" x1="-2436.0908" y1="-396.5849" x2="-2521.6387" y2="-508.2857" gradientTransform="matrix(0.9993 3.727137e-02 3.727137e-02 -0.9993 2070.719 -1059.6313)">
						<stop  offset="0" style="stop-color:#1F3683"/>
						<stop  offset="1" style="stop-color:#0F0038"/>
					</linearGradient>
					<path class="st57" d="M-300.5-572.6c12.8-13,20.2-36.4,44.5-46.6c7.2-3,11.3-10.7,7.3-17.3c-16.9-27.4-63-80.9-163.1-74.6
						c-6.9,0.4-13.5-2.9-17.2-8.7c-2.9-4.7-6.3-11.8-9.5-22.3c-8.2-26.8-46.1-75.4-66.4-81c-3.3-0.9-6-3.2-7.3-6.3
						c-2.9-6.7-8.1-16.6-13.1-15.5c-7.5,1.6-28,7.2-25.9,18.8c1.5,8.3,4.2,14.7,5.6,17.7c0.6,1.3,1.6,2.7,1,4
						c-8.5,20.6,4.9,38.8,35.3,92.7c35.8,63.5,35,71.2,98,100.1c40.7,18.6,76.6,28.7,86.8,36C-323.4-575.6-309.2-563.6-300.5-572.6z
						"/>
				</g>
				<path class="st58" d="M-328.7-601.2c-1-1.2-1.5-2.6-1.9-4.1c-0.2-0.7-0.3-1.5-0.4-2.3s0-1.5,0-2.3c0.1-0.8,0.1-1.5,0.3-2.3
					c0.2-0.8,0.4-1.5,0.5-2.3c0.2-0.7,0.5-1.4,0.8-2.2l0.2-0.5l0.3-0.5l0.5-1c0.7-1.4,1.6-2.6,2.4-3.9c0.4-0.6,0.9-1.2,1.4-1.8
					s1-1.2,1.5-1.7c1.1-1,2.2-2.1,3.3-3c1.2-0.9,2.4-1.8,3.7-2.5c-0.8,1.3-1.7,2.4-2.6,3.6c-0.9,1.2-1.7,2.4-2.5,3.5
					c-0.8,1.2-1.6,2.4-2.4,3.5l-1.1,1.8c-0.4,0.6-0.7,1.2-1,1.8c-0.7,1.2-1.2,2.5-1.7,3.8c-0.2,0.6-0.4,1.3-0.7,2
					c-0.2,0.7-0.3,1.3-0.5,2c-0.1,0.7-0.2,1.4-0.4,2c-0.1,0.7-0.2,1.4-0.1,2.1C-329.2-604-329.1-602.6-328.7-601.2z"/>
			</g>
		</g>
		<g>
			<g>
				
					<linearGradient id="SVGID_55_" gradientUnits="userSpaceOnUse" x1="-2026.937" y1="-828.4203" x2="-2017.9199" y2="-828.4203" gradientTransform="matrix(0.9993 3.727137e-02 3.727137e-02 -0.9993 2070.719 -1059.6313)">
					<stop  offset="0" style="stop-color:#EAC29C"/>
					<stop  offset="1" style="stop-color:#DF9C74"/>
				</linearGradient>
				<path class="st59" d="M17.6-310.9c0,0-4.6,4.5-3,6.9s5.4-0.9,8.8-3.5C23.3-307.5,22.4-312.6,17.6-310.9z"/>
				
					<linearGradient id="SVGID_56_" gradientUnits="userSpaceOnUse" x1="-2024.157" y1="-833.7337" x2="-2015.4935" y2="-833.7337" gradientTransform="matrix(0.9993 3.727137e-02 3.727137e-02 -0.9993 2070.719 -1059.6313)">
					<stop  offset="0" style="stop-color:#EAC29C"/>
					<stop  offset="1" style="stop-color:#DF9C74"/>
				</linearGradient>
				<path class="st60" d="M19.7-310.9c0,0-1,9.1-2.8,13.6s3,7.6,7.4-0.5C28.7-305.8,19.7-310.9,19.7-310.9z"/>
				
					<linearGradient id="SVGID_57_" gradientUnits="userSpaceOnUse" x1="-2019.0918" y1="-837.9045" x2="-2011.4531" y2="-837.9045" gradientTransform="matrix(0.9993 3.727137e-02 3.727137e-02 -0.9993 2070.719 -1059.6313)">
					<stop  offset="0" style="stop-color:#EAC29C"/>
					<stop  offset="1" style="stop-color:#DF9C74"/>
				</linearGradient>
				<path class="st61" d="M29.4-297.1c0,0-0.9,13.1-5.4,11.5c-4.4-1.6-0.2-16.4-1.6-22.6C20.9-314.4,29.4-297.1,29.4-297.1z"/>
				
					<linearGradient id="SVGID_58_" gradientUnits="userSpaceOnUse" x1="-2122.6353" y1="-674.4175" x2="-2122.6353" y2="-674.4175" gradientTransform="matrix(0.9993 3.727137e-02 3.727137e-02 -0.9993 2070.719 -1059.6313)">
					<stop  offset="0" style="stop-color:#EAC29C"/>
					<stop  offset="1" style="stop-color:#DF9C74"/>
				</linearGradient>
				<path class="st62" d="M-75.6-464.8"/>
				
					<linearGradient id="SVGID_59_" gradientUnits="userSpaceOnUse" x1="-2117.353" y1="-759.0948" x2="-2006.5753" y2="-759.0948" gradientTransform="matrix(0.9993 3.727137e-02 3.727137e-02 -0.9993 2070.719 -1059.6313)">
					<stop  offset="0" style="stop-color:#EAC29C"/>
					<stop  offset="1" style="stop-color:#DF9C74"/>
				</linearGradient>
				<path class="st63" d="M2.6-340.2c0,0,10.3,11.9,17.4,14.7c7.1,2.9,13.5,26.9,13.9,33.8c0.4,6.8-3.6,8.1-5.2,3.2
					c-1.6-4.9-3.8-26.1-22.9-25.4c0,0,3.9,6,6.1,9.5c2.2,3.4-0.3,5.6-3.9,3.1c-3.6-2.5-8.6-9-13.1-11c-4.4-2-9.7-8.1-10.3-14.2
					c-0.6-6.2-5.7-12.3-11-20.1c0,0-36.5-49.6-41.6-65s-2.4-45.5-2.4-45.5l24-12.4l21.4,9.1c0,0-5.6,35.7-2.6,41.2
					C-24.8-414-10.8-364.2,2.6-340.2z"/>
			</g>
			
				<linearGradient id="SVGID_60_" gradientUnits="userSpaceOnUse" x1="-2216.3879" y1="-490.0208" x2="-2192.7966" y2="-703.9998" gradientTransform="matrix(0.9993 3.727137e-02 3.727137e-02 -0.9993 2070.719 -1059.6313)">
				<stop  offset="0" style="stop-color:#F4D85F"/>
				<stop  offset="1" style="stop-color:#ECB543"/>
			</linearGradient>
			<path class="st64" d="M-71-449.1c0,0,27,15.2,45.8-11.2c0,0,14-73.6-31.9-126.2c0,0-26.2-28-99.5-23.7
				c-60.7,3.6-76.4-19.4-80-27.4c-1.3-2.9-3.4-5.4-6.1-7.1c-3-1.8-6.9-2.8-10.1,0.7c-6.5,6.9-19.8,18.8-24.8,35.6
				c-3.2,10.5,3.4,30.3-1.3,42.9c-4.6,12.6-5.6,47.8,7.6,38.1c14.6-10.7,30.8-1.8,48.8,4c4.7,1.5,9.3,3.5,13.7,5.8
				c19.8,10.6,78.2,39,121.6,30.9C-87.2-486.5-70-473.2-71-449.1z"/>
			<path class="st65" d="M-25.2-460.3C-44-433.9-71-449.1-71-449.1c0.9-24.1-16.3-37.4-16.3-37.4s28-3,43.6-24.8
				c0,0-9.9,21.6-18.4,32.8C-70.3-467.7-60.1-442.6-25.2-460.3z"/>
			<path class="st65" d="M-279-565.3c-4.6,12.6-5.6,47.8,7.6,38.1c14.6-10.7,30.8-1.8,48.8,4c4.7,1.5,9.3,3.5,13.7,5.8
				c15.5,8.3,54.8,27.6,92,31.6l-17.4-44.8c0,0,3.1-12.5,16.2-31.5c0,0-10.4,4.7-14,13.2c-3.6,8.5-21.2,22.7-48.3,18.1
				c-27.1-4.6-28.2-4.4-37.8-1.4s-24-13.5-33.7-15.2C-261.7-549.1-279.8-539.4-279-565.3z"/>
			<g>
				
					<linearGradient id="SVGID_61_" gradientUnits="userSpaceOnUse" x1="-2169.5732" y1="-609.2881" x2="-2144.834" y2="-833.6807" gradientTransform="matrix(0.9993 3.727137e-02 3.727137e-02 -0.9993 2070.719 -1059.6313)">
					<stop  offset="0" style="stop-color:#EAC29C"/>
					<stop  offset="1" style="stop-color:#DF9C74"/>
				</linearGradient>
				<path class="st66" d="M-134.3-530.6c0,0-13.6,33.4-15.2,52c-10.8,52.6,34,105.6,31.6,114.3s9,18,16.7,19.9s-0.6,23.8,3.6,25.8
					s7.6-12.5,7.6-12.5s1,7.9-0.6,13.3c-1.5,5.4,1.9,5.9,3.2,4.9c0,0-1,4.7,1.5,5.1c2.5,0.4,8.9-8.1,9.1-18.5c0,0,2.3,6.8,3.1,11.6
					c0.7,4.8,7,5.6,5.2-7.5s-4.7-25.7-10.1-29.7s-19-18.6-19.6-29.4c-0.6-10.3-5.2-47.5-12.3-70.8c0,0-2.1-8.5,3.8-18.7
					s14.2-25,14.2-25S-114.8-502.1-134.3-530.6z"/>
				
					<linearGradient id="SVGID_62_" gradientUnits="userSpaceOnUse" x1="-2392.2412" y1="-1761.6997" x2="-2392.2412" y2="-1761.6997" gradientTransform="matrix(7.246313e-02 0.9974 0.9974 -7.246313e-02 1891.0016 1776.0637)">
					<stop  offset="0" style="stop-color:#EAC29C"/>
					<stop  offset="1" style="stop-color:#DF9C74"/>
				</linearGradient>
				<path class="st67" d="M-39.5-482.3"/>
				<g>
					<path class="st68" d="M-87.3-312.9c0.5-0.8,1-1.7,1.4-2.6s0.8-1.8,1.1-2.7c0.7-1.8,1.3-3.7,1.7-5.6c0.2-1,0.5-1.9,0.6-2.9
						l0.3-1.4c0.1-0.5,0.1-1,0.2-1.5c0.3-1.9,0.4-3.9,0.5-5.9c0.1,1,0.1,2,0.2,3c0,1,0,2-0.1,3c-0.1,2-0.5,3.9-0.9,5.9
						c-0.5,1.9-1.1,3.8-1.9,5.6C-85.1-316.2-86-314.5-87.3-312.9z"/>
					<path class="st68" d="M-76.6-326.3c-0.2-1.6-0.3-3.2-0.3-4.7c0-1.6,0-3.2,0.2-4.8c0.4,1.6,0.6,3.2,0.6,4.7
						C-76.2-329.5-76.3-327.9-76.6-326.3z"/>
					<path class="st68" d="M-90-331.1c0-1.3,0.1-2.5,0.3-3.7c0.1-0.6,0.2-1.2,0.3-1.8c0.1-0.6,0.2-1.2,0.3-1.8
						c0.3,0.6,0.3,1.2,0.3,1.9c0,0.6,0,1.2-0.1,1.9C-89.1-333.4-89.4-332.2-90-331.1z"/>
				</g>
				
					<linearGradient id="SVGID_63_" gradientUnits="userSpaceOnUse" x1="-2296.5667" y1="-1840.6646" x2="-2285.5261" y2="-1840.6646" gradientTransform="matrix(7.246313e-02 0.9974 0.9974 -7.246313e-02 1891.0016 1776.0637)">
					<stop  offset="0" style="stop-color:#1F3683"/>
					<stop  offset="1" style="stop-color:#0F0038"/>
				</linearGradient>
				<path class="st69" d="M-102.3-381.7c0,0-7.3,4.2-18.6,4.1c0,0-0.8,4.6,2.3,7.6c0,0,8.5,1.6,17.9-3.2
					C-100.6-373.3-104.1-376.2-102.3-381.7z"/>
				
					<linearGradient id="SVGID_64_" gradientUnits="userSpaceOnUse" x1="-2301.3372" y1="-1827.5911" x2="-2285.5261" y2="-1827.5911" gradientTransform="matrix(7.246313e-02 0.9974 0.9974 -7.246313e-02 1891.0016 1776.0637)">
					<stop  offset="0" style="stop-color:#EDF0F5"/>
					<stop  offset="1" style="stop-color:#BABABD"/>
				</linearGradient>
				<path class="st70" d="M-94.1-385.8c-0.8-1-2.1-1.3-3.4-1c-2.7,0.8-7.6,2.8-7.1,7.5c0.7,6.5,3.4,8.5,4.9,8.4s7.8-2.2,8-4.7
					C-91.4-377.7-91.1-382.4-94.1-385.8z"/>
				
					<linearGradient id="SVGID_65_" gradientUnits="userSpaceOnUse" x1="-2299.0254" y1="-1827.5155" x2="-2287.8379" y2="-1827.5155" gradientTransform="matrix(7.246313e-02 0.9974 0.9974 -7.246313e-02 1891.0016 1776.0637)">
					<stop  offset="0" style="stop-color:#24000A"/>
					<stop  offset="1" style="stop-color:#050000"/>
				</linearGradient>
				<path class="st71" d="M-95.2-383.8c-0.6-0.7-1.5-0.9-2.4-0.7c-1.9,0.6-5.4,2-5,5.3c0.5,4.6,2.4,6,3.5,5.9s5.5-1.6,5.7-3.3
					C-93.3-378-93.1-381.4-95.2-383.8z"/>
			</g>
			<g>
				
					<linearGradient id="SVGID_66_" gradientUnits="userSpaceOnUse" x1="-2067.1221" y1="-529.9547" x2="-2023.3596" y2="-612.2264" gradientTransform="matrix(0.9993 3.727137e-02 3.727137e-02 -0.9993 2070.719 -1059.6313)">
					<stop  offset="0" style="stop-color:#EAC29C"/>
					<stop  offset="1" style="stop-color:#DF9C74"/>
				</linearGradient>
				<path class="st72" d="M82.7-598.6c0,0-3.2,17.3-7.2,24.9c-4,7.6-10.4,13.8-8.8,30.5c0,0-2.1,3.2-12.2-2.9
					c0,0-23.9,19.6-31.1,15.5c-7.2-4.1-29.5-16.5-49.9-4.2c0,0-20.2,22.6-33.6,26.6c0,0,27.8-50.8,2.9-78.3c0,0,17.9,8.1,34.8,3.4
					S24.6-658.4,82.7-598.6z"/>
				
					<linearGradient id="SVGID_67_" gradientUnits="userSpaceOnUse" x1="-2642.5229" y1="-1268.4957" x2="-2635.8718" y2="-1268.4957" gradientTransform="matrix(0.4364 0.8998 0.8998 -0.4364 2352.4966 1246.6302)">
					<stop  offset="0" style="stop-color:#24000A"/>
					<stop  offset="1" style="stop-color:#050000"/>
				</linearGradient>
				<path class="st73" d="M61.1-573.3c-1.7,2.5-3.9,4.1-4.9,3.4s-0.3-3.2,1.4-5.8c1.7-2.5,3.9-4.1,4.9-3.4S62.8-575.8,61.1-573.3z"
					/>
				<g>
					
						<linearGradient id="SVGID_68_" gradientUnits="userSpaceOnUse" x1="-2651.8735" y1="-1259.418" x2="-2638.457" y2="-1259.418" gradientTransform="matrix(0.4364 0.8998 0.8998 -0.4364 2352.4966 1246.6302)">
						<stop  offset="0" style="stop-color:#24000A"/>
						<stop  offset="1" style="stop-color:#050000"/>
					</linearGradient>
					<path class="st74" d="M57.3-585.4c-0.2-0.3-0.2-0.7-0.2-1.1c0.1-1.1,1.1-1.8,2.1-1.7c7.9,1,12.7,5.2,12.9,5.4
						c0.8,0.7,0.9,1.9,0.2,2.7s-1.9,0.9-2.7,0.2c-0.1-0.1-4.2-3.6-10.9-4.4C58.1-584.4,57.6-584.8,57.3-585.4z"/>
				</g>
				
					<linearGradient id="SVGID_69_" gradientUnits="userSpaceOnUse" x1="-1314.2781" y1="-373.971" x2="-1252.9862" y2="-489.1976" gradientTransform="matrix(0.6906 -0.7233 -0.7233 -0.6906 604.3154 -1828.6184)">
					<stop  offset="0" style="stop-color:#1F3683"/>
					<stop  offset="1" style="stop-color:#0F0038"/>
				</linearGradient>
				<path class="st75" d="M91-595.1c-1.9,1.7-4.4,2.8-7,3c-20.1,1.5-30.4-27.7-41.1-19.5c-11.4,8.7-8.8,30.4-13,33.8
					c-4.2,3.4-9.1,0.9-8.3-9.5c0.8-10.3-10.6-16.9-15.4-6.6c-4.8,10.3-1.7,19-2.1,19.7c-10.4,21.8-35.3-12-35.3-12
					c2.4,1.8,4.6,1.6,4.6,1.6c-1.5,0.2-2.9-1.9-2.9-1.9c1.4,0.8,12.7-4.6,9.7-14.5c-3-9.9-1.2-17-1.2-17c-1.5,1.6-1.9,4.5-1.9,4.5
					c-5.2-15.2,4.1-21.3,4.1-21.3c-5,1.4-9,5.2-9,5.2c-1.9-16.8,12.5-25.7,12.5-25.7c-2.5,0.7-8.2,3.6-8.2,3.6
					c4.9-9.3,13.2-11.2,13.2-11.2c-4.5-2.1-7.6-10.2-7.6-10.2c17,14.6,23.1-0.1,45.1,0.1c22,0.3,38.6,13.5,38.6,13.5
					c-3.6-3.9-4.9-11.4-4.9-11.4s0.7,4.6,21.6,18.8s12.7,32.6,12.7,32.6c4.7-4.1,4.9-10.2,4.9-10.2S105.8-608.3,91-595.1z
					 M23.5-576.8c-1-0.8-2.4-0.7-3.2,0.2c-1.8,2.1-4.9,5-8,5.2c-4.8,0.3-8.6,3.9-9.8,6.2c-1.2,2.3-4.2,9.8-4.7,13.1
					c-0.6,3.3,1,11,4.2,14.7s14.2,6.5,13.3,6.9c-0.9,0.4,3.8,3.5,7.4,3.5c3.5,0,8.8,0.7,15-3.9c6.2-4.6,22.6-11.4,7.9-20.7
					c-11.4-7.2-14.3-18.1-15.1-22.7c-0.2-1-1.1-1.6-2.1-1.3C27.1-575.2,25.3-575.2,23.5-576.8z"/>
				<path class="st42" d="M30.1-554.4c1,3.3,3.7,11.3,7.9,11.7c0,0-4.8,7-9,3.9c-3.7-2.7-1.4-11.7,0.1-15.7
					C29.3-554.9,29.9-554.9,30.1-554.4z"/>
			</g>
			<path class="st65" d="M-92.4-495.9c5.2-6,10.5-11.9,15.8-17.9c2.6-3,5.2-6,7.7-9c2.4-3,4.3-6.5,5.9-10c1.6-3.6,2.9-7.3,4-11.1
				c1.1-3.8,1.8-7.6,2.4-11.5c0.5-3.9,0.7-7.8,0.5-11.8c-0.2-3.9-0.9-7.9-2.1-11.6c1.7,3.6,2.6,7.6,3.1,11.6s0.5,8,0.1,12
				c-0.7,8-2.8,15.9-6.1,23.2c-1.7,3.7-3.7,7.2-6.3,10.4c-2.6,3-5.3,6-8,8.9C-81-506.9-86.6-501.3-92.4-495.9z"/>
			
				<linearGradient id="SVGID_70_" gradientUnits="userSpaceOnUse" x1="-2135.0361" y1="-653.1649" x2="-2135.0361" y2="-653.1649" gradientTransform="matrix(0.9993 3.727137e-02 3.727137e-02 -0.9993 2070.719 -1059.6313)">
				<stop  offset="0" style="stop-color:#F4D85F"/>
				<stop  offset="1" style="stop-color:#ECB543"/>
			</linearGradient>
			<path class="st76" d="M-87.2-486.5"/>
		</g>
	</g>
</g>
<g id="Capa_2_1_" class="st43">
	<g class="st44">
		
			<linearGradient id="SVGID_71_" gradientUnits="userSpaceOnUse" x1="4992.4443" y1="5670.001" x2="4992.4443" y2="6879.7393" gradientTransform="matrix(-0.6906 0.7233 0.7233 0.6906 -333.9155 -7348.1753)">
			<stop  offset="0" style="stop-color:#DBE8F9"/>
			<stop  offset="1" style="stop-color:#A8C8ED"/>
		</linearGradient>
		<path class="st77" d="M646.6,495.9C797.2,338.2,894.3,181,878.4,125.8c-11.7,9.2-23.5,18.6-35.2,28.1c4.3,22.7-9,61.7-39,112.9
			C766.1,331.9,705.7,409,634.1,484S488.2,622.9,425,664c-42.7,27.8-77,42.8-100.4,44.4c-8.3,12-16.7,24.4-25.4,37.4
			c25.7-0.4,64.9-17.2,114.6-49.5C484.2,650.6,566.8,579.4,646.6,495.9z"/>
		
			<linearGradient id="SVGID_72_" gradientUnits="userSpaceOnUse" x1="4992.0342" y1="5670.001" x2="4992.0342" y2="6879.7393" gradientTransform="matrix(-0.6906 0.7233 0.7233 0.6906 -333.9155 -7348.1753)">
			<stop  offset="0" style="stop-color:#DBE8F9"/>
			<stop  offset="1" style="stop-color:#A8C8ED"/>
		</linearGradient>
		<path class="st78" d="M400,732.1c78.3-51.2,170.4-130.7,259.4-223.9s164.2-188.9,211.7-269.5c23.1-39.2,38.4-72.6,45.5-99.4
			c5-18.9,5.7-33.8,2.2-44.7c-13.1,10-26.3,20.1-39.4,30.4c7.3,24.6-7.2,69.5-42.4,129.6c-42.4,72.5-109.7,158.4-189.6,242
			c-79.8,83.6-162.5,154.8-233,200.5c-50.3,32.6-90,49.5-116,49.7c-8.8,13.2-17.9,26.9-27.1,41c8.9-0.1,19.4-2,31.5-5.8
			C329.3,773.8,362,757,400,732.1z"/>
		
			<linearGradient id="SVGID_73_" gradientUnits="userSpaceOnUse" x1="4991.8452" y1="5670.001" x2="4991.8452" y2="6879.7393" gradientTransform="matrix(-0.6906 0.7233 0.7233 0.6906 -333.9155 -7348.1753)">
			<stop  offset="0" style="stop-color:#DBE8F9"/>
			<stop  offset="1" style="stop-color:#A8C8ED"/>
		</linearGradient>
		<path class="st79" d="M385.4,773.2c87.3-57.3,190.1-146.2,289.4-250.3C865.3,323.4,988,125.3,964.6,60.3c-15,11-30,22.1-45,33.5
			c8.9,26.8-7.5,77.3-47.6,145.4C824.6,319.9,749.3,415.7,660.3,509S479.1,681.8,400.7,733.1c-56.5,36.9-101,56-129.7,56
			c-0.1,0-0.3,0-0.4,0c-9.8,15-19.8,30.7-30.1,46.8c10.3,0.1,22.5-2.1,36.7-6.6C306.6,819.9,343,801,385.4,773.2z"/>
		
			<linearGradient id="SVGID_74_" gradientUnits="userSpaceOnUse" x1="5020.7988" y1="5670.001" x2="5020.7988" y2="6879.7393" gradientTransform="matrix(-0.6906 0.7233 0.7233 0.6906 -333.9155 -7348.1753)">
			<stop  offset="0" style="stop-color:#DBE8F9"/>
			<stop  offset="1" style="stop-color:#A8C8ED"/>
		</linearGradient>
		<path class="st80" d="M608.5,929.2H708c65.2-58.3,130.6-121.6,194.7-188.8c50.7-53.1,99-107,144.4-160.7V477.2
			C989.5,549.9,925.3,623.6,856.2,696C774.5,781.5,690.8,860.2,608.5,929.2z"/>
		
			<linearGradient id="SVGID_75_" gradientUnits="userSpaceOnUse" x1="5026.5386" y1="5670.001" x2="5026.5386" y2="6879.7393" gradientTransform="matrix(-0.6906 0.7233 0.7233 0.6906 -333.9155 -7348.1753)">
			<stop  offset="0" style="stop-color:#DBE8F9"/>
			<stop  offset="1" style="stop-color:#A8C8ED"/>
		</linearGradient>
		<path class="st81" d="M815.9,929.2h107c28.9-28.4,57.5-57.6,86-87.4c12.8-13.5,25.6-27,38.1-40.5V691
			c-29.7,33.4-60.3,66.6-91.8,99.6C909.4,838.7,862.8,885,815.9,929.2z"/>
		
			<linearGradient id="SVGID_76_" gradientUnits="userSpaceOnUse" x1="4992.3188" y1="5670.001" x2="4992.3188" y2="6879.7393" gradientTransform="matrix(-0.6906 0.7233 0.7233 0.6906 -333.9155 -7348.1753)">
			<stop  offset="0" style="stop-color:#DBE8F9"/>
			<stop  offset="1" style="stop-color:#A8C8ED"/>
		</linearGradient>
		<path class="st82" d="M633.3,483.2c71.6-75,131.9-152,170-217c29.7-50.7,43-89.2,39-111.6c-8.6,7-17.2,14-25.8,21.1
			c2.8,21-9.4,55.8-35.9,101.1c-34.8,59.5-90,130-155.5,198.5c-65.5,68.6-133.3,127-191.1,164.5c-37.8,24.5-68.4,38.2-89.7,40.4
			c-6.2,8.7-12.4,17.7-18.9,27c23-1.9,56.8-16.9,99-44.2C487.5,622,561.7,558.1,633.3,483.2z"/>
		
			<linearGradient id="SVGID_77_" gradientUnits="userSpaceOnUse" x1="5023.5742" y1="5670.001" x2="5023.5742" y2="6879.7393" gradientTransform="matrix(-0.6906 0.7233 0.7233 0.6906 -333.9155 -7348.1753)">
			<stop  offset="0" style="stop-color:#DBE8F9"/>
			<stop  offset="1" style="stop-color:#A8C8ED"/>
		</linearGradient>
		<path class="st83" d="M709.7,929.2h104.6c47.2-44.5,94-91,140.2-139.4c31.8-33.3,62.7-66.8,92.6-100.5V581.5
			C1002,634.9,954,688.4,903.6,741.3C839.7,808.1,774.6,871.2,709.7,929.2z"/>
		
			<linearGradient id="SVGID_78_" gradientUnits="userSpaceOnUse" x1="5018.1475" y1="5670.001" x2="5018.1475" y2="6879.7393" gradientTransform="matrix(-0.6906 0.7233 0.7233 0.6906 -333.9155 -7348.1753)">
			<stop  offset="0" style="stop-color:#DBE8F9"/>
			<stop  offset="1" style="stop-color:#A8C8ED"/>
		</linearGradient>
		<path class="st84" d="M517.1,929.2h89.7c82.5-69.1,166.6-148.2,248.5-234c69.4-72.7,134-146.8,191.8-219.8v-92.8
			c-66.1,90.3-145,184.1-232.5,275.7C716.1,761.4,614.3,853.9,517.1,929.2z"/>
		
			<linearGradient id="SVGID_79_" gradientUnits="userSpaceOnUse" x1="4995.8667" y1="5670.001" x2="4995.8667" y2="6879.7393" gradientTransform="matrix(-0.6906 0.7233 0.7233 0.6906 -333.9155 -7348.1753)">
			<stop  offset="0" style="stop-color:#DBE8F9"/>
			<stop  offset="1" style="stop-color:#A8C8ED"/>
		</linearGradient>
		<path class="st85" d="M1019.3,21.2c14.5,32.3-5.4,97.2-57.6,185.9c-59.4,100.8-153.4,220.5-264.6,337
			C585.8,660.6,470.6,760,372.6,823.9c-70.5,46-126,69.7-162,69.7c-2.1,0-4.1-0.1-6-0.2c-7.1,11.7-14.4,23.6-21.7,35.8h110.4
			c20.6-10.8,42.7-23.7,66.2-38.8c111.8-71.9,242.8-184.2,368.9-316.3C873.1,422.5,986.3,270.9,1047,155.4V1.8
			C1037.8,8.2,1028.6,14.6,1019.3,21.2z"/>
		
			<linearGradient id="SVGID_80_" gradientUnits="userSpaceOnUse" x1="4991.9688" y1="5670.001" x2="4991.9688" y2="6879.7393" gradientTransform="matrix(-0.6906 0.7233 0.7233 0.6906 -333.9155 -7348.1753)">
			<stop  offset="0" style="stop-color:#DBE8F9"/>
			<stop  offset="1" style="stop-color:#A8C8ED"/>
		</linearGradient>
		<path class="st86" d="M696.3,543.3c111.2-116.4,205.1-236.1,264.4-336.8c28.8-49,47.9-90.8,56.7-124.3c6.9-26.2,7.2-46.4,1-60.3
			c-17.5,12.3-35,24.9-52.7,37.8c10.8,29.4-7.5,86.1-53.2,163.1c-53.3,89.9-137.4,196.8-236.8,300.9
			c-99.4,104.1-202.3,193-289.6,250.4C322.9,815.6,273.3,837,241.4,837c-0.5,0-1.1,0-1.6,0c-11.2,17.8-22.7,36.2-34.5,55.4
			C289.3,898.4,493.9,755.3,696.3,543.3z"/>
		
			<linearGradient id="SVGID_81_" gradientUnits="userSpaceOnUse" x1="4992.5986" y1="5670.001" x2="4992.5986" y2="6879.7393" gradientTransform="matrix(-0.6906 0.7233 0.7233 0.6906 -333.9155 -7348.1753)">
			<stop  offset="0" style="stop-color:#DBE8F9"/>
			<stop  offset="1" style="stop-color:#A8C8ED"/>
		</linearGradient>
		<path class="st87" d="M433.3,638.9c57.7-37.5,125.5-95.8,190.9-164.3s120.6-138.9,155.3-198.3c26.2-44.7,38.4-79,35.9-99.7
			c-10.3,8.5-20.7,17.2-31,26c-6.4,48.9-75.2,151.8-174.9,256.2c-93.7,98.1-187.4,169-238.6,184.2c-8.3,11.4-16.9,23.4-25.8,36.1
			C366,676.6,396.1,663,433.3,638.9z"/>
		
			<linearGradient id="SVGID_82_" gradientUnits="userSpaceOnUse" x1="5029.5103" y1="5670.001" x2="5029.5103" y2="6879.7393" gradientTransform="matrix(-0.6906 0.7233 0.7233 0.6906 -333.9155 -7348.1753)">
			<stop  offset="0" style="stop-color:#DBE8F9"/>
			<stop  offset="1" style="stop-color:#A8C8ED"/>
		</linearGradient>
		<path class="st88" d="M924.6,929.2h122.5V803.1c-12.3,13.2-24.7,26.4-37.3,39.6C981.6,872.2,953.2,901.1,924.6,929.2z"/>
		
			<linearGradient id="SVGID_83_" gradientUnits="userSpaceOnUse" x1="5015.2168" y1="5670.001" x2="5015.2168" y2="6879.7393" gradientTransform="matrix(-0.6906 0.7233 0.7233 0.6906 -333.9155 -7348.1753)">
			<stop  offset="0" style="stop-color:#DBE8F9"/>
			<stop  offset="1" style="stop-color:#A8C8ED"/>
		</linearGradient>
		<path class="st89" d="M402,929.2h113.2c97.5-75.4,199.7-168.2,298.6-271.8c87.8-92,167-186.2,233.3-276.8v-116
			c-71.6,109.2-168.7,229.3-280.2,346.1C643.9,739.5,516.2,850.8,402,929.2z"/>
		
			<linearGradient id="SVGID_84_" gradientUnits="userSpaceOnUse" x1="5013.3706" y1="5670.001" x2="5013.3706" y2="6879.7393" gradientTransform="matrix(-0.6906 0.7233 0.7233 0.6906 -333.9155 -7348.1753)">
			<stop  offset="0" style="stop-color:#DBE8F9"/>
			<stop  offset="1" style="stop-color:#A8C8ED"/>
		</linearGradient>
		<path class="st90" d="M729.3,574.9C603.1,707.1,472.1,819.5,360.2,891.4c-22.9,14.7-44.3,27.3-64.4,37.9h104.1
			c114.5-78.4,242.6-190.1,366-319.3C880.8,489.7,977.2,368.9,1047,262.4V157.9c-5.7,10.9-12,22.1-18.7,33.7
			C961.8,306.6,855.5,442.7,729.3,574.9z"/>
		
			<linearGradient id="SVGID_85_" gradientUnits="userSpaceOnUse" x1="4992.6382" y1="5670.001" x2="4992.6382" y2="6879.7393" gradientTransform="matrix(-0.6906 0.7233 0.7233 0.6906 -333.9155 -7348.1753)">
			<stop  offset="0" style="stop-color:#DBE8F9"/>
			<stop  offset="1" style="stop-color:#A8C8ED"/>
		</linearGradient>
		<path class="st91" d="M625,475.3c65.5-68.6,120.7-139.1,155.5-198.5c26.5-45.3,38.7-80.1,35.9-101.1c-0.3,0.3-0.7,0.5-1,0.8
			c2.5,20.7-9.8,55-35.9,99.7c-34.8,59.4-89.9,129.8-155.3,198.3S491,601.4,433.3,638.9c-37.2,24.2-67.3,37.7-88.2,40.2
			c-0.3,0.4-0.5,0.8-0.8,1.2c21.3-2.2,51.8-15.9,89.7-40.4C491.7,602.3,559.6,543.9,625,475.3z"/>
		
			<linearGradient id="SVGID_86_" gradientUnits="userSpaceOnUse" x1="-546.4258" y1="10524.7969" x2="-40.3632" y2="10524.7969" gradientTransform="matrix(-1 0 0 1 270.3999 -10096.7959)">
			<stop  offset="0" style="stop-color:#1F3683"/>
			<stop  offset="1" style="stop-color:#0F0038"/>
		</linearGradient>
		<path class="st92" d="M625,475.3c65.5-68.6,120.7-139.1,155.5-198.5c26.5-45.3,38.7-80.1,35.9-101.1c-0.3,0.3-0.7,0.5-1,0.8
			c2.5,20.7-9.8,55-35.9,99.7c-34.8,59.4-89.9,129.8-155.3,198.3S491,601.4,433.3,638.9c-37.2,24.2-67.3,37.7-88.2,40.2
			c-0.3,0.4-0.5,0.8-0.8,1.2c21.3-2.2,51.8-15.9,89.7-40.4C491.7,602.3,559.6,543.9,625,475.3z"/>
		
			<linearGradient id="SVGID_87_" gradientUnits="userSpaceOnUse" x1="4992.4634" y1="5670.001" x2="4992.4634" y2="6879.7393" gradientTransform="matrix(-0.6906 0.7233 0.7233 0.6906 -333.9155 -7348.1753)">
			<stop  offset="0" style="stop-color:#DBE8F9"/>
			<stop  offset="1" style="stop-color:#A8C8ED"/>
		</linearGradient>
		<path class="st93" d="M634.1,484c71.6-75,132.1-152.2,170.1-217.2c30-51.2,43.3-90.2,39-112.9c-0.3,0.3-0.6,0.5-1,0.8
			c4,22.4-9.3,60.9-39,111.6c-38,65-98.4,142.1-170,217C561.7,558.1,487.5,622,424.3,663c-42.2,27.4-76,42.3-99,44.2
			c-0.3,0.4-0.5,0.8-0.8,1.1c23.3-1.6,57.6-16.7,100.4-44.4C488.2,622.9,562.5,559,634.1,484z"/>
		
			<linearGradient id="SVGID_88_" gradientUnits="userSpaceOnUse" x1="-573.6227" y1="10527.8965" x2="-19.9481" y2="10527.8965" gradientTransform="matrix(-1 0 0 1 270.3999 -10096.7959)">
			<stop  offset="0" style="stop-color:#1F3683"/>
			<stop  offset="1" style="stop-color:#0F0038"/>
		</linearGradient>
		<path class="st94" d="M634.1,484c71.6-75,132.1-152.2,170.1-217.2c30-51.2,43.3-90.2,39-112.9c-0.3,0.3-0.6,0.5-1,0.8
			c4,22.4-9.3,60.9-39,111.6c-38,65-98.4,142.1-170,217C561.7,558.1,487.5,622,424.3,663c-42.2,27.4-76,42.3-99,44.2
			c-0.3,0.4-0.5,0.8-0.8,1.1c23.3-1.6,57.6-16.7,100.4-44.4C488.2,622.9,562.5,559,634.1,484z"/>
		
			<linearGradient id="SVGID_89_" gradientUnits="userSpaceOnUse" x1="4992.4854" y1="5670.001" x2="4992.4854" y2="6879.7393" gradientTransform="matrix(-0.6906 0.7233 0.7233 0.6906 -333.9155 -7348.1753)">
			<stop  offset="0" style="stop-color:#DBE8F9"/>
			<stop  offset="1" style="stop-color:#A8C8ED"/>
		</linearGradient>
		<path class="st95" d="M647.4,496.7c79.8-83.6,147.1-169.5,189.6-242c35.2-60.1,49.8-105.1,42.4-129.6c-0.3,0.2-0.6,0.5-0.9,0.7
			c15.8,55.2-81.3,212.4-231.9,370.1c-79.7,83.5-162.4,154.7-232.8,200.4c-49.7,32.3-89,49.1-114.6,49.5c-0.2,0.4-0.5,0.7-0.7,1.1
			c26-0.2,65.7-17,116-49.7C484.9,651.5,567.6,580.2,647.4,496.7z"/>
		
			<linearGradient id="SVGID_90_" gradientUnits="userSpaceOnUse" x1="-610.9067" y1="10532.7969" x2="5.8203" y2="10532.7969" gradientTransform="matrix(-1 0 0 1 270.3999 -10096.7959)">
			<stop  offset="0" style="stop-color:#1F3683"/>
			<stop  offset="1" style="stop-color:#0F0038"/>
		</linearGradient>
		<path class="st96" d="M647.4,496.7c79.8-83.6,147.1-169.5,189.6-242c35.2-60.1,49.8-105.1,42.4-129.6c-0.3,0.2-0.6,0.5-0.9,0.7
			c15.8,55.2-81.3,212.4-231.9,370.1c-79.7,83.5-162.4,154.7-232.8,200.4c-49.7,32.3-89,49.1-114.6,49.5c-0.2,0.4-0.5,0.7-0.7,1.1
			c26-0.2,65.7-17,116-49.7C484.9,651.5,567.6,580.2,647.4,496.7z"/>
		
			<linearGradient id="SVGID_91_" gradientUnits="userSpaceOnUse" x1="4992.0767" y1="5670.001" x2="4992.0767" y2="6879.7393" gradientTransform="matrix(-0.6906 0.7233 0.7233 0.6906 -333.9155 -7348.1753)">
			<stop  offset="0" style="stop-color:#DBE8F9"/>
			<stop  offset="1" style="stop-color:#A8C8ED"/>
		</linearGradient>
		<path class="st97" d="M400.7,733.1C479,681.8,571.2,602.2,660.3,509c89-93.3,164.3-189,211.9-269.7
			c40.1-68.1,56.5-118.6,47.6-145.4c-0.3,0.2-0.6,0.5-0.9,0.7c3.5,10.9,2.8,25.8-2.2,44.7c-7.1,26.8-22.4,60.2-45.5,99.4
			C823.6,319.3,748.4,415,659.5,508.2c-89,93.2-181.1,172.7-259.4,223.9c-38,24.9-70.7,41.7-97.2,50c-12.1,3.8-22.6,5.7-31.5,5.8
			c-0.2,0.4-0.5,0.8-0.7,1.1c0.1,0,0.3,0,0.4,0C299.7,789,344.2,770,400.7,733.1z"/>
		
			<linearGradient id="SVGID_92_" gradientUnits="userSpaceOnUse" x1="-651.7901" y1="10538.2461" x2="35.7143" y2="10538.2461" gradientTransform="matrix(-1 0 0 1 270.3999 -10096.7959)">
			<stop  offset="0" style="stop-color:#1F3683"/>
			<stop  offset="1" style="stop-color:#0F0038"/>
		</linearGradient>
		<path class="st98" d="M400.7,733.1C479,681.8,571.2,602.2,660.3,509c89-93.3,164.3-189,211.9-269.7
			c40.1-68.1,56.5-118.6,47.6-145.4c-0.3,0.2-0.6,0.5-0.9,0.7c3.5,10.9,2.8,25.8-2.2,44.7c-7.1,26.8-22.4,60.2-45.5,99.4
			C823.6,319.3,748.4,415,659.5,508.2c-89,93.2-181.1,172.7-259.4,223.9c-38,24.9-70.7,41.7-97.2,50c-12.1,3.8-22.6,5.7-31.5,5.8
			c-0.2,0.4-0.5,0.8-0.7,1.1c0.1,0,0.3,0,0.4,0C299.7,789,344.2,770,400.7,733.1z"/>
		
			<linearGradient id="SVGID_93_" gradientUnits="userSpaceOnUse" x1="4991.9224" y1="5670.001" x2="4991.9224" y2="6879.7393" gradientTransform="matrix(-0.6906 0.7233 0.7233 0.6906 -333.9155 -7348.1753)">
			<stop  offset="0" style="stop-color:#DBE8F9"/>
			<stop  offset="1" style="stop-color:#A8C8ED"/>
		</linearGradient>
		<path class="st99" d="M386.1,774.1c87.3-57.4,190.2-146.3,289.6-250.4s183.5-211,236.8-300.9c45.6-77,64-133.8,53.2-163.1
			c-0.3,0.2-0.6,0.5-0.9,0.7C988.1,125.3,865.4,323.5,675,523c-99.5,104-202.3,192.8-289.6,250.2c-42.4,27.9-78.8,46.7-108.3,56.1
			c-14.2,4.5-26.4,6.7-36.7,6.6c-0.2,0.4-0.5,0.7-0.7,1.1c0.5,0,1.1,0,1.6,0C273.3,837,322.9,815.6,386.1,774.1z"/>
		
			<linearGradient id="SVGID_94_" gradientUnits="userSpaceOnUse" x1="-698.3419" y1="10545.1465" x2="68.7717" y2="10545.1465" gradientTransform="matrix(-1 0 0 1 270.3999 -10096.7959)">
			<stop  offset="0" style="stop-color:#1F3683"/>
			<stop  offset="1" style="stop-color:#0F0038"/>
		</linearGradient>
		<path class="st100" d="M386.1,774.1c87.3-57.4,190.2-146.3,289.6-250.4s183.5-211,236.8-300.9c45.6-77,64-133.8,53.2-163.1
			c-0.3,0.2-0.6,0.5-0.9,0.7C988.1,125.3,865.4,323.5,675,523c-99.5,104-202.3,192.8-289.6,250.2c-42.4,27.9-78.8,46.7-108.3,56.1
			c-14.2,4.5-26.4,6.7-36.7,6.6c-0.2,0.4-0.5,0.7-0.7,1.1c0.5,0,1.1,0,1.6,0C273.3,837,322.9,815.6,386.1,774.1z"/>
		
			<linearGradient id="SVGID_95_" gradientUnits="userSpaceOnUse" x1="4991.939" y1="5670.001" x2="4991.939" y2="6879.7393" gradientTransform="matrix(-0.6906 0.7233 0.7233 0.6906 -333.9155 -7348.1753)">
			<stop  offset="0" style="stop-color:#DBE8F9"/>
			<stop  offset="1" style="stop-color:#A8C8ED"/>
		</linearGradient>
		<path class="st101" d="M1017.3,82.2c-8.8,33.5-27.9,75.4-56.7,124.3c-59.2,100.8-153.1,220.4-264.3,336.8
			c-202.4,212-407,355.1-490.9,349c-0.2,0.4-0.4,0.7-0.7,1.1c1.9,0.2,3.9,0.2,6,0.2c35.9,0,91.5-23.7,162-69.7
			c98-64,213.2-163.3,324.5-279.8c111.2-116.5,205.2-236.2,264.6-337c52.2-88.7,72.2-153.6,57.6-185.9c-0.3,0.2-0.6,0.4-0.9,0.7
			C1024.5,35.8,1024.2,56,1017.3,82.2z"/>
		
			<linearGradient id="SVGID_96_" gradientUnits="userSpaceOnUse" x1="-753.6765" y1="10554.1963" x2="105.1895" y2="10554.1963" gradientTransform="matrix(-1 0 0 1 270.3999 -10096.7959)">
			<stop  offset="0" style="stop-color:#1F3683"/>
			<stop  offset="1" style="stop-color:#0F0038"/>
		</linearGradient>
		<path class="st102" d="M1017.3,82.2c-8.8,33.5-27.9,75.4-56.7,124.3c-59.2,100.8-153.1,220.4-264.3,336.8
			c-202.4,212-407,355.1-490.9,349c-0.2,0.4-0.4,0.7-0.7,1.1c1.9,0.2,3.9,0.2,6,0.2c35.9,0,91.5-23.7,162-69.7
			c98-64,213.2-163.3,324.5-279.8c111.2-116.5,205.2-236.2,264.6-337c52.2-88.7,72.2-153.6,57.6-185.9c-0.3,0.2-0.6,0.4-0.9,0.7
			C1024.5,35.8,1024.2,56,1017.3,82.2z"/>
		
			<linearGradient id="SVGID_97_" gradientUnits="userSpaceOnUse" x1="5013.2246" y1="5670.001" x2="5013.2246" y2="6879.7393" gradientTransform="matrix(-0.6906 0.7233 0.7233 0.6906 -333.9155 -7348.1753)">
			<stop  offset="0" style="stop-color:#DBE8F9"/>
			<stop  offset="1" style="stop-color:#A8C8ED"/>
		</linearGradient>
		<path class="st103" d="M359.6,890.4c-23.5,15.1-45.6,28.1-66.2,38.8h2.4c20-10.6,41.5-23.2,64.4-37.9
			c111.9-71.8,242.9-184.2,369.1-316.4s232.4-268.3,299.1-383.3c6.7-11.6,12.9-22.8,18.7-33.7v-2.5
			c-60.7,115.5-173.9,267.2-318.6,418.7C602.4,706.2,471.4,818.6,359.6,890.4z"/>
		
			<linearGradient id="SVGID_98_" gradientUnits="userSpaceOnUse" x1="-826.9861" y1="10639.0967" x2="148.9618" y2="10639.0967" gradientTransform="matrix(-1 0 0 1 270.3999 -10096.7959)">
			<stop  offset="0" style="stop-color:#1F3683"/>
			<stop  offset="1" style="stop-color:#0F0038"/>
		</linearGradient>
		<path class="st104" d="M359.6,890.4c-23.5,15.1-45.6,28.1-66.2,38.8h2.4c20-10.6,41.5-23.2,64.4-37.9
			c111.9-71.8,242.9-184.2,369.1-316.4s232.4-268.3,299.1-383.3c6.7-11.6,12.9-22.8,18.7-33.7v-2.5
			c-60.7,115.5-173.9,267.2-318.6,418.7C602.4,706.2,471.4,818.6,359.6,890.4z"/>
		
			<linearGradient id="SVGID_99_" gradientUnits="userSpaceOnUse" x1="5015.1465" y1="5670.001" x2="5015.1465" y2="6879.7393" gradientTransform="matrix(-0.6906 0.7233 0.7233 0.6906 -333.9155 -7348.1753)">
			<stop  offset="0" style="stop-color:#DBE8F9"/>
			<stop  offset="1" style="stop-color:#A8C8ED"/>
		</linearGradient>
		<path class="st105" d="M400,929.2h2c114.2-78.4,241.9-189.8,364.8-318.5c111.6-116.9,208.6-237,280.2-346.1v-2.2
			C977.3,368.9,880.8,489.7,765.9,610C642.6,739.2,514.5,850.8,400,929.2z"/>
		
			<linearGradient id="SVGID_100_" gradientUnits="userSpaceOnUse" x1="-899.7985" y1="10692.5967" x2="186.6801" y2="10692.5967" gradientTransform="matrix(-1 0 0 1 270.3999 -10096.7959)">
			<stop  offset="0" style="stop-color:#1F3683"/>
			<stop  offset="1" style="stop-color:#0F0038"/>
		</linearGradient>
		<path class="st106" d="M400,929.2h2c114.2-78.4,241.9-189.8,364.8-318.5c111.6-116.9,208.6-237,280.2-346.1v-2.2
			C977.3,368.9,880.8,489.7,765.9,610C642.6,739.2,514.5,850.8,400,929.2z"/>
		
			<linearGradient id="SVGID_101_" gradientUnits="userSpaceOnUse" x1="5018.1147" y1="5670.001" x2="5018.1147" y2="6879.7393" gradientTransform="matrix(-0.6906 0.7233 0.7233 0.6906 -333.9155 -7348.1753)">
			<stop  offset="0" style="stop-color:#DBE8F9"/>
			<stop  offset="1" style="stop-color:#A8C8ED"/>
		</linearGradient>
		<path class="st107" d="M515.2,929.2h1.8c97.2-75.3,199-167.8,297.5-271C902,566.6,980.9,472.8,1047,382.5v-1.9
			c-66.3,90.6-145.5,184.8-233.3,276.8C714.9,761,612.8,853.8,515.2,929.2z"/>
		
			<linearGradient id="SVGID_102_" gradientUnits="userSpaceOnUse" x1="-978.725" y1="10751.6963" x2="221.7477" y2="10751.6963" gradientTransform="matrix(-1 0 0 1 270.3999 -10096.7959)">
			<stop  offset="0" style="stop-color:#1F3683"/>
			<stop  offset="1" style="stop-color:#0F0038"/>
		</linearGradient>
		<path class="st108" d="M515.2,929.2h1.8c97.2-75.3,199-167.8,297.5-271C902,566.6,980.9,472.8,1047,382.5v-1.9
			c-66.3,90.6-145.5,184.8-233.3,276.8C714.9,761,612.8,853.8,515.2,929.2z"/>
		
			<linearGradient id="SVGID_103_" gradientUnits="userSpaceOnUse" x1="5020.6987" y1="5670.001" x2="5020.6987" y2="6879.7393" gradientTransform="matrix(-0.6906 0.7233 0.7233 0.6906 -333.9155 -7348.1753)">
			<stop  offset="0" style="stop-color:#DBE8F9"/>
			<stop  offset="1" style="stop-color:#A8C8ED"/>
		</linearGradient>
		<path class="st109" d="M606.8,929.2h1.8c82.2-69,166-147.8,247.6-233.3c69.1-72.4,133.3-146.1,190.9-218.8v-1.8
			c-57.8,73-122.3,147.1-191.8,219.8C773.4,781,689.3,860.1,606.8,929.2z"/>
		
			<linearGradient id="SVGID_104_" gradientUnits="userSpaceOnUse" x1="-1062.976" y1="10799.0469" x2="265.7797" y2="10799.0469" gradientTransform="matrix(-1 0 0 1 270.3999 -10096.7959)">
			<stop  offset="0" style="stop-color:#1F3683"/>
			<stop  offset="1" style="stop-color:#0F0038"/>
		</linearGradient>
		<path class="st110" d="M606.8,929.2h1.8c82.2-69,166-147.8,247.6-233.3c69.1-72.4,133.3-146.1,190.9-218.8v-1.8
			c-57.8,73-122.3,147.1-191.8,219.8C773.4,781,689.3,860.1,606.8,929.2z"/>
		
			<linearGradient id="SVGID_105_" gradientUnits="userSpaceOnUse" x1="5023.4741" y1="5670.001" x2="5023.4741" y2="6879.7393" gradientTransform="matrix(-0.6906 0.7233 0.7233 0.6906 -333.9155 -7348.1753)">
			<stop  offset="0" style="stop-color:#DBE8F9"/>
			<stop  offset="1" style="stop-color:#A8C8ED"/>
		</linearGradient>
		<path class="st111" d="M708,929.2h1.7c64.9-58.1,130-121.1,193.9-188c50.4-52.8,98.5-106.3,143.5-159.8v-1.8
			c-45.3,53.8-93.6,107.6-144.4,160.7C838.6,807.6,773.2,871,708,929.2z"/>
		
			<linearGradient id="SVGID_106_" gradientUnits="userSpaceOnUse" x1="-1154.4777" y1="10851.1963" x2="312.3293" y2="10851.1963" gradientTransform="matrix(-1 0 0 1 270.3999 -10096.7959)">
			<stop  offset="0" style="stop-color:#1F3683"/>
			<stop  offset="1" style="stop-color:#0F0038"/>
		</linearGradient>
		<path class="st112" d="M708,929.2h1.7c64.9-58.1,130-121.1,193.9-188c50.4-52.8,98.5-106.3,143.5-159.8v-1.8
			c-45.3,53.8-93.6,107.6-144.4,160.7C838.6,807.6,773.2,871,708,929.2z"/>
		
			<linearGradient id="SVGID_107_" gradientUnits="userSpaceOnUse" x1="5026.4414" y1="5670.001" x2="5026.4414" y2="6879.7393" gradientTransform="matrix(-0.6906 0.7233 0.7233 0.6906 -333.9155 -7348.1753)">
			<stop  offset="0" style="stop-color:#DBE8F9"/>
			<stop  offset="1" style="stop-color:#A8C8ED"/>
		</linearGradient>
		<path class="st113" d="M814.3,929.2h1.6c46.9-44.2,93.4-90.5,139.4-138.6c31.5-33,62.1-66.2,91.8-99.6v-1.7
			c-29.9,33.7-60.8,67.2-92.6,100.5C908.3,838.2,861.5,884.8,814.3,929.2z"/>
		
			<linearGradient id="SVGID_108_" gradientUnits="userSpaceOnUse" x1="-1254.3353" y1="10906.0469" x2="363.0965" y2="10906.0469" gradientTransform="matrix(-1 0 0 1 270.3999 -10096.7959)">
			<stop  offset="0" style="stop-color:#1F3683"/>
			<stop  offset="1" style="stop-color:#0F0038"/>
		</linearGradient>
		<path class="st114" d="M814.3,929.2h1.6c46.9-44.2,93.4-90.5,139.4-138.6c31.5-33,62.1-66.2,91.8-99.6v-1.7
			c-29.9,33.7-60.8,67.2-92.6,100.5C908.3,838.2,861.5,884.8,814.3,929.2z"/>
		
			<linearGradient id="SVGID_109_" gradientUnits="userSpaceOnUse" x1="5029.4121" y1="5670.001" x2="5029.4121" y2="6879.7393" gradientTransform="matrix(-0.6906 0.7233 0.7233 0.6906 -333.9155 -7348.1753)">
			<stop  offset="0" style="stop-color:#DBE8F9"/>
			<stop  offset="1" style="stop-color:#A8C8ED"/>
		</linearGradient>
		<path class="st115" d="M923,929.2h1.6c28.6-28.2,57-57.1,85.2-86.6c12.6-13.2,25-26.4,37.3-39.6v-1.7
			c-12.6,13.5-25.3,27-38.1,40.5C980.5,871.7,951.8,900.8,923,929.2z"/>
		
			<linearGradient id="SVGID_110_" gradientUnits="userSpaceOnUse" x1="-1349.1552" y1="10962.0469" x2="406.6958" y2="10962.0469" gradientTransform="matrix(-1 0 0 1 270.3999 -10096.7959)">
			<stop  offset="0" style="stop-color:#1F3683"/>
			<stop  offset="1" style="stop-color:#0F0038"/>
		</linearGradient>
		<path class="st116" d="M923,929.2h1.6c28.6-28.2,57-57.1,85.2-86.6c12.6-13.2,25-26.4,37.3-39.6v-1.7
			c-12.6,13.5-25.3,27-38.1,40.5C980.5,871.7,951.8,900.8,923,929.2z"/>
	</g>
</g>
</svg>
